<?xml version="1.0" encoding="UTF-8" standalone="no"?>
<!DOCTYPE svg PUBLIC "-//W3C//DTD SVG 1.0//EN" "http://www.w3.org/TR/2001/PR-SVG-20010719/DTD/svg10.dtd">
<svg width="7cm" height="14cm" viewBox="59 179 123 262" xmlns="http://www.w3.org/2000/svg" xmlns:xlink="http://www.w3.org/1999/xlink">
  <defs/>
  <g id="Background">
    <rect style="fill: #7f7f7f; fill-opacity: 1; stroke-opacity: 1; stroke-width: 2; stroke: #bfbfbf" x="60" y="180" width="20" height="20" rx="0" ry="0"/>
    <rect style="fill: #7f7f7f; fill-opacity: 1; stroke-opacity: 1; stroke-width: 2; stroke: #bfbfbf" x="80" y="180" width="20" height="20" rx="0" ry="0"/>
    <rect style="fill: #7f7f7f; fill-opacity: 1; stroke-opacity: 1; stroke-width: 2; stroke: #bfbfbf" x="100" y="180" width="20" height="20" rx="0" ry="0"/>
    <rect style="fill: #7f7f7f; fill-opacity: 1; stroke-opacity: 1; stroke-width: 2; stroke: #bfbfbf" x="120" y="180" width="20" height="20" rx="0" ry="0"/>
    <rect style="fill: #7f7f7f; fill-opacity: 1; stroke-opacity: 1; stroke-width: 2; stroke: #bfbfbf" x="140" y="180" width="20" height="20" rx="0" ry="0"/>
    <rect style="fill: #7f7f7f; fill-opacity: 1; stroke-opacity: 1; stroke-width: 2; stroke: #bfbfbf" x="160" y="180" width="20" height="20" rx="0" ry="0"/>
    <rect style="fill: #7f7f7f; fill-opacity: 1; stroke-opacity: 1; stroke-width: 2; stroke: #bfbfbf" x="60" y="200" width="20" height="20" rx="0" ry="0"/>
    <rect style="fill: #000000; fill-opacity: 1; stroke-opacity: 1; stroke-width: 2; stroke: #bfbfbf" x="80" y="200" width="20" height="20" rx="0" ry="0"/>
    <rect style="fill: #7f7f7f; fill-opacity: 1; stroke-opacity: 1; stroke-width: 2; stroke: #bfbfbf" x="100" y="200" width="20" height="20" rx="0" ry="0"/>
    <rect style="fill: #7f7f7f; fill-opacity: 1; stroke-opacity: 1; stroke-width: 2; stroke: #bfbfbf" x="120" y="200" width="20" height="20" rx="0" ry="0"/>
    <rect style="fill: #7f7f7f; fill-opacity: 1; stroke-opacity: 1; stroke-width: 2; stroke: #bfbfbf" x="140" y="200" width="20" height="20" rx="0" ry="0"/>
    <rect style="fill: #7f7f7f; fill-opacity: 1; stroke-opacity: 1; stroke-width: 2; stroke: #bfbfbf" x="160" y="200" width="20" height="20" rx="0" ry="0"/>
    <rect style="fill: #7f7f7f; fill-opacity: 1; stroke-opacity: 1; stroke-width: 2; stroke: #bfbfbf" x="60" y="220" width="20" height="20" rx="0" ry="0"/>
    <rect style="fill: #7f7f7f; fill-opacity: 1; stroke-opacity: 1; stroke-width: 2; stroke: #bfbfbf" x="80" y="220" width="20" height="20" rx="0" ry="0"/>
    <rect style="fill: #ffffff; fill-opacity: 1; stroke-opacity: 1; stroke-width: 2; stroke: #bfbfbf" x="100" y="220" width="20" height="20" rx="0" ry="0"/>
    <rect style="fill: #7f7f7f; fill-opacity: 1; stroke-opacity: 1; stroke-width: 2; stroke: #bfbfbf" x="120" y="220" width="20" height="20" rx="0" ry="0"/>
    <rect style="fill: #7f7f7f; fill-opacity: 1; stroke-opacity: 1; stroke-width: 2; stroke: #bfbfbf" x="140" y="220" width="20" height="20" rx="0" ry="0"/>
    <rect style="fill: #ffffff; fill-opacity: 1; stroke-opacity: 1; stroke-width: 2; stroke: #bfbfbf" x="160" y="220" width="20" height="20" rx="0" ry="0"/>
    <rect style="fill: #7f7f7f; fill-opacity: 1; stroke-opacity: 1; stroke-width: 2; stroke: #bfbfbf" x="60" y="240" width="20" height="20" rx="0" ry="0"/>
    <rect style="fill: #7f7f7f; fill-opacity: 1; stroke-opacity: 1; stroke-width: 2; stroke: #bfbfbf" x="80" y="240" width="20" height="20" rx="0" ry="0"/>
    <rect style="fill: #7f7f7f; fill-opacity: 1; stroke-opacity: 1; stroke-width: 2; stroke: #bfbfbf" x="100" y="240" width="20" height="20" rx="0" ry="0"/>
    <rect style="fill: #ffffff; fill-opacity: 1; stroke-opacity: 1; stroke-width: 2; stroke: #bfbfbf" x="120" y="240" width="20" height="20" rx="0" ry="0"/>
    <rect style="fill: #7f7f7f; fill-opacity: 1; stroke-opacity: 1; stroke-width: 2; stroke: #bfbfbf" x="140" y="240" width="20" height="20" rx="0" ry="0"/>
    <rect style="fill: #7f7f7f; fill-opacity: 1; stroke-opacity: 1; stroke-width: 2; stroke: #bfbfbf" x="160" y="240" width="20" height="20" rx="0" ry="0"/>
    <rect style="fill: #7f7f7f; fill-opacity: 1; stroke-opacity: 1; stroke-width: 2; stroke: #bfbfbf" x="60" y="260" width="20" height="20" rx="0" ry="0"/>
    <rect style="fill: #000000; fill-opacity: 1; stroke-opacity: 1; stroke-width: 2; stroke: #bfbfbf" x="80" y="260" width="20" height="20" rx="0" ry="0"/>
    <rect style="fill: #7f7f7f; fill-opacity: 1; stroke-opacity: 1; stroke-width: 2; stroke: #bfbfbf" x="100" y="260" width="20" height="20" rx="0" ry="0"/>
    <rect style="fill: #7f7f7f; fill-opacity: 1; stroke-opacity: 1; stroke-width: 2; stroke: #bfbfbf" x="120" y="260" width="20" height="20" rx="0" ry="0"/>
    <rect style="fill: #000000; fill-opacity: 1; stroke-opacity: 1; stroke-width: 2; stroke: #bfbfbf" x="140" y="260" width="20" height="20" rx="0" ry="0"/>
    <rect style="fill: #7f7f7f; fill-opacity: 1; stroke-opacity: 1; stroke-width: 2; stroke: #bfbfbf" x="160" y="260" width="20" height="20" rx="0" ry="0"/>
    <rect style="fill: #000000; fill-opacity: 1; stroke-opacity: 1; stroke-width: 2; stroke: #bfbfbf" x="60" y="280" width="20" height="20" rx="0" ry="0"/>
    <rect style="fill: #000000; fill-opacity: 1; stroke-opacity: 1; stroke-width: 2; stroke: #bfbfbf" x="80" y="280" width="20" height="20" rx="0" ry="0"/>
    <rect style="fill: #7f7f7f; fill-opacity: 1; stroke-opacity: 1; stroke-width: 2; stroke: #bfbfbf" x="100" y="280" width="20" height="20" rx="0" ry="0"/>
    <rect style="fill: #ffffff; fill-opacity: 1; stroke-opacity: 1; stroke-width: 2; stroke: #bfbfbf" x="120" y="280" width="20" height="20" rx="0" ry="0"/>
    <rect style="fill: #7f7f7f; fill-opacity: 1; stroke-opacity: 1; stroke-width: 2; stroke: #bfbfbf" x="140" y="280" width="20" height="20" rx="0" ry="0"/>
    <rect style="fill: #7f7f7f; fill-opacity: 1; stroke-opacity: 1; stroke-width: 2; stroke: #bfbfbf" x="160" y="280" width="20" height="20" rx="0" ry="0"/>
    <rect style="fill: #ffffff; fill-opacity: 1; stroke-opacity: 1; stroke-width: 2; stroke: #bfbfbf" x="60" y="320" width="20" height="20" rx="0" ry="0"/>
    <rect style="fill: #ffffff; fill-opacity: 1; stroke-opacity: 1; stroke-width: 2; stroke: #bfbfbf" x="80" y="320" width="20" height="20" rx="0" ry="0"/>
    <rect style="fill: #000000; fill-opacity: 1; stroke-opacity: 1; stroke-width: 2; stroke: #bfbfbf" x="100" y="320" width="20" height="20" rx="0" ry="0"/>
    <rect style="fill: #000000; fill-opacity: 1; stroke-opacity: 1; stroke-width: 2; stroke: #bfbfbf" x="120" y="320" width="20" height="20" rx="0" ry="0"/>
    <rect style="fill: #ffffff; fill-opacity: 1; stroke-opacity: 1; stroke-width: 2; stroke: #bfbfbf" x="140" y="320" width="20" height="20" rx="0" ry="0"/>
    <rect style="fill: #000000; fill-opacity: 1; stroke-opacity: 1; stroke-width: 2; stroke: #bfbfbf" x="160" y="320" width="20" height="20" rx="0" ry="0"/>
    <rect style="fill: #ffffff; fill-opacity: 1; stroke-opacity: 1; stroke-width: 2; stroke: #bfbfbf" x="60" y="340" width="20" height="20" rx="0" ry="0"/>
    <rect style="fill: #000000; fill-opacity: 1; stroke-opacity: 1; stroke-width: 2; stroke: #bfbfbf" x="80" y="340" width="20" height="20" rx="0" ry="0"/>
    <rect style="fill: #000000; fill-opacity: 1; stroke-opacity: 1; stroke-width: 2; stroke: #bfbfbf" x="100" y="340" width="20" height="20" rx="0" ry="0"/>
    <rect style="fill: #ffffff; fill-opacity: 1; stroke-opacity: 1; stroke-width: 2; stroke: #bfbfbf" x="120" y="340" width="20" height="20" rx="0" ry="0"/>
    <rect style="fill: #ffffff; fill-opacity: 1; stroke-opacity: 1; stroke-width: 2; stroke: #bfbfbf" x="140" y="340" width="20" height="20" rx="0" ry="0"/>
    <rect style="fill: #000000; fill-opacity: 1; stroke-opacity: 1; stroke-width: 2; stroke: #bfbfbf" x="160" y="340" width="20" height="20" rx="0" ry="0"/>
    <rect style="fill: #000000; fill-opacity: 1; stroke-opacity: 1; stroke-width: 2; stroke: #bfbfbf" x="60" y="360" width="20" height="20" rx="0" ry="0"/>
    <rect style="fill: #ffffff; fill-opacity: 1; stroke-opacity: 1; stroke-width: 2; stroke: #bfbfbf" x="80" y="360" width="20" height="20" rx="0" ry="0"/>
    <rect style="fill: #ffffff; fill-opacity: 1; stroke-opacity: 1; stroke-width: 2; stroke: #bfbfbf" x="100" y="360" width="20" height="20" rx="0" ry="0"/>
    <rect style="fill: #000000; fill-opacity: 1; stroke-opacity: 1; stroke-width: 2; stroke: #bfbfbf" x="120" y="360" width="20" height="20" rx="0" ry="0"/>
    <rect style="fill: #000000; fill-opacity: 1; stroke-opacity: 1; stroke-width: 2; stroke: #bfbfbf" x="140" y="360" width="20" height="20" rx="0" ry="0"/>
    <rect style="fill: #ffffff; fill-opacity: 1; stroke-opacity: 1; stroke-width: 2; stroke: #bfbfbf" x="160" y="360" width="20" height="20" rx="0" ry="0"/>
    <rect style="fill: #000000; fill-opacity: 1; stroke-opacity: 1; stroke-width: 2; stroke: #bfbfbf" x="60" y="380" width="20" height="20" rx="0" ry="0"/>
    <rect style="fill: #ffffff; fill-opacity: 1; stroke-opacity: 1; stroke-width: 2; stroke: #bfbfbf" x="80" y="380" width="20" height="20" rx="0" ry="0"/>
    <rect style="fill: #000000; fill-opacity: 1; stroke-opacity: 1; stroke-width: 2; stroke: #bfbfbf" x="100" y="380" width="20" height="20" rx="0" ry="0"/>
    <rect style="fill: #ffffff; fill-opacity: 1; stroke-opacity: 1; stroke-width: 2; stroke: #bfbfbf" x="120" y="380" width="20" height="20" rx="0" ry="0"/>
    <rect style="fill: #ffffff; fill-opacity: 1; stroke-opacity: 1; stroke-width: 2; stroke: #bfbfbf" x="140" y="380" width="20" height="20" rx="0" ry="0"/>
    <rect style="fill: #000000; fill-opacity: 1; stroke-opacity: 1; stroke-width: 2; stroke: #bfbfbf" x="160" y="380" width="20" height="20" rx="0" ry="0"/>
    <rect style="fill: #ffffff; fill-opacity: 1; stroke-opacity: 1; stroke-width: 2; stroke: #bfbfbf" x="60" y="400" width="20" height="20" rx="0" ry="0"/>
    <rect style="fill: #000000; fill-opacity: 1; stroke-opacity: 1; stroke-width: 2; stroke: #bfbfbf" x="80" y="400" width="20" height="20" rx="0" ry="0"/>
    <rect style="fill: #ffffff; fill-opacity: 1; stroke-opacity: 1; stroke-width: 2; stroke: #bfbfbf" x="100" y="400" width="20" height="20" rx="0" ry="0"/>
    <rect style="fill: #000000; fill-opacity: 1; stroke-opacity: 1; stroke-width: 2; stroke: #bfbfbf" x="120" y="400" width="20" height="20" rx="0" ry="0"/>
    <rect style="fill: #000000; fill-opacity: 1; stroke-opacity: 1; stroke-width: 2; stroke: #bfbfbf" x="140" y="400" width="20" height="20" rx="0" ry="0"/>
    <rect style="fill: #ffffff; fill-opacity: 1; stroke-opacity: 1; stroke-width: 2; stroke: #bfbfbf" x="160" y="400" width="20" height="20" rx="0" ry="0"/>
    <rect style="fill: #000000; fill-opacity: 1; stroke-opacity: 1; stroke-width: 2; stroke: #bfbfbf" x="60" y="420" width="20" height="20" rx="0" ry="0"/>
    <rect style="fill: #000000; fill-opacity: 1; stroke-opacity: 1; stroke-width: 2; stroke: #bfbfbf" x="80" y="420" width="20" height="20" rx="0" ry="0"/>
    <rect style="fill: #ffffff; fill-opacity: 1; stroke-opacity: 1; stroke-width: 2; stroke: #bfbfbf" x="100" y="420" width="20" height="20" rx="0" ry="0"/>
    <rect style="fill: #ffffff; fill-opacity: 1; stroke-opacity: 1; stroke-width: 2; stroke: #bfbfbf" x="120" y="420" width="20" height="20" rx="0" ry="0"/>
    <rect style="fill: #000000; fill-opacity: 1; stroke-opacity: 1; stroke-width: 2; stroke: #bfbfbf" x="140" y="420" width="20" height="20" rx="0" ry="0"/>
    <rect style="fill: #ffffff; fill-opacity: 1; stroke-opacity: 1; stroke-width: 2; stroke: #bfbfbf" x="160" y="420" width="20" height="20" rx="0" ry="0"/>
  </g>
</svg>
