<?xml version="1.0" encoding="UTF-8"?>
<!-- Created with Inkscape (http://www.inkscape.org/) -->
<svg width="19.69cm" height="17cm" version="1.0" xmlns="http://www.w3.org/2000/svg" xmlns:cc="http://creativecommons.org/ns#" xmlns:dc="http://purl.org/dc/elements/1.1/" xmlns:rdf="http://www.w3.org/1999/02/22-rdf-syntax-ns#">
 <metadata>
  <rdf:RDF>
   <cc:Work rdf:about="">
    <dc:format>image/svg+xml</dc:format>
    <dc:type rdf:resource="http://purl.org/dc/dcmitype/StillImage"/>
    <cc:license rdf:resource="http://creativecommons.org/licenses/GPL/2.0/"/>
    <dc:creator>
     <cc:Agent>
      <dc:title>François Haffner</dc:title>
     </cc:Agent>
    </dc:creator>
   </cc:Work>
   <cc:License rdf:about="http://creativecommons.org/licenses/GPL/2.0/">
    <cc:permits rdf:resource="http://web.resource.org/cc/Reproduction"/>
    <cc:permits rdf:resource="http://web.resource.org/cc/Distribution"/>
    <cc:requires rdf:resource="http://web.resource.org/cc/Notice"/>
    <cc:permits rdf:resource="http://web.resource.org/cc/DerivativeWorks"/>
    <cc:requires rdf:resource="http://web.resource.org/cc/ShareAlike"/>
    <cc:requires rdf:resource="http://web.resource.org/cc/SourceCode"/>
   </cc:License>
  </rdf:RDF>
 </metadata>
 <g transform="translate(.5057 -1.642)">
  <g transform="matrix(1.067 0 0 1.059 -9.923 -459.9)" fill-rule="evenodd">
   <g transform="translate(-96.63 464.2)">
    <circle transform="rotate(-30 469.4 -368.3)" cx="114.3" cy="218.1" r="42.86" fill="#ffae00"/>
    <g transform="rotate(-30 476 -366.1)">
     <path d="m79.03 214.2c-0.02936 0.6066-0.0625 1.199-0.0625 1.812 0 20.59 16.72 37.31 37.31 37.31s37.31-16.72 37.31-37.31c0-0.6139-0.0331-1.206-0.0625-1.812-0.9999 19.7-17.3 35.41-37.25 35.41-19.95 0-36.25-15.7-37.25-35.41z" fill="#fff" fill-opacity=".7118"/>
     <path d="m79.03 216c-0.02936-0.6066-0.0625-1.199-0.0625-1.812 0-20.59 16.72-37.31 37.31-37.31s37.31 16.72 37.31 37.31c0 0.6139-0.0331 1.206-0.0625 1.812-0.9999-19.7-17.3-35.41-37.25-35.41-19.95 0-36.25 15.7-37.25 35.41z" fill-opacity=".345"/>
    </g>
   </g>
   <g transform="translate(86.64 692.6)">
    <circle transform="rotate(-30 -95.87 40.06)" cx="114.3" cy="218.1" r="42.86" fill="#f00"/>
    <g transform="rotate(-30 -89.31 42.29)">
     <path d="m79.03 214.2c-0.02936 0.6066-0.0625 1.199-0.0625 1.812 0 20.59 16.72 37.31 37.31 37.31s37.31-16.72 37.31-37.31c0-0.6139-0.0331-1.206-0.0625-1.812-0.9999 19.7-17.3 35.41-37.25 35.41-19.95 0-36.25-15.7-37.25-35.41z" fill="#fff" fill-opacity=".7118"/>
     <path d="m79.03 216c-0.02936-0.6066-0.0625-1.199-0.0625-1.812 0-20.59 16.72-37.31 37.31-37.31s37.31 16.72 37.31 37.31c0 0.6139-0.0331 1.206-0.0625 1.812-0.9999-19.7-17.3-35.41-37.25-35.41-19.95 0-36.25 15.7-37.25 35.41z" fill-opacity=".345"/>
    </g>
   </g>
   <g transform="translate(86.81 791.2)">
    <circle transform="rotate(-30 -95.87 40.06)" cx="114.3" cy="218.1" r="42.86" fill="#f00"/>
    <g transform="rotate(-30 -89.31 42.29)">
     <path d="m79.03 214.2c-0.02936 0.6066-0.0625 1.199-0.0625 1.812 0 20.59 16.72 37.31 37.31 37.31s37.31-16.72 37.31-37.31c0-0.6139-0.0331-1.206-0.0625-1.812-0.9999 19.7-17.3 35.41-37.25 35.41-19.95 0-36.25-15.7-37.25-35.41z" fill="#fff" fill-opacity=".7118"/>
     <path d="m79.03 216c-0.02936-0.6066-0.0625-1.199-0.0625-1.812 0-20.59 16.72-37.31 37.31-37.31s37.31 16.72 37.31 37.31c0 0.6139-0.0331 1.206-0.0625 1.812-0.9999-19.7-17.3-35.41-37.25-35.41-19.95 0-36.25 15.7-37.25 35.41z" fill-opacity=".345"/>
    </g>
   </g>
   <g transform="translate(-108.1 890.6)">
    <circle transform="rotate(-30 -95.87 40.06)" cx="114.3" cy="218.1" r="42.86" fill="#f00"/>
    <g transform="rotate(-30 -89.31 42.29)">
     <path d="m79.03 214.2c-0.02936 0.6066-0.0625 1.199-0.0625 1.812 0 20.59 16.72 37.31 37.31 37.31s37.31-16.72 37.31-37.31c0-0.6139-0.0331-1.206-0.0625-1.812-0.9999 19.7-17.3 35.41-37.25 35.41-19.95 0-36.25-15.7-37.25-35.41z" fill="#fff" fill-opacity=".7118"/>
     <path d="m79.03 216c-0.02936-0.6066-0.0625-1.199-0.0625-1.812 0-20.59 16.72-37.31 37.31-37.31s37.31 16.72 37.31 37.31c0 0.6139-0.0331 1.206-0.0625 1.812-0.9999-19.7-17.3-35.41-37.25-35.41-19.95 0-36.25 15.7-37.25 35.41z" fill-opacity=".345"/>
    </g>
   </g>
   <g transform="translate(379.4 890.3)">
    <circle transform="rotate(-30 -95.87 40.06)" cx="114.3" cy="218.1" r="42.86" fill="#f00"/>
    <g transform="rotate(-30 -89.31 42.29)">
     <path d="m79.03 214.2c-0.02936 0.6066-0.0625 1.199-0.0625 1.812 0 20.59 16.72 37.31 37.31 37.31s37.31-16.72 37.31-37.31c0-0.6139-0.0331-1.206-0.0625-1.812-0.9999 19.7-17.3 35.41-37.25 35.41-19.95 0-36.25-15.7-37.25-35.41z" fill="#fff" fill-opacity=".7118"/>
     <path d="m79.03 216c-0.02936-0.6066-0.0625-1.199-0.0625-1.812 0-20.59 16.72-37.31 37.31-37.31s37.31 16.72 37.31 37.31c0 0.6139-0.0331 1.206-0.0625 1.812-0.9999-19.7-17.3-35.41-37.25-35.41-19.95 0-36.25 15.7-37.25 35.41z" fill-opacity=".345"/>
    </g>
   </g>
   <g transform="translate(184 791.2)">
    <circle transform="rotate(-30 -95.87 40.06)" cx="114.3" cy="218.1" r="42.86" fill="#f00"/>
    <g transform="rotate(-30 -89.31 42.29)">
     <path d="m79.03 214.2c-0.02936 0.6066-0.0625 1.199-0.0625 1.812 0 20.59 16.72 37.31 37.31 37.31s37.31-16.72 37.31-37.31c0-0.6139-0.0331-1.206-0.0625-1.812-0.9999 19.7-17.3 35.41-37.25 35.41-19.95 0-36.25-15.7-37.25-35.41z" fill="#fff" fill-opacity=".7118"/>
     <path d="m79.03 216c-0.02936-0.6066-0.0625-1.199-0.0625-1.812 0-20.59 16.72-37.31 37.31-37.31s37.31 16.72 37.31 37.31c0 0.6139-0.0331 1.206-0.0625 1.812-0.9999-19.7-17.3-35.41-37.25-35.41-19.95 0-36.25 15.7-37.25 35.41z" fill-opacity=".345"/>
    </g>
   </g>
   <g transform="translate(281.5 694.4)">
    <circle transform="rotate(-30 -95.87 40.06)" cx="114.3" cy="218.1" r="42.86" fill="#f00"/>
    <g transform="rotate(-30 -89.31 42.29)">
     <path d="m79.03 214.2c-0.02936 0.6066-0.0625 1.199-0.0625 1.812 0 20.59 16.72 37.31 37.31 37.31s37.31-16.72 37.31-37.31c0-0.6139-0.0331-1.206-0.0625-1.812-0.9999 19.7-17.3 35.41-37.25 35.41-19.95 0-36.25-15.7-37.25-35.41z" fill="#fff" fill-opacity=".7118"/>
     <path d="m79.03 216c-0.02936-0.6066-0.0625-1.199-0.0625-1.812 0-20.59 16.72-37.31 37.31-37.31s37.31 16.72 37.31 37.31c0 0.6139-0.0331 1.206-0.0625 1.812-0.9999-19.7-17.3-35.41-37.25-35.41-19.95 0-36.25 15.7-37.25 35.41z" fill-opacity=".345"/>
    </g>
   </g>
   <g transform="translate(281.6 890.2)">
    <circle transform="rotate(-30 -95.87 40.06)" cx="114.3" cy="218.1" r="42.86" fill="#f00"/>
    <g transform="rotate(-30 -89.31 42.29)">
     <path d="m79.03 214.2c-0.02936 0.6066-0.0625 1.199-0.0625 1.812 0 20.59 16.72 37.31 37.31 37.31s37.31-16.72 37.31-37.31c0-0.6139-0.0331-1.206-0.0625-1.812-0.9999 19.7-17.3 35.41-37.25 35.41-19.95 0-36.25-15.7-37.25-35.41z" fill="#fff" fill-opacity=".7118"/>
     <path d="m79.03 216c-0.02936-0.6066-0.0625-1.199-0.0625-1.812 0-20.59 16.72-37.31 37.31-37.31s37.31 16.72 37.31 37.31c0 0.6139-0.0331 1.206-0.0625 1.812-0.9999-19.7-17.3-35.41-37.25-35.41-19.95 0-36.25 15.7-37.25 35.41z" fill-opacity=".345"/>
    </g>
   </g>
   <g transform="translate(-96.6 661.8)">
    <circle transform="rotate(-30 469.4 -368.3)" cx="114.3" cy="218.1" r="42.86" fill="#ffae00"/>
    <g transform="rotate(-30 476 -366.1)">
     <path d="m79.03 214.2c-0.02936 0.6066-0.0625 1.199-0.0625 1.812 0 20.59 16.72 37.31 37.31 37.31s37.31-16.72 37.31-37.31c0-0.6139-0.0331-1.206-0.0625-1.812-0.9999 19.7-17.3 35.41-37.25 35.41-19.95 0-36.25-15.7-37.25-35.41z" fill="#fff" fill-opacity=".7118"/>
     <path d="m79.03 216c-0.02936-0.6066-0.0625-1.199-0.0625-1.812 0-20.59 16.72-37.31 37.31-37.31s37.31 16.72 37.31 37.31c0 0.6139-0.0331 1.206-0.0625 1.812-0.9999-19.7-17.3-35.41-37.25-35.41-19.95 0-36.25 15.7-37.25 35.41z" fill-opacity=".345"/>
    </g>
   </g>
   <g transform="translate(-290.2 662.4)">
    <circle transform="rotate(-30 469.4 -368.3)" cx="114.3" cy="218.1" r="42.86" fill="#ffae00"/>
    <g transform="rotate(-30 476 -366.1)">
     <path d="m79.03 214.2c-0.02936 0.6066-0.0625 1.199-0.0625 1.812 0 20.59 16.72 37.31 37.31 37.31s37.31-16.72 37.31-37.31c0-0.6139-0.0331-1.206-0.0625-1.812-0.9999 19.7-17.3 35.41-37.25 35.41-19.95 0-36.25-15.7-37.25-35.41z" fill="#fff" fill-opacity=".7118"/>
     <path d="m79.03 216c-0.02936-0.6066-0.0625-1.199-0.0625-1.812 0-20.59 16.72-37.31 37.31-37.31s37.31 16.72 37.31 37.31c0 0.6139-0.0331 1.206-0.0625 1.812-0.9999-19.7-17.3-35.41-37.25-35.41-19.95 0-36.25 15.7-37.25 35.41z" fill-opacity=".345"/>
    </g>
   </g>
   <g transform="translate(-193.9 662.6)">
    <circle transform="rotate(-30 469.4 -368.3)" cx="114.3" cy="218.1" r="42.86" fill="#ffae00"/>
    <g transform="rotate(-30 476 -366.1)">
     <path d="m79.03 214.2c-0.02936 0.6066-0.0625 1.199-0.0625 1.812 0 20.59 16.72 37.31 37.31 37.31s37.31-16.72 37.31-37.31c0-0.6139-0.0331-1.206-0.0625-1.812-0.9999 19.7-17.3 35.41-37.25 35.41-19.95 0-36.25-15.7-37.25-35.41z" fill="#fff" fill-opacity=".7118"/>
     <path d="m79.03 216c-0.02936-0.6066-0.0625-1.199-0.0625-1.812 0-20.59 16.72-37.31 37.31-37.31s37.31 16.72 37.31 37.31c0 0.6139-0.0331 1.206-0.0625 1.812-0.9999-19.7-17.3-35.41-37.25-35.41-19.95 0-36.25 15.7-37.25 35.41z" fill-opacity=".345"/>
    </g>
   </g>
   <g transform="translate(-290.1 565.7)">
    <circle transform="rotate(-30 469.4 -368.3)" cx="114.3" cy="218.1" r="42.86" fill="#ffae00"/>
    <g transform="rotate(-30 476 -366.1)">
     <path d="m79.03 214.2c-0.02936 0.6066-0.0625 1.199-0.0625 1.812 0 20.59 16.72 37.31 37.31 37.31s37.31-16.72 37.31-37.31c0-0.6139-0.0331-1.206-0.0625-1.812-0.9999 19.7-17.3 35.41-37.25 35.41-19.95 0-36.25-15.7-37.25-35.41z" fill="#fff" fill-opacity=".7118"/>
     <path d="m79.03 216c-0.02936-0.6066-0.0625-1.199-0.0625-1.812 0-20.59 16.72-37.31 37.31-37.31s37.31 16.72 37.31 37.31c0 0.6139-0.0331 1.206-0.0625 1.812-0.9999-19.7-17.3-35.41-37.25-35.41-19.95 0-36.25 15.7-37.25 35.41z" fill-opacity=".345"/>
    </g>
   </g>
   <g transform="translate(.8887 563.8)">
    <circle transform="rotate(-30 469.4 -368.3)" cx="114.3" cy="218.1" r="42.86" fill="#ffae00"/>
    <g transform="rotate(-30 476 -366.1)">
     <path d="m79.03 214.2c-0.02936 0.6066-0.0625 1.199-0.0625 1.812 0 20.59 16.72 37.31 37.31 37.31s37.31-16.72 37.31-37.31c0-0.6139-0.0331-1.206-0.0625-1.812-0.9999 19.7-17.3 35.41-37.25 35.41-19.95 0-36.25-15.7-37.25-35.41z" fill="#fff" fill-opacity=".7118"/>
     <path d="m79.03 216c-0.02936-0.6066-0.0625-1.199-0.0625-1.812 0-20.59 16.72-37.31 37.31-37.31s37.31 16.72 37.31 37.31c0 0.6139-0.0331 1.206-0.0625 1.812-0.9999-19.7-17.3-35.41-37.25-35.41-19.95 0-36.25 15.7-37.25 35.41z" fill-opacity=".345"/>
    </g>
   </g>
   <g transform="translate(-193.9 366.9)">
    <circle transform="rotate(-30 469.4 -368.3)" cx="114.3" cy="218.1" r="42.86" fill="#ffae00"/>
    <g transform="rotate(-30 476 -366.1)">
     <path d="m79.03 214.2c-0.02936 0.6066-0.0625 1.199-0.0625 1.812 0 20.59 16.72 37.31 37.31 37.31s37.31-16.72 37.31-37.31c0-0.6139-0.0331-1.206-0.0625-1.812-0.9999 19.7-17.3 35.41-37.25 35.41-19.95 0-36.25-15.7-37.25-35.41z" fill="#fff" fill-opacity=".7118"/>
     <path d="m79.03 216c-0.02936-0.6066-0.0625-1.199-0.0625-1.812 0-20.59 16.72-37.31 37.31-37.31s37.31 16.72 37.31 37.31c0 0.6139-0.0331 1.206-0.0625 1.812-0.9999-19.7-17.3-35.41-37.25-35.41-19.95 0-36.25 15.7-37.25 35.41z" fill-opacity=".345"/>
    </g>
   </g>
   <g transform="matrix(.9667 0 0 .9785 -4.861 36.76)">
    <path d="m14.16 1028v-620.2h721.2v620.2zm58.47-21.28h0.2812c0.4585 0.014 0.9129 0 1.375 0 23.66 0 42.88-19.19 42.88-42.84 0-23.66-19.22-42.88-42.88-42.88-23.66 2e-5 -42.84 19.22-42.84 42.88 0 23.1 18.29 41.98 41.19 42.84zm100.7 0h0.2812c0.4585 0.014 0.913 0 1.375 0 23.66 0 42.84-19.19 42.84-42.84 0-23.66-19.19-42.88-42.84-42.88-23.66 2e-5 -42.84 19.22-42.84 42.88 1e-5 23.1 18.29 41.98 41.19 42.84zm100.7 0h0.2812c0.4585 0.014 0.913 0 1.375 0 23.66 0 42.84-19.19 42.84-42.84 1e-5 -23.66-19.19-42.88-42.84-42.88-23.66 2e-5 -42.88 19.22-42.88 42.88 1e-5 23.1 18.33 41.98 41.22 42.84zm100.7 0h0.2812c0.4585 0.014 0.913 0 1.375 0 23.66 0 42.84-19.19 42.84-42.84-1e-5 -23.66-19.19-42.88-42.84-42.88-23.66 2e-5 -42.88 19.22-42.88 42.88 0 23.1 18.33 41.98 41.22 42.84zm100.7 0h0.2812c0.4585 0.014 0.9442 0 1.406 0 23.66 0 42.84-19.19 42.84-42.84 0-23.66-19.19-42.88-42.84-42.88-23.66 2e-5 -42.88 19.22-42.88 42.88 0 23.1 18.29 41.98 41.19 42.84zm100.7 0h0.2812c0.4585 0.014 0.913 0 1.375 0 23.66 0 42.88-19.19 42.88-42.84 2e-5 -23.66-19.22-42.88-42.88-42.88-23.66 2e-5 -42.84 19.22-42.84 42.88-3e-5 23.1 18.29 41.98 41.19 42.84zm100.7 0h0.2812c0.4585 0.014 0.913 0 1.375 0 23.66 0 42.88-19.19 42.88-42.84 3e-5 -23.66-19.22-42.88-42.88-42.88-23.66 2e-5 -42.84 19.22-42.84 42.88-2e-5 23.1 18.29 41.98 41.19 42.84zm-604.3-100.7c0.08978 3e-3 0.1913-3e-3 0.2812 0 0.4585 0.0145 0.9129 0 1.375 0 23.66 0 42.88-19.19 42.88-42.84 0-23.66-19.22-42.84-42.88-42.84-23.66 1e-5 -42.84 19.19-42.84 42.84 0 23.1 18.29 41.98 41.19 42.84zm100.7 0c0.0898 3e-3 0.1913-3e-3 0.2812 0 0.4585 0.0145 0.913 0 1.375 0 23.66 0 42.84-19.19 42.84-42.84 0-23.66-19.19-42.84-42.84-42.84-23.66 1e-5 -42.84 19.19-42.84 42.84 1e-5 23.1 18.29 41.98 41.19 42.84zm100.7 0c0.0898 3e-3 0.1913-3e-3 0.2812 0 0.4585 0.0145 0.913 0 1.375 0 23.66 0 42.84-19.19 42.84-42.84 1e-5 -23.66-19.19-42.84-42.84-42.84-23.66 1e-5 -42.88 19.19-42.88 42.84 1e-5 23.1 18.33 41.98 41.22 42.84zm100.7 0c0.0898 3e-3 0.1913-3e-3 0.2812 0 0.4585 0.0145 0.913 0 1.375 0 23.66 0 42.84-19.19 42.84-42.84-1e-5 -23.66-19.19-42.84-42.84-42.84-23.66 1e-5 -42.88 19.19-42.88 42.84 0 23.1 18.33 41.98 41.22 42.84zm100.7 0c0.0898 3e-3 0.1913-3e-3 0.2812 0 0.4585 0.0145 0.9442 0 1.406 0 23.66 0 42.84-19.19 42.84-42.84 0-23.66-19.19-42.84-42.84-42.84-23.66 1e-5 -42.88 19.19-42.88 42.84 0 23.1 18.29 41.98 41.19 42.84zm100.7 0c0.0898 3e-3 0.1913-3e-3 0.2812 0 0.4585 0.0145 0.913 0 1.375 0 23.66 0 42.88-19.19 42.88-42.84 2e-5 -23.66-19.22-42.84-42.88-42.84-23.66 1e-5 -42.84 19.19-42.84 42.84-3e-5 23.1 18.29 41.98 41.19 42.84zm100.7 0c0.0898 3e-3 0.1913-3e-3 0.2812 0 0.4585 0.0145 0.913 0 1.375 0 23.66 0 42.88-19.19 42.88-42.84 3e-5 -23.66-19.22-42.84-42.88-42.84-23.66 1e-5 -42.84 19.19-42.84 42.84-2e-5 23.1 18.29 41.98 41.19 42.84zm-603.7-100.7c0.2745 7e-3 0.5368-2e-3 0.8125 0 0.09227 5.9e-4 0.1888 0 0.2812 0 23.66 0 42.88-19.22 42.88-42.88 0-23.66-19.22-42.84-42.88-42.84-23.66 1e-5 -42.84 19.19-42.84 42.84 0 23.29 18.6 42.29 41.75 42.88zm100.7 0c0.2745 7e-3 0.5368-2e-3 0.8125 0 0.0923 5.9e-4 0.1888 0 0.2812 0 23.66 0 42.84-19.22 42.84-42.88 0-23.66-19.19-42.84-42.84-42.84-23.66 1e-5 -42.84 19.19-42.84 42.84 1e-5 23.29 18.6 42.29 41.75 42.88zm100.7 0c0.2745 7e-3 0.5368-2e-3 0.8125 0 0.0923 5.9e-4 0.1888 0 0.2812 0 23.66 0 42.84-19.22 42.84-42.88 1e-5 -23.66-19.19-42.84-42.84-42.84-23.66 1e-5 -42.88 19.19-42.88 42.84 1e-5 23.29 18.63 42.29 41.78 42.88zm100.7 0c0.2745 7e-3 0.5368-2e-3 0.8125 0 0.0923 5.9e-4 0.1888 0 0.2812 0 23.66 0 42.84-19.22 42.84-42.88-1e-5 -23.66-19.19-42.84-42.84-42.84-23.66 1e-5 -42.88 19.19-42.88 42.84 0 23.29 18.63 42.29 41.78 42.88zm100.7 0c0.2745 7e-3 0.5368-2e-3 0.8125 0 0.0923 5.9e-4 0.1888 0 0.2812 0 23.66 0 42.84-19.22 42.84-42.88 0-23.66-19.19-42.84-42.84-42.84-23.66 1e-5 -42.88 19.19-42.88 42.84 0 23.29 18.63 42.29 41.78 42.88zm100.7 0c0.2745 7e-3 0.5368-2e-3 0.8125 0 0.0923 5.9e-4 0.1576 0 0.25 0 23.66 0 42.88-19.22 42.88-42.88 2e-5 -23.66-19.22-42.84-42.88-42.84-23.66 1e-5 -42.84 19.19-42.84 42.84-3e-5 23.29 18.63 42.29 41.78 42.88zm100.7 0c0.2745 7e-3 0.5368-2e-3 0.8125 0 0.0923 5.9e-4 0.1888 0 0.2812 0 23.66 0 42.88-19.22 42.88-42.88 3e-5 -23.66-19.22-42.84-42.88-42.84-23.66 1e-5 -42.84 19.19-42.84 42.84-2e-5 23.29 18.6 42.29 41.75 42.88zm-604.3-100.7c0.1823 5e-3 0.3797-2e-3 0.5625 0 0.1843 2e-3 0.3777 0 0.5625 0 23.66-1e-5 42.88-19.22 42.88-42.88 0-23.66-19.22-42.84-42.88-42.84s-42.84 19.19-42.84 42.84c0 23.29 18.57 42.29 41.72 42.88zm100.7 0c0.1823 5e-3 0.3797-2e-3 0.5625 0 0.1843 2e-3 0.3777 0 0.5625 0 23.66-1e-5 42.84-19.22 42.84-42.88 0-23.66-19.19-42.84-42.84-42.84s-42.84 19.19-42.84 42.84c1e-5 23.29 18.57 42.29 41.72 42.88zm100.7 0c0.1823 5e-3 0.3797-2e-3 0.5625 0 0.1843 2e-3 0.3777 0 0.5625 0 23.66-1e-5 42.84-19.22 42.84-42.88 1e-5 -23.66-19.19-42.84-42.84-42.84-23.66 0-42.88 19.19-42.88 42.84 1e-5 23.29 18.6 42.29 41.75 42.88zm100.7 0c0.1823 5e-3 0.3797-2e-3 0.5625 0 0.1843 2e-3 0.3777 0 0.5625 0 23.66-1e-5 42.84-19.22 42.84-42.88-1e-5 -23.66-19.19-42.84-42.84-42.84-23.66 0-42.88 19.19-42.88 42.84 0 23.29 18.6 42.29 41.75 42.88zm100.7 0c0.1823 5e-3 0.3797-2e-3 0.5625 0 0.1843 2e-3 0.3777 0 0.5625 0 23.66-1e-5 42.84-19.22 42.84-42.88 0-23.66-19.19-42.84-42.84-42.84s-42.88 19.19-42.88 42.84c0 23.29 18.6 42.29 41.75 42.88zm100.7 0c0.1823 5e-3 0.3797-2e-3 0.5625 0 0.1843 2e-3 0.3464 0 0.5312 0 23.66-1e-5 42.88-19.22 42.88-42.88 2e-5 -23.66-19.22-42.84-42.88-42.84-23.66 0-42.84 19.19-42.84 42.84-3e-5 23.29 18.6 42.29 41.75 42.88zm100.7 0c0.1823 5e-3 0.3797-2e-3 0.5625 0 0.1843 2e-3 0.3464 0 0.5312 0 23.66-1e-5 42.88-19.22 42.88-42.88 3e-5 -23.66-19.22-42.84-42.88-42.84s-42.84 19.19-42.84 42.84c-2e-5 23.29 18.6 42.29 41.75 42.88zm-604.5-100.7c0.1813 6e-3 0.3494-3e-3 0.5312 0 0.276 5e-3 0.5353 0 0.8125 0 23.66 3e-5 42.88-19.22 42.88-42.88s-19.22-42.84-42.88-42.84c-23.66-3e-5 -42.84 19.19-42.84 42.84 0 23.2 18.48 42.15 41.5 42.88zm100.7 0c0.1813 6e-3 0.3494-3e-3 0.5312 0 0.276 5e-3 0.5665 0 0.8438 0 23.66 3e-5 42.84-19.22 42.84-42.88s-19.19-42.84-42.84-42.84c-23.66-3e-5 -42.84 19.19-42.84 42.84 1e-5 23.2 18.45 42.15 41.47 42.88zm100.7 0c0.1813 6e-3 0.3494-3e-3 0.5312 0 0.276 5e-3 0.5665 0 0.8438 0 23.66 3e-5 42.84-19.22 42.84-42.88 1e-5 -23.66-19.19-42.84-42.84-42.84-23.66-3e-5 -42.88 19.19-42.88 42.84 1e-5 23.2 18.48 42.15 41.5 42.88zm100.7 0c0.1813 6e-3 0.3494-3e-3 0.5312 0 0.276 5e-3 0.5665 0 0.8438 0 23.66 3e-5 42.84-19.22 42.84-42.88-1e-5 -23.66-19.19-42.84-42.84-42.84-23.66-3e-5 -42.88 19.19-42.88 42.84 0 23.2 18.48 42.15 41.5 42.88zm100.7 0c0.1813 6e-3 0.3494-3e-3 0.5312 0 0.276 5e-3 0.5665 0 0.8438 0 23.66 3e-5 42.84-19.22 42.84-42.88s-19.19-42.84-42.84-42.84c-23.66-3e-5 -42.88 19.19-42.88 42.84 0 23.2 18.48 42.15 41.5 42.88zm100.7 0c0.1813 6e-3 0.3494-3e-3 0.5312 0 0.276 5e-3 0.5353 0 0.8125 0 23.66 3e-5 42.88-19.22 42.88-42.88 2e-5 -23.66-19.22-42.84-42.88-42.84-23.66-3e-5 -42.84 19.19-42.84 42.84-3e-5 23.2 18.48 42.15 41.5 42.88zm100.7 0c0.1813 6e-3 0.3494-3e-3 0.5312 0 0.276 5e-3 0.5353 0 0.8125 0 23.66 3e-5 42.88-19.22 42.88-42.88 3e-5 -23.66-19.22-42.84-42.88-42.84-23.66-3e-5 -42.84 19.19-42.84 42.84-2e-5 23.2 18.48 42.15 41.5 42.88zm-604.3-100.7c0.09028 3e-3 0.1908-2e-3 0.2812 0 0.3674 9e-3 0.7241 0 1.094 0 23.66 2e-5 42.88-19.19 42.88-42.84 0-23.66-19.22-42.88-42.88-42.88s-42.84 19.22-42.84 42.88c0 23.2 18.45 42.12 41.47 42.84zm100.7 0c0.0903 3e-3 0.1908-2e-3 0.2812 0 0.3674 9e-3 0.7241 0 1.094 0 23.66 2e-5 42.84-19.19 42.84-42.84 0-23.66-19.19-42.88-42.84-42.88s-42.84 19.22-42.84 42.88c1e-5 23.2 18.45 42.12 41.47 42.84zm100.7 0c0.0903 3e-3 0.1908-2e-3 0.2812 0 0.3674 9e-3 0.7554 0 1.125 0 23.66 2e-5 42.84-19.19 42.84-42.84 1e-5 -23.66-19.19-42.88-42.84-42.88-23.66 0-42.88 19.22-42.88 42.88 1e-5 23.2 18.45 42.12 41.47 42.84zm100.7 0c0.0903 3e-3 0.1908-2e-3 0.2812 0 0.3674 9e-3 0.7554 0 1.125 0 23.66 2e-5 42.84-19.19 42.84-42.84-1e-5 -23.66-19.19-42.88-42.84-42.88-23.66 0-42.88 19.22-42.88 42.88 0 23.2 18.45 42.12 41.47 42.84zm100.7 0c0.0903 3e-3 0.1908-2e-3 0.2812 0 0.3674 9e-3 0.7554 0 1.125 0 23.66 2e-5 42.84-19.19 42.84-42.84 0-23.66-19.19-42.88-42.84-42.88s-42.88 19.22-42.88 42.88c0 23.2 18.45 42.12 41.47 42.84zm100.7 0c0.0903 3e-3 0.1908-2e-3 0.2812 0 0.3674 9e-3 0.7241 0 1.094 0 23.66 2e-5 42.88-19.19 42.88-42.84 2e-5 -23.66-19.22-42.88-42.88-42.88-23.66 0-42.84 19.22-42.84 42.88-3e-5 23.2 18.45 42.12 41.47 42.84zm100.7 0c0.0903 3e-3 0.1908-2e-3 0.2812 0 0.3674 9e-3 0.7241 0 1.094 0 23.66 2e-5 42.88-19.19 42.88-42.84 3e-5 -23.66-19.22-42.88-42.88-42.88s-42.84 19.22-42.84 42.88c-2e-5 23.2 18.45 42.12 41.47 42.84z" fill="#002ae0"/>
    <g transform="translate(0 403.7)">
     <g transform="rotate(180 326.1 460.1)">
      <path d="m30.07 484c0.374 0.7244 0.7337 1.434 1.147 2.147 13.86 23.92 44.59 32.13 68.59 18.32 24-13.81 32.24-44.44 18.38-68.36-0.4131-0.7131-0.85-1.378-1.292-2.063 12.09 23.56 3.663 52.73-19.59 66.11-23.25 13.38-52.81 6.071-67.24-16.15z" fill="#fff" fill-opacity=".3799"/>
      <path d="m31.29 486.2c-0.4424-0.685-0.8794-1.35-1.292-2.063-13.86-23.92-5.623-54.55 18.38-68.36s54.74-5.604 68.59 18.32c0.4131 0.7131 0.7728 1.423 1.147 2.147-14.42-22.22-43.99-29.53-67.24-16.15-23.25 13.38-31.68 42.55-19.59 66.11z" fill-opacity=".3188"/>
     </g>
     <g transform="rotate(180 275.7 460.1)">
      <path d="m30.07 484c0.374 0.7244 0.7337 1.434 1.147 2.147 13.86 23.92 44.59 32.13 68.59 18.32 24-13.81 32.24-44.44 18.38-68.36-0.4131-0.7131-0.85-1.378-1.292-2.063 12.09 23.56 3.663 52.73-19.59 66.11-23.25 13.38-52.81 6.071-67.24-16.15z" fill="#fff" fill-opacity=".3799"/>
      <path d="m31.29 486.2c-0.4424-0.685-0.8794-1.35-1.292-2.063-13.86-23.92-5.623-54.55 18.38-68.36s54.74-5.604 68.59 18.32c0.4131 0.7131 0.7728 1.423 1.147 2.147-14.42-22.22-43.99-29.53-67.24-16.15-23.25 13.38-31.68 42.55-19.59 66.11z" fill-opacity=".3188"/>
     </g>
     <g transform="rotate(180 225.3 460.1)">
      <path d="m30.07 484c0.374 0.7244 0.7337 1.434 1.147 2.147 13.86 23.92 44.59 32.13 68.59 18.32 24-13.81 32.24-44.44 18.38-68.36-0.4131-0.7131-0.85-1.378-1.292-2.063 12.09 23.56 3.663 52.73-19.59 66.11-23.25 13.38-52.81 6.071-67.24-16.15z" fill="#fff" fill-opacity=".3799"/>
      <path d="m31.29 486.2c-0.4424-0.685-0.8794-1.35-1.292-2.063-13.86-23.92-5.623-54.55 18.38-68.36s54.74-5.604 68.59 18.32c0.4131 0.7131 0.7728 1.423 1.147 2.147-14.42-22.22-43.99-29.53-67.24-16.15-23.25 13.38-31.68 42.55-19.59 66.11z" fill-opacity=".3188"/>
     </g>
     <g transform="rotate(180 174.9 460.1)">
      <path d="m30.07 484c0.374 0.7244 0.7337 1.434 1.147 2.147 13.86 23.92 44.59 32.13 68.59 18.32 24-13.81 32.24-44.44 18.38-68.36-0.4131-0.7131-0.85-1.378-1.292-2.063 12.09 23.56 3.663 52.73-19.59 66.11-23.25 13.38-52.81 6.071-67.24-16.15z" fill="#fff" fill-opacity=".3799"/>
      <path d="m31.29 486.2c-0.4424-0.685-0.8794-1.35-1.292-2.063-13.86-23.92-5.623-54.55 18.38-68.36s54.74-5.604 68.59 18.32c0.4131 0.7131 0.7728 1.423 1.147 2.147-14.42-22.22-43.99-29.53-67.24-16.15-23.25 13.38-31.68 42.55-19.59 66.11z" fill-opacity=".3188"/>
     </g>
     <g transform="rotate(180 124.5 460.1)">
      <path d="m30.07 484c0.374 0.7244 0.7337 1.434 1.147 2.147 13.86 23.92 44.59 32.13 68.59 18.32 24-13.81 32.24-44.44 18.38-68.36-0.4131-0.7131-0.85-1.378-1.292-2.063 12.09 23.56 3.663 52.73-19.59 66.11-23.25 13.38-52.81 6.071-67.24-16.15z" fill="#fff" fill-opacity=".3799"/>
      <path d="m31.29 486.2c-0.4424-0.685-0.8794-1.35-1.292-2.063-13.86-23.92-5.623-54.55 18.38-68.36s54.74-5.604 68.59 18.32c0.4131 0.7131 0.7728 1.423 1.147 2.147-14.42-22.22-43.99-29.53-67.24-16.15-23.25 13.38-31.68 42.55-19.59 66.11z" fill-opacity=".3188"/>
     </g>
     <g transform="rotate(180 74.09 460.1)">
      <path d="m30.07 484c0.374 0.7244 0.7337 1.434 1.147 2.147 13.86 23.92 44.59 32.13 68.59 18.32 24-13.81 32.24-44.44 18.38-68.36-0.4131-0.7131-0.85-1.378-1.292-2.063 12.09 23.56 3.663 52.73-19.59 66.11-23.25 13.38-52.81 6.071-67.24-16.15z" fill="#fff" fill-opacity=".3799"/>
      <path d="m31.29 486.2c-0.4424-0.685-0.8794-1.35-1.292-2.063-13.86-23.92-5.623-54.55 18.38-68.36s54.74-5.604 68.59 18.32c0.4131 0.7131 0.7728 1.423 1.147 2.147-14.42-22.22-43.99-29.53-67.24-16.15-23.25 13.38-31.68 42.55-19.59 66.11z" fill-opacity=".3188"/>
     </g>
     <g transform="rotate(180 376.4 460.1)">
      <path d="m30.07 484c0.374 0.7244 0.7337 1.434 1.147 2.147 13.86 23.92 44.59 32.13 68.59 18.32 24-13.81 32.24-44.44 18.38-68.36-0.4131-0.7131-0.85-1.378-1.292-2.063 12.09 23.56 3.663 52.73-19.59 66.11-23.25 13.38-52.81 6.071-67.24-16.15z" fill="#fff" fill-opacity=".3799"/>
      <path d="m31.29 486.2c-0.4424-0.685-0.8794-1.35-1.292-2.063-13.86-23.92-5.623-54.55 18.38-68.36s54.74-5.604 68.59 18.32c0.4131 0.7131 0.7728 1.423 1.147 2.147-14.42-22.22-43.99-29.53-67.24-16.15-23.25 13.38-31.68 42.55-19.59 66.11z" fill-opacity=".3188"/>
     </g>
    </g>
    <g transform="translate(0 302.8)">
     <g transform="rotate(180 326.1 460.1)">
      <path d="m30.07 484c0.374 0.7244 0.7337 1.434 1.147 2.147 13.86 23.92 44.59 32.13 68.59 18.32 24-13.81 32.24-44.44 18.38-68.36-0.4131-0.7131-0.85-1.378-1.292-2.063 12.09 23.56 3.663 52.73-19.59 66.11-23.25 13.38-52.81 6.071-67.24-16.15z" fill="#fff" fill-opacity=".3799"/>
      <path d="m31.29 486.2c-0.4424-0.685-0.8794-1.35-1.292-2.063-13.86-23.92-5.623-54.55 18.38-68.36s54.74-5.604 68.59 18.32c0.4131 0.7131 0.7728 1.423 1.147 2.147-14.42-22.22-43.99-29.53-67.24-16.15-23.25 13.38-31.68 42.55-19.59 66.11z" fill-opacity=".3188"/>
     </g>
     <g transform="rotate(180 275.7 460.1)">
      <path d="m30.07 484c0.374 0.7244 0.7337 1.434 1.147 2.147 13.86 23.92 44.59 32.13 68.59 18.32 24-13.81 32.24-44.44 18.38-68.36-0.4131-0.7131-0.85-1.378-1.292-2.063 12.09 23.56 3.663 52.73-19.59 66.11-23.25 13.38-52.81 6.071-67.24-16.15z" fill="#fff" fill-opacity=".3799"/>
      <path d="m31.29 486.2c-0.4424-0.685-0.8794-1.35-1.292-2.063-13.86-23.92-5.623-54.55 18.38-68.36s54.74-5.604 68.59 18.32c0.4131 0.7131 0.7728 1.423 1.147 2.147-14.42-22.22-43.99-29.53-67.24-16.15-23.25 13.38-31.68 42.55-19.59 66.11z" fill-opacity=".3188"/>
     </g>
     <g transform="rotate(180 225.3 460.1)">
      <path d="m30.07 484c0.374 0.7244 0.7337 1.434 1.147 2.147 13.86 23.92 44.59 32.13 68.59 18.32 24-13.81 32.24-44.44 18.38-68.36-0.4131-0.7131-0.85-1.378-1.292-2.063 12.09 23.56 3.663 52.73-19.59 66.11-23.25 13.38-52.81 6.071-67.24-16.15z" fill="#fff" fill-opacity=".3799"/>
      <path d="m31.29 486.2c-0.4424-0.685-0.8794-1.35-1.292-2.063-13.86-23.92-5.623-54.55 18.38-68.36s54.74-5.604 68.59 18.32c0.4131 0.7131 0.7728 1.423 1.147 2.147-14.42-22.22-43.99-29.53-67.24-16.15-23.25 13.38-31.68 42.55-19.59 66.11z" fill-opacity=".3188"/>
     </g>
     <g transform="rotate(180 174.9 460.1)">
      <path d="m30.07 484c0.374 0.7244 0.7337 1.434 1.147 2.147 13.86 23.92 44.59 32.13 68.59 18.32 24-13.81 32.24-44.44 18.38-68.36-0.4131-0.7131-0.85-1.378-1.292-2.063 12.09 23.56 3.663 52.73-19.59 66.11-23.25 13.38-52.81 6.071-67.24-16.15z" fill="#fff" fill-opacity=".3799"/>
      <path d="m31.29 486.2c-0.4424-0.685-0.8794-1.35-1.292-2.063-13.86-23.92-5.623-54.55 18.38-68.36s54.74-5.604 68.59 18.32c0.4131 0.7131 0.7728 1.423 1.147 2.147-14.42-22.22-43.99-29.53-67.24-16.15-23.25 13.38-31.68 42.55-19.59 66.11z" fill-opacity=".3188"/>
     </g>
     <g transform="rotate(180 124.5 460.1)">
      <path d="m30.07 484c0.374 0.7244 0.7337 1.434 1.147 2.147 13.86 23.92 44.59 32.13 68.59 18.32 24-13.81 32.24-44.44 18.38-68.36-0.4131-0.7131-0.85-1.378-1.292-2.063 12.09 23.56 3.663 52.73-19.59 66.11-23.25 13.38-52.81 6.071-67.24-16.15z" fill="#fff" fill-opacity=".3799"/>
      <path d="m31.29 486.2c-0.4424-0.685-0.8794-1.35-1.292-2.063-13.86-23.92-5.623-54.55 18.38-68.36s54.74-5.604 68.59 18.32c0.4131 0.7131 0.7728 1.423 1.147 2.147-14.42-22.22-43.99-29.53-67.24-16.15-23.25 13.38-31.68 42.55-19.59 66.11z" fill-opacity=".3188"/>
     </g>
     <g transform="rotate(180 74.09 460.1)">
      <path d="m30.07 484c0.374 0.7244 0.7337 1.434 1.147 2.147 13.86 23.92 44.59 32.13 68.59 18.32 24-13.81 32.24-44.44 18.38-68.36-0.4131-0.7131-0.85-1.378-1.292-2.063 12.09 23.56 3.663 52.73-19.59 66.11-23.25 13.38-52.81 6.071-67.24-16.15z" fill="#fff" fill-opacity=".3799"/>
      <path d="m31.29 486.2c-0.4424-0.685-0.8794-1.35-1.292-2.063-13.86-23.92-5.623-54.55 18.38-68.36s54.74-5.604 68.59 18.32c0.4131 0.7131 0.7728 1.423 1.147 2.147-14.42-22.22-43.99-29.53-67.24-16.15-23.25 13.38-31.68 42.55-19.59 66.11z" fill-opacity=".3188"/>
     </g>
     <g transform="rotate(180 376.4 460.1)">
      <path d="m30.07 484c0.374 0.7244 0.7337 1.434 1.147 2.147 13.86 23.92 44.59 32.13 68.59 18.32 24-13.81 32.24-44.44 18.38-68.36-0.4131-0.7131-0.85-1.378-1.292-2.063 12.09 23.56 3.663 52.73-19.59 66.11-23.25 13.38-52.81 6.071-67.24-16.15z" fill="#fff" fill-opacity=".3799"/>
      <path d="m31.29 486.2c-0.4424-0.685-0.8794-1.35-1.292-2.063-13.86-23.92-5.623-54.55 18.38-68.36s54.74-5.604 68.59 18.32c0.4131 0.7131 0.7728 1.423 1.147 2.147-14.42-22.22-43.99-29.53-67.24-16.15-23.25 13.38-31.68 42.55-19.59 66.11z" fill-opacity=".3188"/>
     </g>
    </g>
    <g transform="translate(0 201.8)">
     <g transform="rotate(180 326.1 460.1)">
      <path d="m30.07 484c0.374 0.7244 0.7337 1.434 1.147 2.147 13.86 23.92 44.59 32.13 68.59 18.32 24-13.81 32.24-44.44 18.38-68.36-0.4131-0.7131-0.85-1.378-1.292-2.063 12.09 23.56 3.663 52.73-19.59 66.11-23.25 13.38-52.81 6.071-67.24-16.15z" fill="#fff" fill-opacity=".3799"/>
      <path d="m31.29 486.2c-0.4424-0.685-0.8794-1.35-1.292-2.063-13.86-23.92-5.623-54.55 18.38-68.36s54.74-5.604 68.59 18.32c0.4131 0.7131 0.7728 1.423 1.147 2.147-14.42-22.22-43.99-29.53-67.24-16.15-23.25 13.38-31.68 42.55-19.59 66.11z" fill-opacity=".3188"/>
     </g>
     <g transform="rotate(180 275.7 460.1)">
      <path d="m30.07 484c0.374 0.7244 0.7337 1.434 1.147 2.147 13.86 23.92 44.59 32.13 68.59 18.32 24-13.81 32.24-44.44 18.38-68.36-0.4131-0.7131-0.85-1.378-1.292-2.063 12.09 23.56 3.663 52.73-19.59 66.11-23.25 13.38-52.81 6.071-67.24-16.15z" fill="#fff" fill-opacity=".3799"/>
      <path d="m31.29 486.2c-0.4424-0.685-0.8794-1.35-1.292-2.063-13.86-23.92-5.623-54.55 18.38-68.36s54.74-5.604 68.59 18.32c0.4131 0.7131 0.7728 1.423 1.147 2.147-14.42-22.22-43.99-29.53-67.24-16.15-23.25 13.38-31.68 42.55-19.59 66.11z" fill-opacity=".3188"/>
     </g>
     <g transform="rotate(180 225.3 460.1)">
      <path d="m30.07 484c0.374 0.7244 0.7337 1.434 1.147 2.147 13.86 23.92 44.59 32.13 68.59 18.32 24-13.81 32.24-44.44 18.38-68.36-0.4131-0.7131-0.85-1.378-1.292-2.063 12.09 23.56 3.663 52.73-19.59 66.11-23.25 13.38-52.81 6.071-67.24-16.15z" fill="#fff" fill-opacity=".3799"/>
      <path d="m31.29 486.2c-0.4424-0.685-0.8794-1.35-1.292-2.063-13.86-23.92-5.623-54.55 18.38-68.36s54.74-5.604 68.59 18.32c0.4131 0.7131 0.7728 1.423 1.147 2.147-14.42-22.22-43.99-29.53-67.24-16.15-23.25 13.38-31.68 42.55-19.59 66.11z" fill-opacity=".3188"/>
     </g>
     <g transform="rotate(180 174.9 460.1)">
      <path d="m30.07 484c0.374 0.7244 0.7337 1.434 1.147 2.147 13.86 23.92 44.59 32.13 68.59 18.32 24-13.81 32.24-44.44 18.38-68.36-0.4131-0.7131-0.85-1.378-1.292-2.063 12.09 23.56 3.663 52.73-19.59 66.11-23.25 13.38-52.81 6.071-67.24-16.15z" fill="#fff" fill-opacity=".3799"/>
      <path d="m31.29 486.2c-0.4424-0.685-0.8794-1.35-1.292-2.063-13.86-23.92-5.623-54.55 18.38-68.36s54.74-5.604 68.59 18.32c0.4131 0.7131 0.7728 1.423 1.147 2.147-14.42-22.22-43.99-29.53-67.24-16.15-23.25 13.38-31.68 42.55-19.59 66.11z" fill-opacity=".3188"/>
     </g>
     <g transform="rotate(180 124.5 460.1)">
      <path d="m30.07 484c0.374 0.7244 0.7337 1.434 1.147 2.147 13.86 23.92 44.59 32.13 68.59 18.32 24-13.81 32.24-44.44 18.38-68.36-0.4131-0.7131-0.85-1.378-1.292-2.063 12.09 23.56 3.663 52.73-19.59 66.11-23.25 13.38-52.81 6.071-67.24-16.15z" fill="#fff" fill-opacity=".3799"/>
      <path d="m31.29 486.2c-0.4424-0.685-0.8794-1.35-1.292-2.063-13.86-23.92-5.623-54.55 18.38-68.36s54.74-5.604 68.59 18.32c0.4131 0.7131 0.7728 1.423 1.147 2.147-14.42-22.22-43.99-29.53-67.24-16.15-23.25 13.38-31.68 42.55-19.59 66.11z" fill-opacity=".3188"/>
     </g>
     <g transform="rotate(180 74.09 460.1)">
      <path d="m30.07 484c0.374 0.7244 0.7337 1.434 1.147 2.147 13.86 23.92 44.59 32.13 68.59 18.32 24-13.81 32.24-44.44 18.38-68.36-0.4131-0.7131-0.85-1.378-1.292-2.063 12.09 23.56 3.663 52.73-19.59 66.11-23.25 13.38-52.81 6.071-67.24-16.15z" fill="#fff" fill-opacity=".3799"/>
      <path d="m31.29 486.2c-0.4424-0.685-0.8794-1.35-1.292-2.063-13.86-23.92-5.623-54.55 18.38-68.36s54.74-5.604 68.59 18.32c0.4131 0.7131 0.7728 1.423 1.147 2.147-14.42-22.22-43.99-29.53-67.24-16.15-23.25 13.38-31.68 42.55-19.59 66.11z" fill-opacity=".3188"/>
     </g>
     <g transform="rotate(180 376.4 460.1)">
      <path d="m30.07 484c0.374 0.7244 0.7337 1.434 1.147 2.147 13.86 23.92 44.59 32.13 68.59 18.32 24-13.81 32.24-44.44 18.38-68.36-0.4131-0.7131-0.85-1.378-1.292-2.063 12.09 23.56 3.663 52.73-19.59 66.11-23.25 13.38-52.81 6.071-67.24-16.15z" fill="#fff" fill-opacity=".3799"/>
      <path d="m31.29 486.2c-0.4424-0.685-0.8794-1.35-1.292-2.063-13.86-23.92-5.623-54.55 18.38-68.36s54.74-5.604 68.59 18.32c0.4131 0.7131 0.7728 1.423 1.147 2.147-14.42-22.22-43.99-29.53-67.24-16.15-23.25 13.38-31.68 42.55-19.59 66.11z" fill-opacity=".3188"/>
     </g>
    </g>
    <g transform="translate(0 100.9)">
     <g transform="rotate(180 326.1 460.1)">
      <path d="m30.07 484c0.374 0.7244 0.7337 1.434 1.147 2.147 13.86 23.92 44.59 32.13 68.59 18.32 24-13.81 32.24-44.44 18.38-68.36-0.4131-0.7131-0.85-1.378-1.292-2.063 12.09 23.56 3.663 52.73-19.59 66.11-23.25 13.38-52.81 6.071-67.24-16.15z" fill="#fff" fill-opacity=".3799"/>
      <path d="m31.29 486.2c-0.4424-0.685-0.8794-1.35-1.292-2.063-13.86-23.92-5.623-54.55 18.38-68.36s54.74-5.604 68.59 18.32c0.4131 0.7131 0.7728 1.423 1.147 2.147-14.42-22.22-43.99-29.53-67.24-16.15-23.25 13.38-31.68 42.55-19.59 66.11z" fill-opacity=".3188"/>
     </g>
     <g transform="rotate(180 275.7 460.1)">
      <path d="m30.07 484c0.374 0.7244 0.7337 1.434 1.147 2.147 13.86 23.92 44.59 32.13 68.59 18.32 24-13.81 32.24-44.44 18.38-68.36-0.4131-0.7131-0.85-1.378-1.292-2.063 12.09 23.56 3.663 52.73-19.59 66.11-23.25 13.38-52.81 6.071-67.24-16.15z" fill="#fff" fill-opacity=".3799"/>
      <path d="m31.29 486.2c-0.4424-0.685-0.8794-1.35-1.292-2.063-13.86-23.92-5.623-54.55 18.38-68.36s54.74-5.604 68.59 18.32c0.4131 0.7131 0.7728 1.423 1.147 2.147-14.42-22.22-43.99-29.53-67.24-16.15-23.25 13.38-31.68 42.55-19.59 66.11z" fill-opacity=".3188"/>
     </g>
     <g transform="rotate(180 225.3 460.1)">
      <path d="m30.07 484c0.374 0.7244 0.7337 1.434 1.147 2.147 13.86 23.92 44.59 32.13 68.59 18.32 24-13.81 32.24-44.44 18.38-68.36-0.4131-0.7131-0.85-1.378-1.292-2.063 12.09 23.56 3.663 52.73-19.59 66.11-23.25 13.38-52.81 6.071-67.24-16.15z" fill="#fff" fill-opacity=".3799"/>
      <path d="m31.29 486.2c-0.4424-0.685-0.8794-1.35-1.292-2.063-13.86-23.92-5.623-54.55 18.38-68.36s54.74-5.604 68.59 18.32c0.4131 0.7131 0.7728 1.423 1.147 2.147-14.42-22.22-43.99-29.53-67.24-16.15-23.25 13.38-31.68 42.55-19.59 66.11z" fill-opacity=".3188"/>
     </g>
     <g transform="rotate(180 174.9 460.1)">
      <path d="m30.07 484c0.374 0.7244 0.7337 1.434 1.147 2.147 13.86 23.92 44.59 32.13 68.59 18.32 24-13.81 32.24-44.44 18.38-68.36-0.4131-0.7131-0.85-1.378-1.292-2.063 12.09 23.56 3.663 52.73-19.59 66.11-23.25 13.38-52.81 6.071-67.24-16.15z" fill="#fff" fill-opacity=".3799"/>
      <path d="m31.29 486.2c-0.4424-0.685-0.8794-1.35-1.292-2.063-13.86-23.92-5.623-54.55 18.38-68.36s54.74-5.604 68.59 18.32c0.4131 0.7131 0.7728 1.423 1.147 2.147-14.42-22.22-43.99-29.53-67.24-16.15-23.25 13.38-31.68 42.55-19.59 66.11z" fill-opacity=".3188"/>
     </g>
     <g transform="rotate(180 124.5 460.1)">
      <path d="m30.07 484c0.374 0.7244 0.7337 1.434 1.147 2.147 13.86 23.92 44.59 32.13 68.59 18.32 24-13.81 32.24-44.44 18.38-68.36-0.4131-0.7131-0.85-1.378-1.292-2.063 12.09 23.56 3.663 52.73-19.59 66.11-23.25 13.38-52.81 6.071-67.24-16.15z" fill="#fff" fill-opacity=".3799"/>
      <path d="m31.29 486.2c-0.4424-0.685-0.8794-1.35-1.292-2.063-13.86-23.92-5.623-54.55 18.38-68.36s54.74-5.604 68.59 18.32c0.4131 0.7131 0.7728 1.423 1.147 2.147-14.42-22.22-43.99-29.53-67.24-16.15-23.25 13.38-31.68 42.55-19.59 66.11z" fill-opacity=".3188"/>
     </g>
     <g transform="rotate(180 74.09 460.1)">
      <path d="m30.07 484c0.374 0.7244 0.7337 1.434 1.147 2.147 13.86 23.92 44.59 32.13 68.59 18.32 24-13.81 32.24-44.44 18.38-68.36-0.4131-0.7131-0.85-1.378-1.292-2.063 12.09 23.56 3.663 52.73-19.59 66.11-23.25 13.38-52.81 6.071-67.24-16.15z" fill="#fff" fill-opacity=".3799"/>
      <path d="m31.29 486.2c-0.4424-0.685-0.8794-1.35-1.292-2.063-13.86-23.92-5.623-54.55 18.38-68.36s54.74-5.604 68.59 18.32c0.4131 0.7131 0.7728 1.423 1.147 2.147-14.42-22.22-43.99-29.53-67.24-16.15-23.25 13.38-31.68 42.55-19.59 66.11z" fill-opacity=".3188"/>
     </g>
     <g transform="rotate(180 376.4 460.1)">
      <path d="m30.07 484c0.374 0.7244 0.7337 1.434 1.147 2.147 13.86 23.92 44.59 32.13 68.59 18.32 24-13.81 32.24-44.44 18.38-68.36-0.4131-0.7131-0.85-1.378-1.292-2.063 12.09 23.56 3.663 52.73-19.59 66.11-23.25 13.38-52.81 6.071-67.24-16.15z" fill="#fff" fill-opacity=".3799"/>
      <path d="m31.29 486.2c-0.4424-0.685-0.8794-1.35-1.292-2.063-13.86-23.92-5.623-54.55 18.38-68.36s54.74-5.604 68.59 18.32c0.4131 0.7131 0.7728 1.423 1.147 2.147-14.42-22.22-43.99-29.53-67.24-16.15-23.25 13.38-31.68 42.55-19.59 66.11z" fill-opacity=".3188"/>
     </g>
    </g>
    <g transform="rotate(180 326.1 460.1)">
     <path d="m30.07 484c0.374 0.7244 0.7337 1.434 1.147 2.147 13.86 23.92 44.59 32.13 68.59 18.32 24-13.81 32.24-44.44 18.38-68.36-0.4131-0.7131-0.85-1.378-1.292-2.063 12.09 23.56 3.663 52.73-19.59 66.11-23.25 13.38-52.81 6.071-67.24-16.15z" fill="#fff" fill-opacity=".3799"/>
     <path d="m31.29 486.2c-0.4424-0.685-0.8794-1.35-1.292-2.063-13.86-23.92-5.623-54.55 18.38-68.36s54.74-5.604 68.59 18.32c0.4131 0.7131 0.7728 1.423 1.147 2.147-14.42-22.22-43.99-29.53-67.24-16.15-23.25 13.38-31.68 42.55-19.59 66.11z" fill-opacity=".3188"/>
    </g>
    <g transform="rotate(180 275.7 460.1)">
     <path d="m30.07 484c0.374 0.7244 0.7337 1.434 1.147 2.147 13.86 23.92 44.59 32.13 68.59 18.32 24-13.81 32.24-44.44 18.38-68.36-0.4131-0.7131-0.85-1.378-1.292-2.063 12.09 23.56 3.663 52.73-19.59 66.11-23.25 13.38-52.81 6.071-67.24-16.15z" fill="#fff" fill-opacity=".3799"/>
     <path d="m31.29 486.2c-0.4424-0.685-0.8794-1.35-1.292-2.063-13.86-23.92-5.623-54.55 18.38-68.36s54.74-5.604 68.59 18.32c0.4131 0.7131 0.7728 1.423 1.147 2.147-14.42-22.22-43.99-29.53-67.24-16.15-23.25 13.38-31.68 42.55-19.59 66.11z" fill-opacity=".3188"/>
    </g>
    <g transform="rotate(180 225.3 460.1)">
     <path d="m30.07 484c0.374 0.7244 0.7337 1.434 1.147 2.147 13.86 23.92 44.59 32.13 68.59 18.32 24-13.81 32.24-44.44 18.38-68.36-0.4131-0.7131-0.85-1.378-1.292-2.063 12.09 23.56 3.663 52.73-19.59 66.11-23.25 13.38-52.81 6.071-67.24-16.15z" fill="#fff" fill-opacity=".3799"/>
     <path d="m31.29 486.2c-0.4424-0.685-0.8794-1.35-1.292-2.063-13.86-23.92-5.623-54.55 18.38-68.36s54.74-5.604 68.59 18.32c0.4131 0.7131 0.7728 1.423 1.147 2.147-14.42-22.22-43.99-29.53-67.24-16.15-23.25 13.38-31.68 42.55-19.59 66.11z" fill-opacity=".3188"/>
    </g>
    <g transform="rotate(180 174.9 460.1)">
     <path d="m30.07 484c0.374 0.7244 0.7337 1.434 1.147 2.147 13.86 23.92 44.59 32.13 68.59 18.32 24-13.81 32.24-44.44 18.38-68.36-0.4131-0.7131-0.85-1.378-1.292-2.063 12.09 23.56 3.663 52.73-19.59 66.11-23.25 13.38-52.81 6.071-67.24-16.15z" fill="#fff" fill-opacity=".3799"/>
     <path d="m31.29 486.2c-0.4424-0.685-0.8794-1.35-1.292-2.063-13.86-23.92-5.623-54.55 18.38-68.36s54.74-5.604 68.59 18.32c0.4131 0.7131 0.7728 1.423 1.147 2.147-14.42-22.22-43.99-29.53-67.24-16.15-23.25 13.38-31.68 42.55-19.59 66.11z" fill-opacity=".3188"/>
    </g>
    <g transform="rotate(180 124.5 460.1)">
     <path d="m30.07 484c0.374 0.7244 0.7337 1.434 1.147 2.147 13.86 23.92 44.59 32.13 68.59 18.32 24-13.81 32.24-44.44 18.38-68.36-0.4131-0.7131-0.85-1.378-1.292-2.063 12.09 23.56 3.663 52.73-19.59 66.11-23.25 13.38-52.81 6.071-67.24-16.15z" fill="#fff" fill-opacity=".3799"/>
     <path d="m31.29 486.2c-0.4424-0.685-0.8794-1.35-1.292-2.063-13.86-23.92-5.623-54.55 18.38-68.36s54.74-5.604 68.59 18.32c0.4131 0.7131 0.7728 1.423 1.147 2.147-14.42-22.22-43.99-29.53-67.24-16.15-23.25 13.38-31.68 42.55-19.59 66.11z" fill-opacity=".3188"/>
    </g>
    <g transform="rotate(180 74.09 460.1)">
     <path d="m30.07 484c0.374 0.7244 0.7337 1.434 1.147 2.147 13.86 23.92 44.59 32.13 68.59 18.32 24-13.81 32.24-44.44 18.38-68.36-0.4131-0.7131-0.85-1.378-1.292-2.063 12.09 23.56 3.663 52.73-19.59 66.11-23.25 13.38-52.81 6.071-67.24-16.15z" fill="#fff" fill-opacity=".3799"/>
     <path d="m31.29 486.2c-0.4424-0.685-0.8794-1.35-1.292-2.063-13.86-23.92-5.623-54.55 18.38-68.36s54.74-5.604 68.59 18.32c0.4131 0.7131 0.7728 1.423 1.147 2.147-14.42-22.22-43.99-29.53-67.24-16.15-23.25 13.38-31.68 42.55-19.59 66.11z" fill-opacity=".3188"/>
    </g>
    <g transform="rotate(180 376.4 460.1)">
     <path d="m30.07 484c0.374 0.7244 0.7337 1.434 1.147 2.147 13.86 23.92 44.59 32.13 68.59 18.32 24-13.81 32.24-44.44 18.38-68.36-0.4131-0.7131-0.85-1.378-1.292-2.063 12.09 23.56 3.663 52.73-19.59 66.11-23.25 13.38-52.81 6.071-67.24-16.15z" fill="#fff" fill-opacity=".3799"/>
     <path d="m31.29 486.2c-0.4424-0.685-0.8794-1.35-1.292-2.063-13.86-23.92-5.623-54.55 18.38-68.36s54.74-5.604 68.59 18.32c0.4131 0.7131 0.7728 1.423 1.147 2.147-14.42-22.22-43.99-29.53-67.24-16.15-23.25 13.38-31.68 42.55-19.59 66.11z" fill-opacity=".3188"/>
    </g>
    <g transform="translate(0 504.6)">
     <g transform="rotate(180 326.1 460.1)">
      <path d="m30.07 484c0.374 0.7244 0.7337 1.434 1.147 2.147 13.86 23.92 44.59 32.13 68.59 18.32 24-13.81 32.24-44.44 18.38-68.36-0.4131-0.7131-0.85-1.378-1.292-2.063 12.09 23.56 3.663 52.73-19.59 66.11-23.25 13.38-52.81 6.071-67.24-16.15z" fill="#fff" fill-opacity=".3799"/>
      <path d="m31.29 486.2c-0.4424-0.685-0.8794-1.35-1.292-2.063-13.86-23.92-5.623-54.55 18.38-68.36s54.74-5.604 68.59 18.32c0.4131 0.7131 0.7728 1.423 1.147 2.147-14.42-22.22-43.99-29.53-67.24-16.15-23.25 13.38-31.68 42.55-19.59 66.11z" fill-opacity=".3188"/>
     </g>
     <g transform="rotate(180 275.7 460.1)">
      <path d="m30.07 484c0.374 0.7244 0.7337 1.434 1.147 2.147 13.86 23.92 44.59 32.13 68.59 18.32 24-13.81 32.24-44.44 18.38-68.36-0.4131-0.7131-0.85-1.378-1.292-2.063 12.09 23.56 3.663 52.73-19.59 66.11-23.25 13.38-52.81 6.071-67.24-16.15z" fill="#fff" fill-opacity=".3799"/>
      <path d="m31.29 486.2c-0.4424-0.685-0.8794-1.35-1.292-2.063-13.86-23.92-5.623-54.55 18.38-68.36s54.74-5.604 68.59 18.32c0.4131 0.7131 0.7728 1.423 1.147 2.147-14.42-22.22-43.99-29.53-67.24-16.15-23.25 13.38-31.68 42.55-19.59 66.11z" fill-opacity=".3188"/>
     </g>
     <g transform="rotate(180 225.3 460.1)">
      <path d="m30.07 484c0.374 0.7244 0.7337 1.434 1.147 2.147 13.86 23.92 44.59 32.13 68.59 18.32 24-13.81 32.24-44.44 18.38-68.36-0.4131-0.7131-0.85-1.378-1.292-2.063 12.09 23.56 3.663 52.73-19.59 66.11-23.25 13.38-52.81 6.071-67.24-16.15z" fill="#fff" fill-opacity=".3799"/>
      <path d="m31.29 486.2c-0.4424-0.685-0.8794-1.35-1.292-2.063-13.86-23.92-5.623-54.55 18.38-68.36s54.74-5.604 68.59 18.32c0.4131 0.7131 0.7728 1.423 1.147 2.147-14.42-22.22-43.99-29.53-67.24-16.15-23.25 13.38-31.68 42.55-19.59 66.11z" fill-opacity=".3188"/>
     </g>
     <g transform="rotate(180 174.9 460.1)">
      <path d="m30.07 484c0.374 0.7244 0.7337 1.434 1.147 2.147 13.86 23.92 44.59 32.13 68.59 18.32 24-13.81 32.24-44.44 18.38-68.36-0.4131-0.7131-0.85-1.378-1.292-2.063 12.09 23.56 3.663 52.73-19.59 66.11-23.25 13.38-52.81 6.071-67.24-16.15z" fill="#fff" fill-opacity=".3799"/>
      <path d="m31.29 486.2c-0.4424-0.685-0.8794-1.35-1.292-2.063-13.86-23.92-5.623-54.55 18.38-68.36s54.74-5.604 68.59 18.32c0.4131 0.7131 0.7728 1.423 1.147 2.147-14.42-22.22-43.99-29.53-67.24-16.15-23.25 13.38-31.68 42.55-19.59 66.11z" fill-opacity=".3188"/>
     </g>
     <g transform="rotate(180 124.5 460.1)">
      <path d="m30.07 484c0.374 0.7244 0.7337 1.434 1.147 2.147 13.86 23.92 44.59 32.13 68.59 18.32 24-13.81 32.24-44.44 18.38-68.36-0.4131-0.7131-0.85-1.378-1.292-2.063 12.09 23.56 3.663 52.73-19.59 66.11-23.25 13.38-52.81 6.071-67.24-16.15z" fill="#fff" fill-opacity=".3799"/>
      <path d="m31.29 486.2c-0.4424-0.685-0.8794-1.35-1.292-2.063-13.86-23.92-5.623-54.55 18.38-68.36s54.74-5.604 68.59 18.32c0.4131 0.7131 0.7728 1.423 1.147 2.147-14.42-22.22-43.99-29.53-67.24-16.15-23.25 13.38-31.68 42.55-19.59 66.11z" fill-opacity=".3188"/>
     </g>
     <g transform="rotate(180 74.09 460.1)">
      <path d="m30.07 484c0.374 0.7244 0.7337 1.434 1.147 2.147 13.86 23.92 44.59 32.13 68.59 18.32 24-13.81 32.24-44.44 18.38-68.36-0.4131-0.7131-0.85-1.378-1.292-2.063 12.09 23.56 3.663 52.73-19.59 66.11-23.25 13.38-52.81 6.071-67.24-16.15z" fill="#fff" fill-opacity=".3799"/>
      <path d="m31.29 486.2c-0.4424-0.685-0.8794-1.35-1.292-2.063-13.86-23.92-5.623-54.55 18.38-68.36s54.74-5.604 68.59 18.32c0.4131 0.7131 0.7728 1.423 1.147 2.147-14.42-22.22-43.99-29.53-67.24-16.15-23.25 13.38-31.68 42.55-19.59 66.11z" fill-opacity=".3188"/>
     </g>
     <g transform="rotate(180 376.4 460.1)">
      <path d="m30.07 484c0.374 0.7244 0.7337 1.434 1.147 2.147 13.86 23.92 44.59 32.13 68.59 18.32 24-13.81 32.24-44.44 18.38-68.36-0.4131-0.7131-0.85-1.378-1.292-2.063 12.09 23.56 3.663 52.73-19.59 66.11-23.25 13.38-52.81 6.071-67.24-16.15z" fill="#fff" fill-opacity=".3799"/>
      <path d="m31.29 486.2c-0.4424-0.685-0.8794-1.35-1.292-2.063-13.86-23.92-5.623-54.55 18.38-68.36s54.74-5.604 68.59 18.32c0.4131 0.7131 0.7728 1.423 1.147 2.147-14.42-22.22-43.99-29.53-67.24-16.15-23.25 13.38-31.68 42.55-19.59 66.11z" fill-opacity=".3188"/>
     </g>
    </g>
   </g>
  </g>
 </g>
</svg>
