<svg xmlns="http://www.w3.org/2000/svg" xmlns:xlink="http://www.w3.org/1999/xlink" width="460.4" height="375.2" xmlns:v="https://vecta.io/nano"><style><![CDATA[.B{stroke-miterlimit:10}.C{fill:none}.D{stroke:#dadada}.E{fill:gray}.F{opacity:.35}]]></style><path d="M2.4-61.6l2-.5v-13.3l-2-.4v-1.5h6.8l3.7 11.7h.1l3.8-11.7h7v1.5l-2.2.4v13.3l2.2.4v1.5h-7.3v-1.5l1.7-.4v-12.6h-.1l-4.6 14h-2.2l-4.5-14v12.6l1.7.4v1.5H2.4v-1.4zm21.9-4.9c0-4.2 2.8-6.8 6.4-6.8 4 0 6.4 2.5 6.4 6.7s-2.9 6.9-6.4 6.9c-3.9-.1-6.4-2.7-6.4-6.8zm9.6 0c0-3.8-1.5-5-3.1-5s-3.1 1.1-3.1 4.8c0 3.8 1.5 5 3.2 5 1.5 0 3-1.1 3-4.8zm5 5.7v-15.4l-1.7-.4v-1.5l4.4-.6.4.1v6.6h.1c.9-.7 2.1-1.4 3.9-1.4 2.4 0 4.9 1.3 4.9 6.3s-2.8 7.3-6.9 7.3c-2.1 0-3.9-.5-5.1-1zm8.7-5.8c0-3.3-1.1-4.4-3.1-4.4-1 0-1.9.3-2.4.5v8.2c.5.3 1 .6 2.2.6 2 0 3.3-1.1 3.3-4.9zm4.1 5.1l1.7-.4v-9l-1.8-.4v-1.5l4.7-.6.3.2v11.3l1.7.4v1.4h-6.5v-1.4zM53-76.7c0-1 .8-1.7 1.8-1.7s1.8.7 1.8 1.7-.8 1.7-1.8 1.7-1.8-.7-1.8-1.7zm5.6 15.2l1.7-.4v-14.5l-1.8-.4v-1.4l4.7-.6.3.2v16.7l1.7.4v1.4h-6.6v-1.4zm7.2-5.2c0-4.2 2.6-6.7 6.2-6.7 3.9 0 5.5 2.4 5.5 7H69c.1 3 1.6 4.4 4 4.4 1.8 0 2.8-.4 3.8-.6v1.6c-.9.5-2.3 1.2-4.5 1.2-4.4 0-6.5-2.7-6.5-6.9zm8.4-1.4c0-2.4-.8-3.4-2.4-3.4s-2.6 1-2.8 3.6l5.2-.2zm8.3 6.6l1.7-.4v-14.5l-1.8-.4v-1.4l4.7-.6.3.2v16.7l1.7.4v1.4h-6.6v-1.4zm7.1-1.8c0-2.4 1.7-3.2 4.3-3.7l2.9-.6v-1.1c0-1.7-.4-2.4-2.7-2.4a30.77 30.77 0 0 0-3.3.2v-1.6c1.1-.4 3-.9 4.8-.9 3 0 4.4 1.3 4.4 4v6.8c0 .7.4.9 1.1.9h.5v1.3c-.3.2-1.3.5-2.3.5-1.1 0-1.9-.4-2.1-1.4H97c-.7.8-1.8 1.5-3.5 1.5-2.3 0-3.9-1.4-3.9-3.5zm7.2.8v-3.4l-2 .1c-1.5.1-2 .8-2 2s.6 2 2 2c.8.1 1.6-.4 2-.7z"/><path d="M101.8-61.5l1.7-.4v-9l-1.7-.4v-1.5l4.4-.6.3.2v1.2h.1c1.2-.8 2.7-1.4 4.3-1.4 2.2 0 3.5.9 3.5 3.4v8.1l1.7.4v1.4h-6.4v-1.4l1.5-.4V-69c0-1.5-.7-1.9-2.2-1.9-.9 0-1.7.2-2.5.5v8.7l1.5.4v1.4h-6.4v-1.6zm15.1-4.8c0-5 2.7-7.1 6.5-7.1 1 0 1.6.2 2.3.4v-3.3l-1.9-.4v-1.4l4.7-.6.4.1v16.4l1.7.4v1.4l-4.3.6-.3-.2v-1.3h-.1c-.7.9-1.9 1.5-3.6 1.5-2.5 0-5.4-1.5-5.4-6.5zm8.8 3.6v-8.1c-.5-.3-1-.7-2.2-.7-2 0-3.3 1-3.3 4.8 0 3.3 1.2 4.5 3.2 4.5.9.1 1.8-.2 2.3-.5zm5.9 2.2l-.2-3.5h1.8l.6 1.9c.4.2 1.2.5 2.2.5 1.4 0 2.4-.5 2.4-1.7 0-1.1-.5-1.5-2.1-1.9l-1.4-.4c-2.2-.6-3.4-1.7-3.4-3.8 0-2.2 1.6-4 5.1-4 1.5 0 2.9.2 3.9.6v3.3h-1.7l-.5-1.7c-.4-.2-.9-.4-1.8-.4-1.2 0-2.2.4-2.2 1.5 0 .9.5 1.4 2.2 1.8l1.5.4c2.5.7 3.4 1.9 3.4 3.7 0 2.4-1.7 4.2-5.5 4.2-1.5.2-3.1-.1-4.3-.5zm10.5-6c0-4.9 3-6.9 7-6.9 1.4 0 2.7.2 3.6.5v3.6h-1.9l-.4-2c-.3-.1-.6-.2-1.5-.2-2.1 0-3.4 1.4-3.4 4.7 0 3.6 1.7 4.8 4.1 4.8 1.6 0 2.7-.3 3.3-.6v1.6c-.8.6-2.2 1.2-4.3 1.2-4.2 0-6.5-2.6-6.5-6.7zm11.4 3.2c0-2.4 1.7-3.2 4.3-3.7l2.9-.6v-1.1c0-1.7-.4-2.4-2.7-2.4a30.77 30.77 0 0 0-3.3.2v-1.6c1.1-.4 3-.9 4.8-.9 3 0 4.4 1.3 4.4 4v6.8c0 .7.4.9 1.1.9h.5v1.3c-.3.2-1.3.5-2.3.5-1.1 0-1.9-.4-2.1-1.4h-.1c-.7.8-1.8 1.5-3.5 1.5-2.4 0-4-1.4-4-3.5zm7.2.8v-3.4l-2 .1c-1.5.1-2 .8-2 2s.6 2 2 2c.8.1 1.6-.4 2-.7z"/><use xlink:href="#B"/><path d="M180.3-66.7c0-4.2 2.6-6.7 6.2-6.7 3.9 0 5.5 2.4 5.5 7h-8.5c.2 3 1.6 4.4 4 4.4 1.8 0 2.8-.4 3.8-.6v1.6c-.9.5-2.3 1.2-4.5 1.2-4.4 0-6.5-2.7-6.5-6.9zm8.5-1.4c0-2.4-.8-3.4-2.4-3.4s-2.6 1-2.8 3.6l5.2-.2z"/><g fill="#4dc5dc"><path d="M211.4-61.7l2.2-.4v-3H206v-1.8l8.2-10.5h2.8v10.3h2.4v2H217v3l2.1.4v1.5h-7.6v-1.5zm2.2-5.4v-6.6h-.1l-5 6.5v.1h5.1zm7-.9c0-7 3.9-9.7 8.1-9.7 1.8 0 3.1.4 3.9.9v1.8c-.8-.3-2-.4-3.2-.4-2.6 0-4.9 1.2-5.2 5.8 1-.6 2.5-1.2 4.2-1.2 3.1 0 5.3 2 5.3 5.2s-2.2 5.9-6.3 5.9c-4.3-.1-6.8-3.2-6.8-8.3zm9.6 2.6c0-2.4-1.2-3.3-2.9-3.3-1.3 0-2.3.3-3.1.8v.5c0 3.4.7 5.7 3.2 5.7 1.9-.1 2.8-1.4 2.8-3.7zm4.7-3.3c0-6.3 3.3-9.1 7.2-9.1s7.1 2.7 7.1 8.9-3.2 9-7.2 9c-4 .1-7.1-2.6-7.1-8.8zm10.9.1c0-4.8-1.1-7.1-3.6-7.1s-3.7 2.3-3.7 6.9c0 4.8 1.1 7.1 3.6 7.1 2.5-.1 3.7-2.2 3.7-6.9z"/><use xlink:href="#B" x="84.5"/><path d="M264.2-61.5l1.4-.4 3.4-4.7-3.3-4.7-1.4-.4v-1.4h6.3v1.4l-1.3.3 2.2 3.5 2.2-3.5-1.4-.3v-1.4h4.9v1.4l-1.2.4-3.3 4.6 3.3 4.8 1.4.4v1.4h-6.3v-1.4l1.4-.3-2.3-3.5h-.1l-2.4 3.5 1.4.3v1.4H264v-1.4z"/></g><path d="M460.1 357.8H.1" class="B C D"/><g class="E"><path d="M.5 368.7v-.2c0-3.2 1.9-4.2 4-4.2 1 0 1.7.2 2.2.5v.9c-.5-.2-1.1-.5-2.3-.5-2 0-2.7 1.5-2.7 3.1v.4c0 1.8.5 3.2 2.7 3.2.6 0 1.1-.1 1.5-.2v-2.2H4.1v-.9h2.8v3.7c-.6.3-1.5.5-2.6.5-2.3 0-3.8-1.3-3.8-4.1z"/><use xlink:href="#C"/><path d="M14.3 371c0-1.1.7-1.6 1.9-1.8l1.6-.2v-.6c0-.9-.4-1.2-1.5-1.2-.6 0-1.1.1-1.5.2v-.8a5.41 5.41 0 0 1 1.9-.3c1.4 0 2.1.6 2.1 1.8v4.5H18l-.1-.5h-.1c-.3.3-.8.6-1.6.6-1.1.1-1.9-.5-1.9-1.7zm3.5.5v-1.7l-1.4.1c-.7.1-1 .3-1 1 0 .6.4 1 1.1 1 .5 0 1-.1 1.3-.4zm2.5-5h1v.7h.1c.3-.4 1-.8 1.7-.8h.4v.9H23c-.6 0-1.2.2-1.6.5v4.8h-1.1v-6.1zm3.7 3.3v-.2c0-2.3 1.2-3.2 2.7-3.2.7 0 1.2.2 1.6.4v-3h1.1v8.9h-.9l-.1-.5h-.1c-.4.4-.9.6-1.8.6-1.1 0-2.5-.8-2.5-3zm4.3 1.6v-3.8c-.3-.2-.8-.4-1.4-.4-1.1 0-1.8.6-1.8 2.2v.3c0 1.7.7 2.2 1.8 2.2.7 0 1.2-.3 1.4-.5zm2.6-7.2H32v1.1h-1.1v-1.1zm0 2.3H32v6.2h-1.1v-6.2zm2.2 4.5c0-1.1.7-1.6 1.9-1.8l1.6-.2v-.6c0-.9-.4-1.2-1.5-1.2-.6 0-1.1.1-1.5.2v-.8a5.41 5.41 0 0 1 1.9-.3c1.4 0 2.1.6 2.1 1.8v4.5h-.9l-.1-.5h-.1c-.3.3-.8.6-1.6.6-1 .1-1.8-.5-1.8-1.7zm3.5.5v-1.7l-1.4.1c-.7.1-1 .3-1 1 0 .6.4 1 1.1 1 .5 0 1.1-.1 1.3-.4zm2.6-5h1v.5h.1c.5-.4 1.3-.6 2.1-.6 1.2 0 1.8.5 1.8 1.7v4.6H43v-4.4c0-.7-.2-1-1.2-1-.5 0-1.2.2-1.6.4v5h-1.1v-6.2zm8.1 7c0-.7.5-1.1 1.2-1.3v-.1c-.4-.1-.6-.4-.6-.9 0-.4.2-.8.7-1.2-.5-.3-.8-.8-.8-1.5v-.1c0-1.3 1-2 2.4-2 .3 0 .6 0 .9.1h2.1v.8h-1c.3.3.4.6.4 1.1v.1c0 1.3-1 2-2.3 2-.4 0-.7 0-1-.1-.1.1-.3.3-.3.5 0 .3.2.5.6.5H51c1.1 0 2 .4 2 1.6 0 1.1-.9 2.1-3 2.1-1.8-.1-2.7-.7-2.7-1.6zm4.6-.4c0-.6-.3-.8-1-.8h-1.7c-.4.1-.7.5-.7 1 0 .6.5.9 1.6.9 1.3 0 1.8-.5 1.8-1.1zm-.6-4.6v-.2c0-.8-.5-1.2-1.3-1.2s-1.3.4-1.3 1.1v.2c0 .8.5 1.2 1.3 1.2.9 0 1.3-.3 1.3-1.1z"/><use xlink:href="#D"/><path d="M57.4 371c0-1.1.7-1.6 1.9-1.8l1.6-.2v-.6c0-.9-.4-1.2-1.5-1.2-.6 0-1.1.1-1.5.2v-.8a5.41 5.41 0 0 1 1.9-.3c1.4 0 2.1.6 2.1 1.8v4.5H61l-.1-.5h.1c-.3.3-.8.6-1.6.6-1.2.1-2-.5-2-1.7zm3.5.5v-1.7l-1.4.1c-.7.1-1 .3-1 1 0 .6.4 1 1.1 1 .6 0 1.1-.1 1.3-.4zm2.6-5h1v.5h.1a2.96 2.96 0 0 1 1.8-.6c1.3 0 2.5.8 2.5 3v.2c0 2.3-1.1 3.2-2.8 3.2-.7 0-1.2-.2-1.5-.4v2.6h-1.1v-8.5zm4.2 3.2v-.3c0-1.7-.6-2.2-1.7-2.2-.7 0-1.2.2-1.5.4v3.8c.3.2.8.4 1.4.4 1.2.1 1.8-.5 1.8-2.1zm2.3-5.9h1v3.2h.1c.5-.3 1.3-.6 2-.6 1.2 0 1.8.5 1.8 1.7v4.6h-1.1v-4.4c0-.7-.2-1-1.2-1-.5 0-1.2.2-1.6.4v5h-1v-8.9zm6.4.4h1.1v1.1h-1.1v-1.1zm0 2.3h1.1v6.2h-1.1v-6.2z"/><use xlink:href="#E"/><path d="M333.7 372.2v-.9c.6.3 1.5.5 2.3.5 1.2 0 1.8-.6 1.8-1.4s-.3-1.1-1.3-1.5l-.9-.3c-1.1-.4-1.8-1-1.8-2.3s.9-2.2 2.6-2.2c1 0 1.6.2 2 .5v.9a5.58 5.58 0 0 0-2.1-.4c-.9 0-1.5.4-1.5 1.2s.3 1.1 1.1 1.4l.9.3c1.2.4 2 .9 2 2.4s-.9 2.4-2.8 2.4c-.9 0-1.7-.3-2.3-.6zm6-2.5v-.2c0-1.9 1.1-3.1 2.8-3.1 1.8 0 2.8 1.2 2.8 3.1v.2c0 1.9-1.1 3.1-2.8 3.1s-2.8-1.2-2.8-3.1zm4.6.1v-.3c0-1.7-.8-2.2-1.7-2.2-1.1 0-1.7.8-1.7 2.1v.3c0 1.7.8 2.2 1.7 2.2 1 0 1.7-.8 1.7-2.1zm2.2 1.1v-4.5h1.1v4.3c0 .8.3 1.1 1.1 1.1.6 0 1.2-.2 1.6-.4v-4.9h1.1v6.2h-.9l-.1-.5h-.1c-.5.4-1.1.6-1.9.6-1.3 0-1.9-.7-1.9-1.9z"/><use xlink:href="#D" x="298.9"/><use xlink:href="#E" x="277.8"/><use xlink:href="#F"/><path d="M368.4 367.8h1.2v1.2h-1.2v-1.2zm0 3.6h1.2v1.2h-1.2v-1.2zm7.1-6.2H373v-.9h6v.9h-2.5v7.4h-1.1v-7.4zm4.5-1.4h1.1v3.2h.1c.5-.3 1.3-.6 2-.6 1.2 0 1.8.5 1.8 1.7v4.6h-1.1v-4.4c0-.7-.2-1-1.2-1-.5 0-1.2.2-1.6.4v5H380v-8.9z"/><use xlink:href="#G"/><path d="M392.8 366.5h1v.5h.1c.5-.3 1.2-.6 1.9-.6s1.2.2 1.5.7h.1c.6-.4 1.4-.7 2.1-.7 1.1 0 1.7.5 1.7 1.7v4.6H400v-4.4c0-.7-.3-1-1.1-1-.5 0-1 .2-1.5.4v5h-1.1v-4.4c0-.7-.3-1-1.1-1-.5 0-1 .2-1.5.4v5h-1.1v-6.2z"/><use xlink:href="#H"/><use xlink:href="#G" x="21"/><path d="M413.8 366.5h1v.5h.1c.5-.4 1.3-.6 2.1-.6 1.2 0 1.8.5 1.8 1.7v4.6h-1.1v-4.4c0-.7-.2-1-1.2-1-.5 0-1.2.2-1.6.4v5h-1.1v-6.2zm8.9-2.2h2.4c1.8 0 2.8.8 2.8 2.4 0 1.2-.6 1.8-1.6 2.2v.1l2.2 3.7h-1.2l-2-3.5h-1.5v3.5h-1.1v-8.4zm2.4 4c1.2 0 1.7-.5 1.7-1.5s-.5-1.5-1.7-1.5h-1.3v3h1.3zm3.8 1.3v-.2c0-2.1 1.3-3.1 2.7-3.1 1.7 0 2.5 1 2.5 2.9v.6H430c.1 1.5.8 2 2 2 .8 0 1.4-.2 1.9-.5v.8c-.4.3-1.1.6-2.1.6-1.9.1-2.9-1.1-2.9-3.1zm1.1-.6h3c0-1.3-.5-1.8-1.4-1.8-.7 0-1.5.4-1.6 1.8z"/><use xlink:href="#C" x="426.9"/><path d="M441.9 371.2v-3.8h-.9v-.9h.9V365h1.1v1.5h1.5v.9H443v3.7c0 .6.2.8.9.8.3 0 .5 0 .8-.1v.7c-.3.1-.5.3-1.1.3-1-.1-1.7-.5-1.7-1.6z"/><use xlink:href="#F" x="83.5"/><use xlink:href="#D" x="397.7"/><use xlink:href="#H" x="53.2"/></g><path d="M3.2 15.7l1.7-.4V4.6H2.4l-.7 2.7H.2l.2-4.2H12l.2 4.2h-1.5L10 4.6H7.6v10.7l1.7.4v1.2H3.2v-1.2zm9.5.1l1.4-.3V3.9l-1.4-.3V2.4l3.6-.5.3.1v5.4h.1c1-.6 2.1-1.1 3.4-1.1 1.8 0 2.8.7 2.8 2.7v6.5l1.3.3v1.1h-5.1v-1.1l1.2-.3V9.8c0-1.2-.6-1.6-1.8-1.6-.7 0-1.4.2-2 .4v6.9l1.2.3v1.1h-5.1v-1.1z"/><use xlink:href="#I"/><path d="M38.6 19.8l1.4-.3V8.3L38.6 8V6.8l3.5-.5.3.1v1h.1c.7-.6 1.7-1.2 3.2-1.2 1.9 0 3.9 1.1 3.9 5 0 4-2.2 5.8-5.3 5.8-.8 0-1.3 0-1.7-.2v2.5l1.6.3v1.1h-5.5v-.9zm8.4-8.1c0-2.6-.9-3.5-2.5-3.5-.8 0-1.5.2-1.9.4v6.6c.4.2.8.5 1.8.5 1.5 0 2.6-.9 2.6-4zm3.4 4.1l1.4-.3V8.3L50.3 8V6.8l3.5-.5.3.1v1.4h.1c.6-.8 1.5-1.5 2.7-1.5.2 0 .4 0 .5.1v2.2c-.2-.1-.6-.1-.8-.1-1 0-1.7.2-2.4.6v6.4l1.6.3v1.1h-5.5v-1.1zm7.6 0l1.4-.3V8.3L57.8 8V6.8l3.7-.5.3.1v9l1.3.3v1.1H58v-1zm1-12.1c0-.8.7-1.4 1.5-1.4s1.5.6 1.5 1.4c0 .7-.7 1.3-1.5 1.3S59 4.4 59 3.7zm4.8 8.1c0-3.9 2.4-5.5 5.6-5.5a11.25 11.25 0 0 1 2.9.4v2.9h-1.5L70.4 8c-.3-.1-.5-.2-1.2-.2-1.7 0-2.7 1.1-2.7 3.7 0 2.9 1.4 3.9 3.3 3.9 1.3 0 2.2-.3 2.7-.5v1.3c-.6.5-1.7.9-3.4.9-3.5.1-5.3-2-5.3-5.3z"/><use xlink:href="#I" x="48.4"/><path d="M87.2 11.8c0-3.4 2.3-5.5 5.1-5.5 3.2 0 5.2 2 5.2 5.4s-2.3 5.5-5.1 5.5c-3.2 0-5.2-2.1-5.2-5.4zm7.7 0c0-3.1-1.2-4-2.5-4s-2.5.9-2.5 3.8c0 3.1 1.2 4 2.5 4 1.3.1 2.5-.8 2.5-3.8zm3.4 4l1.4-.3V8.1h-1.3V7l1.3-.5V5.4c0-2.6 1.7-3.5 3.6-3.5 1.1 0 1.7.2 2.1.4v1.4c-.4-.1-.8-.1-1.3-.1-1.2 0-1.8.4-1.8 2v.9h2.3v1.6h-2.3v7.4l1.6.3v1.1h-5.5v-1.1zm10.1 2.8c0-1.1.9-1.9 2.1-2.3v-.1c-.7-.3-1.2-.8-1.2-1.5 0-.8.5-1.6 1.4-2.2-.9-.5-1.5-1.4-1.5-2.7 0-2.3 1.8-3.5 4.2-3.5.8 0 1.5.1 2.1.3l3.1-.4v1.7l-1.7-.1c.4.5.7 1 .7 1.8 0 2.3-1.8 3.5-4.2 3.5-.6 0-1.2-.1-1.7-.2-.3.3-.4.7-.4.9 0 .3.2.6.7.6h3.4c1.7 0 3.2.7 3.2 2.7 0 2.1-1.8 3.9-5.7 3.9-3.2 0-4.5-1.2-4.5-2.4zm7.9-.9c0-.8-.5-1.1-1.6-1.1h-3c-.6.3-.9.8-.9 1.5 0 .8.7 1.4 2.4 1.4 2.2.1 3.1-.8 3.1-1.8zm-1.2-8c0-1.6-.8-2.1-1.8-2.1-1.1 0-1.8.6-1.8 2.1s.8 2.1 1.8 2.1c1.1 0 1.8-.6 1.8-2.1zm3.8 2.1c0-3.4 2.3-5.5 5.1-5.5 3.2 0 5.2 2 5.2 5.4s-2.3 5.5-5.1 5.5c-3.2 0-5.2-2.1-5.2-5.4zm7.6 0c0-3.1-1.2-4-2.5-4s-2.5.9-2.5 3.8c0 3.1 1.2 4 2.5 4 1.4.1 2.5-.8 2.5-3.8zm3.4 4l1.4-.3V3.9l-1.5-.3V2.4l3.7-.5.3.1v13.4l1.4.3v1.1h-5.3v-1zm6-3.8c0-4 2.2-5.7 5.2-5.7.8 0 1.3.1 1.8.3V3.9l-1.5-.3V2.5l3.7-.5.3.1v13.1l1.4.3v1.1l-3.4.5-.3-.1v-1h-.1c-.6.7-1.5 1.2-2.9 1.2-1.8 0-4.2-1.2-4.2-5.2zm7.1 2.8V8.3c-.4-.3-.8-.5-1.8-.5-1.6 0-2.7.8-2.7 3.9 0 2.7.9 3.6 2.5 3.6.9 0 1.6-.2 2-.5z"/><g class="E"><path d="M.9 44.4v-6.7h2.3v6.6c0 1.7.7 2.2 2 2.2s1.9-.6 1.9-2.2v-6.6h2.1v6.7c0 2.6-1.3 3.9-4.1 3.9C2.4 48.2.9 47 .9 44.4zm9.3 3.2v-1.8c.9.4 1.8.6 3 .6 1.3 0 1.8-.5 1.8-1.2s-.3-1-1.4-1.3l-.9-.3c-1.6-.5-2.5-1.2-2.5-3.1 0-1.8 1.2-3 3.6-3 1.5 0 2.3.3 2.9.6v1.8c-.7-.3-1.5-.5-2.7-.5-1 0-1.6.4-1.6 1.1s.4 1 1.3 1.3l.9.3c1.7.5 2.7 1.2 2.7 3 0 2.1-1.3 3.3-3.9 3.3-1.3-.2-2.4-.4-3.2-.8zm10.2-3.2v-.2c0-2.9 1.5-4.1 3.5-4.1.9 0 1.5.2 1.8.4V37h2.1v11.1H26l-.2-.6h-.1c-.5.5-1.2.8-2.2.8-1.6-.1-3.1-1.1-3.1-3.9zm5.3 1.8V42c-.3-.2-.8-.3-1.4-.3-1.1 0-1.8.6-1.8 2.4v.3c0 1.8.7 2.4 1.8 2.4.6-.2 1.1-.4 1.4-.6zm3-1.9v-.2c0-2.6 1.6-4 3.9-4 2.5 0 3.9 1.4 3.9 3.9v.2c0 2.6-1.6 4-3.9 4-2.5 0-3.9-1.4-3.9-3.9zm5.5 0V44c0-2-.7-2.4-1.7-2.4-1.1 0-1.6.7-1.6 2.4v.3c0 1.9.7 2.4 1.7 2.4s1.6-.7 1.6-2.4zm3.1-7.3h2.1v11.1h-2.1V37zm3.5 0h2.1v11.1h-2.1V37zm3 8.9c0-1.5 1-2.2 2.7-2.4l1.7-.2v-.5c0-.9-.4-1.2-1.7-1.2-.8 0-1.5.1-2 .2v-1.5c.8-.3 1.7-.4 2.8-.4 1.9 0 3 .7 3 2.4v5.6h-1.7l-.2-.6h-.1c-.3.5-1 .8-2 .8-1.5.1-2.5-.6-2.5-2.2zm4.4.5v-1.8l-1.2.1c-.7.1-1.1.3-1.1 1s.4 1 1.1 1c.4.1.9-.1 1.2-.3zm3.3-6.2h2v.9h.1c.4-.6 1.2-1 2-1 .2 0 .4 0 .5.1V42h-.6c-.7 0-1.4.2-1.9.5v5.6h-2.1v-7.9z"/><path d="M56.5 47.7v-1.6c.7.2 1.3.5 2.4.5 1 0 1.4-.2 1.4-.7s-.2-.6-1-.8l-.8-.2c-1.3-.3-2-.9-2-2.4s1-2.4 3-2.4a6.97 6.97 0 0 1 2.4.4V42a5.58 5.58 0 0 0-2.1-.4c-.9 0-1.3.2-1.3.7s.3.6.9.8l.8.2c1.6.3 2.2 1 2.2 2.4 0 1.7-1.1 2.5-3.2 2.5-1.1 0-2-.2-2.7-.5zm9.2-7.5h2v.6h.1c.5-.5 1.3-.8 2.3-.8 1.6 0 3.1.9 3.1 3.8v.2c0 3-1.4 4.2-3.6 4.2-.8 0-1.4-.2-1.7-.4V51h-2.1V40.2zm5.2 4.1V44c0-1.8-.6-2.3-1.7-2.3-.7 0-1.2.2-1.5.4v4.2c.3.2.8.4 1.4.4 1.2 0 1.8-.6 1.8-2.4zm2.7-.1V44c0-2.6 1.6-4 3.7-4 2.5 0 3.4 1.4 3.4 3.9v.8h-5c.1 1.5.9 1.9 2.3 1.9a5.68 5.68 0 0 0 2.4-.5v1.4c-.6.4-1.5.7-2.9.7-2.5 0-3.9-1.4-3.9-4zm2.2-.9h2.9c0-1.3-.5-1.8-1.4-1.8-.7 0-1.4.4-1.5 1.8zm5.9-3.1h2v.9h.1c.4-.6 1.2-1 2-1 .2 0 .4 0 .5.1V42c-.2 0-.5-.1-.6-.1-.7 0-1.4.2-1.9.5V48h-2.1v-7.8zm7.3 4.1v-.2c0-2.6 1.6-4 3.9-4 2.5 0 3.9 1.4 3.9 3.9v.2c0 2.6-1.6 4-3.9 4-2.5 0-3.9-1.4-3.9-3.9zm5.5 0V44c0-2-.7-2.4-1.7-2.4s-1.6.7-1.6 2.4v.3c0 1.9.7 2.4 1.7 2.4s1.6-.7 1.6-2.4zm3.1 1.6v-5.7h2.1v5.3c0 .8.3 1.1 1.1 1.1.6 0 1.1-.2 1.5-.4v-6h2.1v7.9h-1.8l-.2-.7h-.1c-.7.5-1.4.8-2.4.8-1.5 0-2.3-.7-2.3-2.3zm8.1-5.7h2v.7h.1c.7-.5 1.6-.8 2.6-.8 1.5 0 2.3.6 2.3 2.2v5.8h-2.1v-5.3c0-.7-.3-1-1.2-1-.5 0-1.1.2-1.6.4v6h-2.1v-8zm7.8 4.1v-.2c0-2.7 1.6-4 3.9-4 1 0 1.7.2 2.2.4v1.6c-.6-.2-1-.4-1.9-.4-1.2 0-2 .7-2 2.2v.3c0 1.7.7 2.4 2.1 2.4.9 0 1.5-.3 1.9-.4v1.5c-.5.3-1.2.6-2.4.6-2.4-.1-3.8-1.4-3.8-4zm6.7-.1V44c0-2.6 1.6-4 3.7-4 2.5 0 3.4 1.4 3.4 3.9v.8h-5c.1 1.5.9 1.9 2.3 1.9a5.68 5.68 0 0 0 2.4-.5v1.4c-.6.4-1.5.7-2.9.7-2.6 0-3.9-1.4-3.9-4zm2.1-.9h2.9c0-1.3-.5-1.8-1.4-1.8-.6 0-1.4.4-1.5 1.8z"/></g><path d="M.4 25.1h460" class="B C D"/><path fill="#e31f26" d="M-1155.6-900.8h299.8v242.4h-299.8z" class="F"/><path fill="#fcdd03" d="M-1155.6-648.5h299.8v97.6h-299.8z" class="F"/><path d="M0-890.8h460v371.4H0zm816 0h460v371.4H816z" class="F" fill="#e31f26"/><path d="M0-508.8h218.8v97.6H0zm239.8 0h218.8v97.6H239.8zm417-382h139.3v371.5H656.8z" class="F" fill="#fcdd03"/><path d="M-1155.6-942.7h299.8v41.9h-299.8zM0-942.7h460v41.9H0zm656.8 0H1276v41.9H656.8z" class="F" fill="#aad801"/><g class="E"><path d="M.5 75.2L3 72.7c1.5-1.5 2.4-2.6 2.4-4 0-1.3-.8-1.9-2.2-1.9-1 0-1.8.3-2.4.6v-1.1c.8-.4 1.6-.6 2.8-.6 2.1 0 3.3 1.1 3.3 3 0 1.8-1 3-2.9 4.8L2.2 75H7v1.2H.5v-1zm7.7-3.9v-.5c0-3.7 1.9-5.2 4.2-5.2 2.2 0 4.1 1.4 4.1 5.1v.5c0 3.7-1.8 5.1-4.1 5.1s-4.2-1.4-4.2-5zm6.8.1v-.8c0-2.5-.8-3.9-2.7-3.9S9.6 68 9.6 70.5v.8c0 2.5.8 3.9 2.7 3.9s2.7-1.1 2.7-3.8z"/><use xlink:href="#J"/><use xlink:href="#J" x="9.6"/></g><path d="M0 80.1h460.4" class="B C D"/><g class="E"><path d="M2.3 127.1l-1.9.2v-.8l2.8-1h.5V136H2.3v-8.9zm2.9 8.4v-1.1c.7.3 1.5.6 2.5.6 1.6 0 2.6-.7 2.6-2.2 0-1.6-.9-2.1-2.6-2.1-.8 0-1.5.1-2 .3l.4-5.4h5.4v1.2H7.1l-.2 2.9c.3-.1.7-.1 1.2-.1 2.2 0 3.6 1 3.6 3.2 0 2.1-1.4 3.4-3.7 3.4-1.3-.1-2.2-.3-2.8-.7z"/><use xlink:href="#J" x="-4.8" y="59.8"/><use xlink:href="#J" x="4.8" y="59.8"/></g><path d="M0 139.9h460.4" class="B C D"/><g class="E"><path d="M2.3 186.9l-1.9.2v-.8l2.8-1h.5v10.5H2.3v-8.9zm3.2 4v-.5c0-3.7 1.9-5.2 4.2-5.2 2.2 0 4.1 1.4 4.1 5.1v.5c0 3.7-1.8 5.1-4.1 5.1s-4.2-1.4-4.2-5zm6.9.1v-.8c0-2.5-.8-3.9-2.7-3.9S7 187.6 7 190.1v.8c0 2.5.8 3.9 2.7 3.9s2.7-1.1 2.7-3.8zm2.7-.1v-.5c0-3.7 1.9-5.2 4.2-5.2 2.2 0 4.1 1.4 4.1 5.1v.5c0 3.7-1.8 5.1-4.1 5.1s-4.2-1.4-4.2-5zm6.8.1v-.8c0-2.5-.8-3.9-2.7-3.9s-2.7 1.3-2.7 3.8v.8c0 2.5.8 3.9 2.7 3.9s2.7-1.1 2.7-3.8z"/><use xlink:href="#J" x="6.9" y="119.6"/></g><path d="M0 199.7h460.4" class="B C D"/><g class="E"><path d="M.4 255.1V254c.7.3 1.5.6 2.5.6 1.6 0 2.6-.7 2.6-2.2 0-1.6-.9-2.1-2.6-2.1-.8 0-1.5.1-2 .3l.4-5.4h5.4v1.2H2.4l-.2 2.9c.3-.1.7-.1 1.2-.1 2.2 0 3.6 1 3.6 3.2 0 2.1-1.4 3.4-3.7 3.4-1.4 0-2.3-.3-2.9-.7z"/><use xlink:href="#K"/><use xlink:href="#L"/></g><path d="M0 259.5h460.4" class="B C D"/><path d="M.8 310.6v-.6c0-3.7 1.9-5.2 4.2-5.2 2.2 0 4.1 1.4 4.1 5.1v.5c0 3.7-1.8 5.1-4.1 5.1s-4.2-1.4-4.2-4.9zm6.8.1v-.8c0-2.5-.8-3.9-2.7-3.9s-2.7 1.3-2.7 3.8v.8c0 2.5.8 3.9 2.7 3.9s2.7-1.2 2.7-3.8z" class="E"/><path d="M0 319.8h460.4" class="B C D"/><g class="E"><use xlink:href="#M"/><use xlink:href="#L" x="48.5" y="84.2"/><use xlink:href="#K" x="67.6" y="84.2"/><path d="M85.7 339.6v-1.1c.4.2 1.2.3 1.9.3 2.1 0 3.4-.7 3.5-3.7-.6.4-1.6.8-2.7.8-1.9 0-3.2-1.1-3.2-3.1s1.2-3.6 3.6-3.6c2.2 0 3.8 1.6 3.8 4.6v.7c0 4.1-2.1 5.5-4.7 5.5-1 0-1.8-.1-2.2-.4zm5.4-5.5v-.2c0-2.2-.8-3.5-2.4-3.5-1.5 0-2.2.9-2.2 2.3 0 1.7.9 2.1 2.2 2.1 1.1 0 1.9-.3 2.4-.7z"/><use xlink:href="#N"/><use xlink:href="#L" x="114.7" y="84.2"/><use xlink:href="#O"/><use xlink:href="#L" x="128.9" y="84.2"/><use xlink:href="#M" x="132.9"/><use xlink:href="#L" x="181.4" y="84.2"/><use xlink:href="#O" x="66.7"/><use xlink:href="#O" x="71.4"/><use xlink:href="#N" x="129.5"/><use xlink:href="#L" x="244.3" y="84.2"/><path d="M273 330.9l-1.9.2v-.8l2.8-1h.5v10.5H273v-8.9zm3 7.9l2.5-2.5c1.5-1.5 2.4-2.6 2.4-4 0-1.3-.8-1.9-2.2-1.9-1 0-1.8.3-2.4.6v-1.1c.8-.4 1.6-.6 2.8-.6 2.1 0 3.3 1.1 3.3 3 0 1.8-1 3-2.9 4.8l-1.7 1.6h4.8v1.2H276v-1.1z"/><use xlink:href="#M" x="260.2"/><use xlink:href="#L" x="308.6" y="84.2"/><use xlink:href="#O" x="193.9"/><path d="M340.2 339.3v-1.1c.7.3 1.6.6 2.4.6 1.6 0 2.6-.6 2.6-2 0-1.3-.9-1.9-2.4-1.9h-1v-1.2h.8c1.3 0 2.2-.6 2.2-1.8 0-1.3-.8-1.6-2-1.6-1 0-1.5.2-2.2.4v-1.1c.7-.3 1.6-.5 2.5-.5 1.9 0 3.1 1 3.1 2.6 0 1.2-.7 2-1.9 2.4h0c1.4.3 2.3 1.1 2.3 2.6 0 2-1.5 3.1-3.8 3.1-1.2.2-2-.1-2.6-.5z"/><use xlink:href="#N" x="257.6"/><use xlink:href="#L" x="372.4" y="84.2"/><use xlink:href="#O" x="257.7"/><path d="M408.6 337h-4.9v-1l5.1-6.6h1.1v6.4h2v1.1h-2v2.8h-1.3V337zm0-1.1v-4.4h-.1l-3.4 4.4h3.5z"/><use xlink:href="#N" x="307"/><use xlink:href="#K" x="431.3" y="84.2"/><use xlink:href="#O" x="307.1"/><path d="M453.3 339.3v-1.1c.7.3 1.5.6 2.5.6 1.6 0 2.6-.7 2.6-2.2 0-1.6-.9-2.1-2.6-2.1-.8 0-1.5.1-2 .3l.4-5.4h5.4v1.2h-4.2l-.2 2.9c.3-.1.7-.1 1.2-.1 2.2 0 3.6 1 3.6 3.2 0 2.1-1.4 3.4-3.7 3.4-1.4 0-2.3-.3-3-.7z"/></g><g class="C B"><path d="M107.7 80.1v239.7M43.4 80.1v239.7M172 80.1v239.7m64-239.7v239.7m64.3-239.7v239.7m64-239.7v239.7m64-239.7v239.7" class="D"/><g stroke="#4dc6dd" stroke-width="3" stroke-linecap="round" stroke-linejoin="round"><path d="M59.6 211.5l-.3-2.7m.5 4.1l-.2-1.4m.4 4.2l-.2-2.8m.5 1.4l-.3 1.4m.5-1.3l-.2-.1m.5.2l-.3-.1m.5-.2l-.2.3m.5-1.6l-.3 1.3m.5-.9l-.2-.4m.5.2l-.3.2m.5 1.7l-.2-1.9m.5 2.7l-.3-.8m.5-1.2l-.2 2m.5-1.7l-.3-.3m.5-.6l-.2.9m.4-2.4l-.2 1.5m.5-2.7l-.3 1.2m.5-.5l-.2-.7m.5 2.5l-.3-1.8m.5 1l-.2.8m.5.7l-.3-1.5m.5 1.4l-.2.1m.5-2.1l-.3 2m.5-1.2l-.2-.8m.5-.9l-.3 1.7m.5-1.6l-.2-.1m.5-.7l-.3.8m.5-.4l-.2-.4m.5-.7l-.3 1.1m.5-1.5l-.2.4m.4-.4h-.2m.5-.7l-.3.7m.5 1l-.2-1.7m.5.8l-.3.9m.5-2.4l-.2 1.5m.5-3.5l-.3 2m.5-2.3l-.2.3m.5-.5l-.3.2m.5.6l-.2-.8m.5 1.2l-.3-.4m.5-.9l-.2 1.3m.4-3.7l-.2 2.4m.5-1.9l-.3-.5m.5-.3l-.2.8m.5 1.5l-.3-2.3m.5.2l-.2 2.1m.5.8l-.3-2.9m.5 3.5l-.2-.6m.5.2l-.3.4m.5-.4h-.2m.5 0h-.3m.5 1.9l-.2-1.9m.5 3.1l-.3-1.2m.5.4l-.2.8m.5-1.3l-.3.5m.5.3l-.2-.8m.4.6l-.2.2m.5 1.2l-.3-1.4m.5 1l-.2.4m.5-1.1l-.3.7m.5-1.6l-.2.9m.5-.9h-.3m.5.2l-.2-.2m.5 1.5l-.3-1.3m.5-.4l-.2 1.7m.5-.3l-.3-1.4m.5 1.1l-.2.3m.5.6l-.3-.9m.5.9h-.2m.4 1.8l-.2-1.8m.5 1.5l-.3.3m.5-.4l-.2.1m.5-1.1l-.3 1m.5-1.5l-.2.5m.5-2.2l-.3 1.7m.5-1.4l-.2-.3m.5.2l-.3.1m.5-1.5l-.2 1.4m.5-1.3l-.3-.1m.5-.2l-.2.3m.5.1l-.3-.4m.5 0l-.2.4m.4-.7l-.2.3m.5 1.6l-.3-1.9m.5 2.9l-.2-1m.5.4l-.3.6m.5-3l-.2 2.4m.5-2.6l-.3.2m.5-1.6l-.2 1.4m.5-.8l-.3-.6m.5.6h-.2m.5 1l-.3-1m.5 2.1l-.2-1.1m.5 1.1h-.3m.5-.2l-.2.2m.4-1.1l-.2.9m.5 0l-.3-.9m.5 2.5l-.2-1.6m.5 1.1l-.3.5m.5-1.1l-.2.6m.5-.3l-.3-.3m.5-1.3l-.2 1.6m.5-.4l-.3-1.2m.5 1.1l-.2.1m.5-.3l-.3.2m.5-.4l-.2.2m.5-1.2l-.3 1m.5-.3l-.2-.7m.4-.1l-.2.8m.5-3.3l-.3 2.5m.5-4.1l-.2 1.6m.5-2l-.3.4m.5-.4h-.2m.5-.2l-.3.2m.5.2l-.2-.4m.5 0l-.3.4m.5-1.5l-.2 1.1m.5-.5l-.3-.6m.5-.2l-.2.8m.5-2.1l-.3 1.3m.5-.6l-.2-.7m.4 1.3l-.2-.6m.5 1l-.3-.4m.5-.9l-.2 1.3m.5-.6l-.3-.7m.5 2.4l-.2-1.7m.5 2l-.3-.3m.5.4l-.2-.1m.5 0l-.3.1m.5-2l-.2 1.9m.5-.9l-.3-1m.5.7l-.2.3m.5-2.2l-.3 1.9m.5-4.7l-.2 2.8m.5-3.2l-.3.4m.5-1.6l-.2 1.2m.4-.5l-.2-.7m.5-.2l-.3.9m.5-1.8l-.2.9m.5-.8l-.3-.1m.5 1.6l-.2-1.5m.5 1.2l-.3.3m.5-1.6l-.2 1.3m.5-.3l-.3-1m.5.5l-.2.5m.5-.6l-.3.1m.5.5l-.2-.6m.5 2.6l-.3-2m.5 1.9l-.2.1m.4 1.3l-.2-1.4m.5-.7l-.3 2.1m.5-2.1h-.2m.5-1.7l-.3 1.7m.5-4.7l-.2 3m.5-4l-.3 1m.5-.8l-.2-.2m.5-.3l-.3.5m.5-1.6l-.2 1.1m.5-1.2l-.3.1m.5-1.7l-.2 1.6m.5.2l-.3-1.8m.5-.1l-.2 1.9m.4-4.4l-.2 2.5m.5-2.6l-.3.1m.5-.5l-.2.4m.5-.4h-.3m.5-.7l-.2.7m.5-2.5l-.3 1.8m.5-2.3l-.2.5m.5-3l-.3 2.5m.5-2.8l-.2.3m.5 1.6l-.3-1.9m.5 1.7l-.2.2m.5-2.5l-.3 2.3m.5-4.4l-.2 2.1m.4-1.6l-.2-.5m.5 6.4l-.3-5.9m.5 6.3l-.2-.4m.5 3.8l-.3-3.4m.5 3.6l-.2-.2m.5-.2l-.3.4m.5 1.6l-.2-2m.5.9l-.3 1.1m.5-1.1h-.2m.5-1.6l-.3 1.6m.5 3.1l-.2-4.7m.5 3l-.3 1.7m.5.8l-.2-2.5m.4 3.5l-.2-1m.5.6l-.3.4m.5-2.6l-.2 2.2m.5-2.1l-.3-.1m.5-.2l-.2.3m.5.8l-.3-1.1m.5 1.8l-.2-.7m.5.2l-.3.5m.5-.6l-.2.1m.5-2.9l-.3 2.8m.5-2.7l-.2-.1m.5-2.2l-.3 2.3m.5-1.6l-.2-.7m.4.2l-.2.5m.5-2.4l-.3 1.9m.5 1.1l-.2-3m.5 1.7l-.3 1.3m.5-1.9l-.2.6m.5 1l-.3-1.6m.5 1.3l-.2.3m.5-1l-.3.7m.5 2.5l-.2-3.2m.5 5.2l-.3-2m.5 2.3l-.2-.3m.5-.4l-.3.7m.5-.7h-.2m.5 1.4l-.3-1.4m.5 1.5l-.2-.1m.4.6l-.2-.5m.5-2.6l-.3 3.1m.5-4l-.2.9m.5-.2l-.3-.7m.5 6.2l-.2-5.5m.5 5.3l-.3.2m.5 0l-.2-.2m.5-1.5l-.3 1.7m.5-1.1l-.2-.6m.5-2.1l-.3 2.7m.5-2.4l-.2-.3m.4-.7l-.2 1m.5-3.3l-.3 2.3m.5-1.7l-.2-.6m.5-.5l-.3 1.1m.5-.4l-.2-.7m.5 1.3l-.3-.6m.5 2l-.2-1.4m.5 2l-.3-.6m.5-.5l-.2 1.1m.5-2.4l-.3 1.3m.5-1.4l-.2.1m.5-2.1l-.3 2m.5-2.6l-.2.6m.5.3l-.3-.9m.5.9h-.2m.4 1.1l-.2-1.1m.5 1.4l-.3-.3m.5 1.7l-.2-1.4m.5 1.3l-.3.1m.5.7l-.2-.8m.5 0l-.3.8m.5-2.7l-.2 1.9m.5-1.8l-.3-.1m.5-.1l-.2.2m.5 2.1l-.3-2.3m.5 2.8l-.2-.5m.5.5h-.3m.5 1.8l-.2-1.8m.4 1.4l-.2.4m.5-2.2l-.3 1.8m.5-2.1l-.2.3m.5.4l-.3-.7m.5-.6l-.2 1.3m.5-2.8l-.3 1.5m.5-.8l-.2-.7m.5-.5l-.3 1.2m.5-1.7l-.2.5m.5-2.1l-.3 1.6m.5-1.9l-.2.3m.5-1.5l-.3 1.2m.5-.2l-.2-1m.4 1.2l-.2-.2m.5-.3l-.3.5m.5-1l-.2.5m.5 2.1l-.3-2.6m.5 2.8l-.2-.2m.5-.4l-.3.6m.5-1.3l-.2.7m.5-.1l-.3-.6m.5-1.4l-.2 2m.5-1.7l-.3-.3m.5-1.8l-.2 2.1m.5-1.2l-.3-.9m.5.7l-.2.2m.4-1.6l-.2 1.4m.5-1.8l-.3.4m.5.8l-.2-1.2m.5.9l-.3.3m.5-4.3l-.2 4m.5-4.1l-.3.1m.5.7l-.2-.8m.5-2.9l-.3 3.7m.5-4.2l-.2.5m.5.1l-.3-.6m.5.5l-.2.1m.5 1.1l-.3-1.2m.5 1.4l-.2-.2m.4 3.8l-.2-3.6m.5 4.6l-.3-1m.5 1.9l-.2-.9m.5-1.1l-.3 2m.5-3l-.2 1m.5-2.2l-.3 1.2m.5-1.3l-.2.1m.5-.5l-.3.4m.5-.6l-.2.2m.5-1.2l-.3 1m.5-.9l-.2-.1m.5 2l-.3-1.9m.5.5l-.2 1.4m.4-3.8l-.2 2.4m.5-1.9l-.3-.5m.5 1l-.2-.5m.5 2.1l-.3-1.6m.5.6l-.2 1m.5-.5l-.3-.5m.5-.9l-.2 1.4m.5-1.1l-.3-.3m.5-1.3l-.2 1.6m.5-3.1l-.3 1.5m.5 1.5l-.2-3m.5 2.1l-.3.9m.5-.6l-.2-.3m.5-.6l-.3.9m.5-2.1l-.2 1.2m.4.8l-.2-2m.5 1.6l-.3.4m.5-.5l-.2.1m.5 5l-.3-5.1m.5 3.7l-.2 1.4m.5-1.1l-.3-.3m.5 2.2l-.2-1.9m.5.8l-.3 1.1m.5-.5l-.2-.6m.5-1.2l-.3 1.8m.5.2l-.2-2m.5.1l-.3 1.9m.5-1.5l-.2-.4m.4.4h-.2m.5 1.7l-.3-1.7m.5 2.9l-.2-1.2m.5.2l-.3 1m.5-.3l-.2-.7m.5-.4l-.3 1.1m.5-.4l-.2-.7m.5 1.5l-.3-.8m.5 3.3l-.2-2.5m.5 2.3l-.3.2m.5-.6l-.2.4m.5-2.1l-.3 1.7m.5-1.7h-.2m.4-.5l-.2.5m.5-1.7l-.3 1.2m.5-1.1l-.2-.1m.5-1.1l-.3 1.2m.5-.8l-.2-.4m.5.1l-.3.3m.5.6l-.2-.9m.5-1l-.3 1.9m.5-2.1l-.2.2m.5-1.4l-.3 1.2m.5-1.2h-.2m.5-.6l-.3.6m.5-.8l-.2.2m.4.1l-.2-.3m.5.8l-.3-.5m.5-.2l-.2.7m.5-1.9l-.3 1.2m.5-.6l-.2-.6m.5.3l-.3.3m.5-.3h-.2m.5-1.1l-.3 1.1m.5-.9l-.2-.2m.5-.6l-.3.8m.5-.2l-.2-.6m.5.1l-.3.5m.5-1.1l-.2.6m.4-.6h-.2m.5 1.4l-.3-1.4m.5 1.1l-.2.3m.5-.2l-.3-.1m.5-2.7l-.2 2.8m.5-2.7l-.3-.1m.5-.7l-.2.8m.5-.7l-.3-.1m.5-.3l-.2.4m.5-1.4l-.3 1m.5-1.7l-.2.7m.5-.7h-.3m.5-.6l-.2.6m.4-.4l-.2-.2m.5-1.5l-.3 1.7m.5-1.8l-.2.1m.5 0l-.3-.1m.5-1l-.2 1.1m.5-.7l-.3-.4m.5-2.7l-.2 3.1m.5-4.1l-.3 1m.5.9l-.2-1.9m.5.3l-.3 1.6m.5-2.4l-.2.8m.5-.4l-.3-.4m.5-2.2l-.2 2.6m.4-3.7l-.2 1.1m.5.3l-.3-1.4m.5 1.3l-.2.1m.5 4.1l-.3-4.2m.5 2.9l-.2 1.3m.5 1.2l-.3-2.5m.5 2.1l-.2.4m.5-1.8l-.3 1.4m.5-1.4h-.2m.5 1.7l-.3-1.7m.5-.5l-.2 2.2m.5-4.1l-.3 1.9m.5-.9l-.2-1m.5.3l-.3.7m.5.4l-.2-1.1m.4-4.3l-.2 5.4m.5-5.5l-.3.1m.5-2l-.2 1.9m.5.5l-.3-2.4m.5.7l-.2 1.7m.5-2.3l-.3.6m.5 4.2l-.2-4.8m.5 5.9l-.3-1.1m.5 3.4l-.2-2.3m.5 2.7l-.3-.4m.5-1.6l-.2 2m.5-1.9l-.3-.1m.5-1.5l-.2 1.6m.4-2.9l-.2 1.3m.5-1l-.3-.3m.5.3h-.2m.5 1.2l-.3-1.2m.5.9l-.2.3m.5-2.4l-.3 2.1m.5-2.4l-.2.3m.5 0l-.3-.3m.5-3.3l-.2 3.6m.5-4.6l-.3 1m.5 1.6l-.2-2.6m.5 4.9l-.3-2.3m.5 1.6l-.2.7m.4-.5l-.2-.2m.5-.7l-.3.9m.5-1.2l-.2.3m.5 1.7l-.3-2m.5 3.2l-.2-1.2m.5.6l-.3.6m.5-1.8l-.2 1.2m.5-1.3l-.3.1m.5 0l-.2-.1m.5.6l-.3-.5m.5 0l-.2.5m.5-.4l-.3-.1m.5-2.6l-.2 2.7m.4-3.2l-.2.5m.5.2l-.3-.7m.5-1.1l-.2 1.8m.5-1.1l-.3-.7m.5 4.7l-.2-4m.5 4.4l-.3-.4m.5 1.1l-.2-.7m.5 1l-.3-.3m.5-.4l-.2.7m.5-1.6l-.3.9m.5-1.4l-.2.5m.5 1l-.3-1.5m.5 2.9l-.2-1.4m.4 1.3l-.2.1m.5-.7l-.3.6m.5-.9l-.2.3m.5 2.7l-.3-3m.5 3.4l-.2-.4m.5 1.3l-.3-.9m.5 1l-.2-.1m.5-1.3l-.3 1.4m.5 2.7l-.2-4.1m.5 1.2l-.3 2.9m.5-2.5l-.2-.4m.5-.6l-.3 1m.5-.6l-.2-.4m.4-1.5l-.2 1.9m.5-1.4l-.3-.5m.5.5h-.2m.5-1.8l-.3 1.8m.5-1.7l-.2-.1m.5.2l-.3-.1m.5.8l-.2-.7m.5 0l-.3.7m.5-2.1l-.2 1.4m.5-1.5l-.3.1m.5-1.2l-.2 1.1m.5-1.5l-.3.4m.5-2.7l-.2 2.3m.5-1.3l-.3-1m.5-.5l-.2 1.5m.4-.3l-.2-1.2m.5.2l-.3 1m.5-1.3l-.2.3m.5-3l-.3 2.7m.5-2.8l-.2.1m.5 2.1l-.3-2.2m.5.7l-.2 1.5m.5-2l-.3.5m.5 0l-.2-.5m.5.4l-.3.1m.5 1.9l-.2-2m.5 1.5l-.3.5m.5-1.7l-.2 1.2m.4 2.7l-.2-3.9m.5 3.3l-.3.6m.5-1l-.2.4m.5-2.2l-.3 1.8"/><path d="M185.6 149l-.2.9m.5-1.2l-.3.3m.5-1.3l-.2 1m.5-.2l-.3-.8m.5.9l-.2-.1m.5 1.3l-.3-1.2m.5 1.4l-.2-.2m.5-.6l-.3.8m.5-1.6l-.2.8m.4-.5l-.2-.3m.5-.8l-.3 1.1m.5-2.7l-.2 1.6m.5-2.4l-.3.8m.5-.7l-.2-.1m.5-1.9l-.3 2m.5-.8l-.2-1.2m.5 2.3l-.3-1.1m.5.6l-.2.5m.5-2.3l-.3 1.8m.5-3.2l-.2 1.4m.5-2.7l-.3 1.3m.5-1l-.2-.3m.4-.6l-.2.9m.5-1.1l-.3.2m.5-.9l-.2.7m.5-.4l-.3-.3m.5.1l-.2.2m.5-2.5l-.3 2.3m.5-3.3l-.2 1m.5-4.5l-.3 3.5m.5-1.2l-.2-2.3m.5 3.3l-.3-1m.5 3.5l-.2-2.5m.5 7.7l-.3-5.2m.5 2.5l-.2 2.7m.4-4.9l-.2 2.2m.5-2.5l-.3.3m.5 1.6l-.2-1.9m.5 1.6l-.3.3m.5.7l-.2-1m.5 1.5l-.3-.5m.5 1.1l-.2-.6m.5-.7l-.3 1.3m.5-.9l-.2-.4m.5-1.9l-.3 2.3m.5-3l-.2.7m.5-1.6l-.3.9m.5-.8l-.2-.1m.4.8l-.2-.7m.5-1.3l-.3 2m.5-2.4l-.2.4m.5.1l-.3-.5m.5-.3l-.2.8m.5.2l-.3-1m.5 0l-.2 1m.5-1.2l-.3.2m.5-.4l-.2.2m.5.8l-.3-1m.5.2l-.2.8m.5.7l-.3-1.5m.5 3.3l-.2-1.8m.4.9l-.2.9m.5-1.9l-.3 1m.5-.8l-.2-.2m.5-1l-.3 1.2m.5-1.3l-.2.1m.5-.8l-.3.7m.5-.8l-.2.1m.5 3.2l-.3-3.3m.5 5.5l-.2-2.2m.5 2.8l-.3-.6m.5 0l-.2.6m.5-1.9l-.3 1.3m.5.1l-.2-1.4m.5 3.2l-.3-1.8m.5.5l-.2 1.3m.4-3.7l-.2 2.4m.5-3.9l-.3 1.5m.5-1.8l-.2.3m.5-1.7l-.3 1.4m.5-2.8l-.2 1.4m.5-2.8l-.3 1.4m.5-3.4l-.2 2m.5-2.6l-.3.6m.5-1.2l-.2.6m.5-2l-.3 1.4m.5.5l-.2-1.9m.5.4l-.3 1.5m.5 0l-.2-1.5m.4.4l-.2 1.1m.5-3.1l-.3 2m.5-2.6l-.2.6m.5.1l-.3-.7m.5.3l-.2.4m.5-1.6l-.3 1.2m.5-.2l-.2-1m.5-3.9l-.3 4.9m.5-5.1l-.2.2m.5 1.3l-.3-1.5m.5-.5l-.2 2m.5-8.2l-.3 6.2m.5-9.4l-.2 3.2m.4-9.3l-.2 6.1m.5-2.7l-.3-3.4m.5 5.8l-.2-2.4m.5.1l-.3 2.3m.5-4.7l-.2 2.4m.5-2.8l-.3.4m.5-4.7l-.2 4.3m.5-7.6l-.3 3.3m.5-8.7l-.2 5.4m.5 2.6l-.3-8m.5 17.5l-.2-9.5m.5 7.1l-.3 2.4m.5-9.3l-.2 6.9m.4-2l-.2-4.9m.5-.7l-.3 5.6m.5-4.3l-.2-1.3m.5 1.2l-.3.1m.5-7.2l-.2 7.1m.5-9l-.3 1.9m.5 1.3l-.2-3.2m.5 9.9l-.3-6.7m.5.5l-.2 6.2m.5-4.9l-.3-1.3m.5 6.6l-.2-5.3m.5 2.9l-.3 2.4m.5-.7l-.2-1.7m.4 5.4l-.2-3.7m.5 1l-.3 2.7m.5 1.3l-.2-4m.5.9l-.3 3.1m.5-.5l-.2-2.6m.5 8.1l-.3-5.5m.5 15.1l-.2-9.6m.5 13l-.3-3.4m.5.7l-.2 2.7m.5 2.3l-.3-5m.5 4.3l-.2.7m.5-1.8l-.3 1.1m.5-5.5l-.2 4.4m.4-.1l-.2-4.3m.5 2.3l-.3 2m.5-3.1l-.2 1.1m.5.2l-.3-1.3m.5-3l-.2 4.3m.5-2.8l-.3-1.5m.5-.2l-.2 1.7m.5-.5l-.3-1.2m.5-.3l-.2 1.5m.5-.3l-.3-1.2m.5 3l-.2-1.8m.5 3.3l-.3-1.5m.5 4.2l-.2-2.7m.5.1l-.3 2.6m.5-4l-.2 1.4m.4-7.5l-.2 6.1m.5-8.6l-.3 2.5m.5-4.9l-.2 2.4m.5-2.2l-.3-.2m.5 3.7l-.2-3.5m.5 2.9l-.3.6m.5-2.6l-.2 2m.5-5.3l-.3 3.3m.5-2.2l-.2-1.1m.5-3.9l-.3 5m.5-3.8l-.2-1.2m.5 2.8l-.3-1.6m.5 3.2l-.2-1.6m.4-2l-.2 3.6m.5-2.7l-.3-.9m.5.9h-.2m.5 2.3l-.3-2.3m.5 7.4l-.2-5.1m.5 4.7l-.3.4m.5 4.6l-.2-5m.5 2.8l-.3 2.2m.5-1.4l-.2-.8m.5.6l-.3.2m.5 1.5l-.2-1.7m.5-2.1l-.3 3.8m.5-4.3l-.2.5m.4-4l-.2 3.5m.5-3.4l-.3-.1m.5.1h-.2m.5 2.8l-.3-2.8m.5 2l-.2.8m.5-2.5l-.3 1.7m.5 2.3l-.2-4m.5 3.7l-.3.3m.5 5.1l-.2-5.4m.5 9.5l-.3-4.1m.5 10.9l-.2-6.8m.5 7.4l-.3-.6m.5-2.7l-.2 3.3m.4-2.9l-.2-.4m.5-2.1l-.3 2.5m.5-2.5h-.2m.5 1.3l-.3-1.3m.5 1.1l-.2.2m.5-.1l-.3-.1m.5 1.6l-.2-1.5m.5 6.3l-.3-4.8m.5 5.5l-.2-.7m.5-1.4l-.3 2.1m.5-2.3l-.2.2m.5-4.8l-.3 4.6m.5-5.5l-.2.9m.4-2.2l-.2 1.3m.5-.6l-.3-.7m.5 1.3l-.2-.6m.5-1.7l-.3 2.3m.5-3.6l-.2 1.3m.5-2.3l-.3 1m.5.3l-.2-1.3m.5.8l-.3.5m.5-1.5l-.2 1m.5-2.1l-.3 1.1m.5-.7l-.2-.4m.5-.7l-.3 1.1m.5-2.3l-.2 1.2m.4.2l-.2-1.4m.5-4.2l-.3 5.6m.5-6.7l-.2 1.1m.5-3.2l-.3 2.1m.5-1.1l-.2-1m.5-.1l-.3 1.1m.5-1.5l-.2.4m.5-2.4l-.3 2m.5 2.1l-.2-4.1m.5 4.7l-.3-.6m.5-2.5l-.2 3.1m.5-1.6l-.3-1.5m.5 2l-.2-.5m.4 1.7l-.2-1.2m.5.9l-.3.3m.5-.1l-.2-.2m.5-.8l-.3 1m.5-1h-.2m.5.8l-.3-.8m.5-.6l-.2 1.4m.5-4.5l-.3 3.1m.5-5.3l-.2 2.2m.5-2.5l-.3.3m.5.5l-.2-.8m.5 1.7l-.3-.9m.5-1.4l-.2 2.3m.5 8.5l-.3-10.8m.5 8.3l-.2 2.5m.4-2.1l-.2-.4m.5 1.1l-.3-.7m.5 4.6l-.2-3.9m.5 2.7l-.3 1.2m.5-3.2l-.2 2m.5-3.4l-.3 1.4m.5.1l-.2-1.5m.5 4.5l-.3-3m.5 6.9l-.2-3.9m.5 2l-.3 1.9m.5-2.1l-.2.2m.5-.5l-.3.3m.5 1.4l-.2-1.7m.4 1.5l-.2.2m.5.6l-.3-.8m.5-1.4l-.2 2.2m.5-5.6l-.3 3.4m.5-2.2l-.2-1.2m.5 3.4l-.3-2.2m.5 2.3l-.2-.1m.5-.8l-.3.9m.5-2l-.2 1.1m.5 2.8l-.3-3.9m.5 6.9l-.2-3m.5 1.7l-.3 1.3m.5-2.2l-.2.9m.4-1.2l-.2.3m.5-2.6l-.3 2.3m.5-2l-.2-.3m.5-1.8l-.3 2.1m.5-.1l-.2-2m.5 2.8l-.3-.8m.5 1.1l-.2-.3m.5 1.4l-.3-1.1m.5.9l-.2.2m.5-.3l-.3.1m.5.6l-.2-.7m.5.2l-.3.5m.5-.9l-.2.4m.4-1.7l-.2 1.3m.5-2.1l-.3.8m.5-1.1l-.2.3m.5.2l-.3-.5m.5 1.3l-.2-.8m.5 2.9l-.3-2.1m.5 1.3l-.2.8m.5-.2l-.3-.6m.5 4.5l-.2-3.9m.5 5.8l-.3-1.9m.5 1.4l-.2.5m.5 1.1l-.3-1.6m.5 4.4l-.2-2.8m.4 4.3l-.2-1.5m.5 2.2l-.3-.7m.5-3.4l-.2 4.1m.5-6.5l-.3 2.4m.5-2.2l-.2-.2m.5 3l-.3-2.8m.5 3.6l-.2-.8m.5 1.2l-.3-.4m.5-1.5l-.2 1.9m.5-1.9h-.3m.5 2.1l-.2-2.1m.5 1.3l-.3.8m.5-.4l-.2-.4m.4-7.6l-.2 8m.5-6.9l-.3-1.1m.5 1.1h-.2m.5-.4l-.3.4m.5 3.3l-.2-3.7m.5 3.1l-.3.6m.5-.9l-.2.3m.5-1.9l-.3 1.6m.5-2.6l-.2 1m.5-1.6l-.3.6m.5-1l-.2.4m.5-.6l-.3.2m.5 1.1l-.2-1.3m.5 2.7l-.3-1.4m.5 6.3l-.2-4.9m.4 4.1l-.2.8m.5-2.3l-.3 1.5m.5 0l-.2-1.5m.5 1.2l-.3.3m.5 2.4l-.2-2.7m.5-2.9l-.3 5.6m.5-5.3l-.2-.3m.5-2l-.3 2.3m.5-2.4l-.2.1m.5 1.4l-.3-1.5m.5 4l-.2-2.5m.5 2l-.3.5m.5 2.1l-.2-2.6m.4 1.2l-.2 1.4m.5-.9l-.3-.5m.5-1.5l-.2 2m.5-2h-.3m.5.9l-.2-.9m.5 2l-.3-1.1m.5.1l-.2 1m.5-1.3l-.3.3m.5.6l-.2-.9m.5.4l-.3.5m.5-3.4l-.2 2.9m.5-4.3l-.3 1.4m.5-2.3l-.2.9m.4-.6l-.2-.3m.5 1.2l-.3-.9m.5 2.6l-.2-1.7m.5 2.8l-.3-1.1m.5-.6l-.2 1.7m.5-2.5l-.3.8m.5-.8h-.2m.5-.1l-.3.1m.5-.8l-.2.7m.5-1l-.3.3m.5.9l-.2-1.2m.5 2.6l-.3-1.4m.5.8l-.2.6m.4-2l-.2 1.4m.5-1.5l-.3.1m.5-.7l-.2.6m.5-2.7l-.3 2.1m.5-3.9l-.2 1.8m.5-3.8l-.3 2m.5-2h-.2m.5.7l-.3-.7m.5.4l-.2.3m.5 1l-.3-1.3m.5 1.3h-.2m.5-4.2l-.3 4.2m.5-4.3l-.2.1m.4-.5l-.2.4m.5-.2l-.3-.2m.5-.7l-.2.9m.5-5.1l-.3 4.2m.5-2.9l-.2-1.3m.5.5l-.3.8m.5-.7l-.2-.1m.5-4.2l-.3 4.3m.5-4.9l-.2.6m.5.7l-.3-1.3m.5.1l-.2 1.2m.5-1l-.3-.2m.5.6l-.2-.4m.4-.4l-.2.8m.5.2l-.3-1m.5 1.5l-.2-.5m.5 1.5l-.3-1m.5-2.1l-.2 3.1m.5-2.3l-.3-.8m.5.4l-.2.4m.5-.8l-.3.4m.5-.5l-.2.1m.5-1.3l-.3 1.2m.5-.3l-.2-.9m.5 1.7l-.3-.8m.5 2.1l-.2-1.3m.4 1.5l-.2-.2m.5-.6l-.3.8m.5.9l-.2-1.7m.5 3.9l-.3-2.2m.5.8l-.2 1.4m.5-1.7l-.3.3m.5.8l-.2-1.1m.5 3.5l-.3-2.4m.5 1.4l-.2 1m.5 1.5l-.3-2.5m.5 3.2l-.2-.7m.5-.4l-.3 1.1m.5-1l-.2-.1m.5.3l-.3-.2m.5.2h-.2m.4-1.3l-.2 1.3m.5-.6l-.3-.7m.5 5.1l-.2-4.4m.5 3.6l-.3.8m.5-4.6l-.2 3.8m.5-3.9l-.3.1m.5-1.7l-.2 1.6m.5-1.7l-.3.1m.5.3l-.2-.4m.5.7l-.3-.3m.5.2l-.2.1m.5 1.2l-.3-1.3m.5 1.5l-.2-.2m.4-2l-.2 2.2m.5-1.8l-.3-.4m.5.4h-.2m.5-.1l-.3.1m.5-2.9l-.2 2.8m.5-2.3l-.3-.5m.5 1.3l-.2-.8m.5 3.5l-.3-2.7m.5 2l-.2.7m.5.6l-.3-1.3m.5 1.2l-.2.1m.5 2.1l-.3-2.2m.5 2.6l-.2-.4m.4-.3l-.2.7m.5-1.2l-.3.5m.5-1.3l-.2.8m.5-.8h-.3m.5-.2l-.2.2m.5 1.6l-.3-1.8m.5 2l-.2-.2m.5-.1l-.3.3m.5 3l-.2-3.3m.5 3.7l-.3-.4m.5 2.7l-.2-2.3m.5 1.2l-.3 1.1m.5-1.2l-.2.1m.4-.2l-.2.1m.5-.3l-.3.2m.5-.6l-.2.4m.5.6l-.3-1m.5-1.4l-.2 2.4m.5-2.4h-.3m.5-1.4l-.2 1.4m.5 1.4l-.3-2.8m.5 3.6l-.2-.8m.5 2l-.3-1.2m.5-.3l-.2 1.5m.5-1.3l-.3-.2m.5-1.9l-.2 2.1m.4-.6l-.2-1.5m.5 1l-.3.5m.5-1.9l-.2 1.4m.5-1.5l-.3.1m.5-1.1l-.2 1m.5-.5l-.3-.5m.5-.3l-.2.8m.5-1l-.3.2m.5.6l-.2-.8m.5 2.9l-.3-2.1m.5 3.2l-.2-1.1m.5 1.5l-.3-.4m.5-.6l-.2 1m.4-2.6l-.2 1.6m.5 0l-.3-1.6m.5 1.2l-.2.4m.5-1.3l-.3.9m.5-.7l-.2-.2m.5-.4l-.3.6m.5.2l-.2-.8m.5 1.2l-.3-.4m.5 2.5l-.2-2.1m.5 2l-.3.1m.5.9l-.2-1m.5 1.9l-.3-.9m.5 4l-.2-3.1m.4 3l-.2.1m.5.6l-.3-.7m.5 5.7l-.2-5m.5 3.4l-.3 1.6m.5-2.2l-.2.6m.5-2.2l-.3 1.6m.5-3.9l-.2 2.3m.5-.4l-.3-1.9m.5 4l-.2-2.1m.5 2.7l-.3-.6m.5.8l-.2-.2m.5-.1l-.3.3"/><path d="M311.7 130.1l-.2.9m.5-.4l-.3-.5m.5.6l-.2-.1m.4-.2l-.2.3m.5-1.7l-.3 1.4m.5-.8l-.2-.6m.5.3l-.3.3m.5-.6l-.2.3m.5-1.8l-.3 1.5m.5-2.5l-.2 1m.5-.1l-.3-.9m.5-.1l-.2 1m.5-.3l-.3-.7m.5 1.1l-.2-.4m.5 1.1l-.3-.7m.5 0l-.2.7m.4.3l-.2-1m.5.7l-.3.3m.5 2.5l-.2-2.8m.5 5l-.3-2.2m.5 2.7l-.2-.5m.5-2.9l-.3 3.4m.5-2.4l-.2-1m.5-.4l-.3 1.4m.5 1.8l-.2-3.2m.5 2.9l-.3.3m.5 9.5l-.2-9.8m.5 24.9l-.3-15.1m.5 13.3l-.2 1.8m.4-2.9l-.2 1.1m.5-2.8l-.3 1.7m.5-3.2l-.2 1.5m.5-4.1l-.3 2.6m.5-1l-.2-1.6m.5-.7l-.3 2.3m.5-6.6l-.2 4.3m.5-3.8l-.3-.5m.5-1.1l-.2 1.6m.5-1.7l-.3.1m.5 2.3l-.2-2.4m.5 1.3l-.3 1.1m.5-1.6l-.2.5m.4-.3l-.2-.2m.5 2.2l-.3-2m.5-.4l-.2 2.4m.5-.7l-.3-1.7m.5 2.9l-.2-1.2m.5 3.3l-.3-2.1m.5 2.7l-.2-.6m.5 4.5l-.3-3.9m.5 4.7l-.2-.8m.5 4.1l-.3-3.3m.5-.9l-.2 4.2m.5-2l-.3-2.2m.5 3l-.2-.8m.4-1.9l-.2 2.7m.5-2l-.3-.7m.5-.4l-.2 1.1m.5.6l-.3-1.7m.5.2l-.2 1.5m.5-4l-.3 2.5m.5.7l-.2-3.2m.5.3l-.3 2.9m.5-1.5l-.2-1.4m.5 1l-.3.4m.5-1.7l-.2 1.3m.5 2.2l-.3-3.5m.5 3.2l-.2.3m.4.6l-.2-.9m.5-.1l-.3 1m.5-.7l-.2-.3m.5-.3l-.3.6m.5.1l-.2-.7m.5 2.7l-.3-2m.5 4l-.2-2m.5 10.8l-.3-8.8m.5 6.5l-.2 2.3m.5-.5l-.3-1.8m.5 2.4l-.2-.6m.5 6.8l-.3-6.2m.5 9.2l-.2-3m.4-1l-.2 4m.5-6.3l-.3 2.3m.5-1l-.2-1.3m.5.1l-.3 1.2m.5-.9l-.2-.3m.5 3.4l-.3-3.1m.5 1.6l-.2 1.5m.5-3.1l-.3 1.6m.5-3.3l-.2 1.7m.5-4.3l-.3 2.6m.5-2.5l-.2-.1m.5.4l-.3-.3m.5-.9l-.2 1.2m.5.7l-.3-1.9m.5.9l-.2 1m.4-2.4l-.2 1.4m.5-6.1l-.3 4.7m.5-6.2l-.2 1.5m.5 1.7l-.3-3.2m.5 1.7l-.2 1.5m.5-1.5h-.3m.5.8l-.2-.8m.5.8h-.3m.5.5l-.2-.5m.5 2.1l-.3-1.6m.5 1.3l-.2.3m.5.7l-.3-1m.5 3.6l-.2-2.6m.4 1.9l-.2.7m.5-3.6l-.3 2.9m.5-3.2l-.2.3m.5-2.9l-.3 2.6m.5-.8l-.2-1.8m.5.2l-.3 1.6m.5-5.4l-.2 3.8m.5-5l-.3 1.2m.5.1l-.2-1.3m.5.6l-.3.7m.5-.1l-.2-.6m.5-.5l-.3 1.1m.5-3.6l-.2 2.5m.4-3.5l-.2 1m.5-2.4l-.3 1.4m.5-1.6l-.2.2m.5 1l-.3-1.2m.5 2.6l-.2-1.4m.5 1.6l-.3-.2m.5-1.9l-.2 2.1m.5.4l-.3-2.5m.5 5.4l-.2-2.9m.5 0l-.3 2.9m.5-2.3l-.2-.6m.5 3.3l-.3-2.7m.5 2.4l-.2.3m.4 5.2l-.2-5.5m.5 4.8l-.3.7m.5.8l-.2-1.5m.5 2l-.3-.5m.5-6.1l-.2 6.6m.5-6.6h-.3m.5 4.7l-.2-4.7m.5 5.1l-.3-.4m.5.3l-.2.1m.5-1.4l-.3 1.3m.5-.1l-.2-1.2m.5-.3l-.3 1.5m.5-.4l-.2-1.1m.4 6l-.2-4.9m.5 1.4l-.3 3.5m.5-3.7l-.2.2m.5.5l-.3-.7m.5-.5l-.2 1.2m.5-.9l-.3-.3m.5 1.7l-.2-1.4m.5 3.9l-.3-2.5m.5 4.1l-.2-1.6m.5 1.6h-.3m.5-.9l-.2.9m.5-1l-.3.1m.5-4.7l-.2 4.6m.4-4.2l-.2-.4m.5.5l-.3-.1m.5-2.9l-.2 3m.5-2l-.3-1m.5-.8l-.2 1.8m.5-2.4l-.3.6m.5-.6h-.2m.5 1l-.3-1m.5 1.1l-.2-.1m.5 2.4l-.3-2.3m.5 3.3l-.2-1m.5 1.1l-.3-.1m.5.5l-.2-.4m.5-.4l-.3.8m.5.4l-.2-1.2m.4 3.6l-.2-2.4m.5 3l-.3-.6m.5 2.4l-.2-1.8m.5.5l-.3 1.3m.5-2.3l-.2 1m.5-1.4l-.3.4m.5 1.5l-.2-1.9m.5 1.8l-.3.1m.5 3.8l-.2-3.9m.5 3.9h-.3m.5-.1l-.2.1m.5-1.2l-.3 1.1m.5 0l-.2-1.1m.4 1.9l-.2-.8m.5 0l-.3.8m.5-1.8l-.2 1m.5 2.8l-.3-3.8m.5 3.4l-.2.4m.5-2.8l-.3 2.4m.5-.1l-.2-2.3m.5 1.8l-.3.5m.5-2l-.2 1.5m.5-3.8l-.3 2.3m.5-1.3l-.2-1m.5 4.4l-.3-3.4m.5 1.7l-.2 1.7m.4-2l-.2.3m.5.9l-.3-1.2m.5 2.7l-.2-1.5m.5 4.8l-.3-3.3m.5 1.8l-.2 1.5m.5-1.1l-.3-.4m.5-.1l-.2.5m.5-.6l-.3.1m.5-.9l-.2.8m.5-1.1l-.3.3m.5 1.8l-.2-2.1m.5 1l-.3 1.1m.5-1.2l-.2.1m.4-2.4l-.2 2.3m.5-3.7l-.3 1.4m.5-1.5l-.2.1m.5.6l-.3-.7m.5 1.4l-.2-.7m.5.5l-.3.2m.5-2.5l-.2 2.3m.5-3.1l-.3.8m.5.2l-.2-1m.5 1.4l-.3-.4m.5.3l-.2.1m.5-1.4l-.3 1.3m.5-1.3h-.2m.4 1.5l-.2-1.5m.5 2.1l-.3-.6m.5-2.8l-.2 3.4m.5-3.9l-.3.5m.5.9l-.2-1.4m.5 1.5l-.3-.1m.5-1.3l-.2 1.4m.5 1.5l-.3-2.9m.5 2.9h-.2m.5-1.7l-.3 1.7m.5-1.4l-.2-.3m.5 0l-.3.3m.5-.3h-.2m.4-1.1l-.2 1.1m.5-2l-.3.9m.5-3l-.2 2.1m.5-2l-.3-.1m.5-1.3l-.2 1.4m.5-3.3l-.3 1.9m.5-3.1l-.2 1.2m.5-.3l-.3-.9m.5 2l-.2-1.1m.5-.2l-.3 1.3m.5-1.4l-.2.1m.5-1.7l-.3 1.6m.5-2l-.2.4m.5.7l-.3-1.1m.5 1.1h-.2m.4.6l-.2-.6m.5-2.3l-.3 2.9m.5-1l-.2-1.9m.5 1.6l-.3.3m.5-2l-.2 1.7m.5-.4l-.3-1.3m.5 1.5l-.2-.2m.5-1.1l-.3 1.3m.5-3.4l-.2 2.1m.5-2.5l-.3.4m.5-1.8l-.2 1.4m.5.5l-.3-1.9m.5 3.1l-.2-1.2m.4 4.2l-.2-3m.5 3.4l-.3-.4m.5-.4l-.2.8m.5 2.2l-.3-3m.5 2.9l-.2.1m.5.7l-.3-.8m.5 2.3l-.2-1.5m.5 1.2l-.3.3m.5.9l-.2-1.2m.5 1.7l-.3-.5m.5-.7l-.2 1.2m.5-.9l-.3-.3m.5-1.6l-.2 1.9m.4-1.1l-.2-.8m.5-.7l-.3 1.5m.5-1.9l-.2.4m.5-1.2l-.3.8m.5-.8h-.2m.5-.9l-.3.9m.5 2l-.2-2.9m.5 2.8l-.3.1m.5.9l-.2-1m.5 1.1l-.3-.1m.5.6l-.2-.5m.5 1.2l-.3-.7m.5.7h-.2m.4-1.2l-.2 1.2m.5-2.3l-.3 1.1m.5-.3l-.2-.8m.5.8h-.3m.5.5l-.2-.5m.5 1.5l-.3-1m.5-1l-.2 2m.5-3.1l-.3 1.1m.5-.8l-.2-.3m.5 2.4l-.3-2.1m.5 2.1h-.2m.5 0h-.3m.5-.7l-.2.7m.4-.4l-.2-.3m.5-1.2l-.3 1.5m.5-.4l-.2-1.1m.5 1.4l-.3-.3m.5.5l-.2-.2m.5-.1l-.3.3m.5 0l-.2-.3m.5.1l-.3.2m.5-.1l-.2-.1m.5.1h-.3m.5 3.5l-.2-3.5m.5 4.1l-.3-.6m.5.9l-.2-.3m.4.9l-.2-.6m.5 1.4l-.3-.8m.5.8h-.2m.5.2l-.3-.2m.5-1.1l-.2 1.3m.5-1.2l-.3-.1m.5.2l-.2-.1m.5-1l-.3 1.1m.5-1l-.2-.1m.5-1.4l-.3 1.5m.5-2l-.2.5m.5.1l-.3-.6m.5.7l-.2-.1m.4-.7l-.2.8m.5-5.9l-.3 5.1m.5-4.4l-.2-.7m.5.3l-.3.4m.5-.4h-.2m.5-.2l-.3.2m.5 0l-.2-.2m.5.5l-.3-.3m.5-1.2l-.2 1.5m.5-1.2l-.3-.3m.5 0l-.2.3m.5.7l-.3-1m.5.9l-.2.1m.5-.1h-.3m.5.2l-.2-.2m.4-.7l-.2.9m.5-2l-.3 1.1m.5-1.4l-.2.3m.5 3.4l-.3-3.7m.5 5.2l-.2-1.5m.5.9l-.3.6m.5-2.8l-.2 2.2m.5-1.4l-.3-.8m.5.7l-.2.1m.5.5l-.3-.6m.5.9l-.2-.3m.5 1.6l-.3-1.3m.5-.4l-.2 1.7m.4-1.3l-.2-.4m.5 1.1l-.3-.7m.5 1.1l-.2-.4m.5 1.9l-.3-1.5m.5.2l-.2 1.3m.5-.7l-.3-.6m.5.7l-.2-.1m.5-2.1l-.3 2.2m.5-3.1l-.2.9m.5-.4l-.3-.5m.5.7l-.2-.2m.5.1l-.3.1m.5-.6l-.2.5m.4-.5h-.2m.5 1l-.3-1m.5 1.8l-.2-.8m.5 1.1l-.3-.3m.5.7l-.2-.4m.5 2.2l-.3-1.8m.5 1.3l-.2.5m.5 0l-.3-.5m.5 0l-.2.5m.5-.7l-.3.2m.5-1.1l-.2.9m.5-.5l-.3-.4m.5.4h-.2m.4 2.5l-.2-2.5m.5 2.2l-.3.3m.5.6l-.2-.9m.5 0l-.3.9m.5.6l-.2-1.5m.5 1.5h-.3m.5.9l-.2-.9m.5 1.8l-.3-.9m.5 2.4l-.2-1.5m.5 1l-.3.5m.5-.8l-.2.3m.5 1.1l-.3-1.4m.5 1.2l-.2.2m.4.8l-.2-1m.5 1.2l-.3-.2m.5-.7l-.2.9m.5-.2l-.3-.7m.5 0l-.2.7m.5-.3l-.3-.4m.5.8l-.2-.4m.5 1.2l-.3-.8m.5.3l-.2.5m.5-.5h-.3m.5 2.7l-.2-2.7m.5.8l-.3 1.9m.5-2.2l-.2.3m.4-1.8l-.2 1.5m.5-1.8l-.3.3m.5-.2l-.2-.1m.5-1.5l-.3 1.6m.5-1.1l-.2-.5m.5-.5l-.3 1m.5-.8l-.2-.2m.5.4l-.3-.2m.5-.8l-.2 1m.5-1.4l-.3.4m.5.6l-.2-1m.5 2.1l-.3-1.1m.5 1.2l-.2-.1m.5.8l-.3-.7m.5.4l-.2.3m.4 1.6l-.2-1.9m.5 3.4l-.3-1.5m.5 4.5l-.2-3m.5 4.1l-.3-1.1m.5.7l-.2.4m.5 2.8l-.3-3.2m.5 3.3l-.2-.1m.5-4.2l-.3 4.3m.5-1.1l-.2-3.2m.5 1.4l-.3 1.8m.5-1.3l-.2-.5m.5.4l-.3.1m.5-3.3l-.2 3.2m.4-3l-.2-.2m.5-1.1l-.3 1.3m.5.4l-.2-1.7m.5.5l-.3 1.2m.5-2.1l-.2.9m.5-.5l-.3-.4m.5 0l-.2.4m.5 0l-.3-.4m.5 1.1l-.2-.7m.5 3.6l-.3-2.9m.5-2.3l-.2 5.2m.5-3.7l-.3-1.5m.5.2l-.2 1.3m.4-.9l-.2-.4m.5 2.1l-.3-1.7m.5.3l-.2 1.4m.5-4.7l-.3 3.3m.5-2.8l-.2-.5m.5.4l-.3.1m.5.5l-.2-.6m.5 4.2l-.3-3.6m.5 3.1l-.2.5m.5.5l-.3-1m.5-.1l-.2 1.1m.5-.9l-.3-.2m.5 2.7l-.2-2.5m.4 2.5h-.2m.5.2l-.3-.2m.5-2.4l-.2 2.6m.5-1.1l-.3-1.5m.5-.6l-.2 2.1m.5-.1l-.3-2m.5 2.2l-.2-.2m.5-.7l-.3.9m.5-2.7l-.2 1.8m.5-3.5l-.3 1.7m.5-.7l-.2-1m.5 1.1l-.3-.1m.5-1.5l-.2 1.6m.4-2.9l-.2 1.3m.5-1l-.3-.3m.5.4l-.2-.1m.5-3.6l-.3 3.7m.5-6l-.2 2.3m.5-1.9l-.3-.4m.5-1.6l-.2 2m.5-2h-.3m.5-.9l-.2.9m.5-.1l-.3-.8m.5 2.4l-.2-1.6m.5.2l-.3 1.4m.5-.4l-.2-1m.4 4.3l-.2-3.3m.5.2l-.3 3.1m.5-2.2l-.2-.9m.5 2.7l-.3-1.8m.5.6l-.2 1.2m.5-.5l-.3-.7m.5 4.4l-.2-3.7m.5 3l-.3.7m.5-.1l-.2-.6m.5 2.4l-.3-1.8m.5 1.4l-.2.4m.5-1.2l-.3.8m.5-1l-.2.2m.4 2.4l-.2-2.6m.5 2.2l-.3.4m.5.2l-.2-.6m.5 1.3l-.3-.7m.5.7h-.2m.5.2l-.3-.2m.5-.3l-.2.5m.5-1l-.3.5m.5-1l-.2.5m.5.2l-.3-.7m.5 1.1l-.2-.4m.5.8l-.3-.4m.5.6l-.2-.2m.5 4l-.3-3.8m.5 3.8h-.2m.4.6l-.2-.6m.5 1.5l-.3-.9m.5 1l-.2-.1m.5-.6l-.3.7m.5-.1l-.2-.6m.5 1.2l-.3-.6m.5-1.5l-.2 2.1m.5-2.6l-.3.5m.5-1.9l-.2 1.4m.5-2.2l-.3.8m.5-1.2l-.2.4m.5-.7l-.3.3m.5-1.4l-.2 1.1m.4-.5l-.2-.6m.5 2.2l-.3-1.6m.5 1.9l-.2-.3m.5-2.2l-.3 2.5m.5-2.2l-.2-.3m.5-.7l-.3 1m.5-1.5l-.2.5m.5.2l-.3-.7m.5 1.4l-.2-.7m.5 1.6l-.3-.9m.5-.6l-.2 1.5m.5-.4l-.3-1.1m.5 1.7l-.2-.6m.4-.4l-.2 1m.5-.5l-.3-.5m.5-.3l-.2.8m.5.1l-.3-.9m.5.7l-.2.2"/></g></g><defs><path id="B" d="M165.7-56.5l1.7-.3v-14l-1.7-.4v-1.5l4.4-.6.3.2v1.2h.1c.9-.7 2.2-1.4 3.9-1.4 2.4 0 4.9 1.3 4.9 6.3s-2.7 7.3-6.6 7.3c-1 0-1.6 0-2.2-.2v3.1l2 .4v1.3h-6.8v-1.4zm10.4-10.1c0-3.3-1.1-4.4-3.1-4.4-1 0-1.9.3-2.4.5v8.3c.4.3 1 .6 2.2.6 2-.1 3.3-1.2 3.3-5z"/><path id="C" d="M8.3 370.9v-4.5h1.1v4.3c0 .8.3 1.1 1.1 1.1.6 0 1.2-.2 1.6-.4v-4.9h1.1v6.2h-.9l-.1-.5h-.1c-.5.4-1.1.6-1.9.6-1.2 0-1.9-.7-1.9-1.9z"/><path id="D" d="M53.9 366.5h1v.7h.1c.3-.4 1-.8 1.7-.8h.4v.9h-.5c-.6 0-1.2.2-1.6.5v4.8h-1.1v-6.1z"/><path id="E" d="M78.7 369.7v-.2c0-2.2 1.3-3.1 2.9-3.1a3.53 3.53 0 0 1 1.7.4v.9c-.6-.2-.9-.4-1.8-.4-1.1 0-1.8.7-1.8 2.1v.3c0 1.5.6 2.2 1.9 2.2.8 0 1.4-.3 1.7-.4v.8c-.4.3-1 .5-1.8.5-1.7 0-2.8-1-2.8-3.1z"/><path id="F" d="M361.8 369.6v-.2c0-2.1 1.3-3.1 2.7-3.1 1.7 0 2.5 1 2.5 2.9v.6h-4.1c.1 1.5.8 2 2 2 .8 0 1.4-.2 1.9-.5v.8c-.4.3-1.1.6-2.1.6-1.9.1-2.9-1.1-2.9-3.1zm1.1-.6h3c0-1.3-.5-1.8-1.4-1.8-.7 0-1.5.4-1.6 1.8z"/><path id="G" d="M386.1 369.7v-.2c0-1.9 1.1-3.1 2.8-3.1 1.8 0 2.8 1.2 2.8 3.1v.2c0 1.9-1.1 3.1-2.8 3.1-1.8 0-2.8-1.2-2.8-3.1zm4.5.1v-.3c0-1.7-.8-2.2-1.7-2.2-1.1 0-1.7.8-1.7 2.1v.3c0 1.7.8 2.2 1.7 2.2 1.1 0 1.7-.8 1.7-2.1z"/><path id="H" d="M402.1 372.3v-.8c.5.2 1 .4 1.8.4.9 0 1.3-.3 1.3-.9 0-.5-.3-.8-1-1l-.6-.2c-.9-.2-1.5-.6-1.5-1.7s.7-1.8 2.2-1.8a3.53 3.53 0 0 1 1.7.4v.9c-.3-.1-.9-.3-1.6-.3-.8 0-1.2.3-1.2.8s.3.7.9.9l.6.2c1.2.3 1.7.7 1.7 1.8 0 1.2-.9 1.8-2.2 1.8-.9-.1-1.6-.2-2.1-.5z"/><path id="I" d="M24.9 11.6c0-3.4 2.1-5.3 5-5.3 3.1 0 4.4 1.9 4.4 5.6h-6.8c.1 2.4 1.3 3.5 3.2 3.5 1.4 0 2.3-.3 3-.5v1.3c-.7.4-1.8 1-3.6 1-3.6 0-5.2-2.2-5.2-5.6zm6.7-1.1c0-2-.7-2.7-1.9-2.7-1.3 0-2.1.8-2.3 2.9l4.2-.2z"/><path id="J" d="M17.7 71.3v-.5c0-3.7 1.9-5.2 4.2-5.2 2.2 0 4.1 1.4 4.1 5.1v.5c0 3.7-1.8 5.1-4.1 5.1s-4.2-1.4-4.2-5zm6.9.1v-.8c0-2.5-.8-3.9-2.7-3.9s-2.7 1.3-2.7 3.8v.8c0 2.5.8 3.9 2.7 3.9s2.7-1.1 2.7-3.8z"/><path id="K" d="M8.2 250.8v-.5c0-3.7 1.9-5.2 4.2-5.2 2.2 0 4.1 1.4 4.1 5.1v.5c0 3.7-1.8 5.1-4.1 5.1s-4.2-1.5-4.2-5zm6.8.1v-.8c0-2.5-.8-3.9-2.7-3.9s-2.7 1.3-2.7 3.8v.8c0 2.5.8 3.9 2.7 3.9s2.7-1.2 2.7-3.8z"/><path id="L" d="M17.7 250.8v-.5c0-3.7 1.9-5.2 4.2-5.2 2.2 0 4.1 1.4 4.1 5.1v.5c0 3.7-1.8 5.1-4.1 5.1s-4.2-1.5-4.2-5zm6.9.1v-.8c0-2.5-.8-3.9-2.7-3.9s-2.7 1.3-2.7 3.8v.8c0 2.5.8 3.9 2.7 3.9s2.7-1.2 2.7-3.8z"/><path id="M" d="M58.5 338.8l2.5-2.5c1.5-1.5 2.4-2.6 2.4-4 0-1.3-.8-1.9-2.2-1.9-1 0-1.8.3-2.4.6v-1.1c.7-.4 1.6-.6 2.8-.6 2.1 0 3.3 1.1 3.3 3 0 1.8-1 3-2.9 4.8l-1.7 1.6h4.8v1.2h-6.6v-1.1z"/><path id="N" d="M124.8 338.8l2.5-2.5c1.5-1.5 2.4-2.6 2.4-4 0-1.3-.8-1.9-2.2-1.9-1 0-1.8.3-2.4.6v-1.1c.8-.4 1.6-.6 2.8-.6 2.1 0 3.3 1.1 3.3 3 0 1.8-1 3-2.9 4.8l-1.7 1.6h4.8v1.2h-6.6v-1.1z"/><path id="O" d="M143.4 330.9l-1.9.2v-.8l2.8-1h.5v10.5h-1.4v-8.9z"/></defs></svg>