<?xml version="1.0" encoding="UTF-8"?>
<svg width="11.4cm" height="16.9cm" version="1.1" viewBox="232 259 221 314" xmlns="http://www.w3.org/2000/svg">
 <g id="Background" transform="rotate(90 346 367)" stroke="#000" stroke-width="2">
  <g fill="#1e90ff">
   <rect x="340" y="320" width="40" height="160" rx="0" ry="0"/>
   <rect x="300" y="400" width="40" height="80" rx="0" ry="0"/>
   <rect x="260" y="420" width="40" height="60" rx="0" ry="0"/>
   <rect x="380" y="360" width="40" height="120" rx="0" ry="0"/>
   <rect x="420" y="280" width="40" height="200" rx="0" ry="0"/>
   <rect x="460" y="380" width="40" height="100" rx="0" ry="0"/>
   <rect x="500" y="340" width="40" height="140" rx="0" ry="0"/>
  </g>
  <line x1="240" x2="240" y1="480" y2="270" fill="none"/>
  <polygon points="235 272 240 262 245 272 240 270" fill-rule="evenodd"/>
  <line x1="240" x2="560" y1="480" y2="480" fill="none"/>
 </g>
</svg>
