<?xml version="1.0" encoding="UTF-8"?>
<svg version="1.1" viewBox="0 0 542 1247" xmlns="http://www.w3.org/2000/svg">
 <g transform="translate(-40 88.9)">
  <path d="m145-88.9c-0.865 0.0447-1.93 0.843-2.22 2.22-0.264 1.24-0.942 6.55-4.03 34.3-3.09 27.7-5.7 74.2-4.91 83.5 0.348 4.1 1.28 8.56 2.06 9.94 1.21 2.12 1.28 8.94 0.594 44.7-0.448 23.2-1.14 42.5-1.56 43-0.425 0.425-3.65 0.787-7.16 0.812-6.29 0.0462-6.45 0.128-11.7 5.19-9.49 9.12-29.8 34-29.8 36.6-0.0238 1.86 0.794 2.14 18 6.16 18.3 4.28 16.1 4.47 20.9-1.75 3.71-4.81 7.94-8.62 9.56-8.62 0.821 0 0.652 39.3-0.438 97.2-0.542 28.8-1.48 92.7-2.06 142-0.584 49.4-1.26 90.4-1.53 91.1-2.33 4.1-27.2 14-33.9 19.1-11.2 5.94-25.1 18-37.6 27.8-16.2 12.5-20.8 19.8-18.8 30.3 1.08 5.78 2.89 9.1 7.5 13.8 4.8 4.88 11 8.53 17.5 10.2 6.39 1.69 6.73 2 7.5 7.5 0.962 6.9 2.02 8.94 4.66 8.94 2.94 0 8.19 5.3 7.38 7.44-1.21 3.16 11.5 7.83 21.7 7.97l6.84 0.0937 6.25-6.5c3.44-3.58 6.74-7.37 7.34-8.47 0.604-1.1 1.48-1.64 1.94-1.19 0.762 0.762 0.654 49.3-0.469 103-1.12 54-1.78 84.6-2.19 92.8-0.676 13.7-1.03 15.7-4 23-7.52 18.5-8.33 21.5-8.44 31.5-0.0436 10.1 1.85 22.1 11.6 31.5l-0.625 23c-1.1 41.1-2.52 150-2.53 195v43.8l16.1 0.094c-0.923-1.11-0.93-27.5-0.0313-108 0.639-57.4 1.45-114 1.81-126l0.656-22s12.4-1.22 18.1-3.38c5.26-1.97 14-8.83 14.5-8.53 3.53 4.02-2.31 31.7-3.62 39.7-1.65 10.6-1.62 10.8 0.406 13.6 1.9 2.67 5.37 17 5.22 21.6-0.0351 1.1-0.498 10.3-1.03 20.5-0.963 18.4-1.24 26.8-3.09 91-1.8 62.4-2.3 74.9-2.91 75.8-0.331 0.495-4.54-7.72-10.6-6.53l-1 12.6 80.7 0.094c0.455-20.2-1.79-14.6-0.656-21.2 0.261-1.44 0.873-9.05 1.38-16.9 0.89-13.9 3.05-39.1 5.06-59.3 0.549-5.5 1.47-18.3 2.97-42.9l1.56-43.3 3.25-3.69c2.39-2.72 3.23-4.66 3.25-7.41 0.0114-2.04 0.912-9.12 2-15.7 1.09-6.6 1.97-13.8 1.97-16.1 1.3e-4 -2.26 0.409-5.41 0.906-7 0.498-1.59 1.88-7.41 3.09-12.9 4.22-19.2 6.55-29.1 14.5-62 2.52-10.4 6.94-29.1 9.84-41.5 4.81-20.5 5.45-22.5 7.47-22.8 14-2.73 14.4 0.45 20.7 3.5 2.83 1.37 5.53 6.31 7 6.31 1.29 0 2.03 2.19 5.47 16 7.3 29.2 16.5 59.2 24.4 89 0.862 3.58 2.51 10.2 3.66 14.8 1.88 7.39 2.15 14.6 0.625 17.1-0.725 1.17 1.13 24.5 2.53 31.6 0.858 4.38 1.98 6.76 4.03 8.69 2.6 2.44 2.81 3.23 2.81 10 3e-3 4.04 0.436 8.92 0.938 10.8 0.501 1.92 1.18 7.21 1.5 11.8 0.323 4.54 1.23 12.9 2.03 18.5 1.28 9.05 4.49 35.7 9.03 74.8 1.45 12.4 4.36 39.2 4.78 44 1.94 13 1.62 7.84 1.12 16h79.6v-6c0-5.7-0.106-6-2.44-6-1.97 0-2.88-0.943-4.56-4.75-1.15-2.61-3.14-6.32-4.44-8.25-2.88-4.27-2.57 1.73-6.09-108-0.316-9.9-0.717-27.7-0.906-39.5-0.361-22.6-0.632-24.1-6.03-34.7-0.932-1.83-1.33-3.79 0.219-15.2s0.413-24.9-2.38-31.4c-2.79-6.58-3.35-11.4-4.25-28.7-1.76-34-1.65-35.2 3.09-29.2 1.21 1.51 6.09 6.63 10.8 11.3 13.2 13.2 23.9 17.5 33.3 13.5 7.99-3.34 11.8-10.4 11.5-21.3-0.414-15.6-4.94-30.3-26.2-79.6s-29.6-79.3-39.2-101c-9.58-21.2-10.6-29.5-9.59-30.5 1.2-1.21 5.76 1.46 12.1 7.06 19 16.9 55.1 40.5 84.7 57.6 22.2 12.8 55.5 36.2 64.6 24.8 6.68-8.34 0.469-21.9 0.719-32.1-2.77-13.4-6.43-28.4-22.1-72.8-15.7-44.5-19.2-53-34.8-88.1s-22.7-45.2-36.9-58.8c-7.68-7.3-12.8-10.1-20.8-11.2-7.69-1.11-15.2-2.99-18.5-4.69-2.62-1.31-2.75-1.72-2.75-8.59-8e-3 -10.3-1.23-13.6-9.94-26.6-14.3-21.5-14.7-22.1-15.4-28.8-1.38-13.3-4.33-16.3-24-21.7l-37.2-10.2-0.03-8.97c-0.0342-8.16-3.15-30.7-5.72-42.8s-3.19-18.7-3.72-26.3c-1.18-16.9-1.92-19.6-7.69-28.1-4.82-7.14-21-24.2-24.1-26.1-3.11-1.88-12.6-5.91-19.3-7.22-3.62-0.712-9.72-0.936-15.2-0.594-15.6 0.971-23.6 4.71-37.2 17.8-13.6 13.1-16.4 17.8-19.9 27.2-3.45 9.36-3.29 18.6-0.281 33.7 2.55 12.8 4.09 27.1 4.5 33.7 0.414 6.6 0.6 13.5 0.375 21.6l-0.406 14.7-7.62 4.41c-6.55 3.77-14.1 7.73-42.2 22.3-8.94 4.64-11 7.96-11 17.9-0.0439 12.8-12.9 30.8-20.2 43.4-0.774 0-0.922-11.4-0.469-39.8 2.15-134 2.15-117 3.16-176 0.398-24.7-0.453-55.2 2.03-84 8.77-0.717 12.7 0.156 19.4 7.91 5.27 6.05 11.4 27 16.3 26.8 2.58-2.58 8.34-39.6 11.5-73.7 1.27-13.9 0.775-41.3-1.09-60.5-1.82-18.7-2.81-23.4-4.12-19.5-2.64 7.86-13.1 31.6-19.7 44.5-7.83 15.5-20.3 34-21.8 32.4-1.18-1.31 0.232-83.6 1.44-84 0.643-0.215 0.96-12.4 0.906-34.1-0.0668-27-0.427-35.9-1.81-44.2-2.45-14.9-6.59-42.9-6.59-44.6 0-1.01-0.546-1.44-1.22-1.41zm34.4 638c0.717 0.234 2.29 3.19 3.47 6.59 4.54 13 12.8 25.8 16.9 40.4 0.321 2.08 0.983 3.55 1.47 3.25 0.488-0.302 0.687 2.03 0.469 5.22-1.84 21.6-14.4 42.5-21.3 65.8s-9.26 29.7-22.9 67.2c-13.6 37.6-13.8 37.8-14.7 36.4-0.802-1.3-0.919-121-0.156-153 0.761-32 1.04-35 3.41-35 10-5.5 21.1-30.9 33.3-36.8z" fill="#483e37"/>
 </g>
</svg>
