<?xml version="1.0" encoding="UTF-8" standalone="no"?>
<!-- License: Apache. Made by googlefonts: https://github.com/googlefonts/noto-emoji -->

<svg
   width="800px"
   height="800px"
   viewBox="0 0 128 128"
   aria-hidden="true"
   role="img"
   class="iconify iconify--noto"
   preserveAspectRatio="xMidYMid meet"
   version="1.1"
   id="svg22"
   sodipodi:docname="svgviewer-output(16).svg"
   inkscape:version="1.2.2 (b0a8486541, 2022-12-01)"
   xmlns:inkscape="http://www.inkscape.org/namespaces/inkscape"
   xmlns:sodipodi="http://sodipodi.sourceforge.net/DTD/sodipodi-0.dtd"
   xmlns="http://www.w3.org/2000/svg"
   xmlns:svg="http://www.w3.org/2000/svg">
  <defs
     id="defs26" />
  <sodipodi:namedview
     id="namedview24"
     pagecolor="#ffffff"
     bordercolor="#666666"
     borderopacity="1.0"
     inkscape:showpageshadow="2"
     inkscape:pageopacity="0.0"
     inkscape:pagecheckerboard="0"
     inkscape:deskcolor="#d1d1d1"
     showgrid="false"
     inkscape:zoom="0.985"
     inkscape:cx="400"
     inkscape:cy="400"
     inkscape:window-width="1850"
     inkscape:window-height="1011"
     inkscape:window-x="0"
     inkscape:window-y="0"
     inkscape:window-maximized="1"
     inkscape:current-layer="svg22" />
  <path
     d="M51.64 79.73V19.55c0-4.61-.21-15.41 12.79-15.41S77 15.52 77 19.61s-.3 60.2-.3 60.2s11.64 6.43 11.22 21.63c-.37 13.55-10.59 22.65-24.85 22.44s-23.49-11.74-23.49-23.38c0-15.11 12.06-20.77 12.06-20.77z"
     fill="#a8d0d6"
     id="path2" />
  <path
     d="M68.76 47.36L58.02 43.2s0-20.44.12-23.32c.12-2.89.92-6.89 6.58-6.81c5.66.08 6.23 4.27 6.35 7.27c.08 1.96-.19 23.04-.19 23.04l-2.12 3.98z"
     fill="#ffffff"
     id="path4" />
  <path
     d="M68.41 86.96s-20.53 7.62-20.48 12.05c.09 7.33 3.69 16.76 15.71 16.89c10.16.11 15.83-6.3 15.69-16.26C79.17 87.51 70 84.88 70 84.88l-1.59 2.08z"
     fill="#dd0b2b"
     id="path6" />
  <path
     d="M58.68 42.63l12.21.05l-.09 42.57s7.77 7.74 3.93 18.23c-3.26 8.92-14.58 11.05-21.57 5.54c-7.98-6.29-5.17-15.11-2.13-19.44s7.47-4.89 7.47-4.89l.18-42.06z"
     fill="#e7523c"
     id="path8" />
  <path
     d="M62.71 42.64s-.22 46.7-.24 49.43c-.03 3.36.17 7.94-5.57 7.91c-5.63-.03-6.35-6.44-3.8-8.86c1.9-1.79 4.57-1.39 4.57-1.39l.31-47.1l4.73.01z"
     fill="#fed0be"
     id="path10" />
  <path
     d="M58.49 17.6c-3.23 0-5.22-.26-5.31 2.4c-.1 2.62 2.11 2.46 5.31 2.46c3.1 0 5.18.22 5.18-2.4c0-2.85-2.11-2.46-5.18-2.46z"
     fill="#4b4a51"
     id="path12" />
  <path
     d="M58.3 31.17c-3.41 0-5.04-.16-5.13 2.34c-.1 2.78 2.05 2.53 5.16 2.46c3.11-.06 5.31.42 5.34-2.18c.03-2.74-1.72-2.62-5.37-2.62z"
     fill="#4b4a51"
     id="path14" />
  <path
     d="M58.47 44.51c-3.23 0-5.22-.26-5.31 2.4c-.1 2.62 2.11 2.46 5.31 2.46c3.1 0 5.18.22 5.18-2.4c.01-2.84-2.11-2.46-5.18-2.46z"
     fill="#4b4a51"
     id="path16" />
  <path
     d="M58.38 58.24c-3.4 0-5.06-.16-5.11 2.34c-.06 2.76 1.95 2.52 5.04 2.54c3.1.02 5.48 0 5.42-2.25c-.06-2.76-1.71-2.63-5.35-2.63z"
     fill="#4b4a51"
     id="path18" />
  <path
     d="M58.6 72.25c-3.23 0-5.22-.26-5.31 2.4c-.1 2.62 2.11 2.46 5.31 2.46c3.1 0 5.18.22 5.18-2.4c.01-2.84-2.1-2.46-5.18-2.46z"
     fill="#4b4a51"
     id="path20" />
  <text
     xml:space="preserve"
     style="font-size:10.24px;line-height:1.25;font-family:sans-serif;text-align:center;text-anchor:middle;stroke-width:0.16"
     x="29.781092"
     y="23.774111"
     id="text255"><tspan
       sodipodi:role="line"
       id="tspan253"
       style="stroke-width:0.16"
       x="29.781092"
       y="23.774111">100°C</tspan></text>
  <text
     xml:space="preserve"
     style="font-size:10.24px;line-height:1.25;font-family:sans-serif;text-align:center;text-anchor:middle;stroke-width:0.16"
     x="29.896744"
     y="50.879459"
     id="text255-3"><tspan
       sodipodi:role="line"
       id="tspan253-6"
       style="stroke-width:0.16"
       x="29.896744"
       y="50.879459">50°C</tspan></text>
  <text
     xml:space="preserve"
     style="font-size:10.24px;line-height:1.25;font-family:sans-serif;text-align:center;text-anchor:middle;stroke-width:0.16"
     x="29.924294"
     y="79.083321"
     id="text255-3-7"><tspan
       sodipodi:role="line"
       id="tspan253-6-5"
       style="stroke-width:0.16"
       x="29.924294"
       y="79.083321">0°C</tspan></text>
  <text
     xml:space="preserve"
     style="font-size:10.24px;line-height:1.25;font-family:sans-serif;text-align:center;text-anchor:middle;stroke-width:0.16"
     x="96.981033"
     y="23.774111"
     id="text255-35"><tspan
       sodipodi:role="line"
       id="tspan253-62"
       style="stroke-width:0.16"
       x="96.981033"
       y="23.774111">212°F</tspan></text>
  <text
     xml:space="preserve"
     style="font-size:10.24px;line-height:1.25;font-family:sans-serif;text-align:center;text-anchor:middle;stroke-width:0.16"
     x="97.096687"
     y="50.879463"
     id="text255-3-9"><tspan
       sodipodi:role="line"
       id="tspan253-6-1"
       style="stroke-width:0.16"
       x="97.096687"
       y="50.879463">122°F</tspan></text>
  <text
     xml:space="preserve"
     style="font-size:10.24px;line-height:1.25;font-family:sans-serif;text-align:center;text-anchor:middle;stroke-width:0.16"
     x="97.124237"
     y="79.083328"
     id="text255-3-7-2"><tspan
       sodipodi:role="line"
       id="tspan253-6-5-7"
       style="stroke-width:0.16"
       x="97.124237"
       y="79.083328">32°F</tspan></text>
</svg>
