<?xml version="1.0" encoding="UTF-8" standalone="no"?>
<!DOCTYPE svg PUBLIC "-//W3C//DTD SVG 1.0//EN" "http://www.w3.org/TR/2001/PR-SVG-20010719/DTD/svg10.dtd">
<svg width="14cm" height="22cm" viewBox="128 483 273 421" xmlns="http://www.w3.org/2000/svg" xmlns:xlink="http://www.w3.org/1999/xlink">
  <g id="Background"/>
  <g id="Background"/>
  <g id="Background"/>
  <g id="Background"/>
  <g id="Background"/>
  <g id="Background"/>
  <g id="Background"/>
  <g id="Background">
    <g>
      <line style="fill: none; stroke-opacity: 1; stroke-width: 8; stroke: #ffa500" x1="308" y1="716" x2="284.444" y2="716"/>
      <polygon style="fill: #ffa500; fill-opacity: 1; stroke-opacity: 1; stroke-width: 8; stroke: #ffa500" fill-rule="evenodd" points="276.944,716 286.944,711 284.444,716 286.944,721 "/>
    </g>
    <g>
      <line style="fill: none; stroke-opacity: 1; stroke-width: 8; stroke: #ffa500" x1="348" y1="616" x2="244.444" y2="616"/>
      <polygon style="fill: #ffa500; fill-opacity: 1; stroke-opacity: 1; stroke-width: 8; stroke: #ffa500" fill-rule="evenodd" points="236.944,616 246.944,611 244.444,616 246.944,621 "/>
    </g>
    <g>
      <line style="fill: none; stroke-opacity: 1; stroke-width: 8; stroke: #ffa500" x1="388" y1="516" x2="204.444" y2="516"/>
      <polygon style="fill: #ffa500; fill-opacity: 1; stroke-opacity: 1; stroke-width: 8; stroke: #ffa500" fill-rule="evenodd" points="196.944,516 206.944,511 204.444,516 206.944,521 "/>
    </g>
    <text font-size="22.5778" style="fill: #000000; fill-opacity: 1; stroke: none;text-anchor:middle;font-family:sans-serif;font-style:normal;font-weight:normal" x="140" y="507.275">
      <tspan x="140" y="507.275">i→</tspan>
    </text>
    <text font-size="22.5778" style="fill: #000000; fill-opacity: 1; stroke: none;text-anchor:middle;font-family:sans-serif;font-style:normal;font-weight:normal" x="180" y="508.75">
      <tspan x="180" y="508.75">0</tspan>
    </text>
    <text font-size="22.5778" style="fill: #000000; fill-opacity: 1; stroke: none;text-anchor:middle;font-family:sans-serif;font-style:normal;font-weight:normal" x="220" y="508.75">
      <tspan x="220" y="508.75">1</tspan>
    </text>
    <text font-size="22.5778" style="fill: #000000; fill-opacity: 1; stroke: none;text-anchor:middle;font-family:sans-serif;font-style:normal;font-weight:normal" x="260" y="508.75">
      <tspan x="260" y="508.75">2</tspan>
    </text>
    <text font-size="22.5778" style="fill: #000000; fill-opacity: 1; stroke: none;text-anchor:middle;font-family:sans-serif;font-style:normal;font-weight:normal" x="300" y="508.75">
      <tspan x="300" y="508.75">3</tspan>
    </text>
    <text font-size="22.5778" style="fill: #000000; fill-opacity: 1; stroke: none;text-anchor:middle;font-family:sans-serif;font-style:normal;font-weight:normal" x="340" y="508.75">
      <tspan x="340" y="508.75">4</tspan>
    </text>
    <text font-size="22.5778" style="fill: #000000; fill-opacity: 1; stroke: none;text-anchor:middle;font-family:sans-serif;font-style:normal;font-weight:normal" x="380" y="508.75">
      <tspan x="380" y="508.75">5</tspan>
    </text>
    <g>
      <rect style="fill: #ff0000; fill-opacity: 1; stroke-opacity: 1; stroke-width: 2; stroke: #ffffff" x="160" y="520" width="40" height="40" rx="10" ry="10"/>
      <text font-size="22.5778" style="fill: #ffffff; fill-opacity: 1; stroke: none;text-anchor:middle;font-family:sans-serif;font-style:normal;font-weight:normal" x="180" y="550.039">
        <tspan x="180" y="550.039">0</tspan>
      </text>
    </g>
    <g>
      <rect style="fill: #ff0000; fill-opacity: 1; stroke-opacity: 1; stroke-width: 2; stroke: #ffffff" x="200" y="520" width="40" height="40" rx="10" ry="10"/>
      <text font-size="22.5778" style="fill: #ffffff; fill-opacity: 1; stroke: none;text-anchor:middle;font-family:sans-serif;font-style:normal;font-weight:normal" x="220" y="550.039">
        <tspan x="220" y="550.039">1</tspan>
      </text>
    </g>
    <g>
      <rect style="fill: #ff0000; fill-opacity: 1; stroke-opacity: 1; stroke-width: 2; stroke: #ffffff" x="240" y="520" width="40" height="40" rx="10" ry="10"/>
      <text font-size="22.5778" style="fill: #ffffff; fill-opacity: 1; stroke: none;text-anchor:middle;font-family:sans-serif;font-style:normal;font-weight:normal" x="260" y="550.039">
        <tspan x="260" y="550.039">2</tspan>
      </text>
    </g>
    <g>
      <rect style="fill: #ff0000; fill-opacity: 1; stroke-opacity: 1; stroke-width: 2; stroke: #ffffff" x="280" y="520" width="40" height="40" rx="10" ry="10"/>
      <text font-size="22.5778" style="fill: #ffffff; fill-opacity: 1; stroke: none;text-anchor:middle;font-family:sans-serif;font-style:normal;font-weight:normal" x="300" y="550.039">
        <tspan x="300" y="550.039">3</tspan>
      </text>
    </g>
    <g>
      <rect style="fill: #ff0000; fill-opacity: 1; stroke-opacity: 1; stroke-width: 2; stroke: #ffffff" x="320" y="520" width="40" height="40" rx="10" ry="10"/>
      <text font-size="22.5778" style="fill: #ffffff; fill-opacity: 1; stroke: none;text-anchor:middle;font-family:sans-serif;font-style:normal;font-weight:normal" x="340" y="550.039">
        <tspan x="340" y="550.039">4</tspan>
      </text>
    </g>
    <g>
      <rect style="fill: #ff0000; fill-opacity: 1; stroke-opacity: 1; stroke-width: 2; stroke: #ffffff" x="360" y="520" width="40" height="40" rx="10" ry="10"/>
      <text font-size="22.5778" style="fill: #ffffff; fill-opacity: 1; stroke: none;text-anchor:middle;font-family:sans-serif;font-style:normal;font-weight:normal" x="380" y="550.039">
        <tspan x="380" y="550.039">5</tspan>
      </text>
    </g>
    <g>
      <line style="fill: none; stroke-opacity: 1; stroke-width: 8; stroke: #006600" x1="180" y1="600" x2="180" y2="576.444"/>
      <polygon style="fill: #006600; fill-opacity: 1; stroke-opacity: 1; stroke-width: 8; stroke: #006600" fill-rule="evenodd" points="180,568.944 185,578.944 180,576.444 175,578.944 "/>
    </g>
    <line style="fill: none; stroke-opacity: 0.705882; stroke-width: 6; stroke: #000000" x1="160" y1="560" x2="200" y2="520"/>
    <line style="fill: none; stroke-opacity: 0.705882; stroke-width: 6; stroke: #000000" x1="160" y1="520" x2="200" y2="560"/>
    <g>
      <rect style="fill: #ff0000; fill-opacity: 1; stroke-opacity: 1; stroke-width: 2; stroke: #ffffff" x="160" y="620" width="40" height="40" rx="10" ry="10"/>
      <text font-size="22.5778" style="fill: #ffffff; fill-opacity: 1; stroke: none;text-anchor:middle;font-family:sans-serif;font-style:normal;font-weight:normal" x="180" y="650.039">
        <tspan x="180" y="650.039">1</tspan>
      </text>
    </g>
    <g>
      <rect style="fill: #ff0000; fill-opacity: 1; stroke-opacity: 1; stroke-width: 2; stroke: #ffffff" x="200" y="620" width="40" height="40" rx="10" ry="10"/>
      <text font-size="22.5778" style="fill: #ffffff; fill-opacity: 1; stroke: none;text-anchor:middle;font-family:sans-serif;font-style:normal;font-weight:normal" x="220" y="650.039">
        <tspan x="220" y="650.039">2</tspan>
      </text>
    </g>
    <g>
      <rect style="fill: #ff0000; fill-opacity: 1; stroke-opacity: 1; stroke-width: 2; stroke: #ffffff" x="240" y="620" width="40" height="40" rx="10" ry="10"/>
      <text font-size="22.5778" style="fill: #ffffff; fill-opacity: 1; stroke: none;text-anchor:middle;font-family:sans-serif;font-style:normal;font-weight:normal" x="260" y="650.039">
        <tspan x="260" y="650.039">3</tspan>
      </text>
    </g>
    <g>
      <rect style="fill: #ff0000; fill-opacity: 1; stroke-opacity: 1; stroke-width: 2; stroke: #ffffff" x="280" y="620" width="40" height="40" rx="10" ry="10"/>
      <text font-size="22.5778" style="fill: #ffffff; fill-opacity: 1; stroke: none;text-anchor:middle;font-family:sans-serif;font-style:normal;font-weight:normal" x="300" y="650.039">
        <tspan x="300" y="650.039">4</tspan>
      </text>
    </g>
    <g>
      <rect style="fill: #ff0000; fill-opacity: 1; stroke-opacity: 1; stroke-width: 2; stroke: #ffffff" x="320" y="620" width="40" height="40" rx="10" ry="10"/>
      <text font-size="22.5778" style="fill: #ffffff; fill-opacity: 1; stroke: none;text-anchor:middle;font-family:sans-serif;font-style:normal;font-weight:normal" x="340" y="650.039">
        <tspan x="340" y="650.039">5</tspan>
      </text>
    </g>
    <g>
      <line style="fill: none; stroke-opacity: 0.494118; stroke-width: 8; stroke: #006600" x1="180" y1="700" x2="180" y2="676.444"/>
      <polygon style="fill: #006600; fill-opacity: 0.494118; stroke-opacity: 0.494118; stroke-width: 8; stroke: #006600" fill-rule="evenodd" points="180,668.944 185,678.944 180,676.444 175,678.944 "/>
    </g>
    <g>
      <rect style="fill: #ff0000; fill-opacity: 1; stroke-opacity: 1; stroke-width: 2; stroke: #ffffff" x="160" y="720" width="40" height="40" rx="10" ry="10"/>
      <text font-size="22.5778" style="fill: #ffffff; fill-opacity: 1; stroke: none;text-anchor:middle;font-family:sans-serif;font-style:normal;font-weight:normal" x="180" y="750.039">
        <tspan x="180" y="750.039">1</tspan>
      </text>
    </g>
    <g>
      <rect style="fill: #ff0000; fill-opacity: 1; stroke-opacity: 1; stroke-width: 2; stroke: #ffffff" x="200" y="720" width="40" height="40" rx="10" ry="10"/>
      <text font-size="22.5778" style="fill: #ffffff; fill-opacity: 1; stroke: none;text-anchor:middle;font-family:sans-serif;font-style:normal;font-weight:normal" x="220" y="750.039">
        <tspan x="220" y="750.039">3</tspan>
      </text>
    </g>
    <g>
      <rect style="fill: #ff0000; fill-opacity: 1; stroke-opacity: 1; stroke-width: 2; stroke: #ffffff" x="240" y="720" width="40" height="40" rx="10" ry="10"/>
      <text font-size="22.5778" style="fill: #ffffff; fill-opacity: 1; stroke: none;text-anchor:middle;font-family:sans-serif;font-style:normal;font-weight:normal" x="260" y="750.039">
        <tspan x="260" y="750.039">4</tspan>
      </text>
    </g>
    <g>
      <rect style="fill: #ff0000; fill-opacity: 1; stroke-opacity: 1; stroke-width: 2; stroke: #ffffff" x="280" y="720" width="40" height="40" rx="10" ry="10"/>
      <text font-size="22.5778" style="fill: #ffffff; fill-opacity: 1; stroke: none;text-anchor:middle;font-family:sans-serif;font-style:normal;font-weight:normal" x="300" y="750.039">
        <tspan x="300" y="750.039">5</tspan>
      </text>
    </g>
    <g>
      <line style="fill: none; stroke-opacity: 0.494118; stroke-width: 8; stroke: #006600" x1="220" y1="800" x2="220" y2="776.444"/>
      <polygon style="fill: #006600; fill-opacity: 0.494118; stroke-opacity: 0.494118; stroke-width: 8; stroke: #006600" fill-rule="evenodd" points="220,768.944 225,778.944 220,776.444 215,778.944 "/>
    </g>
    <g>
      <rect style="fill: #ff0000; fill-opacity: 1; stroke-opacity: 1; stroke-width: 2; stroke: #ffffff" x="160" y="820" width="40" height="40" rx="10" ry="10"/>
      <text font-size="22.5778" style="fill: #ffffff; fill-opacity: 1; stroke: none;text-anchor:middle;font-family:sans-serif;font-style:normal;font-weight:normal" x="180" y="850.039">
        <tspan x="180" y="850.039">1</tspan>
      </text>
    </g>
    <g>
      <rect style="fill: #ff0000; fill-opacity: 1; stroke-opacity: 1; stroke-width: 2; stroke: #ffffff" x="200" y="820" width="40" height="40" rx="10" ry="10"/>
      <text font-size="22.5778" style="fill: #ffffff; fill-opacity: 1; stroke: none;text-anchor:middle;font-family:sans-serif;font-style:normal;font-weight:normal" x="220" y="850.039">
        <tspan x="220" y="850.039">3</tspan>
      </text>
    </g>
    <g>
      <rect style="fill: #ff0000; fill-opacity: 1; stroke-opacity: 1; stroke-width: 2; stroke: #ffffff" x="240" y="820" width="40" height="40" rx="10" ry="10"/>
      <text font-size="22.5778" style="fill: #ffffff; fill-opacity: 1; stroke: none;text-anchor:middle;font-family:sans-serif;font-style:normal;font-weight:normal" x="260" y="850.039">
        <tspan x="260" y="850.039">5</tspan>
      </text>
    </g>
    <g>
      <line style="fill: none; stroke-opacity: 0.494118; stroke-width: 8; stroke: #006600" x1="260" y1="900" x2="260" y2="876.444"/>
      <polygon style="fill: #006600; fill-opacity: 0.494118; stroke-opacity: 0.494118; stroke-width: 8; stroke: #006600" fill-rule="evenodd" points="260,868.944 265,878.944 260,876.444 255,878.944 "/>
    </g>
    <g>
      <line style="fill: none; stroke-opacity: 0.494118; stroke-width: 8; stroke: #006600" x1="200" y1="700" x2="200" y2="676.444"/>
      <polygon style="fill: #006600; fill-opacity: 0.494118; stroke-opacity: 0.494118; stroke-width: 8; stroke: #006600" fill-rule="evenodd" points="200,668.944 205,678.944 200,676.444 195,678.944 "/>
    </g>
    <g>
      <line style="fill: none; stroke-opacity: 0.494118; stroke-width: 8; stroke: #006600" x1="240" y1="800" x2="240" y2="776.444"/>
      <polygon style="fill: #006600; fill-opacity: 0.494118; stroke-opacity: 0.494118; stroke-width: 8; stroke: #006600" fill-rule="evenodd" points="240,768.944 245,778.944 240,776.444 235,778.944 "/>
    </g>
    <g>
      <line style="fill: none; stroke-opacity: 1; stroke-width: 8; stroke: #006600" x1="220" y1="700" x2="220" y2="676.444"/>
      <polygon style="fill: #006600; fill-opacity: 1; stroke-opacity: 1; stroke-width: 8; stroke: #006600" fill-rule="evenodd" points="220,668.944 225,678.944 220,676.444 215,678.944 "/>
    </g>
    <g>
      <line style="fill: none; stroke-opacity: 1; stroke-width: 8; stroke: #006600" x1="260" y1="800" x2="260" y2="776.444"/>
      <polygon style="fill: #006600; fill-opacity: 1; stroke-opacity: 1; stroke-width: 8; stroke: #006600" fill-rule="evenodd" points="260,768.944 265,778.944 260,776.444 255,778.944 "/>
    </g>
    <g>
      <line style="fill: none; stroke-opacity: 0.494118; stroke-width: 8; stroke: #006600" x1="280" y1="900" x2="280" y2="876.444"/>
      <polygon style="fill: #006600; fill-opacity: 0.494118; stroke-opacity: 0.494118; stroke-width: 8; stroke: #006600" fill-rule="evenodd" points="280,868.944 285,878.944 280,876.444 275,878.944 "/>
    </g>
    <g>
      <line style="fill: none; stroke-opacity: 1; stroke-width: 8; stroke: #006600" x1="300" y1="900" x2="300" y2="876.444"/>
      <polygon style="fill: #006600; fill-opacity: 1; stroke-opacity: 1; stroke-width: 8; stroke: #006600" fill-rule="evenodd" points="300,868.944 305,878.944 300,876.444 295,878.944 "/>
    </g>
    <line style="fill: none; stroke-opacity: 0.705882; stroke-width: 6; stroke: #000000" x1="200" y1="660" x2="240" y2="620"/>
    <line style="fill: none; stroke-opacity: 0.705882; stroke-width: 6; stroke: #000000" x1="200" y1="620" x2="240" y2="660"/>
    <line style="fill: none; stroke-opacity: 0.705882; stroke-width: 6; stroke: #000000" x1="240" y1="760" x2="280" y2="720"/>
    <line style="fill: none; stroke-opacity: 0.705882; stroke-width: 6; stroke: #000000" x1="240" y1="720" x2="280" y2="760"/>
  </g>
</svg>
