<?xml version="1.0" encoding="UTF-8"?>
<svg version="1.1" viewBox="0 0 350 450" xmlns="http://www.w3.org/2000/svg"><path d="m0 0h270.8c-.51 1.1-.96 2.22-1.39 3.34.64.08 1.93.23 2.57.31-.15-1.22-.32-2.44-.49-3.65h49.34c-.21 1.16-.4 2.32-.56 3.48.61.01 1.84.02 2.46.03-.13-.87-.38-2.62-.5-3.5l.64-.01h27.13v9.72c-.76-4.27-5.98-4.59-8.49-1.69-.02-.47-.04-1.41-.06-1.88l-1.84.22c.01 4.95 0 9.9.01 14.86l2.15.06c.12-3.69-.36-7.46.46-11.09.6-2.42 4.91-2.81 5.32-.11.57 3.68.21 7.42.28 11.12.54.02 1.63.07 2.17.09v428.7h-350v-51.55c2.25 8.57 4.47 18.28 12.2 23.68.12.1.37.3.49.4 4.11 3.72 9.28 5.96 14.42 7.85 14.1 4.85 29.28 4.65 43.99 3.92 11.37-1.22 23.07-3.87 32.4-10.83 3.91-2.99 7.65-6.65 9.2-11.45 4.67-12.15 4.37-25.53 2.45-38.21-.91-5.15-1.37-10.45-3.38-15.33l-.03-.16c-.2-4.53-1.64-8.87-2.08-13.36-1.44-29.88 3.17-59.58 4.12-89.4.93-6.09.65-12.27 1.12-18.4 3.62-2.48 5.92-6.34 7.06-10.51 3.13 2.92 6.36 5.74 9.57 8.57 7.47 6.62 14.82 13.37 22.29 19.98.83.99 2.52 1.64 2.48 3.13l-.11.71-.55.92c2.82 1.26 5.95 1.52 8.93 2.22-.96-3.03-1.95-6.05-2.92-9.07-.67.67-1.34 1.35-1.99 2.04-8.37-7.66-16.96-15.07-25.36-22.7-3.13-2.85-6.32-5.65-9.46-8.48 1.09-1.13 2.19-2.25 3.3-3.35 10.55-10.28 21.15-20.5 31.7-30.77.49.49 1.47 1.46 1.96 1.95.9-3.05 1.77-6.12 2.61-9.19-3.05.74-6.1 1.51-9.15 2.28l.92 1.07.53 1.11c-9.85 10.1-20.1 19.83-30.18 29.72-1.63 1.56-3.23 3.15-4.82 4.75-1.51-2.4-2.98-4.89-5.2-6.7.83-22.35 1.75-45.24-4.63-66.96-2.58-8.56-8.07-15.74-12.76-23.21-2.51-3.76-4.5-7.86-7.29-11.43-.66-1.56-1.34-3.12-1.98-4.7-2.64-16.04-3.35-32.33-6.18-48.34-.86-5.75-1.86-11.48-2.77-17.22-.47-2.09.25-4.15.82-6.13 1.69-3.11 2.81-6.8 1.15-10.17l-.3-.97c-.09-1.22-.2-2.43-.33-3.65-.27-.55-.82-1.65-1.09-2.19.55-.72 1.11-1.44 1.67-2.15-.02-2.03.28-4.16-.62-6.05-2.19-3.11-3.34-7.87-8.05-7.72-2.02-.33-4.04-.68-6.06-1.03l-.92-.14c-8.42-1.52-17.05-.7-25.2 1.8-1.76.77-4.04 1.42-4.66 3.49-1.12 2.85-2.95 5.72-1.9 8.88 1.68-.88 3.35-1.79 5.09-2.54 5.04-1.77 10.45-2.33 15.74-1.64-1.38.05-2.75.11-4.13.17-1.55.11-3.09.25-4.62.45-2.59.38-5.12 1.09-7.52 2.11-1.25.52-2.5 1.03-3.77 1.51-1.94 2.03-1.77 4.51-.29 6.75-.9 1.71-1.72 3.44-2.48 5.21.57 2.2.98 4.43 1.53 6.62 1.98 6.17-.66 12.36-1.23 18.52-2.36 18.14-3.95 36.38-5.29 54.61-.85 2.29-1.76 4.55-2.65 6.83-7.73 16.02-20.42 30.05-23.25 48.11-1.02 7.08-1.71 14.23-1.84 21.38l-.7-.55v-184.49z" fill="#fff"/><g><path d="m270.8 0h.69c.17 1.21.34 2.43.49 3.65-.64-.08-1.93-.23-2.57-.31.43-1.12.88-2.24 1.39-3.34z"/><path d="m320.83 0h2.04l-.64.01c.12.88.37 2.63.5 3.5-.62-.01-1.85-.02-2.46-.03.16-1.16.35-2.32.56-3.48z"/><path d="m174.75.92c3.87-.2 7.75-.23 11.63-.02-.34 2.96-2.56 5.13-3.65 7.81-1.92 3.86-2.75 8.11-3.42 12.34l-2.08.42c.22-6.51 2.56-12.76 6.05-18.2-2.84.01-5.68.01-8.52.01-.01-.59-.01-1.77-.01-2.36z"/><path d="m208.3.72c.9.05 2.71.15 3.61.2 1.57 5.73 3.28 11.41 4.79 17.15 1.93-5.66 3.45-11.44 5.18-17.16.81-.05 2.42-.14 3.23-.18-.05 6.79.11 13.58-.07 20.37-.54.07-1.63.21-2.17.28-.08-5.54.13-11.09-.12-16.62-1.95 5.39-3.2 11.01-5.07 16.44-.48.02-1.45.05-1.93.07-1.99-5.71-3.26-11.65-5.3-17.35.12 5.78.05 11.55.06 17.33h-2.21c-.01-6.84 0-13.68 0-20.53z"/><path d="m277.18.91c1.42-.17 2.86-.2 4.31-.1-.1 1.93-1.88 1.92-3.26 2.29-.1.78-.31 2.33-.41 3.11.68.05 2.03.15 2.71.19-.05.46-.16 1.39-.21 1.85-.61 0-1.81.01-2.41.01-.02 4.37 0 8.75-.02 13.12-.65-.32-2.25.3-2.05-.97-.19-4.03-.02-8.07-.04-12.11-.49-.02-1.47-.07-1.97-.09l.02-1.93c.45.01 1.36.02 1.81.03.32-1.83-.19-4.14 1.52-5.4z"/><path d="m282.05.59c1.97-.17 2.41 1.16 2.36 2.82-.56.06-1.66.16-2.22.22-.03-.76-.11-2.28-.14-3.04z"/></g><path d="m41.97 4.58c8.15-2.5 16.78-3.32 25.2-1.8-2.41-.17-4.83-.22-7.25-.18-1.47.21-3.12.04-4.41.88-1.65 1.42-.64 3.68-.58 5.49-.68.71-1.35 1.42-2.03 2.12l4.26.3c.44.03 1.32.08 1.76.11 3.19.24 6.39.52 9.59.3.53-.07 1.6-.21 2.14-.28 2.19-1.81 4.7-5.22 7.82-2.97.61 2.51.17 5.1 0 7.63-2.8.27-5.55-.14-7.83-1.87 1.73.31 3.46.57 5.19.84-.07-1.31-.14-2.62-.2-3.94-2.31.9-4.62 1.81-6.99 2.54l-.67-.1c-1.55-.24-3.11-.43-4.67-.55-2.35-.1-4.71-.13-7.06-.33-5.29-.69-10.7-.13-15.74 1.64l-.64-.88c.86-1.06 1.26-2.27 1.21-3.63.23-1.79.57-3.55.9-5.32z" fill="#4f4f4f"/><path d="m311.98 6.89c3.55-.33.65-5.16 4.14-5.83.02 1.72.03 3.44.02 5.16.55.03 1.64.08 2.18.1l-.02 1.9c-.54.02-1.62.04-2.16.06.01 3.41-.01 6.83.07 10.25 1.8.25 2.59 1.25 2.38 3-2.17.08-5.04-.68-4.51-3.46-.83-3.71 1.66-8.69-2.1-11.18z"/><path d="m55.51 3.48c1.29-.84 2.94-.67 4.41-.88-.54 3.03-1.27 6.06-2.76 8.79l-4.26-.3c.68-.7 1.35-1.41 2.03-2.12-.06-1.81-1.07-4.07.58-5.49z" fill="#232323"/><path d="m59.92 2.6c2.42-.04 4.84.01 7.25.18l.92.14c-2.88 3.05-3.95 9.11-9.17 8.58-.44-.03-1.32-.08-1.76-.11 1.49-2.73 2.22-5.76 2.76-8.79z" fill="#040404"/><path d="m68.09 2.92c2.02.35 4.04.7 6.06 1.03-2.29 2.3-4.87 4.56-5.64 7.85-3.2.22-6.4-.06-9.59-.3 5.22.53 6.29-5.53 9.17-8.58z" fill="#252525"/><path d="m74.15 3.95c4.71-.15 5.86 4.61 8.05 7.72-1.23 3.3-3.22 6.27-6.67 7.51.55.73 1.1 1.46 1.64 2.19-1.39-.24-2.79-.48-4.18-.7.11-.3.34-.89.45-1.18-1.08-1.39-3.07-.39-4.3.25-.58-.15-1.74-.43-2.32-.57.23-.18.68-.52.91-.69.11-1.61.19-3.22.24-4.83l.67.1 2 .56c2.28 1.73 5.03 2.14 7.83 1.87.17-2.53.61-5.12 0-7.63-3.12-2.25-5.63 1.16-7.82 2.97-.54.07-1.61.21-2.14.28.77-3.29 3.35-5.55 5.64-7.85z" fill="#3e3e3e"/><path d="m37.31 8.07c.62-2.07 2.9-2.72 4.66-3.49-.33 1.77-.67 3.53-.9 5.32-2.48-.97-3.03 2.53-1.21 3.63l.64.88c-1.74.75-3.41 1.66-5.09 2.54-1.05-3.16.78-6.03 1.9-8.88z" fill="#303030"/><g><path d="m187.88 6.24c.68.02 2.04.06 2.73.08.89 1.67 1.79 3.33 2.7 4.99 1.12-1.61 2.17-3.28 3.16-4.97.66-.03 1.96-.09 2.61-.13-1.4 2.41-2.89 4.76-4.4 7.1 1.57 2.68 3.22 5.33 4.75 8.05-3.75.75-4.24-3.76-6.03-5.98-1.7 2.25-2.17 6.73-5.9 5.98 1.5-2.7 3.16-5.31 4.63-8.03-1.49-2.32-2.9-4.69-4.25-7.09z"/><path d="m228.17 10.6c.66-4.61 7.18-6.24 10.12-2.84 1.44 4.4.16 9.23 1.15 13.75-1.23-.21-2.22-.81-2.97-1.8-2.61 3.24-9.15 1.98-8.52-2.75.29-4.56 5.81-4.29 9.04-5.29-.42-1.05-.5-2.29-1.27-3.16-1.26-.64-2.69-.23-4.02-.15-.31.6-.94 1.82-1.25 2.43-.57-.05-1.71-.14-2.28-.19z"/><path d="m244.53 6.67c2.13-1.55 4.66-.24 6.38 1.25l-.12-1.63 1.97-.04c-.22 5.87.58 11.85-.55 17.64-1.56 5.16-10.66 4.28-10.43-1.51 2.49.18 3.57 3.56 6.29 2.73 2.47-.63 2.33-3.71 2.63-5.71-1.73 1.52-4.17 2.49-6.28 1.06-3.91-3.31-3.98-10.61.11-13.79z"/><path d="m256.21 6.44c.35-.14 1.07-.44 1.43-.58.1.56.32 1.68.43 2.24 1.97-2.76 7.11-2.88 8.02.82.69 4.06.19 8.23.33 12.33-.53 0-1.6.02-2.14.02-.12-3.74.24-7.51-.28-11.23-.61-2.78-5.02-2.17-5.44.44-.67 3.59-.25 7.27-.36 10.9-.52-.07-1.57-.21-2.09-.28-.06-4.88-.24-9.79.1-14.66z"/><path d="m282.13 6.13c.55.09 1.64.27 2.19.36-.12 4.92-.03 9.83-.07 14.75-.72.01-1.45.02-2.17.02.01-5.04-.06-10.09.05-15.13z"/><path d="m287.51 17.55c-1.13-3.85-.96-9.62 3.44-11.3 3.33-1.35 6.44 1.38 7 4.58-2.9 1.16-3.06-3.25-5.84-2.77-3.97 1.74-3.9 8.28-1.01 10.95 2.44 1.66 4.25-1 5.08-2.97.5-.03 1.49-.08 1.99-.11-.62 1.94-1.28 4.14-3.25 5.12-2.9 1.44-6.62-.41-7.41-3.5z"/><path d="m299.37 10.62c.52-5.08 9.1-6.61 10.65-1.62.39 4.22.12 8.49.53 12.72-.7-.44-2.11-1.33-2.82-1.77-1.73.98-3.71 2.11-5.75 1.38-3.47-.88-3.73-6.36-.59-7.89 2.18-.87 4.53-1.18 6.81-1.72-.36-1.76-.89-4.08-3.26-3.65-2.62-.41-2.79 4.02-5.57 2.55z"/><path d="m320.43 6.27c.54 0 1.64.01 2.18.02-.13 5.01.26 10.04-.18 15.03l-1.87-.05c-.34-4.99-.04-10-.13-15z"/><path d="m328.44 6.63c3.03-1.72 7.05.11 8.02 3.38 1.35 4.09.68 10.58-4.47 11.49-7.72.82-9.25-11.5-3.55-14.87z"/></g><path d="m341.51 8.03c2.51-2.9 7.73-2.58 8.49 1.69v11.58c-.54-.02-1.63-.07-2.17-.09-.07-3.7.29-7.44-.28-11.12-.41-2.7-4.72-2.31-5.32.11-.82 3.63-.34 7.4-.46 11.09l-2.15-.06c-.01-4.96 0-9.91-.01-14.86l1.84-.22c.02.47.04 1.41.06 1.88z" fill="#010101"/><path d="m57.14 7.26c3.26.24-1.54 3.03 0 0z" fill="#888"/><path d="m269.75 6.17c.55.06 1.64.19 2.19.25.11 4.94-.01 9.88.04 14.82-.56 0-1.67.01-2.22.01-.01-5.03-.01-10.05-.01-15.08z" fill="#070707"/><path d="m46.08 8.11c1.53-1.19 2.84 1.61 1.52 2.56-1.54 1.16-2.84-1.59-1.52-2.56z" fill="#7f7f7f"/><path d="m50.07 8.2c3.27.13-1.47 3.06 0 0z" fill="#959595"/><path d="m245.58 8.61c2.09-1.61 4.66.59 4.92 2.78.45 2.66.45 6.48-2.52 7.68-5.13.29-5.37-7.79-2.4-10.46z" fill="#fff"/><path d="m329.37 8.6c2-1.44 4.59.22 5.06 2.37.73 2.84.69 7-2.42 8.43-5.48.64-6.03-8.13-2.64-10.8z" fill="#fff"/><path d="m43.16 9.37c3.3.21-1.56 2.99 0 0z" fill="#999"/><path d="m39.86 13.53c-1.82-1.1-1.27-4.6 1.21-3.63.05 1.36-.35 2.57-1.21 3.63z" fill="#6c6c6c"/><path d="m68.64 13.75c2.37-.73 4.68-1.64 6.99-2.54.06 1.32.13 2.63.2 3.94-1.73-.27-3.46-.53-5.19-.84l-2-.56z" fill="#646364"/><path d="m75.53 19.18c3.45-1.24 5.44-4.21 6.67-7.51.9 1.89.6 4.02.62 6.05-.56.71-1.12 1.43-1.67 2.15.27.54.82 1.64 1.09 2.19-2.67 1-5.32 2.06-7.95 3.17.93.88 1.85 1.77 2.77 2.66-2.72-.47-5.39-1.13-8.05-1.84l2.13.32c.21-.49.39-.99.57-1.49-2.1 1.85-4.82.04-7.21-.07.58-.25 1.74-.73 2.32-.97-1.07-1.66-2.13-3.31-3.18-4.97.8.08 2.39.22 3.18.3.58.14 1.74.42 2.32.57 1.25.41 2.54.72 3.85.93 1.39.22 2.79.46 4.18.7-.54-.73-1.09-1.46-1.64-2.19z" fill="#222"/><path d="m47.49 13.39c1.53-.2 3.07-.34 4.62-.45v5.46c-.56.05-1.68.16-2.24.21-1.96-1.01-1.84-3.38-2.38-5.22z" fill="#3b3b3b"/><path d="m52.11 12.94c1.38-.06 2.75-.12 4.13-.17-.02 1.41-.05 2.82-.07 4.23 2.22.16 4.46.21 6.69.14.14-1.35.29-2.69.44-4.04 1.56.12 3.12.31 4.67.55-.05 1.61-.13 3.22-.24 4.83-5.21-.05-10.42-.44-15.62-.08v-5.46z" fill="#242424"/><path d="m56.24 12.77c2.35.2 4.71.23 7.06.33-.15 1.35-.3 2.69-.44 4.04-2.23.07-4.47.02-6.69-.14.02-1.41.05-2.82.07-4.23z" fill="#070707"/><path d="m39.97 15.5c2.4-1.02 4.93-1.73 7.52-2.11.54 1.84.42 4.21 2.38 5.22-3.29.41-6.56 1-9.7 2.07-.06-1.73-.13-3.45-.2-5.18z" fill="#595959"/><path d="m230.72 15.81c1.7-1.4 4.18-1.37 6.23-2.06-.29 2.07-.4 5.05-3.01 5.55-2.11 1.18-4.89-1.52-3.22-3.49z" fill="#fff"/><path d="m302.1 18.94c-2.49-4.12 3.57-4.47 6.09-5.21.47 3.37-2.55 7.33-6.09 5.21z" fill="#fff"/><path d="m36.2 17.01c1.27-.48 2.52-.99 3.77-1.51.07 1.73.14 3.45.2 5.18-1.51.6-2.83 1.54-3.99 2.67.6-.17 1.81-.53 2.41-.7.64 1.52 1.29 3.03 1.93 4.55-1.89.64-3.73 1.52-5.01 3.09 2.45-.67 4.81-1.62 7.23-2.42.31 2.3.58 4.62.76 6.94-.79.26-2.38.78-3.17 1.05-1.33.45-2.66.93-3.99 1.41-.34-.42-1.04-1.26-1.38-1.68-.55-2.19-.96-4.42-1.53-6.62.76-1.77 1.58-3.5 2.48-5.21-1.48-2.24-1.65-4.72.29-6.75z" fill="#353535"/><path d="m49.87 18.61c.56-.05 1.68-.16 2.24-.21 5.2-.36 10.41.03 15.62.08-.23.17-.68.51-.91.69-.79-.08-2.38-.22-3.18-.3-4.06-.31-8.12.08-12.17.47-.21.79-.64 2.38-.85 3.18.01-.85.03-2.54.05-3.39-2 .53-4 1.06-5.99 1.6l-.08 3.76c-.2-1.24-.4-2.47-.59-3.71-1.81.62-3.6 1.27-5.42 1.87-.6.17-1.81.53-2.41.7 1.16-1.13 2.48-2.07 3.99-2.67 3.14-1.07 6.41-1.66 9.7-2.07z" fill="#bdbdbd"/><path d="m51.47 19.34c4.05-.39 8.11-.78 12.17-.47 1.05 1.66 2.11 3.31 3.18 4.97-.58.24-1.74.72-2.32.97-5.06-.05-10.19-.68-15.2.26.49-.82 1.03-1.63 1.32-2.55.21-.8.64-2.39.85-3.18z" fill="#0b0b0b"/><path d="m69.14 19.74c1.23-.64 3.22-1.64 4.3-.25-.11.29-.34.88-.45 1.18-1.31-.21-2.6-.52-3.85-.93z" fill="#585658"/><path d="m44.68 20.73c1.99-.54 3.99-1.07 5.99-1.6-.02.85-.04 2.54-.05 3.39-.29.92-.83 1.73-1.32 2.55-2.93.71-5.89 1.3-8.78 2.13-.64-1.52-1.29-3.03-1.93-4.55 1.82-.6 3.61-1.25 5.42-1.87.19 1.24.39 2.47.59 3.71l.08-3.76z" fill="#545454"/><path d="m53.15 20.3c3.33.29-1.65 2.95 0 0z" fill="#888"/><path d="m47.07 21.22c3.27.21-1.55 3.01 0 0z" fill="#9c9c9c"/><path d="m74.29 25.23c2.63-1.11 5.28-2.17 7.95-3.17.13 1.22.24 2.43.33 3.65l.3.97c-.5.45-1.51 1.36-2.01 1.81-.72-.02-1.44-.04-2.15-.06-.24.61-.47 1.21-.7 1.82-2.58.88-5.18 2.02-7.96 2.02-4.39-.5-8.44-3.1-10.56-7 3.19-.12 6.4.03 9.52.78 2.66.71 5.33 1.37 8.05 1.84-.92-.89-1.84-1.78-2.77-2.66z" fill="#050505"/><path d="m49.3 25.07c5.01-.94 10.14-.31 15.2-.26 2.39.11 5.11 1.92 7.21.07-.18.5-.36 1-.57 1.49l-2.13-.32c-3.12-.75-6.33-.9-9.52-.78-1.96.03-3.92.13-5.87.3-1.95.24-3.88.6-5.8 1-1.71.38-3.41.78-5.08 1.3-2.42.8-4.78 1.75-7.23 2.42 1.28-1.57 3.12-2.45 5.01-3.09 2.89-.83 5.85-1.42 8.78-2.13z" fill="#bcbcbc"/><path d="m47.82 26.57c1.92-.4 3.85-.76 5.8-1 1.04 2.78 2.57 5.34 4.42 7.66-2.72-.02-5.43.08-8.14.32-.7-2.32-1.39-4.65-2.08-6.98z" fill="#3f3f3f"/><path d="m53.62 25.57c1.95-.17 3.91-.27 5.87-.3 2.12 3.9 6.17 6.5 10.56 7 2.78 0 5.38-1.14 7.96-2.02.23-.61.46-1.21.7-1.82.71.02 1.43.04 2.15.06.5-.45 1.51-1.36 2.01-1.81 1.66 3.37.54 7.06-1.15 10.17-.27-.15-.8-.44-1.07-.59-.34-.14-1-.42-1.34-.56-6.73-2.72-14.17-2.09-21.27-2.47-1.85-2.32-3.38-4.88-4.42-7.66z" fill="#212121"/><path d="m42.74 27.87c1.67-.52 3.37-.92 5.08-1.3.69 2.33 1.38 4.66 2.08 6.98-2.16.24-4.3.65-6.4 1.26-.18-2.32-.45-4.64-.76-6.94z" fill="#5c5c5c"/><path d="m43.5 34.81c2.1-.61 4.24-1.02 6.4-1.26 2.71-.24 5.42-.34 8.14-.32 7.1.38 14.54-.25 21.27 2.47-7.33 5.19-16.67 5.07-25.26 4.65-4.86-.27-9.92-1.23-13.72-4.49.79-.27 2.38-.79 3.17-1.05z" fill="#c2bab9"/><path d="m34.96 35.59c.34.42 1.04 1.26 1.38 1.68.63.79 1.23 1.59 1.83 2.4-2.9 15.01-4.33 30.24-5.83 45.43-.19 1.21-.37 2.42-.55 3.64-1.87 6.54-.78 13.64-3.35 19.98 1.34-18.23 2.93-36.47 5.29-54.61.57-6.16 3.21-12.35 1.23-18.52z" fill="#a6a7a6"/><path d="m36.34 37.27c1.33-.48 2.66-.96 3.99-1.41 3.8 3.26 8.86 4.22 13.72 4.49 8.59.42 17.93.54 25.26-4.65.34.14 1 .42 1.34.56-.95 2.55-1.67 5.2-1.56 7.95-.74-1.37-1-3.52-2.75-3.93-7.43 2.87-15.55 2.91-23.4 2.52-5.06-.24-10-1.49-14.77-3.13-.6-.81-1.2-1.61-1.83-2.4z" fill="#e0e1dc"/><path d="m80.65 36.26c.27.15.8.44 1.07.59-.57 1.98-1.29 4.04-.82 6.13.91 5.74 1.91 11.47 2.77 17.22 2.83 16.01 3.54 32.3 6.18 48.34-3.82-8.72-2.57-18.57-4.42-27.75-.26-.32-.76-.96-1.02-1.29l-.01-.11c-1.33-11.79-3.41-23.48-5.31-35.18-.11-2.75.61-5.4 1.56-7.95z" fill="#a6a7a6"/><path d="m38.17 39.67c4.77 1.64 9.71 2.89 14.77 3.13 7.85.39 15.97.35 23.4-2.52 1.09 6.19 1.46 12.47 1.62 18.74.52 6.69 1.23 13.38 1.12 20.1-13.77-1.4-27.69-1.47-41.46-.02-1.18.09-2.37.18-3.55.26-.62 1.9-1.24 3.8-1.73 5.74 1.5-15.19 2.93-30.42 5.83-45.43z" fill="#fffefb"/><path d="m76.34 40.28c1.75.41 2.01 2.56 2.75 3.93 1.9 11.7 3.98 23.39 5.31 35.18-1.78-.05-3.55-.12-5.32-.27.11-6.72-.6-13.41-1.12-20.1-.16-6.27-.53-12.55-1.62-18.74z" fill="#f2f2f0"/><path d="m278.02 44.87c18.3-2.62 37.1 1.57 53.35 10.15l-.03.32c-.66 6.18-1.01 12.41-1.05 18.63-16.44-1.32-32.87-2.89-49.32-4.12.6-8.36.64-16.75.95-25.12-1.3.03-2.6.08-3.9.14z" fill="#d7f670"/><path d="m231.17 66.57c12.91-11.8 29.49-19.55 46.85-21.7 1.3-.06 2.6-.11 3.9-.14-.31 8.37-.35 16.76-.95 25.12-16.6-1.04-33.18-2.55-49.8-3.28z" fill="#c2ef00"/><path d="m330.29 73.97c.04-6.22.39-12.45 1.05-18.63 2.34 1.28 4.63 2.66 6.81 4.23-2.05 28.77-3.29 57.6-5.14 86.39-1.11 20.74-2.65 41.46-3.47 62.22v.26c-1.18.55-2.35 1.1-3.51 1.66 1.86-29.56 3.62-59.12 5.45-88.68-1.16-.06-2.31-.11-3.46-.16.72-15.76 1.76-31.52 2.27-47.29z" fill="#87a721"/><path d="m338.15 59.57c2.29 1.61 4.56 3.28 6.63 5.18-2.72 46.3-5.29 92.63-8.16 138.92-1.75 2.2-4.64 3.21-7.08 4.51.82-20.76 2.36-41.48 3.47-62.22 1.85-28.79 3.09-57.62 5.14-86.39z" fill="#a6a7a6"/><path d="m203.95 116.5c2.92-19.12 12.98-36.93 27.22-49.93 16.62.73 33.2 2.24 49.8 3.28 16.45 1.23 32.88 2.8 49.32 4.12-.51 15.77-1.55 31.53-2.27 47.29-16.35-.65-32.7-1.3-49.04-1.96-25.01-1.02-50.01-2.01-75.03-2.8z"/><path d="m37.62 79.1c13.77-1.45 27.69-1.38 41.46.02 1.77.15 3.54.22 5.32.27l.01.11c1.59 12.12 1.04 25.04 6.95 36.11 4.7 9.13 11.26 17.16 15.92 26.3 2.78 5.39 4 11.38 5.19 17.28-2.51-.18-5-.45-7.47-.86-2.44-15.23-10.41-30.26-23.83-38.48-11.65-7.15-27.62-8.36-39.34-.8-.84.6-1.66 1.22-2.49 1.83-4.72 1.65-8 5.6-11.08 9.33-6.65 8.37-10.1 18.68-12.97 28.83-3.22-.05-6.44-.08-9.66-.1 3.32-13.64 12.87-24.44 18.6-36.99l.15-.25c.06-.1.18-.3.24-.4l.14-.27c1-1.74 1.99-3.5 2.79-5.35-.03 2.31.52 4.57 1.42 6.69 2.08-1.69 4.34-3.59 4.82-6.39.95-5.27.83-10.66 1.59-15.96.88-6.96.67-14.05 2.24-20.92z" fill="#dcfc75"/><path d="m34.07 79.36c1.18-.08 2.37-.17 3.55-.26-1.57 6.87-1.36 13.96-2.24 20.92-1.36-1.15-2.73-2.3-4.1-3.45.3-2.6.4-5.22.51-7.83.18-1.22.36-2.43.55-3.64.49-1.94 1.11-3.84 1.73-5.74z" fill="#d7ec91"/><path d="m84.41 79.5c.26.33.76.97 1.02 1.29 1.85 9.18.6 19.03 4.42 27.75.64 1.58 1.32 3.14 1.98 4.7 4.83 12.71 15.56 22.43 19.27 35.69 5.14 18.68 5.64 38.29 4.59 57.52-.06 2.43-.16 4.89-1.04 7.19-.38-5.88.46-11.74.49-17.62.15-12.32-.37-24.71-2.67-36.83-1.19-5.9-2.41-11.89-5.19-17.28-4.66-9.14-11.22-17.17-15.92-26.3-5.91-11.07-5.36-23.99-6.95-36.11z" fill="#7d9a21"/><g><path d="m138.91 81.85c.58.06 1.73.19 2.31.25 2.05 5.16 3.45 10.56 5.36 15.77 1.58-5.3 3.31-10.58 5.32-15.74.55-.07 1.65-.22 2.2-.3-2.07 6.05-4.39 12.01-6.42 18.08-.59.02-1.76.05-2.35.07-2.08-6.06-4.33-12.07-6.42-18.13z"/><path d="m182.59 82.28c.02 2.31-.72 5.29 2.61 5.3-.64.79-1.49 1.25-2.55 1.36.03 2.93-.25 5.89.24 8.8.54.18 1.64.56 2.19.74.27 2.47-3.14 1.91-4.12.52-.6-3.34-.15-6.75-.41-10.11-.47-.19-1.42-.56-1.89-.74.5-.42 1.49-1.25 1.99-1.67l-.04-2.68c.5-.38 1.48-1.14 1.98-1.52z"/><path d="m159.97 100.15c-6.99-.84-6.24-13.75.97-13.44 3.82.01 5.31 4.11 5.37 7.32-3.12-.01-6.24-.05-9.36.15.72 1.57 1.11 3.65 3.02 4.21 2.82.8 3.48-3.49 6.35-2.4-.97 2.59-3.35 4.93-6.35 4.16z"/><path d="m169.99 87.96c2.94-2.72 8-.93 8.47 3.09-2.56.62-2.99-2.89-5.47-2.58-3.56 1.26-3.47 6.39-1.67 9.07 2 2.14 5.04.05 5.45-2.38l1.9.5c-.77 2.46-2.7 5.05-5.61 4.55-5.62-.57-6.37-8.75-3.07-12.25z"/><path d="m189.14 87.19c3.4-1.69 7.71.93 7.85 4.7.78 3.5-.88 8.16-4.99 8.37-6.84.51-8.15-10.23-2.86-13.07z"/><path d="m199.47 99.93c.16-4.39-.18-8.8.24-13.17 1.95 1.49 4.08-.22 6.23.26-.12.57-.35 1.72-.46 2.29-.65-.1-1.94-.31-2.59-.41-2.07 3.32-1.18 7.36-1.31 11.05-.53 0-1.58-.02-2.11-.02z"/></g><path d="m157.21 92.2c.53-1.69 1.48-3.95 3.65-3.68 2.09-.11 2.79 2.07 3.16 3.72-2.27-.01-4.54-.02-6.81-.04z" fill="#fff"/><path d="m28.44 108.72c2.57-6.34 1.48-13.44 3.35-19.98-.11 2.61-.21 5.23-.51 7.83-.49 6.51-1.71 12.9-3.73 19.11-.8 1.85-1.79 3.61-2.79 5.35.36-1.83.66-3.66 1.03-5.48.89-2.28 1.8-4.54 2.65-6.83z" fill="#81993e"/><path d="m189.37 89.38c1.68-1.83 4.77-.61 5.3 1.65.75 2.59.51 6.59-2.64 7.42-4.5.16-5.13-6.39-2.66-9.07z" fill="#fff"/><path d="m27.55 115.68c2.02-6.21 3.24-12.6 3.73-19.11 1.37 1.15 2.74 2.3 4.1 3.45-.76 5.3-.64 10.69-1.59 15.96-.48 2.8-2.74 4.7-4.82 6.39-.9-2.12-1.45-4.38-1.42-6.69z" fill="#d5e69d"/><path d="m41.83 119.05c11.72-7.56 27.69-6.35 39.34.8 13.42 8.22 21.39 23.25 23.83 38.48 2.51 17.64 2.58 35.54 2.26 53.32-3.27.58-6.24 2.22-8.7 4.41-17.62-1.07-35.28-1.29-52.92-1.13.92-15.81 1.43-31.64 2.02-47.46.2-5.98.97-11.99.2-17.97-5.45 21.49-8.94 43.48-11.43 65.5-1.75.01-3.5.02-5.24.03 2.2-15.34 5.29-30.55 7.2-45.94 1.12-8.27.27-17.08-4.18-24.3-1.41-2.36-3.73-5.39-6.87-4.41-3.19 1.63-4.42 5.36-5.61 8.5-3.49 11.36-4.31 23.29-5.38 35.06-.45 10.51-1.03 21.04-.67 31.56-2.11.05-4.22-.08-6.33-.21-.87-18.88 1.12-37.96 5.94-56.25 2.87-10.15 6.32-20.46 12.97-28.83 3.08-3.73 6.36-7.68 11.08-9.33l-1.27 1.19c-2.09 1.92-4.21 3.82-6.1 5.94-.79 1.48-1.86 3.29-.94 4.97 1.67 3.16 5.46 4.08 8.54 5.31 8.46 2.83 16.02 9.31 25.38 8.42 5.45.52 10.92-3.38 12.26-8.66.17-3.29.04-6.71-1.46-9.72-1.61-2.36-3.55-4.5-5.86-6.19-3.06-2.3-6.82-4.2-10.76-3.5-5.72.91-11.58 1.79-17.3.41z" fill="#c2ef00"/><path d="m91.83 113.24c2.79 3.57 4.78 7.67 7.29 11.43 4.69 7.47 10.18 14.65 12.76 23.21 6.38 21.72 5.46 44.61 4.63 66.96-.61-.42-1.23-.83-1.86-1.2.88-2.3.98-4.76 1.04-7.19 1.05-19.23.55-38.84-4.59-57.52-3.71-13.26-14.44-22.98-19.27-35.69z" fill="#b0b0b0"/><path d="m2.54 163.66c2.83-18.06 15.52-32.09 23.25-48.11-.37 1.82-.67 3.65-1.03 5.48l-.14.27c-.06.1-.18.3-.24.4l-.15.25c-1.73 2.07-3.33 4.27-4.64 6.65-5.41 9.51-11.85 18.66-14.82 29.33-.6 2.03-.51 4.17-.63 6.26l-.26.59c-.13.16-.38.46-.51.61-.87 6.44-1.97 13-1.12 19.5.01.34.03 1.01.04 1.35l-1.05-.78-.54-.42c.13-7.15.82-14.3 1.84-21.38z" fill="#a2a2a2"/><path d="m203.95 116.5c25.02.79 50.02 1.78 75.03 2.8.16 5.56-.27 11.14.06 16.7-.1 1.31 1.24 1.98 1.99 2.84-2.68.09-5.6.39-7.58 2.41-4.03 3.85-4.24 10.25-2.69 15.29 1.15 3.59 4.59 5.81 8.2 6.32.02 10.32-.01 20.64.08 30.96-1.97.24-4.08.27-5.83 1.32-3.21 1.96-4.06 7.15-1.1 9.71 3.13 2.32 7.32 2.38 10.61 4.4 2.04 2.4-.99 5.63-3.67 5.3-3.17.56-5.27-2.04-6.23-4.69-1.15.26-2.29.52-3.42.8.88 2.15 1.95 4.27 3.65 5.92-1.65-.17-3.29-.42-4.92-.71-.17-.47-.5-1.43-.66-1.91-1.12-.18-2.23-.37-3.34-.56-.21-5.34-.13-10.68-.11-16.01.89 0 2.68.01 3.57.02 0-.77-.01-2.29-.01-3.05-.88.04-2.63.11-3.5.14-.07-2.68-.09-5.37-.11-8.05-1.17.77-2.33 1.54-3.49 2.32-.01 1.79-.02 3.58-.04 5.38-2.21-.24-2.83 1.22-2.82 3.16.71.04 2.14.12 2.86.16-.01 5.17-.04 10.34.05 15.51-2.08-.38-4.14-.82-6.2-1.28v-.43c-.33-4.95 1.07-10.47-1.57-14.96-3.24-3.91-9.43-2.62-12.38 1.01.04-.73.12-2.19.16-2.91h-3.27c0 2.14-.03 4.28.06 6.42l.63.74c-13.44-9.97-24.26-23.89-29.81-39.74 2.07-1.71 3.57-3.93 4.54-6.42-1.23-.16-2.45-.32-3.68-.47-.58.94-1.16 1.88-1.74 2.82-1.14-1.82-1.82-3.85-2.34-5.92 2.63-.02 5.27-.03 7.9-.07-.3-3.59-.55-7.64-3.34-10.29-1.68-1.88-4.25-2.3-6.59-2.79-.35-7.4-.37-14.88 1.05-22.19z" fill="#e7e7e6"/><path d="m39.34 120.88c.83-.61 1.65-1.23 2.49-1.83 5.72 1.38 11.58.5 17.3-.41 3.94-.7 7.7 1.2 10.76 3.5-4.75 1.94-9.95.98-14.93 1.1-5.63-.27-11.47.82-16.89-1.17l1.27-1.19z" fill="#e5f893"/><path d="m278.98 119.3c16.34.66 32.69 1.31 49.04 1.96 1.15.05 2.3.1 3.46.16-1.83 29.56-3.59 59.12-5.45 88.68-8.84 4.07-18.3 6.91-27.99 7.92-5.38.31-10.94 1.29-16.16-.56 4.08-1.47 6.82-6.67 4.1-10.51-2.96-3.32-8-2.92-11.56-5.26-2.24-2.35 1.08-5.03 3.53-4.6 2.52-.41 4.14 1.59 5.08 3.63 1.15-.16 2.32-.33 3.48-.5-.77-3.67-3.78-6.12-7.47-6.4-.09-10.32-.06-20.64-.08-30.96 4.82.29 8.97-2.9 10.26-7.49-1.21-.13-2.42-.26-3.63-.38-1.26 2.46-3.39 5.28-6.56 4.46-3.8-.43-5.05-4.43-5.63-7.61 5.29-.04 10.58-.03 15.88 0-.2-3.28-.33-6.86-2.51-9.53-1.37-1.9-3.63-2.73-5.74-3.47-.75-.86-2.09-1.53-1.99-2.84-.33-5.56.1-11.14-.06-16.7z" fill="#ebeae9"/><path d="m24.38 121.7c.06-.1.18-.3.24-.4-.06.1-.18.3-.24.4z" fill="#89a900"/><path d="m31.97 128.01c1.89-2.12 4.01-4.02 6.1-5.94 5.42 1.99 11.26.9 16.89 1.17 4.98-.12 10.18.84 14.93-1.1 2.31 1.69 4.25 3.83 5.86 6.19-4.11 1.52-8.52.99-12.79.98-8.3-.1-16.6-.09-24.9-.06-2.11.07-4.13-.54-6.09-1.24z" fill="#dff779"/><path d="m19.59 128.6c1.31-2.38 2.91-4.58 4.64-6.65-5.73 12.55-15.28 23.35-18.6 36.99-.37 1.56-.73 3.13-1.21 4.67-.07.14-.21.44-.28.58.12-2.09.03-4.23.63-6.26 2.97-10.67 9.41-19.82 14.82-29.33z" fill="#87a721"/><path d="m31.03 132.98c-.92-1.68.15-3.49.94-4.97 1.96.7 3.98 1.31 6.09 1.24 8.3-.03 16.6-.04 24.9.06 4.27.01 8.68.54 12.79-.98 1.5 3.01 1.63 6.43 1.46 9.72-5.74-.36-11.49-.26-17.24-.26-6.8.05-13.64-.46-20.4.5-3.08-1.23-6.87-2.15-8.54-5.31z" fill="#d6f453"/><path d="m241.82 130.73c1.19-.01 2.38-.02 3.58-.02-.02 1.49-.04 2.99-.07 4.49-1.17-.03-2.33-.05-3.5-.07-.01-1.47-.01-2.94-.01-4.4z"/><path d="m39.57 138.29c6.76-.96 13.6-.45 20.4-.5 5.75 0 11.5-.1 17.24.26-1.34 5.28-6.81 9.18-12.26 8.66-9.36.89-16.92-5.59-25.38-8.42z" fill="#cbf127"/><g><path d="m202.9 138.69c2.34.49 4.91.91 6.59 2.79 2.79 2.65 3.04 6.7 3.34 10.29-2.63.04-5.27.05-7.9.07l-.16-.78c-.14-.61-.4-1.82-.53-2.43 1.62-.01 3.25-.03 4.87-.04-.47-3.3-2.51-6.08-5.88-6.79-.08-.77-.24-2.33-.33-3.11z"/><path d="m220.24 142.82c1.14-3.57 5.38-5.04 8.28-2.5-.31.78-.95 2.35-1.26 3.14-2.09-.75-5.09-.64-5.85 1.91-1.6 5.46-.52 11.29-.84 16.91-1.2-.03-2.39-.05-3.58-.07.05-7.6.01-15.2.02-22.8.8 0 2.41-.01 3.21-.01.01.86.01 2.57.02 3.42z"/><path d="m241.78 139.5c1.2-.04 2.41-.08 3.62-.11-.03 7.62-.01 15.24-.02 22.86h-3.56c-.02-7.58.05-15.17-.04-22.75z"/><path d="m249.97 153.95c-.75-5.26.24-12.39 5.98-14.41 5.04-2.13 11.05 1.16 11.79 6.62-.79.11-2.37.34-3.17.46-1.24-2.06-2.63-5.06-5.6-4.46-3.89.19-5.61 4.52-5.5 7.9-.3 3.79.85 9.29 5.57 9.47 3.2.32 5.01-2.74 5.47-5.47 1.19.06 2.38.14 3.57.22-.54 4.2-3.66 8.2-8.15 8.4-5.16.72-9.57-3.79-9.96-8.73z"/><path d="m273.45 141.25c1.98-2.02 4.9-2.32 7.58-2.41 2.11.74 4.37 1.57 5.74 3.47 2.18 2.67 2.31 6.25 2.51 9.53-5.3-.03-10.59-.04-15.88 0 .58 3.18 1.83 7.18 5.63 7.61 3.17.82 5.3-2 6.56-4.46 1.21.12 2.42.25 3.63.38-1.29 4.59-5.44 7.78-10.26 7.49-3.61-.51-7.05-2.73-8.2-6.32-1.55-5.04-1.34-11.44 2.69-15.29z"/></g><path d="m27.34 140.38c3.14-.98 5.46 2.05 6.87 4.41 4.45 7.22 5.3 16.03 4.18 24.3-1.91 15.39-5 30.6-7.2 45.94-5.17.11-10.34.29-15.51.47-.36-10.52.22-21.05.67-31.56 1.07-11.77 1.89-23.7 5.38-35.06 1.19-3.14 2.42-6.87 5.61-8.5z" fill="#d4f44d"/><path d="m203.23 141.8c3.37.71 5.41 3.49 5.88 6.79-1.62.01-3.25.03-4.87.04.13.61.39 1.82.53 2.43-.88-3.02-1.12-6.16-1.54-9.26z" fill="#e8e8e7"/><path d="m273.84 148.64c-.09-3.7 3.33-7.49 7.21-6.31 2.93.6 4.04 3.66 4.51 6.27-3.91.04-7.82.01-11.72.04z" fill="#e9e9e8"/><path d="m36.43 215c2.49-22.02 5.98-44.01 11.43-65.5.77 5.98 0 11.99-.2 17.97-.59 15.82-1.1 31.65-2.02 47.46-3.07.02-6.14.04-9.21.07z" fill="#d8f55e"/><path d="m207.27 157.76c.58-.94 1.16-1.88 1.74-2.82 1.23.15 2.45.31 3.68.47-.97 2.49-2.47 4.71-4.54 6.42-.44-1.12-.88-2.25-1.31-3.37l.43-.7z"/><path d="m105 158.33c2.47.41 4.96.68 7.47.86 2.3 12.12 2.82 24.51 2.67 36.83-.03 5.88-.87 11.74-.49 17.62-2.22-1.39-4.81-1.87-7.39-1.99.32-17.78.25-35.68-2.26-53.32z" fill="#d8f872"/><path d="m5.63 158.94c3.22.02 6.44.05 9.66.1-4.82 18.29-6.81 37.37-5.94 56.25l-.27.27c-2.37.22-4.75.26-7.13.26l-.01-.56c.81-9.64.39-19.35.35-29.02-.01-.34-.03-1.01-.04-1.35.84-6.67 1.49-13.38 1.63-20.11l.26-.59c.07-.14.21-.44.28-.58.48-1.54.84-3.11 1.21-4.67z" fill="#d8f872"/><path d="m3.37 165.39c.13-.15.38-.45.51-.61-.14 6.73-.79 13.44-1.63 20.11-.85-6.5.25-13.06 1.12-19.5z" fill="#87a721"/><path d="m155.26 184.89c3.05-.77 6.1-1.54 9.15-2.28-.84 3.07-1.71 6.14-2.61 9.19-.49-.49-1.47-1.46-1.96-1.95-1.25-1.27-2.48-2.55-3.66-3.89l-.92-1.07z"/><path d="m0 184.49.7.55.54.42c.19 9.84-.02 19.68.05 29.52l-1.29-.61v-29.88z" fill="#c9cac9"/><path d="m1.24 185.46 1.05.78c.04 9.67.46 19.38-.35 29.02-.16-.07-.49-.21-.65-.28-.07-9.84.14-19.68-.05-29.52z" fill="#7d9a21"/><path d="m156.18 185.96c1.18 1.34 2.41 2.62 3.66 3.89-10.55 10.27-21.15 20.49-31.7 30.77-.54-1.28-1.08-2.56-1.61-3.83 10.08-9.89 20.33-19.62 30.18-29.72l-.53-1.11z" fill="#6d808c"/><g><path d="m260.48 188.77c1.16-.78 2.32-1.55 3.49-2.32.02 2.68.04 5.37.11 8.05.87-.03 2.62-.1 3.5-.14 0 .76.01 2.28.01 3.05-.89-.01-2.68-.02-3.57-.02-.02 5.33-.1 10.67.11 16.01 1.11.19 2.22.38 3.34.56.16.48.49 1.44.66 1.91-2.57-.64-5.13-1.32-7.59-2.29l-.01-.6c-.09-5.17-.06-10.34-.05-15.51-.72-.04-2.15-.12-2.86-.16-.01-1.94.61-3.4 2.82-3.16.02-1.8.03-3.59.04-5.38z"/><path d="m240.38 197.32c2.95-3.63 9.14-4.92 12.38-1.01 2.64 4.49 1.24 10.01 1.57 14.96-1.2-.64-2.39-1.27-3.58-1.91-.03-3.18.31-6.45-.5-9.56-1.04-2.7-4.78-3.15-6.93-1.57-1.87 1.19-2.01 3.61-2.59 5.53-.93-.72-1.88-1.43-2.77-2.19l-.63-.74c-.09-2.14-.06-4.28-.06-6.42h3.27c-.04.72-.12 2.18-.16 2.91z"/><path d="m273.21 195.14c1.75-1.05 3.86-1.08 5.83-1.32 3.69.28 6.7 2.73 7.47 6.4-1.16.17-2.33.34-3.48.5-.94-2.04-2.56-4.04-5.08-3.63-2.45-.43-5.77 2.25-3.53 4.6 3.56 2.34 8.6 1.94 11.56 5.26 2.72 3.84-.02 9.04-4.1 10.51-2.97.58-5.97-.15-8.83-.88-1.7-1.65-2.77-3.77-3.65-5.92 1.13-.28 2.27-.54 3.42-.8.96 2.65 3.06 5.25 6.23 4.69 2.68.33 5.71-2.9 3.67-5.3-3.29-2.02-7.48-2.08-10.61-4.4-2.96-2.56-2.11-7.75 1.1-9.71z"/></g><path d="m243.32 198.23c2.15-1.58 5.89-1.13 6.93 1.57.81 3.11.47 6.38.5 9.56-3.52-1.53-6.78-3.55-10.02-5.6.58-1.92.72-4.34 2.59-5.53z" fill="#e6e6e6"/><path d="m98.56 216.06c2.46-2.19 5.43-3.83 8.7-4.41 2.58.12 5.17.6 7.39 1.99.63.37 1.25.78 1.86 1.2 2.22 1.81 3.69 4.3 5.2 6.7-.57.56-1.15 1.11-1.72 1.67-.96-2.21-2.29-4.23-3.63-6.23-.33 5.54-.51 11.08-.44 16.63 2.48-2.3 3.74-5.45 4.44-8.68.51.59 1.04 1.16 1.6 1.72-1.14 4.17-3.44 8.03-7.06 10.51-.39.23-1.17.68-1.56.9-3.98.9-8.14.67-12.11-.18-.19-.26-.57-.76-.76-1.02-.67-.96-1.34-1.91-2.05-2.84-1.35-1.76-2.85-3.4-4.18-5.18.03-.35.08-1.05.1-1.41.13-1.45.27-2.9.38-4.35 1.16-2.41 2.28-4.84 3.84-7.02z" fill="#adbac7"/><path d="m0 214.37 1.29.61c.16.07.49.21.65.28l.01.56c-.21 2.24-.33 4.5-.27 6.76l-.6-.76c-.27-.34-.81-1.02-1.08-1.36v-6.09z" fill="#e8e8e8"/><path d="m101.12 216.48c3.14-3.08 7.99-3.31 11.84-1.51 3.96 1.42 1.79 6.61 1.77 9.72l-.29-.96c-.11-2.2-.01-4.41.05-6.61-4.45-.25-8.9-.88-13.37-.64z" fill="#b9de82"/><path d="m9.35 215.29c2.11.13 4.22.26 6.33.21 5.17-.18 10.34-.36 15.51-.47-.3 2.4-.59 4.8-.85 7.2 1.79-.06 3.58-.12 5.37-.19 3.11-.2 6.23-.03 9.34.31-4.37-.04-8.73.18-13.09.33-5.47.03-10.93.24-16.38.47 0-2.51-.02-5.01-.06-7.51-2.15.02-4.29.02-6.44-.08l.27-.27z" fill="#4d4d4d"/><path d="m31.19 215.03c1.74-.01 3.49-.02 5.24-.03-.25 2.34-.49 4.69-.72 7.04-1.79.07-3.58.13-5.37.19.26-2.4.55-4.8.85-7.2z"/><path d="m36.43 215c3.07-.03 6.14-.05 9.21-.07-.11 2.47-.21 4.95-.29 7.43l-.3-.01c-3.11-.34-6.23-.51-9.34-.31.23-2.35.47-4.7.72-7.04z" fill="#5e5e5e"/><path d="m45.64 214.93c17.64-.16 35.3.06 52.92 1.13-1.56 2.18-2.68 4.61-3.84 7.02-6.54-.16-13.07-.38-19.61-.47-9.92-.37-19.84-.18-29.76-.25.08-2.48.18-4.96.29-7.43z"/><path d="m1.95 215.82c2.38 0 4.76-.04 7.13-.26 2.15.1 4.29.1 6.44.08.04 2.5.06 5 .06 7.51-4.57.18-9.13.34-13.69.48-.05-.26-.16-.79-.21-1.05-.06-2.26.06-4.52.27-6.76z"/><path d="m97.25 223.37c.57-2.63 2.06-4.94 3.87-6.89 4.47-.24 8.92.39 13.37.64-.06 2.2-.16 4.41-.05 6.61-5.38.12-10.74-.43-16.12-.37l-1.07.01z" fill="#101c2a"/><path d="m116.36 216.98c1.34 2 2.67 4.02 3.63 6.23.09.43.28 1.29.37 1.72-.7 3.23-1.96 6.38-4.44 8.68-.07-5.55.11-11.09.44-16.63z" fill="#d9e5f3"/><path d="m121.71 221.54c1.59-1.6 3.19-3.19 4.82-4.75.53 1.27 1.07 2.55 1.61 3.83-1.11 1.1-2.21 2.22-3.3 3.35 3.14 2.83 6.33 5.63 9.46 8.48-.93.92-1.85 1.85-2.77 2.77-3.21-2.83-6.44-5.65-9.57-8.57-.56-.56-1.09-1.13-1.6-1.72-.09-.43-.28-1.29-.37-1.72.57-.56 1.15-1.11 1.72-1.67z" fill="#7c8e9c"/><path d="m0 220.46c.27.34.81 1.02 1.08 1.36.66 26.45 4.05 52.73 5.3 79.15 1.41 18.22.95 36.56-1.43 54.68-2.4 8.81-3.36 17.88-4.95 26.83v-162.02z" fill="#fff"/><path d="m1.08 221.82.6.76c.05.26.16.79.21 1.05 1.62 12.02 1.69 24.21 2.83 36.29.87 17 2.43 33.97 3.31 50.96.31 15.55.22 31.22-2.63 46.55l-.45-1.78c2.38-18.12 2.84-36.46 1.43-54.68-1.25-26.42-4.64-52.7-5.3-79.15z" fill="#a6a7a6"/><path d="m45.05 222.35.3.01c9.92.07 19.84-.12 29.76.25-.07 1-.22 3.02-.3 4.03-.42-.41-1.28-1.24-1.7-1.66l.39 2.12c-.84-.34-2.53-1.02-3.37-1.36.77 1.09 1.53 2.19 2.29 3.3-.55-.44-1.64-1.3-2.19-1.73-.23.66-.68 1.99-.91 2.65 1.84-.12 3.69-.23 5.53-.33-.1 1.46-.22 2.93-.47 4.37l-4.23-.15c.31 1.58.63 3.16.99 4.73 1.3-1.1 2.3-2.49 3.11-3.98l-.11.65c.07.68.23 2.05.3 2.73.2 1.4.37 2.81.49 4.23-1.45-.09-2.9-.17-4.35-.25l.32 4.2c.51-.84 1.53-2.53 2.03-3.38.27.79.55 1.59.82 2.38l1.17.18c.28 11.69-.41 23.4.39 35.06-.48.85-.95 1.71-1.4 2.58 2.22-.88 5.02-3.17 6.47.19-2.07.95-5.35.48-6.37 2.95-.05 1.33.69 2.5 1.12 3.71-.3 6.54-.14 13.08-.17 19.63-7.91-.11-15.82-.3-23.72-.07-4.74-.09-9.48-.04-14.22.09-.1-6.52.67-13.19-1.01-19.58 1.98-.43 4.62-1.2 4.47-3.7-1.18 1.17-2.51 3.58-4.35 1.81-.53-.6-1.59-1.82-2.12-2.42 2.34-.39 4.69-.67 7.04-.97-.48-1.62-1.18-3.19-2.55-4.24-2.71-1.79-2.67-5.17-2.97-8.04-.54-7.78-2.35-15.55-1.32-23.38.56-3.66.17-7.34-.26-10.98.13-.73.38-2.18.51-2.9.22-1.76.4-3.53.28-5.3l-.01-.57c-.01-.67-.03-2.02-.04-2.69l-.02-.46c-.59.04-1.78.12-2.38.17-.08-.89-.25-2.66-.33-3.55 4.36-.15 8.72-.37 13.09-.33z" fill="#f9f8f5"/><path d="m1.89 223.63c4.56-.14 9.12-.3 13.69-.48 5.45-.23 10.91-.44 16.38-.47.08.89.25 2.66.33 3.55-3.97.39-8.04.67-11.91-.51-.6 1.35-1.09 2.82-2.27 3.81.18-1.31.37-2.61.59-3.9-.76.78-1.51 1.57-2.27 2.37-.16-.47-.49-1.42-.65-1.89-.83-.24-1.67-.47-2.51-.71-.11.32-.33.96-.45 1.27-1.16-1.48-2.86-1.81-4.65-1.77.02 1.7.05 3.39.08 5.09 2.48-.04 4.96-.12 7.45-.24.22 1.47.41 2.95.58 4.43-1.2.31-2.44.36-3.66.15-.16.33-.47.99-.63 1.32-1.09-.66-2.24-1.19-3.44-1.6-.18 1.39-.36 2.79-.53 4.19.33-.58.98-1.74 1.3-2.32.23.37.68 1.13.91 1.51 1.95.1 3.9.17 5.85.25-.03 1.28-.04 2.56-.04 3.85-1.74 1.29-1.81 4.23.67 4.64.46 4.95.22 9.91.53 14.86 1.04 8.63.62 17.33 1.74 25.95-.32 7.78.94 15.48 1.08 23.24-3.77.06-7.53.29-11.28.6l-.75.06c-.88-16.99-2.44-33.96-3.31-50.96-1.14-12.08-1.21-24.27-2.83-36.29z" fill="#e8e8e7"/><path d="m75.11 222.61c6.54.09 13.07.31 19.61.47-.11 1.45-.25 2.9-.38 4.35-.55-.46-1.65-1.4-2.21-1.86-2.45-.72-4.89.07-7.02 1.29-1.03-.46-2.31-1.12-3.05.17 0 1.11.03 2.23.11 3.34.35-1.23.89-2.34 1.6-3.35.09.63.28 1.89.38 2.51 1.22.08 2.44.15 3.67.22.63.03 1.91.09 2.54.13.3.01.89.03 1.18.05.06-.84.18-2.51.24-3.35.79 1.2 1.56 2.4 2.34 3.61l.12-1.35c1.33 1.78 2.83 3.42 4.18 5.18l-.51.84c-.64-.27-1.92-.8-2.56-1.06l-.1.31c-1.48.18-2.96.32-4.44.4-.44.12-1.33.35-1.77.47l-.2-2.28c-.75 1.41-4.14 4.05-1.17 4.86.62-.04 1.87-.13 2.49-.17l-.02.84c-.44 14.09.2 28.19-.35 42.28-1.42-.73-2.98-.52-4.4.08l-1.68-.88c-.02 3.25-.02 6.49-.02 9.74l1.39.1c.04-2.77.17-5.53.57-8.26.93.07 1.86.17 2.78.32.62 2.98.06 6.18 1.53 8.97.07 6.41-.07 12.82.06 19.23-5.02-.27-10.04-.28-15.06-.35.03-6.55-.13-13.09.17-19.63 1.57-.27 3.12-.59 4.66-.98.45.27 1.34.81 1.78 1.08-.18-2.94.18-5.97-.57-8.84-1.17-1.98-3.88-1.09-5.69-.69-.8-11.66-.11-23.37-.39-35.06.81.13 1.63.27 2.45.41.4-.91.81-1.81 1.23-2.7-.42-.33-1.27-.98-1.69-1.3-.46.61-1.4 1.83-1.86 2.45l-.12-1.99c-.12-1.42-.29-2.83-.49-4.23 2.81-.38 5.65-.42 8.48-.23-.3-.99.52-3.04-.99-3.18-2.36-.13-4.72-.05-7.07-.33.32.71.96 2.11 1.27 2.81-.49-.45-1.49-1.35-1.99-1.8l.11-.65.13-.6c.25-1.44.37-2.91.47-4.37.04-.71.11-2.15.15-2.86.39.85 1.19 2.55 1.59 3.41.29-.84.86-2.51 1.14-3.35.22.9.66 2.69.88 3.59 1.81-.77 1-2.76 1.07-4.27-1.61.27-3.24.48-4.87.49.08-1.01.23-3.03.3-4.03z" fill="#f0f0ed"/><path d="m96.93 223.69 1.39-.33c5.38-.06 10.74.49 16.12.37-.8 4.07-.51 8.27-1.37 12.34-1.72.36-3.43.71-5.15 1.05-.18-.72-.55-2.16-.73-2.88-.34.13-1.02.4-1.36.54-.48-.13-1.45-.38-1.93-.5-1.21-.29-2.43-.54-3.65-.77-.51-1.19-1.76-2.26-1.61-3.63.46-1.3.94-2.62.94-4.02-.49.32-1.48.95-1.97 1.26-.23-1.14-.46-2.29-.68-3.43z" fill="#c9d4e2"/><path d="m8.17 224.9c1.79-.04 3.49.29 4.65 1.77.12-.31.34-.95.45-1.27.84.24 1.68.47 2.51.71.16.47.49 1.42.65 1.89.76-.8 1.51-1.59 2.27-2.37-.22 1.29-.41 2.59-.59 3.9 1.18-.99 1.67-2.46 2.27-3.81 3.87 1.18 7.94.9 11.91.51.6-.05 1.79-.13 2.38-.17l.02.46c-1.07.94-1.67 2.22-2.18 3.52-1.34-.1-2.68-.19-4.02-.29-.33-1.02-.67-2.04-1.01-3.06l-1.08 3.63c-.18-.92-.55-2.76-.74-3.67-.38 1.06-.77 2.14-1.15 3.21-2.93-.21-5.88-.32-8.81-.11-2.49.12-4.97.2-7.45.24-.03-1.7-.06-3.39-.08-5.09z" fill="#9a9998"/><path d="m37.32 225.1c1.94-.26 3.68.64 5.31 1.57-.4 1.16-.81 2.34-1.22 3.51-.14-.69-.44-2.07-.58-2.75-1.37.53-2.48 1.46-3.45 2.54 0-1.63-.03-3.25-.06-4.87z" fill="#a2a2a2"/><path d="m47.28 227.12c.37-.57 1.1-1.69 1.46-2.26.14 1.68 1.58 4.86-.98 5.33-1.31-.84-2.21-2.21-3.52-3.01-.33.5-.99 1.49-1.32 1.98.47-.97-.04-2.86 1.44-3.03.95.4 1.92.73 2.92.99z" fill="#545454"/><path d="m56.26 225.52c1.45.48.78 3.12.32 4.27-1.47-.35-1.25-3.3-.32-4.27z" fill="#4d4d4d"/><path d="m68.9 225.3c.77 1.8.31 3.71-1.13 5.04-.27-.93-.79-2.79-1.05-3.72-.47.95-.81 1.95-1.03 3-2.17-.06-4.34-.02-6.5.12-.28-1.7-.12-3.29 1.59-4.09-.02 1.3-1.98 3.42.44 3.82.34-1.23.78-2.43 1.39-3.55.05.76.16 2.26.21 3.02l.96.01c.1-3.2 3.67-1.78 5.12-3.65z" fill="#666"/><path d="m73.11 224.98c.42.42 1.28 1.25 1.7 1.66 1.63-.01 3.26-.22 4.87-.49-.07 1.51.74 3.5-1.07 4.27-.22-.9-.66-2.69-.88-3.59-.28.84-.85 2.51-1.14 3.35-.4-.86-1.2-2.56-1.59-3.41-.04.71-.11 2.15-.15 2.86-1.84.1-3.69.21-5.53.33.23-.66.68-1.99.91-2.65.55.43 1.64 1.29 2.19 1.73-.76-1.11-1.52-2.21-2.29-3.3.84.34 2.53 1.02 3.37 1.36l-.39-2.12z" fill="#666"/><path d="m85.11 226.86c2.13-1.22 4.57-2.01 7.02-1.29-.52.05-1.55.17-2.07.23.1 1.35.2 2.71.3 4.08-.63-.04-1.91-.1-2.54-.13.04-.61.11-1.83.15-2.44-1 .1-1.95-.05-2.86-.45z" fill="#b4b3b2"/><path d="m101.37 224.91c.18.46.53 1.36.7 1.81 1.11-.09 2.46-1.08 3.3.2.83-.32 1.68-.58 2.55-.8.51 1.29.55 2.6.12 3.93-1.03-.05-1.96-.4-2.8-1.06-.6 1.02-1.53 1.16-2.78.43-.37.08-1.1.25-1.47.33.13-1.61.25-3.23.38-4.84z" fill="#6d808c"/><path d="m10.11 226.29c1.24.34 1.43 1.14.58 2.41-1.26-.35-1.45-1.15-.58-2.41z" fill="#e8e8e7"/><path d="m38.37 226.14c2.94-1.67.36 3.26 0 0z" fill="#f9f8f5"/><path d="m52.62 227.36c1.06-3.03 3.68-.02 1.17 1.3-.29-.33-.88-.98-1.17-1.3z" fill="#6e6d6d"/><path d="m82.06 227.03c.74-1.29 2.02-.63 3.05-.17.91.4 1.86.55 2.86.45-.04.61-.11 1.83-.15 2.44-1.23-.07-2.45-.14-3.67-.22-.1-.62-.29-1.88-.38-2.51-.71 1.01-1.25 2.12-1.6 3.35-.08-1.11-.11-2.23-.11-3.34z" fill="#666"/><path d="m90.06 225.8c.52-.06 1.55-.18 2.07-.23.56.46 1.66 1.4 2.21 1.86-.02.36-.07 1.06-.1 1.41l-.12 1.35c-.78-1.21-1.55-2.41-2.34-3.61-.06.84-.18 2.51-.24 3.35-.29-.02-.88-.04-1.18-.05-.1-1.37-.2-2.73-.3-4.08z" fill="#4d4d4d"/><path d="m97.61 227.12c.49-.31 1.48-.94 1.97-1.26 0 1.4-.48 2.72-.94 4.02-.25-.69-.77-2.07-1.03-2.76z" fill="#75818f"/><path d="m24.51 229.86c.38-1.07.77-2.15 1.15-3.21.19.91.56 2.75.74 3.67l1.08-3.63c.34 1.02.68 2.04 1.01 3.06 1.34.1 2.68.19 4.02.29.51-1.3 1.11-2.58 2.18-3.52.01.67.03 2.02.04 2.69 0 .14.01.43.01.57.12 1.77-.06 3.54-.28 5.3-.64-.27-1.93-.79-2.57-1.06-.57.26-1.7.76-2.27 1.01-.82-.5-1.66-.98-2.5-1.44.13.61.38 1.82.51 2.42-2.57-1.81-5.74-1.85-8.75-2.02-.65 1.35-.67 2.77-.09 4.16.71-.08 2.13-.23 2.84-.3.17-.55.52-1.66.69-2.21 2.14 3.71 7.01 2.03 10.41 1.67.31.17.91.5 1.22.67.43 3.64.82 7.32.26 10.98-1.03 7.83.78 15.6 1.32 23.38.3 2.87.26 6.25 2.97 8.04-.89-.08-2.66-.25-3.54-.34-2.6 2.9-2.64 7.85 1.05 9.86 1.68 6.39.91 13.06 1.01 19.58-2.1.04-4.19.18-6.28.31-3.56.17-7.12.36-10.68.43-.14-7.76-1.4-15.46-1.08-23.24-1.12-8.62-.7-17.32-1.74-25.95-.31-4.95-.07-9.91-.53-14.86.02-1.58-.1-3.16-.67-4.64 0-1.29.01-2.57.04-3.85.04-1.17.16-2.33.2-3.5-.17-1.48-.36-2.96-.58-4.43 2.93-.21 5.88-.1 8.81.11z" fill="#f0f0ef"/><path d="m49.87 229.16c-1.16-2.27 1.56-3.96 2.75-1.8.29.32.88.97 1.17 1.3l1.26.53-.07 1.02c-.77-.16-2.31-.47-3.08-.63-.5-.1-1.52-.31-2.03-.42z" fill="#b0b0b0"/><path d="m34.74 229.78c0-.14-.01-.43-.01-.57l.01.57z" fill="#aeadac"/><path d="m49.87 229.16c.51.11 1.53.32 2.03.42-.43.09-1.3.28-1.73.37l-.3-.79z" fill="#7e7d7b"/><path d="m38.11 234.88c-1.83-1.8 2.43-2.14.79-.12l-.79.12z" fill="#858584"/><path d="m38.9 234.76c1.43.11 2.18-1.18 3.11-2.01-.01.73-.03 2.2-.03 2.93 1.03-.85 2.15-1.55 3.36-2.11.05 1.5.1 3.01.13 4.52-2.49-.35-5.01-.48-7.53-.4.05-.7.13-2.1.17-2.81l.79-.12z" fill="#afafae"/><path d="m64.16 234.85c.13-.55.39-1.64.52-2.19.26.66.78 1.97 1.04 2.63.12.35.37 1.05.49 1.41.85-.55 1.51-1.26 1.97-2.14.66.96.99 2.06.99 3.28-1.56-.02-3.12-.04-4.67-.07-.11-.98-.23-1.95-.34-2.92z" fill="#b9b8b5"/><path d="m87.67 237.56c-2.97-.81.42-3.45 1.17-4.86l.2 2.28c.44-.12 1.33-.35 1.77-.47 1.48-.08 2.96-.22 4.44-.4-.17.68-.52 2.02-.69 2.7-1.48.47-2.95.94-4.42 1.42l.02-.84c-.62.04-1.87.13-2.49.17z" fill="#747474"/><path d="m131.53 235.22c.92-.92 1.84-1.85 2.77-2.77 8.4 7.63 16.99 15.04 25.36 22.7-1.18 1.27-2.31 2.59-3.47 3.89l.11-.71c.04-1.49-1.65-2.14-2.48-3.13-7.47-6.61-14.82-13.36-22.29-19.98z" fill="#6d808b"/><path d="m8.55 234.05c1.2.41 2.35.94 3.44 1.6.16-.33.47-.99.63-1.32 1.22.21 2.46.16 3.66-.15-.04 1.17-.16 2.33-.2 3.5-1.95-.08-3.9-.15-5.85-.25-.23-.38-.68-1.14-.91-1.51-.32.58-.97 1.74-1.3 2.32.17-1.4.35-2.8.53-4.19z" fill="#6e6d6d"/><path d="m18.88 233.99c3.01.17 6.18.21 8.75 2.02-.13-.6-.38-1.81-.51-2.42.84.46 1.68.94 2.5 1.44.36 3.01 3.34 1.22 2.27-1.01.64.27 1.93.79 2.57 1.06-.43.56-1.29 1.67-1.73 2.23-3.4.36-8.27 2.04-10.41-1.67-.17.55-.52 1.66-.69 2.21-.71.07-2.13.22-2.84.3-.58-1.39-.56-2.81.09-4.16z" fill="#a6a7a6"/><path d="m29.62 235.03c.57-.25 1.7-.75 2.27-1.01 1.07 2.23-1.91 4.02-2.27 1.01z" fill="#8a8a88"/><path d="m49.56 235.77c2.52-2.86 6.84-.42 10.16-1.49-.38 1.3-.75 2.61-1.11 3.92-.38-.83-1.15-2.51-1.53-3.34-.09.71-.27 2.15-.36 2.86-1.93-.07-3.86-.06-5.79.06-.34-.5-1.03-1.51-1.37-2.01z" fill="#747474"/><path d="m60.06 233.31c.97 1.14 1.49 2.87 3.05 3.38-.31-.75-.93-2.23-1.23-2.97.57.28 1.71.84 2.28 1.13.11.97.23 1.94.34 2.92-1.47.02-2.94.07-4.4.13.14-1.53.13-3.06-.04-4.59z" fill="#666"/><path d="m65.72 235.29c.52-.32 1.56-.95 2.08-1.27l.38.54c-.46.88-1.12 1.59-1.97 2.14-.12-.36-.37-1.06-.49-1.41z" fill="#8e8d8b"/><path d="m70.15 233.85 4.23.15-.13.6c-.81 1.49-1.81 2.88-3.11 3.98-.36-1.57-.68-3.15-.99-4.73z" fill="#7d7d7d"/><path d="m74.86 234.24c2.35.28 4.71.2 7.07.33 1.51.14.69 2.19.99 3.18-2.83-.19-5.67-.15-8.48.23-.07-.68-.23-2.05-.3-2.73.5.45 1.5 1.35 1.99 1.8-.31-.7-.95-2.1-1.27-2.81z" fill="#6e6d6d"/><path d="m95.25 234.11.1-.31.3 3.93c1.44.05 2.88.11 4.32.12l.5-.99c.19.26.57.76.76 1.02 3.97.85 8.13 1.08 12.11.18-.37 11.48-1.49 22.92-1.82 34.4l-.01.2c-.44 4.53-.5 9.09-.93 13.63-.35 8.05-1.14 16.08-1.4 24.14-4.41-.25-8.83-.37-13.25-.38-1.97-.08-3.94-.15-5.91-.24-.13-6.41.01-12.82-.06-19.23.71-3.12-.67-7.15 2-9.51 4.21.89.19 6.84 3.29 9.07.14-3.02.58-6.14-.23-9.09-.98-2.2-3.41-.74-4.97-.16l-.26-.38c.55-14.09-.09-28.19.35-42.28 1.47-.48 2.94-.95 4.42-1.42.17-.68.52-2.02.69-2.7z" fill="#e8e8e7"/><path d="m95.35 233.8c.64.26 1.92.79 2.56 1.06l.51-.84c.71.93 1.38 1.88 2.05 2.84l-.5.99c-1.44-.01-2.88-.07-4.32-.12l-.3-3.93z" fill="#8b8c8c"/><path d="m103.9 234.28c.48.12 1.45.37 1.93.5.34-.14 1.02-.41 1.36-.54.18.72.55 2.16.73 2.88-.94-1.36-2.04-2.48-3.8-1.74-.05-.27-.16-.82-.22-1.1z" fill="#101c2a"/><path d="m32.73 237.31c.44-.56 1.3-1.67 1.73-2.23-.13.72-.38 2.17-.51 2.9-.31-.17-.91-.5-1.22-.67z" fill="#81807f"/><path d="m46.19 238.81c-.67-1.18-.75-3.5.74-4.06 1.92.48 1.11 4.47-.74 4.06z" fill="#878785"/><path d="m51.36 235.33c3.33.12-1.49 3.04 0 0z" fill="#fffefb"/><path d="m54.08 235.26c3.23.21-1.53 3.08 0 0z" fill="#f9f8f5"/><path d="m78.38 235.31c3.33.3-1.65 2.96 0 0z" fill="#edece9"/><path d="m85.14 235.42c3.14.34-1.53 3.15 0 0z" fill="#60605f"/><path d="m113.34 238.06c.39-.22 1.17-.67 1.56-.9-.47 6.13-.19 12.31-1.12 18.4-1.32 5.58-.09 11.5-2.26 16.9.33-11.48 1.45-22.92 1.82-34.4z" fill="#96a565"/><path d="m12.59 244.89c-1.29-.13-1.19-3.7.2-3.71.58 1.25.52 2.49-.2 3.71z" fill="#606060"/><path d="m17.88 240.89c.57.42 1.7 1.26 2.26 1.68 4.34-.05 8.68-.17 13-.53-.15 1.77.04 5.3-2.63 3.25-.76.23-1.51.46-2.26.7l-.4-1.75c-1.73 2.23-3.69.75-5.47-.47-.41.49-1.24 1.48-1.65 1.97-.16-.74-.49-2.24-.65-2.98-.75.85-1.49 1.7-2.24 2.55 0-1.48.01-2.95.04-4.42z" fill="#8c8c8b"/><path d="m36.97 240.83c1.47-.12 2.62.36 3.47 1.43 1.91-.1 3.61.22 3.65 2.48-.48.3-1.43.88-1.91 1.17-1.23-1.65-2.45-3.38-4.24-4.46-.37 1.81.15 3.19 1.54 4.14-.58.1-1.73.31-2.31.41-.07-1.73-.14-3.45-.2-5.17z" fill="#949494"/><path d="m52.3 241.39c2.04-.11 1.08 3.6-.34 3.96-1.69-.58-.89-3.26.34-3.96z" fill="#545454"/><path d="m7.72 244.07c.87-1.31 1.91-2.43 3.65-2.16-.11 1.33-.31 2.64-.62 3.95-1.35.11-2.14-.99-3.03-1.79z" fill="#747474"/><path d="m16.71 246.17c-2.48-.41-2.41-3.35-.67-4.64.57 1.48.69 3.06.67 4.64z" fill="#8d8d8d"/><path d="m46.4 242.23c2.28-1.26 1.26 2.49.31 3.28-1.25-.26-1.06-2.51-.31-3.28z" fill="#898786"/><path d="m49.05 245.15c-1.68-.28-.26-3.3 1.15-2.88.34 1.19-.04 2.15-1.15 2.88z" fill="#747474"/><path d="m56.2 241.88c.5.17 1.5.5 2 .67.57 1.06 1.16 2.13 1.87 3.11l-.01-3.45 1.69.16c.93 3.8-2.86 3.67-5.4 3.46-.38-.47-1.13-1.4-1.51-1.86.34-.53 1.02-1.57 1.36-2.09z" fill="#737373"/><path d="m62.17 242.32c.42-.14 1.27-.4 1.69-.53l-.31 2.44c.99-.96 2.05-1.82 3.18-2.59-.34 1.52.85 4.24-1.44 4.56l.61-2.15c-1.87 1-3.55.44-3.73-1.73z" fill="#545454"/><path d="m70.58 241.96c1.45.08 2.9.16 4.35.25l.12 1.99c.46-.62 1.4-1.84 1.86-2.45.42.32 1.27.97 1.69 1.3-.42.89-.83 1.79-1.23 2.7-.82-.14-1.64-.28-2.45-.41l-1.17-.18c-.27-.79-.55-1.59-.82-2.38-.5.85-1.52 2.54-2.03 3.38l-.32-4.2z" fill="#666"/><path d="m259.12 242.39c2.25.02 4.49.03 6.75 0l.18.6c.04 2.04-.05 4.08-.13 6.12l-.03.53c-2.24-.07-4.48-.14-6.72-.08-2.4.08-4.8.28-7.19.48.01 1.98 0 3.97.07 5.95-2.37-.03-4.74.08-7.1.24.04-2.28.12-4.55.25-6.83 4.56.19 9.09-.69 13.66-.5.05-2.17.14-4.34.26-6.51z" fill="#c8cbb9"/><path d="m265.87 242.39c13.85-.33 27.74-.42 41.58.05.36.05 1.09.15 1.45.2-.07 2.06-.13 4.14-.17 6.21 2.33.08 4.67.15 7.01.2 4.72.07 9.44.62 14.17.35.04 2.25.09 4.51.13 6.77 2.33-.01 4.66-.01 7 .01l-.01.74c-2.35-.14-4.69-.25-7.03-.26-2.5 0-4.99.03-7.48.04-.2-2.17-.4-4.34-.6-6.5-4.55-.15-9.09-.24-13.63-.44-4.28-.6-8.58-1.03-12.9-1.17-.13-1.78-.25-3.56-.37-5.33-2.32-.01-4.65-.01-6.97-.01-2.46 0-4.91-.04-7.35-.1-2.57-.07-5.14-.1-7.71-.08-2.31 0-4.63.02-6.94-.08l-.18-.6z" fill="#b6c583"/><path d="m307.45 242.44c4.99-1.12 10.06.21 15.1-.06.03 2.12.08 4.25.17 6.37 2.62.04 5.25.19 7.84.62l-.65.03c-4.73.27-9.45-.28-14.17-.35-.06-1.96-.12-3.92-.17-5.88-2.23-.1-4.46-.24-6.67-.53-.36-.05-1.09-.15-1.45-.2z" fill="#dfe0dd"/><path d="m68.08 242.92c1.6-1.11 2.58 1.81 1.47 2.76-1.58 1.14-2.71-1.83-1.47-2.76z" fill="#a2a19e"/><path d="m266.05 242.99c2.31.1 4.63.08 6.94.08-.02 1.98-.05 3.97-.07 5.96-2.34.03-4.67.06-7 .08.08-2.04.17-4.08.13-6.12z" fill="#acbc6a"/><path d="m272.99 243.07c2.57-.02 5.14.01 7.71.08.03 2.16.07 4.33.13 6.5l-.46-.01c-4.83-.07-9.66.2-14.48 0l.03-.53c2.33-.02 4.66-.05 7-.08.02-1.99.05-3.98.07-5.96z" fill="#adc73e"/><path d="m280.7 243.15c2.44.06 4.89.1 7.35.1-.27 2.18-.54 4.36-.83 6.54-2.13-.04-4.27-.1-6.39-.14-.06-2.17-.1-4.34-.13-6.5z" fill="#bfd866"/><path d="m288.05 243.25c2.32 0 4.65 0 6.97.01.12 1.77.24 3.55.37 5.33 4.32.14 8.62.57 12.9 1.17-6.77.6-13.56.02-20.34.04l-.73-.01c.29-2.18.56-4.36.83-6.54z" fill="#c8e274"/><path d="m308.9 242.64c2.21.29 4.44.43 6.67.53.05 1.96.11 3.92.17 5.88-2.34-.05-4.68-.12-7.01-.2.04-2.07.1-4.15.17-6.21z" fill="#b8bea2"/><path d="m79.21 245.19c.55.51.55.51 0 0z" fill="#aeadac"/><path d="m330.56 249.37c2.07-.08 4.13-.07 6.21-.03.16 2.27.26 4.55.27 6.84-2.34-.02-4.67-.02-7-.01-.04-2.26-.09-4.52-.13-6.77l.65-.03z" fill="#eeeeed"/><path d="m251.98 250.04c2.39-.2 4.79-.4 7.19-.48-.12 2.36-.25 4.72-.38 7.09-2.23.03-4.46.07-6.69.13l-.05-.79c-.07-1.98-.06-3.97-.07-5.95z" fill="#b5d81d"/><path d="m259.17 249.56c2.24-.06 4.48.01 6.72.08 4.82.2 9.65-.07 14.48 0 .12 4.55.1 9.11.14 13.66-11.83.11-23.67-.17-35.5-.19.01-2.04.02-4.08.03-6.11 2.35-.08 4.7-.16 7.06-.22 2.23-.06 4.46-.1 6.69-.13.13-2.37.26-4.73.38-7.09z" fill="#c2ef00"/><path d="m280.37 249.64.46.01c2.12.04 4.26.1 6.39.14l.73.01c.07 4.5-.18 8.98-.31 13.48-2.19.01-4.37.03-6.55.05-.13 2.38-.23 4.77-.3 7.17h-.31c.03-2.41.05-4.8.03-7.2-.04-4.55-.02-9.11-.14-13.66z" fill="#d4f55f"/><path d="m287.95 249.8c6.78-.02 13.57.56 20.34-.04 4.54.2 9.08.29 13.63.44.2 2.16.4 4.33.6 6.5 2.49-.01 4.98-.04 7.48-.04-.01 2.37-.01 4.75 0 7.13 0 2.25.01 4.49.02 6.74-2.63-.03-5.25-.04-7.88-.04-2.32 0-4.64.01-6.96.01h-7.03c-2.12 0-4.25 0-6.37.01-6.99.02-13.99-.1-20.99-.01 2.43-.22 4.86-.45 7.3-.68-.15-2.19-.36-4.36-.45-6.54.13-4.5.38-8.98.31-13.48z" fill="#d7f670"/><path d="m159.66 255.15c.65-.69 1.32-1.37 1.99-2.04.97 3.02 1.96 6.04 2.92 9.07-2.98-.7-6.11-.96-8.93-2.22l.55-.92c1.16-1.3 2.29-2.62 3.47-3.89z"/><path d="m111.52 272.46c2.17-5.4.94-11.32 2.26-16.9-.95 29.82-5.56 59.52-4.12 89.4.44 4.49 1.88 8.83 2.08 13.36-5.49-15.14-2.59-31.5-2.85-47.19l-.85-.37c-4.03-.33-8.08-.43-12.11-.71 4.42.01 8.84.13 13.25.38.26-8.06 1.05-16.09 1.4-24.14.76-4.51 1.12-9.07.93-13.63l.01-.2z" fill="#8b8e80"/><path d="m238.09 256.38c2.28.04 4.57.03 6.86-.15 2.36-.16 4.73-.27 7.1-.24l.05.79c-2.36.06-4.71.14-7.06.22-.01 2.03-.02 4.07-.03 6.11v.5c-2.33-.05-4.65-.1-6.97-.16l-.06-.56c-.17-2.17-.02-4.34.11-6.51z" fill="#adbb6d"/><path d="m337.04 256.18c2.27.14 4.54.21 6.82.24.08 2.3.11 4.6.09 6.9-2.31.04-4.63.08-6.94.1-.01-2.17-.01-4.33.02-6.5l.01-.74z" fill="#d9d9d9"/><path d="m330 256.66c2.34.01 4.68.12 7.03.26-.03 2.17-.03 4.33-.02 6.5v.48c-2.34-.05-4.68-.08-7.01-.11-.01-2.38-.01-4.76 0-7.13z" fill="#8fa93d"/><path d="m223.58 263.69c4.8-.21 9.59-1.25 14.4-.8l.06.56c-2.37.1-4.73.26-7.08.52.03 2.18.06 4.36.1 6.55h-.22c-2.41-.01-4.82-.02-7.22-.03-.07-2.27-.07-4.54-.04-6.8z" fill="#d4d4d1"/><path d="m245.01 263.11c11.83.02 23.67.3 35.5.19.02 2.4 0 4.79-.03 7.2-4.74.02-9.48-.06-14.22-.02-.03-2.14-.05-4.27-.08-6.4-4.62-.35-9.24-.43-13.87-.37-2.44.01-4.87-.04-7.3-.1v-.5z" fill="#a1c700"/><path d="m281.09 263.33c2.18-.02 4.36-.04 6.55-.05.09 2.18.3 4.35.45 6.54-2.44.23-4.87.46-7.3.68.07-2.4.17-4.79.3-7.17z" fill="#bedb59"/><path d="m337.01 263.42c2.31-.02 4.63-.06 6.94-.1.27 7.28-.04 14.57.04 21.86-2.32-.02-4.64-.05-6.96-.07-.05-4.74-.04-9.47-.01-14.21.01-2.34 0-4.67-.01-7v-.48z" fill="#939390"/><path d="m230.96 263.97c2.35-.26 4.71-.42 7.08-.52-.02 2.35-.03 4.7-.04 7.06-2.31 0-4.63 0-6.94.01-.04-2.19-.07-4.37-.1-6.55z" fill="#677527"/><path d="m238.04 263.45c2.32.06 4.64.11 6.97.16-.03 2.3-.07 4.59-.1 6.89-2.3 0-4.61 0-6.91.01.01-2.36.02-4.71.04-7.06z" fill="#647c00"/><path d="m245.01 263.61c2.43.06 4.86.11 7.3.1-.03 2.26-.06 4.51-.09 6.77-2.44.01-4.87.02-7.31.02.03-2.3.07-4.59.1-6.89z" fill="#718b00"/><path d="m252.31 263.71c4.63-.06 9.25.02 13.87.37.03 2.13.05 4.26.08 6.4-4.68.04-9.36-.04-14.04 0 .03-2.26.06-4.51.09-6.77z" fill="#89a900"/><path d="m330 263.79c2.33.03 4.67.06 7.01.11.01 2.33.02 4.66.01 7-2.33-.12-4.67-.24-7-.37-.01-2.25-.02-4.49-.02-6.74z" fill="#8dae28"/><path d="m231.06 270.52c2.31-.01 4.63-.01 6.94-.01 2.3-.01 4.61-.01 6.91-.01 2.44 0 4.87-.01 7.31-.02 4.68-.04 9.36.04 14.04 0 4.74-.04 9.48.04 14.22.02h.31c7-.09 14 .03 20.99.01-.01 2.2-.01 4.4.01 6.6 2.1.06 4.2.12 6.3.16 2.33.04 4.66.06 6.99.1 2.34.02 4.68.06 7.03.08 2.62.01 5.24-.05 7.87-.13.04 4.88.03 9.76.01 14.64-.01 2.39 0 4.78.01 7.17-2.21.07-4.41.14-6.62.22-.81 6.85-1.36 13.73-1.22 20.64-2.09.01-4.17.01-6.25 0-2.29 0-4.57 0-6.85.01-.06-2.3-.12-4.58-.17-6.87-2.61-.06-5.22-.09-7.82-.06-4.39.04-8.78-.12-13.16-.02-5.01.1-10.01-.14-15.02.01-4.68.11-9.37-.08-14.06 0-4.67.06-9.35-.08-14.02-.02-4.62.07-9.25-.06-13.87-.02-4.64.03-9.27-.04-13.91-.02-2.56 0-5.12 0-7.67-.01.17-4.65.09-9.3.37-13.94 2.33-.07 4.66-.13 6.99-.2-.08-2.29-.17-4.58-.21-6.87s.06-4.58.24-6.86c2.25-.03 4.49-.14 6.74-.25.02-2.34.12-4.69.31-7.02 2.35-.12 4.7-.22 7.06-.3.01-2.35 0-4.69-.02-7.03h.22z"/><path d="m222.87 277.69c.19-2.41.4-4.82.75-7.2.2 2.44.36 4.9.18 7.36-.19 2.33-.29 4.68-.31 7.02-2.25.11-4.49.22-6.74.25l-.36-.01c.1-2.56.13-5.12.12-7.68 2.12.01 4.24.07 6.36.26z" fill="#707070"/><path d="m223.62 270.49c2.4.01 4.81.02 7.22.03.02 2.34.03 4.68.02 7.03-2.36.08-4.71.18-7.06.3.18-2.46.02-4.92-.18-7.36z" fill="#242424"/><path d="m301.78 270.51c2.12-.01 4.25-.01 6.37-.01-.02 2.25-.04 4.51-.06 6.77-2.1-.04-4.2-.1-6.3-.16-.02-2.2-.02-4.4-.01-6.6z" fill="#121409"/><path d="m308.15 270.5h7.03c-.04 2.28-.07 4.57-.1 6.87-2.33-.04-4.66-.06-6.99-.1.02-2.26.04-4.52.06-6.77z" fill="#1f2410"/><path d="m315.18 270.5c2.32 0 4.64-.01 6.96-.01l-.03 6.96c-2.35-.02-4.69-.06-7.03-.08.03-2.3.06-4.59.1-6.87z" fill="#2d3317"/><path d="m322.14 270.49c2.63 0 5.25.01 7.88.04-.03 2.26-.05 4.52-.04 6.79-2.63.08-5.25.14-7.87.13l.03-6.96z" fill="#3a431e"/><path d="m330.02 270.53c2.33.13 4.67.25 7 .37-.03 4.74-.04 9.47.01 14.21.02 2.29.04 4.57.04 6.86-2.36-.01-4.72-.01-7.08-.01.02-4.88.03-9.76-.01-14.64-.01-2.27.01-4.53.04-6.79z" fill="#7d9a21"/><path d="m111.51 272.66c.19 4.56-.17 9.12-.93 13.63.43-4.54.49-9.1.93-13.63z" fill="#a1c700"/><path d="m21.28 276.47c.31-.09.92-.29 1.23-.38.07 4.58.1 9.18-.02 13.77-.34-.2-1.02-.59-1.36-.79-.17-4.18-.42-8.44.15-12.6z" fill="#4d4d4d"/><g><path d="m53.03 289.67c-7.25.53-8.01-12.4-1.12-13.44 2.6-.59 4.6 1.3 5.72 3.42-.33.19-.99.58-1.32.78-.97-1.03-1.62-2.68-3.26-2.72-5.7-.15-5.68 10.52-.04 10.54 1.87-.09 2.57-1.95 3.4-3.29.37.12 1.11.37 1.48.5-.94 2-2.32 4.31-4.86 4.21z"/><path d="m26.44 280.56c1.23-.23 2.46-.48 3.68-.75 1 .94 1.81 2.04 2.05 3.44-1.26-.42-2.23-1.28-3.14-2.18-.65.13-1.93.4-2.58.53 0 2.31-1.2 5.61 1.34 6.98 2.12.32 2.63-2.45 4.54-2.86-.02 2.77-2.36 4.12-4.86 3.86-3-1.93-2.79-6.33-1.03-9.02z"/><path d="m34.96 280.04c.88.09 2.65.26 3.54.34 1.37 1.05 2.07 2.62 2.55 4.24-2.35.3-4.7.58-7.04.97.53.6 1.59 1.82 2.12 2.42 1.84 1.77 3.17-.64 4.35-1.81.15 2.5-2.49 3.27-4.47 3.7-3.69-2.01-3.65-6.96-1.05-9.86z"/><path d="m59.47 280.18c1.67.04 3.33 0 5.01.04-.46 1.75-3.25.97-3.3 2.88-.83 2.14 1.12 5.81-1.6 6.72-.09-3.22-.03-6.43-.11-9.64z"/><path d="m68.07 289.64c-5.06-.74-4.42-10.18.88-9.85 2.79.13 3.54 3.1 3.8 5.35-2.29.01-4.59.02-6.88.1.55 1.42 1.28 3 3.04 3.12 1.28-.64 2.3-2.02 3.89-1.86-.81 1.88-2.47 3.68-4.73 3.14z"/><path d="m75.31 280.4c1.81-.4 4.52-1.29 5.69.69.75 2.87.39 5.9.57 8.84-.44-.27-1.33-.81-1.78-1.08-1.54.39-3.09.71-4.66.98-.43-1.21-1.17-2.38-1.12-3.71 1.02-2.47 4.3-2 6.37-2.95-1.45-3.36-4.25-1.07-6.47-.19.45-.87.92-1.73 1.4-2.58z"/><path d="m83.71 279.71 1.68.88c1.42-.6 2.98-.81 4.4-.08l.26.38c1.56-.58 3.99-2.04 4.97.16.81 2.95.37 6.07.23 9.09-3.1-2.23.92-8.18-3.29-9.07-2.67 2.36-1.29 6.39-2 9.51-1.47-2.79-.91-5.99-1.53-8.97-.92-.15-1.85-.25-2.78-.32-.4 2.73-.53 5.49-.57 8.26l-1.39-.1c0-3.25 0-6.49.02-9.74z"/></g><path d="m35.2 282.19c1.7-2.31 5.26-.63 4.52 2.23-1.52-.36-5.65.57-4.52-2.23z" fill="#f9f8f5"/><path d="m65.84 283.54c.93-1.1 2.12-3.09 3.88-2.18.65.73 1.16 1.55 1.55 2.47-1.82.01-3.63-.05-5.43-.29z" fill="#f9f8f5"/><path d="m75.86 285.89c1.35-.69 2.91-.7 4.36-.98-.58 1.16-.56 3.26-2.3 3.37-1.43.81-3.27-1.12-2.06-2.39z" fill="#f2f2f0"/><path d="m209.1 298.97c-.26-4.57.53-9.1.56-13.65-.01 2.23.07 4.46.22 6.7.14 2.34.03 4.69-.15 7.03-.28 4.64-.2 9.29-.37 13.94-.1 2.36-.25 4.72-.4 7.08l-6.15.12c-.06-2.34-.13-4.68-.06-7.02l5.97-.48c.22-2.21.45-4.42.55-6.64.03-2.36-.07-4.73-.17-7.08z" fill="#8f8f8f"/><path d="m209.66 285.32c2.12-.74 4.51-.09 6.73-.21l.36.01c-.18 2.28-.28 4.57-.24 6.86-2.22.01-4.43.02-6.63.04-.15-2.24-.23-4.47-.22-6.7z" fill="#c3c3c3"/><path d="m337.03 285.11c2.32.02 4.64.05 6.96.07.04 9.29-.03 18.59-.01 27.88-2.32-.01-4.64-.02-6.95-.03-.02-2.33-.04-4.66-.03-6.98 0-4.7.06-9.39.07-14.08 0-2.29-.02-4.57-.04-6.86z" fill="#a2a2a2"/><path d="m209.88 292.02c2.2-.02 4.41-.03 6.63-.04.04 2.29.13 4.58.21 6.87-2.33.07-4.66.13-6.99.2.18-2.34.29-4.69.15-7.03z" fill="#242424"/><path d="m329.99 291.96c2.36 0 4.72 0 7.08.01-.01 4.69-.07 9.38-.07 14.08-2.33-.02-4.66-.04-6.98-.05 0-2.29-.01-4.58-.02-6.87-.01-2.39-.02-4.78-.01-7.17z" fill="#849f32"/><path d="m202.57 298.94c2.17 0 4.35 0 6.53.03.1 2.35.2 4.72.17 7.08-2.17-.05-4.33-.12-6.49-.22-.28-2.29-.32-4.59-.21-6.89z" fill="#c0c0c0"/><path d="m323.38 299.35c2.21-.08 4.41-.15 6.62-.22.01 2.29.02 4.58.02 6.87-.02 4.66-.12 9.31-.08 13.97-2.6-.01-5.19 0-7.78.02-.14-6.91.41-13.79 1.22-20.64z" fill="#16190b"/><path d="m202.14 312.94c.1-2.36-.68-4.98.64-7.11.18 2.44.07 4.89-.03 7.34-.07 2.34 0 4.68.06 7.02.04 4.7-.14 9.4-.01 14.1 2.1.02 4.21.05 6.32.08.08 2.28.11 4.57.18 6.86-2.27-.03-4.51.19-6.76.43.16 4.52.6 9.06.03 13.57-.9-14.07-.44-28.2-.43-42.29z" fill="#b2b2b1"/><path d="m202.78 305.83c2.16.1 4.32.17 6.49.22-.1 2.22-.33 4.43-.55 6.64l-5.97.48c.1-2.45.21-4.9.03-7.34z" fill="#757575"/><path d="m330.02 306c2.32.01 4.65.03 6.98.05-.01 2.32.01 4.65.03 6.98.01 2.35 0 4.7-.01 7.05-2.36-.04-4.72-.07-7.08-.11-.04-4.66.06-9.31.08-13.97z" fill="#81993e"/><path d="m30.74 309.79c2.09-.13 4.18-.27 6.28-.31 4.74-.13 9.48-.18 14.22-.09-3.64.15-7.27.37-10.9.57-.13 1.98-.25 3.96-.36 5.94-.56.01-1.7.02-2.27.03h-.18c-.03-1.99-.07-3.99-.11-5.98-1.99-.08-3.98-.15-5.97-.17l-.71.01z" fill="#5e5e5e"/><path d="m51.24 309.39c7.9-.23 15.81-.04 23.72.07 5.02.07 10.04.08 15.06.35 1.97.09 3.94.16 5.91.24 4.03.28 8.08.38 12.11.71-.02 1.98-.04 3.97-.05 5.96-5.05-.13-10.09-.2-15.14-.23-17.62-.5-35.24-.93-52.87-.59.11-1.98.23-3.96.36-5.94 3.63-.2 7.26-.42 10.9-.57z"/><path d="m8.78 310.82c3.75-.31 7.51-.54 11.28-.6 3.56-.07 7.12-.26 10.68-.43l.71-.01c.09 2.08.17 4.17.27 6.26-.64.02-1.94.05-2.58.07-3.06.02-6.12.01-9.17.12-.03-1.87-.07-3.74-.1-5.6-3.7.12-7.39.2-11.09.19z" fill="#4d4d4d"/><path d="m31.45 309.78c1.99.02 3.98.09 5.97.17.04 1.99.08 3.99.11 5.98-1.93.03-3.87.07-5.81.11-.1-2.09-.18-4.18-.27-6.26z"/><path d="m8.03 310.88.75-.06c.02 1.89.04 3.77.06 5.67 3.71-.02 7.42-.12 11.13-.26 3.05-.11 6.11-.1 9.17-.12-3.05.12-6.09.32-9.13.4-.53.01-1.58.03-2.11.04-2.92.03-5.85.13-8.77.3.22 16.48-.58 33.11-4.37 49.2-1.26 5.29-1.16 10.83-2.91 16.01-.16-8.36 2.11-16.46 3.55-24.63 2.85-15.33 2.94-31 2.63-46.55z" fill="#87a721"/><path d="m8.78 310.82c3.7.01 7.39-.07 11.09-.19.03 1.86.07 3.73.1 5.6-3.71.14-7.42.24-11.13.26-.02-1.9-.04-3.78-.06-5.67z"/><path d="m108.04 310.76.85.37c.26 15.69-2.64 32.05 2.85 47.19l.03.16c1.14 10.5 3.93 20.85 3.68 31.5-.04 8.62-1.34 17.48-5.32 25.23l.26-1.55c.74-3.94 2.5-7.62 3.09-11.59 2.91-15.7-.72-31.54-3.77-46.91-3.16-12.47-2.02-25.43-1.77-38.14-2.39-.07-4.79-.12-7.19-.18-2.63-.08-5.27-.24-7.9-.35 5.05.03 10.09.1 15.14.23.01-1.99.03-3.98.05-5.96z" fill="#7d9a21"/><path d="m208.96 320.07c.15-2.36.3-4.72.4-7.08 2.55.01 5.11.01 7.67.01-.04 2.32-.08 4.65-.11 6.98-2.31 0-4.61.02-6.91.07l-1.05.02z" fill="#828282"/><path d="m217.03 313c4.64-.02 9.27.05 13.91.02-.03 2.32-.05 4.65-.06 6.98-4.66.01-9.31-.04-13.96-.02.03-2.33.07-4.66.11-6.98z" fill="#747474"/><path d="m230.94 313.02c4.62-.04 9.25.09 13.87.02-.03 2.32-.05 4.64-.06 6.96h-13.87c.01-2.33.03-4.66.06-6.98z" fill="#666"/><path d="m244.81 313.04c4.67-.06 9.35.08 14.02.02-.04 2.31-.07 4.62-.09 6.94h-13.99c.01-2.32.03-4.64.06-6.96z" fill="#545454"/><path d="m258.83 313.06c4.69-.08 9.38.11 14.06 0-.02 2.31-.03 4.62-.03 6.94h-14.12c.02-2.32.05-4.63.09-6.94z" fill="#424242"/><path d="m272.89 313.06c5.01-.15 10.01.09 15.02-.01-.04 2.31-.07 4.63-.09 6.95-4.99.03-9.97-.05-14.96 0 0-2.32.01-4.63.03-6.94z" fill="#2c2c2c"/><path d="m287.91 313.05c4.38-.1 8.77.06 13.16.02-.05 2.3-.1 4.62-.14 6.93-4.37.01-8.74-.03-13.11 0 .02-2.32.05-4.64.09-6.95z" fill="#1a1a1a"/><path d="m301.07 313.07c2.6-.03 5.21 0 7.82.06.05 2.29.11 4.57.17 6.87h-8.13c.04-2.31.09-4.63.14-6.93z" fill="#0c0c0c"/><path d="m337.03 313.03c2.31.01 4.63.02 6.95.03.04 4.68.02 9.36.01 14.04-2.31-.03-4.63-.06-6.94-.08-.01-2.32-.03-4.63-.03-6.94.01-2.35.02-4.7.01-7.05z" fill="#b0b0b0"/><path d="m29.14 316.11c.64-.02 1.94-.05 2.58-.07.91 19.21-.16 38.72-5.44 57.29-2.85 8.78-6.16 17.69-12.21 24.81-.94-3.23-1.28-6.59-1.41-9.93.31-3.99.37-7.98.59-11.96 5.49-19.41 7.02-39.64 6.76-59.74 3.04-.08 6.08-.28 9.13-.4z" fill="#d4f44d"/><path d="m31.72 316.04c1.94-.04 3.88-.08 5.81-.11h.18c.03 2.52.25 5.04.74 7.52.64-2.49 1.15-5.01 1.53-7.55 17.63-.34 35.25.09 52.87.59 2.63.11 5.27.27 7.9.35-.98 14.11.17 28.32 3.14 42.14 1.76 8.98 4.68 17.81 4.99 27.02.32 8.25-3.56 15.99-8.59 22.29-2.31 3.11-6.34 3.92-9.74 5.29-17.05 5.6-35.75 7.42-53.3 3.06-5.39-1.22-10.22-3.98-15.05-6.55-3.22-3.38-6.21-7.08-7.96-11.45l-.17-.5c6.05-7.12 9.36-16.03 12.21-24.81 5.28-18.57 6.35-38.08 5.44-57.29z" fill="#c2ef00"/><path d="m37.71 315.93c.57-.01 1.71-.02 2.27-.03-.38 2.54-.89 5.06-1.53 7.55-.49-2.48-.71-5-.74-7.52z" fill="#d5f450"/><path d="m9.13 316.85c2.92-.17 5.85-.27 8.77-.3 1.33 13.86.38 27.82-2.06 41.5-.88 6.06-2.27 12.06-2.59 18.2-.22 3.98-.28 7.97-.59 11.96-.31-1.77-.73-3.5-1.13-5.24-.93 4.27-2.14 8.55-2.18 12.95-.24 1.89 1.24 3.25 2.14 4.73 1.14 1.81 1.87 3.88 3.23 5.56 1.96 2.13 4.89 2.82 7.48 3.88 4.83 2.57 9.66 5.33 15.05 6.55 17.55 4.36 36.25 2.54 53.3-3.06 3.4-1.37 7.43-2.18 9.74-5.29 5.03-6.3 8.91-14.04 8.59-22.29-.31-9.21-3.23-18.04-4.99-27.02-2.97-13.82-4.12-28.03-3.14-42.14 2.4.06 4.8.11 7.19.18-.25 12.71-1.39 25.67 1.77 38.14 3.05 15.37 6.68 31.21 3.77 46.91-.59 3.97-2.35 7.65-3.09 11.59-25.71 16.29-58.74 18.33-87.38 9.28-4.65-1.16-8.68-4.17-13.49-4.72-1.04-3.88-3.57-7.14-5.1-10.83-.08-.14-.23-.43-.3-.57l-.26-.58c-1.64-7.74-1.67-15.61-2.12-23.47l.11-.71c1.75-5.18 1.65-10.72 2.91-16.01 3.79-16.09 4.59-32.72 4.37-49.2z" fill="#d3f36e"/><path d="m17.9 316.55c.53-.01 1.58-.03 2.11-.04.26 20.1-1.27 40.33-6.76 59.74.32-6.14 1.71-12.14 2.59-18.2 2.44-13.68 3.39-27.64 2.06-41.5z" fill="#c2ef00"/><path d="m202.81 320.19 6.15-.12 1.05-.02c-.37 7.08-.09 14.18-.11 21.27l-.6-.09c-.07-2.29-.1-4.58-.18-6.86-2.11-.03-4.22-.06-6.32-.08-.13-4.7.05-9.4.01-14.1z" fill="#d8d8d7"/><path d="m210.01 320.05c2.3-.05 4.6-.07 6.91-.07 4.65-.02 9.3.03 13.96.02h13.87 13.99 14.12c.04 4.75.17 9.5.29 14.25-.01 2.25-.14 4.5-.26 6.75-2.24.14-4.47.25-6.7.33-.07-2.2-.12-4.41-.27-6.6l-.07-.83c-4.56-.21-9.11.01-13.66-.04-.14-2.27-.26-4.55-.39-6.82-2.24-.04-4.48-.09-6.71-.08-2.36.01-4.71.04-7.07.07-.01 2.61-.02 5.21.01 7.82.02 2.17.03 4.35.02 6.53-.04 7.06-.2 14.13.09 21.19 2.27-.02 4.55-.02 6.82 0 2.36.02 4.71.02 7.07-.01 4.66-.07 9.31-.09 13.97-.04 2.33.04 4.67.17 7 .32-.05 9.39.05 18.77-.02 28.16-2.33.01-4.65.01-6.97.01-.02-2.34-.03-4.67-.04-7.01h-6.95c-.01 2.33-.02 4.67-.03 7.01-2.33 0-4.65.01-6.98.01-2.34-.02-4.69-.03-7.03-.02-2.34 0-4.69.01-7.03.02h-6.83c.06-2.39.09-4.78.1-7.17-2.38 0-4.76 0-7.14.02-.18-2.48-.39-4.95-.56-7.42-2.11-.14-4.21-.27-6.31-.4-.15-2.35-.3-4.7-.41-7.04-.09-2.09-.13-4.18-.16-6.26v-.28c2.28.01 4.57.02 6.85.02.02-4.56.02-9.11.01-13.67v-.57c2.49.08 4.99.13 7.48.13.08-4.56.06-9.11-.04-13.66-4.74-.27-9.49-.22-14.22.12.03 2.22.09 4.43.16 6.66l-.46-.01c-2.18-.03-4.35-.08-6.52-.17.02-7.09-.26-14.19.11-21.27z" fill="#e7e6e6"/><path d="m272.86 320c4.99-.05 9.97.03 14.96 0 4.37-.03 8.74.01 13.11 0h8.13c2.28-.01 4.56-.01 6.85-.01.1 2.25.21 4.5.32 6.75 4.58.23 9.17.29 13.76.26.01 2.32.01 4.65.01 6.98v13.99c.01 4.69-.03 9.38.01 14.07-2.24.09-4.48.18-6.71.28-1.75 14.12-1.5 28.41-1.13 42.6.13 2.35.16 4.72.17 7.08-2.19.02-4.38.06-6.56.06-4.88-.04-9.76 0-14.64.01-2.35-.01-4.7-.03-7.04-.03-1.99-.01-3.98.01-5.97.03-.05 2.3-.09 4.6-.13 6.91l-.4.02c-.02-2.31-.03-4.61-.06-6.91-.03-2.37-.05-4.74-.05-7.11-.02-2.31-.01-4.62 0-6.93-.01-2.36-.03-4.71-.05-7.07-2.21 0-4.42.01-6.63.01-2.61 0-5.22 0-7.83.01.07-9.39-.03-18.77.02-28.16v-.37c4.82.05 9.65.03 14.47.17 2.34.04 4.68.02 7.02-.01.52-6.82.47-13.68-.67-20.43-2.05-.2-4.1-.4-6.14-.56-.16-.02-.47-.04-.62-.05-.01-2.14-.01-4.28-.02-6.42-4.61-.61-9.25-.79-13.89-.92-.12-4.75-.25-9.5-.29-14.25z" fill="#ebeae9"/><path d="m315.91 319.99c2.08.01 4.16.01 6.25 0 2.59-.02 5.18-.03 7.78-.02.02 2.34.04 4.68.05 7.03-4.59.03-9.18-.03-13.76-.26-.11-2.25-.22-4.5-.32-6.75z" fill="#e3e3e0"/><path d="m329.94 319.97c2.36.04 4.72.07 7.08.11 0 2.31.02 4.62.03 6.94 0 2.32-.02 4.64-.04 6.96h-7.01c0-2.33 0-4.66-.01-6.98-.01-2.35-.03-4.69-.05-7.03z" fill="#96a565"/><path d="m238.02 327.03c2.36-.03 4.71-.06 7.07-.07-.06 2.65-.13 5.3-.17 7.96-2.3-.03-4.6-.06-6.89-.07-.03-2.61-.02-5.21-.01-7.82z" fill="#b9b9b9"/><path d="m245.09 326.96c2.23-.01 4.47.04 6.71.08.13 2.27.25 4.55.39 6.82 4.55.05 9.1-.17 13.66.04l.07.83c-4.57-.15-9.15-.08-13.72.26-.09 2.17-.19 4.35-.27 6.53-2.33.09-4.66.2-6.99.32l-.01-.48c-.04-2.15-.05-4.3-.01-6.44.04-2.66.11-5.31.17-7.96z" fill="#dbdbdb"/><path d="m337.05 327.02c2.31.02 4.63.05 6.94.08.04 4.96-.05 9.92-.02 14.88-2.33-.04-4.64-.07-6.96-.1-.02-2.63-.03-5.27 0-7.9.02-2.32.04-4.64.04-6.96z" fill="#b8b9b8"/><path d="m273.15 334.25c4.64.13 9.28.31 13.89.92.01 2.14.01 4.28.02 6.42-4.69-.21-9.4-.22-14.08.23-2.31.23-4.63.21-6.94-.02s-4.62-.37-6.94-.35c-2.39.02-4.78.06-7.17.07.08-2.18.18-4.36.27-6.53 4.57-.34 9.15-.41 13.72-.26.15 2.19.2 4.4.27 6.6 2.23-.08 4.46-.19 6.7-.33.12-2.25.25-4.5.26-6.75z" fill="#c5c5c5"/><path d="m330 333.98h7.01c-.03 2.63-.02 5.27 0 7.9.01 2.04.01 4.09 0 6.14-2.34-.02-4.68-.03-7.01-.05v-13.99z" fill="#8b995f"/><path d="m216.72 334.84c4.73-.34 9.48-.39 14.22-.12.1 4.55.12 9.1.04 13.66-2.49 0-4.99-.05-7.48-.13v-6.71c-2.21-.02-4.41-.02-6.62-.04-.07-2.23-.13-4.44-.16-6.66z" fill="#bdbdbd"/><path d="m238.03 334.85c2.29.01 4.59.04 6.89.07-.04 2.14-.03 4.29.01 6.44-2.29.02-4.59.03-6.88.02.01-2.18 0-4.36-.02-6.53z" fill="#c5c5c5"/><path d="m202.54 341.66c2.25-.24 4.49-.46 6.76-.43l.6.09c-.38 7.07.6 14.2-.72 21.21-.08-2.33-.12-4.66-.17-6.98-2.16.05-4.33.1-6.49.17l.05-.49c.57-4.51.13-9.05-.03-13.57z" fill="#949494"/><path d="m209.9 341.32c2.17.09 4.34.14 6.52.17.2 6.99.04 13.99.22 20.98v.28c-2.22-.02-4.43 0-6.65.03-.03 2.01-.06 4.02-.08 6.04 2.3.06 4.59.12 6.89.19.11 2.34.26 4.69.41 7.04 2.1.13 4.2.26 6.31.4.17 2.47.38 4.94.56 7.42.23 2.61-.04 5.22-.46 7.8-.98-2.41-.79-5.01-.78-7.54-2.21 0-4.41-.04-6.61-.11 0-2.44.01-4.87-.06-7.29-.08-2.2-.18-4.39-.28-6.58-2.2-.04-4.4-.07-6.6-.09-.34-2.5-.57-5.04-.11-7.53 1.32-7.01.34-14.14.72-21.21z" fill="#b9b9b8"/><path d="m216.42 341.49.46.01c2.21.02 4.41.02 6.62.04v6.71.57c-2.23-.11-4.47-.2-6.7-.27-.21 4.64-.14 9.28-.16 13.92-.18-6.99-.02-13.99-.22-20.98z" fill="#474747"/><path d="m238.05 341.38c2.29.01 4.59 0 6.88-.02l.01.48c.06 2.34.13 4.68.13 7.03-.01 2.27-.05 4.55-.06 6.83-.03 2.29-.04 4.58-.05 6.87-2.27-.02-4.55-.02-6.82 0-.29-7.06-.13-14.13-.09-21.19z" fill="#8b8b8b"/><path d="m272.98 341.82c4.68-.45 9.39-.44 14.08-.23.15.01.46.03.62.05-.35 6.99.13 14-.21 21-.18-2.46-.37-4.91-.57-7.36-1.95-.15-3.9-.29-5.84-.43-.21-2.1-.42-4.2-.62-6.3-2.49-.16-4.97-.32-7.45-.49 0-2.08 0-4.16-.01-6.24z" fill="#7d7d7d"/><path d="m244.94 341.84c2.33-.12 4.66-.23 6.99-.32.04 2.36.08 4.73.12 7.09-2.33.05-4.65.16-6.98.26 0-2.35-.07-4.69-.13-7.03z" fill="#bbb"/><path d="m251.93 341.52c2.39-.01 4.78-.05 7.17-.07-.03 2.25-.05 4.51-.08 6.77v.49c-2.33-.08-4.65-.14-6.97-.1-.04-2.36-.08-4.73-.12-7.09z" fill="#676767"/><path d="m259.1 341.45c2.32-.02 4.63.12 6.94.35-.02 2.14-.04 4.29-.06 6.44-2.32-.01-4.64-.01-6.96-.02.03-2.26.05-4.52.08-6.77z" fill="#8c8c8c"/><path d="m266.04 341.8c2.31.23 4.63.25 6.94.02.01 2.08.01 4.16.01 6.24l-.01.66c-2.33-.04-4.67-.06-7-.03-2.32.03-4.64.04-6.96.02v-.49c2.32.01 4.64.01 6.96.02.02-2.15.04-4.3.06-6.44z" fill="#b9b9b8"/><path d="m287.68 341.64c2.04.16 4.09.36 6.14.56 1.14 6.75 1.19 13.61.67 20.43-2.34.03-4.68.05-7.02.01.34-7-.14-14.01.21-21z" fill="#d7d6d6"/><path d="m337.01 341.88c2.32.03 4.63.06 6.96.1.07 4.38-.02 8.76.01 13.15-2.33-.05-4.64-.09-6.96-.14-.01-2.32-.02-4.65-.01-6.97.01-2.05.01-4.1 0-6.14z" fill="#c4c4c4"/><path d="m272.99 348.06c2.48.17 4.96.33 7.45.49.2 2.1.41 4.2.62 6.3 1.94.14 3.89.28 5.84.43.2 2.45.39 4.9.57 7.36-4.82-.14-9.65-.12-14.47-.17 0-2.25 0-4.48-.02-6.72l-.01-.9c-.01-2.04 0-4.09.01-6.13l.01-.66z" fill="#6e6d6d"/><path d="m330 347.97c2.33.02 4.67.03 7.01.05-.01 2.32 0 4.65.01 6.97.03 4.68-.09 9.35-.02 14.02-2.33-.03-4.67-.07-7-.09.02-2.3.02-4.59.01-6.88-.04-4.69 0-9.38-.01-14.07z" fill="#828c61"/><path d="m216.8 348.55c2.23.07 4.47.16 6.7.27.01 4.56.01 9.11-.01 13.67-2.28 0-4.57-.01-6.85-.02.02-4.64-.05-9.28.16-13.92z" fill="#737373"/><path d="m245.07 348.87c2.33-.1 4.65-.21 6.98-.26 2.32-.04 4.64.02 6.97.1 0 2.2.01 4.41.02 6.63 2.33-.05 4.65-.1 6.98-.19 2.32-.09 4.63-.2 6.95-.3l.01.9c-2.33-.01-4.66-.01-6.98-.02-4.67-.04-9.34-.29-14.01-.21-2.33.04-4.66.11-6.98.18.01-2.28.05-4.56.06-6.83z" fill="#a4a4a4"/><path d="m259.02 348.71c2.32.02 4.64.01 6.96-.02.01 2.15.03 4.31.04 6.46-2.33.09-4.65.14-6.98.19-.01-2.22-.02-4.43-.02-6.63z" fill="#dedede"/><path d="m265.98 348.69c2.33-.03 4.67-.01 7 .03-.01 2.04-.02 4.09-.01 6.13-2.32.1-4.63.21-6.95.3-.01-2.15-.03-4.31-.04-6.46z" fill="#939393"/><path d="m337.02 354.99c2.32.05 4.63.09 6.96.14.12 4.94-.09 9.88-.04 14.83-2.31.03-4.62.06-6.93.09l-.01-1.04c-.07-4.67.05-9.34.02-14.02z" fill="#cecece"/><path d="m0 382.48c1.59-8.95 2.55-18.02 4.95-26.83l.45 1.78c-1.44 8.17-3.71 16.27-3.55 24.63l-.11.71c-1.21 7.54-1.02 15.63 1.55 22.87.14.15.43.45.57.6l.26.58c.07 4.44 2.71 8.11 5.4 11.4.9 1.29 1.76 2.62 2.68 3.91-7.73-5.4-9.95-15.11-12.2-23.68v-15.97z" fill="#b0b0b0"/><path d="m202.52 355.72c2.16-.07 4.33-.12 6.49-.17.05 2.32.09 4.65.17 6.98-2.2-.01-4.4-.04-6.59-.1-.07-2.24-.1-4.48-.07-6.71z" fill="#c7c7c7"/><path d="m245.01 355.7c2.32-.07 4.65-.14 6.98-.18.01 2.34.02 4.69.04 7.04-2.36.03-4.71.03-7.07.01.01-2.29.02-4.58.05-6.87z" fill="#ccc"/><path d="m251.99 355.52c4.67-.08 9.34.17 14.01.21v6.79c-4.66-.05-9.31-.03-13.97.04-.02-2.35-.03-4.7-.04-7.04z" fill="#6a6a6a"/><path d="m266 355.73c2.32.01 4.65.01 6.98.02.02 2.24.02 4.47.02 6.72v.37c-2.33-.15-4.67-.28-7-.32v-6.79z" fill="#c5c5c5"/><path d="m111.77 358.48c2.01 4.88 2.47 10.18 3.38 15.33 1.92 12.68 2.22 26.06-2.45 38.21-1.55 4.8-5.29 8.46-9.2 11.45-9.33 6.96-21.03 9.61-32.4 10.83-14.71.73-29.89.93-43.99-3.92-5.14-1.89-10.31-4.13-14.42-7.85 4.34 2 8.46 4.45 12.99 6.02 1.19 1.06 2.67 1.72 4.29 1.69 15.31 3.74 31.39 5.14 47.02 2.6 10.09-1.69 20.17-5.15 28.15-11.72 1.94-1.71 3.8-3.6 4.99-5.91 3.98-7.75 5.28-16.61 5.32-25.23.25-10.65-2.54-21-3.68-31.5z" fill="#a2a2a2"/><path d="m323.3 362.32c2.23-.1 4.47-.19 6.71-.28.01 2.29.01 4.58-.01 6.88-.02 2.31-.02 4.62 0 6.94-2.24.1-4.47.21-6.7.32-.36 4.84-.48 9.7-.5 14.56-.16 4.71-.14 9.42-.03 14.13l-.6.05c-.37-14.19-.62-28.48 1.13-42.6z" fill="#e2e6d3"/><path d="m209.99 362.78c2.22-.03 4.43-.05 6.65-.03.03 2.08.07 4.17.16 6.26-2.3-.07-4.59-.13-6.89-.19.02-2.02.05-4.03.08-6.04z" fill="#cfcfce"/><path d="m330 368.92c2.33.02 4.67.06 7 .09l.01 1.04c.08 4.69-.06 9.39.02 14.08-2.36-.07-4.71-.12-7.06-.17.04-2.7.05-5.4.03-8.1-.02-2.32-.02-4.63 0-6.94z" fill="#858c70"/><path d="m209.29 370.06c2.2.02 4.4.05 6.6.09.1 2.19.2 4.38.28 6.58-2.27-.07-4.53-.12-6.79-.16 0-2.17-.02-4.34-.09-6.51z" fill="#d0d0d0"/><path d="m337.01 370.05c2.31-.03 4.62-.06 6.93-.09.29 4.74-.02 9.48.09 14.22-2.34-.01-4.67-.03-7-.05-.08-4.69.06-9.39-.02-14.08z" fill="#ddd"/><g><path d="m137.75 372.51c3.53.27 8.01-1.18 10.71 1.82 1.69 2.03.88 4.89-1.01 6.46 3.45 1.68 3.74 7.07.37 8.94-3.18 1.24-6.71.63-10.05.77-.01-6 .02-11.99-.02-17.99z"/><path d="m153.35 372.36c1.5-1.07 2.72 1.67 1.47 2.6-1.63 1.2-2.84-1.65-1.47-2.6z"/><path d="m158.7 373.93c.49-.22 1.46-.67 1.94-.9-.03 1.4-.06 2.8-.07 4.2 2.84-.48 2.74 2.27.03 2.22.04 2.94-.26 5.92.25 8.84.49.13 1.47.4 1.96.53-.04.5-.1 1.51-.13 2.01-1.32-.39-3.46-.05-3.83-1.81-.47-3.12-.22-6.29-.24-9.42-.48-.49-1.44-1.46-1.91-1.94.46-.08 1.39-.23 1.85-.3.05-1.15.1-2.29.15-3.43z"/></g><path d="m139.96 374.55c2.47.38 6.67-.97 7.35 2.46.1 4-4.78 2.86-7.35 3.09v-5.55z" fill="#fff"/><path d="m323.3 376.18c2.23-.11 4.46-.22 6.7-.32.02 2.7.01 5.4-.03 8.1-.04 2.3-.05 4.6-.02 6.9-2.39-.05-4.77-.09-7.15-.12.02-4.86.14-9.72.5-14.56z" fill="#dbe1c2"/><g><path d="m166.37 378.98c2.07-2.11 5.4-2.31 7.27.18 1.56-2.34 5.85-2.89 6.87.21.71 3.74.33 7.6.22 11.38-.48-.11-1.43-.34-1.91-.46-.04-3.33.26-6.7-.22-10.01-1.01-2-3.96-1.24-4.52.71-.55 3.17-.21 6.42-.35 9.62-.5-.05-1.5-.15-1.99-.2.03-3.58.13-7.17-.32-10.72-1.62-.79-3.66-.64-4.37 1.26-.68 3.14-.31 6.38-.4 9.57l-2.02-.03c-.01-4.34 0-8.67-.01-13.01l1.75-.11v1.61z"/><path d="m183.44 381.22c.76-4.36 7.94-5.71 9.86-1.74.58 3.5.31 7.1.53 10.64-.61 1.53-1.93-.3-2.35-.98-1.83 1.38-4.45 2.25-6.58 1.02-2.48-1.39-2.01-5.57.6-6.55 2.02-.72 4.16-.97 6.25-1.42-.55-1.41-.68-3.46-2.71-3.2-2.52-.58-3.05 3.38-5.6 2.23z"/><path d="m198.51 378.8c1.77-1.31 4.3-2.39 6.27-.79 3.3 2.86 3.27 8.99-.07 11.82-1.75 1.54-4.23.82-5.92-.41.03 2.07.02 4.15-.03 6.23-.5-.07-1.49-.22-1.99-.29.12-5.88-.13-11.75.12-17.62l1.51-.7.11 1.76z"/></g><path d="m153.09 377.58c.49 0 1.46.01 1.95.01.11 4.27.1 8.55 0 12.82-.49.01-1.47.02-1.95.03-.11-4.29-.13-8.58 0-12.86z" fill="#080808"/><path d="m200.31 379.55c5.9-3.11 6.79 10.24.75 9.32-3.27-1.65-3.09-6.97-.75-9.32z" fill="#fff"/><path d="m139.97 382.15c2.02.05 4.06-.06 6.06.34 2.59.71 2.57 5.09-.12 5.68-1.97.31-3.97.19-5.96.22 0-2.08.01-4.16.02-6.24z" fill="#fff"/><path d="m3.29 405.64c-2.57-7.24-2.76-15.33-1.55-22.87.45 7.86.48 15.73 2.12 23.47-.14-.15-.43-.45-.57-.6z" fill="#87a721"/><path d="m11.53 382.97c.4 1.74.82 3.47 1.13 5.24.13 3.34.47 6.7 1.41 9.93l.17.5c-.69.5-2.07 1.5-2.75 2.01-.9-1.48-2.38-2.84-2.14-4.73.04-4.4 1.25-8.68 2.18-12.95z" fill="#e0f79a"/><path d="m186.25 385.39c1.78-.7 3.68-1.01 5.54-1.38-.21 2.13-1.09 5.06-3.77 4.93-1.98.64-3.61-2.44-1.77-3.55z" fill="#fff"/><path d="m224.08 383.87c2.38-.02 4.76-.02 7.14-.02-.01 2.39-.04 4.78-.1 7.17-.07 2.34-.15 4.7-.21 7.05-2.53-.06-5.06-.11-7.58-.21.02-2.07.01-4.14.29-6.19.42-2.58.69-5.19.46-7.8z" fill="#d6d6d6"/><path d="m259.02 384h6.95c.01 2.34.02 4.67.04 7.01-2.34-.01-4.68-.01-7.02 0 .01-2.34.02-4.68.03-7.01z" fill="#afafaf"/><path d="m329.97 383.96c2.35.05 4.7.1 7.06.17.06 4.64-.04 9.28-.02 13.93-2.36-.04-4.72-.04-7.07-.03.04-2.4.03-4.78.01-7.17-.03-2.3-.02-4.6.02-6.9z" fill="#8b8e80"/><path d="m337.03 384.13c2.33.02 4.66.04 7 .05.3 4.62.01 9.25-.12 13.87-2.3.12-4.61.13-6.9.01-.02-4.65.08-9.29.02-13.93z" fill="#eaeaea"/><path d="m231.12 391.02h6.83c.01 2.33.02 4.66.02 7-2.35.14-4.71.15-7.06.05.06-2.35.14-4.71.21-7.05z" fill="#c9c9c9"/><path d="m237.95 391.02c2.34-.01 4.69-.02 7.03-.02-.01 2.32-.02 4.65-.02 6.99-2.33-.01-4.66-.01-6.99.03 0-2.34-.01-4.67-.02-7z" fill="#9a9a9a"/><path d="m244.98 391c2.34-.01 4.69 0 7.03.02-.01 2.32-.01 4.65-.01 6.98-2.35 0-4.7-.01-7.04-.01 0-2.34.01-4.67.02-6.99z" fill="#7a7a7a"/><path d="m252.01 391.02c2.33 0 4.65-.01 6.98-.01.01 2.33.01 4.67.02 7.02-2.34-.02-4.68-.02-7.01-.03 0-2.33 0-4.66.01-6.98z" fill="#cfcfce"/><path d="m258.99 391.01c2.34-.01 4.68-.01 7.02 0-.01 2.34-.01 4.68 0 7.02h-7c-.01-2.35-.01-4.69-.02-7.02z" fill="#404040"/><path d="m266.01 391.01c2.32 0 4.64 0 6.97-.01-.01 2.34-.02 4.69.02 7.04-2.33-.01-4.67-.02-6.99-.01-.01-2.34-.01-4.68 0-7.02z" fill="#c4c4c3"/><path d="m272.98 391c2.61-.01 5.22-.01 7.83-.01-.08 2.33-.16 4.66-.21 7-.04 2.34-.05 4.68-.01 7.03.04 2.3.11 4.6.18 6.91 2.26.05 4.51.1 6.77.16.03 2.3.04 4.6.06 6.91-4.93-.01-9.86.01-14.79-.01.12-2.27.24-4.54.35-6.8 2.33-.12 4.65-.22 6.98-.33.05-2.27.08-4.54.1-6.8-2.32-.14-4.64-.27-6.96-.39-.12-2.22-.23-4.43-.28-6.63-.04-2.35-.03-4.7-.02-7.04z" fill="#838282"/><path d="m280.81 390.99c2.21 0 4.42-.01 6.63-.01.02 2.36.04 4.71.05 7.07-2.3-.02-4.6-.04-6.89-.06.05-2.34.13-4.67.21-7z" fill="#a7a7a6"/><path d="m322.8 390.74c2.38.03 4.76.07 7.15.12.02 2.39.03 4.77-.01 7.17-.03 2.29-.04 4.59-.01 6.89-2.39-.11-4.78-.18-7.16-.05-.11-4.71-.13-9.42.03-14.13z" fill="#ced9aa"/><path d="m237.97 398.02c2.33-.04 4.66-.04 6.99-.03.03 2.33.06 4.67.09 7.01-2.38 0-4.76 0-7.13-.01 0-2.32.01-4.65.05-6.97z" fill="#8a8a8a"/><path d="m244.96 397.99c2.34 0 4.69.01 7.04.01-.01 2.31-.01 4.62-.02 6.94l-6.93.06c-.03-2.34-.06-4.68-.09-7.01z" fill="#bcbcbc"/><path d="m252 398c2.33.01 4.67.01 7.01.03-.1 4.66-.22 9.32-.1 13.98-2.34.04-4.67.03-6.99 0 .02-2.36.05-4.72.06-7.07.01-2.32.01-4.63.02-6.94z" fill="#969696"/><path d="m259.01 398.03h7c0 2.29.01 4.6 0 6.9 0 2.36 0 4.73.01 7.1-2.37-.02-4.74-.03-7.11-.02-.12-4.66 0-9.32.1-13.98z" fill="#747474"/><path d="m266.01 398.03c2.32-.01 4.66 0 6.99.01.05 2.2.16 4.41.28 6.63 2.32.12 4.64.25 6.96.39-.02 2.26-.05 4.53-.1 6.8-2.33.11-4.65.21-6.98.33-.11 2.26-.23 4.53-.35 6.8-2.31 0-4.62 0-6.93-.02.05-2.32.1-4.63.14-6.94 2.34-.01 4.68-.02 7.02-.02-.01-2.33-.02-4.65-.03-6.96-2.33-.05-4.67-.08-7-.12.01-2.3 0-4.61 0-6.9z" fill="#a5a5a5"/><path d="m280.6 397.99c2.29.02 4.59.04 6.89.06-.01 2.31-.02 4.62 0 6.93-2.31.01-4.6.02-6.9.04-.04-2.35-.03-4.69.01-7.03z" fill="#b1b1b1"/><path d="m329.94 398.03c2.35-.01 4.71-.01 7.07.03.03 2.34.04 4.69.04 7.04-2.38.01-4.76-.03-7.12-.18-.03-2.3-.02-4.6.01-6.89z" fill="#979991"/><path d="m11.49 400.65c.68-.51 2.06-1.51 2.75-2.01 1.75 4.37 4.74 8.07 7.96 11.45-2.59-1.06-5.52-1.75-7.48-3.88-1.36-1.68-2.09-3.75-3.23-5.56z" fill="#cdeb45"/><path d="m245.05 405 6.93-.06c-.01 2.35-.04 4.71-.06 7.07-2.31-.02-4.61-.02-6.91-.02-.02-2.33-.01-4.66.04-6.99z" fill="#cacaca"/><path d="m266.01 404.93c2.33.04 4.67.07 7 .12.01 2.31.02 4.63.03 6.96-2.34 0-4.68.01-7.02.02-.01-2.37-.01-4.74-.01-7.1z" fill="#cfcfcf"/><path d="m280.59 405.02c2.3-.02 4.59-.03 6.9-.04 0 2.37.02 4.74.05 7.11-2.26-.06-4.51-.11-6.77-.16-.07-2.31-.14-4.61-.18-6.91z" fill="#4c4c4c"/><path d="m322.17 404.92.6-.05c2.38-.13 4.77-.06 7.16.05.15 2.35.19 4.71.19 7.08-2.47-.01-4.94-.02-7.4 0h-.38c-.01-2.36-.04-4.73-.17-7.08z" fill="#aab094"/><path d="m4.12 406.82c.07.14.22.43.3.57 1.53 3.69 4.06 6.95 5.1 10.83-2.69-3.29-5.33-6.96-5.4-11.4z" fill="#87a721"/><path d="m258.91 412.01c2.37-.01 4.74 0 7.11.02-.04 2.31-.09 4.62-.14 6.94-2.32.02-4.64.03-6.95.04-.02-2.34-.02-4.67-.02-7z" fill="#c3c3c3"/><path d="m288.13 412.07c1.99-.02 3.98-.04 5.97-.03 0 2.3.01 4.61.01 6.92-2.04 0-4.08.01-6.11.02.04-2.31.08-4.61.13-6.91z" fill="#d9d8d8"/><path d="m294.1 412.04c2.34 0 4.69.02 7.04.03.01 2.29.03 4.58.04 6.87-2.36.05-4.72.05-7.07.02 0-2.31-.01-4.62-.01-6.92z" fill="#cbcbca"/><path d="m301.14 412.07c4.88-.01 9.76-.05 14.64-.01-.01 2.3-.01 4.6-.01 6.91-4.86.07-9.72-.01-14.59-.03-.01-2.29-.03-4.58-.04-6.87z" fill="#bcbcbc"/><path d="m315.78 412.06c2.18 0 4.37-.04 6.56-.06h.38c-.05 2.27-.07 4.54-.07 6.82-2.29.14-4.59.19-6.88.15 0-2.31 0-4.61.01-6.91z" fill="#e0e0e0"/><path d="m23.01 422.94c28.64 9.05 61.67 7.01 87.38-9.28l-.26 1.55c-1.19 2.31-3.05 4.2-4.99 5.91-7.98 6.57-18.06 10.03-28.15 11.72-15.63 2.54-31.71 1.14-47.02-2.6-.21-2.17-2.68-2.34-4.29-1.69-4.53-1.57-8.65-4.02-12.99-6.02-.12-.1-.37-.3-.49-.4-.92-1.29-1.78-2.62-2.68-3.91 4.81.55 8.84 3.56 13.49 4.72z" fill="#c2b700"/><path d="m25.68 428.55c1.61-.65 4.08-.48 4.29 1.69-1.62.03-3.1-.63-4.29-1.69z" fill="#9baf32"/></svg>
