<?xml version="1.0" encoding="iso-8859-1"?>
<!-- Uploaded to: SVG Repo, www.svgrepo.com, Generator: SVG Repo Mixer Tools -->
<svg height="800px" width="800px" version="1.1" id="Layer_1" xmlns="http://www.w3.org/2000/svg" xmlns:xlink="http://www.w3.org/1999/xlink" 
	 viewBox="0 0 481.6 481.6" xml:space="preserve">
<path style="fill:#2C3331;" d="M375.2,456.8c0,13.6-11.2,24.8-24.8,24.8H105.6c-13.6,0-24.8-11.2-24.8-24.8l0,0
	c0-13.6,11.2-24.8,24.8-24.8h244C364,432,375.2,443.2,375.2,456.8L375.2,456.8z"/>
<path style="fill:#B58539;" d="M397.6,407.2l-72.8-388C322.4,8,312.8,0,300.8,0H154.4c-11.2,0-21.6,8-24,19.2L57.6,410.4
	c-1.6,7.2-8,14.4-3.2,20s11.2,8.8,19.2,8.8h309.6l0,0c13.6,0,16-11.2,16-24.8C399.2,412,398.4,409.6,397.6,407.2z"/>
<path style="fill:#997330;" d="M405.6,422.4l-80.8-388c-2.4-11.2-12-19.2-24-19.2H154.4c-11.2,0-21.6,8-24,19.2L49.6,425.6
	c-1.6,7.2,0,14.4,4.8,20s11.2,8.8,19.2,8.8h309.6l0,0c13.6,0,24.8-11.2,24.8-24.8C407.2,427.2,406.4,424.8,405.6,422.4z"/>
<path style="fill:#BA8B3E;" d="M405.6,422.4l-80.8-388c-2.4-11.2-12-19.2-24-19.2H154.4c-11.2,0-21.6,8-24,19.2L49.6,425.6
	c-1.6,7.2,0,14.4,4.8,20s11.2,8.8,19.2,8.8h309.6l0,0c13.6,0,24.8-11.2,24.8-24.8C407.2,427.2,406.4,424.8,405.6,422.4z"/>
<path style="fill:#997330;" d="M405.6,422.4l-80.8-388c-2.4-11.2-12-19.2-24-19.2H154.4c-11.2,0-21.6,8-24,19.2l-27.2,391.2
	c-1.6,7.2,0,14.4,4.8,20s11.2,8.8,19.2,8.8h255.2l0,0c13.6,0,24.8-11.2,24.8-24.8C407.2,427.2,406.4,424.8,405.6,422.4z"/>
<g>
	<path style="fill:#8C6425;" d="M382.4,454.4L382.4,454.4c13.6,0,24.8-11.2,24.8-24.8c0-2.4-0.8-5.6-1.6-8L324.8,34.4
		c-2.4-11.2-12-19.2-24-19.2H154.4c-11.2,0-21.6,8-24,19.2"/>
	<polygon style="fill:#8C6425;" points="60.8,371.2 395.2,371.2 388.8,338.4 67.2,338.4 	"/>
</g>
<polygon style="fill:#9FAAA8;" points="64,354.4 392,354.4 325.6,36.8 130.4,36.8 "/>
<polygon style="fill:#84918F;" points="109.6,354.4 392,354.4 325.6,36.8 130.4,36.8 "/>
<polyline style="fill:#6B7573;" points="392,354.4 325.6,36.8 130.4,36.8 "/>
<polygon style="fill:#505957;" points="234.4,354.4 364.8,224.8 360,201.6 207.2,354.4 "/>
<path style="fill:#2C3331;" d="M274.4,354.4V95.2c0-17.6-14.4-24.8-32.8-24.8h-27.2c-17.6,0-32.8,6.4-32.8,24.8v259.2L274.4,354.4
	L274.4,354.4z"/>
<path style="fill:#080A09;" d="M242.4,70.4h-27.2c-17.6,0-32.8,6.4-32.8,24.8v47.2c0-17.6,14.4-24.8,32.8-24.8h27.2
	c17.6,0,32.8,6.4,32.8,24.8V95.2C274.4,76.8,260,70.4,242.4,70.4z"/>
<path style="fill:#EFD862;" d="M429.6,122.4c-4-4-9.6-4-13.6,0L184,355.2h27.2l218.4-218.4C433.6,132,433.6,126.4,429.6,122.4z"/>
<path style="fill:#E2C444;" d="M184,355.2h27.2l218.4-218.4c4-4,4-9.6,0-13.6"/>
<circle style="fill:#FFAC1A;" cx="358.4" cy="192.8" r="29.6"/>
<path style="fill:#FF7A17;" d="M387.2,192.8c0,16-12.8,29.6-29.6,29.6c-16,0-29.6-12.8-29.6-29.6"/>
</svg>