<?xml version="1.0" encoding="UTF-8"?>
<!-- Created with Inkscape (http://www.inkscape.org/) -->
<svg width="3165.9" height="2135.3" version="1.0" xmlns="http://www.w3.org/2000/svg">
 <defs>
  <marker id="Arrow2Lend" overflow="visible" orient="auto">
   <path transform="matrix(-1.1,0,0,-1.1,-1.1,0)" d="m8.7186 4.0337-10.926-4.0177 10.926-4.0177c-1.7455 2.3721-1.7354 5.6175 0 8.0354z" fill-rule="evenodd" stroke-linejoin="round" stroke-width=".625"/>
  </marker>
 </defs>
 <g fill="none" stroke="#000">
  <g transform="translate(136.05 -10)">
   <path d="m700.1 320.03h149.87" stroke-width="10.063"/>
   <g stroke-width="10">
    <path d="m845 325v-315"/>
    <path d="m840 15h1451"/>
    <path d="m2316 15h50.034"/>
    <path d="m2414.1 15h46.675"/>
    <path d="m2489.9 15h53.142"/>
    <path d="m2568 15h57"/>
    <path d="m845 2020v-1610.7"/>
   </g>
   <path d="m775.03 684.97h149.87" stroke-width="10.063"/>
  </g>
  <path d="m1075.9 610h1700.1" stroke-dasharray="40, 40" stroke-dashoffset="7" stroke-width="10"/>
  <path d="m1075.9 732h1700.1" stroke-dasharray="40, 40" stroke-dashoffset="7" stroke-width="10"/>
  <path d="m1371 895c12.5-42.5 50-145 75.625-225.62 26.56-83.568 54.375-154.38 94.375-154.38s54.408 62.5 90 125 55 125 100 125 60.23-50.345 90-95c30-45 54.931-95 100-95 30 0 56.176 41.881 80 80 25 40 38.948 85 81.25 85 42.5 0 61.112-27.362 83.75-50 25-25 47.5-45 85-45s44.375 11.25 60 20 40 15 65 15c50 0 55-20 80-20s20 10 35 10 5-5 20-5 10 15 35 15 30-20 60-20 30 5 55 5 35-5 45-5 30 10 35 10" stroke-width="14"/>
  <path d="m901.05 1210h170c80 0 150 5 165 0 27.659-9.2196 42.28-39.928 50-60 50-130 60-180 75-220" stroke-width="14"/>
  <g stroke-linecap="round">
   <path d="m1331 940s15-15 20-15 10 15 15 15 20-15 20-15" stroke-width="14"/>
   <path d="m1341 900s15-15 20-15 10 15 15 15 20-15 20-15" stroke-width="14"/>
   <path d="m1256 1550v-314.89" stroke-width="10"/>
   <path d="m2156 1560v-802.14" stroke-width="10"/>
   <path d="m2536 745v-5" marker-end="url(#Arrow2Lend)" stroke-width="4.6883"/>
   <path d="m2536 930.62v-170.62" stroke-width="9.3541"/>
   <path d="m2536 595v5" marker-end="url(#Arrow2Lend)" stroke-width="4.6883"/>
   <path d="m2536 385.32v194.04" stroke-width="10"/>
   <path d="m997.28 1869.4h-5" marker-end="url(#Arrow2Lend)" stroke-width="4.6883"/>
   <path d="m1226 1869.4h-212.62" stroke-width="10"/>
   <path d="m2142.3 1869.4h5" marker-end="url(#Arrow2Lend)" stroke-width="4.6883"/>
   <path d="m1846 1869.4h278.35" stroke-width="10"/>
   <path d="m2156 1927.3v-177.35" stroke-width="10"/>
  </g>
 </g>
 <g font-family="'Nimbus Sans L'" font-stretch="condensed" font-weight="bold">
  <text x="-2.5050733" y="102.64191" font-size="92px" style="line-height:0%" xml:space="preserve"><tspan x="-2.5050733" y="102.64191" style="line-height:1.3"><tspan x="-2.5050733" y="102.64191">INPUT:</tspan><tspan x="249.05743" y="102.64191" dx="0"/></tspan><tspan x="-2.5050733" y="222.24202" style="line-height:1.3"><tspan x="-2.5050733" y="222.24202">DIGITAL CHANGE</tspan><tspan x="647.42462" y="222.24202" dx="0"/></tspan><tspan x="-2.5050733" y="341.84198" style="line-height:1.3"><tspan x="-2.5050733" y="341.84198">OR ANALOG STEP</tspan></tspan></text>
  <text x="-3.6800001" y="822.79987" font-size="92px" style="line-height:0%" xml:space="preserve"><tspan x="-3.6800001" y="822.79987" style="line-height:1.3"><tspan x="-3.6800001" y="822.79987">OUTPUT</tspan><tspan x="306.64032" y="822.79987" dx="0"/></tspan><tspan x="-3.6800001" y="942.39996" style="line-height:1.3"><tspan x="-3.6800001" y="942.39996">RESPONSE</tspan></tspan></text>
  <text x="797.19452" y="706.05597" style="line-height:0%" xml:space="preserve"><tspan x="797.19452" y="706.05597" font-size="92px" style="line-height:1.3"><tspan x="797.19452" y="706.05597">V</tspan></tspan></text>
  <text x="853.33038" y="724.29596" style="line-height:0%" xml:space="preserve"><tspan x="853.33038" y="724.29596" font-size="92px" style="line-height:1.3"><tspan x="853.33038" y="724.29596">2</tspan></tspan></text>
  <text x="777.19452" y="1246.056" style="line-height:0%" xml:space="preserve"><tspan x="777.19452" y="1246.056" font-size="92px" style="line-height:1.3"><tspan x="777.19452" y="1246.056">V</tspan></tspan></text>
  <text x="825.04242" y="1265.3199" style="line-height:0%" xml:space="preserve"><tspan x="825.04242" y="1265.3199" font-size="92px" style="line-height:1.3"><tspan x="825.04242" y="1265.3199">1</tspan></tspan></text>
  <text x="962.39441" y="2106.844" style="line-height:0%" xml:space="preserve"><tspan x="962.39441" y="2106.844" font-size="92px" style="line-height:1.3"><tspan x="962.39441" y="2106.844">t</tspan></tspan></text>
  <text x="990.80243" y="2135.3201" style="line-height:0%" xml:space="preserve"><tspan x="990.80243" y="2135.3201" font-size="92px" style="line-height:1.3"><tspan x="990.80243" y="2135.3201">1</tspan></tspan></text>
  <text x="1283.3302" y="1671.236" style="line-height:0%" xml:space="preserve"><tspan x="1283.3302" y="1671.236" font-size="92px" style="line-height:1.3"><tspan x="1283.3302" y="1671.236">2</tspan></tspan></text>
  <text x="1252.3943" y="1642.192" style="line-height:0%" xml:space="preserve"><tspan x="1252.3943" y="1642.192" font-size="92px" style="line-height:1.3"><tspan x="1252.3943" y="1642.192">t</tspan></tspan></text>
  <text x="2122.3943" y="1682.192" style="line-height:0%" xml:space="preserve"><tspan x="2122.3943" y="1682.192" font-size="92px" style="line-height:1.3"><tspan x="2122.3943" y="1682.192">t</tspan></tspan></text>
  <text x="2158.8062" y="1719.764" style="line-height:0%" xml:space="preserve"><tspan x="2158.8062" y="1719.764" font-size="92px" style="line-height:1.3"><tspan x="2158.8062" y="1719.764">3</tspan></tspan></text>
  <text transform="translate(-95.954 -10)" x="1341.4718" y="1912.8" style="inline-size:609.636;line-height:0%;white-space:pre" xml:space="preserve"/>
  <text x="2550.342" y="935.92395" style="line-height:0%" xml:space="preserve"><tspan x="2550.342" y="935.92395" font-size="92px" style="line-height:1.3"><tspan x="2550.342" y="935.92395">ERROR BAND</tspan></tspan></text>
 </g>
</svg>
