<?xml version="1.0" encoding="UTF-8" standalone="no"?>
<!DOCTYPE svg PUBLIC "-//W3C//DTD SVG 1.0//EN" "http://www.w3.org/TR/2001/PR-SVG-20010719/DTD/svg10.dtd">
<svg width="18cm" height="20cm" viewBox="729 339 342 392" xmlns="http://www.w3.org/2000/svg" xmlns:xlink="http://www.w3.org/1999/xlink">
  <defs/>
  <g id="Background"/>
  <g id="Background"/>
  <g id="Background"/>
  <g id="Background">
    <g>
      <rect style="fill: #1e90ff; fill-opacity: 1; stroke-opacity: 1; stroke-width: 2; stroke: #1e90ff" x="730" y="340" width="340" height="390" rx="6" ry="6"/>
      <text font-size="22.5778" style="fill: #000000; fill-opacity: 1; stroke: none;text-anchor:middle;font-family:sans-serif;font-style:normal;font-weight:normal" x="900" y="545.039">
        <tspan x="900" y="545.039"></tspan>
      </text>
    </g>
    <text font-size="30.48" style="fill: #ffffff; fill-opacity: 1; stroke: none;text-anchor:middle;font-family:sans-serif;font-style:normal;font-weight:700" x="900" y="371.825">
      <tspan x="900" y="371.825">Process</tspan>
    </text>
    <g>
      <rect style="fill: #ffffff; fill-opacity: 0.470588; stroke-opacity: 1; stroke-width: 2; stroke: #1e90ff" x="760" y="380" width="60" height="40" rx="6" ry="6"/>
      <text font-size="22.5778" style="fill: #000000; fill-opacity: 1; stroke: none;text-anchor:middle;font-family:sans-serif;font-style:normal;font-weight:normal" x="790" y="410.039">
        <tspan x="790" y="410.039">Code</tspan>
      </text>
    </g>
    <g>
      <rect style="fill: #ffffff; fill-opacity: 0.470588; stroke-opacity: 1; stroke-width: 2; stroke: #1e90ff" x="840" y="380" width="60" height="40" rx="6" ry="6"/>
      <text font-size="22.5778" style="fill: #000000; fill-opacity: 1; stroke: none;text-anchor:middle;font-family:sans-serif;font-style:normal;font-weight:normal" x="870" y="410.039">
        <tspan x="870" y="410.039">Data</tspan>
      </text>
    </g>
    <g>
      <rect style="fill: #ffffff; fill-opacity: 0.470588; stroke-opacity: 1; stroke-width: 2; stroke: #1e90ff" x="920" y="380" width="120" height="40" rx="6" ry="6"/>
      <text font-size="22.5778" style="fill: #000000; fill-opacity: 1; stroke: none;text-anchor:middle;font-family:sans-serif;font-style:normal;font-weight:normal" x="980" y="410.039">
        <tspan x="980" y="410.039">Resources</tspan>
      </text>
    </g>
    <g>
      <rect style="fill: #ff0000; fill-opacity: 1; stroke-opacity: 1; stroke-width: 2; stroke-linejoin: round; stroke: #ff0000" x="740" y="430" width="100" height="290" rx="6" ry="6"/>
      <rect style="fill: #ffffff; fill-opacity: 0.470588; stroke-opacity: 1; stroke-width: 2; stroke: #ff0000" x="740" y="520" width="100" height="40" rx="6" ry="6"/>
      <text font-size="22.5778" style="fill: #000000; fill-opacity: 1; stroke: none;text-anchor:middle;font-family:sans-serif;font-style:normal;font-weight:normal" x="790" y="550.039">
        <tspan x="790" y="550.039">Stack</tspan>
      </text>
      <text font-size="20.32" style="fill: #ffffff; fill-opacity: 1; stroke: none;text-anchor:middle;font-family:sans-serif;font-style:normal;font-weight:700" x="792" y="457.875">
        <tspan x="792" y="457.875">Thread</tspan>
      </text>
      <rect style="fill: #ffffff; fill-opacity: 0.470588; stroke-opacity: 1; stroke-width: 2; stroke: #ff0000" x="740" y="470" width="100" height="40" rx="6" ry="6"/>
      <text font-size="22.5778" style="fill: #000000; fill-opacity: 1; stroke: none;text-anchor:middle;font-family:sans-serif;font-style:normal;font-weight:normal" x="790" y="500.039">
        <tspan x="790" y="500.039">Registers</tspan>
      </text>
    </g>
    <g>
      <rect style="fill: #ff0000; fill-opacity: 1; stroke-opacity: 1; stroke-width: 2; stroke-linejoin: round; stroke: #ff0000" x="850" y="430" width="100" height="290" rx="6" ry="6"/>
      <rect style="fill: #ffffff; fill-opacity: 0.470588; stroke-opacity: 1; stroke-width: 2; stroke: #ff0000" x="850" y="520" width="100" height="40" rx="6" ry="6"/>
      <text font-size="22.5778" style="fill: #000000; fill-opacity: 1; stroke: none;text-anchor:middle;font-family:sans-serif;font-style:normal;font-weight:normal" x="900" y="550.039">
        <tspan x="900" y="550.039">Stack</tspan>
      </text>
      <text font-size="20.32" style="fill: #ffffff; fill-opacity: 1; stroke: none;text-anchor:middle;font-family:sans-serif;font-style:normal;font-weight:700" x="902" y="457.875">
        <tspan x="902" y="457.875">Thread</tspan>
      </text>
      <rect style="fill: #ffffff; fill-opacity: 0.470588; stroke-opacity: 1; stroke-width: 2; stroke: #ff0000" x="850" y="470" width="100" height="40" rx="6" ry="6"/>
      <text font-size="22.5778" style="fill: #000000; fill-opacity: 1; stroke: none;text-anchor:middle;font-family:sans-serif;font-style:normal;font-weight:normal" x="900" y="500.039">
        <tspan x="900" y="500.039">Registers</tspan>
      </text>
    </g>
    <g>
      <rect style="fill: #ff0000; fill-opacity: 1; stroke-opacity: 1; stroke-width: 2; stroke-linejoin: round; stroke: #ff0000" x="960" y="430" width="100" height="290" rx="6" ry="6"/>
      <rect style="fill: #ffffff; fill-opacity: 0.470588; stroke-opacity: 1; stroke-width: 2; stroke: #ff0000" x="960" y="520" width="100" height="40" rx="6" ry="6"/>
      <text font-size="22.5778" style="fill: #000000; fill-opacity: 1; stroke: none;text-anchor:middle;font-family:sans-serif;font-style:normal;font-weight:normal" x="1010" y="550.039">
        <tspan x="1010" y="550.039">Stack</tspan>
      </text>
      <text font-size="20.32" style="fill: #ffffff; fill-opacity: 1; stroke: none;text-anchor:middle;font-family:sans-serif;font-style:normal;font-weight:700" x="1012" y="457.875">
        <tspan x="1012" y="457.875">Thread</tspan>
      </text>
      <rect style="fill: #ffffff; fill-opacity: 0.470588; stroke-opacity: 1; stroke-width: 2; stroke: #ff0000" x="960" y="470" width="100" height="40" rx="6" ry="6"/>
      <text font-size="22.5778" style="fill: #000000; fill-opacity: 1; stroke: none;text-anchor:middle;font-family:sans-serif;font-style:normal;font-weight:normal" x="1010" y="500.039">
        <tspan x="1010" y="500.039">Registers</tspan>
      </text>
    </g>
    <g>
      <path style="fill: none; stroke-opacity: 1; stroke-width: 8; stroke: #ffffff" d="M 790 600 C 770,600 810,620 790,620"/>
      <path style="fill: none; stroke-opacity: 1; stroke-width: 8; stroke: #ffffff" d="M 790 620 C 770,620 810,640 790,640"/>
      <path style="fill: none; stroke-opacity: 1; stroke-width: 8; stroke: #ffffff" d="M 790 640 C 770,640 810,660 790,660"/>
      <path style="fill: none; stroke-opacity: 1; stroke-width: 8; stroke: #ffffff" d="M 790 660 C 770,660 810,680 790,680"/>
    </g>
    <g>
      <path style="fill: none; stroke-opacity: 1; stroke-width: 8; stroke: #ffffff" d="M 900 570 C 880,570 920,590 900,590"/>
      <path style="fill: none; stroke-opacity: 1; stroke-width: 8; stroke: #ffffff" d="M 900 590 C 880,590 920,610 900,610"/>
      <path style="fill: none; stroke-opacity: 1; stroke-width: 8; stroke: #ffffff" d="M 900 610 C 880,610 920,630 900,630"/>
      <path style="fill: none; stroke-opacity: 1; stroke-width: 8; stroke: #ffffff" d="M 900 630 C 880,630 920,650 900,650"/>
    </g>
    <g>
      <path style="fill: none; stroke-opacity: 1; stroke-width: 8; stroke: #ffffff" d="M 1010 630 C 990,630 1030,650 1010,650"/>
      <path style="fill: none; stroke-opacity: 1; stroke-width: 8; stroke: #ffffff" d="M 1010 650 C 990,650 1030,670 1010,670"/>
      <path style="fill: none; stroke-opacity: 1; stroke-width: 8; stroke: #ffffff" d="M 1010 670 C 990,670 1030,690 1010,690"/>
      <path style="fill: none; stroke-opacity: 1; stroke-width: 8; stroke: #ffffff" d="M 1010 690 C 990,690 1030,710 1010,710"/>
    </g>
  </g>
</svg>
