<svg xmlns="http://www.w3.org/2000/svg" xmlns:xlink="http://www.w3.org/1999/xlink" width="395" height="364" xmlns:v="https://vecta.io/nano"><style><![CDATA[.B{fill:#231f20}.C{fill:#fff}]]></style><defs><path id="A" d="M1.8 2.717h393.774v303.391H1.8z"/><path id="B" d="M44.391 62.27v-2.986l1.001-.998 1.001.998v2.986l-1.001.998z"/><path id="C" d="M44.391 78.586v-2.993l1.001-.998 1.001.998v2.993l-1.001.998z"/><path id="D" d="M44.391 160.137v-2.979l1.001-.998 1.001.998v2.979l-1.001.998z"/><path id="E" d="M198.672 88.959l167.422-26.253.107.656-167.422 26.253"/><path id="F" d="M198.672 154.236l167.422-26.246.107.663-167.422 26.246"/></defs><g transform="translate(-1)" fill="none" fill-rule="evenodd"><path d="M369.267 24.002h-42.1l-71.314 90.666H122.955L72.134 24.002H28.098c-10.628 0-19.243 8.587-19.243 19.205v250.826c0 10.611 8.614 19.219 19.243 19.219h341.169c10.636 0 19.257-8.608 19.257-19.219V43.207c0-10.618-8.621-19.205-19.257-19.205" class="B"/><g transform="translate(0 13.853)"><mask id="G" class="C"><use xlink:href="#A"/></mask><path d="M369.267 9.752v7.042h-38.664l-71.321 90.686h-140.47L67.998 16.794h-39.9a12.18 12.18 0 0 0-12.193 12.167v250.881c.014 6.729 5.464 12.174 12.193 12.188h341.169c6.729-.014 12.193-5.467 12.2-12.188V28.961c-.007-6.736-5.457-12.16-12.2-12.167V2.717c14.528 0 26.307 11.732 26.307 26.244v250.881c0 14.505-11.764 26.258-26.307 26.266H28.098c-14.536-.007-26.3-11.761-26.3-26.266V28.961c0-14.512 11.778-26.244 26.3-26.244h48.178l50.814 90.679h125.328l71.321-90.679h45.528v7.035z" mask="url(#G)" class="B"/></g><path d="M198.724 24.002H27.912c-10.64 0-19.271 8.587-19.271 19.205v250.833c0 10.604 8.631 19.212 19.271 19.212h170.812V24.002" class="C"/><path d="M198.724 24.002v.591H27.912c-10.311.007-18.664 8.316-18.678 18.614v250.833c.014 10.276 8.366 18.606 18.678 18.628H198.13V24.002h.594v.591-.591h.594v289.842H27.912c-10.962-.007-19.851-8.872-19.858-19.804V43.207c.007-10.946 8.896-19.789 19.858-19.789h171.405v.584h-.594z" class="B"/><path d="M198.724 313.251h170.812c10.655 0 19.279-8.601 19.279-19.212V43.206c0-10.604-8.624-19.205-19.279-19.205H198.724v289.251" class="C"/><path d="M198.724 313.251v-.584h170.812c10.326-.014 18.671-8.338 18.685-18.628V43.206c-.014-10.276-8.359-18.599-18.685-18.614H199.317v288.659h-.594v-.584.584h-.594V23.417h171.405c10.977 0 19.865 8.858 19.865 19.789v250.833c0 10.939-8.888 19.796-19.865 19.804H198.13v-.591h.594z" class="B"/><path d="M198.724 24.002L32.453 19.484c-10.655 0-19.271 8.601-19.271 19.212v250.819c0 10.611 8.617 19.205 19.271 19.205l166.271 4.532V24.002" class="C"/><path d="M198.724 24.002l-.014.584-166.271-4.525.014-.577v.584c-10.326.014-18.671 8.338-18.692 18.628v250.819c.021 10.283 8.366 18.599 18.692 18.621l165.685 4.511-.007-288.645h.594l-.014.584.014-.584h.594v289.856l-166.879-4.546.014-.591v.591c-10.977 0-19.858-8.865-19.858-19.796V38.696c0-10.939 8.881-19.796 19.858-19.796l166.864 4.532v.57h-.594z" class="B"/><path d="M198.724 24.002L36.979 14.973c-10.648 0-19.271 8.594-19.271 19.205v250.841c0 10.582 8.624 19.198 19.271 19.198l161.744 9.036V24.002" class="C"/><path d="M198.724 24.002l-.036.584-161.744-9.029.036-.584v.591c-10.319.014-18.664 8.33-18.685 18.614v250.841c.021 10.255 8.366 18.592 18.685 18.614h.021l161.129 9V24.002h.594l-.036.584.036-.584h.594V313.88l-162.374-9.086.036-.577v.584c-10.977-.007-19.858-8.872-19.858-19.782V34.178c0-10.932 8.881-19.782 19.858-19.782h.021l162.316 9.05v.556h-.594z" class="B"/><path d="M198.724 23.988L41.513 10.441c-10.64 0-19.271 8.608-19.271 19.205v250.826c0 10.611 8.631 19.219 19.271 19.219l157.211 13.561V23.988" class="C"/><path d="M198.724 23.988l-.05.584L41.463 11.018l.05-.577v.584c-10.319.014-18.671 8.345-18.692 18.621v250.826c.021 10.283 8.374 18.621 18.692 18.642h.029l156.589 13.497V23.988h.594l-.05.584.05-.584h.594v289.906L41.463 300.276l.05-.584v.591c-10.969-.007-19.858-8.879-19.865-19.811V29.646c.007-10.924 8.896-19.789 19.865-19.789h.029l157.776 13.597v.534h-.594z" class="B"/><path d="M198.724 24.002L46.054 5.93c-10.655 0-19.271 8.594-19.271 19.205v250.826c0 10.618 8.617 19.219 19.271 19.219l152.67 18.072V24.002" class="C"/><path d="M198.724 24.002l-.072.584L45.982 6.515l.072-.584v.591c-10.326.014-18.664 8.33-18.685 18.614v250.826c.021 10.29 8.359 18.614 18.685 18.635h.036l152.041 18.001V24.002h.594l-.072.584.072-.584h.594v289.906l-153.335-18.15.072-.577v.584c-10.984 0-19.865-8.858-19.865-19.804V25.135c0-10.932 8.881-19.782 19.865-19.782h.036l153.228 18.129v.52h-.594z" class="B"/><path d="M198.724 24.002L50.573 1.405c-10.633 0-19.271 8.608-19.271 19.212v250.841c0 10.604 8.638 19.191 19.271 19.191l148.151 22.604V24.002" class="C"/><path d="M198.724 24.002l-.093.584L50.48 1.99l.093-.584v.591c-10.304.014-18.671 8.345-18.692 18.621v250.841c.021 10.283 8.388 18.592 18.692 18.614h.043l147.514 22.504V24.002h.594l-.093.584.093-.584h.594v289.935L50.48 291.233l.093-.584v.591c-10.962 0-19.858-8.851-19.865-19.782V20.617C30.715 9.686 39.611.828 50.573.828h.05l148.694 22.675v.499h-.594z" class="B"/><path d="M198.724 24.002l166.278-4.518c10.662 0 19.293 8.601 19.293 19.212v250.819c0 10.611-8.631 19.205-19.293 19.205l-166.278 4.532V24.002" class="C"/><path d="M198.724 24.002l-.014-.584L365.002 18.9c10.991 0 19.872 8.858 19.872 19.796v250.819c0 10.932-8.881 19.796-19.872 19.796v-.591l.021.591-166.893 4.546V23.432l.579-.014.014.584h.594v288.645l165.685-4.511c10.333-.021 18.685-8.338 18.699-18.621V38.696c-.014-10.29-8.366-18.614-18.699-18.628v-.584l.021.577-166.285 4.525-.014-.584z" class="B"/><path d="M198.724 24.002l161.766-9.029c10.64 0 19.264 8.594 19.264 19.205v250.841c0 10.582-8.624 19.198-19.264 19.198l-161.766 9.036V24.002" class="C"/><path d="M198.724 24.002l-.036-.584 161.802-9.022c10.969 0 19.851 8.851 19.851 19.782v250.841c0 10.91-8.881 19.775-19.851 19.782v-.584l.029.577-162.388 9.086V23.446l.558-.029.036.584h.594v288.631l161.172-9c10.319-.021 18.664-8.359 18.678-18.614V34.178c-.014-10.283-8.359-18.599-18.678-18.614v-.591l.029.584-161.759 9.029-.036-.584z" class="B"/><path d="M198.724 23.988l157.218-13.547c10.662 0 19.279 8.608 19.279 19.205v250.826c0 10.611-8.617 19.219-19.279 19.219l-157.218 13.561V23.988" class="C"/><path d="M198.724 23.988l-.05-.584L355.942 9.857c10.984 0 19.865 8.865 19.865 19.789v250.826c0 10.932-8.881 19.811-19.865 19.811v-.591l.05.584-157.862 13.618V23.454l.543-.05.05.584h.594v288.623l156.624-13.497c10.333-.021 18.678-8.359 18.692-18.642V29.646c-.014-10.276-8.359-18.606-18.692-18.621v-.584l.05.577-157.218 13.554-.05-.584z" class="B"/><path d="M198.724 24.002L351.422 5.93c10.633 0 19.264 8.594 19.264 19.205v250.826c0 10.618-8.631 19.219-19.264 19.219l-152.699 18.072V24.002" class="C"/><path d="M198.724 24.002l-.072-.584 152.77-18.065c10.962 0 19.851 8.851 19.851 19.782v250.826c0 10.946-8.888 19.804-19.851 19.804v-.584l.072.577-153.364 18.15V23.482l.522-.064.072.584h.594v288.595l152.105-18.001c10.304-.021 18.656-8.345 18.671-18.635V25.135c-.014-10.283-8.366-18.599-18.671-18.614V5.93l.072.584-152.699 18.072-.072-.584z" class="B"/><path d="M198.724 24.002L346.882 1.405c10.648 0 19.264 8.608 19.264 19.212v250.841c0 10.604-8.617 19.191-19.264 19.191l-148.158 22.604V24.002" class="C"/><g class="B"><path d="M198.724 24.002l-.093-.577L346.882.828c10.977 0 19.851 8.858 19.851 19.789v250.841c0 10.932-8.874 19.782-19.851 19.782v-.591l.093.584-148.844 22.704V23.503l.501-.078.093.577h.594v288.574l147.564-22.504c10.326-.021 18.664-8.33 18.678-18.614V20.617c-.014-10.276-8.352-18.606-18.678-18.621v-.591l.093.584-148.158 22.597-.093-.584zM51.88 34.521c-.658-.107-1.008-.812-1.008-1.589 0-.734.286-1.39 1.044-1.261 1.116.178 1.13 1.924 1.166 2.266-.15.178-.515.684-1.201.584m.086-3.2c-1.23-.192-1.931.306-1.931 1.525 0 1.09.594 1.846 1.63 2.017.815.114 1.173-.228 1.416-.413 0 1.069-.222 2.615-1.966 2.33l-.779-.2v.356l1.108.278c1.931.292 2.481-.998 2.481-2.765 0-1.34-.329-2.886-1.959-3.128m-6.895 4.428c.565-.42 2.66-2.038 2.66-3.577 0-.648-.372-1.197-1.023-1.311-.829-.114-1.123.463-1.216.82l-.365-.057c.1-.52.472-1.304 1.68-1.105 1.194.192 1.745.841 1.745 2.038 0 1.411-2.381 2.872-2.839 3.214l1.709.249c.837.135 1.03-.185 1.073-.713l.25.021-.107 1.347-3.568-.556v-.371m7.903-11.649l.493.57-1.037-.157.543-.413zm.922.948v-.114l-.908-1.14c-.701-.114-1.023.335-1.023 1.119 0 .955.472 1.504 1.28 1.646h.594v-.299l-.515-.007c-.751-.114-.93-.898-.93-1.283v-.157l1.502.235zm-4.645-1.776l.372.071v.591l.837-.527.679.905v1.853l-.379-.057V24.66l-.386-.891-.751 1.097v1.076l-.372-.064zm-1.403 1.789h-.007l-.837.534-.658-.912v-1.846l.379.05v1.432l.379.912.744-1.105v-1.062l.365.057v2.594l-.365-.057zm-2.451-3.055l-.479-.071v-.485l.479.064zm-.046 3.535c0 .62-.451.777-.994.705l-.1-.036v-.328l.157.064.565-.549v-2.779l.372.05v2.872m21.389-7.188l-1.116-2.024-.937-.941v-.135l1.158.185 1.366 2.487 1.416-2.067.508.086-1.716 2.516v2.451l-.679-.107v-2.451m-4.846-.338l.894-2.238.88 2.508-1.773-.271zm1.266-3.007l-1.359-.207v.128l.608.47-.122.392-1.63 4.062.508.078.608-1.625 1.981.299.644 1.831.779.135-2.017-5.566zm-5.766 4.041l-.408-.634v-3.47l.529-.506c1.402.228 1.759 1.254 1.759 2.594 0 1.618-.622 2.209-1.881 2.017m-.236-4.981l-1.638-.242v.128c.672.249.779.292.779.869v4.361l.829.121c1.652.257 2.925.15 2.925-2.152 0-2.316-1.216-2.822-2.896-3.086m-3.212.399l-.779-.698v-.143l1.48.057v5.238l-.701-.107z"/><path d="M50.246 15.366l-.2-.036v-1.532l.551-.435c.615.093 1.173.406 1.173 1.147 0 1.083-.944.934-1.523.855m.922.399c.715 0 1.373-.171 1.373-1.055 0-1.112-.808-1.475-1.759-1.618l-2.231-.349v.128c.679.249.801.271.801.827v4.411l.694.093V15.63l.386.064 1.566 2.815.751.121-1.58-2.865m-5.938-2.72c0-.449-.107-.62-.787-.805v-.143l3.69.577.057.962-.243-.029c-.086-.428-.064-.663-.722-.77l-.837-.135-.479.442v1.532l1.001.15c.658.1.708-.157.779-.513l.172.014v1.611l-.172-.021c-.086-.463-.107-.677-.779-.777l-1.001-.157v2.587l-.679-.1v-4.425m297.052 9.638l-.479.086v-.485l.479-.078zm-.625 9.636c.086-.534.436-1.318 1.638-1.504 1.023-.157 1.745.257 1.745 1.204 0 .777-.451 1.233-1.051 1.489v.014c.615.05 1.13.349 1.13 1.276 0 1.219-1.18 1.86-2.338 2.038l-1.294.057v-.363h.987c.937-.143 1.809-.762 1.809-1.725s-.601-1.04-1.244-.955v-.363c.415-.064 1.173-.264 1.173-1.333 0-.72-.465-1.048-1.08-.969-.744.135-1.03.691-1.151 1.076l-.322.057m4.465-9.544l.365-.057v.591h.007l.815-.77.658.691v1.846l-.358.071V23.7l-.379-.784-.744 1.311v1.09l-.365.043zm-1.425 2.21v.007l-.808.77-.672-.691v-1.846l.372-.057v1.447l.393.77.715-1.325v-1.062l.379-.057v2.587l-.379.071zm-2.451 1.242c0 .62-.472.934-.987 1.019l-.129.007v-.335h.164l.579-.705v-2.779l.372-.057v2.85m6.31-11.458l-1.101-1.675-.93-.648v-.121l1.158-.185 1.352 2.059 1.437-2.501.515-.071-1.752 3.043v2.459l-.679.093V14.77"/><path d="M332.09 17.847c0 .955 0 2.017-1.752 2.287-1.688.271-1.802-.62-1.802-1.696v-2.43l-.772-.463v-.114l1.459-.428v3.335c0 .556 0 1.668 1.116 1.496 1.301-.207 1.301-1.09 1.301-1.824v-3.37l.451-.071v3.278m-6.918-1.907l-.708.121c-.644.093-.665.385-.722.862l-.222.036.036-1.069 3.911-.599.043 1.055-.25.036c-.043-.477-.043-.748-.722-.641l-.686.107v4.903l-.679.107V15.94m22.097 17.231c0-1.076.143-2.63 1.259-2.808 1.137-.171 1.301 1.354 1.301 2.416 0 .976-.164 2.644-1.301 2.822-1.151.171-1.259-1.454-1.259-2.43m-.829.135c0 1.675.586 2.879 2.088 2.665 1.638-.271 2.152-1.675 2.152-3.321 0-1.525-.465-2.9-2.152-2.658-1.623.257-2.088 1.696-2.088 3.314m2.833-10.268l.558-.577.493.413-1.051.164zm-.036.463v-.164l1.502-.221v-.135l-.901-.834c-.715.114-1.037.656-1.037 1.432 0 .955.472 1.368 1.287 1.24l.601-.164v-.314l-.522.15c-.751.128-.93-.606-.93-.991z"/><path d="M343.748 15.94l.887-2.501.872 2.223-1.759.278zm.408-2.337l-1.623 4.561.508-.078.601-1.824 1.959-.299.651 1.625.758-.114-1.995-4.917-1.337.207v.135l.594.278-.114.428zm-4.783.134c1.416-.214 1.781.705 1.781 2.038 0 1.625-.615 2.394-1.888 2.594l-.4-.513v-3.463l.508-.656zm-.322-.257l-1.645.264v.143c.679.021.772.029.772.62v4.34l.844-.143c1.638-.249 2.889-.755 2.889-3.057 0-2.287-1.194-2.423-2.86-2.166zm-4.186.957c.615-.107 1.187.043 1.187.77 0 1.09-.965 1.24-1.53 1.325l-.193.036v-1.539l.536-.591zm.186-.342l-2.188.349v.135c.665.021.787.021.787.563v4.404l.679-.107v-2.58l.379-.05 1.545 2.323.772-.114-1.566-2.366c.694-.207 1.337-.591 1.337-1.482 0-1.126-.787-1.219-1.745-1.076zm-14.948 5.519l.894-2.494.88 2.209-1.773.285zm-1.208 2.216l.501-.086.601-1.817 1.974-.299.644 1.618.751-.107-1.988-4.903-1.359.2v.143l.601.271-.107.435-1.616 4.546zm-.79-4.495l-1.287-.121-.944.905c0 1.233 2.56.684 2.56 2.373 0 1.062-.865 1.632-1.866 1.789l-1.251.036v-.542l1.359.143c.672-.114 1.073-.492 1.073-1.147 0-1.325-2.503-.741-2.503-2.359 0-.841.665-1.411 1.709-1.568l1.151-.064v.556M199.97 23.744l9.94-1.539 9.875 224.545-.072 83.084-4.934 33.778h-9.103l4.255-32.018 1.094-79.008z"/><use xlink:href="#B"/><use xlink:href="#C"/><use xlink:href="#C" y="16.312"/><use xlink:href="#C" y="32.628"/><use xlink:href="#C" y="48.944"/><use xlink:href="#D"/><use xlink:href="#D" y="-16.309"/><path d="M44.391 176.446v-2.979l1.001-1.005 1.001 1.005v2.979l-1.001.998z"/><use xlink:href="#C" y="114.179"/><use xlink:href="#B" x="167.367" y="22.732"/><use xlink:href="#D" x="167.367" y="-58.826"/><use xlink:href="#C" x="167.367" y="39.038"/><use xlink:href="#C" x="167.367" y="55.353"/><path d="M211.758 150.255v-2.993l1.001-1.005 1.001 1.005v2.993l-1.001.998z"/><use xlink:href="#D" x="167.367" y="22.732"/><use xlink:href="#D" x="167.367" y="6.416"/><path d="M211.758 199.177v-2.986l1.001-1.005 1.001 1.005v2.986l-1.001.998z"/><use xlink:href="#B" x="167.367" y="153.213"/><path d="M198.672 105.278l167.422-26.253.107.663-167.422 26.253"/><use xlink:href="#E"/><path d="M198.675 170.558l167.272-25.034.093.663-167.265 25.027m-.103 15.674l167.694-26.253.107.656-167.694 26.253"/><use xlink:href="#F"/><path d="M198.672 137.916l167.258-26.246.1.656-167.251 26.246"/><use xlink:href="#E" y="32.635"/><path d="M198.672 219.53l167.422-26.246.107.656-167.422 26.246m-.107 48.301l167.422-26.238.107.656-167.422 26.238"/><use xlink:href="#F" y="130.57"/><path d="M198.672 252.171l167.422-26.246.107.663-167.422 26.238m-.107-16.977l167.501-26.246.1.663-167.494 26.246m-.107-33.354l167.422-26.196.107.663-167.422 26.196m-.107-131.185l167.422-26.402.107.656-167.422 26.402m-.107 227.851l167.029-26.167.107.656-167.029 26.167m-.107-195.864L31.228 79.661l.107-.656 167.444 26.274m-.107-15.663L31.092 63.335l.107-.656L198.778 88.96m-.106 82.256L31.25 144.949l.107-.656 167.422 26.267m-.107 16.985L31.271 161.264l.1-.656 167.408 26.274m-.107-31.989L31.271 128.619l.1-.656 167.408 26.274"/><path d="M198.672 138.574L31.271 112.307l.1-.656 167.408 26.267m-.107-15.667L31.092 95.97l.107-.656 167.579 26.281m-.106 98.592L31.271 193.834l.1-.656 167.408 26.353m-.107 49.614L31.25 242.878l.107-.656 167.422 26.267m-.107 16.975L31.25 259.197l.107-.656 167.422 26.267m-.107-31.979L31.271 226.555l.1-.656 167.408 26.274"/><path d="M198.672 236.506L31.271 210.239l.1-.656 167.408 26.267m-.107-162.556L31.25 47.013l.107-.656 167.422 26.281m-.107 229.162L31.25 275.526l.107-.656 167.422 26.274m-.107-97.328L31.25 177.592l.107-.656 167.422 26.224"/></g></g></svg>