<svg width="15cm" height="33cm" viewBox="-1 4 282 657" xmlns="http://www.w3.org/2000/svg"><path style="fill:none;stroke-opacity:1;stroke-width:2;stroke:#000" d="M0 380h280M0 420h280M0 460h280M0 500h280M0 540h280M0 580h280M0 620h280M0 660h280M0 380v280M40 380v280M80 380v280M120 380v280M160 380v280M200 380v280M240 380v280M280 380v280M0 40h280M0 80h280M0 120h280M0 160h280M0 200h280M0 240h280M0 280h280M0 320h280M0 40v280M40 40v280M80 40v280M120 40v280M160 40v280M200 40v280M240 40v280M280 40v280"/><text font-size="22.578" style="fill:#000;fill-opacity:1;stroke:none;text-anchor:middle;font-family:sans-serif;font-style:normal;font-weight:400" x="140" y="28.75">
      <tspan x="140" y="28.75">Example</tspan>
    </text><text font-size="22.578" style="fill:#000;fill-opacity:1;stroke:none;text-anchor:middle;font-family:sans-serif;font-style:normal;font-weight:400" x="140" y="368.75">
      <tspan x="140" y="368.75">Solution</tspan>
    </text><path style="fill:none;stroke-opacity:1;stroke-width:2;stroke:red" d="M30 400h81.764"/><path style="fill:red;fill-opacity:1;stroke-opacity:1;stroke-width:2;stroke:red" fill-rule="evenodd" d="m117.764 400-8 4 2-4-2-4z"/><path style="fill:none;stroke-opacity:1;stroke-width:2;stroke:red" d="M20 410.976v40.778"/><path style="fill:red;fill-opacity:1;stroke-opacity:1;stroke-width:2;stroke:red" fill-rule="evenodd" d="m20 457.754-4-8 4 2 4-2z"/><path style="fill:none;stroke-opacity:1;stroke-width:2;stroke:red" d="M130 440H88.24"/><path style="fill:red;fill-opacity:1;stroke-opacity:1;stroke-width:2;stroke:red" fill-rule="evenodd" d="m82.24 440 8-4-2 4 2 4z"/><path style="fill:none;stroke-opacity:1;stroke-width:2;stroke:red" d="M150 440h121.764"/><path style="fill:red;fill-opacity:1;stroke-opacity:1;stroke-width:2;stroke:red" fill-rule="evenodd" d="m277.764 440-8 4 2-4-2-4z"/><path style="fill:none;stroke-opacity:1;stroke-width:2;stroke:red" d="M260 410v121.76"/><path style="fill:red;fill-opacity:1;stroke-opacity:1;stroke-width:2;stroke:red" fill-rule="evenodd" d="m260 537.76-4-8 4 2 4-2z"/><path style="fill:none;stroke-opacity:1;stroke-width:2;stroke:red" d="M70 480h41.76"/><path style="fill:red;fill-opacity:1;stroke-opacity:1;stroke-width:2;stroke:red" fill-rule="evenodd" d="m117.76 480-8 4 2-4-2-4z"/><path style="fill:none;stroke-opacity:1;stroke-width:2;stroke:red" d="M130 520H88.24"/><path style="fill:red;fill-opacity:1;stroke-opacity:1;stroke-width:2;stroke:red" fill-rule="evenodd" d="m82.24 520 8-4-2 4 2 4z"/><path style="fill:none;stroke-opacity:1;stroke-width:2;stroke:red" d="M150 520h41.76"/><path style="fill:red;fill-opacity:1;stroke-opacity:1;stroke-width:2;stroke:red" fill-rule="evenodd" d="m197.76 520-8 4 2-4-2-4z"/><path style="fill:none;stroke-opacity:1;stroke-width:2;stroke:red" d="M100 550V388.236"/><path style="fill:red;fill-opacity:1;stroke-opacity:1;stroke-width:2;stroke:red" fill-rule="evenodd" d="m100 382.236 4 8-4-2-4 2z"/><path style="fill:none;stroke-opacity:1;stroke-width:2;stroke:red" d="M100 570v41.76"/><path style="fill:red;fill-opacity:1;stroke-opacity:1;stroke-width:2;stroke:red" fill-rule="evenodd" d="m100 617.76-4-8 4 2 4-2z"/><path style="fill:none;stroke-opacity:1;stroke-width:2;stroke:red" d="M129.028 600H8.236"/><path style="fill:red;fill-opacity:1;stroke-opacity:1;stroke-width:2;stroke:red" fill-rule="evenodd" d="m2.236 600 8-4-2 4 2 4z"/><path style="fill:none;stroke-opacity:1;stroke-width:2;stroke:red" d="M150 600h41.76"/><path style="fill:red;fill-opacity:1;stroke-opacity:1;stroke-width:2;stroke:red" fill-rule="evenodd" d="m197.76 600-8 4 2-4-2-4z"/><path style="fill:none;stroke-opacity:1;stroke-width:2;stroke:red" d="M210 560h-41.76"/><path style="fill:red;fill-opacity:1;stroke-opacity:1;stroke-width:2;stroke:red" fill-rule="evenodd" d="m162.24 560 8-4-2 4 2 4z"/><path style="fill:none;stroke-opacity:1;stroke-width:2;stroke:red" d="M260 610v41.764"/><path style="fill:red;fill-opacity:1;stroke-opacity:1;stroke-width:2;stroke:red" fill-rule="evenodd" d="m260 657.764-4-8 4 2 4-2z"/><path style="fill:none;stroke-opacity:1;stroke-width:2;stroke:red" d="M20 630V508.24"/><path style="fill:red;fill-opacity:1;stroke-opacity:1;stroke-width:2;stroke:red" fill-rule="evenodd" d="m20 502.24 4 8-4-2-4 2z"/><path style="fill:none;stroke-opacity:1;stroke-width:2;stroke:red" d="M180 630V428.24"/><path style="fill:red;fill-opacity:1;stroke-opacity:1;stroke-width:2;stroke:red" fill-rule="evenodd" d="m180 422.24 4 8-4-2-4 2z"/><path style="fill:none;stroke-opacity:1;stroke-width:2;stroke:red" d="M190 640h81.764"/><path style="fill:red;fill-opacity:1;stroke-opacity:1;stroke-width:2;stroke:red" fill-rule="evenodd" d="m277.764 640-8 4 2-4-2-4z"/><rect style="fill:#000;fill-opacity:1" x="200" y="39.583" width="39.516" height="40.833" rx="0" ry="0"/><text font-size="22.578" style="fill:#fff;fill-opacity:1;stroke:none;text-anchor:middle;font-family:sans-serif;font-style:normal;font-weight:400" x="219.758" y="68.75">
      <tspan x="219.758" y="68.75">1</tspan>
    </text><rect style="fill:#000;fill-opacity:1" x="160" y="40" width="39.516" height="40.833" rx="0" ry="0"/><rect style="fill:#000;fill-opacity:1" x="120" y="40" width="39.516" height="40.833" rx="0" ry="0"/><rect style="fill:#000;fill-opacity:1" x="40" y="80" width="39.516" height="40.833" rx="0" ry="0"/><rect style="fill:#000;fill-opacity:1" y="120" width="39.516" height="40.833" rx="0" ry="0"/><text font-size="22.578" style="fill:#fff;fill-opacity:1;stroke:none;text-anchor:middle;font-family:sans-serif;font-style:normal;font-weight:400" x="19.758" y="149.167">
      <tspan x="19.758" y="149.167">1</tspan>
    </text><rect style="fill:#000;fill-opacity:1" x="120" y="120" width="39.516" height="40.833" rx="0" ry="0"/><rect style="fill:#000;fill-opacity:1" x="200.242" y="119.583" width="39.516" height="40.833" rx="0" ry="0"/><text font-size="22.578" style="fill:#fff;fill-opacity:1;stroke:none;text-anchor:middle;font-family:sans-serif;font-style:normal;font-weight:400" x="220" y="148.75">
      <tspan x="220" y="148.75">0</tspan>
    </text><rect style="fill:#000;fill-opacity:1" x="40" y="160" width="39.516" height="40.833" rx="0" ry="0"/><rect style="fill:#000;fill-opacity:1" x="200" y="160" width="39.516" height="40.833" rx="0" ry="0"/><rect style="fill:#000;fill-opacity:1" x="40" y="200" width="39.516" height="40.833" rx="0" ry="0"/><text font-size="22.578" style="fill:#fff;fill-opacity:1;stroke:none;text-anchor:middle;font-family:sans-serif;font-style:normal;font-weight:400" x="59.758" y="229.166">
      <tspan x="59.758" y="229.166">1</tspan>
    </text><rect style="fill:#000;fill-opacity:1" x="120" y="200" width="39.516" height="40.833" rx="0" ry="0"/><text font-size="22.578" style="fill:#fff;fill-opacity:1;stroke:none;text-anchor:middle;font-family:sans-serif;font-style:normal;font-weight:400" x="139.758" y="229.166">
      <tspan x="139.758" y="229.166">3</tspan>
    </text><rect style="fill:#000;fill-opacity:1" x="240" y="200" width="39.516" height="40.833" rx="0" ry="0"/><text font-size="22.578" style="fill:#fff;fill-opacity:1;stroke:none;text-anchor:middle;font-family:sans-serif;font-style:normal;font-weight:400" x="259.758" y="229.166">
      <tspan x="259.758" y="229.166">2</tspan>
    </text><rect style="fill:#000;fill-opacity:1" x="200.242" y="239.584" width="39.516" height="40.833" rx="0" ry="0"/><text font-size="22.578" style="fill:#fff;fill-opacity:1;stroke:none;text-anchor:middle;font-family:sans-serif;font-style:normal;font-weight:400" x="220" y="268.75">
      <tspan x="220" y="268.75">2</tspan>
    </text><rect style="fill:#000;fill-opacity:1" x="40" y="280" width="39.516" height="40.833" rx="0" ry="0"/><rect style="fill:#000;fill-opacity:1" x="80" y="280" width="39.516" height="40.833" rx="0" ry="0"/><rect style="fill:#000;fill-opacity:1" x="120" y="280" width="39.516" height="40.833" rx="0" ry="0"/><rect style="fill:#000;fill-opacity:1" x="200" y="379.584" width="39.516" height="40.833" rx="0" ry="0"/><text font-size="22.578" style="fill:#fff;fill-opacity:1;stroke:none;text-anchor:middle;font-family:sans-serif;font-style:normal;font-weight:400" x="219.758" y="408.75">
      <tspan x="219.758" y="408.75">1</tspan>
    </text><rect style="fill:#000;fill-opacity:1" x="160" y="380" width="39.516" height="40.833" rx="0" ry="0"/><rect style="fill:#000;fill-opacity:1" x="120" y="380" width="39.516" height="40.833" rx="0" ry="0"/><rect style="fill:#000;fill-opacity:1" x="40" y="420" width="39.516" height="40.833" rx="0" ry="0"/><rect style="fill:#000;fill-opacity:1" y="460" width="39.516" height="40.833" rx="0" ry="0"/><text font-size="22.578" style="fill:#fff;fill-opacity:1;stroke:none;text-anchor:middle;font-family:sans-serif;font-style:normal;font-weight:400" x="19.758" y="489.166">
      <tspan x="19.758" y="489.166">1</tspan>
    </text><rect style="fill:#000;fill-opacity:1" x="120" y="460" width="39.516" height="40.833" rx="0" ry="0"/><rect style="fill:#000;fill-opacity:1" x="200.242" y="459.584" width="39.516" height="40.833" rx="0" ry="0"/><text font-size="22.578" style="fill:#fff;fill-opacity:1;stroke:none;text-anchor:middle;font-family:sans-serif;font-style:normal;font-weight:400" x="220" y="488.75">
      <tspan x="220" y="488.75">0</tspan>
    </text><rect style="fill:#000;fill-opacity:1" x="40" y="500" width="39.516" height="40.833" rx="0" ry="0"/><rect style="fill:#000;fill-opacity:1" x="200" y="500" width="39.516" height="40.833" rx="0" ry="0"/><rect style="fill:#000;fill-opacity:1" x="40" y="540" width="39.516" height="40.833" rx="0" ry="0"/><text font-size="22.578" style="fill:#fff;fill-opacity:1;stroke:none;text-anchor:middle;font-family:sans-serif;font-style:normal;font-weight:400" x="59.758" y="569.166">
      <tspan x="59.758" y="569.166">1</tspan>
    </text><rect style="fill:#000;fill-opacity:1" x="120" y="540" width="39.516" height="40.833" rx="0" ry="0"/><text font-size="22.578" style="fill:#fff;fill-opacity:1;stroke:none;text-anchor:middle;font-family:sans-serif;font-style:normal;font-weight:400" x="139.758" y="569.166">
      <tspan x="139.758" y="569.166">3</tspan>
    </text><rect style="fill:#000;fill-opacity:1" x="240" y="540" width="39.516" height="40.833" rx="0" ry="0"/><text font-size="22.578" style="fill:#fff;fill-opacity:1;stroke:none;text-anchor:middle;font-family:sans-serif;font-style:normal;font-weight:400" x="259.758" y="569.166">
      <tspan x="259.758" y="569.166">2</tspan>
    </text><rect style="fill:#000;fill-opacity:1" x="200.242" y="579.584" width="39.516" height="40.833" rx="0" ry="0"/><text font-size="22.578" style="fill:#fff;fill-opacity:1;stroke:none;text-anchor:middle;font-family:sans-serif;font-style:normal;font-weight:400" x="220" y="608.75">
      <tspan x="220" y="608.75">2</tspan>
    </text><rect style="fill:#000;fill-opacity:1" x="40" y="620" width="39.516" height="40.833" rx="0" ry="0"/><rect style="fill:#000;fill-opacity:1" x="80" y="620" width="39.516" height="40.833" rx="0" ry="0"/><rect style="fill:#000;fill-opacity:1" x="120" y="620" width="39.516" height="40.833" rx="0" ry="0"/><circle style="fill:none;stroke-opacity:1;stroke-width:2;stroke:red" cx="20" cy="400" r="10"/><circle style="fill:none;stroke-opacity:1;stroke-width:2;stroke:red" cx="260" cy="400" r="10"/><circle style="fill:none;stroke-opacity:1;stroke-width:2;stroke:red" cx="140" cy="440" r="10"/><circle style="fill:none;stroke-opacity:1;stroke-width:2;stroke:red" cx="60" cy="480" r="10"/><circle style="fill:none;stroke-opacity:1;stroke-width:2;stroke:red" cx="140" cy="520" r="10"/><circle style="fill:none;stroke-opacity:1;stroke-width:2;stroke:red" cx="100" cy="560" r="10"/><circle style="fill:none;stroke-opacity:1;stroke-width:2;stroke:red" cx="220" cy="560" r="10"/><circle style="fill:none;stroke-opacity:1;stroke-width:2;stroke:red" cx="140" cy="600" r="10"/><circle style="fill:none;stroke-opacity:1;stroke-width:2;stroke:red" cx="260" cy="600" r="10"/><circle style="fill:none;stroke-opacity:1;stroke-width:2;stroke:red" cx="20" cy="640" r="10"/><circle style="fill:none;stroke-opacity:1;stroke-width:2;stroke:red" cx="180" cy="640" r="10"/></svg>
