<?xml version="1.0" encoding="UTF-8"?>
<svg width="128" height="128" version="1.0" xmlns="http://www.w3.org/2000/svg" xmlns:xlink="http://www.w3.org/1999/xlink">
 <defs>
  <linearGradient id="linearGradient10897">
   <stop offset="0"/>
   <stop stop-opacity="0" offset="1"/>
  </linearGradient>
  <linearGradient id="linearGradient10879">
   <stop offset="0"/>
   <stop stop-color="#060" offset="1"/>
  </linearGradient>
  <linearGradient id="linearGradient10867">
   <stop stop-color="#fff" offset="0"/>
   <stop stop-color="#555" offset="1"/>
  </linearGradient>
  <filter id="filter9643" x="-.0236" y="-.0244" width="1.05" height="1.05">
   <feGaussianBlur stdDeviation="1.18"/>
  </filter>
  <radialGradient id="radialGradient10781" cx="48" cy="-.215" r="55.1" gradientTransform="matrix(1.32 -5.42e-5 4.53e-5 1.1 .639 10)" gradientUnits="userSpaceOnUse">
   <stop stop-color="#72D13D" offset="0"/>
   <stop stop-color="#35AC1C" offset=".355"/>
   <stop stop-color="#0F9508" offset=".619"/>
   <stop stop-color="#008C00" offset=".757"/>
   <stop stop-color="#007A00" offset="1"/>
  </radialGradient>
  <radialGradient id="radialGradient10784" cx="48.1" cy="8.62" r="49.9" gradientTransform="matrix(1.25 0 0 1 4 8.12)" gradientUnits="userSpaceOnUse">
   <stop stop-color="#D6FFC0" offset="0"/>
   <stop stop-color="#CCFAB7" offset=".0735"/>
   <stop stop-color="#4CB544" offset=".611"/>
   <stop stop-color="#008C00" offset=".757"/>
  </radialGradient>
  <clipPath id="clipPath10906">
   <rect x=".129" y="40.8" width="128" height="89" fill="#fff"/>
  </clipPath>
  <clipPath id="clipPath10917">
   <rect x="-28.9" y="-13.4" width="186" height="54.2" fill="#fff"/>
  </clipPath>
  <linearGradient id="linearGradient11290" x1="102" x2="90.9" y1="111" y2="99.3" gradientTransform="matrix(.611 0 0 .611 55.8 50.7)" gradientUnits="userSpaceOnUse">
   <stop stop-color="#a2a2a2" offset="0"/>
   <stop stop-color="#fff" offset="1"/>
  </linearGradient>
  <linearGradient id="linearGradient11297" x1="27.9" x2="32" y1="31.1" y2="178" gradientUnits="userSpaceOnUse">
   <stop stop-color="#fff" offset="0"/>
   <stop stop-color="#eee" offset="1"/>
  </linearGradient>
  <filter id="filter11438" x="-.149" y="-.153" width="1.3" height="1.31">
   <feGaussianBlur stdDeviation="1.1413633"/>
  </filter>
  <linearGradient id="linearGradient10873" x1="24" x2="24" y1="6.12" y2="-4.01" gradientTransform="scale(1 1.16)" gradientUnits="userSpaceOnUse" spreadMethod="reflect" xlink:href="#linearGradient10867"/>
  <radialGradient id="radialGradient10885" cx="24" cy="17.4" r="10.8" gradientTransform="matrix(1.71 0 0 .614 -17.1 5.56)" gradientUnits="userSpaceOnUse" xlink:href="#linearGradient10879"/>
  <radialGradient id="radialGradient10891" cx="24" cy="17.4" r="10.8" gradientTransform="matrix(1.71 0 0 .614 62.8 5.56)" gradientUnits="userSpaceOnUse" xlink:href="#linearGradient10879"/>
  <linearGradient id="linearGradient10893" x1="24" x2="24" y1="6.12" y2="-4.01" gradientTransform="matrix(1 0 0 1.16 79.9 0)" gradientUnits="userSpaceOnUse" spreadMethod="reflect" xlink:href="#linearGradient10867"/>
  <linearGradient id="linearGradient10903" x1="25.6" x2="25.6" y1="-.203" y2="4" gradientUnits="userSpaceOnUse" xlink:href="#linearGradient10897"/>
  <linearGradient id="linearGradient10907" x1="25.6" x2="25.6" y1="-.203" y2="4" gradientTransform="translate(79.9)" gradientUnits="userSpaceOnUse" xlink:href="#linearGradient10897"/>
  <linearGradient id="linearGradient10911" x1="25.6" x2="25.6" y1="-.203" y2="4" gradientTransform="matrix(1 0 0 1.29 79.9 -18.3)" gradientUnits="userSpaceOnUse" xlink:href="#linearGradient10897"/>
  <linearGradient id="linearGradient10915" x1="25.6" x2="25.6" y1="-.203" y2="4" gradientTransform="matrix(1 0 0 1.29 -.203 -18.3)" gradientUnits="userSpaceOnUse" xlink:href="#linearGradient10897"/>
  <linearGradient id="linearGradient10991" x1="65.3" x2="65.3" y1="72" y2="80.1" gradientUnits="userSpaceOnUse" spreadMethod="reflect">
   <stop stop-color="#f00" offset="0"/>
   <stop stop-color="#8c0000" offset="1"/>
  </linearGradient>
 </defs>
 <g fill="#003d00">
  <rect transform="matrix(1.03 0 0 1.03 -2.13 -2.2)" x="4" y="8" width="120" height="116" clip-path="url(#clipPath10917)" filter="url(#filter9643)"/>
  <rect transform="matrix(1.03 0 0 1.03 -2.13 -2.2)" x="4" y="8" width="120" height="116" clip-path="url(#clipPath10917)" filter="url(#filter9643)"/>
 </g>
 <g>
  <path transform="matrix(1.03 0 0 1.03 -2.13 -2.2)" d="m4 8h120v94.6c-6.21 7.72-12.7 15.2-20.4 21.4h-99.6v-116z" clip-path="url(#clipPath10906)" filter="url(#filter9643)" opacity=".5"/>
  <path d="m4 8h120v96.1l-19.5 19.9h-100v-116z" fill="#fff"/>
  <path d="m6.03 10h116v95l-17.1 16.9h-98.8v-112z" fill="url(#linearGradient11297)"/>
 </g>
 <rect x="4" y="8.12" width="120" height="31.9" fill="url(#radialGradient10784)"/>
 <rect x="5" y="10" width="118" height="30" fill="url(#radialGradient10781)"/>
 <g transform="translate(17.8 9.01)" stroke="#fff" stroke-opacity=".843" stroke-width="1.2">
  <g transform="translate(-.209 -.304)">
   <g transform="translate(-10.3 8.12)" fill="#fff" opacity=".8" stroke="#fff" stroke-opacity=".843" stroke-width="1.2">
    <ellipse cx="87.7" cy="7.56" rx=".396" ry=".602"/>
    <ellipse cx="87.5" cy="9.56" rx=".761" ry=".601"/>
    <ellipse cx="87.4" cy="11.6" rx=".858" ry=".611"/>
    <ellipse cx="87.4" cy="13.6" rx=".839" ry=".619"/>
    <ellipse cx="77.9" cy="7.55" rx=".19" ry=".579"/>
    <ellipse cx="79.7" cy="7.56" rx=".39" ry=".602"/>
    <ellipse cx="81.8" cy="7.56" rx=".352" ry=".601"/>
    <ellipse cx="83.7" cy="7.56" rx=".427" ry=".598"/>
    <ellipse cx="85.7" cy="7.56" rx=".36" ry=".601"/>
    <ellipse cx="75.7" cy="9.56" rx=".383" ry=".605"/>
    <ellipse cx="77.7" cy="9.57" rx=".396" ry=".611"/>
    <ellipse cx="79.7" cy="9.56" rx=".387" ry=".603"/>
    <ellipse cx="81.4" cy="9.56" rx=".799" ry=".602"/>
    <ellipse cx="83.5" cy="9.55" rx=".649" ry=".579"/>
    <ellipse cx="85.4" cy="9.56" rx=".79" ry=".602"/>
    <ellipse cx="75.4" cy="11.6" rx=".802" ry=".598"/>
    <ellipse cx="77.4" cy="11.6" rx=".767" ry=".601"/>
    <ellipse cx="79.4" cy="11.6" rx=".788" ry=".602"/>
    <ellipse cx="81.4" cy="11.6" rx=".782" ry=".605"/>
    <ellipse cx="83.4" cy="11.6" rx=".792" ry=".611"/>
    <ellipse cx="85.4" cy="11.6" rx=".792" ry=".603"/>
    <ellipse cx="75.5" cy="13.6" rx=".708" ry=".602"/>
    <ellipse cx="77.4" cy="13.6" rx=".849" ry=".602"/>
    <ellipse cx="79.4" cy="13.6" rx=".819" ry=".61"/>
    <ellipse cx="81.4" cy="13.6" rx=".86" ry=".609"/>
    <ellipse cx="83.4" cy="13.6" rx=".825" ry=".612"/>
    <ellipse cx="85.4" cy="13.6" rx=".846" ry=".611"/>
    <ellipse cx="75.4" cy="15.6" rx=".849" ry=".61"/>
    <ellipse cx="77.4" cy="15.6" rx=".851" ry=".611"/>
    <ellipse cx="79.4" cy="15.6" rx=".851" ry=".602"/>
    <ellipse cx="81.5" cy="15.6" rx=".701" ry=".602"/>
   </g>
  </g>
  <g transform="translate(16,-12)">
   <g transform="translate(-10.5 7.82)" fill="#fff" opacity=".8" stroke="#fff" stroke-opacity=".843" stroke-width="1.2">
    <ellipse cx="87.7" cy="19.6" rx=".396" ry=".602"/>
    <ellipse cx="87.5" cy="21.6" rx=".761" ry=".601"/>
    <ellipse cx="87.4" cy="23.6" rx=".858" ry=".611"/>
    <ellipse cx="87.4" cy="25.6" rx=".839" ry=".619"/>
    <ellipse cx="77.9" cy="19.5" rx=".19" ry=".579"/>
    <ellipse cx="79.7" cy="19.6" rx=".39" ry=".602"/>
    <ellipse cx="81.8" cy="19.6" rx=".498" ry=".85"/>
    <ellipse cx="83.7" cy="19.6" rx=".427" ry=".598"/>
    <ellipse cx="85.7" cy="19.6" rx=".36" ry=".601"/>
    <ellipse cx="75.7" cy="21.6" rx=".383" ry=".605"/>
    <ellipse cx="77.7" cy="21.6" rx=".396" ry=".611"/>
    <ellipse cx="79.7" cy="21.6" rx=".387" ry=".603"/>
    <ellipse cx="81.4" cy="21.6" rx=".799" ry=".602"/>
    <ellipse cx="83.5" cy="21.5" rx=".649" ry=".579"/>
    <ellipse cx="85.4" cy="21.6" rx=".79" ry=".602"/>
    <ellipse cx="75.4" cy="23.6" rx=".802" ry=".598"/>
    <ellipse cx="77.4" cy="23.6" rx=".767" ry=".601"/>
    <ellipse cx="79.4" cy="23.6" rx=".788" ry=".602"/>
    <ellipse cx="81.4" cy="23.6" rx=".782" ry=".605"/>
    <ellipse cx="83.4" cy="23.6" rx=".792" ry=".611"/>
    <ellipse cx="85.4" cy="23.6" rx=".792" ry=".603"/>
    <ellipse cx="75.5" cy="25.6" rx=".708" ry=".602"/>
    <ellipse cx="77.4" cy="25.6" rx=".849" ry=".602"/>
    <ellipse cx="79.4" cy="25.6" rx=".819" ry=".61"/>
    <ellipse cx="81.4" cy="25.6" rx=".86" ry=".609"/>
    <ellipse cx="83.4" cy="25.6" rx=".825" ry=".612"/>
    <ellipse cx="85.4" cy="25.6" rx=".846" ry=".611"/>
    <ellipse cx="75.4" cy="27.6" rx=".849" ry=".61"/>
    <ellipse cx="77.4" cy="27.6" rx=".851" ry=".611"/>
    <ellipse cx="79.4" cy="27.6" rx=".851" ry=".602"/>
    <ellipse cx="81.5" cy="27.6" rx=".701" ry=".602"/>
   </g>
  </g>
 </g>
 <g fill="#ddd">
  <rect x="24" y="64" width="8" height="8"/>
  <rect x="36" y="64" width="8" height="8"/>
  <rect x="48" y="64" width="8" height="8"/>
  <rect x="60" y="64" width="8" height="8"/>
  <rect x="72" y="64" width="8" height="8"/>
  <rect x="84" y="64" width="8" height="8"/>
 </g>
 <rect x="96" y="64" width="8" height="8" fill="#dfbfff"/>
 <rect x="24" y="52" width="8" height="8" fill="#eee"/>
 <g fill="#ddd">
  <rect x="36" y="52" width="8" height="8"/>
  <rect x="48" y="52" width="8" height="8"/>
  <rect x="60" y="52" width="8" height="8"/>
  <rect x="72" y="52" width="8" height="8"/>
  <rect x="84" y="52" width="8" height="8"/>
 </g>
 <rect x="96" y="52" width="8" height="8" fill="#dfbfff"/>
 <g fill="#ddd">
  <rect x="24" y="76" width="8" height="8"/>
  <rect x="36" y="76" width="8" height="8"/>
  <rect x="48" y="76" width="8" height="8"/>
  <rect x="60" y="76" width="8" height="8"/>
  <rect x="72" y="76" width="8" height="8"/>
  <rect x="84" y="76" width="8" height="8"/>
 </g>
 <rect x="96" y="76" width="8" height="8" fill="#dfbfff"/>
 <g fill="#ddd">
  <rect x="24" y="88" width="8" height="8"/>
  <rect x="36" y="88" width="8" height="8"/>
  <rect x="48" y="88" width="8" height="8"/>
  <rect x="60" y="88" width="8" height="8"/>
  <rect x="72" y="88" width="8" height="8"/>
  <rect x="84" y="88" width="8" height="8"/>
 </g>
 <rect x="96" y="88" width="8" height="8" fill="#dfbfff"/>
 <g fill="#ddd">
  <rect x="24" y="100" width="8" height="8"/>
  <rect x="36" y="100" width="8" height="8"/>
  <rect x="48" y="100" width="8" height="8"/>
  <rect x="60" y="100" width="8" height="8"/>
 </g>
 <rect x="72" y="100" width="8" height="8" fill="#eee"/>
 <rect x="84" y="100" width="8" height="8" fill="#eee"/>
 <g>
  <path d="m105 123s6.06-5.45 9.42-8.8c3.36-3.36 8.8-8.81 8.8-8.81s-6.77-1.1-17.3 0.929c-1.62 9.51-0.929 16.7-0.929 16.7z" fill="#060606" filter="url(#filter11438)" opacity=".486"/>
  <path d="m104 124s7.28-6.05 10.6-9.41c3.36-3.36 9.41-10.6 9.41-10.6s-9.82 3.97-16.1 3.97c0 6.26-3.97 16.1-3.97 16.1z" fill="url(#linearGradient11290)"/>
 </g>
 <g>
  <rect x="92.1" y="10.1" width="23.7" height="8.49" rx="3.33" ry="3.04" fill="url(#radialGradient10891)"/>
  <rect x="95.9" y="1.42e-14" width="16" height="18.6" fill="url(#linearGradient10893)"/>
  <rect x="95.9" y="-.203" width="16" height="4.2" fill="url(#linearGradient10907)" opacity=".452"/>
  <rect transform="scale(1,-1)" x="95.9" y="-18.6" width="16" height="5.42" fill="url(#linearGradient10911)" opacity=".638"/>
 </g>
 <rect x="12.1" y="10.1" width="23.7" height="8.49" rx="3.33" ry="3.04" fill="url(#radialGradient10885)"/>
 <rect x="16" y="1.42e-14" width="16" height="18.6" fill="url(#linearGradient10873)"/>
 <rect x="16" y="-.203" width="16" height="4.2" fill="url(#linearGradient10903)" opacity=".452"/>
 <rect transform="scale(1,-1)" x="15.8" y="-18.6" width="16" height="5.42" fill="url(#linearGradient10915)" opacity=".638"/>
 <rect x="56" y="72" width="16" height="16" fill="url(#linearGradient10991)"/>
 <rect x="60" y="76" width="8" height="8" fill="#fff" opacity=".9"/>
</svg>
