<?xml version="1.0" encoding="UTF-8"?>
<svg width="343" height="248" version="1.0" viewBox="0 0 343 248" xmlns="http://www.w3.org/2000/svg">
 <ellipse cx="177" cy="125" rx="141" ry="98.8" fill="#0f0" fill-opacity=".333" stroke="#00f" stroke-linecap="square" stroke-miterlimit="10" stroke-width="3"/>
 <g transform="translate(176 -135)" display="none">
  <path transform="translate(2.43,1)" d="m553 122 155 95 70-95" fill="none" stroke="#3465a4" stroke-linecap="square" stroke-width="2"/>
  <path transform="translate(2.43,1)" d="m566 144v3.5c0 1.91 5.69 3.22 8.58 3.95 2.88 0.726 8.06 1.09 15.5 1.09h19.2c11 0 18.3 0.561 22 1.68s5.52 3.36 5.52 6.7v1.27m-141 0v-1.27c8e-5 -3.35 1.83-5.58 5.48-6.7 3.66-1.12 11-1.68 22-1.68h19.2c7.46 0 12.6-0.363 15.5-1.09 2.88-0.726 7.83-2.04 7.83-3.95v-3.5" fill="none" stroke="#000" stroke-width="2"/>
  <text transform="translate(2.43,1)" x="503.62027" y="47.231239" fill="#000000" font-family="'DejaVu Serif'" font-style="italic" style="line-height:0%" xml:space="preserve"><tspan x="503.62027" y="47.231239" font-size="18px" style="line-height:1.25">FP=eDP</tspan></text>
  <rect x="-187" y="124" width="410" height="273" display="inline" fill="none" stroke="#000" stroke-dasharray="3.6, 0.9" stroke-width=".9"/>
  <text transform="translate(2.43,1)" x="38.486706" y="239.51424" display="inline" fill="#000000" font-family="'DejaVu Serif'" font-style="italic" style="line-height:0%" xml:space="preserve"><tspan x="38.486706" y="239.51424" font-family="Arial" font-size="18px" style="line-height:1.25">ea</tspan></text>
  <path d="m50.2 242v3.5c0 1.91 4.07 3.22 6.14 3.95 2.06 0.726 5.76 1.09 11.1 1.09h13.8c7.86 0 13.1 0.561 15.7 1.68 2.63 1.12 3.95 3.36 3.95 6.7v1.27m-101 0v-1.27c5.27e-5 -3.35 1.31-5.58 3.92-6.7 2.62-1.12 7.85-1.68 15.7-1.68h13.8c5.34 0 9.04-0.363 11.1-1.09 2.06-0.726 5.6-2.04 5.6-3.95v-3.5" display="inline" fill="none" stroke="#000" stroke-width="2"/>
 </g>
 <text x="226.44946" fill="#000000" font-family="'DejaVu Serif'" font-size="32px" font-style="italic" style="line-height:0%" xml:space="preserve"><tspan x="226.44946" y="0" font-size="32px" style="line-height:1.25"> </tspan></text>
 <path d="m75.6 125 185 79.4" fill="none" stroke="#b40000" stroke-linecap="square" stroke-width="2"/>
 <text x="55.330902" y="151.75" fill="#b20000" font-family="Arial" font-size="32px" font-style="italic" style="line-height:0%" xml:space="preserve"><tspan x="55.330902" y="151.75" fill="#b20000" font-family="Arial" font-size="26.7px" font-style="italic" style="line-height:1.25">F<tspan baseline-shift="sub" fill="#b20000" font-size="65%">1</tspan></tspan></text>
 <text x="274.58789" y="152.02032" fill="#b20000" font-family="Arial" font-size="32px" font-style="italic" style="line-height:0%" xml:space="preserve"><tspan x="274.58789" y="152.02032" fill="#b20000" font-family="Arial" font-size="26.7px" font-style="italic" style="line-height:1.25">F<tspan baseline-shift="sub" fill="#b20000" font-size="65%">2</tspan></tspan></text>
 <g fill="none" stroke-linecap="square">
  <path d="m177 247v-245" stroke="#000"/>
  <path d="m261 205 16.5-79.4" stroke="#b40000" stroke-width="2"/>
  <path d="m0.475 125h338" stroke="#000" stroke-width=".95"/>
 </g>
 <circle cx="75.6" cy="125" r="2.5" stroke="#000" stroke-linecap="square" stroke-miterlimit="10"/>
 <circle cx="277" cy="125" r="2.5" stroke="#000" stroke-linecap="square" stroke-miterlimit="10"/>
 <g fill="#000000" font-family="'DejaVu Serif'" font-size="32px" font-style="italic">
  <text x="323.15424" y="119.27484" style="line-height:0%" xml:space="preserve"><tspan x="323.15424" y="119.27484" font-family="Arial" font-size="32px" style="line-height:1.25">a</tspan></text>
  <text x="-1.5691589" y="119.46149" style="line-height:0%" xml:space="preserve"><tspan x="-1.5691589" y="119.46149" font-family="Arial" font-size="32px" style="line-height:1.25">−a</tspan></text>
  <text x="158.46814" y="23.138565" style="line-height:0%" xml:space="preserve"><tspan x="158.46814" y="23.138565" font-family="Arial" font-size="32px" style="line-height:1.25">b</tspan></text>
  <text x="138.86934" y="247.6375" style="line-height:0%" xml:space="preserve"><tspan x="138.86934" y="247.6375" font-family="Arial" font-size="32px" style="line-height:1.25">−b</tspan></text>
 </g>
 <g transform="translate(-2.31 .05)" stroke="#000" stroke-linecap="square" stroke-miterlimit="10">
  <circle cx="178" cy="224" r="2.5"/>
  <circle cx="320" cy="125" r="2.5"/>
  <circle cx="37.7" cy="125" r="2.5"/>
  <circle cx="179" cy="26.5" r="2.5"/>
  <circle cx="263" cy="205" r="2.5"/>
 </g>
 <g font-family="'DejaVu Serif'" font-size="32px" font-style="italic">
  <text x="56.053459" y="117.56945" fill="#000000" style="line-height:0%" xml:space="preserve"><tspan x="56.053459" y="117.56945" font-family="Arial" font-size="32px" style="line-height:1.25">−c</tspan></text>
  <text x="269.69333" y="117.85947" fill="#000000" style="line-height:0%" xml:space="preserve"><tspan x="269.69333" y="117.85947" font-family="Arial" font-size="32px" style="line-height:1.25">c</tspan></text>
  <text x="260.36185" y="226.9061" fill="#b40000" style="line-height:0%" xml:space="preserve"><tspan x="260.36185" y="226.9061" fill="#b40000" font-family="Arial" font-size="32px" style="line-height:1.25">P</tspan></text>
 </g>
 <text x="343.22736" y="24.488897" fill="#b40000" font-family="Arial" font-size="32px" font-style="italic" text-align="end" text-anchor="end" style="line-height:1em" xml:space="preserve"><tspan x="343.22736" y="24.488897" text-align="end">PF<tspan baseline-shift="sub" fill="#b40000" font-size="65%" text-align="end" text-anchor="end">1</tspan>+PF<tspan baseline-shift="sub" fill="#b40000" font-size="65%" text-align="end" text-anchor="end">2</tspan></tspan><tspan x="343.22736" y="59.604553" text-align="end">=2a</tspan></text>
</svg>
