<?xml version="1.0" encoding="UTF-8"?>
<svg width="126.92mm" height="128.24mm" version="1.1" viewBox="0 0 126.92 128.24" xmlns="http://www.w3.org/2000/svg"><g transform="translate(-210 -44.842)"><g transform="translate(151.99 -51.228)"><path d="m69.624 195.82c-7.5901-10.631-11.706-24.001-9.8571-37.072 3.8082-.42085 8.9744 1.4464 8.099 6.9311 1.0756 9.5564 3.3232 18.933 4.9573 28.38.2096 1.3331-2.453 2.032-3.1992 1.761zm26.112-.92216c-4.8763-.18592-5.3297-3.1323-4.8844-6.9611 4.074.15036 13.091 4.6287 4.8844 6.9611zm74.773-4.3456c-3.888-4.8256-8.2445-8.5008-9.5109-15.132-.56282-5.9777-11.053-8.4735-6.1423-14.592-.33536-6.8989 9.6801-7.1673 10.624-12.404-5.2393-2.7-1.4947-5.6688.59702-8.6539-6.0234.14511-10.996-.7932-16.236-3.6732-1.7084 4.6073-5.0653 2.7326-7.0074-.79714-3.4228-3.4048-5.7303.31595-9.2202-.96138-2.7089 1.6533-7.9906 9.065-6.6002 1.1592-.36901-4.4523-7.7118-5.9802-11.357-7.1408 1.0652 3.4426 2.4497 8.7941-3.3829 5.5866-2.835-1.6739-5.0417.37293-4.5299 1.275-1.6206-4.7858-7.2118 1.4185-10.983-1.9968-2.6007 1.2329 4.4689 5.3752-1.0921 2.6824-8.2908-.37878-8.0063-8.6172-9.3765-14.843-1.0529-5.8143 7.5518-6.7602 11.408-9.3761 23.88-10.694 54.35-5.959 72.492 13.341 12.638 12.758 17.515 32.683 11.238 49.649-2.4902 5.8136-5.2455 13.931-10.222 17.177l-.32233-.52308-.37599-.7771zm-67.548-13.551c-4.4818-2.0636-11.678-1.8609-14.382-5.7107 1.4425-3.1799-3.1577-9.9173 2.3015-5.7295 2.9972.0445.90816 10.085 3.7903 7.7781.69089-2.9034-2.9254-8.9137 2.3502-5.1456 5.009-.0931 13.054 6.2357 5.9397 8.8076zm-30.096-17.367c1.9668-.26073 1.8838.32223 0 0zm22.31-3.1808c-.99794-5.824 15.075-.72953 7.7206.74849-1.7014-.58116-7.6997 1.4433-7.7206-.74849zm-34.955-.53226c2.3382-13.565 10.512-25.644 20.958-34.374-.0086 4.7844 4.8479 13.625-2.7488 14.151-6.2937 2.7788-11.878 8.2311-13.622 15.022-2.3851-.54398-4.5759 8.7934-4.5868 5.2012zm17.282-1.8477c3.0869-.24324 1.2881.33905 1e-5.00025zm8.3274-.00053c3.3484-.23512 3.3075.28813 0 0zm8.6195-4.28c.6035-6.1264-4.7388-10.121-9.3035-13.04 3.4934-1.4322 12.642 1.7428 15.054 6.0057 1.731 3.441 6.0269 10.941-1.5148 8.9139-1.6525-.19223-5.1543 1.3183-4.2358-1.8797z" style="fill:#b3dff7;stroke-width:.26458"/><path d="m114.27 224.19c2.3092-.25281 2.2431.31124 0 0zm12.965 0c2.3091-.25281 2.2431.31124 0 0zm-18.785-.25991c3.3401-.3244-.0536.42294 0 0zm24.871 0c3.3402-.32443-.0535.42295 0 0zm-28.443-.26025c2.2687-.25738.0975.42605 0 0zm-2.9104-.26458c2.2687-.25738.0975.42606 0 0zm38.1 0c2.2687-.25738.0975.42605 0 0zm-31.684-2.7489c-15.246-1.1002-31.048-2.4277-45.017-9.1171-6.4757-1.741-6.7365-9.0833-.73911-12.089 4.7647-2.9771 12.739-7.5349 11.836 1.8198.76452 7.3758 10.014 4.4974 15.138 4.8682 5.9524.29766 13.161-4.3279 17.205 2.2758 12.785 8.652 29.454 10.206 44.199 6.4983 5.9621-1.5572 10.112-6.3396 14.882-9.8362 7.5162.3682.31025-13.815 8.3601-8.5204 4.527 1.8251 12.59 5.4009 9.7522 11.442-4.8845 5.7312-13.034 6.8351-19.942 8.7205-18.268 3.7942-37.062 4.7988-55.674 3.9375zm54.769-1.302c2.841-.77438-1.0506.7895 0 0zm-90.223-1.9937c-1.9342-1.0897 3.5312 1.3102 0 0zm-2.3812-.90226c-3.097-1.8095 4.3958 1.8434 0 0zm101.73-.14677c2.9533-1.483-1.6624 1.414 0 0zm-104.84-1.2076c-4.5356-2.6398 5.7211 2.6103 0 0zm106.19.69675c2.692-1.6654 7.164-3.3926 1.8726-.71125-.49231.11372-1.4485.87995-1.8726.71125zm-109.23-2.4171c-3.9011-2.8037 4.2392 2.3501 0 0zm115.56-.97854c2.2886-2.2353 2.5532-1.4631 0 0zm-119.6-2.2451c-3.269-3.5118 4.4798 4.3804 0 0zm36.379-14.945c2.2362-2.0642 3.0834-4.9814 1.1144-.56535.73469-.36578-1.8128 1.1484-1.1144.56535zm-1.9741-.46678c-3.0983-1.864 4.1874 1.7224 0 0zm3.8848-4.3351c-3.3708-1.3387 1.7594-.25178 0 0zm-17.379-.82424c-1.6624-1.414 2.9532 1.483 0 0zm-4.8286-2.2654c-5.9674-3.1552 5.2975 2.1144 1.1792.58274l-1.1791-.58276zm-2.9893-2.1248c-1.2885-3.199 1.7557 2.9112 0 0zm9.0747-.12436c-5.4565-3.1149 6.4535 2.9595 0 7e-5zm82.121.1755c-1.0347-1.6207 1.7327.98608 0 0zm-86.354-2.2929c-3.7634-2.2554 4.8904 2.194 0 0zm-5.7547-2.6532c.70887-1.2239 1.3959 1.082 0 0zm30.866-2.9518c.68628-.84738 3.2736.68807 0 0zm57.548-1.5327c-1.152-2.8224 1.4164 2.1636 0 0zm-62.882-.12096c-1.1951-.78355 3.0236.78658 0 0zm-5.9035-1.7682c-3.6679-1.8205 4.2507 1.386 0 0zm67.022-1.6713c-1.1214-2.803 1.7253 2.8315 0 0zm-54.453-1.199c-1.9643-2.3204 2.7131 2.3155 0 0zm51.66-2.7036c-2.3792-2.6439 3.1351 3.0433 0 0zm-79.162-.48041c-3.9993-2.3686 4.4516 2.0836 0 0zm17.992-.26623c-2.5504-1.7414 3.487 1.5395 0 0zm-5.9051-2.6295c-4.0492-2.5329 3.782 1.4303 0 0zm63.671-.60571c1.2674-3.6366 1.1007-1.2346 0 0zm-70.665-3.6249c-4.5498-2.748 5.7366 2.8739 0 0zm-13.229-.79375c.6552-2.2949.14812 2.2992 0 0zm86.008 0c.51317-1.9354 1.1591-1.0382 0 0zm-79.466-.32325c2.5788-.24192 2.6097.33119 0 0zm-9.2475-2.1198c3.0869-.24324 1.2881.33905 1e-5.00025zm22.35.005c1.9668-.26073 1.8838.32223 0 0zm4.7443.0534c3.2174-.70418 4.3419.66161 0 0zm-30.134-.42204c.34458-5.4475 1.2975.19958 0 0zm19.704.10649c2.848-.35024-.28348.44169 0 0zm24.802-.25691c2.7222-1.6031.17649.75072 0 0zm47.798-1.0256c3.7744-1.7689 12.581-6.5897 7.9516-9.3542 6.3717 3.3505-5.8651 8.4059-7.9516 9.3542zm-47.798-1.1762c-.97657-1.7051 1.8183 1.7803 0 0zm-16.467-.98361c3.5164-.35701-.26455.43401 0 0zm6.6146 0c3.5164-.35701-.26453.43401 0 0zm-7.8147-1.8532c2.5788-.24192 2.6097.33119 0 0zm-22.77-.25002c.30844-1.1348 6.2207.88207.67508.10958zm33.69-.0187c3.5196-.45082 7.0628-.34808 1.4132.15031-2.9303-.004-6.3695-.11144-1.4132-.15031zm-37.174-.5135c2.7223-1.6031.17642.75078 0 0zm98.201-5.5961c-1.2412-1.7545 3.4771-4.1926.15159-.93301-.26764.39818 1.0922 2.2534-.15159.93301zm2.5064-3.6182c1.7125-1.8145.22865-3.9231.9995-.8871.33466-.08-2.7344 2.703-.9995.8871zm-37.869-1.9658c1.5879-1.0372 4.5047-3.4202 1.1453-.26847.0144.0528-1.2332 1.1758-1.1453.26847zm-31.485-1.0759c-6.4758-3.4355 4.9973 2.0624 1.5875.81711l-.67476-.34647-.91268-.47064zm60.986.48564c-2.0288-1.2552-7.5203-4.3102-2.4718-1.7859 1.7634 1.5872 8.3592 2.9768 2.4718 1.7859zm-80.036.18657c2.8359-1.9398 2.7858-.9225 0 0zm69.914-.44017c-1.9-1.8051-6.198-5.867-7.7538-6.0534 3.9435.92566 7.7198 6.4227 10.12 6.3516-.74476.46464-1.6427-.2769-2.366-.29821zm14.152.10564c2.5787-.24183 2.6098.33112 0 0zm-33.458-1.3966c.13516-2.3207.13513 2.3207 0 0zm-46.374-.52916c3.9129-1.9106-2.6209 1.8418 0 0zm17.144-.23631c-3.4894-1.8773 3.5384 1.3089-1.1255-2.1034-2.4503-3.6371 5.9093.27785.32899-1.5695-2.3091.62896 5.3183 5.9628.79647 3.6729zm-7.6194-.55744c-.81902-.94221 2.5707.94611 0 0zm59.002.0954c1.4066-1.5302 2.9183-.14188 0 0zm-40.91-.29787c-.11607-3.0838-3.7697-2.5797-2.888-2.9631 2.2503-1.611 2.985 4.9127 2.9786.0545 3.5652-.49636-2.2458.49949.36453 3.1271l-.45514-.21848zm28.077-1.385c-2.1286-1.3722-5.0813.60403-1.0379-.90807 2.1531-.40999 4.6452 2.7279 1.0379.90807zm-20.638-.0197c-4.6212-1.0616-2.981-.78684.59345-.0867 2.0633-1.4396-1.8881-7.2708.26652-6.5951-2.6198 1.063 4.7759 8.1124-.85997 6.6818zm11.306-.50951c.14685-1.8062.14678 1.8062 0 0zm-25.523-.19175c3.5569-.0891.4603.17391 0 0zm25.197-1.1857c-3.1885-.41918-13.135-7.171-5.4573-2.7471 1.0894 1.2562 5.9495 2.167 5.4573 2.7471zm-50.8-26.404c-2.5457-1.8306 3.2675 1.6498 0 0zm6.6576-1.202c-1.152-2.8224 1.4164 2.1636 0 0zm-10.891-5.8095c-1.6624-1.4139 2.9533 1.4829 0 0zm-7.1438-2.9104c-1.6624-1.4139 2.9533 1.4829 0 0z" style="fill:#b0b7ba;stroke-width:.26458"/><path d="m110.84 220.75c2.848-.35024-.28347.44169 0 0zm-16.208-25.778c-4.6803-2.1248 4.7208 1.6401 0 0zm10.319-24.04c-1.0532-1.6199 1.9018 1.4157 0 0zm-9.6588-32.281c-3.7667-2.3609 4.8672 2.4432 0 0zm-3.175-1.4552c-1.6624-1.414 2.9533 1.483 0 0zm-7.2741-4.4524c-1.2635-7.4391-2.7813-14.851-4.3258-22.239 2.1106-3.6267 3.3322 6.4321 3.624 8.4809-.2655 4.2466 4.3613 12.39 1.0519 14.32l-.35009-.56144zm-7.1047-27.628c.93427-.85949 1.3414.64982 0 0zm-8.5541-1.9158c-2.6655-.11754-11.93-3.2063-5.4528-4.793 4.0134 1.8081 10.456 2.9235 12.899 5.5935-2.2271 1.1854-5.1283-.46901-7.4464-.8005z" style="fill:#7197bc;stroke-width:.26458"/><path d="m131.27 211.99c-8.6972-7.9639-20.555-10.734-31.22-14.922.31326-6.7983 8.5596.23188 12.261 1.1804 12.832 3.2178 26.656 4.5961 39.604 1.2904 5.1468-3.086 10.614-5.3556 16.129-2.3329-5.8815 1.1134-12.063 2.0871-17.509 4.9346-6.4182 2.8493-11.818 7.4183-16.649 12.43-.90389-.82727-1.7511-1.7132-2.6162-2.58zm-7.4027 1.0395c-3.9298-.90226-10.814-3.5044-12.68-5.0074 6.2306 1.7857 13.985-.17925 18.493 5.4963.1833 1.8613-4.6569-.61825-5.813-.48891zm12.977-18.283c.45032-2.2491.93112.33777 0 0zm-.12896-2.8094c-.017-2.7902 1.6259 2.3709 0 0zm-3.4554-1.9532c1.5955-.98462 1.1669 1.0932 0 0zm-18.124-.82016c-.3688-.50756 5.9475.021 1.1129.087l-1.1129-.087zm7.2209-.43463c5.7568-.13725 3.2354.29796 0 0zm9.1219.005c3.557-.0891.46028.17395 0 0zm3.6994-.26424c2.3092-.25282 2.2431.31126 0 0zm-27.444-1.3676c-5.232-3.7941.66273-12.892 3.1749-17.506 4.9649-7.2613 14.394-10.187 22.821-9.0445-7.8789-.0177 2.8358 10.632 2.1195 2.3792-3.1598-5.6791 11.71.75124 7.8007 5.316-.88347 3.6699 7.8602 3.9068 3.9414 8.8074-5.1431 5.5213-12.276 10.256-20.115 9.6997-6.5794.0681-13.167.54298-19.743.34839zm11.118-5.327c3.1317-6.5387-13.017-6.8052-7.5255-1.4412 2.3019-.42819 6.807 5.1815 7.5255 1.4412zm-4.1922-1.9512c-6.6276-2.3837 4.2767-1.5466 2.1681.7564-.75284-.16034-1.4554-.47912-2.1681-.7564zm17.805 1.7596c2.7285-3.09-.0208-10.534-3.4884-5.7765-1.6947 3.1017-1.1458 8.8794 3.4884 5.7765zm-2.449-.90267c-2.1226-3.2232 3.4612-6.8494 1.7203-1.4124-.0289.70548-.77574 2.508-1.7203 1.4124zm11.244.40627c4.4944-2.7484.55187-12.06-2.5174-5.7888.19259 1.7733-1.1737 8.7292 2.5174 5.7888zm-1.1972-3.5792c.25346-6.6384 2.995 2.9377.0111 1.8997l-.0303-.74621.0193-1.1536zm-15.761-2.6155c4.6491-.93054 4.8768-9.3502-.38089-4.728-3.4788.60659-3.9046 6.9625.38089 4.728zm-1.1818-1.6537c-.32137-3.3992 6.0573-2.6747 1.1903.033-.30091.28596-.95107.42845-1.1903-.033zm15.893-1.2783c7.0572-4.7576-5.2256-8.0821-3.6036-.0976.77139 1.0668 2.599.0792 3.6036.0976zm-1.9168-1.6801c.97983-6.0138 5.4393 1.5181 0 0zm-17.503-.63583c3.8402-.95587 6.9139-4.7823 1.2316-5.7719-3.2804.0813-7.1 8.1352-1.2316 5.7719zm-1.1864-1.7533c1.3974-4.5758 5.5041-.19488.25561.31571l-.25558-.31573zm41.055 18.058c.52589-4.9948 3.4257-2.2046 1.3794.57851-.42756.0995-1.443.15765-1.3794-.57851zm-11.309-2.92c-2.7923-2.255 6.0962-.0159.76961.22971l-.76958-.22973zm2.8699-5.7644c-2.1295-3.0091 6.5524 1.6396.78319.36151l-.78309-.36146zm7.6205.34296c-1.7574-2.5879-1.4201-5.2699.16506-.93914.33608-.0552.34046 1.245-.16506.93914zm-11.856-7.5916c-4.9105-3.5988 5.5156 1.0376 0 2e-5zm-13.65-6.2085c-.91459-3.7917 2.6645 1.6834 0 0zm18.33-10.288c.63119-3.7332 5.9632-13.194 7.9115-11.277-1.2199 2.7066-7.6255 8.0279-6.0428 8.9523 1.234-4.4221 9.6262-6.8051 9.3093-1.703-3.2514.91283-8.8437 4.7065-11.178 4.028zm-5.7274.30463c-1.7765-3.8667 6.4565-10.834 2.5493-3.0036-.57177.96125-.73163 3.9839-2.5493 3.0036zm-2.7561-.29158c-2.0855-1.6408 3.9081-1.4458 0 0zm-8.4818-1.5769c-1.1682-3.8989 6.6169-9.0104 10.268-11.276 4.5881-.34869 5.3768 3.1816 1.0731 4.7443-3.5438 2.3002-7.0062 6.4204-11.341 6.532zm-11.252-1.3068c.86705-5.0143 5.0072-9.1085 8.2088-12.993 3.2143-5.2268 7.4035 1.7252 1.8488 3.2152-3.6086 2.5057-5.2232 9.9987-10.058 9.7782zm-6.8792-.79375c-.61235-5.1664-5.1734-9.8024-5.4019-14.63 6.5225.99436 6.6788 9.8037 7.7446 14.65-.74817.20905-1.6191.37444-2.3427-.0202zm-8.3966-3.5939c-.84648-4.0281-8.0265-8.2242-6.9356-11.049 5.0043-.20499 5.9939 8.3201 8.2889 12.175-.43342.83521-1.1502-1.6571-1.3533-1.1259zm42.854-5.5648c-4.0742-5.915 7.3649.74124 0 0zm-30.184-.38429c-1.6321-2.3442-2.1548-6.784-1.7896-9.0514 4.8935-.31571 4.0989 9.2846 1.7896 9.0514zm18.04-3.915c1.2872-2.6807 1.6689 2.1593 0 0z" style="fill:#e7a128;stroke-width:.26458"/><path d="m137.63 214.2c2.3174-6.8401 10.742-3.936 16.143-5.535 2.4345-.89726 9.1043-1.8884 3.742 1.2454-5.5631 3.4841-12.432 4.6982-18.912 4.6819l-.97282-.39223zm-23.024-4.1199c-3.2974-1.1856-6.7911-3.5488-1.2341-.83377 2.1993.82558 8.1447 3.7988 2.3087 1.3086l-1.0746-.4748zm6.4161-.70885c2.654-.24607 2.5996.30225 0 0zm-13.229-22.215c2.2687-.25742.0975.42606 0 0zm4.6302-.004c3.3401-.32444-.0536.42299 0 0zm8.3344-.26024c2.2687-.25738.0975.42605 0 0zm13.272-.74669c5.846-.70695 10.149-8.1776 14.949-8.2912 2.535 3.067 10.77.4505 4.8088-2.3771-1.8912-1.5868-5.2717-1.6928-5.5134.088.24366-2.3421-2.2272-4.6945 1.4571-3.6291 2.8362-4.0301-4.704-6.533-5.4956-5.8808-1.5102-2.6454-5.7187-5.6338-.0977-2.982 7.5974 2.8169 14.097 8.7951 16.215 16.781 2.721 6.6604-4.9712 7.5581-9.7009 6.6833-5.4352-.21227-11.55.42322-16.623-.39228zm17.245-1.5646c6.4882-4.3872-8.2541-6.7159-6.1203-.77702 2.0221-.0247 4.2164 1.719 6.1203.77702zm6.9855-9.1524c-2.8504-4.531 2.3148 6.4733 0 0zm-43.125 6.3544c-2.6209-1.8419 3.9129 1.9106 0 0zm-4.1135-4.6964c3.2002-2.2066.86262-.41868-.78279.86299zm5.4364.44998c-3.2046-1.8924 4.3659 1.8149 0 0zm9.6573-4.0928c4.4416-2.8566-1.8507 1.5836 0 0zm-17.066-1.1858c2.2052-3.7873-1.607 3.7541 0 0zm26.723-2.7425c1.2819-3.8855 1.1152-1.2696 0 0zm-8.8635-.43247c-.95555-1.0416 2.1717.68618 0 0zm-5.9531-.38796c2.0466-1.5806 4.5482-1.7048 0 0zm22.508-.009c.51318-1.9354 1.1591-1.0382 0 0zm-19.711-3.0177c-2.0957-2.5841 2.9597 3.0213 0 0zm8.8484-2.8776c1.2534-1.2989 1.7215.19383 0 0zm-12.969-.7193c4.7965-2.6051-3.2796 2.2848 0 0zm-4.9106-1.8173c-6.0893-3.2467-5.6788-11.886 2.4319-8.5337 9.6248.97093 19.394 2.1478 28.735 4.3702-.29687 7.9077-8.9152 1.1779-13.679 2.2154-6.0636-1.6562-12.524 2.8398-17.488 1.9482zm39.571-5.4485c1.6843-2.2134 8.011-2.6853 2.2753-.59663-.74528.22382-1.4737.65538-2.2753.59663zm-3.7042-.96211c.44706-2.7156 4.7616-9.1924 1.6736-2.9362-1.5786 1.5836 1.2142 5.3699-1.6736 2.9362zm-3.4396.27333c1.0751-2.6075 3.9264-11.146-.3513-4.9901-3.9997.36847 8.5458-6.9153 4.459-.19313-1.1158 1.4712-1.9414 5.351-4.1077 5.1832zm-5.2889-.90722c-1.551-3.8371 4.918-6.0726 1.9857-1.0601-.77669.0736-1.1535 1.1766-1.9857 1.0601zm-2.9132-.85643c1.2458-2.77 1.7078 1.2699 0 0zm13.636-1.3281c1.8449-4.0861.34478 2.3052 0 0zm-23.955-.41352c2.2428-4.493 2.1123 2.2135 0 0zm-3.175.009c2.8036-4.6208 1.7594.2866 0 0zm-5.8817-.50493c-1.34-3.8798-4.186-11.337-4.1027-13.511 2.9503 2.7943 8.8999 10.541 4.8784 13.632l-.7757-.12078zm11.967-.132c-.63457-6.792 12.752-7.3343 7.1056-13.233 3.4643.38316-2.2227-3.3978 2.4417-.56982 4.8279 5.6915-7.1595 8.9566-9.1499 13.976l-.3042.11054-.0932-.28324zm-20.691-.71012c-2.8505-2.3975-3.4269-8.3909-6.6496-12.755.0449-5.0966 4.3501 4.205 5.0998 5.8164-.1238 1.5645 6.2766 8.1782 1.5498 6.9383zm46.125-2.2154c2.1181-2.1625 5.4085-.19644.59419-.37743-.26539.14544-2.5011 2.261-.59419.37743zm-20.01-.46524c3.9081-3.9118-1.4751 2.0737-1.0706 1.1212l.47108-.50477zm6.8792.37434c1.1719-1.8116 7.2192-3.4871 4.437-5.5682 8.9387 2.5287-4.7584 5.9862-4.437 5.5682zm-14.65-.80813c1.2907-2.8649 9.2624-12.086 8.2501-5.1693-2.685 1.3897-6.1295 4.3795-8.2501 5.1693zm-6.7295-1.4678c-.49693-2.8412-3.4135-4.6385-.73337-4.6379.8724-3.3036-.7494-10.329 3.8061-4.8211.38621 2.1935.31553 11.604-3.0727 9.459zm-10.047.006c-1.3209-1.6794-4.4289-9.0214-1.087-3.2777.18756.2946 2.5736 5.2652 1.087 3.2777zm45.967-.97188c.0601-4.2586 7.6499-3.6259 2.9211.0923-.44941.26091-6.0376 1.704-2.9211-.0923zm-44.52-.18844c-1.8439-3.9894 2.2131 3.5814 0 0zm-8.1197-.64856c-1.1214-2.803 1.7253 2.8315 0 0zm46.236-1.219c-2.6508-1.491-3.3782-3.6016-.29902-.57991 3.145-.6093-.64577-3.9113 2.9775-1.1742 3.4752 2.6489-.81898 4.1687-2.6785 1.7541zm-23.117-1.3861c3.1953-3.7529-2.2333 3.2919 0 0zm-26.762-1.8314c-2.2965-1.6621-3.1415-5.1194-.74555-1.049 2.5393 2.4903 4.6456 4.9809.74555 1.049zm9.2507-.20696c-2.1064-4.7286 2.4162 4.2576 0 0zm7.4891-.45327c.72144-2.6627 1.4392-.71876 0 0zm-8.5406-1.8702c.0546-2.6232 1.2745.59573 0 0zm24.958-.0286c-2.8907-1.0934.74583-.48298 0 0zm-17.175-4.3154c1.2654-2.3645.4226 1.3002 0 0zm1.8822.19019c-2.1862-1.6248 2.4825.96361 0 0z" style="fill:#e36e25;stroke-width:.26458"/><path d="m136.4 197.63c-2.8194-1.2402 2.452-7.7451-3.6018-7.1635-4.3731.55048-6.9862 4.2708-10.828 3.6674-4.9056 3.2862-7.0384-6.0287-12.01-.62354-2.7271 1.4941-7.5182-1.4378-8.669-2.793 2.0577-.41043.11352-4.1488 4.0834-2.2479 3.6952.68714 8.149.54239 12.985.60207-2.4429-.72871 8.3925.1806 7.6174-.55994 6.7838.23532 10.877-.48044 17.387-.42795 7.0119-.23028 14.167.66449 21.081-.6837 4.2037-1.0297 5.7336 11.292-.71836 6.2281-3.6833-3.8717-5.3774 3.9927-8.9705-.89191-6.643-4.7767-10.021 5.3122-16.005 5.294l-1.1401-.11863-1.2101-.28137zm1.0497-3.7486c-1.2448.35253-.0955 1.8318 0 0zm.17384-1.7525c-1.1199-3.0769-1.0841 1.7335 0 0zm-3.3073-2.1491c-1.5955-.98462-1.1669 1.0932 0 0zm-1.252-1.2474c-2.2262-.26513-2.3074.38046 0 0z" style="fill:#61b444;stroke-width:.26458"/><path d="m115.13 224.2c-16.673-.74349-33.871-2.7196-49.032-10.152-2.8081-.67166-10.093-8.4099-4.119-3.2193 10.731 6.7362 23.87 7.707 36.161 9.1206 23.503 1.6882 47.501 1.3542 70.496-4.2498 5.977-1.7958 13.16-3.7279 16.218-9.6319-2.3098 6.9442-10.954 9.3162-17.171 11.87-16.884 5.4238-34.924 6.6401-52.553 6.2632zm14.622-7.9462c3.5164-.35704-.26458.43405 0 0zm8.8703-.006c5.3637-.13758 2.9233.30209 0 0zm16.592-3.2783c7.0533-3.9257-3.3126 2.4457-.80253.41667l.80253-.41675zm-41.699-.60274c-3.1314-1.2206-7.0735-4.0068-1.6224-1.0986 1.8791.80937 6.1214 2.9867 1.6224 1.0986zm45.8-1.8265c2.5992-2.7862 1.5443-1.0484 0 0zm4.2333-4.0182c4.5283-4.3096-4.0124 4.3702 0 0zm-59.022-.29978c-3.3048-2.3532-.4979-1.451.72916.67356l-.72913-.67343zm-22.128-.029c5.7568-.13725 3.2355.29796 0 0zm8.591-.25525c2.848-.35027-.28347.44173 0 0zm78.012-2.4457c.83255-1.974 1.2544-.91562 0 0zm.71434-4.3786c.0851-3.0245.27677 3.0087 0 0zm-.31054-2.6138c1.9788-3.0577 1.7569-2.0913.0531.26182l-.0531-.26183zm-71.175-2.1487c2.085-3.1028.98673-.33137-.69957.79536zm-19.415-11.394c-6.3616-3.3597 4.5737 1.7976 1.4671.74639l-.62376-.31647-.8434-.42992zm-6.5275-2.6957c.89794-1.895.43754 1.0208 0 0zm31.586-2.2901c-1.0176-1.2337 2.3982 1.2095 0 0zm57.336-.83009c-1.152-2.8224 1.4165 2.1636 0 0zm-1.5745-3.4382c-2.8347-6.2792 3.3227 6.0749-3e-5 1e-4zm-53.219-.73657c-2.0814-3.0177 1.2418-.36681 0 0zm49.988-4.2806c-3.1954-3.5607 3.8801 3.6937 0 0zm-3.8749-3.4443c1.2314-5.7439.50326.7901 0 0zm-63.131-.67473c-3.5025-2.2182 4.3194 1.918 0 0zm-22.597-4.6208c-.85012-2.4132 1.1427 1.6206 0 0zm87.773.53782c.81081-2.478 1.4244-1.6406 0 0zm-75.495-.84818c3.3402-.32443-.05354.42295 0 0zm-18.303-1.0228c-1.8313-3.4851 2.1442 1.8888 0 0zm8.9108-1.0895c2.2687-.25742.09745.42606 0 0zm9.7896 0c2.2687-.25742.09745.42606 0 0zm7.1438 0c2.2687-.25742.09745.42606 0 0zm11.248-.005c2.848-.35024-.28346.44169 0 0zm-34.975-.31139c.15131-3.9054 1.1149 1.0022 0 0zm39.742.0401c3.0869-.24324 1.2881.33905 1e-5.00025zm6.2362-.77272c.15585-1.7636.69312 2.2969 0 0zm-44.3-2.8205c2.7842-.50227 2.0952.42944 5e-5-5e-5zm29.59.1563c2.3092-.25281 2.2431.31124 0 0zm-31.947-.21021c1.1113-2.5581 4.1297-2.9785.55973-.65669l-.5597.65673zm6.4152-.0525c1.9668-.26073 1.8838.32223 0 0zm25.135-1.5907c2.654-.24608 2.5996.30227 0 0zm67.94-.0816c2.153-2.2115 6.0199-4.655 1.7928-1.1775-.45864-.50452-1.774 1.9528-1.7928 1.1775zm1.6951-5.0834c-2.1351-2.4185 2.9668 2.8776 0 0zm-61.904-3.7042c-3.5735-3.8136 4.864 4.7656 0 0zm60.201 1.3063c2.5992-2.7862 1.5443-1.0483 0 0zm-91.557-2.8938c2.329-2.4237.39526.0432-.87505.95225zm94.435.29307c1.2356-4.4423 1.1387-.16454 0 0zm-38.03-2.1452c-.40606-.91071 1.2658 2.0984 2.6353-1.0577 1.0651-1.2518-3.2372 4.4153-2.6353 1.0577zm31.793.2227c3.4938-2.2674-2.0203 1.8253 0 0zm-13.927-1.1267c-2.2111-5.0754 1.4249.0609 0 0zm9.8116-.3708c-3.4192-2.2299 3.6295 1.7512 0 0zm-55.166-.25481c-1.3451-1.1279 1.915.11265 0 0zm-5.887-.65321c-1.6624-1.414 2.9532 1.483 0 0zm55.827-.21167c1.823-2.0302 3.6805-.53767 0 0zm-73.29-.0504c2.1274-1.5643 2.4828-.71778 0 0zm32.386-.70485c.84344-1.0541 1.6857.76055 0 0zm18.74-.48829c.14685-1.8062.14678 1.8062 0 0zm-29.654-.5691c-1.9772-2.2957 1.5378-2.4773-.01948-.48151.88605 1.0801 1.8638 2.272.01948.48151zm-13.468.6513c2.2687-.25738.09749.42605 0 0zm2.9104-.27171c1.9668-.26073 1.8838.32223 0 0zm21.66-.8948c-.13319-3.801 1.0131 1.7091 0-1e-5zm9.2484.35671c.24969-2.3678.93797.75575 0 0zm-2.3337-.25566c1.9668-.26073 1.8838.32223 0 0zm20.706-.0709c-4.2901-1.9602 1.4796.19228 0 0zm2.0514-.79794c2.2389-2.4618-.34941 1.5591 0 0zm2.1794-.0179c-1.9641-1.8323 2.9277 1.8564 0 0zm-33.797-.15777c-3.3923-.20541 1.981-.72478 0 0zm-21.457-.26527c-1.0034-1.2328 4.1919.11174.47187.19016l-.47188-.19016zm31.052-3.9018c-.57012-4.2174 8.7927 3.4707 2.1156-.62024-3.7072-3.4949-.65897 3.6315-2.1156.62024zm-35.687-19.8c.97601-3.1881.13043 2.0937 0 0zm1.7339-.62123c-.94727-2.3366 1.8266 1.9253 0 0zm-3.3304-.78107c-1.0571-3.1452.81545 1.4012 0 0zm1.5568-.56503c1.1061-1.4391-.52183-3.3014 1.8282-.44579-.19782.67875-1.3383.80819-1.8282.44579zm-3.0352-2.4523c-.63149-2.7032-1.1839-2.3985 1.8506-1.1365 2.8104-.55979-1.2322 2.0243-1.8506 1.1365zm1.5626-.51323c-.90459-.79197-1.3403.77485 0 0zm-3.9514-.29268c-.48365-.95739 2.4677.66958 0 0zm-2.645-3.2107c-4.6803-2.1248 4.7208 1.6401 0 0zm-11.047-.41129c-1.4178-1.9723 4.4333-5.0875.3364-1.5464-1.3212.67282 1.6623 2.2638-.3364 1.5464zm-1.2522-2.8603c.98858-2.44 1.8934-2.3657 0 0z" style="fill:#6d7376;stroke-width:.26458"/><path d="m81.794 204.07c-7.4031.18115-5.1168-9.8512-7.3733-14.63 4.4641-.368 10.703 4.58 15.911 6.0841 4.0166.40221 13.182 6.2007 5.1106 7.8793-4.5201.56838-9.0935.82966-13.648.66709zm45.111-5.0072c-4.6921-1.314-13.226-.39397-15.341-4.4049 3.8356-2.2889 7.5369 5.3154 12.145 1.0489 3.8388-1.2722 8.1245-3.0109 9.7124 2.4421 4.0725 2.6987-5.9222.68511-6.5162.91381zm16.536-.0767c1.0522-4.5385 10.86-8.6674 10.658-2.7671-3.2032 1.4316-7.2324 3.2506-10.658 2.7671zm-10.716-5.0918c-3.7593-4.1493 4.6374.61301 0 0zm-35.586-6.555c-8.6007-2.0985-17.265-4.9027-24.558-10.021-2.01-4.1748-3.7088-14.585 3.3231-8.1221 8.5674 4.6134 17.955 7.3873 26.993 10.827 2.3895 4.0831-.92593 9.1396-5.7578 7.3157zm10.755-20.282c-2.6822-5.8821 3.6051-11.528 7.8286-6.1304-.66095 2.3007-5.4059 6.1739-7.6774 7.2534l-.1513-1.1229zm-8.1092-.52016c-3.9323-1.7169-11.932-4.1375-12.953-6.5225 5.9934-.3991 12.026-.73638 18.027-.43546.77208 5.049 2.3504 11.146-5.074 6.958zm47.27-4.8649c-7.4608-2.556 4.8829-9.5897 5.806-2.6869-.8821 3.1779-2.8127 4.7318-5.806 2.6869z" style="fill:#df212a;stroke-width:.26458"/><path d="m133.35 214.39c.20887-.81116 3.8393-.0582 0 0zm-4.0011.0117c2.3771-1.233.31419.83186 0 0zm7.4745-.13733c1.2728-2.4295 8.2417-7.1721 2.7192-2.8256-1.5579.31425-1.5784 4.1064-2.7192 2.8256zm-5.8299-2.5202c-3.269-3.5118 4.4798 4.3804 0 0zm21.775.6447c2.4309-1.0388 7.7428-4.0855 2.5532-.90622-.95306.74588-6.2952 2.4225-2.5532.90624zm-15.283-1.5046c4.1975-3.9706-3.6806 4.0214 0 0zm-21.564 0c-2.6209-1.8418 3.9129 1.9106 0 0zm-2.6458-1.1906c-2.9688-2.075 3.9402 1.9982 0 0zm31.552-.32677c3.3477-.23511 3.3084.28811 0 0zm15.017-1.1796c-1.5182-1.1586 2.6705-1.923 0 0zm-51.03-.4933c-2.4044-2.5067 3.9264 1.7343 0 0zm-27.351-3.6115c2.848-.35024-.28348.44169 0 0zm3.0396-.008c5.5932-.12112 2.7673.25122 0 0zm13.891-1.3915c.85341-2.1459-.99473-6.4347.63534-1.8771.9785.0584-1.3658 3.0463-.63534 1.8771zm32.155-1.5182c3.3816-.23843 2.9345.30006 0 0zm11.369.0124c2.2687-.25741.0974.42609 0 0zm-8.9339-1.6029c3.8131-.95838 2.6982.46799-1.6004.0832l.4101-.03 1.1903-.0532zm10.06-.86217c1.8634-1.3294-.93957 1.7466 0 0zm-18.718.0791c2.848-.35027-.28348.44173 0 0zm-5.4932-.87119c-1.6971-.83027 3.0616.78346 0 0zm49.098-.55875c-.90406-1.9584.98091.82336 0 0zm-68.888-.24753c-1.5048-3.6404 2.4345 1.1162 0 0zm60.138-1.0039c4.7132-4.1675-1.3347 1.8244 0 0zm-4.6225-.21885c-.54947-3.7915 1.2145 1.1896 0 0zm-22.002-1.8507c1.1761.60238 1.5401-3.6087 1.3514.23296l-.66282.1718-.6882-.40474zm-18.108-.0677c-2.8072-.95763 1.5406-.36188 0 0zm13.876-.0951c2.0324-.56174 1.2366.48231 0-3e-5zm3.2599-.77283c-1.0456-1.8996 1.4395.97808 0 0zm-19.293-4.3752c3.3816-.23843 2.9345.30006 0 0zm9.517-.25928c1.9668-.26073 1.8838.32223 0 0zm-15.875-1.3086c-1.7521-2.164 3.5172 1.1934 0 0zm9.3927-.0198c3.6964-.23056 3.6606.28241 0 0zm8.8502-.26633c3.5811-.15636 6.9624.15338 1.5511.0858-.36262-.002-2.9469-.004-1.5511-.0858zm9.6707-.26283c3.6964-.23056 3.6606.28241 0 0zm21.206-.0624c2.7288.0859 10.775-1.0082 4.0868.2212-3.3539-.0247-14.329-.0374-4.0868-.2212zm-52.043-.52424c1.5556-1.3516-.68485 1.6034 0 0zm46.116-1.3419c3.3852 1.1589 2.9326-4.287 3.7263-3.5392.96104 1.5525-1.9863 4.716-3.7263 3.5392zm-1.9844-.52225c-1.6463-.76673 3.5024.72491 0 0zm-2.2762-.63694c.30813-4.7274 1.8853 2.3408 0 0zm4.6574.10662c.0825-1.1964 3.9105-1.6627 0 0zm-32.454-.99104c-.22917-1.1694 4.2227.81217 0 0zm30.006.17725c-1.695-1.7467 5.0124-.85227.13965-.55388-.20262.42478 1.6186 1.3178-.13965.55388zm-43.56-1.487c-1.5289-4.3508 1.26 1.7514 0-3e-5zm24.987.2006c-1.4623-2.5173 2.2238 1.893 0 0zm-9.7996-.27989c.61727-1.9155-1.3662-4.4896.53957-1.4444l-.23443.86145zm20.118.32193c-1.9487-3.1784 1.5661-12.113 4.276-6.4605.80367-1.229-5.4698-2.9696-4.1431 1.5233-.75953 2.8628.82173 6.9309 3.3622 2.9757-.28218 1.3291-2.2624 2.2003-3.495 1.9615zm-7.3924-.7188c.84274-2.8868-.19147 2.1678 0 0zm-14.846-.001c-.53758-.01 2.5639-1.1234-.82686-2.1707 1.4473-.67359 3.515 3.6743.82686 2.1707zm13.092-.005c-.91405-1.7317 1.8907 1.501 0 0zm16.145-.13195c1.8214-1.8707.66555.60608 0 0zm3.9057.0835c2.848-.35027-.28348.44173 0 0zm-9.9362-2.9217c-.0682-4.9433.17993 4.0198 1.1434 1.8521-1.3314 2.2885-1.1452-1.1288-1.1434-1.8521zm-29.622 1.8753c-.84269-3.653 1.2733-.41083 0 0zm1.5785-.84217c-.60245-2.0173 3.3756-1.1011 0 0zm38.422-.38363c-2.8978-1.6231-2.1151-3.5467-.16048-.31808 1.3645.43968 2.963 1.4852.16048.31808zm5.0563-.0422c1.8596-2.4189-4.5648-4.4143.45096-2.0558 1.8335.64424-1.8137 4.0383-.45096 2.0558zm-2.2022-.6489c1.8719-.34757-.98625-2.528 1.5049-.007-.32934.36858-4.1773.19273-1.5049.007zm-19.865-.28917c.1889-1.9169.82892-.94047.0599.15275zm17.329-.28378c-2.6672-4.7105 2.4667 2.2969 0 0zm-8.8992-1.0224c-2.1062-2.8724.87745-1.6939.13229 1.3061l-.13229-1.3062zm-30.055.57855c2.7305-.83008 3.337.0888.0841.0978l-.45162.36092.36752-.45872zm46.912-1.5307c-2.4619-5.5375 2.9504 5.3313-9e-5 0zm-28.402 1.1122c1.3371-2.2557 2.4703.93747 0 0zm3.1322-.98258c-1.1019-1.9399 1.6336 1.5264 0 0zm-11.195-.55722c-1.6257-2.1703 4.3111 2.2891 0 0zm26.848.21689c.92569-2.1459 4.6583.30404.2252-.0197l-.30716.35297.082-.33327zm-19.368-.1768c2.2943-1.9945.6321 1.0894 0 0zm-21.739-.36157c1.7797-4.4939 1.8701-2.4673 0 0zm15.134-.74968c-.39004-2.1086 1.3447-3.4057.23213-.39369 2.365-.30166.54927.97306-.23213.39369zm2.5929-.0865c4.0788-1.2298.12404-4.6849.81852-4.5949 2.6629.43006 1.9562 4.3854-.81852 4.5949zm-4.1937-.67093c1.5212-2.9097 4.0209-3.4905.31259-.53344-.20739.13742-.27653 1.8941-.31259.53344zm35.3-.97555c-1.7603-2.5917 2.8215 3.3049 0 0zm-30.643.17792c-.40214-4.941 1.53.16685 0 0zm9.3266-.40874c2.4861-.95993 2.3948 1.7789 0 0zm12.965.13923c4.5758.84338-2.3257-7.6598 1.5354-3.4724 1.2466.94169.44179 4.882-1.5354 3.4724zm-8.3192-.61437c2.6818-1.1153-1.6334 1.47 0 0zm-3.3225-.37269c2.0968-.44526 2.1017.75154 0 0zm7.854-.46893c-3.5093-1.6314 2.7975-6.7031 2.2916-4.0497-3.4314-1.8172-3.0074 5.4625-1.2656 4.5434l-1.0261-.49377zm-5.9798.35414c2.6264-2.5779 1.0564.18842 0 0zm16.368-.92322c-2.3792-2.6439 3.1351 3.0433 0 0zm-6.5342.54522c-.90962-3.4895 2.1737.83893 0 0zm-11.425-.42142c.97628-3.431 2.8345-3.015 0 0zm-18.517-.0218c1.6233-2.5176 1.2442.6855 0 0zm17.456-.0358c-.38659-3.5527 6.1207-4.6819 5.1794-.52881-.2028-4.5049-4.2314-2.2419-5.1794.52881zm-18.91-.94634c-2.0159-4.8487 2.3738 2.9634 0 0zm28.353.52827c-1.5966-2.8552 5.0675-.74442.11337-1.1625-.75949.48394 1.4358 2.0404-.11337 1.1625zm-37.378-.29466c.0938-2.9059-.4455-2.3963.53566-.66698 2.2364-1.8162 7.7973-7.6085 2.7562-2.2585-1.0311.64044-2.2307 3.2161-3.2918 2.9255zm31.919-.25741c-1.0692-2.5575.70479.80926-3e-4-3e-5zm-19.478-.1867c2.2307-1.8087 6.0652-4.0582 1.9138-.87806-.63911.28437-1.226.70792-1.9138.87806zm-2.196-.35129c-.0893-2.2495 1.5982-3.2471.11387-.4943.60233.30278 1.265 1.3591-.11387.4943zm34.592-.68413c-4.1657-2.9613-.32746-1.0006 1.3379.9809l-.4476-.28739-.8903-.69352zm-47.808.18669c1.5354-2.506-.2387 1.3925 0 0zm-34.431-.70641c1.0708-2.8606.61251 1.4158 0 0zm42.435-.33073c3.4785-3.4862-2.9264 3.4484 0 0zm8.855-.1193c-1.1248-3.2375 1.2971.7486-4e-5 0zm10.776-1.1465c-2.5103-2.8881-.86096-6.8289-.52239-1.2495 1.2317 3.7361 6.4783-2.8226 2.6151 1.4114-.62432.22683-1.5608.39809-2.0928-.16183zm-27.087-1.3801c.19497-3.0581.19496 3.0581 0 0zm43.77 1.1716c-2.4776-1.8034 2.7455 1.3506 0 0zm-16.285-1.5755c-2.3011-4.2169 4.1358.11226.65816 1.0987l-.65806-1.0987zm1.1464-.90252c-2.9212-2.7625.78569 4.0703 0-4e-5zm-14.693 1.7169c2.4275-1.598 4.2541-.16611 0 0zm26.988-.67505c-3.8741-2.3338 5.319 2.4507 0 0zm-38.84-1.733c.79022-5.4256.46062-1.2046.0584 1.8151l-.0258-.46576zm27.588.12901c-2.2252-2.2177.69137-3.0778.0208-.48636.26574.13062 1.1739 3.1222-.0208.48636zm8.2095.26207c-2.1835-1.3536 4.2112 1.7544 0 0zm5.8208.008c-.31452 1.045 5.243-3.7272 1.6199.2504-.44015.59451-1.1963-.15925-1.6199-.2504zm-33.734-.52378c1.6635-1.703 7.6835-4.306 2.1497-1.2564-.079-.0747-2.8044 2.0457-2.1497 1.2564zm2.9104.40473c2.8309-1.9132 3.1779-1.0725 0 0zm26.458-1.6109c-3.3481-2.0381 4.8053 2.0619 0 0zm-16.592-.83649c5.7568-.13725 3.2355.29796 0 0zm24.673-.72959c-.13911-3.8354 1.0157-.95938.00023 2e-5zm-51.668-.0576c3.5164-.35701-.26455.43401 0 0zm9.4441-.30799c3.3688-2.4685-.67034 1.12 1e-5-4e-5zm21.905-.74721c3.3402-.32443-.0535.42295 0 0zm-3.9688-.26458c3.3402-.32443-.0535.42295 0 0zm-17.625-1.9048c-1.7968-4.4189 2.1633 3.9838 0 0zm42.165-.95744c-7.6213.53937-1.0748-5.6364-1.3101-9.0323-4.9914-1.3303-6.77 4.8153-6.3184 7.7406-3.1348.31519.8412-8.1996-3.1294-3.646-.33951 2.8047-.6254 3.941-2.6699 2.3806 2.2978-2.5412-5.5374 1.8133-.90032-1.8986 3.4798-3.3974 10.172-4.3739 12.666-7.2809-5.8965-6.822-12.331.63318-16.437 5.3572-.29989 5.3357-12.502 2.6832-6.4701-1.5112 3.5763-3.7305 14.124-6.6398 6.1196-12.011-5.0521 2.6845-8.1213 8.4048-11.149 13.2.47763 3.3072-4.5432 2.7152-1.592.31366-.95581-5.7437-3.9714-12.534-10.405-13.626-2.8047 1.6373 3.6908 8.7998 4.157 12.429 1.5896 4.8723-4.9896 1.3419-4.6288-1.9096-.9611-4.5495-8.0263-15.336-10.72-9.0685 3.8793 3.3936 7.1023 8.5968 9.3725 12.524-3.5899-5.0619-8.8734-9.7374-12.617-14.897 4.1471.21013 9.8376-1.3175 11.954 2.288-2.7536-7.3129 12.717 3.8088 7.9416-4.7123-2.7204-7.0176 6.794 1.4727 9.3962 1.4306.34216 3.1676-.56693 10.995 3.5676 4.6011 1.7567-3.5217 5.8724-3.1604 7.9586-2.3635 2.9166-6.1312 7.3901 8.4199 11.112 2.8474 2.6401-4.6505 7.992 4.5167 12.079 1.1242 7.4481-.77486.95702 3.5553.9161 6.1445 7.1622 3.6504-2.8687 8.3897-6.3872 9.8823-.85412.29274-1.6745-.26826-2.507-.30524zm5.3578-1.7977c2.5986-2.5515-8.3258 3.0704-1.8918.82069l.69033-.27023 1.2016-.55045zm-5.6219.49474c3.8252-1.8466 16.055-4.8974 6.214-7.933-2.4076.51082-8.5056 8.502-4.3115 2.2892 1.5804-4.2618 8.2134-3.2946 7.9918-7.4485-6.8503-.38411-10.169 8.0084-12.042 13.345.41796.93843 1.6883-.13513 2.1475-.25234zm-22.94-3.1093c1.8196-3.7571-3.4234 1.0907 0 0zm3.4267-2.1299c2.5104-4.276 14.693-9.2401 5.9886-13.612-2.796 2.6516 4.3318 6.5445-1.8963 7.6558-2.9571-.78301-8.8526 10.887-4.0924 5.9562zm-8.8442-4.7376c3.8966-5.7359-.31856-12.449-6.4417-12.95.51501 5.3582 2.1245 9.8612 4.9627 14.465.76311-.0163 1.0046-1.1017 1.479-1.5156zm-12.712-1.6009c-.91141-2.5965-3.3965-4.8051-1.0908-.7916 1.165 2.8554 3.3078 5.19 1.0908.7915zm43.846.18794c1.6978-3.993-9.8678-6.2275-4.5144-1.1676 1.2223.73643 3.0654 2.0275 4.5144 1.1676zm-45.857 10.835c-1.351-2.5707 3.0278-2.876-.0127-.9958.0608.48271 1.1626 3.1868.0127.9958zm6.7656-1.6324c1.9668-.26073 1.8837.32223 0 0zm1.1954-1.5897c3.5569-.0891.46029.17391 0 0z" style="fill:#9d511f;stroke-width:.26458"/><path d="m129.09 216.15c-8.5026-1.14-17.462-3.6139-23.949-9.4627-2.0592-2.9776 5.7727.7971 3.2125.73238 6.8836 3.3256 14.248 6.3273 21.904 7.008-1.157-2.4671 4.2841 4.0138-.028 1.8161l-1.1398-.0938zm6.4138.18878c1.236-4.618 8.5438.0838 12.651-2.5234 6.1367-.473 11.171-5.2955 14.816-8.2205.42036 3.6036-8.8078 8.5027-13.56 9.5094-4.5321 1.3781-9.266.87927-13.907 1.2345zm-8.5332-7.416c-4.962-3.0888 4.9986 2.5576 0 0zm15.349.18331c2.848-.35026-.28348.44173 0 0zm1.7994-1.6382c5.7996-4.5597 13.328-6.6249 20.508-7.9297 7.9204.0925-2.3847 6.1458-5.7161 6.0958-4.7786 1.1888-9.9365 2.2603-14.792 1.834zm-26.739-.44578c-5.6943-.94803-12.037-1.833-16.523-5.68.57302-4.0065 8.606 1.8333 11.761 2.305 1.2135.55152 11.828 4.6912 4.7616 3.375zm4.3656-1.0362c-3.5098-2.2978 4.2504 2.1716 0 0zm-2.3812-1.0583c-1.6624-1.414 2.9532 1.4829 0 0zm-36.976-.57926c2.2687-.25738.09749.42605 0 0zm34.594-.47907c-2.9086-2.0399 4.1109 2.0883 0 0zm-27.318.20547c2.3092-.25282 2.2431.31127 0 0zm56.687.0727c2.1394-1.5999 2.0859-.57768 0 0zm-69.003-.72797c-1.3207-1.9343 2.5188 1.426 0 0zm20.188-.26808c3.9128-1.197-1.9941-8.3203 1.8168-2.816 1.2637 1.3475-2.6154 4.212-1.8168 2.816zm14.42-1.3988c-1.6624-1.414 2.9532 1.4829 0 0zm23.891-.59376c3.8544-.16021 5.8842.19533.52796.0838l-.8188-.0197.29094-.0641zm18.707-.28764c2.6945-1.3073.43728.47991 0 0zm-24.805-1.2854c2.2687-.25738.0975.42605 0 0zm6.107-.14092c3.8108-.17665-2.497.86401 0 0zm-8.0882-.12841c2.848-.35024-.28346.44169 0 0zm14.086.0902c1.3505-1.5078 10.537-9.4122 5.1316-4.7922-2.7235 1.1057-2.8276 5.5204-3.478 4.8414l-1.1679.005-.48573-.0544zm-16.864-.35754c3.5164-.35701-.26455.43401 0 0zm9.7198.002c-2.482-4.143-5.7416-6.5211-10.248-3.5399-4.5241 3.1377-8.1033-.87262-11.971-1.61-6.3677.91494 5.6716 4.4144-1.0396 2.469-3.2551-1.9572 4.5877-5.3402 4.8045-1.1136 4.8916 4.4347 11.145-4.3447 15.48-.3819-.15282 1.2391 4.8125 4.9619 2.975 4.1764zm17.485.0873c4.1482-2.5456 3.0222-.74703 0 0zm-29.589-.34651c2.2687-.25738.0975.42606 0 0zm-11.708-1.1405c-2.6209-1.8419 3.9129 1.9106 0 0zm27.851.3393c3.5164-.35704-.26457.43405 0 0zm11.307.13312c2.77-1.3578 2.8618-.33573-3e-5 0zm-55.959-1.1662c-3.286-2.1462 5.2189 2.5371 0-4e-5zm72.364.85383c2.8292-.69953 2.3447.44153 0 0zm-68.262-1.0704c.68008-1.7747.34155 1.3448 0 0zm55.642-.17277c3.7369-2.0404-5.8036-5.1207.003-2.6473 4.8381 1.344-2.7148 4.2518-.003 2.6473zm-46.977-.91742c-6.3616-3.3596 4.5737 1.7976 1.4671.74639l-.62376-.31647-.8434-.42992zm-16.47-.23088c-3.5876-2.0629 4.6163 2.0641 0 0zm69.649-.14852c3.7039-1.8374-1.4749 1.4812 0 0zm-24.354-.65937c1.7712-2.9562-1.2734 3.1867 0 0zm-16.122.47101c2.848-.35027-.28348.44173 0 0zm2.3697-.87684c3.1722-2.7691-2.305 2.4262 0 0zm10.063-.37857c-1.9806-2.4282.34281-2.0391.57914.32925 3.5475 1.1972-1.0934-4.7562 2.0734-.63643-.29432 1.9601-1.7068 1.5402-2.6526.30718zm13.56.25191c3.4902-3.327-2.869 3.2858 0 0zm12.568.73575c3.6902-2.4113-.68538.97009 0 0zm9.3266-.0825c1.9099-1.7563-.57928.92973 0 0zm-80.367-.69371c-3.1018-1.1984-9.1385-4.2926-2.6525-1.4918 1.0424.31087 6.7794 3.2809 2.6525 1.4918zm28.539-1.6896c-2.0613-2.991 2.8219 2.8812 0 0zm44.705-.0502c1.5121-.35333.89628.88671 0 0zm-24.296-.16388c-2.8678-2.1385.29378-.88358 0 0zm-58.568-2.4521c-2.1389-2.5213-4.3326 1.3307-3.1245-1.5812 2.5225.59757 8.7533 4.4688 3.1246 1.5812zm28.131-1.2235c-.33329-4.0892-11.324 1.8553-4.2228-1.3104 3.9637-.75978 2.7872-8.8688.0669-8.1778 5.7199 2.2094 3.7437-9.0311 8.5215-11.384 6.5623-8.0663 17.724-11.287 27.689-8.6731 5.1651-.4922 13.124 8.2907 15.441.29753.34472-5.4134.93658 1.8504-2.0013 3.8389 1.2846 3.3394 7.3919 5.9196 8.6048 10.974 2.6327 4.3328 3.2092 9.753 6.5518 13.62-5.0393-.20227-11.597.90517-17.327.44206-14.057-.0725-28.109.49611-42.161.64515l-1.1618-.27228zm29.115-1.6764c9.0677-.5073 18.254.41405 27.251-.26927-.0474-14.333-13.731-24.627-27.04-26.076-10.468-1.9721-21.965 2.9925-26.685 12.766-3.6195 5.6433-4.582 16.396 5.179 14.168 7.1021.11356 14.203-.28646 21.295-.58878zm12.766-2.7161c-8.0935-3.7966 10.195-4.9661 3.6526.2845-1.1462.66713-2.4859-.12317-3.6526-.2845zm3.9633-1.8067c-2.9692-1.6557-7.4321.87522-1.5245 1.2482.67485.001 1.5096-.50561 1.5245-1.2482zm-34.986-.21518c-2.8516-.5673-9.6479-4.3051-3.3216-5.2272 3.629-.90063 9.5745 5.1324 3.3216 5.2272zm1.4713-1.3779c-.74757-4.0929-10.76-2.6638-3.3779-.6087.93247.0213 2.929 2.021 3.3779.6087zm10.855.55956c-2.7404-3.3906 4.0646-10.277 4.4243-4.0126-.8057 2.2813-.53332 7.0545-4.4243 4.0126zm3.359-2.8902c1.1396-6.955-6.4668 3.1207-.90181 2.8898.59443-.85587.69334-1.9054.90181-2.8898zm6.8039-.39687c-1.975-6.0744 6.4301-4.8225 3.7175.44394-1.4367 3.4076-4.2229 4.6453-3.7175-.44394zm2.1153 1.5897c2.8545-3.569-2.0893-7.4071-1.318-1.3913-.0229.91232.0432 3.8831 1.318 1.3913zm10.289-.76432c-7.2258-2.6924 2.9309-6.4697 4.5206-1.2763-.25042 1.9217-3.1928 1.7518-4.5206 1.2763zm3.0636-.85804c-.0549-2.8164-8.4112-2.1128-2.198.0719l.76937.10851 1.4286-.18037zm-32.369-3.4934c-2.7511-5.1431 10.238-6.1938 3.5944-.8757-.96048.55209-2.6322 2.4932-3.5944.8757zm2.8584-1.2936c5.4695-3.2714-4.1479-3.2851-1.8268.87104.71876.28927 1.2198-.8507 1.8268-.87104zm10.782-1.3219c-1.1778-4.9405 7.2511-6.7047 4.5561-.90472-1.2283.78193-3.1638 1.6651-4.5561.90472zm2.9197-.88303c4.8033-4.5382-4.954-2.4252-.97407.27459l.97406-.27465zm8.7874.57107c-6.4019.0506-1.9758-8.9347 1.4878-3.3745 1.9412 1.2076 1.3699 5.1984-1.4878 3.3745zm1.8719-1.2001c-1.8814-4.3878-7.5737-.69841-1.3246.24865.15751-.13733 1.2265.31874 1.3246-.24865zm-31.894-1.0656c-3.3856-5.4147 10.558-6.013 4.5767-1.4017-1.3828.51014-3.1757 3.0453-4.5767 1.4017zm3.2961-1.4901c5.7396-3.5087-6.0067-1.7755-1.8978 1.0004l.68058-.31136 1.2171-.689zm12.061-2.2646c-5.8277-10.288 9.3766-.12242 0 0zm1.5221-.72669c2.0192-3.5914-5.4216-3.6971 0 0zm-42.135 21.535c-1.6464-.76674 3.5025.72493 0 0zm-5.9531-1.7291c-1.9342-1.0896 3.5312 1.3102 0 0zm-4.4318-.27431c-2.4508-1.7468 2.7456 1.3332 0 0zm.59531-1.2648c-3.0412-1.2105-10.167-4.8851-10.338-6.151 2.8246 3.0836 11.908 6.0844 12.191 6.9442l-.85607-.35686-.99681-.43638zm13.279-5.6438c-5.3247-2.1908 6.5997 2.0198 0 0zm-3.9688-1.3229c-3.3236-1.6567 4.1644 1.3665 0 0zm-20.35-1.6714c.13514-2.3207.13513 2.3207 0 0zm17.655.52917c-2.776-1.8354 3.7511 1.635 0 0zm-6.4823-2.6649c-2.1835-1.3536 4.2112 1.7544 0 0zm-3.5719-1.5316c-3.1973-2.2643-13.571-5.8706-5.4241-3.2543 1.3702.84739 11.178 5.9117 5.4241 3.2543zm25.4-2.4471c.7478-.52894 3.1391-2.4083.36178.14848l-.36182-.14847zm-1.7198-.50016c-1.1951-.78355 3.0236.78658 0 0zm-4.0514-1.2391c-3.3236-1.6567 4.1644 1.3665 0 0zm9.0183-.8776c.13515-2.3207.13511 2.3207 0 0zm-11.753-.12782c-2.6862-1.6262-10.357-3.6496-9.6145-5.9078 4.0915.0535 3.3793-.0758-.10496.52625 1.0855 1.8238 12.238 5.7183 9.7195 5.3816zm9.5644-4.357c-1.5433-5.4233 1.1448 1.152.0388 1.1119l-.0388-1.1119zm1.9514-.52175c1.0527-4.0282.0781 1.858 0 0zm-13.805-1.2757c3.5811-.15635 6.9624.15338 1.5511.0858-.36262-.002-2.9469-.004-1.5511-.0858zm8.7446-.25728c1.9668-.26073 1.8837.32223 0 0zm6.35.007c2.2687-.25742.0974.42606 0 0zm2.4-.46943c-.13495-2.9477.38061-2.7221.47202.13137-.0897.24418-1.4267.46268-.47202-.13137zm40-1.994c-1.1951-.78355 3.0236.78658 0 0zm-41.09-2.4342c-1.8804-5.0409 2.2958 4.5105 0 0zm41.288.66428c2.2687-.2574.0975.42609 0 0zm-3.3042-.53391c2.848-.35026-.28348.44173 0 0zm-66.013-.53189c3.5164-.35701-.26455.43401 0 0zm61.777.003c3.3402-.32443-.0535.42295 0 0zm-62.971-1.5958c3.6964-.23056 3.6606.28241 0 0zm38.368-.52124c2.848-.35027-.28347.44173 0 0zm-5.1625-.25985c2.2687-.25742.0975.42606 0 0zm10.451-.54051c3.0004-.24021 2.9546.29465 0 0zm-15.892-1.885c-1.3572-2.0957-5.5506-9.4598-1.8236-3.7129-.46529.93371 4.3386 5.0496 1.8236 3.7129zm-5.0882-7.777c-2.4582-2.7223 3.2324 3.1764 0 0zm-1.9719-1.5608c-3.8978-3.1351 2.0884 1.1537 0 0zm-21.431-31.62c1.5141-2.2004 1.2606-.7163 1e-5 0zm-16.404-11.335c-1.6624-1.4139 2.9533 1.4829 0 0z" style="fill:#592710;stroke-width:.26458"/><path d="m132.73 216.44c-4.1103-7.1855-12.424-7.5161-19.907-8.5112-5.9339-1.0863-11.293-5.5067-17.44-2.5369-6.3665.65638-13.25 1.682-19.349-.6065-2.7261-6.7479-3.1619-14.217-4.9972-21.243-1.554-7.634-2.4053-15.405-3.9117-23.029-1.9045-2.3468-9.2093-.85901-5.1263-5.8414 4.449-5.0242 5.6703-12.919 12.545-16.417 3.9795-2.7152 11.174-2.7668 7.9881-9.3375-.74712-7.0236-2.7683-13.826-3.7729-20.792-4.5638-3.5631-10.978-3.4089-16.354-5.1933-6.9677-.32168-.35218-10.672 3.8395-5.0477 5.022 2.3397 10.785 3.4909 15.446 6.234 3.602 8.9828 4.3693 18.75 6.6165 28.107 2.5777 3.9913 10.167 3.7616 13.663 8.0593 4.4768 4.2124 6.2777 11.179 13.82 9.8058 9.5222.99264 19.081 1.7042 28.438 3.8711 4.6857.43301 15.233.6476 9.6754 7.8082-3.0428 5.4329-3.4651.26662-.67286-2.2319 1.5631-5.137-9.2342-3.1728-12.683-4.8679-10.293-1.7835-20.726-3.4882-31.188-3.3439.18872 3.4664 3.9962 8.3304-1.9556 8.5839-.93063 3.2792 2.0901 10.898-1.1208 11.828-4.66-3.8554-11.905-4.1007-17.097-7.6494-5.1874-4.001-11.391-5.175-17.846-4.832-6.424.55437 2.9098 8.2946 5.9316 9.0097 8.1069 3.98 16.771 6.6066 25.391 9.1847 4.8261 4.6622-8.4965-1.1479-10.967-1.7092-7.1965-2.6575-14.179-5.8571-20.84-9.6438-1.6155 5.2501.96176 13.505 7.6054 15.204 6.5087 3.3876 13.715 5.1248 20.797 6.7868 1.7902-1.9823 9.2353-.77634 3.3137.0834-1.5732.71881.11883 2.7527-2.0916 3.4177 4.9414 2.4293 9.6851 2.9688 14.488.14614 3.634 6.4068 10.703 1.5456 15.432-.63428 5.3849-2.5768 5.9087 2.8616 5.0279 6.2824 7.1763 4.2238 9.854-6.291 16.365-5.6179 3.3484.42849 6.8965 5.4229 8.9376.83077 3.5578 2.3141 10.058 3.6129 6.8601-2.8238-1.6045-2.3262-4.0253-5.7655.43271-2.3378 4.8856 4.327.56699 9.7529 1.3877 15.146-4.6646 3.7754-11.241 4.4621-16.975 6.0712-5.1873.84228-11.716-.4755-15.172 4.5868-1.2562 1.5424-1.8364 4.5323-4.5343 3.2003zm2.8933-3.0873c6.1932-7.8124 15.613-11.957 25.086-14.237 2.6188-.79296 12.113-1.5265 4.3897-2.9213-5.4696-3.7419-10.01 3.0884-15.75 3.6158-12.232 2.7158-25.12 1.2839-37.119-1.9004-4.3436-1.5276-11.061-7.678-13.69-.93169 11.47 4.2322 23.969 7.4731 33.311 15.779 1.3264 1.809 2.3766 3.2825 3.7723.59588zm12.88-5.8962c6.5542-.78877 13.773-1.652 19.037-5.9502-.48198-4.8116-9.6836.0601-13.145.65294-2.2718 1.0042-11.738 4.0937-8.897 5.4898 1.0032-.0358 2.0039-.11657 3.0046-.19248zm-28.499-.24283c-5.5624-3.3565-11.914-5.402-18.087-7.4238-4.0305 2.0292 5.6317 5.3186 8.1842 5.8687 3.2043.67435 6.7597 1.5648 9.9028 1.5551zm-26.622-3.2251c5.6858 1.8006 8.2799-6.2268 1.9534-6.7478-6.9922-2.8724-13.902-5.9741-20.765-9.1103-.14482 4.3421 1.1958 11.337 3.5346 15.553 4.9518 1.3652 10.219.43964 15.277.30474zm43.842-4.4832c-4.8327-.7949-6.338-9.465-11.911-4.3679-3.932 1.3682-8.814 2.3268-11.076-2.1695-4.6874.7089-4.49 4.1895.29205 4.2394 7.4126 1.6055 15.097 3.1637 22.695 2.298zm8.8635-.27368c3.3347-.42578 14.102-3.466 6.1339-6.0223-4.4069-1.9286-8.2239 4.632-9.942 6.29 1.2742.0287 2.5478-.0886 3.808-.26763zm-47.94-4.6044c5.661-6.9173-5.5542-5.4718-9.7332-7.7858-5.6386-1.4414-10.625-5.8633-16.057-6.8369-.95121 7.7148 7.7788 8.9712 13.014 11.567 3.8524.73752 9.2013 5.5716 12.776 3.056zm36.151-.2079c2.0262-3.7249-7.2242-2.4531-1.4121.17674.35134.50827 1.2175.42669 1.4121-.17674zm-28.657-26.333c.64063-4.9525.44534-11.622-6.3617-8.9016-4.401.47206-10.474-.31096-13.868.94118 5.9471 4.0644 12.944 6.3552 19.798 8.3855l.30631-.13319.12606-.29201zm-24.509-10.443c9.3448-.0947 18.747.24856 28.051-.579-1.761-6.1727-11.459-2.0667-16.382-3.2884-8.7901.21124-17.607-.32658-26.377.0449-4.9779-.11985-4.913 5.2734.25191 3.8098 4.822.27009 9.6342.1534 14.456.0126zm16.476-5.6658c3.6644-.1978 11.398 1.2506 7.2696-4.8312-4.647-7.2937-13.937-13.566-22.84-10.531-6.4333 2.111-13.002 6.6246-14.851 13.471 4.2221 4.1646 12.481 1.451 18.251 2.1443 4.0567-.0874 8.1139-.17007 12.17-.25272zm-10.651-18.712c-1.4639-7.8011-2.9205-15.599-4.4115-23.393-5.0268-2.999-.0088 7.9399-.02416 10.851 1.9396 3.6509-.36812 12.971 4.1934 12.936l.2423-.39278zm-5.0046-25.415c-.96082-5.8295-3.4955 2.557 0 0zm-2.9044-2.5157c2.6898-1.285-5.5195-2.8229-7.4374-4.2805-3.0526-.87174-11.202-5.8936-10.456.0851 4.9453 1.5652 12.187 3.3386 15.932 3.909-.36272 1.4063 1.5298.51442 1.9616.28639zm77.078 63.28c-2.3792-2.6439 3.1351 3.0433 0 0z" style="fill:#0e0909;stroke-width:.26458"/></g></g></svg>
