<?xml version="1.0" encoding="UTF-8"?>
<!-- Created with Inkscape (http://www.inkscape.org/) -->
<svg width="125.2mm" height="82.678mm" version="1.1" viewBox="0 0 443.62 292.95" xmlns="http://www.w3.org/2000/svg" xmlns:cc="http://creativecommons.org/ns#" xmlns:dc="http://purl.org/dc/elements/1.1/" xmlns:rdf="http://www.w3.org/1999/02/22-rdf-syntax-ns#">
 <metadata>
  <rdf:RDF>
   <cc:Work rdf:about="">
    <dc:format>image/svg+xml</dc:format>
    <dc:type rdf:resource="http://purl.org/dc/dcmitype/StillImage"/>
   </cc:Work>
  </rdf:RDF>
 </metadata>
 <g transform="translate(-1007.4 -546.63)">
  <g transform="translate(820.35 -206.65)">
   <path d="m458.75 1012.1c5.4388-2.5808 13.392-15.457 13.392-21.682 0-4.4072-3.9963-8.9704-11.146-12.728-9.3015-4.8878-11.469-7.3301-7.5964-8.5592 2.3997-0.7617 9.3747 2.4195 22.313 10.177 19.236 11.533 21.324 12.048 27.229 6.7132 4.2664-3.8544 9.5913-14.135 10.223-19.736 0.4358-3.8665 0.33056-4.0438-4.585-7.7219-2.7671-2.0705-11.967-7.7443-20.444-12.608-8.4772-4.8642-15.836-9.5137-16.352-10.332-1.3845-2.1949 0.92163-4.458 4.5426-4.458 2.9713 0 4.2404 0.6862 26.599 14.383 11.888 7.2825 21.184 11.867 24.062 11.867 5.7546 0 16.405-15.712 16.405-24.201 0-6.9623-4.9995-10.8-34.179-26.235-7.7125-4.0798-14.438-8.0762-14.946-8.8808-1.4349-2.2749 0.984-4.4327 4.969-4.4327 4.3638 0 14.409 4.7942 25.107 11.983 17.749 11.926 22.537 13.507 28.936 9.5528 5.6052-3.4642 12.327-16.434 11.194-21.597-0.61789-2.8132-5.2065-7.4631-9.3616-9.4867-1.5469-0.75333-15.047-8.5686-30-17.367-37.161-21.866-68.42-39.654-79.87-45.449l-9.5577-4.8376-3.8591 2.6744c-5.9827 4.146-8.0902 7.2036-8.8237 12.802-1.1638 8.8819-5.2501 28.758-7.6382 37.152-2.6477 9.3069-5.2406 12.333-12.249 14.295-10.723 3.0024-37.034-3.6643-45.49-11.526-7.2159-6.7093-7.7089-15.301-2.2456-39.133 5.2147-22.748 10.46-41.243 12.476-43.991 0.97472-1.3286 7.0946-6.0116 13.6-10.407 6.5051-4.3951 12.106-8.2698 12.447-8.6105 1.4865-1.4865-11.929-6.8834-16.085-6.4709-0.57519 0.0571-9.6455 5.7227-20.156 12.59-24.387 15.934-40.108 25.548-47.282 28.915l-5.6718 2.662-13.078-3.2247c-10.883-2.6833-56.524-15.556-72.87-20.552l-4.4798-1.3692-2.2016 4.3694c-8.784 17.434-17.908 51.759-20.224 76.088-1.364 14.326-1.7204 55.846-0.48981 57.07 0.75855 0.75446 31.668 9.7172 74.728 21.669l6.2906 1.746 3.2976-4.59c1.8137-2.5245 4.9874-5.7083 7.0526-7.075 3.2487-2.1499 4.484-2.4289 9.1618-2.0698 6.2882 0.4827 13.272 3.5747 21.312 9.4355l5.5924 4.0767 5.4368-5.8119c7.614-8.1394 10.477-9.347 18.871-7.9607 7.0217 1.1596 13.918 3.7959 16.839 6.4369 0.97605 0.8827 2.6254 3.2923 3.6651 5.3548 1.0398 2.0625 2.0221 3.8984 2.1831 4.0797 0.16092 0.1814 3.3298-1.1897 7.042-3.0468 5.5445-2.7738 7.7729-3.3765 12.483-3.3759 10.433 0 22.45 7.5637 27.113 17.063 1.3413 2.7322 2.632 5.6432 2.8684 6.4687 0.30103 1.0512 1.9856 1.6614 5.623 2.0368 10.209 1.0537 21.975 9.4796 26.478 18.962 3.3694 7.0944 2.7083 13.636-2.0929 20.711-2.824 4.1613-2.3711 5.6125 2.5327 8.1158 4.0182 2.0512 6.7127 2.0703 10.913 0.077z" fill="#3abbba" fill-opacity=".79608"/>
   <path d="m414.42 1041.3c6.8242-6.8242 24.907-43.24 24.907-50.158 0-3.9357-2.1081-7.6163-6.5308-11.402-5.5416-4.7434-14.333-6.8442-18.75-4.4804-0.94597 0.50627-8.0901 11.833-15.876 25.17-12.227 20.945-14.156 24.792-14.156 28.235 0 5.3846 3.3521 8.4126 12.836 11.595 8.4298 2.8289 15.37 3.2402 17.569 1.0411zm-38.374-25.005c9.1378-12.107 30.922-47.898 30.826-50.647-0.11389-3.2771-5.3014-10.962-9.2052-13.637-5.2923-3.6263-18.644-4.957-22.613-2.2537-0.54581 0.37167-7.1903 12.23-14.766 26.351-16.029 29.88-16.238 30.654-9.7888 36.197 4.115 3.5371 18.264 10.982 19.922 10.483 0.51562-0.1553 3.0469-3.0772 5.625-6.4932zm-38.123-17.667c3.7581-1.3101 9.0872-9.2376 18.454-27.451 4.4161-8.5875 7.0132-14.747 7.0132-16.632 0-6.2094-12.946-14.892-22.204-14.892h-4.9613l-13.24 19.828c-12.629 18.913-13.217 20.002-12.736 23.591 0.27759 2.0696 1.3068 4.854 2.2872 6.1878 2.2647 3.081 10.56 7.6156 16.636 9.0938 6.06 1.4744 5.3754 1.4528 8.752 0.27569zm-34.383-23.585c4.3641-4.4608 10.89-14.073 11.673-17.193 0.66079-2.6328-2.3459-8.4514-6.3508-12.29-4.1991-4.0251-9.0461-5.9069-15.214-5.9069-6.2576 0-8.9245 1.9678-15.654 11.551-5.2051 7.4118-5.8294 11.089-2.7332 16.099 3.4238 5.5398 14.049 11.629 20.396 11.688 3.475 0.0325 4.4846-0.47293 7.8834-3.947zm268.08-38.097c28.323-7.3838 51.621-13.958 52.46-14.804 2.8063-2.8273 4.2086-57.255 1.8881-73.286-2.1242-14.675-8.5096-33.497-18.441-54.355-4.9026-10.297-6.2438-12.403-7.6227-11.969-0.92032 0.28971-19.062 4.9523-40.316 10.361l-38.643 9.8345-26.982-16.281c-14.84-8.9543-32.226-19.279-38.635-22.944l-11.653-6.6634h-18.902l-6.0837 4.104c-3.346 2.2572-14.505 10.48-24.797 18.273-21.475 16.26-19.078 12.599-24.333 37.154-4.2183 19.71-5.5707 30.433-5.0618 40.13 0.5104 9.7244 1.7088 11.787 8.8906 15.301 4.7008 2.2999 6.4588 2.6325 13.863 2.6231 5.7704-7e-3 9.5819-0.49801 11.931-1.5357 3.1572-1.395 3.6471-2.1501 5.7505-8.8653 1.2646-4.0372 4.0927-15.628 6.2846-25.758l3.9852-18.417 10.159-7.1297c5.5873-3.9213 10.421-7.1297 10.741-7.1297 1.6391 0 126.07 72.148 129.03 74.812 8.2881 7.4716 9.5498 17.939 3.5799 29.701-4.0474 7.9741-10.753 15.246-14.807 16.056l-3.0152 0.60302v7.9519c0 6.3315 0.26062 7.8518 1.279 7.4611 0.70343-0.26994 9.4573-2.6229 19.453-5.2287z" fill="#ff681e"/>
  </g>
 </g>
</svg>
