<?xml version="1.0" encoding="UTF-8"?>
<!-- Created with Inkscape (http://www.inkscape.org/) -->
<svg width="698.55pt" height="489.37pt" version="1.1" xmlns="http://www.w3.org/2000/svg" xmlns:cc="http://creativecommons.org/ns#" xmlns:dc="http://purl.org/dc/elements/1.1/" xmlns:rdf="http://www.w3.org/1999/02/22-rdf-syntax-ns#">
 <metadata>
  <rdf:RDF>
   <cc:Work rdf:about="">
    <dc:description/>
    <dc:subject>
     <rdf:Bag>
      <rdf:li/>
      <rdf:li>people</rdf:li>
      <rdf:li>friends</rdf:li>
      <rdf:li>business</rdf:li>
      <rdf:li>handshake</rdf:li>
     </rdf:Bag>
    </dc:subject>
    <dc:publisher>
     <cc:Agent rdf:about="http://www.openclipart.org">
      <dc:title>Nathan Eady</dc:title>
     </cc:Agent>
    </dc:publisher>
    <dc:creator>
     <cc:Agent>
      <dc:title>Nathan Eady</dc:title>
     </cc:Agent>
    </dc:creator>
    <dc:rights>
     <cc:Agent>
      <dc:title>Nathan Eady</dc:title>
     </cc:Agent>
    </dc:rights>
    <dc:date/>
    <dc:format>image/svg+xml</dc:format>
    <dc:type rdf:resource="http://purl.org/dc/dcmitype/StillImage"/>
    <cc:license rdf:resource="http://web.resource.org/cc/PublicDomain"/>
    <dc:language>en</dc:language>
   </cc:Work>
   <cc:License rdf:about="http://web.resource.org/cc/PublicDomain">
    <cc:permits rdf:resource="http://web.resource.org/cc/Reproduction"/>
    <cc:permits rdf:resource="http://web.resource.org/cc/Distribution"/>
    <cc:permits rdf:resource="http://web.resource.org/cc/DerivativeWorks"/>
   </cc:License>
  </rdf:RDF>
 </metadata>
 <g transform="translate(15.273,-24.217)" stroke-opacity="0">
  <path d="m50.896 186.07c53.272-5.429 106.54-10.858 159.81-16.287 8.1434-5.0896 16.287-10.179 24.43-15.269 18.662-7.4648 37.324-16.965 55.986-24.43 16.626-10.179 29.938-22.145 46.825-25.448 19.363-3.7874 47.503-2.3752 68.201 7.1255 43.771 63.112 87.542 126.22 131.31 189.33l108.92 107.9c15.608 21.037 13.749 54.429 4.0717 69.219-8.3059 12.694-38.681 21.037-58.022 13.233 1.3572 17.305-2.3752 37.663-11.197 48.861-11.876 7.8041-32.913 14.59-47.843 11.197 4.0717 14.59-2.6998 34.923-12.215 43.771-9.8253 9.1358-23.412 14.93-45.807 10.179-1.3572 7.4648-1.2512 17.05-6.2311 21.675-9.2711 8.6089-23.628 12.256-36.522 18.025-183.23-96.024-249.39-97.382-341.01-115.03-13.233-100.77-27.484-243.28-40.717-344.06z" fill="#66320a" fill-opacity=".99899" fill-rule="evenodd"/>
  <g fill-rule="evenodd">
   <path d="m211.62 507.43c-7.4983 8.2124-15.589 30.479-18.714 43.187-0.47401 1.9277 5.4333-1.4215 7.1978 0 6.153 8.4156 9.0527 13.085 18.714 20.874 4.7926 3.8637 9.9655 7.3634 15.115 10.797 7.0864 4.7242 14.091 9.6745 21.594 13.676 10.492 5.5957 19.81 14.505 32.39 15.115 18.827 16.368 29.78 22.929 51.824 28.791 4.5878 11.652 11.381 24.001 23.033 27.352 10.616 3.0526 28.439-0.98046 40.308-4.3187 10.813-3.0414 24.613-15.222 30.231-20.874 6.5245-6.5636 4.186-17.841 0-27.352-2.8222-6.4118-14.21-10.863-22.313-14.396 4.4828-5.5847 10.616-9.5868 10.797-15.115 0.40747-12.466-2.895-22.293-12.236-32.39-10.071-10.887-29.468-15.627-41.747-7.1978 0.76252-8.6692 2.3692-21.134-5.7583-30.231-12.351-13.825-26.43-19.422-44.627-18.714-29.594 1.1513-35.932 15.513-51.105 26.632-10.663 7.8145-28.864 16.353-36.709 15.115-2.2322-5.72-1.467-14.11-6.478-20.874-3.1204-4.2118-6.0587-7.143-11.517-10.077z" fill="#ffd8b4"/>
   <path d="m-15.269 149.42c74.987 6.7862 150.26 11.307 224.96 20.359 34.809 4.2174 30.441 173.5 21.376 257.54-7.2226 66.959-41.056 134.06-70.237 195.44-10.179 21.411-32.913 53.95-47.843 53.95-15.269 0-85.506-19.68-128.26-29.52v-497.77z" fill="#bcbcbc"/>
   <path d="m599.56 121.94-12.215 4.0717-5.0896 14.251 78.38 280.95 12.215 8.1434 7.1255 2.0359 8.1434-4.0717 7.1255-39.699-10.179-94.667-27.484-107.9-37.663-59.04-20.359-4.0717z" fill="#404f60"/>
  </g>
  <path d="m613.51 130.26c-12.215 3.0538-35.177 13.653-47.442 12.04-13.405-1.7625-38.751-9.3055-69.326-14.444-31.146-5.2345-47.217-16.093-75.322-17.235-32.549-1.3232-41.735 19.464-58.022 35.751-30.199 20.698-75.404 40.966-84.488 55.986-9.8479 16.283-25.109 54.289-25.448 69.219-8.4827 16.287-21.442 31.452-22.569 49.58-1.6472 26.499 32.134 29.732 46.999 23.71 10.885-4.4088 17.644-12.894 26.466-19.341 25.058-9.4795 42.198-39.113 60.058-65.147 18.57-5.9841 29.222-12.688 42.753-24.43 7.3413 7.5371 18.282 5.7171 28.502 1.0179-1.3796 17.397 83.615 54.228 103.83 65.147 35.504 37.365 70.288 69.692 107.95 106.34 1.3572 4.0717 5.5936 11.742 6.9508 15.814 5.429-3.0538 14.347-4.7691 18.446-9.1614 5.4012-5.787 8.1434-14.251 12.215-21.376 20.359-5.429 40.717-10.858 61.076-16.287-27.145-90.935-54.289-181.87-81.434-272.8-17.305 9.5007-33.89 16.122-51.195 25.623z" fill="#ffd8b4"/>
  <path d="m578.18 140.26c-1.0491-6.0252 5.0996-17.809 16.287-22.394 107.13-42.733 205.62-62.433 308.43-93.649l13.233 356.27c-112.95 19.042-160.76 33.046-234.12 54.968-4.2464-0.0923-15.691-7.0226-21.376-13.233 6.4469 2.0359 16.533 7.0737 19.341 6.1076 6.0353-2.0771 7.0131-22.337 6.1076-33.592-3.8448-47.785-7.3788-97.476-20.359-143.53-11.79-41.83-22.885-98.831-53.95-120.12-4.4956-3.0802-12.187-5.4135-17.305-3.897-4.0433 1.198-8.2258 6.1076-10.179 12.04l-6.1076 1.0179z" fill="#6e88a4" fill-rule="evenodd"/>
 </g>
</svg>
