<?xml version="1.0" encoding="UTF-8"?>
<svg width="700pt" height="490pt" version="1.1" xmlns="http://www.w3.org/2000/svg">
 <g transform="translate(15.9 -24)" stroke-opacity="0">
  <path d="m50.9 186c53.3-5.43 107-10.9 160-16.3 8.14-5.09 16.3-10.2 24.4-15.3 18.7-7.46 37.3-17 56-24.4 16.6-10.2 29.9-22.1 46.8-25.4 19.4-3.79 47.5-2.38 68.2 7.13 43.8 63.1 87.5 126 131 189l109 108c15.6 21 13.7 54.4 4.07 69.2-8.31 12.7-38.7 21-58 13.2 1.36 17.3-2.38 37.7-11.2 48.9-11.9 7.8-32.9 14.6-47.8 11.2 4.07 14.6-2.7 34.9-12.2 43.8-9.83 9.14-23.4 14.9-45.8 10.2-1.36 7.46-1.25 17.1-6.23 21.7-9.27 8.61-23.6 12.3-36.5 18-183-96-249-97.4-341-115-13.2-101-27.5-243-40.7-344z" fill="#66320a" fill-opacity=".999" fill-rule="evenodd"/>
  <g>
   <g fill-rule="evenodd">
    <path d="m212 507c-7.5 8.21-15.6 30.5-18.7 43.2-0.474 1.93 5.43-1.42 7.2 0 6.15 8.42 9.05 13.1 18.7 20.9 4.79 3.86 9.97 7.36 15.1 10.8 7.09 4.72 14.1 9.67 21.6 13.7 10.5 5.6 19.8 14.5 32.4 15.1 18.8 16.4 29.8 22.9 51.8 28.8 4.59 11.7 11.4 24 23 27.4 10.6 3.05 28.4-0.98 40.3-4.32 10.8-3.04 24.6-15.2 30.2-20.9 6.52-6.56 4.19-17.8 0-27.4-2.82-6.41-14.2-10.9-22.3-14.4 4.48-5.58 10.6-9.59 10.8-15.1 0.407-12.5-2.9-22.3-12.2-32.4-10.1-10.9-29.5-15.6-41.7-7.2 0.763-8.67 2.37-21.1-5.76-30.2-12.4-13.8-26.4-19.4-44.6-18.7-29.6 1.15-35.9 15.5-51.1 26.6-10.7 7.81-28.9 16.4-36.7 15.1-2.23-5.72-1.47-14.1-6.48-20.9-3.12-4.21-6.06-7.14-11.5-10.1z" fill="#ffd8b4"/>
    <path d="m-15.3 149c75 6.79 150 11.3 225 20.4 34.8 4.22 30.4 174 21.4 258-7.22 67-41.1 134-70.2 195-10.2 21.4-32.9 54-47.8 54-15.3 0-85.5-19.7-128-29.5z" fill="#bcbcbc"/>
    <path d="m600 122-12.2 4.07-5.09 14.3 78.4 281 12.2 8.14 7.13 2.04 8.14-4.07 7.13-39.7-10.2-94.7-27.5-108-37.7-59z" fill="#404f60"/>
   </g>
   <path d="m614 130c-12.2 3.05-35.2 13.7-47.4 12-13.4-1.76-38.8-9.31-69.3-14.4-31.1-5.23-47.2-16.1-75.3-17.2-32.5-1.32-41.7 19.5-58 35.8-30.2 20.7-75.4 41-84.5 56-9.85 16.3-25.1 54.3-25.4 69.2-8.48 16.3-21.4 31.5-22.6 49.6-1.65 26.5 32.1 29.7 47 23.7 10.9-4.41 17.6-12.9 26.5-19.3 25.1-9.48 42.2-39.1 60.1-65.1 18.6-5.98 29.2-12.7 42.8-24.4 7.34 7.54 18.3 5.72 28.5 1.02-1.38 17.4 83.6 54.2 104 65.1 35.5 37.4 70.3 69.7 108 106 1.36 4.07 5.59 11.7 6.95 15.8 5.43-3.05 14.3-4.77 18.4-9.16 5.4-5.79 8.14-14.3 12.2-21.4 20.4-5.43 40.7-10.9 61.1-16.3-27.1-90.9-54.3-182-81.4-273-17.3 9.5-33.9 16.1-51.2 25.6z" fill="#ffd8b4"/>
   <path d="m578 140c-1.05-6.03 5.1-17.8 16.3-22.4 107-42.7 219-61.8 322-93l-0.312 356c-113 19-161 33-234 55-4.25-0.0923-15.7-7.02-21.4-13.2 6.45 2.04 16.5 7.07 19.3 6.11 6.04-2.08 7.01-22.3 6.11-33.6-3.84-47.8-7.38-97.5-20.4-144-11.8-41.8-22.9-98.8-54-120-4.5-3.08-12.2-5.41-17.3-3.9-4.04 1.2-8.23 6.11-10.2 12z" fill="#6e88a4" fill-rule="evenodd"/>
  </g>
 </g>
</svg>
