<?xml version="1.0" encoding="UTF-8"?>
<svg width="289.08" height="361.35" version="1.1" viewBox="0 0 289.08 361.35" xmlns="http://www.w3.org/2000/svg"><desc>R SVG Plot!</desc><line x1="25" x2="25" y1="29.12" y2="340.56" style="fill-opacity:0;stroke:#000"/><line x1="25" x2="20.83" y1="29.12" y2="29.12" style="fill-opacity:0;stroke:#000"/><line x1="25" x2="20.83" y1="81.03" y2="81.03" style="fill-opacity:0;stroke:#000"/><line x1="25" x2="20.83" y1="132.94" y2="132.94" style="fill-opacity:0;stroke:#000"/><line x1="25" x2="20.83" y1="184.84" y2="184.84" style="fill-opacity:0;stroke:#000"/><line x1="25" x2="20.83" y1="236.75" y2="236.75" style="fill-opacity:0;stroke:#000"/><line x1="25" x2="20.83" y1="288.65" y2="288.65" style="fill-opacity:0;stroke:#000"/><line x1="25" x2="20.83" y1="340.56" y2="340.56" style="fill-opacity:0;stroke:#000"/><text x="7.9810143" y="33.429237" style="font-size:10px">-3</text><text x="8.1519127" y="84.889938" style="font-size:10px">-2</text><text x="8.0469322" y="136.76309" style="font-size:10px">-1</text><text x="9.6314049" y="188.90884" style="font-size:10px">0</text><text x="9.5459557" y="240.91406" style="font-size:10px">1</text><text x="9.8340416" y="292.65781" style="font-size:10px">2</text><text x="9.6484947" y="344.61176" style="font-size:10px">3</text><line x1="25" x2="253.35" y1="16.67" y2="16.67" style="fill-opacity:0;stroke:#000"/><line x1="25" x2="25" y1="16.67" y2="12.5" style="fill-opacity:0;stroke:#000"/><line x1="70.67" x2="70.67" y1="16.67" y2="12.5" style="fill-opacity:0;stroke:#000"/><line x1="116.34" x2="116.34" y1="16.67" y2="12.5" style="fill-opacity:0;stroke:#000"/><line x1="162.01" x2="162.01" y1="16.67" y2="12.5" style="fill-opacity:0;stroke:#000"/><line x1="207.68" x2="207.68" y1="16.67" y2="12.5" style="fill-opacity:0;stroke:#000"/><line x1="253.35" x2="253.35" y1="16.67" y2="12.5" style="fill-opacity:0;stroke:#000"/><text x="22.249981" y="9.1700001" style="font-size:10px">0</text><text x="67.919983" y="9.1700001" style="font-size:10px">5</text><text x="110.83998" y="9.1700001" style="font-size:10px">10</text><text x="156.50998" y="9.1700001" style="font-size:10px">15</text><text x="202.17998" y="9.1700001" style="font-size:10px">20</text><text x="247.84998" y="9.1700001" style="font-size:10px">25</text><polygon transform="rotate(90 144.54 144.54)" points="55.08 264.08 29.12 264.08 29.12 254.95 55.08 254.95" style="fill:#add8e6;stroke:#000"/><polygon transform="rotate(90 144.54 144.54)" points="81.03 264.08 55.08 264.08 55.08 245.81 81.03 245.81" style="fill:#add8e6;stroke:#000"/><polygon transform="rotate(90 14.775 274.3)" points="55.08 245.81 81.03 245.81 81.03 264.08 55.08 264.08" style="fill:#add8e6;stroke:#000"/><polygon transform="rotate(90 144.54 144.54)" points="106.98 264.08 81.03 264.08 81.03 218.41 106.98 218.41" style="fill:#add8e6;stroke:#000"/><polygon transform="rotate(90 144.54 144.54)" points="132.94 264.08 106.98 264.08 106.98 154.47 132.94 154.47" style="fill:#add8e6;stroke:#000"/><polygon transform="rotate(90 144.54 144.54)" points="158.89 264.08 132.94 264.08 132.94 172.74 158.89 172.74" style="fill:#add8e6;stroke:#000"/><polygon transform="rotate(90 144.54 144.54)" points="184.84 264.08 158.89 264.08 158.89 90.54 184.84 90.54" style="fill:#add8e6;stroke:#000"/><polygon transform="rotate(90 144.54 144.54)" points="210.79 264.08 184.84 264.08 184.84 17.47 210.79 17.47" style="fill:#add8e6;stroke:#000"/><polygon transform="rotate(90 144.54 144.54)" points="236.75 264.08 210.79 264.08 210.79 145.34 236.75 145.34" style="fill:#add8e6;stroke:#000"/><polygon transform="rotate(90 144.54 144.54)" points="262.7 264.08 236.75 264.08 236.75 209.28 262.7 209.28" style="fill:#add8e6;stroke:#000"/><polygon transform="rotate(90 144.54 144.54)" points="288.65 264.08 262.7 264.08 262.7 227.54 288.65 227.54" style="fill:#add8e6;stroke:#000"/><polygon transform="rotate(90 144.54 144.54)" points="314.61 264.08 288.65 264.08" style="fill:#add8e6;stroke:#000"/><polygon transform="rotate(90 157.54 131.54)" points="314.61 264.08 314.61 254.95 340.56 254.95 340.56 264.08" style="fill:#add8e6;stroke:#000"/><polyline transform="rotate(90 144.54 144.54)" points="16.67 264.08 353.02 264.08 353.02 8.33 16.67 8.33 16.67 264.08" style="fill-opacity:0;stroke:#000"/></svg>
