<?xml version="1.0" encoding="UTF-8"?>
<svg width="361.35" height="289.08" version="1.1" viewBox="0 0 361.35 289.08" xmlns="http://www.w3.org/2000/svg"><desc>R SVG Plot!</desc><rect width="100%" height="100%" style="fill:#fff"/><line x1="29.12" x2="340.56" y1="264.08" y2="264.08" style="fill-opacity:0;stroke:#000"/><line x1="29.12" x2="29.12" y1="264.08" y2="268.25" style="fill-opacity:0;stroke:#000"/><line x1="81.03" x2="81.03" y1="264.08" y2="268.25" style="fill-opacity:0;stroke:#000"/><line x1="132.94" x2="132.94" y1="264.08" y2="268.25" style="fill-opacity:0;stroke:#000"/><line x1="184.84" x2="184.84" y1="264.08" y2="268.25" style="fill-opacity:0;stroke:#000"/><line x1="236.75" x2="236.75" y1="264.08" y2="268.25" style="fill-opacity:0;stroke:#000"/><line x1="288.65" x2="288.65" y1="264.08" y2="268.25" style="fill-opacity:0;stroke:#000"/><line x1="340.56" x2="340.56" y1="264.08" y2="268.25" style="fill-opacity:0;stroke:#000"/><text transform="translate(24.96 279.91)" style="font-size:10">-3</text><text transform="translate(76.45 279.91)" style="font-size:10">-2</text><text transform="translate(128.35 279.91)" style="font-size:10">-1</text><text transform="translate(182.09 279.91)" style="font-size:10">0</text><text transform="translate(234 279.91)" style="font-size:10">1</text><text transform="translate(285.9 279.91)" style="font-size:10">2</text><text transform="translate(337.81 279.91)" style="font-size:10">3</text><line x1="16.67" x2="16.67" y1="264.08" y2="35.73" style="fill-opacity:0;stroke:#000"/><line x1="16.67" x2="12.5" y1="264.08" y2="264.08" style="fill-opacity:0;stroke:#000"/><line x1="16.67" x2="12.5" y1="218.41" y2="218.41" style="fill-opacity:0;stroke:#000"/><line x1="16.67" x2="12.5" y1="172.74" y2="172.74" style="fill-opacity:0;stroke:#000"/><line x1="16.67" x2="12.5" y1="127.07" y2="127.07" style="fill-opacity:0;stroke:#000"/><line x1="16.67" x2="12.5" y1="81.4" y2="81.4" style="fill-opacity:0;stroke:#000"/><line x1="16.67" x2="12.5" y1="35.73" y2="35.73" style="fill-opacity:0;stroke:#000"/><text x="2.3511524" y="267.29141" style="font-size:10px">0</text><text x="2.4658985" y="221.60434" style="font-size:10px">5</text><text x="-1.0497266" y="175.30055" style="font-size:10px">10</text><text x="-0.87882811" y="129.66962" style="font-size:10px">15</text><text x="-0.86662108" y="84.143654" style="font-size:10px">20</text><text x="-0.76164061" y="38.578632" style="font-size:10px">25</text><polygon points="29.12 264.08 29.12 254.95 55.08 254.95 55.08 264.08" style="fill:#ADD8E6;stroke:#000"/><polygon points="55.08 264.08 55.08 245.81 81.03 245.81 81.03 264.08" style="fill:#ADD8E6;stroke:#000"/><polygon transform="translate(259.53 -1.3428e-5)" points="81.03 245.81 81.03 264.08 55.08 264.08 55.08 245.81" style="fill:#add8e6;stroke:#000"/><polygon points="81.03 264.08 81.03 218.41 106.98 218.41 106.98 264.08" style="fill:#ADD8E6;stroke:#000"/><polygon points="106.98 264.08 106.98 154.47 132.94 154.47 132.94 264.08" style="fill:#ADD8E6;stroke:#000"/><polygon points="132.94 264.08 132.94 172.74 158.89 172.74 158.89 264.08" style="fill:#ADD8E6;stroke:#000"/><polygon points="158.89 264.08 158.89 90.54 184.84 90.54 184.84 264.08" style="fill:#ADD8E6;stroke:#000"/><polygon points="184.84 264.08 184.84 17.47 210.79 17.47 210.79 264.08" style="fill:#ADD8E6;stroke:#000"/><polygon points="210.79 264.08 210.79 145.34 236.75 145.34 236.75 264.08" style="fill:#ADD8E6;stroke:#000"/><polygon points="236.75 264.08 236.75 209.28 262.7 209.28 262.7 264.08" style="fill:#ADD8E6;stroke:#000"/><polygon points="262.7 264.08 262.7 227.54 288.65 227.54 288.65 264.08" style="fill:#ADD8E6;stroke:#000"/><polygon points="288.65 264.08 288.65 264.08 314.61 264.08 314.61 264.08" style="fill:#ADD8E6;stroke:#000"/><polygon transform="translate(-26)" points="314.61 254.95 340.56 254.95 340.56 264.08 314.61 264.08" style="fill:#add8e6;stroke:#000"/><polyline points="16.67 264.08 353.02 264.08 353.02 8.33 16.67 8.33 16.67 264.08" style="fill-opacity:0;stroke:#000"/></svg>
