<svg xmlns="http://www.w3.org/2000/svg" xmlns:xlink="http://www.w3.org/1999/xlink" viewBox="0 -1867.7 10046.4 2659.1" xmlns:v="https://vecta.io/nano"><style><![CDATA[.B{stroke-width:1}]]></style><defs><path id="A" d="M52 289q7 42 54 97 47 55 116 56 35 0 64-18 29-18 43-45 42 63 101 63 37 0 64-22 27-22 28-59 0-29-14-47-14-18-27-22-13-4-23-4-19 0-31 11-12 11-12 29 0 46 50 63-11 13-40 13-13 0-19-2-38-16-56-66-60-221-60-258 0-28 16-40 16-12 35-12 37 0 73 33 36 33 49 81 3 10 6 11 3 1 16 2h4q15 0 15-8 0-1-2-11-16-57-62-101-46-44-107-44-70 0-106 63-41-62-94-62h-6q-49 0-70 26-21 26-22 55 0 32 19 52 19 20 45 20 43 0 43-42 0-20-12-35-12-15-23-20-11-5-13-5l-3-1q0-1 6-4 6-3 16-7 10-4 19-3 36 0 62 45 9 16 23 68 14 52 28 108 14 56 16 66 5 27 5 39 0 28-15 40-15 12-34 12-40 0-75-32-35-32-49-82-2-9-5-10-3-1-16-2H58q-6 6-6 11z" class="B"/><path id="B" d="M56 347q0 13 14 20h637q15-8 15-20 0-11-14-19l-318-1H72q-16 5-16 20zm0-194q0 15 16 20h636q14-10 14-20 0-13-15-20H70q-14 7-14 20z" class="B"/><path id="C" d="M84 237T84 250T98 270H679Q694 262 694 250T679 230H98Q84 237 84 250Z" class="B"/><path id="D" d="M73 647q0 10 4 23 4 13 12 13 1 0 72 5 71 5 73 6 12 0 12-9 0-9-34-143-8-34-17-70-9-36-15-54l-4-19q0-3 6 3 49 40 101 40 62 0 100-46 38-46 39-116 0-111-79-201-79-90-170-90-50 0-91 38-41 38-42 123v9q0 21 8 58 8 37 49 197 50 197 50 209 0 12-38 14-5 0-8 0h-5q-10 0-13 0-3 0-7 3-4 3-3 7zm263-322v6q0 74-61 74-17 0-35-8-18-8-33-21-15-13-26-24-11-11-18-22l-6-8-21-86q-22-86-22-122 0-48 24-72 16-16 40-16 33 0 67 32 25 23 40 56 15 33 33 105 18 72 18 106z" class="B"/><path id="E" d="M56 320q0 0 0 13 0 13 14 20h299v149q0 149 2 153 5 11 17 11 14 0 17-12 3-12 4-58V353h298q15-8 15-20 0-13-15-20H409V40h298q15-8 15-20 0-12-15-20H70Q56 7 56 20q0 13 14 20h299v273H70q-14 7-14 20z" class="B"/><path id="F" d="M109 429Q82 429 66 447T50 491Q50 562 103 614T235 666Q326 666 387 610T449 465Q449 422 429 383T381 315T301 241Q265 210 201 149L142 93L218 92Q375 92 385 97Q392 99 409 186V189H449V186Q448 183 436 95T421 3V0H50V19V31Q50 38 56 46T86 81Q115 113 136 137Q145 147 170 174T204 211T233 244T261 278T284 308T305 340T320 369T333 401T340 431T343 464Q343 527 309 573T212 619Q179 619 154 602T119 569T109 550Q109 549 114 549Q132 549 151 535T170 489Q170 464 154 447T109 429Z" class="B"/><path id="G" d="M462 0q-18 3-129 3-116 0-134-3h-9v46h31q20 0 27 0 7 0 17 2 10 2 14 5 4 3 7 8 1 2 1 54v50H28v46l151 231q153 232 155 233 2 2 21 2h18l6-6V211h92v-46h-92v-51q0-41 0-48 0-7 6-12 8-7 57-8h29V0h-9zM293 211v334L74 212l109-1h110z" class="B"/><path id="H" d="M33 157q0 101 76 192 76 91 171 92 51 0 90-49 16 30 46 30 13 0 23-8 10-8 10-20 0-13-37-160-37-147-38-166 0-25 7-33 7-8 21-9 9 1 20 9 21 20 41 96 6 20 10 21 2 1 10 1h4q19 0 19-9 0-6-5-27-5-21-20-54-15-33-32-50-13-13-32-21-8-2-24-2-34 0-57 15-23 15-30 31l-6 15q-1 1-4-1-2-2-4-4-59-56-120-56-55 0-97 40-42 40-42 127zm318 171q0 6-5 22-5 16-23 35-18 19-46 20-35 0-67-31-32-31-50-81-29-79-41-164 0-3 0-11 0-8-1-12 0-45 18-62 18-17 43-18 38 0 75 33 37 33 44 51 2 4 27 107 25 103 26 111z" class="B"/><path id="I" d="M34 159Q34 268 120 355T306 442Q362 442 394 418T427 355Q427 326 408 306T360 285Q341 285 330 295T319 325T330 359T352 380T366 386H367Q367 388 361 392T340 400T306 404Q276 404 249 390Q228 381 206 359Q162 315 142 235T121 119Q121 73 147 50Q169 26 205 26H209Q321 26 394 111Q403 121 406 121Q410 121 419 112T429 98T420 83T391 55T346 25T282 0T202 -11Q127 -11 81 37T34 159Z" class="B"/><path id="J" d="M263 249q1 0 52-119 51-119 102-238 51-119 53-120l255 530q256 535 257 537 7 11 19 11 7 0 12-6 5-6 7-12v-6L741 243Q645 43 540-176q-61-127-71-148-10-21-16-24-4-2-17-2l-12 1L315-96Q206 156 205 156l-34-26q-33-26-34-26l-26 26 152 119z" class="B"/><path id="K" d="M78 60Q78 84 95 102T138 120Q162 120 180 104T199 61Q199 36 182 18T139 0T96 17T78 60Z" class="B"/></defs><g stroke="none" transform="scale(1 -1)"><use xlink:href="#A"/><use xlink:href="#B" x="850"/><g transform="translate(2026)"><path stroke="none" d="M0 220h7121v60H0z"/><g transform="translate(60 775)"><use xlink:href="#C"/><use xlink:href="#D" x="778"/><use xlink:href="#E" x="1430"/><g transform="translate(2430)"><use xlink:href="#J" y="94"/><path stroke="none" d="M1000 885h3569v60H1000z"/><g transform="translate(1000)"><use xlink:href="#D"/><use transform="scale(.707)" xlink:href="#F" x="607" y="408"/><use xlink:href="#C" x="1105"/><use xlink:href="#G" x="2106"/><use xlink:href="#H" x="2606"/><use xlink:href="#I" x="3136"/></g></g></g><g transform="translate(3045 -687)"><use xlink:href="#F"/><use xlink:href="#H" x="500"/></g></g><use xlink:href="#K" x="9767"/></g></svg>