<?xml version="1.0" encoding="UTF-8"?>
<svg width="266" height="266" version="1.0" xmlns="http://www.w3.org/2000/svg"><path d="m0 128h64v-64h-64z" style="fill:#0f0"/><path d="m64 128h64v-64h-64z" style="fill:#00f"/><path d="m32 64h64v-64h-64z" style="fill:#f00"/><path d="m138 128h32v-32h-32z" style="fill:#0f0"/><path d="m170 128h32v-32h-32z" style="fill:#00f"/><path d="m154 96h32v-32h-32z" style="fill:#f00"/><path d="m202 128h32v-32h-32z" style="fill:#0f0"/><path d="m234 128h32v-32h-32z" style="fill:#00f"/><path d="m218 96h32v-32h-32z" style="fill:#f00"/><path d="m170 64h32v-32h-32z" style="fill:#0f0"/><path d="m202 64h32v-32h-32z" style="fill:#00f"/><path d="m186 32h32v-32h-32z" style="fill:#f00"/><path d="m0 266h16v-16h-16z" style="fill:#0f0"/><path d="m16 266h16v-16h-16z" style="fill:#00f"/><path d="m8 250h16v-16h-16z" style="fill:#f00"/><path d="m32 266h16v-16h-16z" style="fill:#0f0"/><path d="m48 266h16v-16h-16z" style="fill:#00f"/><path d="m40 250h16v-16h-16z" style="fill:#f00"/><path d="m16 234h16v-16h-16z" style="fill:#0f0"/><path d="m32 234h16v-16h-16z" style="fill:#00f"/><path d="m24 218h16v-16h-16z" style="fill:#f00"/><path d="m64 266h16v-16h-16z" style="fill:#0f0"/><path d="m80 266h16v-16h-16z" style="fill:#00f"/><path d="m72 250h16v-16h-16z" style="fill:#f00"/><path d="m96 266h16v-16h-16z" style="fill:#0f0"/><path d="m112 266h16v-16h-16z" style="fill:#00f"/><path d="m104 250h16v-16h-16z" style="fill:#f00"/><path d="m80 234h16v-16h-16z" style="fill:#0f0"/><path d="m96 234h16v-16h-16z" style="fill:#00f"/><path d="m88 218h16v-16h-16z" style="fill:#f00"/><path d="m32 202h16v-16h-16z" style="fill:#0f0"/><path d="m48 202h16v-16h-16z" style="fill:#00f"/><path d="m40 186h16v-16h-16z" style="fill:#f00"/><path d="m64 202h16v-16h-16z" style="fill:#0f0"/><path d="m80 202h16v-16h-16z" style="fill:#00f"/><path d="m72 186h16v-16h-16z" style="fill:#f00"/><path d="m48 170h16v-16h-16z" style="fill:#0f0"/><path d="m64 170h16v-16h-16z" style="fill:#00f"/><path d="m56 154h16v-16h-16z" style="fill:#f00"/><path d="m138 266h8v-8h-8z" style="fill:#0f0"/><path d="m146 266h8v-8h-8z" style="fill:#00f"/><path d="m142 258h8v-8h-8z" style="fill:#f00"/><path d="m154 266h8v-8h-8z" style="fill:#0f0"/><path d="m162 266h8v-8h-8z" style="fill:#00f"/><path d="m158 258h8v-8h-8z" style="fill:#f00"/><path d="m146 250h8v-8h-8z" style="fill:#0f0"/><path d="m154 250h8v-8h-8z" style="fill:#00f"/><path d="m150 242h8v-8h-8z" style="fill:#f00"/><path d="m170 266h8v-8h-8z" style="fill:#0f0"/><path d="m178 266h8v-8h-8z" style="fill:#00f"/><path d="m174 258h8v-8h-8z" style="fill:#f00"/><path d="m186 266h8v-8h-8z" style="fill:#0f0"/><path d="m194 266h8v-8h-8z" style="fill:#00f"/><path d="m190 258h8v-8h-8z" style="fill:#f00"/><path d="m178 250h8v-8h-8z" style="fill:#0f0"/><path d="m186 250h8v-8h-8z" style="fill:#00f"/><path d="m182 242h8v-8h-8z" style="fill:#f00"/><path d="m154 234h8v-8h-8z" style="fill:#0f0"/><path d="m162 234h8v-8h-8z" style="fill:#00f"/><path d="m158 226h8v-8h-8z" style="fill:#f00"/><path d="m170 234h8v-8h-8z" style="fill:#0f0"/><path d="m178 234h8v-8h-8z" style="fill:#00f"/><path d="m174 226h8v-8h-8z" style="fill:#f00"/><path d="m162 218h8v-8h-8z" style="fill:#0f0"/><path d="m170 218h8v-8h-8z" style="fill:#00f"/><path d="m166 210h8v-8h-8z" style="fill:#f00"/><path d="m202 266h8v-8h-8z" style="fill:#0f0"/><path d="m210 266h8v-8h-8z" style="fill:#00f"/><path d="m206 258h8v-8h-8z" style="fill:#f00"/><path d="m218 266h8v-8h-8z" style="fill:#0f0"/><path d="m226 266h8v-8h-8z" style="fill:#00f"/><path d="m222 258h8v-8h-8z" style="fill:#f00"/><path d="m210 250h8v-8h-8z" style="fill:#0f0"/><path d="m218 250h8v-8h-8z" style="fill:#00f"/><path d="m214 242h8v-8h-8z" style="fill:#f00"/><path d="m234 266h8v-8h-8z" style="fill:#0f0"/><path d="m242 266h8v-8h-8z" style="fill:#00f"/><path d="m238 258h8v-8h-8z" style="fill:#f00"/><path d="m250 266h8v-8h-8z" style="fill:#0f0"/><path d="m258 266h8v-8h-8z" style="fill:#00f"/><path d="m254 258h8v-8h-8z" style="fill:#f00"/><path d="m242 250h8v-8h-8z" style="fill:#0f0"/><path d="m250 250h8v-8h-8z" style="fill:#00f"/><path d="m246 242h8v-8h-8z" style="fill:#f00"/><path d="m218 234h8v-8h-8z" style="fill:#0f0"/><path d="m226 234h8v-8h-8z" style="fill:#00f"/><path d="m222 226h8v-8h-8z" style="fill:#f00"/><path d="m234 234h8v-8h-8z" style="fill:#0f0"/><path d="m242 234h8v-8h-8z" style="fill:#00f"/><path d="m238 226h8v-8h-8z" style="fill:#f00"/><path d="m226 218h8v-8h-8z" style="fill:#0f0"/><path d="m234 218h8v-8h-8z" style="fill:#00f"/><path d="m230 210h8v-8h-8z" style="fill:#f00"/><path d="m170 202h8v-8h-8z" style="fill:#0f0"/><path d="m178 202h8v-8h-8z" style="fill:#00f"/><path d="m174 194h8v-8h-8z" style="fill:#f00"/><path d="m186 202h8v-8h-8z" style="fill:#0f0"/><path d="m194 202h8v-8h-8z" style="fill:#00f"/><path d="m190 194h8v-8h-8z" style="fill:#f00"/><path d="m178 186h8v-8h-8z" style="fill:#0f0"/><path d="m186 186h8v-8h-8z" style="fill:#00f"/><path d="m182 178h8v-8h-8z" style="fill:#f00"/><path d="m202 202h8v-8h-8z" style="fill:#0f0"/><path d="m210 202h8v-8h-8z" style="fill:#00f"/><path d="m206 194h8v-8h-8z" style="fill:#f00"/><path d="m218 202h8v-8h-8z" style="fill:#0f0"/><path d="m226 202h8v-8h-8z" style="fill:#00f"/><path d="m222 194h8v-8h-8z" style="fill:#f00"/><path d="m210 186h8v-8h-8z" style="fill:#0f0"/><path d="m218 186h8v-8h-8z" style="fill:#00f"/><path d="m214 178h8v-8h-8z" style="fill:#f00"/><path d="m186 170h8v-8h-8z" style="fill:#0f0"/><path d="m194 170h8v-8h-8z" style="fill:#00f"/><path d="m190 162h8v-8h-8z" style="fill:#f00"/><path d="m202 170h8v-8h-8z" style="fill:#0f0"/><path d="m210 170h8v-8h-8z" style="fill:#00f"/><path d="m206 162h8v-8h-8z" style="fill:#f00"/><path d="m194 154h8v-8h-8z" style="fill:#0f0"/><path d="m202 154h8v-8h-8z" style="fill:#00f"/><path d="m198 146h8v-8h-8z" style="fill:#f00"/></svg>
