<?xml version="1.0" encoding="UTF-8"?>
<svg width="265.1" height="179.3" version="1.1" xmlns="http://www.w3.org/2000/svg" xmlns:cc="http://creativecommons.org/ns#" xmlns:dc="http://purl.org/dc/elements/1.1/" xmlns:rdf="http://www.w3.org/1999/02/22-rdf-syntax-ns#">
 <metadata>
  <rdf:RDF>
   <cc:Work rdf:about="">
    <dc:format>image/svg+xml</dc:format>
    <dc:type rdf:resource="http://purl.org/dc/dcmitype/StillImage"/>
   </cc:Work>
  </rdf:RDF>
 </metadata>
 <defs>
  <marker id="id31737" overflow="visible" orient="auto">
   <path transform="matrix(.8 0 0 .8 10 0)" d="m0 0 5-5-17.5 5 17.5 5z" fill="#3465a4" stroke="#3465a4" stroke-width="1pt"/>
  </marker>
  <marker id="id46492" overflow="visible" orient="auto">
   <path transform="matrix(-.8 0 0 -.8 -10 0)" d="m0 0 5-5-17.5 5 17.5 5z" fill="#3465a4" stroke="#3465a4" stroke-width="1pt"/>
  </marker>
  <marker id="id32266" overflow="visible" orient="auto">
   <path transform="matrix(.8 0 0 .8 10 0)" d="m0 0 5-5-17.5 5 17.5 5z" fill="#ce5c00" stroke="#ce5c00" stroke-width="1pt"/>
  </marker>
  <marker id="id45851" overflow="visible" orient="auto">
   <path transform="matrix(-.8 0 0 -.8 -10 0)" d="m0 0 5-5-17.5 5 17.5 5z" fill="#ce5c00" stroke="#ce5c00" stroke-width="1pt"/>
  </marker>
  <marker id="id35286" overflow="visible" orient="auto">
   <path transform="matrix(.8 0 0 .8 10 0)" d="m0 0 5-5-17.5 5 17.5 5z" fill="#c4a000" stroke="#c4a000" stroke-width="1pt"/>
  </marker>
  <marker id="id46147" overflow="visible" orient="auto">
   <path transform="matrix(-.8 0 0 -.8 -10 0)" d="m0 0 5-5-17.5 5 17.5 5z" fill="#c4a000" stroke="#c4a000" stroke-width="1pt"/>
  </marker>
  <marker id="id14267" overflow="visible" orient="auto">
   <path transform="matrix(.4 0 0 .4 4 0)" d="m0 0 5-5-17.5 5 17.5 5z" fill="#3465a4" stroke="#3465a4" stroke-width="1pt"/>
  </marker>
  <marker id="id24146" overflow="visible" orient="auto">
   <path transform="matrix(-.4 0 0 -.4 -4 0)" d="m0 0 5-5-17.5 5 17.5 5z" fill="#3465a4" stroke="#3465a4" stroke-width="1pt"/>
  </marker>
 </defs>
 <path d="m218.1 137.7h-201.4l201.2-111.6z" color="#000000" fill="none" stroke="#00f" stroke-width="1.6"/>
 <text transform="scale(1 .9997)" x="102.80887" y="122.51521" fill="#3465a4" font-family="'Trebuchet MS'" font-size="25.1px" stroke-width="2.53">θ</text>
 <g transform="translate(-.0002597 -.0001702)" fill="none">
  <g stroke="#3465a4">
   <path d="m85.38 102.8a75.1 75.1 0 0 1 8.5 32.7" color="#000000" marker-end="url(#id24146)" marker-start="url(#id14267)" stroke-width="1.6"/>
   <path d="m15.58 171.5v-25.4" stroke-width=".4px"/>
   <path d="m218.5 171.4v-25.4" stroke-width=".4px"/>
   <path d="m215.7 157.4h-197.9" marker-end="url(#id46492)" marker-start="url(#id31737)"/>
  </g>
  <g stroke="#ce5c00">
   <path d="m11.48 134.5-11.3-20.8" stroke-width=".4px"/>
   <path d="m215.6 20.8-11.3-20.7" stroke-width=".4px"/>
   <path d="m206.6 11-199.3 110.8" marker-end="url(#id45851)" marker-start="url(#id32266)"/>
  </g>
  <g stroke="#c4a000">
   <path d="m265.1 139.2h-42.4" stroke-width=".4px"/>
   <path d="m264.9 27h-42.4" stroke-width=".4px"/>
   <path d="m251 28.5v109.5" marker-end="url(#id46147)" marker-start="url(#id35286)"/>
  </g>
 </g>
 <g transform="translate(-.0002597 -.0001702)" font-family="'Trebuchet MS'" font-size="18.67px" stroke-width="1px">
  <text transform="rotate(-28.87)" x="19.296083" y="104.20937" color="#000000" fill="#ce5c00">Hypotenuse</text>
  <text transform="rotate(-90)" x="-118.78883" y="243.47574" color="#000000" fill="#c4a000">Opposite</text>
  <text x="80.800751" y="175.49983" color="#000000" fill="#3465a4">Adjacent</text>
 </g>
 <path d="m195.5 137.3v-21.9h21.5" fill="none" stroke="#3465a4" stroke-width="1.6"/>
</svg>
