<?xml version="1.0" encoding="UTF-8" standalone="no"?>
<!DOCTYPE svg PUBLIC "-//W3C//DTD SVG 1.0//EN" "http://www.w3.org/TR/2001/PR-SVG-20010719/DTD/svg10.dtd">
<svg width="33cm" height="21cm" viewBox="279 71 643 410" xmlns="http://www.w3.org/2000/svg" xmlns:xlink="http://www.w3.org/1999/xlink">
  <defs/>
  <g id="Background">
    <rect style="fill: #1e90ff; fill-opacity: 1; stroke-opacity: 1; stroke-width: 2; stroke: #ffffff" x="300" y="100" width="620" height="380" rx="0" ry="0"/>
    <polygon style="fill: #00ff00; fill-opacity: 1; stroke-opacity: 1; stroke-width: 2; stroke: #ffffff" fill-rule="evenodd" points="300,480 920,480 920,440 820,300 580,440 500,340 380,380 300,440 "/>
    <g>
      <line style="fill: none; stroke-opacity: 1; stroke-width: 2; stroke: #000000" x1="280" y1="100" x2="490.264" y2="100"/>
      <polygon style="fill: #000000; fill-opacity: 1; stroke-opacity: 1; stroke-width: 2; stroke: #000000" fill-rule="evenodd" points="497.764,100 487.764,105 490.264,100 487.764,95 "/>
    </g>
    <g>
      <line style="fill: none; stroke-opacity: 1; stroke-width: 2; stroke: #000000" x1="300" y1="80" x2="300" y2="290.264"/>
      <polygon style="fill: #000000; fill-opacity: 1; stroke-opacity: 1; stroke-width: 2; stroke: #000000" fill-rule="evenodd" points="300,297.764 295,287.764 300,290.264 305,287.764 "/>
    </g>
    <rect style="fill: #4d4d4d; fill-opacity: 0.388235; stroke-opacity: 1; stroke-width: 2; stroke: #4d4d4d" x="480" y="240" width="300" height="180" rx="0" ry="0"/>
    <text font-size="16.9331" style="fill: #000000; fill-opacity: 1; stroke: none;text-anchor:start;font-family:sans-serif;font-style:normal;font-weight:normal" x="310" y="90">
      <tspan x="310" y="90">World coordinates</tspan>
    </text>
    <g>
      <line style="fill: none; stroke-opacity: 1; stroke-width: 2; stroke: #000000" x1="460" y1="240" x2="620.264" y2="240"/>
      <polygon style="fill: #000000; fill-opacity: 1; stroke-opacity: 1; stroke-width: 2; stroke: #000000" fill-rule="evenodd" points="627.764,240 617.764,245 620.264,240 617.764,235 "/>
    </g>
    <g>
      <line style="fill: none; stroke-opacity: 1; stroke-width: 2; stroke: #000000" x1="480" y1="220" x2="480" y2="370.264"/>
      <polygon style="fill: #000000; fill-opacity: 1; stroke-opacity: 1; stroke-width: 2; stroke: #000000" fill-rule="evenodd" points="480,377.764 475,367.764 480,370.264 485,367.764 "/>
    </g>
    <text font-size="16.9331" style="fill: #000000; fill-opacity: 1; stroke: none;text-anchor:start;font-family:sans-serif;font-style:normal;font-weight:normal" x="490" y="230">
      <tspan x="490" y="230">Canvas (view) coordinates</tspan>
    </text>
    <ellipse style="fill: #ffa500; fill-opacity: 1; stroke-opacity: 1; stroke-width: 2; stroke: #ff0000" cx="580" cy="320" rx="10" ry="10"/>
    <text font-size="16.9331" style="fill: #000000; fill-opacity: 1; stroke: none;text-anchor:start;font-family:sans-serif;font-style:normal;font-weight:normal" x="490" y="260">
      <tspan x="490" y="260">(x₀, y₀)</tspan>
    </text>
    <text font-size="16.9331" style="fill: #000000; fill-opacity: 1; stroke: none;text-anchor:start;font-family:sans-serif;font-style:normal;font-weight:normal" x="310" y="120">
      <tspan x="310" y="120">(0, 0)</tspan>
    </text>
    <g>
      <line style="fill: none; stroke-opacity: 1; stroke-width: 2; stroke-dasharray: 4; stroke: #000099" x1="485" y1="340" x2="575" y2="340"/>
      <path style="fill: #000099; fill-opacity: 1; stroke: none" fill-rule="evenodd" d="M 480 340 C 480,338.5 481.5,337 483,337 C 484.5,337 486,338.5 486,340 C 486,341.5 484.5,343 483,343 C 481.5,343 480,341.5 480,340z"/>
      <line style="fill: none; stroke-opacity: 1; stroke-width: 2; stroke: #000099" x1="482.5" y1="345" x2="482.5" y2="335"/>
      <path style="fill: #000099; fill-opacity: 1; stroke: none" fill-rule="evenodd" d="M 580 340 C 580,341.5 578.5,343 577,343 C 575.5,343 574,341.5 574,340 C 574,338.5 575.5,337 577,337 C 578.5,337 580,338.5 580,340z"/>
      <line style="fill: none; stroke-opacity: 1; stroke-width: 2; stroke: #000099" x1="577.5" y1="335" x2="577.5" y2="345"/>
    </g>
    <text font-size="16.9331" style="fill: #000099; fill-opacity: 1; stroke: none;text-anchor:start;font-family:sans-serif;font-style:normal;font-weight:normal" x="520" y="360">
      <tspan x="520" y="360">x-x₀</tspan>
    </text>
    <g>
      <line style="fill: none; stroke-opacity: 1; stroke-width: 2; stroke-dasharray: 4; stroke: #000099" x1="600" y1="245" x2="600" y2="315"/>
      <path style="fill: #000099; fill-opacity: 1; stroke: none" fill-rule="evenodd" d="M 600 240 C 601.5,240 603,241.5 603,243 C 603,244.5 601.5,246 600,246 C 598.5,246 597,244.5 597,243 C 597,241.5 598.5,240 600,240z"/>
      <line style="fill: none; stroke-opacity: 1; stroke-width: 2; stroke: #000099" x1="595" y1="242.5" x2="605" y2="242.5"/>
      <path style="fill: #000099; fill-opacity: 1; stroke: none" fill-rule="evenodd" d="M 600 320 C 598.5,320 597,318.5 597,317 C 597,315.5 598.5,314 600,314 C 601.5,314 603,315.5 603,317 C 603,318.5 601.5,320 600,320z"/>
      <line style="fill: none; stroke-opacity: 1; stroke-width: 2; stroke: #000099" x1="605" y1="317.5" x2="595" y2="317.5"/>
    </g>
    <text font-size="16.9331" style="fill: #000099; fill-opacity: 1; stroke: none;text-anchor:start;font-family:sans-serif;font-style:normal;font-weight:normal" x="610" y="290">
      <tspan x="610" y="290">y-y₀</tspan>
    </text>
  </g>
</svg>
