<?xml version="1.0" encoding="UTF-8"?>
<svg version="1.1" viewBox="0 0 801 845" xmlns="http://www.w3.org/2000/svg">
 <g fill="none" stroke="#000" stroke-dasharray="15, 15" stroke-width="5">
  <path d="m400 404v120"/>
  <path d="m680 524v-80h-280"/>
  <path d="m120 524v-80h280"/>
 </g>
 <g fill="#000000" font-family="sans-serif" font-size="60px" letter-spacing="0px" text-anchor="middle" word-spacing="0px">
  <text x="400.23526" y="43.740231" font-style="italic" text-align="center" style="line-height:0%" xml:space="preserve"><tspan x="400.23526" y="43.740231" font-family="sans-serif">Actor</tspan></text>
  <text x="120.23524" y="843.74023" text-align="center" style="line-height:0%" xml:space="preserve"><tspan x="120.23524" y="843.74023" font-family="sans-serif">Ball</tspan></text>
  <text x="400.23526" y="843.74023" text-align="center" style="line-height:0%" xml:space="preserve"><tspan x="400.23526" y="843.74023" font-family="sans-serif">Ghost</tspan></text>
  <text x="680.23523" y="843.74023" text-align="center" style="line-height:0%" xml:space="preserve"><tspan x="680.23523" y="843.74023" font-family="sans-serif">...</tspan></text>
 </g>
 <path d="m340 404h120l-60-80z" fill="none" stroke="#000" stroke-width="5"/>
 <g transform="matrix(4.37 0 0 4.37 -36.7 -376)" stroke-width=".265">
  <path d="m95.8 157c-6.74-1.22-13.4-5.57-17.1-11.1-1.06-1.6-1.53-1.15 5.17-5 5.36-3.08 5.36-3.08 7.12-1.22 1.07 1.13 1.9 1.81 2.13 1.72 0.205-0.0788 0.295-0.0233 0.203 0.126-0.225 0.365 3.2 1.94 3.85 1.77 0.287-0.075 0.462-0.0396 0.389 0.0787-0.0731 0.118 0.463 0.297 1.19 0.397 1.32 0.182 1.32 0.182 1.32 6.9 0 7.61 0.319 7.14-4.27 6.31zm4.74-6.4c-0.0747-6.81-0.0747-6.81 1.4-6.86 1.7-0.0588 4.58-1.04 4.31-1.47-0.104-0.168-0.0527-0.209 0.124-0.0999 0.383 0.237 1.43-0.313 1.23-0.643-0.0844-0.137 3e-3 -0.188 0.195-0.115 0.417 0.16 3.51-2.89 3.29-3.24-0.492-0.796 10.5 5.04 11.8 6.25 2.22 2.11-11 11.4-17.9 12.6-4.71 0.822-4.34 1.37-4.42-6.41zm-23.9-8.46c-3.29-7.28-3.29-14.8-0.0052-22.1 0.984-2.18 0.135-2.36 6.6 1.37 3.01 1.73 5.69 3.21 5.95 3.28 0.455 0.118 0.454 0.126-0.0128 0.155-0.358 0.0223-0.456 0.176-0.355 0.56 0.0762 0.291 0.0351 0.466-0.0913 0.388-0.446-0.276-1.14 2.88-1.13 5.17 0.0048 2.2 0.462 4.63 0.831 4.4 0.102-0.0633 0.202 0.142 0.222 0.455 0.0196 0.314 0.113 0.808 0.207 1.1 0.151 0.466-8.68 5.99-11 6.88-0.293 0.113-0.614-0.323-1.21-1.64zm40.9-1.48c-4.05-2.37-5.47-3.32-5.37-3.62 0.0744-0.222 0.396-1.12 0.716-1.99 0.867-2.37 0.805-8.45-0.0809-7.9-0.177 0.109-0.217 0.0592-0.102-0.127 0.219-0.355-0.0575-1.42-0.326-1.26-0.0987 0.061-0.179-0.168-0.179-0.51 0-0.548 9.63-6.56 11.1-6.95 0.167-0.0432 0.737 0.93 1.27 2.16 2.93 6.82 2.93 14.4 5e-3 21.2-1.17 2.72-0.471 2.82-7.06-1.03zm-18.9-1.59c-0.994-1.82-0.117-3.36 1.91-3.36 2.06 0 2.96 1.5 1.99 3.33-0.936 1.76-2.95 1.78-3.9 0.0341zm6.59-4.55c0-1.98 0-1.98 1.98-1.98s1.98 0 1.98 1.98 0 1.98-1.98 1.98-1.98 0-1.98-1.98zm-13.4-1.06c6.88e-4 -1.46 0.0451-2.02 0.0987-1.25s0.053 1.96-0.0012 2.65c-0.0543 0.686-0.0982 0.0573-0.0975-1.4zm5.03 0.132c0-1.38 0.0446-1.95 0.0991-1.26 0.0545 0.691 0.0545 1.82 0 2.51-0.0545 0.691-0.0991 0.126-0.0991-1.26zm-4.33-0.132c0-1.98 0-1.98 1.85-1.98s1.85 0 1.85 1.98 0 1.98-1.85 1.98-1.85 0-1.85-1.98zm6.52-1.11c0.131-1.12 0.0695-1.34-0.54-1.91-0.918-0.856-0.87-1.03 0.304-1.13 0.84-0.0695 1.07-0.234 1.52-1.07 0.291-0.545 0.589-0.991 0.661-0.991 0.0728 0 0.37 0.446 0.661 0.991 0.448 0.839 0.681 1 1.52 1.07 1.17 0.0972 1.22 0.273 0.304 1.13-0.61 0.569-0.671 0.785-0.54 1.91 0.148 1.27 0.148 1.27-0.9 0.679s-1.05-0.589-2.09 0c-1.05 0.589-1.05 0.589-0.9-0.679zm-3.34-4.76c-2.72-1-1.98-4.84 0.933-4.84 2.44 0 2.95 3.92 0.623 4.73-0.913 0.318-0.967 0.322-1.56 0.106zm7.41-1.47c-1.06-1.73-0.0671-3.64 1.89-3.64 1.91 0 2.97 1.78 2.03 3.42-0.86 1.51-3.06 1.63-3.92 0.215zm5.82-3.07c-4.69-4.82-11.6-4.98-16.4-0.371-1.08 1.03-1.55 1.33-1.7 1.08-0.11-0.191-0.101-0.257 0.0192-0.148s0.437 2e-3 0.704-0.239c0.547-0.495 0.659-1.02 0.154-0.723-0.182 0.106-0.104-0.0652 0.173-0.381 0.522-0.595 0.841-0.773 0.554-0.31-0.0899 0.146-0.0559 0.265 0.0757 0.265 0.338 0 1.15-0.938 0.966-1.12-0.0828-0.0828 0.0658-0.133 0.33-0.111 0.264 0.0218 0.459-0.0836 0.433-0.234-0.026-0.151 0.153-0.291 0.397-0.312 0.777-0.0666 4.07-1.34 3.75-1.44-0.171-0.057 0.676-0.0654 1.88-0.0187 1.5 0.0581 2.78 0.296 4.06 0.754 1.03 0.368 2.07 0.686 2.31 0.708 0.244 0.0211 0.423 0.162 0.397 0.312-0.026 0.151 0.16 0.258 0.413 0.238 0.253-0.0199 0.403 0.0559 0.334 0.168-0.174 0.281 0.581 0.875 0.879 0.691 0.294-0.182 1.18 0.739 0.936 0.978-0.228 0.228 0.434 1.01 0.71 0.838 0.119-0.0735 0.302 6e-3 0.408 0.176 0.12 0.193 0.0768 0.239-0.114 0.121-0.402-0.249-0.393 0.178 0.012 0.583 0.175 0.175 0.264 0.307 0.198 0.295-0.0655-0.0126-0.893-0.818-1.84-1.79zm-25.1-1.91c-6.52-3.78-6.04-3.31-5-4.9 4.07-6.17 11.9-10.8 19.5-11.4 2.09-0.174 2.09-0.174 2.09 6.42 0 6.6 0 6.6-0.992 6.66-2.02 0.117-4.69 0.961-4.42 1.4 0.0794 0.128-0.06 0.155-0.31 0.0593-0.332-0.128-0.396-0.0804-0.237 0.176 0.142 0.23 0.114 0.287-0.0814 0.166-0.393-0.243-1.68 0.609-1.46 0.966 0.104 0.168 0.0418 0.197-0.158 0.073-0.422-0.261-2.46 1.69-2.27 2.18 0.0742 0.193 0.0275 0.285-0.104 0.204-0.131-0.0811-0.457 0.136-0.725 0.482-0.486 0.629-0.486 0.629-5.88-2.49zm27.6 2.71c0.0176-0.236-0.147-0.436-0.365-0.447-0.218-0.0101-0.361-0.18-0.317-0.378 0.109-0.493-1.83-2.44-2.27-2.27-0.193 0.0742-0.282 0.0224-0.197-0.115 0.215-0.348-1.09-1.16-1.48-0.917-0.215 0.133-0.247 0.0833-0.101-0.154 0.159-0.257 0.095-0.304-0.237-0.176-0.306 0.117-0.392 0.0743-0.265-0.132 0.128-0.207 0.0414-0.25-0.265-0.132-0.26 0.0997-0.388 0.0666-0.299-0.0772 0.192-0.311-2.24-1.03-3.77-1.11-1.12-0.0595-1.12-0.0595-1.12-6.66 0-7.5 1.81-8.2 10.7-4.18 5.2 2.36 12.9 9.69 11.4 10.8-2.89 2.13-11.4 6.57-11.4 5.93z" fill="#ffb380"/>
  <path d="m97.3 159c-18.5-2.05-29.7-22.2-21.8-39.1 9.06-19.3 35.7-21.5 47.8-3.96 13.3 19.4-2.53 45.6-26 43zm7.83-0.637c17.6-3.08 27.6-22.1 20.1-38.2-9.02-19.3-35.5-21.4-47.3-3.71-1.26 1.89-1.61 2.55-2.68 5.05-8.16 19 9.23 40.5 29.9 36.8zm-8.17-0.158c-20.5-2.67-30.4-27.3-17.3-43.4 15.8-19.5 47.4-8.34 47.5 16.8 0.0407 16.1-14.2 28.7-30.2 26.6zm3.11-6.99c0-4.32 0.0951-6.75 0.265-6.75 0.169 0 0.265 2.43 0.265 6.75 0 7.7-0.367 7.17 4.36 6.34 7.24-1.26 20.4-10.7 17.7-12.7-0.214-0.157-2.83-1.69-5.81-3.42-2.98-1.72-5.36-3.23-5.28-3.36 0.0785-0.127 0.52 5.3e-4 0.982 0.283 2.38 1.46 10.6 6.12 10.7 6.12 0.118 0 0.645-1 1.17-2.23 2.93-6.81 2.93-14.4 0-21.2-1.16-2.71-0.316-2.83-6.84 0.946-3.02 1.75-5.6 3.18-5.74 3.18-0.626 0 0.364-0.655 5.13-3.39 2.8-1.61 5.32-3.09 5.58-3.29 1.53-1.13-6.17-8.46-11.4-10.8-8.9-4.04-10.7-3.33-10.7 4.3l-0.0614 6.71-0.0755-6.72c-0.0755-6.72-0.0755-6.72-2.16-6.54-7.59 0.633-15.5 5.23-19.5 11.4-1.07 1.62-1.54 1.14 4.83 4.8 2.99 1.72 5.5 3.22 5.58 3.34 0.345 0.558-0.749 0.01-5.89-2.95-6.51-3.75-5.65-3.57-6.64-1.39-2.77 6.14-3.2 12.8-1.23 19 0.533 1.66 1.98 4.9 2.2 4.9 0.0876-5.3e-4 2.72-1.48 5.84-3.28s5.79-3.22 5.91-3.14c0.263 0.162 0.183 0.212-6.04 3.78-6.01 3.44-5.63 3.05-4.57 4.65 3.65 5.51 10.4 9.86 17.1 11.1 4.59 0.831 4.27 1.31 4.27-6.33zm-1.79-7.3c-11.5-1.92-14.2-18.4-3.89-23.6 13.2-6.68 25.3 10.1 14.7 20.3-2.96 2.82-6.76 3.99-10.8 3.32zm5.04-0.63c7.07-1.84 11-9.06 8.65-15.9-3.45-10-17.6-10.9-22.3-1.38-4.58 9.29 3.79 19.8 13.7 17.3zm-5.52-0.239c-14.5-3.51-9.88-26 4.66-22.9 3.07 0.661 9.22 4.88 8.36 5.74-0.0827 0.0827 0.0798 0.602 0.361 1.15 4.14 8.11-4.31 18.2-13.4 16zm7.43-1.33c8.6-4.25 8.52-16.1-0.145-20.2-5.97-2.85-13.4 0.421-15.3 6.78-2.9 9.39 6.75 17.8 15.5 13.5zm-7.03-1.66c-0.96-1.51-0.965-1.67-0.101-3.14 1.07-1.83 3.68-1.8 4.71 0.0523 1.23 2.2 0.0661 4.33-2.36 4.33-1.46 0-1.47-6e-3 -2.25-1.24zm4.2-0.459c0.97-1.83 0.0746-3.33-1.99-3.33-2.03 0-2.91 1.54-1.91 3.36 0.955 1.75 2.97 1.73 3.9-0.0341zm2.16-4.51c0-2.52 0-2.52 2.52-2.52s2.52 0 2.45 2.45c-0.122 3.93-4.97 4.01-4.97 0.0761zm4.5-0.01c0-1.98 0-1.98-1.98-1.98s-1.98 0-1.98 1.98 0 1.98 1.98 1.98 1.98 0 1.98-1.98zm-17.2-1.06c0-2.51 0-2.51 2.38-2.51s2.38 0 2.38 2.51 0 2.51-2.38 2.51-2.38 0-2.38-2.51zm4.23 0c0-1.98 0-1.98-1.85-1.98s-1.85 0-1.85 1.98 0 1.98 1.85 1.98 1.85 0 1.85-1.98zm2.24-0.54c0.189-1.51 0.189-1.51-0.931-2.65-1.12-1.14-1.12-1.14 0.475-1.32 1.59-0.18 1.59-0.18 2.2-1.47 0.333-0.711 0.684-1.29 0.779-1.29 0.0958 0 0.446 0.582 0.779 1.29 0.605 1.29 0.605 1.29 2.2 1.47 1.59 0.18 1.59 0.18 0.475 1.32-1.12 1.14-1.12 1.14-0.931 2.65 0.189 1.51 0.189 1.51-1.17 0.822s-1.36-0.687-2.71 0c-1.36 0.687-1.36 0.687-1.17-0.822zm3.57 0.106c1.05 0.589 1.05 0.589 0.9-0.679-0.131-1.12-0.0695-1.34 0.54-1.91 0.918-0.856 0.87-1.03-0.304-1.13-0.84-0.0695-1.07-0.234-1.52-1.07-0.291-0.545-0.589-0.991-0.661-0.991-0.0728 0-0.37 0.446-0.661 0.991-0.448 0.839-0.681 1-1.52 1.07-1.17 0.0972-1.22 0.273-0.304 1.13 0.61 0.569 0.671 0.785 0.54 1.91-0.148 1.27-0.148 1.27 0.9 0.679 1.05-0.589 1.05-0.589 2.09 0zm-6.87-5.19c-2.6-1.3-2.03-5.06 0.847-5.53 3.48-0.564 4.62 4.24 1.34 5.63-1.07 0.454-1.08 0.453-2.19-0.103zm2.09-0.359c2.33-0.813 1.82-4.73-0.623-4.73-2.91 0-3.65 3.84-0.933 4.84 0.589 0.216 0.643 0.213 1.56-0.106zm5.73-0.633c-1.32-2.16-1.28-1.84-0.375-3.45 1.22-2.16 3.55-2.13 4.79 0.0657 1.58 2.8-2.75 6.12-4.42 3.38zm4.05-0.943c0.612-1.07 0.612-1.07-0.0773-2.25-1.24-2.12-4.38-1.23-4.37 1.24 6e-3 2.23 3.32 2.98 4.45 1.01z" fill="#f00"/>
 </g>
 <g transform="matrix(4.37 0 0 4.37 -317 73.2)" stroke-width=".265">
  <path d="m95.8 157c-6.74-1.22-13.4-5.57-17.1-11.1-1.06-1.6-1.53-1.15 5.17-5 5.36-3.08 5.36-3.08 7.12-1.22 1.07 1.13 1.9 1.81 2.13 1.72 0.205-0.0788 0.295-0.0233 0.203 0.126-0.225 0.365 3.2 1.94 3.85 1.77 0.287-0.075 0.462-0.0396 0.389 0.0787-0.0731 0.118 0.463 0.297 1.19 0.397 1.32 0.182 1.32 0.182 1.32 6.9 0 7.61 0.319 7.14-4.27 6.31zm4.74-6.4c-0.0747-6.81-0.0747-6.81 1.4-6.86 1.7-0.0588 4.58-1.04 4.31-1.47-0.104-0.168-0.0527-0.209 0.124-0.0999 0.383 0.237 1.43-0.313 1.23-0.643-0.0844-0.137 3e-3 -0.188 0.195-0.115 0.417 0.16 3.51-2.89 3.29-3.24-0.492-0.796 10.5 5.04 11.8 6.25 2.22 2.11-11 11.4-17.9 12.6-4.71 0.822-4.34 1.37-4.42-6.41zm-23.9-8.46c-3.29-7.28-3.29-14.8-0.0052-22.1 0.984-2.18 0.135-2.36 6.6 1.37 3.01 1.73 5.69 3.21 5.95 3.28 0.455 0.118 0.454 0.126-0.0128 0.155-0.358 0.0223-0.456 0.176-0.355 0.56 0.0762 0.291 0.0351 0.466-0.0913 0.388-0.446-0.276-1.14 2.88-1.13 5.17 0.0048 2.2 0.462 4.63 0.831 4.4 0.102-0.0633 0.202 0.142 0.222 0.455 0.0196 0.314 0.113 0.808 0.207 1.1 0.151 0.466-8.68 5.99-11 6.88-0.293 0.113-0.614-0.323-1.21-1.64zm40.9-1.48c-4.05-2.37-5.47-3.32-5.37-3.62 0.0744-0.222 0.396-1.12 0.716-1.99 0.867-2.37 0.805-8.45-0.0809-7.9-0.177 0.109-0.217 0.0592-0.102-0.127 0.219-0.355-0.0575-1.42-0.326-1.26-0.0987 0.061-0.179-0.168-0.179-0.51 0-0.548 9.63-6.56 11.1-6.95 0.167-0.0432 0.737 0.93 1.27 2.16 2.93 6.82 2.93 14.4 5e-3 21.2-1.17 2.72-0.471 2.82-7.06-1.03zm-18.9-1.59c-0.994-1.82-0.117-3.36 1.91-3.36 2.06 0 2.96 1.5 1.99 3.33-0.936 1.76-2.95 1.78-3.9 0.0341zm6.59-4.55c0-1.98 0-1.98 1.98-1.98s1.98 0 1.98 1.98 0 1.98-1.98 1.98-1.98 0-1.98-1.98zm-13.4-1.06c6.88e-4 -1.46 0.0451-2.02 0.0987-1.25s0.053 1.96-0.0012 2.65c-0.0543 0.686-0.0982 0.0573-0.0975-1.4zm5.03 0.132c0-1.38 0.0446-1.95 0.0991-1.26 0.0545 0.691 0.0545 1.82 0 2.51-0.0545 0.691-0.0991 0.126-0.0991-1.26zm-4.33-0.132c0-1.98 0-1.98 1.85-1.98s1.85 0 1.85 1.98 0 1.98-1.85 1.98-1.85 0-1.85-1.98zm6.52-1.11c0.131-1.12 0.0695-1.34-0.54-1.91-0.918-0.856-0.87-1.03 0.304-1.13 0.84-0.0695 1.07-0.234 1.52-1.07 0.291-0.545 0.589-0.991 0.661-0.991 0.0728 0 0.37 0.446 0.661 0.991 0.448 0.839 0.681 1 1.52 1.07 1.17 0.0972 1.22 0.273 0.304 1.13-0.61 0.569-0.671 0.785-0.54 1.91 0.148 1.27 0.148 1.27-0.9 0.679s-1.05-0.589-2.09 0c-1.05 0.589-1.05 0.589-0.9-0.679zm-3.34-4.76c-2.72-1-1.98-4.84 0.933-4.84 2.44 0 2.95 3.92 0.623 4.73-0.913 0.318-0.967 0.322-1.56 0.106zm7.41-1.47c-1.06-1.73-0.0671-3.64 1.89-3.64 1.91 0 2.97 1.78 2.03 3.42-0.86 1.51-3.06 1.63-3.92 0.215zm5.82-3.07c-4.69-4.82-11.6-4.98-16.4-0.371-1.08 1.03-1.55 1.33-1.7 1.08-0.11-0.191-0.101-0.257 0.0192-0.148s0.437 2e-3 0.704-0.239c0.547-0.495 0.659-1.02 0.154-0.723-0.182 0.106-0.104-0.0652 0.173-0.381 0.522-0.595 0.841-0.773 0.554-0.31-0.0899 0.146-0.0559 0.265 0.0757 0.265 0.338 0 1.15-0.938 0.966-1.12-0.0828-0.0828 0.0658-0.133 0.33-0.111 0.264 0.0218 0.459-0.0836 0.433-0.234-0.026-0.151 0.153-0.291 0.397-0.312 0.777-0.0666 4.07-1.34 3.75-1.44-0.171-0.057 0.676-0.0654 1.88-0.0187 1.5 0.0581 2.78 0.296 4.06 0.754 1.03 0.368 2.07 0.686 2.31 0.708 0.244 0.0211 0.423 0.162 0.397 0.312-0.026 0.151 0.16 0.258 0.413 0.238 0.253-0.0199 0.403 0.0559 0.334 0.168-0.174 0.281 0.581 0.875 0.879 0.691 0.294-0.182 1.18 0.739 0.936 0.978-0.228 0.228 0.434 1.01 0.71 0.838 0.119-0.0735 0.302 6e-3 0.408 0.176 0.12 0.193 0.0768 0.239-0.114 0.121-0.402-0.249-0.393 0.178 0.012 0.583 0.175 0.175 0.264 0.307 0.198 0.295-0.0655-0.0126-0.893-0.818-1.84-1.79zm-25.1-1.91c-6.52-3.78-6.04-3.31-5-4.9 4.07-6.17 11.9-10.8 19.5-11.4 2.09-0.174 2.09-0.174 2.09 6.42 0 6.6 0 6.6-0.992 6.66-2.02 0.117-4.69 0.961-4.42 1.4 0.0794 0.128-0.06 0.155-0.31 0.0593-0.332-0.128-0.396-0.0804-0.237 0.176 0.142 0.23 0.114 0.287-0.0814 0.166-0.393-0.243-1.68 0.609-1.46 0.966 0.104 0.168 0.0418 0.197-0.158 0.073-0.422-0.261-2.46 1.69-2.27 2.18 0.0742 0.193 0.0275 0.285-0.104 0.204-0.131-0.0811-0.457 0.136-0.725 0.482-0.486 0.629-0.486 0.629-5.88-2.49zm27.6 2.71c0.0176-0.236-0.147-0.436-0.365-0.447-0.218-0.0101-0.361-0.18-0.317-0.378 0.109-0.493-1.83-2.44-2.27-2.27-0.193 0.0742-0.282 0.0224-0.197-0.115 0.215-0.348-1.09-1.16-1.48-0.917-0.215 0.133-0.247 0.0833-0.101-0.154 0.159-0.257 0.095-0.304-0.237-0.176-0.306 0.117-0.392 0.0743-0.265-0.132 0.128-0.207 0.0414-0.25-0.265-0.132-0.26 0.0997-0.388 0.0666-0.299-0.0772 0.192-0.311-2.24-1.03-3.77-1.11-1.12-0.0595-1.12-0.0595-1.12-6.66 0-7.5 1.81-8.2 10.7-4.18 5.2 2.36 12.9 9.69 11.4 10.8-2.89 2.13-11.4 6.57-11.4 5.93z" fill="#f95"/>
  <path d="m97.3 159c-18.5-2.05-29.7-22.2-21.8-39.1 9.06-19.3 35.7-21.5 47.8-3.96 13.3 19.4-2.53 45.6-26 43zm7.83-0.637c17.6-3.08 27.6-22.1 20.1-38.2-9.02-19.3-35.5-21.4-47.3-3.71-1.26 1.89-1.61 2.55-2.68 5.05-8.16 19 9.23 40.5 29.9 36.8zm-8.17-0.158c-20.5-2.67-30.4-27.3-17.3-43.4 15.8-19.5 47.4-8.34 47.5 16.8 0.0407 16.1-14.2 28.7-30.2 26.6zm3.11-6.99c0-4.32 0.0951-6.75 0.265-6.75 0.169 0 0.265 2.43 0.265 6.75 0 7.7-0.367 7.17 4.36 6.34 7.24-1.26 20.4-10.7 17.7-12.7-0.214-0.157-2.83-1.69-5.81-3.42-2.98-1.72-5.36-3.23-5.28-3.36 0.0785-0.127 0.52 5.3e-4 0.982 0.283 2.38 1.46 10.6 6.12 10.7 6.12 0.118 0 0.645-1 1.17-2.23 2.93-6.81 2.93-14.4 0-21.2-1.16-2.71-0.316-2.83-6.84 0.946-3.02 1.75-5.6 3.18-5.74 3.18-0.626 0 0.364-0.655 5.13-3.39 2.8-1.61 5.32-3.09 5.58-3.29 1.53-1.13-6.17-8.46-11.4-10.8-8.9-4.04-10.7-3.33-10.7 4.3l-0.0614 6.71-0.0755-6.72c-0.0755-6.72-0.0755-6.72-2.16-6.54-7.59 0.633-15.5 5.23-19.5 11.4-1.07 1.62-1.54 1.14 4.83 4.8 2.99 1.72 5.5 3.22 5.58 3.34 0.345 0.558-0.749 0.01-5.89-2.95-6.51-3.75-5.65-3.57-6.64-1.39-2.77 6.14-3.2 12.8-1.23 19 0.533 1.66 1.98 4.9 2.2 4.9 0.0876-5.3e-4 2.72-1.48 5.84-3.28s5.79-3.22 5.91-3.14c0.263 0.162 0.183 0.212-6.04 3.78-6.01 3.44-5.63 3.05-4.57 4.65 3.65 5.51 10.4 9.86 17.1 11.1 4.59 0.831 4.27 1.31 4.27-6.33zm-1.79-7.3c-11.5-1.92-14.2-18.4-3.89-23.6 13.2-6.68 25.3 10.1 14.7 20.3-2.96 2.82-6.76 3.99-10.8 3.32zm5.04-0.63c7.07-1.84 11-9.06 8.65-15.9-3.45-10-17.6-10.9-22.3-1.38-4.58 9.29 3.79 19.8 13.7 17.3zm-5.52-0.239c-14.5-3.51-9.88-26 4.66-22.9 3.07 0.661 9.22 4.88 8.36 5.74-0.0827 0.0827 0.0798 0.602 0.361 1.15 4.14 8.11-4.31 18.2-13.4 16zm7.43-1.33c8.6-4.25 8.52-16.1-0.145-20.2-5.97-2.85-13.4 0.421-15.3 6.78-2.9 9.39 6.75 17.8 15.5 13.5zm-7.03-1.66c-0.96-1.51-0.965-1.67-0.101-3.14 1.07-1.83 3.68-1.8 4.71 0.0523 1.23 2.2 0.0661 4.33-2.36 4.33-1.46 0-1.47-6e-3 -2.25-1.24zm4.2-0.459c0.97-1.83 0.0746-3.33-1.99-3.33-2.03 0-2.91 1.54-1.91 3.36 0.955 1.75 2.97 1.73 3.9-0.0341zm2.16-4.51c0-2.52 0-2.52 2.52-2.52s2.52 0 2.45 2.45c-0.122 3.93-4.97 4.01-4.97 0.0761zm4.5-0.01c0-1.98 0-1.98-1.98-1.98s-1.98 0-1.98 1.98 0 1.98 1.98 1.98 1.98 0 1.98-1.98zm-17.2-1.06c0-2.51 0-2.51 2.38-2.51s2.38 0 2.38 2.51 0 2.51-2.38 2.51-2.38 0-2.38-2.51zm4.23 0c0-1.98 0-1.98-1.85-1.98s-1.85 0-1.85 1.98 0 1.98 1.85 1.98 1.85 0 1.85-1.98zm2.24-0.54c0.189-1.51 0.189-1.51-0.931-2.65-1.12-1.14-1.12-1.14 0.475-1.32 1.59-0.18 1.59-0.18 2.2-1.47 0.333-0.711 0.684-1.29 0.779-1.29 0.0958 0 0.446 0.582 0.779 1.29 0.605 1.29 0.605 1.29 2.2 1.47 1.59 0.18 1.59 0.18 0.475 1.32-1.12 1.14-1.12 1.14-0.931 2.65 0.189 1.51 0.189 1.51-1.17 0.822s-1.36-0.687-2.71 0c-1.36 0.687-1.36 0.687-1.17-0.822zm3.57 0.106c1.05 0.589 1.05 0.589 0.9-0.679-0.131-1.12-0.0695-1.34 0.54-1.91 0.918-0.856 0.87-1.03-0.304-1.13-0.84-0.0695-1.07-0.234-1.52-1.07-0.291-0.545-0.589-0.991-0.661-0.991-0.0728 0-0.37 0.446-0.661 0.991-0.448 0.839-0.681 1-1.52 1.07-1.17 0.0972-1.22 0.273-0.304 1.13 0.61 0.569 0.671 0.785 0.54 1.91-0.148 1.27-0.148 1.27 0.9 0.679 1.05-0.589 1.05-0.589 2.09 0zm-6.87-5.19c-2.6-1.3-2.03-5.06 0.847-5.53 3.48-0.564 4.62 4.24 1.34 5.63-1.07 0.454-1.08 0.453-2.19-0.103zm2.09-0.359c2.33-0.813 1.82-4.73-0.623-4.73-2.91 0-3.65 3.84-0.933 4.84 0.589 0.216 0.643 0.213 1.56-0.106zm5.73-0.633c-1.32-2.16-1.28-1.84-0.375-3.45 1.22-2.16 3.55-2.13 4.79 0.0657 1.58 2.8-2.75 6.12-4.42 3.38zm4.05-0.943c0.612-1.07 0.612-1.07-0.0773-2.25-1.24-2.12-4.38-1.23-4.37 1.24 6e-3 2.23 3.32 2.98 4.45 1.01z" fill="#f00"/>
 </g>
 <g transform="matrix(4.37 0 0 4.37 -37.6 73.5)" stroke-width=".265">
  <path d="m95.8 157c-6.74-1.22-13.4-5.57-17.1-11.1-1.06-1.6-1.53-1.15 5.17-5 5.36-3.08 5.36-3.08 7.12-1.22 1.07 1.13 1.9 1.81 2.13 1.72 0.205-0.0788 0.295-0.0233 0.203 0.126-0.225 0.365 3.2 1.94 3.85 1.77 0.287-0.075 0.462-0.0396 0.389 0.0787-0.0731 0.118 0.463 0.297 1.19 0.397 1.32 0.182 1.32 0.182 1.32 6.9 0 7.61 0.319 7.14-4.27 6.31zm4.74-6.4c-0.0747-6.81-0.0747-6.81 1.4-6.86 1.7-0.0588 4.58-1.04 4.31-1.47-0.104-0.168-0.0527-0.209 0.124-0.0999 0.383 0.237 1.43-0.313 1.23-0.643-0.0844-0.137 3e-3 -0.188 0.195-0.115 0.417 0.16 3.51-2.89 3.29-3.24-0.492-0.796 10.5 5.04 11.8 6.25 2.22 2.11-11 11.4-17.9 12.6-4.71 0.822-4.34 1.37-4.42-6.41zm-23.9-8.46c-3.29-7.28-3.29-14.8-0.0052-22.1 0.984-2.18 0.135-2.36 6.6 1.37 3.01 1.73 5.69 3.21 5.95 3.28 0.455 0.118 0.454 0.126-0.0128 0.155-0.358 0.0223-0.456 0.176-0.355 0.56 0.0762 0.291 0.0351 0.466-0.0913 0.388-0.446-0.276-1.14 2.88-1.13 5.17 0.0048 2.2 0.462 4.63 0.831 4.4 0.102-0.0633 0.202 0.142 0.222 0.455 0.0196 0.314 0.113 0.808 0.207 1.1 0.151 0.466-8.68 5.99-11 6.88-0.293 0.113-0.614-0.323-1.21-1.64zm40.9-1.48c-4.05-2.37-5.47-3.32-5.37-3.62 0.0744-0.222 0.396-1.12 0.716-1.99 0.867-2.37 0.805-8.45-0.0809-7.9-0.177 0.109-0.217 0.0592-0.102-0.127 0.219-0.355-0.0575-1.42-0.326-1.26-0.0987 0.061-0.179-0.168-0.179-0.51 0-0.548 9.63-6.56 11.1-6.95 0.167-0.0432 0.737 0.93 1.27 2.16 2.93 6.82 2.93 14.4 5e-3 21.2-1.17 2.72-0.471 2.82-7.06-1.03zm-18.9-1.59c-0.994-1.82-0.117-3.36 1.91-3.36 2.06 0 2.96 1.5 1.99 3.33-0.936 1.76-2.95 1.78-3.9 0.0341zm6.59-4.55c0-1.98 0-1.98 1.98-1.98s1.98 0 1.98 1.98 0 1.98-1.98 1.98-1.98 0-1.98-1.98zm-13.4-1.06c6.88e-4 -1.46 0.0451-2.02 0.0987-1.25s0.053 1.96-0.0012 2.65c-0.0543 0.686-0.0982 0.0573-0.0975-1.4zm5.03 0.132c0-1.38 0.0446-1.95 0.0991-1.26 0.0545 0.691 0.0545 1.82 0 2.51-0.0545 0.691-0.0991 0.126-0.0991-1.26zm-4.33-0.132c0-1.98 0-1.98 1.85-1.98s1.85 0 1.85 1.98 0 1.98-1.85 1.98-1.85 0-1.85-1.98zm6.52-1.11c0.131-1.12 0.0695-1.34-0.54-1.91-0.918-0.856-0.87-1.03 0.304-1.13 0.84-0.0695 1.07-0.234 1.52-1.07 0.291-0.545 0.589-0.991 0.661-0.991 0.0728 0 0.37 0.446 0.661 0.991 0.448 0.839 0.681 1 1.52 1.07 1.17 0.0972 1.22 0.273 0.304 1.13-0.61 0.569-0.671 0.785-0.54 1.91 0.148 1.27 0.148 1.27-0.9 0.679s-1.05-0.589-2.09 0c-1.05 0.589-1.05 0.589-0.9-0.679zm-3.34-4.76c-2.72-1-1.98-4.84 0.933-4.84 2.44 0 2.95 3.92 0.623 4.73-0.913 0.318-0.967 0.322-1.56 0.106zm7.41-1.47c-1.06-1.73-0.0671-3.64 1.89-3.64 1.91 0 2.97 1.78 2.03 3.42-0.86 1.51-3.06 1.63-3.92 0.215zm5.82-3.07c-4.69-4.82-11.6-4.98-16.4-0.371-1.08 1.03-1.55 1.33-1.7 1.08-0.11-0.191-0.101-0.257 0.0192-0.148s0.437 2e-3 0.704-0.239c0.547-0.495 0.659-1.02 0.154-0.723-0.182 0.106-0.104-0.0652 0.173-0.381 0.522-0.595 0.841-0.773 0.554-0.31-0.0899 0.146-0.0559 0.265 0.0757 0.265 0.338 0 1.15-0.938 0.966-1.12-0.0828-0.0828 0.0658-0.133 0.33-0.111 0.264 0.0218 0.459-0.0836 0.433-0.234-0.026-0.151 0.153-0.291 0.397-0.312 0.777-0.0666 4.07-1.34 3.75-1.44-0.171-0.057 0.676-0.0654 1.88-0.0187 1.5 0.0581 2.78 0.296 4.06 0.754 1.03 0.368 2.07 0.686 2.31 0.708 0.244 0.0211 0.423 0.162 0.397 0.312-0.026 0.151 0.16 0.258 0.413 0.238 0.253-0.0199 0.403 0.0559 0.334 0.168-0.174 0.281 0.581 0.875 0.879 0.691 0.294-0.182 1.18 0.739 0.936 0.978-0.228 0.228 0.434 1.01 0.71 0.838 0.119-0.0735 0.302 6e-3 0.408 0.176 0.12 0.193 0.0768 0.239-0.114 0.121-0.402-0.249-0.393 0.178 0.012 0.583 0.175 0.175 0.264 0.307 0.198 0.295-0.0655-0.0126-0.893-0.818-1.84-1.79zm-25.1-1.91c-6.52-3.78-6.04-3.31-5-4.9 4.07-6.17 11.9-10.8 19.5-11.4 2.09-0.174 2.09-0.174 2.09 6.42 0 6.6 0 6.6-0.992 6.66-2.02 0.117-4.69 0.961-4.42 1.4 0.0794 0.128-0.06 0.155-0.31 0.0593-0.332-0.128-0.396-0.0804-0.237 0.176 0.142 0.23 0.114 0.287-0.0814 0.166-0.393-0.243-1.68 0.609-1.46 0.966 0.104 0.168 0.0418 0.197-0.158 0.073-0.422-0.261-2.46 1.69-2.27 2.18 0.0742 0.193 0.0275 0.285-0.104 0.204-0.131-0.0811-0.457 0.136-0.725 0.482-0.486 0.629-0.486 0.629-5.88-2.49zm27.6 2.71c0.0176-0.236-0.147-0.436-0.365-0.447-0.218-0.0101-0.361-0.18-0.317-0.378 0.109-0.493-1.83-2.44-2.27-2.27-0.193 0.0742-0.282 0.0224-0.197-0.115 0.215-0.348-1.09-1.16-1.48-0.917-0.215 0.133-0.247 0.0833-0.101-0.154 0.159-0.257 0.095-0.304-0.237-0.176-0.306 0.117-0.392 0.0743-0.265-0.132 0.128-0.207 0.0414-0.25-0.265-0.132-0.26 0.0997-0.388 0.0666-0.299-0.0772 0.192-0.311-2.24-1.03-3.77-1.11-1.12-0.0595-1.12-0.0595-1.12-6.66 0-7.5 1.81-8.2 10.7-4.18 5.2 2.36 12.9 9.69 11.4 10.8-2.89 2.13-11.4 6.57-11.4 5.93z" fill="#f95"/>
  <path d="m97.3 159c-18.5-2.05-29.7-22.2-21.8-39.1 9.06-19.3 35.7-21.5 47.8-3.96 13.3 19.4-2.53 45.6-26 43zm7.83-0.637c17.6-3.08 27.6-22.1 20.1-38.2-9.02-19.3-35.5-21.4-47.3-3.71-1.26 1.89-1.61 2.55-2.68 5.05-8.16 19 9.23 40.5 29.9 36.8zm-8.17-0.158c-20.5-2.67-30.4-27.3-17.3-43.4 15.8-19.5 47.4-8.34 47.5 16.8 0.0407 16.1-14.2 28.7-30.2 26.6zm3.11-6.99c0-4.32 0.0951-6.75 0.265-6.75 0.169 0 0.265 2.43 0.265 6.75 0 7.7-0.367 7.17 4.36 6.34 7.24-1.26 20.4-10.7 17.7-12.7-0.214-0.157-2.83-1.69-5.81-3.42-2.98-1.72-5.36-3.23-5.28-3.36 0.0785-0.127 0.52 5.3e-4 0.982 0.283 2.38 1.46 10.6 6.12 10.7 6.12 0.118 0 0.645-1 1.17-2.23 2.93-6.81 2.93-14.4 0-21.2-1.16-2.71-0.316-2.83-6.84 0.946-3.02 1.75-5.6 3.18-5.74 3.18-0.626 0 0.364-0.655 5.13-3.39 2.8-1.61 5.32-3.09 5.58-3.29 1.53-1.13-6.17-8.46-11.4-10.8-8.9-4.04-10.7-3.33-10.7 4.3l-0.0614 6.71-0.0755-6.72c-0.0755-6.72-0.0755-6.72-2.16-6.54-7.59 0.633-15.5 5.23-19.5 11.4-1.07 1.62-1.54 1.14 4.83 4.8 2.99 1.72 5.5 3.22 5.58 3.34 0.345 0.558-0.749 0.01-5.89-2.95-6.51-3.75-5.65-3.57-6.64-1.39-2.77 6.14-3.2 12.8-1.23 19 0.533 1.66 1.98 4.9 2.2 4.9 0.0876-5.3e-4 2.72-1.48 5.84-3.28s5.79-3.22 5.91-3.14c0.263 0.162 0.183 0.212-6.04 3.78-6.01 3.44-5.63 3.05-4.57 4.65 3.65 5.51 10.4 9.86 17.1 11.1 4.59 0.831 4.27 1.31 4.27-6.33zm-1.79-7.3c-11.5-1.92-14.2-18.4-3.89-23.6 13.2-6.68 25.3 10.1 14.7 20.3-2.96 2.82-6.76 3.99-10.8 3.32zm5.04-0.63c7.07-1.84 11-9.06 8.65-15.9-3.45-10-17.6-10.9-22.3-1.38-4.58 9.29 3.79 19.8 13.7 17.3zm-5.52-0.239c-14.5-3.51-9.88-26 4.66-22.9 3.07 0.661 9.22 4.88 8.36 5.74-0.0827 0.0827 0.0798 0.602 0.361 1.15 4.14 8.11-4.31 18.2-13.4 16zm7.43-1.33c8.6-4.25 8.52-16.1-0.145-20.2-5.97-2.85-13.4 0.421-15.3 6.78-2.9 9.39 6.75 17.8 15.5 13.5zm-7.03-1.66c-0.96-1.51-0.965-1.67-0.101-3.14 1.07-1.83 3.68-1.8 4.71 0.0523 1.23 2.2 0.0661 4.33-2.36 4.33-1.46 0-1.47-6e-3 -2.25-1.24zm4.2-0.459c0.97-1.83 0.0746-3.33-1.99-3.33-2.03 0-2.91 1.54-1.91 3.36 0.955 1.75 2.97 1.73 3.9-0.0341zm2.16-4.51c0-2.52 0-2.52 2.52-2.52s2.52 0 2.45 2.45c-0.122 3.93-4.97 4.01-4.97 0.0761zm4.5-0.01c0-1.98 0-1.98-1.98-1.98s-1.98 0-1.98 1.98 0 1.98 1.98 1.98 1.98 0 1.98-1.98zm-17.2-1.06c0-2.51 0-2.51 2.38-2.51s2.38 0 2.38 2.51 0 2.51-2.38 2.51-2.38 0-2.38-2.51zm4.23 0c0-1.98 0-1.98-1.85-1.98s-1.85 0-1.85 1.98 0 1.98 1.85 1.98 1.85 0 1.85-1.98zm2.24-0.54c0.189-1.51 0.189-1.51-0.931-2.65-1.12-1.14-1.12-1.14 0.475-1.32 1.59-0.18 1.59-0.18 2.2-1.47 0.333-0.711 0.684-1.29 0.779-1.29 0.0958 0 0.446 0.582 0.779 1.29 0.605 1.29 0.605 1.29 2.2 1.47 1.59 0.18 1.59 0.18 0.475 1.32-1.12 1.14-1.12 1.14-0.931 2.65 0.189 1.51 0.189 1.51-1.17 0.822s-1.36-0.687-2.71 0c-1.36 0.687-1.36 0.687-1.17-0.822zm3.57 0.106c1.05 0.589 1.05 0.589 0.9-0.679-0.131-1.12-0.0695-1.34 0.54-1.91 0.918-0.856 0.87-1.03-0.304-1.13-0.84-0.0695-1.07-0.234-1.52-1.07-0.291-0.545-0.589-0.991-0.661-0.991-0.0728 0-0.37 0.446-0.661 0.991-0.448 0.839-0.681 1-1.52 1.07-1.17 0.0972-1.22 0.273-0.304 1.13 0.61 0.569 0.671 0.785 0.54 1.91-0.148 1.27-0.148 1.27 0.9 0.679 1.05-0.589 1.05-0.589 2.09 0zm-6.87-5.19c-2.6-1.3-2.03-5.06 0.847-5.53 3.48-0.564 4.62 4.24 1.34 5.63-1.07 0.454-1.08 0.453-2.19-0.103zm2.09-0.359c2.33-0.813 1.82-4.73-0.623-4.73-2.91 0-3.65 3.84-0.933 4.84 0.589 0.216 0.643 0.213 1.56-0.106zm5.73-0.633c-1.32-2.16-1.28-1.84-0.375-3.45 1.22-2.16 3.55-2.13 4.79 0.0657 1.58 2.8-2.75 6.12-4.42 3.38zm4.05-0.943c0.612-1.07 0.612-1.07-0.0773-2.25-1.24-2.12-4.38-1.23-4.37 1.24 6e-3 2.23 3.32 2.98 4.45 1.01z" fill="#f00"/>
 </g>
 <g transform="matrix(4.37 0 0 4.37 240 73.4)" stroke-width=".265">
  <path d="m95.8 157c-6.74-1.22-13.4-5.57-17.1-11.1-1.06-1.6-1.53-1.15 5.17-5 5.36-3.08 5.36-3.08 7.12-1.22 1.07 1.13 1.9 1.81 2.13 1.72 0.205-0.0788 0.295-0.0233 0.203 0.126-0.225 0.365 3.2 1.94 3.85 1.77 0.287-0.075 0.462-0.0396 0.389 0.0787-0.0731 0.118 0.463 0.297 1.19 0.397 1.32 0.182 1.32 0.182 1.32 6.9 0 7.61 0.319 7.14-4.27 6.31zm4.74-6.4c-0.0747-6.81-0.0747-6.81 1.4-6.86 1.7-0.0588 4.58-1.04 4.31-1.47-0.104-0.168-0.0527-0.209 0.124-0.0999 0.383 0.237 1.43-0.313 1.23-0.643-0.0844-0.137 3e-3 -0.188 0.195-0.115 0.417 0.16 3.51-2.89 3.29-3.24-0.492-0.796 10.5 5.04 11.8 6.25 2.22 2.11-11 11.4-17.9 12.6-4.71 0.822-4.34 1.37-4.42-6.41zm-23.9-8.46c-3.29-7.28-3.29-14.8-0.0052-22.1 0.984-2.18 0.135-2.36 6.6 1.37 3.01 1.73 5.69 3.21 5.95 3.28 0.455 0.118 0.454 0.126-0.0128 0.155-0.358 0.0223-0.456 0.176-0.355 0.56 0.0762 0.291 0.0351 0.466-0.0913 0.388-0.446-0.276-1.14 2.88-1.13 5.17 0.0048 2.2 0.462 4.63 0.831 4.4 0.102-0.0633 0.202 0.142 0.222 0.455 0.0196 0.314 0.113 0.808 0.207 1.1 0.151 0.466-8.68 5.99-11 6.88-0.293 0.113-0.614-0.323-1.21-1.64zm40.9-1.48c-4.05-2.37-5.47-3.32-5.37-3.62 0.0744-0.222 0.396-1.12 0.716-1.99 0.867-2.37 0.805-8.45-0.0809-7.9-0.177 0.109-0.217 0.0592-0.102-0.127 0.219-0.355-0.0575-1.42-0.326-1.26-0.0987 0.061-0.179-0.168-0.179-0.51 0-0.548 9.63-6.56 11.1-6.95 0.167-0.0432 0.737 0.93 1.27 2.16 2.93 6.82 2.93 14.4 5e-3 21.2-1.17 2.72-0.471 2.82-7.06-1.03zm-18.9-1.59c-0.994-1.82-0.117-3.36 1.91-3.36 2.06 0 2.96 1.5 1.99 3.33-0.936 1.76-2.95 1.78-3.9 0.0341zm6.59-4.55c0-1.98 0-1.98 1.98-1.98s1.98 0 1.98 1.98 0 1.98-1.98 1.98-1.98 0-1.98-1.98zm-13.4-1.06c6.88e-4 -1.46 0.0451-2.02 0.0987-1.25s0.053 1.96-0.0012 2.65c-0.0543 0.686-0.0982 0.0573-0.0975-1.4zm5.03 0.132c0-1.38 0.0446-1.95 0.0991-1.26 0.0545 0.691 0.0545 1.82 0 2.51-0.0545 0.691-0.0991 0.126-0.0991-1.26zm-4.33-0.132c0-1.98 0-1.98 1.85-1.98s1.85 0 1.85 1.98 0 1.98-1.85 1.98-1.85 0-1.85-1.98zm6.52-1.11c0.131-1.12 0.0695-1.34-0.54-1.91-0.918-0.856-0.87-1.03 0.304-1.13 0.84-0.0695 1.07-0.234 1.52-1.07 0.291-0.545 0.589-0.991 0.661-0.991 0.0728 0 0.37 0.446 0.661 0.991 0.448 0.839 0.681 1 1.52 1.07 1.17 0.0972 1.22 0.273 0.304 1.13-0.61 0.569-0.671 0.785-0.54 1.91 0.148 1.27 0.148 1.27-0.9 0.679s-1.05-0.589-2.09 0c-1.05 0.589-1.05 0.589-0.9-0.679zm-3.34-4.76c-2.72-1-1.98-4.84 0.933-4.84 2.44 0 2.95 3.92 0.623 4.73-0.913 0.318-0.967 0.322-1.56 0.106zm7.41-1.47c-1.06-1.73-0.0671-3.64 1.89-3.64 1.91 0 2.97 1.78 2.03 3.42-0.86 1.51-3.06 1.63-3.92 0.215zm5.82-3.07c-4.69-4.82-11.6-4.98-16.4-0.371-1.08 1.03-1.55 1.33-1.7 1.08-0.11-0.191-0.101-0.257 0.0192-0.148s0.437 2e-3 0.704-0.239c0.547-0.495 0.659-1.02 0.154-0.723-0.182 0.106-0.104-0.0652 0.173-0.381 0.522-0.595 0.841-0.773 0.554-0.31-0.0899 0.146-0.0559 0.265 0.0757 0.265 0.338 0 1.15-0.938 0.966-1.12-0.0828-0.0828 0.0658-0.133 0.33-0.111 0.264 0.0218 0.459-0.0836 0.433-0.234-0.026-0.151 0.153-0.291 0.397-0.312 0.777-0.0666 4.07-1.34 3.75-1.44-0.171-0.057 0.676-0.0654 1.88-0.0187 1.5 0.0581 2.78 0.296 4.06 0.754 1.03 0.368 2.07 0.686 2.31 0.708 0.244 0.0211 0.423 0.162 0.397 0.312-0.026 0.151 0.16 0.258 0.413 0.238 0.253-0.0199 0.403 0.0559 0.334 0.168-0.174 0.281 0.581 0.875 0.879 0.691 0.294-0.182 1.18 0.739 0.936 0.978-0.228 0.228 0.434 1.01 0.71 0.838 0.119-0.0735 0.302 6e-3 0.408 0.176 0.12 0.193 0.0768 0.239-0.114 0.121-0.402-0.249-0.393 0.178 0.012 0.583 0.175 0.175 0.264 0.307 0.198 0.295-0.0655-0.0126-0.893-0.818-1.84-1.79zm-25.1-1.91c-6.52-3.78-6.04-3.31-5-4.9 4.07-6.17 11.9-10.8 19.5-11.4 2.09-0.174 2.09-0.174 2.09 6.42 0 6.6 0 6.6-0.992 6.66-2.02 0.117-4.69 0.961-4.42 1.4 0.0794 0.128-0.06 0.155-0.31 0.0593-0.332-0.128-0.396-0.0804-0.237 0.176 0.142 0.23 0.114 0.287-0.0814 0.166-0.393-0.243-1.68 0.609-1.46 0.966 0.104 0.168 0.0418 0.197-0.158 0.073-0.422-0.261-2.46 1.69-2.27 2.18 0.0742 0.193 0.0275 0.285-0.104 0.204-0.131-0.0811-0.457 0.136-0.725 0.482-0.486 0.629-0.486 0.629-5.88-2.49zm27.6 2.71c0.0176-0.236-0.147-0.436-0.365-0.447-0.218-0.0101-0.361-0.18-0.317-0.378 0.109-0.493-1.83-2.44-2.27-2.27-0.193 0.0742-0.282 0.0224-0.197-0.115 0.215-0.348-1.09-1.16-1.48-0.917-0.215 0.133-0.247 0.0833-0.101-0.154 0.159-0.257 0.095-0.304-0.237-0.176-0.306 0.117-0.392 0.0743-0.265-0.132 0.128-0.207 0.0414-0.25-0.265-0.132-0.26 0.0997-0.388 0.0666-0.299-0.0772 0.192-0.311-2.24-1.03-3.77-1.11-1.12-0.0595-1.12-0.0595-1.12-6.66 0-7.5 1.81-8.2 10.7-4.18 5.2 2.36 12.9 9.69 11.4 10.8-2.89 2.13-11.4 6.57-11.4 5.93z" fill="#f95"/>
  <path d="m97.3 159c-18.5-2.05-29.7-22.2-21.8-39.1 9.06-19.3 35.7-21.5 47.8-3.96 13.3 19.4-2.53 45.6-26 43zm7.83-0.637c17.6-3.08 27.6-22.1 20.1-38.2-9.02-19.3-35.5-21.4-47.3-3.71-1.26 1.89-1.61 2.55-2.68 5.05-8.16 19 9.23 40.5 29.9 36.8zm-8.17-0.158c-20.5-2.67-30.4-27.3-17.3-43.4 15.8-19.5 47.4-8.34 47.5 16.8 0.0407 16.1-14.2 28.7-30.2 26.6zm3.11-6.99c0-4.32 0.0951-6.75 0.265-6.75 0.169 0 0.265 2.43 0.265 6.75 0 7.7-0.367 7.17 4.36 6.34 7.24-1.26 20.4-10.7 17.7-12.7-0.214-0.157-2.83-1.69-5.81-3.42-2.98-1.72-5.36-3.23-5.28-3.36 0.0785-0.127 0.52 5.3e-4 0.982 0.283 2.38 1.46 10.6 6.12 10.7 6.12 0.118 0 0.645-1 1.17-2.23 2.93-6.81 2.93-14.4 0-21.2-1.16-2.71-0.316-2.83-6.84 0.946-3.02 1.75-5.6 3.18-5.74 3.18-0.626 0 0.364-0.655 5.13-3.39 2.8-1.61 5.32-3.09 5.58-3.29 1.53-1.13-6.17-8.46-11.4-10.8-8.9-4.04-10.7-3.33-10.7 4.3l-0.0614 6.71-0.0755-6.72c-0.0755-6.72-0.0755-6.72-2.16-6.54-7.59 0.633-15.5 5.23-19.5 11.4-1.07 1.62-1.54 1.14 4.83 4.8 2.99 1.72 5.5 3.22 5.58 3.34 0.345 0.558-0.749 0.01-5.89-2.95-6.51-3.75-5.65-3.57-6.64-1.39-2.77 6.14-3.2 12.8-1.23 19 0.533 1.66 1.98 4.9 2.2 4.9 0.0876-5.3e-4 2.72-1.48 5.84-3.28s5.79-3.22 5.91-3.14c0.263 0.162 0.183 0.212-6.04 3.78-6.01 3.44-5.63 3.05-4.57 4.65 3.65 5.51 10.4 9.86 17.1 11.1 4.59 0.831 4.27 1.31 4.27-6.33zm-1.79-7.3c-11.5-1.92-14.2-18.4-3.89-23.6 13.2-6.68 25.3 10.1 14.7 20.3-2.96 2.82-6.76 3.99-10.8 3.32zm5.04-0.63c7.07-1.84 11-9.06 8.65-15.9-3.45-10-17.6-10.9-22.3-1.38-4.58 9.29 3.79 19.8 13.7 17.3zm-5.52-0.239c-14.5-3.51-9.88-26 4.66-22.9 3.07 0.661 9.22 4.88 8.36 5.74-0.0827 0.0827 0.0798 0.602 0.361 1.15 4.14 8.11-4.31 18.2-13.4 16zm7.43-1.33c8.6-4.25 8.52-16.1-0.145-20.2-5.97-2.85-13.4 0.421-15.3 6.78-2.9 9.39 6.75 17.8 15.5 13.5zm-7.03-1.66c-0.96-1.51-0.965-1.67-0.101-3.14 1.07-1.83 3.68-1.8 4.71 0.0523 1.23 2.2 0.0661 4.33-2.36 4.33-1.46 0-1.47-6e-3 -2.25-1.24zm4.2-0.459c0.97-1.83 0.0746-3.33-1.99-3.33-2.03 0-2.91 1.54-1.91 3.36 0.955 1.75 2.97 1.73 3.9-0.0341zm2.16-4.51c0-2.52 0-2.52 2.52-2.52s2.52 0 2.45 2.45c-0.122 3.93-4.97 4.01-4.97 0.0761zm4.5-0.01c0-1.98 0-1.98-1.98-1.98s-1.98 0-1.98 1.98 0 1.98 1.98 1.98 1.98 0 1.98-1.98zm-17.2-1.06c0-2.51 0-2.51 2.38-2.51s2.38 0 2.38 2.51 0 2.51-2.38 2.51-2.38 0-2.38-2.51zm4.23 0c0-1.98 0-1.98-1.85-1.98s-1.85 0-1.85 1.98 0 1.98 1.85 1.98 1.85 0 1.85-1.98zm2.24-0.54c0.189-1.51 0.189-1.51-0.931-2.65-1.12-1.14-1.12-1.14 0.475-1.32 1.59-0.18 1.59-0.18 2.2-1.47 0.333-0.711 0.684-1.29 0.779-1.29 0.0958 0 0.446 0.582 0.779 1.29 0.605 1.29 0.605 1.29 2.2 1.47 1.59 0.18 1.59 0.18 0.475 1.32-1.12 1.14-1.12 1.14-0.931 2.65 0.189 1.51 0.189 1.51-1.17 0.822s-1.36-0.687-2.71 0c-1.36 0.687-1.36 0.687-1.17-0.822zm3.57 0.106c1.05 0.589 1.05 0.589 0.9-0.679-0.131-1.12-0.0695-1.34 0.54-1.91 0.918-0.856 0.87-1.03-0.304-1.13-0.84-0.0695-1.07-0.234-1.52-1.07-0.291-0.545-0.589-0.991-0.661-0.991-0.0728 0-0.37 0.446-0.661 0.991-0.448 0.839-0.681 1-1.52 1.07-1.17 0.0972-1.22 0.273-0.304 1.13 0.61 0.569 0.671 0.785 0.54 1.91-0.148 1.27-0.148 1.27 0.9 0.679 1.05-0.589 1.05-0.589 2.09 0zm-6.87-5.19c-2.6-1.3-2.03-5.06 0.847-5.53 3.48-0.564 4.62 4.24 1.34 5.63-1.07 0.454-1.08 0.453-2.19-0.103zm2.09-0.359c2.33-0.813 1.82-4.73-0.623-4.73-2.91 0-3.65 3.84-0.933 4.84 0.589 0.216 0.643 0.213 1.56-0.106zm5.73-0.633c-1.32-2.16-1.28-1.84-0.375-3.45 1.22-2.16 3.55-2.13 4.79 0.0657 1.58 2.8-2.75 6.12-4.42 3.38zm4.05-0.943c0.612-1.07 0.612-1.07-0.0773-2.25-1.24-2.12-4.38-1.23-4.37 1.24 6e-3 2.23 3.32 2.98 4.45 1.01z" fill="#f00"/>
 </g>
</svg>
