<?xml version="1.0" encoding="UTF-8"?>
<svg width="16cm" height="16cm" version="1.1" viewBox="0 0 600 600" xmlns="http://www.w3.org/2000/svg">
<g>
<circle cx="300" cy="300" r="300" fill="black" />
<circle cx="300" cy="150" r="150" fill="white" />
<circle cx="225" cy="150" r="75" fill="black" />
<circle cx="225" cy="112" r="38" fill="white" />
<circle cx="206" cy="112" r="19" fill="black" />
<circle cx="206" cy="103" r="9" fill="white" />
<circle cx="206" cy="122" r="9" fill="white" />
<circle cx="244" cy="112" r="19" fill="black" />
<circle cx="244" cy="103" r="9" fill="white" />
<circle cx="244" cy="122" r="9" fill="white" />
<circle cx="225" cy="188" r="38" fill="white" />
<circle cx="206" cy="188" r="19" fill="black" />
<circle cx="206" cy="178" r="9" fill="white" />
<circle cx="206" cy="197" r="9" fill="white" />
<circle cx="244" cy="188" r="19" fill="black" />
<circle cx="244" cy="178" r="9" fill="white" />
<circle cx="244" cy="197" r="9" fill="white" />
<circle cx="375" cy="150" r="75" fill="black" />
<circle cx="375" cy="112" r="38" fill="white" />
<circle cx="356" cy="112" r="19" fill="black" />
<circle cx="356" cy="103" r="9" fill="white" />
<circle cx="356" cy="122" r="9" fill="white" />
<circle cx="394" cy="112" r="19" fill="black" />
<circle cx="394" cy="103" r="9" fill="white" />
<circle cx="394" cy="122" r="9" fill="white" />
<circle cx="375" cy="188" r="38" fill="white" />
<circle cx="356" cy="188" r="19" fill="black" />
<circle cx="356" cy="178" r="9" fill="white" />
<circle cx="356" cy="197" r="9" fill="white" />
<circle cx="394" cy="188" r="19" fill="black" />
<circle cx="394" cy="178" r="9" fill="white" />
<circle cx="394" cy="197" r="9" fill="white" />
<circle cx="300" cy="450" r="150" fill="white" />
<circle cx="225" cy="450" r="75" fill="black" />
<circle cx="225" cy="412" r="38" fill="white" />
<circle cx="206" cy="412" r="19" fill="black" />
<circle cx="206" cy="403" r="9" fill="white" />
<circle cx="206" cy="422" r="9" fill="white" />
<circle cx="244" cy="412" r="19" fill="black" />
<circle cx="244" cy="403" r="9" fill="white" />
<circle cx="244" cy="422" r="9" fill="white" />
<circle cx="225" cy="488" r="38" fill="white" />
<circle cx="206" cy="488" r="19" fill="black" />
<circle cx="206" cy="478" r="9" fill="white" />
<circle cx="206" cy="497" r="9" fill="white" />
<circle cx="244" cy="488" r="19" fill="black" />
<circle cx="244" cy="478" r="9" fill="white" />
<circle cx="244" cy="497" r="9" fill="white" />
<circle cx="375" cy="450" r="75" fill="black" />
<circle cx="375" cy="412" r="38" fill="white" />
<circle cx="356" cy="412" r="19" fill="black" />
<circle cx="356" cy="403" r="9" fill="white" />
<circle cx="356" cy="422" r="9" fill="white" />
<circle cx="394" cy="412" r="19" fill="black" />
<circle cx="394" cy="403" r="9" fill="white" />
<circle cx="394" cy="422" r="9" fill="white" />
<circle cx="375" cy="488" r="38" fill="white" />
<circle cx="356" cy="488" r="19" fill="black" />
<circle cx="356" cy="478" r="9" fill="white" />
<circle cx="356" cy="497" r="9" fill="white" />
<circle cx="394" cy="488" r="19" fill="black" />
<circle cx="394" cy="478" r="9" fill="white" />
<circle cx="394" cy="497" r="9" fill="white" />
</g>
</svg>
