<?xml version="1.0" encoding="UTF-8" standalone="no"?>
<!DOCTYPE svg PUBLIC "-//W3C//DTD SVG 1.0//EN" "http://www.w3.org/TR/2001/PR-SVG-20010719/DTD/svg10.dtd">
<svg width="43cm" height="27cm" viewBox="915 75 850 530" xmlns="http://www.w3.org/2000/svg" xmlns:xlink="http://www.w3.org/1999/xlink">
  <defs/>
  <g id="Background">
    <rect style="fill: #ffc0cb; fill-opacity: 1; stroke-opacity: 1; stroke-width: 10; stroke: #ffffff" x="920" y="80" width="520" height="520" rx="0" ry="0"/>
    <rect style="fill: #add8e6; fill-opacity: 1; stroke-opacity: 1; stroke-width: 10; stroke: #ffffff" x="1440" y="80" width="320" height="320" rx="0" ry="0"/>
    <rect style="fill: #1e90ff; fill-opacity: 1; stroke-opacity: 1; stroke-width: 10; stroke: #ffffff" x="1560" y="400" width="200" height="200" rx="0" ry="0"/>
    <rect style="fill: #90ee90; fill-opacity: 1; stroke-opacity: 1; stroke-width: 10; stroke: #ffffff" x="1440" y="480" width="120" height="120" rx="0" ry="0"/>
    <rect style="fill: #a06414; fill-opacity: 1; stroke-opacity: 1; stroke-width: 10; stroke: #ffffff" x="1440" y="400" width="80" height="80" rx="0" ry="0"/>
    <rect style="fill: #ffa500; fill-opacity: 1; stroke-opacity: 1; stroke-width: 10; stroke: #ffffff" x="1520" y="400" width="40" height="40" rx="0" ry="0"/>
    <rect style="fill: #ffa500; fill-opacity: 1; stroke-opacity: 1; stroke-width: 10; stroke: #ffffff" x="1520" y="440" width="40" height="40" rx="0" ry="0"/>
    <line style="fill: none; stroke-opacity: 1; stroke-width: 2; stroke: #7f7f7f" x1="920" y1="80" x2="920" y2="600"/>
    <line style="fill: none; stroke-opacity: 1; stroke-width: 2; stroke: #7f7f7f" x1="960" y1="80" x2="960" y2="600"/>
    <line style="fill: none; stroke-opacity: 1; stroke-width: 2; stroke: #7f7f7f" x1="1000" y1="80" x2="1000" y2="600"/>
    <line style="fill: none; stroke-opacity: 1; stroke-width: 2; stroke: #7f7f7f" x1="1040" y1="80" x2="1040" y2="600"/>
    <line style="fill: none; stroke-opacity: 1; stroke-width: 2; stroke: #7f7f7f" x1="1080" y1="80" x2="1080" y2="600"/>
    <line style="fill: none; stroke-opacity: 1; stroke-width: 2; stroke: #7f7f7f" x1="1120" y1="80" x2="1120" y2="600"/>
    <line style="fill: none; stroke-opacity: 1; stroke-width: 2; stroke: #7f7f7f" x1="1160" y1="80" x2="1160" y2="600"/>
    <line style="fill: none; stroke-opacity: 1; stroke-width: 2; stroke: #7f7f7f" x1="1200" y1="80" x2="1200" y2="600"/>
    <line style="fill: none; stroke-opacity: 1; stroke-width: 2; stroke: #7f7f7f" x1="1240" y1="80" x2="1240" y2="600"/>
    <line style="fill: none; stroke-opacity: 1; stroke-width: 2; stroke: #7f7f7f" x1="1280" y1="80" x2="1280" y2="600"/>
    <line style="fill: none; stroke-opacity: 1; stroke-width: 2; stroke: #7f7f7f" x1="1320" y1="80" x2="1320" y2="600"/>
    <line style="fill: none; stroke-opacity: 1; stroke-width: 2; stroke: #7f7f7f" x1="1360" y1="80" x2="1360" y2="600"/>
    <line style="fill: none; stroke-opacity: 1; stroke-width: 2; stroke: #7f7f7f" x1="1400" y1="80" x2="1400" y2="600"/>
    <line style="fill: none; stroke-opacity: 1; stroke-width: 2; stroke: #7f7f7f" x1="1440" y1="80" x2="1440" y2="600"/>
    <line style="fill: none; stroke-opacity: 1; stroke-width: 2; stroke: #7f7f7f" x1="1480" y1="80" x2="1480" y2="600"/>
    <line style="fill: none; stroke-opacity: 1; stroke-width: 2; stroke: #7f7f7f" x1="1520" y1="80" x2="1520" y2="600"/>
    <line style="fill: none; stroke-opacity: 1; stroke-width: 2; stroke: #7f7f7f" x1="1560" y1="80" x2="1560" y2="600"/>
    <line style="fill: none; stroke-opacity: 1; stroke-width: 2; stroke: #7f7f7f" x1="1600" y1="80" x2="1600" y2="600"/>
    <line style="fill: none; stroke-opacity: 1; stroke-width: 2; stroke: #7f7f7f" x1="1640" y1="80" x2="1640" y2="600"/>
    <line style="fill: none; stroke-opacity: 1; stroke-width: 2; stroke: #7f7f7f" x1="1680" y1="80" x2="1680" y2="600"/>
    <line style="fill: none; stroke-opacity: 1; stroke-width: 2; stroke: #7f7f7f" x1="1720" y1="80" x2="1720" y2="600"/>
    <line style="fill: none; stroke-opacity: 1; stroke-width: 2; stroke: #7f7f7f" x1="1760" y1="80" x2="1760" y2="600"/>
    <line style="fill: none; stroke-opacity: 1; stroke-width: 2; stroke: #7f7f7f" x1="920" y1="120" x2="1760" y2="120"/>
    <line style="fill: none; stroke-opacity: 1; stroke-width: 2; stroke: #7f7f7f" x1="920" y1="80" x2="1760" y2="80"/>
    <line style="fill: none; stroke-opacity: 1; stroke-width: 2; stroke: #7f7f7f" x1="920" y1="200" x2="1760" y2="200"/>
    <line style="fill: none; stroke-opacity: 1; stroke-width: 2; stroke: #7f7f7f" x1="920" y1="160" x2="1760" y2="160"/>
    <line style="fill: none; stroke-opacity: 1; stroke-width: 2; stroke: #7f7f7f" x1="920" y1="280" x2="1760" y2="280"/>
    <line style="fill: none; stroke-opacity: 1; stroke-width: 2; stroke: #7f7f7f" x1="920" y1="240" x2="1760" y2="240"/>
    <line style="fill: none; stroke-opacity: 1; stroke-width: 2; stroke: #7f7f7f" x1="920" y1="360" x2="1760" y2="360"/>
    <line style="fill: none; stroke-opacity: 1; stroke-width: 2; stroke: #7f7f7f" x1="920" y1="320" x2="1760" y2="320"/>
    <line style="fill: none; stroke-opacity: 1; stroke-width: 2; stroke: #7f7f7f" x1="920" y1="440" x2="1760" y2="440"/>
    <line style="fill: none; stroke-opacity: 1; stroke-width: 2; stroke: #7f7f7f" x1="920" y1="400" x2="1760" y2="400"/>
    <line style="fill: none; stroke-opacity: 1; stroke-width: 2; stroke: #7f7f7f" x1="920" y1="520" x2="1760" y2="520"/>
    <line style="fill: none; stroke-opacity: 1; stroke-width: 2; stroke: #7f7f7f" x1="920" y1="480" x2="1760" y2="480"/>
    <line style="fill: none; stroke-opacity: 1; stroke-width: 2; stroke: #7f7f7f" x1="920" y1="600" x2="1760" y2="600"/>
    <line style="fill: none; stroke-opacity: 1; stroke-width: 2; stroke: #7f7f7f" x1="920" y1="560" x2="1760" y2="560"/>
    <path style="fill: none; stroke-opacity: 1; stroke-width: 6; stroke: #000000" d="M 1520,480 A 40,40 0 0 0 1560,440"/>
    <path style="fill: none; stroke-opacity: 1; stroke-width: 6; stroke: #000000" d="M 1560,440 A 40,40 0 0 0 1520,400"/>
    <path style="fill: none; stroke-opacity: 1; stroke-width: 6; stroke: #000000" d="M 1520,400 A 80,80 0 0 0 1440,480"/>
    <path style="fill: none; stroke-opacity: 1; stroke-width: 6; stroke: #000000" d="M 1440,480 A 120,120 0 0 0 1560,600"/>
    <path style="fill: none; stroke-opacity: 1; stroke-width: 6; stroke: #000000" d="M 1560,600 A 200,200 0 0 0 1760,400"/>
    <path style="fill: none; stroke-opacity: 1; stroke-width: 6; stroke: #000000" d="M 1760,400 A 320,320 0 0 0 1440,80"/>
    <path style="fill: none; stroke-opacity: 1; stroke-width: 6; stroke: #000000" d="M 1440,80 A 520,520 0 0 0 920,600"/>
    <text font-size="36.6883" style="fill: #000000; fill-opacity: 1; stroke: none;text-anchor:middle;font-family:sans-serif;font-style:normal;font-weight:normal" x="1660" y="514.25">
      <tspan x="1660" y="514.25">5×5</tspan>
    </text>
    <text font-size="36.6883" style="fill: #000000; fill-opacity: 1; stroke: none;text-anchor:middle;font-family:sans-serif;font-style:normal;font-weight:normal" x="1600" y="254.25">
      <tspan x="1600" y="254.25">8×8</tspan>
    </text>
    <text font-size="36.6883" style="fill: #000000; fill-opacity: 1; stroke: none;text-anchor:middle;font-family:sans-serif;font-style:normal;font-weight:normal" x="1180" y="354.25">
      <tspan x="1180" y="354.25">13×13</tspan>
    </text>
    <text font-size="36.6883" style="fill: #000000; fill-opacity: 1; stroke: none;text-anchor:middle;font-family:sans-serif;font-style:normal;font-weight:normal" x="1500" y="554.25">
      <tspan x="1500" y="554.25">3×3</tspan>
    </text>
  </g>
</svg>
