<?xml version="1.0" encoding="UTF-8" standalone="no"?>
<!DOCTYPE svg PUBLIC "-//W3C//DTD SVG 1.0//EN" "http://www.w3.org/TR/2001/PR-SVG-20010719/DTD/svg10.dtd">
<svg width="51cm" height="60cm" viewBox="-1292 204 1020 1195" xmlns="http://www.w3.org/2000/svg" xmlns:xlink="http://www.w3.org/1999/xlink">
  <g id="Background"/>
  <g id="Background">
    <line style="fill: none; stroke-opacity: 1; stroke-width: 20; stroke: #a52a2a" x1="-540" y1="1300" x2="-540" y2="1100"/>
    <line style="fill: none; stroke-opacity: 1; stroke-width: 16; stroke: #a52a2a" x1="-540" y1="1100" x2="-480" y2="980"/>
    <line style="fill: none; stroke-opacity: 1; stroke-width: 16; stroke: #a52a2a" x1="-540" y1="1100" x2="-600" y2="980"/>
    <line style="fill: none; stroke-opacity: 1; stroke-width: 12; stroke: #a52a2a" x1="-600" y1="980" x2="-660" y2="950"/>
    <line style="fill: none; stroke-opacity: 1; stroke-width: 12; stroke: #a52a2a" x1="-600" y1="980" x2="-600" y2="910"/>
    <line style="fill: none; stroke-opacity: 1; stroke-width: 12; stroke: #a52a2a" x1="-480" y1="980" x2="-480" y2="910"/>
    <line style="fill: none; stroke-opacity: 1; stroke-width: 12; stroke: #a52a2a" x1="-480" y1="980" x2="-420" y2="950"/>
    <line style="fill: none; stroke-opacity: 1; stroke-width: 8; stroke: #a52a2a" x1="-660" y1="950" x2="-710" y2="950"/>
    <line style="fill: none; stroke-opacity: 1; stroke-width: 8; stroke: #a52a2a" x1="-660" y1="950" x2="-680" y2="910"/>
    <line style="fill: none; stroke-opacity: 1; stroke-width: 8; stroke: #a52a2a" x1="-420" y1="950" x2="-370" y2="950"/>
    <line style="fill: none; stroke-opacity: 1; stroke-width: 8; stroke: #a52a2a" x1="-420" y1="950" x2="-400" y2="910"/>
    <line style="fill: none; stroke-opacity: 1; stroke-width: 8; stroke: #a52a2a" x1="-600" y1="910" x2="-620" y2="870"/>
    <line style="fill: none; stroke-opacity: 1; stroke-width: 8; stroke: #a52a2a" x1="-600" y1="910" x2="-580" y2="870"/>
    <line style="fill: none; stroke-opacity: 1; stroke-width: 8; stroke: #a52a2a" x1="-480" y1="910" x2="-500" y2="870"/>
    <line style="fill: none; stroke-opacity: 1; stroke-width: 8; stroke: #a52a2a" x1="-480" y1="910" x2="-460" y2="870"/>
    <line style="fill: none; stroke-opacity: 1; stroke-width: 4; stroke: #008000" x1="-710" y1="950" x2="-730" y2="960"/>
    <line style="fill: none; stroke-opacity: 1; stroke-width: 4; stroke: #008000" x1="-710" y1="950" x2="-730" y2="940"/>
    <line style="fill: none; stroke-opacity: 1; stroke-width: 4; stroke: #008000" x1="-680" y1="910" x2="-700" y2="900"/>
    <line style="fill: none; stroke-opacity: 1; stroke-width: 4; stroke: #008000" x1="-680" y1="910" x2="-680" y2="890"/>
    <line style="fill: none; stroke-opacity: 1; stroke-width: 4; stroke: #008000" x1="-620" y1="870" x2="-640" y2="860"/>
    <line style="fill: none; stroke-opacity: 1; stroke-width: 4; stroke: #008000" x1="-620" y1="870" x2="-620" y2="850"/>
    <line style="fill: none; stroke-opacity: 1; stroke-width: 4; stroke: #008000" x1="-500" y1="870" x2="-520" y2="860"/>
    <line style="fill: none; stroke-opacity: 1; stroke-width: 4; stroke: #008000" x1="-500" y1="870" x2="-500" y2="850"/>
    <line style="fill: none; stroke-opacity: 1; stroke-width: 4; stroke: #008000" x1="-580" y1="870" x2="-560" y2="860"/>
    <line style="fill: none; stroke-opacity: 1; stroke-width: 4; stroke: #008000" x1="-580" y1="870" x2="-580" y2="850"/>
    <line style="fill: none; stroke-opacity: 1; stroke-width: 4; stroke: #008000" x1="-460" y1="870" x2="-440" y2="860"/>
    <line style="fill: none; stroke-opacity: 1; stroke-width: 4; stroke: #008000" x1="-460" y1="870" x2="-460" y2="850"/>
    <line style="fill: none; stroke-opacity: 1; stroke-width: 4; stroke: #008000" x1="-400" y1="910" x2="-380" y2="900"/>
    <line style="fill: none; stroke-opacity: 1; stroke-width: 4; stroke: #008000" x1="-400" y1="910" x2="-400" y2="890"/>
    <line style="fill: none; stroke-opacity: 1; stroke-width: 4; stroke: #008000" x1="-370" y1="950" x2="-350" y2="940"/>
    <line style="fill: none; stroke-opacity: 1; stroke-width: 4; stroke: #008000" x1="-370" y1="950" x2="-350" y2="960"/>
    <line style="fill: none; stroke-opacity: 1; stroke-width: 20; stroke: #a52a2a" x1="-940" y1="1300" x2="-940" y2="1100"/>
    <line style="fill: none; stroke-opacity: 1; stroke-width: 16; stroke: #a52a2a" x1="-940" y1="1100" x2="-880" y2="980"/>
    <line style="fill: none; stroke-opacity: 1; stroke-width: 16; stroke: #a52a2a" x1="-940" y1="1100" x2="-1000" y2="980"/>
    <line style="fill: none; stroke-opacity: 1; stroke-width: 12; stroke: #a52a2a" x1="-1000" y1="980" x2="-1060" y2="950"/>
    <line style="fill: none; stroke-opacity: 1; stroke-width: 12; stroke: #a52a2a" x1="-1000" y1="980" x2="-1000" y2="910"/>
    <line style="fill: none; stroke-opacity: 1; stroke-width: 12; stroke: #a52a2a" x1="-880" y1="980" x2="-880" y2="910"/>
    <line style="fill: none; stroke-opacity: 1; stroke-width: 12; stroke: #a52a2a" x1="-880" y1="980" x2="-820" y2="950"/>
    <line style="fill: none; stroke-opacity: 1; stroke-width: 8; stroke: #a52a2a" x1="-1060" y1="950" x2="-1110" y2="950"/>
    <line style="fill: none; stroke-opacity: 1; stroke-width: 8; stroke: #a52a2a" x1="-1060" y1="950" x2="-1080" y2="910"/>
    <line style="fill: none; stroke-opacity: 1; stroke-width: 8; stroke: #a52a2a" x1="-820" y1="950" x2="-770" y2="950"/>
    <line style="fill: none; stroke-opacity: 1; stroke-width: 8; stroke: #a52a2a" x1="-820" y1="950" x2="-800" y2="910"/>
    <line style="fill: none; stroke-opacity: 1; stroke-width: 8; stroke: #a52a2a" x1="-1000" y1="910" x2="-1020" y2="870"/>
    <line style="fill: none; stroke-opacity: 1; stroke-width: 8; stroke: #a52a2a" x1="-1000" y1="910" x2="-980" y2="870"/>
    <line style="fill: none; stroke-opacity: 1; stroke-width: 8; stroke: #a52a2a" x1="-880" y1="910" x2="-900" y2="870"/>
    <line style="fill: none; stroke-opacity: 1; stroke-width: 8; stroke: #a52a2a" x1="-880" y1="910" x2="-860" y2="870"/>
    <line style="fill: none; stroke-opacity: 1; stroke-width: 20; stroke: #a52a2a" x1="-400" y1="600" x2="-400" y2="400"/>
    <line style="fill: none; stroke-opacity: 1; stroke-width: 16; stroke: #a52a2a" x1="-400" y1="400" x2="-340" y2="280"/>
    <line style="fill: none; stroke-opacity: 1; stroke-width: 16; stroke: #a52a2a" x1="-400" y1="400" x2="-460" y2="280"/>
    <line style="fill: none; stroke-opacity: 1; stroke-width: 12; stroke: #a52a2a" x1="-460" y1="280" x2="-520" y2="250"/>
    <line style="fill: none; stroke-opacity: 1; stroke-width: 12; stroke: #a52a2a" x1="-460" y1="280" x2="-460" y2="210"/>
    <line style="fill: none; stroke-opacity: 1; stroke-width: 12; stroke: #a52a2a" x1="-340" y1="280" x2="-340" y2="210"/>
    <line style="fill: none; stroke-opacity: 1; stroke-width: 12; stroke: #a52a2a" x1="-340" y1="280" x2="-280" y2="250"/>
    <line style="fill: none; stroke-opacity: 1; stroke-width: 20; stroke: #a52a2a" x1="-800" y1="600" x2="-800" y2="400"/>
    <line style="fill: none; stroke-opacity: 1; stroke-width: 16; stroke: #a52a2a" x1="-800" y1="400" x2="-740" y2="280"/>
    <line style="fill: none; stroke-opacity: 1; stroke-width: 16; stroke: #a52a2a" x1="-800" y1="400" x2="-860" y2="280"/>
    <line style="fill: none; stroke-opacity: 1; stroke-width: 20; stroke: #a52a2a" x1="-1200" y1="600" x2="-1200" y2="400"/>
    <text font-size="56.4444" style="fill: #197ad8; fill-opacity: 1; stroke: none;text-anchor:middle;font-family:sans-serif;font-style:normal;font-weight:normal" x="-1200" y="681.9">
      <tspan x="-1200" y="681.9">Level 1</tspan>
    </text>
    <text font-size="56.4444" style="fill: #197ad8; fill-opacity: 1; stroke: none;text-anchor:middle;font-family:sans-serif;font-style:normal;font-weight:normal" x="-800" y="681.9">
      <tspan x="-800" y="681.9">Level 2</tspan>
    </text>
    <text font-size="56.4444" style="fill: #197ad8; fill-opacity: 1; stroke: none;text-anchor:middle;font-family:sans-serif;font-style:normal;font-weight:normal" x="-400" y="681.9">
      <tspan x="-400" y="681.9">Level 3</tspan>
    </text>
    <text font-size="56.4444" style="fill: #197ad8; fill-opacity: 1; stroke: none;text-anchor:middle;font-family:sans-serif;font-style:normal;font-weight:normal" x="-940" y="1381.9">
      <tspan x="-940" y="1381.9">Level 4</tspan>
    </text>
    <text font-size="56.4444" style="fill: #197ad8; fill-opacity: 1; stroke: none;text-anchor:middle;font-family:sans-serif;font-style:normal;font-weight:normal" x="-540" y="1381.9">
      <tspan x="-540" y="1381.9">Level 5</tspan>
    </text>
    <g>
      <line style="fill: none; stroke-opacity: 1; stroke-width: 30; stroke: #197ad8" x1="-1080" y1="660" x2="-961.041" y2="660"/>
      <polygon style="fill: #197ad8; fill-opacity: 1; stroke-opacity: 1; stroke-width: 30; stroke: #197ad8" fill-rule="evenodd" points="-953.541,660 -963.541,665 -961.041,660 -963.541,655 "/>
    </g>
    <g>
      <line style="fill: none; stroke-opacity: 1; stroke-width: 30; stroke: #197ad8" x1="-680" y1="660" x2="-561.041" y2="660"/>
      <polygon style="fill: #197ad8; fill-opacity: 1; stroke-opacity: 1; stroke-width: 30; stroke: #197ad8" fill-rule="evenodd" points="-553.541,660 -563.541,665 -561.041,660 -563.541,655 "/>
    </g>
    <g>
      <line style="fill: none; stroke-opacity: 1; stroke-width: 30; stroke: #197ad8" x1="-1220" y1="1360" x2="-1101.04" y2="1360"/>
      <polygon style="fill: #197ad8; fill-opacity: 1; stroke-opacity: 1; stroke-width: 30; stroke: #197ad8" fill-rule="evenodd" points="-1093.54,1360 -1103.54,1365 -1101.04,1360 -1103.54,1355 "/>
    </g>
    <g>
      <line style="fill: none; stroke-opacity: 1; stroke-width: 30; stroke: #197ad8" x1="-820" y1="1360" x2="-701.041" y2="1360"/>
      <polygon style="fill: #197ad8; fill-opacity: 1; stroke-opacity: 1; stroke-width: 30; stroke: #197ad8" fill-rule="evenodd" points="-693.541,1360 -703.541,1365 -701.041,1360 -703.541,1355 "/>
    </g>
  </g>
</svg>
