<?xml version="1.0" encoding="UTF-8" standalone="no"?>
<!DOCTYPE svg PUBLIC "-//W3C//DTD SVG 1.0//EN" "http://www.w3.org/TR/2001/PR-SVG-20010719/DTD/svg10.dtd">
<svg width="19cm" height="16cm" viewBox="179 219 376 302" xmlns="http://www.w3.org/2000/svg" xmlns:xlink="http://www.w3.org/1999/xlink">
  <defs/>
  <g id="Background"/>
  <g id="Background">
    <rect style="fill: #ffffff; fill-opacity: 1; stroke-opacity: 1; stroke-width: 2; stroke: #add8e6" x="180" y="260" width="240" height="100" rx="0" ry="0"/>
    <rect style="fill: #ffffff; fill-opacity: 1; stroke-opacity: 1; stroke-width: 2; stroke: #000000" x="180" y="420" width="240" height="100" rx="0" ry="0"/>
    <rect style="fill: #ffffff; fill-opacity: 1; stroke-opacity: 1; stroke-width: 2; stroke: #000000" x="180" y="380" width="80" height="40" rx="0" ry="0"/>
    <rect style="fill: #ffffff; fill-opacity: 1; stroke-opacity: 1; stroke-width: 2; stroke: #add8e6" x="180" y="220" width="80" height="40" rx="0" ry="0"/>
    <text font-size="25.4" style="fill: #000000; fill-opacity: 1; stroke: none;text-anchor:start;font-family:sans-serif;font-style:normal;font-weight:normal" x="290" y="460">
      <tspan x="290" y="460"></tspan>
    </text>
    <text font-size="25.4" style="fill: #000000; fill-opacity: 1; stroke: none;text-anchor:middle;font-family:sans-serif;font-style:normal;font-weight:normal" x="220" y="409.875">
      <tspan x="220" y="409.875">main</tspan>
    </text>
    <text font-size="25.4" style="fill: #000000; fill-opacity: 1; stroke: none;text-anchor:middle;font-family:sans-serif;font-style:normal;font-weight:normal" x="540" y="389.875">
      <tspan x="540" y="389.875">10</tspan>
    </text>
    <text font-size="25.4" style="fill: #add8e6; fill-opacity: 1; stroke: none;text-anchor:start;font-family:sans-serif;font-style:normal;font-weight:normal" x="290" y="300">
      <tspan x="290" y="300"></tspan>
    </text>
    <text font-size="25.4" style="fill: #add8e6; fill-opacity: 1; stroke: none;text-anchor:middle;font-family:sans-serif;font-style:normal;font-weight:normal" x="220" y="249.875">
      <tspan x="220" y="249.875">inc</tspan>
    </text>
    <text font-size="25.4" style="fill: #000000; fill-opacity: 1; stroke: none;text-anchor:middle;font-family:sans-serif;font-style:normal;font-weight:normal" x="540" y="349.875">
      <tspan x="540" y="349.875">11</tspan>
    </text>
    <text font-size="25.4" style="fill: #000000; fill-opacity: 1; stroke: none;text-anchor:middle;font-family:sans-serif;font-style:normal;font-weight:normal" x="540" y="309.875">
      <tspan x="540" y="309.875">12</tspan>
    </text>
    <text font-size="25.4" style="fill: #000000; fill-opacity: 1; stroke: none;text-anchor:middle;font-family:sans-serif;font-style:normal;font-weight:normal" x="540" y="429.875">
      <tspan x="540" y="429.875">9</tspan>
    </text>
    <text font-size="25.4" style="fill: #000000; fill-opacity: 1; stroke: none;text-anchor:middle;font-family:sans-serif;font-style:normal;font-weight:normal" x="540" y="469.875">
      <tspan x="540" y="469.875">...</tspan>
    </text>
    <text font-size="25.4" style="fill: #000000; fill-opacity: 1; stroke: none;text-anchor:middle;font-family:sans-serif;font-style:normal;font-weight:normal" x="540" y="269.875">
      <tspan x="540" y="269.875">...</tspan>
    </text>
    <g>
      <path style="fill: #ffffff; fill-opacity: 1; stroke-opacity: 1; stroke-width: 2; stroke: #000000" fill-rule="evenodd" d="M 300 440 L 353.333,440 C 368.061,440 380,448.954 380,460 C 380,471.046 368.061,480 353.333,480 L 300,480 L 300,440z"/>
      <text font-size="25.3996" style="fill: #000000; fill-opacity: 1; stroke: none;text-anchor:start;font-family:sans-serif;font-style:normal;font-weight:normal" x="310" y="471.906">
        <tspan x="310" y="471.906">x</tspan>
      </text>
    </g>
    <g>
      <path style="fill: none; stroke-opacity: 1; stroke-width: 2; stroke: #ff0000" d="M 360 460 C 419.76,460 460.24,380 510.264,380"/>
      <path style="fill: #ff0000; fill-opacity: 1; stroke-opacity: 1; stroke-width: 2; stroke: #ff0000" fill-rule="evenodd" d="M 360 460 C 360,457.5 362.5,455 365,455 C 367.5,455 370,457.5 370,460 C 370,462.5 367.5,465 365,465 C 362.5,465 360,462.5 360,460z"/>
      <polygon style="fill: #ff0000; fill-opacity: 1; stroke-opacity: 1; stroke-width: 2; stroke: #ff0000" fill-rule="evenodd" points="517.764,380 507.764,385 510.264,380 507.764,375 "/>
    </g>
    <g>
      <path style="fill: #ffffff; fill-opacity: 1; stroke-opacity: 1; stroke-width: 2; stroke: #add8e6" fill-rule="evenodd" d="M 300 280 L 353.333,280 C 368.061,280 380,288.954 380,300 C 380,311.046 368.061,320 353.333,320 L 300,320 L 300,280z"/>
      <text font-size="25.3996" style="fill: #add8e6; fill-opacity: 1; stroke: none;text-anchor:start;font-family:sans-serif;font-style:normal;font-weight:normal" x="310" y="311.906">
        <tspan x="310" y="311.906">a</tspan>
      </text>
    </g>
    <g>
      <path style="fill: none; stroke-opacity: 1; stroke-width: 2; stroke: #add8e6" d="M 360 300 C 419.76,300 400.24,280 460,280"/>
      <path style="fill: #add8e6; fill-opacity: 1; stroke-opacity: 1; stroke-width: 2; stroke: #add8e6" fill-rule="evenodd" d="M 360 300 C 360,297.5 362.5,295 365,295 C 367.5,295 370,297.5 370,300 C 370,302.5 367.5,305 365,305 C 362.5,305 360,302.5 360,300z"/>
    </g>
  </g>
</svg>
