<?xml version="1.0" encoding="UTF-8"?>
<svg width="204mm" height="254mm" version="1.1" viewBox="0 0 204 254" xml:space="preserve" xmlns="http://www.w3.org/2000/svg"><g transform="translate(-258 73.4)"><g transform="matrix(.568 0 0 .714 308 -81.4)"><path d="m55.5 70.7-51.4 40s-1.71 2.41-0.27 4.5c1.45 2.09 6.33 1.55 14.2-1.99 7.14-3.21 25.5-12.7 34.5-18.7 6.57-4.38 16.6-10.1 22.8-15.9 2.86-2.67 4.47-4.72 5.39-7.91 2.82-9.79-2.47-13.8-2.47-13.8z" fill="#ed6c31"/><path d="m7.09 112c5.65-0.99 20.9-10.7 28.7-15.1s34.9-20.9 38.5-27.4c2.03-3.66 3.01-10.4-0.1-14.6s-9.03-7.58-17.1-3.64c-7.48 3.64-22.2 23.3-29.6 31.5-10 11.1-18.9 21.6-22.5 26.1-1.23 1.54-1.4 2.34-1.4 2.34s1.33 1.28 3.51 0.89z" fill="#ff8d02"/><path d="m80.8 42.4c-0.26 1.76-2.01 3.37-5.09 6.13-4.05 3.64-5.71 3.43-6.44 5.3-0.45 1.17 0.47 3.67 2.91 6.34 2.18 2.39 4.17 3.16 4.99 3.01 1.99-0.35 3.12-3.01 7.27-6.44 3.08-2.54 4.16-3.43 5.71-3.32 1.56 0.1 2.89 1.57 4.57 3.32 2.49 2.6 7.36 4.94 12.4 3.25 6.01-2.02 6.25-7.6 6.87-8.22s5.23-0.53 7.62-3.34c2.39-2.8 3.08-9.59 2.04-11.5s-49.1-15.2-49.1-15.2-2.04 5.89-0.52 10.2c2.4 6.75 7.24 7.2 6.76 10.5z" fill="#2f7c31"/><path d="m47 68.4c2.14 1.94 4.36 0.42 5.82-1.04 1.31-1.31 4.36-4.26 5.71-5.19s4.05-3.01 5.82-4.36 1.57-5.88-2.39-5.19c-2.39 0.42-5.09 2.6-8.1 5.09-2.38 1.97-5.19 4.99-6.34 6.54-1.14 1.55-1.66 3.11-0.52 4.15z" fill="#ffa726"/><path d="m38 78.2c-1.47-1.47-2.88-0.47-4.88 1.71s-2.24 3.69-1.06 4.82c1.65 1.59 3.41-0.41 4.82-2s2.77-2.88 1.12-4.53z" fill="#ffa726"/><g fill="#ed6c31"><path d="m59.4 63.7c-1.07 0.94-0.99 2.57 0.25 3.97 1.51 1.7 2.96 3.15 4.23 4.23 1.26 1.07 2.9 0.57 3.47-0.19 0.78-1.04 0.63-2.4-0.5-3.6-0.96-1.01-3.09-3.41-4.35-4.35-0.83-0.61-2.09-0.94-3.1-0.06z"/><path d="m41.7 71.7c-1.55 1.35-0.69 3.47 0.44 5.11 1.14 1.64 2.96 3.78 5.05 2.52s0.25-4.73-0.69-6.12c-0.95-1.39-2.85-3.22-4.8-1.51z"/><path d="m32.1 88.8c-1.39 1.52-0.37 3.27 1.26 4.48 1.7 1.26 3.85 2.02 4.92 0.63s-0.32-3.41-1.64-4.35c-1.32-0.95-3.21-2.21-4.54-0.76z"/><path d="m14.8 99.5c-1.67 1.27-0.5 3.66 0.32 4.67s2.33 2.4 3.78 1.14c1.41-1.23 0.6-3.13-0.19-4.48-1.07-1.83-2.84-2.15-3.91-1.33z"/></g><path d="m88.4 16.2c0.76-0.13 8.16-8.86 19.4-2.95 10.8 5.7 5.93 14.9 6.33 15.5s5.17 0.4 7.83 4.39c2.85 4.28 2 6.65 2 6.65s-1.03 4-5.84 4.95c-3.04 0.6-6.42-0.77-7.37-0.29s-0.72 4.91-6.23 6.62c-3.5 1.09-10.6-0.35-15.2-4.72-4.67-4.43-3.08-9.11-5.95-11.4-3.99-3.14-12.2-7.58-8.24-14.7 4.56-8.17 12.5-3.93 13.2-4.06z" fill="#709921"/></g><g transform="matrix(.303 0 0 .282 333 -29.4)"><path d="m4.45 78.7c3.05 28.6 23.7 44.8 59.4 45.3s49-16.8 54.5-25.7c6.34-10.3 16.5-58.9-39.5-70.3-21.4-4.36-38-0.8-49.5 5.62-20.4 11.4-26.3 33.1-25 45.1z" fill="#ff8e00"/><path d="m115 11.2c-0.14-1.4-5.06-6.32-17.7-7.17s-22.1 4.76-26.4 12.6c-3.31 6.09-5.24 11.1-5.24 11.1l7.8 0.75 32.7-11.4z" fill="#5c6a23"/><path d="m89.3 18.2c8.77-3.08 25.6-7.02 25.6-7.02s-2.95 6.6-8.85 12.6-15.5 12.3-28.8 8.99c-5.43-1.35-9.03-4.89-9.03-4.89s7.91-5.08 21.1-9.72z" fill="#767e3a"/><path d="m55.9 11.9c-0.75 1.6 1.74 2.86 3.28 5.52 2.83 4.88 2.83 11.8 2.83 11.8s-6.04 0.64-5.85 5.91c0.17 4.69 4.36 6.62 9.19 6.62 5.27 0 7.32-3.92 7.13-6.49-0.3-3.98-4.43-5.52-4.43-5.52s0.58-9.12 0-13.7-1.35-5.72-2.7-6.3-8.48 0.12-9.45 2.18z" fill="#5c6a23"/><path d="m18.3 77.7c3.48 1.1 6.5-2.84 10.4-10.4 2.05-3.97 6.62-9.84 8.85-12.3 4.77-5.19 10.8-10.6 7.18-14.9-3.88-4.66-15.2 0.27-22.6 11.3s-8.93 24.8-3.85 26.4z" fill="#ffe265"/><g fill="#ff6110"><path d="m84 41.1c-0.57 2.28 0.43 4.21 2.11 4.35 2.02 0.17 3.02-1.77 3.06-3.75 0.03-1.6-1.03-2.67-2.41-2.8-1.39-0.12-2.42 0.82-2.76 2.2z"/><path d="m97.6 50.9c-1.49 1.6-1.65 4.67 0.26 5.86 2.15 1.34 4.39-0.43 5.13-1.94 0.58-1.19 0.9-3.13-0.47-4.39-1.65-1.51-3.72-0.82-4.92 0.47z"/><path d="m107 57.6c-0.38 1.92 0.43 4.12 2.47 4.43s3.42-1.67 3.54-3.13c0.16-1.84-0.56-3.32-2.18-3.94-1.62-0.64-3.49 0.9-3.83 2.64z"/><path d="m108 67.1c-1.35-0.66-4.02-0.11-4.93 3.09-0.74 2.6 0.11 5.12 2 5.58 2.54 0.61 4.22-1.36 4.65-3.58 0.49-2.49-0.16-4.32-1.72-5.09z"/><path d="m99.4 88.3c1.9 1.46 1.06 3.99-0.39 5.47-1.59 1.64-3.96 1.81-5.13 0.65-1.16-1.16-0.82-3.53 0.82-5.17s3.68-1.74 4.7-0.95z"/><path d="m74.2 106c0.77 1.58-0.34 3.62-1.81 4.69-1.17 0.86-4.18 1.77-5.6-0.3-1.17-1.7-0.3-3.49 1.64-4.95s4.91-1.2 5.77 0.56z"/></g></g><g transform="translate(157 -214)" stroke-width=".265"><path d="m182 390c-1.52-0.557-1.86-1.34-1.07-2.47l0.413-0.59-0.347-0.109c-0.191-0.0598-3.38-0.173-7.09-0.252-6.77-0.144-11.9-0.53-19.7-1.5-2.33-0.286-4.5-0.52-4.82-0.52h-0.594l0.316 2.3-1.21 0.304c-4.14 1.04-8.05-0.167-6.83-2.11 0.167-0.267 0.303-0.702 0.303-0.965v-0.48l-1.65-0.342c-0.91-0.188-2.49-0.406-3.51-0.483l-1.86-0.141-0.357 0.43c-0.72 0.868-3.3 0.382-3.71-0.699l-0.232-0.61-2.48-0.458c-9.5-1.76-14.5-3.54-15.3-5.41-0.28-0.696-1.22-15.2-2.94-45.3-0.444-7.79-0.872-14.7-0.952-15.3l-0.145-1.12h-3.7l-1.36-1.36 0.183-1.63c0.387-3.45 1.41-7.46 2.27-8.86l0.535-0.878 1.25-0.523c0.687-0.288 1.4-0.607 1.59-0.71 0.189-0.103 0.728-1.14 1.2-2.3 2.46-6.1 7.63-10.5 15.6-13.3 7.22-2.55 22.2-5.82 29.8-6.52 1.11-0.101 2.18-0.285 2.38-0.408l0.362-0.224 0.176-4.97c0.0969-2.74 0.259-12.6 0.361-21.9l0.185-17-1.51-0.72-0.151-5.75 0.39-0.595c0.215-0.327 0.665-0.659 1-0.736 0.336-0.0775 1.92-0.45 3.52-0.828 9.56-2.26 23.5-1.89 31.7 0.832l1.4 0.466 0.148 6.69-1.68 0.587 0.193 16.2c0.106 8.91 0.234 16.2 0.283 16.3 0.0493 0.0493 1.91-0.231 4.15-0.623 2.23-0.392 5.32-0.775 6.85-0.852l2.8-0.139 0.576 0.732c0.317 0.403 0.576 1.06 0.576 1.46v0.731l-0.879 0.772c-1.01 0.883-3.83 1.95-9.86 3.74l-4.21 1.25-0.169 1.18 1.21 1.1c0.665 0.606 1.52 1.73 1.89 2.49l0.679 1.39 2.96 0.729c1.63 0.401 4.01 1.06 5.3 1.46l2.34 0.73 1.53 1.46v8.29l1.06 0.958v3.29c0 1.81-0.113 5.57-0.252 8.36-0.717 14.4-0.852 13.5 2.08 14.1 2.78 0.558 3.66 1.15 4.64 3.1l0.777 1.55 0.224 4.3-1.11 1-3.57-0.721c-1.96-0.397-3.7-0.64-3.86-0.54l-0.294 0.182 0.0805 2.42c0.0443 1.33-0.0958 9.09-0.311 17.2-0.328 12.4-0.415 22-0.285 31.6l0.0229 1.7-0.41 0.626c-1.2 1.84-6.11 3.38-14.5 4.58-2.03 0.288-4.21 0.523-4.84 0.523h-1.14l-0.166 0.432c-0.0912 0.238-0.0279 0.653 0.141 0.922 0.396 0.635 0.375 1.27-0.0707 2.07l-0.358 0.647-4.95 0.156z" fill="#979797"/><path d="m181 390c-0.79-0.319-0.958-0.971-0.487-1.88 0.589-1.14 0.332-1.3-2.08-1.3-5.75-7.9e-4 -18.6-0.961-27-2.01-3.71-0.466-4-0.397-3.64 0.862 0.48 1.67-3.91 2.79-6.44 1.64l-0.674-0.307v-0.831c0-0.457 0.131-0.962 0.291-1.12 0.43-0.43 0.0255-1.38-0.639-1.51-0.318-0.0596-1.21-0.239-1.99-0.397-0.775-0.159-2.13-0.289-3-0.289h-1.59l-1.46 0.864-2.05-0.485-0.295-0.591c-0.162-0.325-0.342-0.638-0.4-0.695-0.0581-0.0572-2.25-0.539-4.87-1.07-9.66-1.96-12.6-3.19-12.9-5.45-0.0764-0.498-0.32-4-0.542-7.78-2.57-43.8-3.09-52.5-3.2-53l-0.13-0.585-3.41 0.319-1.34-0.881v-1.29c0-1.54 0.629-5.04 1.34-7.48l0.519-1.77 0.753-0.634c0.414-0.348 1.16-0.783 1.65-0.967 1.52-0.565 1.64-0.68 2.09-2.03 3.28-9.63 12.6-14.8 34.1-18.8 3.24-0.607 14.4-2.27 14.4-2.15 4e-3 0.028-0.0527 5.83-0.126 12.9l-0.132 12.8-2.12-0.0194c-1.16-0.0107-5.54-0.119-9.72-0.241l-7.61-0.222 0.138 14.9c0.403 43.5 0.921 61.4 1.79 61.9 1.68 1.05 24.5 3.52 27.8 3.01l1.2-0.179 0.127-0.579c0.221-1.01 0.308-7.33 0.101-7.33-0.109 0-0.766 0.302-1.46 0.67-0.694 0.369-1.91 0.859-2.7 1.09l-1.44 0.418-4.55-0.243-1.46-0.663c-1.84-0.837-4.1-2.62-4.63-3.65-0.521-1.01-0.233-1 1.19 0.0325 0.626 0.454 1.63 1.05 2.22 1.32l1.08 0.492 3.18 6e-3 1.32-0.617c1.39-0.649 2.96-2.19 3.74-3.66l0.462-0.876 0.014-6.38-0.731-1.5c-1.08-2.21-4.77-5.22-6.38-5.22h-0.406v4.7l-0.851 0.706-0.348-0.476c-0.192-0.262-0.309-0.912-0.26-1.45 0.0487-0.533 0.122-1.56 0.163-2.29l0.0749-1.32-0.888 0.0731c-2.94 0.241-5.78 2.91-6.25 5.86-0.252 1.58-0.634 1.59-0.634 0.0257 0-3.81 2.46-7.61 6.03-9.32l1.67-0.8 3.41-0.273-0.31-1.94 0.889-0.738 0.441 0.276c0.558 0.35 0.713 1.32 0.291 1.83-0.41 0.494-0.416 0.489 1.46 1.03 1.5 0.432 3.68 1.45 5.23 2.44l0.722 0.462 0.788-1.04 0.0107-4.23c6e-3 -2.33 0.0871-13.4 0.18-24.5l0.17-20.3-0.767-0.195c-0.422-0.107-2.2-0.203-3.94-0.213l-3.18-0.0185-0.14 17.1 0.317 0.382c0.174 0.21 0.757 0.606 1.3 0.881 1.32 0.672 2.6 2 3.19 3.29l0.483 1.06v3.7l-0.509 1.06c-0.93 1.94-2.26 3.04-3.66 3.04-0.489 0-0.843-0.0893-0.787-0.198 0.0562-0.109 0.334-0.675 0.617-1.26l0.515-1.06-0.01-4.76-0.723-1.38c-0.905-1.73-0.901-1.85 0.0712-2.06 0.909-0.2 0.95-0.321 0.382-1.13-0.478-0.683-1.16-0.745-2.21-0.202l-0.747 0.386-0.893-0.315c-0.491-0.173-0.938-0.342-0.992-0.375-0.0542-0.0329-0.157-9.8-0.229-21.7l-0.13-21.6 0.271-1.45c0.299-1.61 0.198-2.04-0.366-1.57l-0.373 0.31 0.0149-6.05c8e-3 -3.33 0.113-13 0.233-21.4 0.221-15.6 0.195-16.1-0.776-16.4l-0.529-0.168v-6.29l0.992-0.259c3.27-0.852 4.55-1.14 7.25-1.63 1.65-0.299 4.62-0.674 6.6-0.834l3.6-0.292 3.68 0.289c4.97 0.39 12.8 1.88 14.5 2.74l0.463 0.246v6l-0.86 0.357c-0.473 0.196-1.02 0.38-1.21 0.409-0.195 0.0289-0.433 0.131-0.529 0.226-0.0958 0.0957-0.21 7.15-0.255 15.7l-0.0806 15.5 1.44 1.5 5.2 1.69 3.64-0.338c4.39-0.408 5.55-0.448 5.8-0.197 0.664 0.664-3.36 2.23-12.3 4.79-1.99 0.57-2.07 0.548-2.27-0.662l-0.181-1.07-1.4 0.162-0.146 8.08 0.44 0.169c0.242 0.0928 0.632 0.048 0.867-0.0995l0.427-0.268 0.156-3.78 0.787 0.407c0.848 0.438 2.2 2.13 2.75 3.46l0.345 0.82 2.87 0.711c1.58 0.391 4.03 1.07 5.44 1.5l2.56 0.787 0.547 0.695c0.796 1.01 0.682 1.33-0.534 1.49-1.25 0.168-1.43 0.29-1.14 0.763 0.117 0.189 0.229 1.72 0.25 3.39 0.0206 1.68 0.123 3.31 0.229 3.64l0.191 0.595h0.591c0.325 0 0.714-0.123 0.864-0.273 0.316-0.316 1.06-0.0956 1.22 0.36 0.0601 0.171 0.0203 2.87-0.0883 6-0.109 3.13-0.238 8.72-0.287 12.4l-0.0897 6.75 1.59 0.352c0.873 0.194 2.22 0.539 2.99 0.767l1.4 0.415 0.498 0.699c0.274 0.384 0.749 1.44 1.06 2.35l0.558 1.66-0.184 3.19-0.378 0.237c-0.208 0.13-0.557 0.188-0.775 0.127-0.218-0.0607-1.93-0.435-3.79-0.832l-3.4-0.722-0.238 0.375c-0.131 0.206-0.239 0.634-0.242 0.95-2e-3 0.316-0.312 0.941-0.689 1.39l-0.685 0.814h-1.76l-0.826-0.695c-1.05-0.885-1.77-2.29-2.23-4.39l-0.369-1.66-0.132-9.74c-0.0729-5.36-0.205-9.81-0.295-9.9-0.168-0.168-6.47 0.358-7.46 0.623l-0.562 0.15-0.165 1.21c-0.0909 0.663-0.165 18.1-0.165 38.8v37.6l0.588 0.154c1.69 0.442 9.7-1.32 12.2-2.69l1.3-0.709 0.637-1.52 0.171 0.446c1.51 3.94-5.12 6.76-18.7 7.96l-2.04 0.18-0.623 0.751 0.371 0.693c0.446 0.833 0.355 1.68-0.228 2.13l-0.428 0.331-2.53-0.0168c-1.39-9e-3 -2.78-0.118-3.09-0.242z" fill="#6e6e6e"/><path d="m183 390c-1.93-0.276-2.31-0.835-1.43-2.09l0.42-0.599-0.574-0.691-6.95-0.158c-7.12-0.162-12.1-0.556-21-1.65-5.45-0.673-5.64-0.644-5.13 0.771l0.344 0.952-0.322 0.322c-0.425 0.425-5.24 0.609-6.2 0.238l-0.728-0.282v-0.615c0-0.338 0.128-0.743 0.285-0.9s0.246-0.619 0.198-1.03l-0.0868-0.741-1.46-0.334c-0.8-0.184-2.43-0.416-3.63-0.517l-2.17-0.184-0.66 0.433c-1.21 0.793-2.57 0.516-3.15-0.641l-0.307-0.615-1.85-0.334c-2.59-0.467-10.5-2.22-11.1-2.47-1.99-0.782-4.17-1.99-4.48-2.47l-0.368-0.575-0.693-11.2c-0.381-6.18-1.22-20-1.85-30.8-0.638-10.7-1.24-19.6-1.33-19.7-0.0948-0.0948-1.07-0.173-2.16-0.175l-1.99-3e-3 -0.773-1.06 0.171-1.46c0.761-6.46 1.93-9.06 4.46-9.98l1.3-0.472 0.827-2.12c4.08-10.4 16.7-16.2 43.5-19.7 4.89-0.646 4.48-1.02 4.23 3.83-0.241 4.75-0.259 8.88-0.0709 15.5l0.14 4.96-0.478 0.183c-0.263 0.101-3.29 0.039-6.73-0.138-9.97-0.512-16.6-0.676-16.7-0.414-0.173 0.292 0.503 60.8 0.784 70.2l0.202 6.73 0.739 0.197c3.79 1.01 17.2 2.84 26.1 3.56l5.42 0.439 4.37-0.149c2.4-0.0819 4.62-0.225 4.93-0.317l0.567-0.168 0.178-5.33c0.534-16 0.881-72.8 0.447-73-0.492-0.304-6.68-0.735-11.5-0.801l-4.99-0.0685-0.544-0.972 0.221-5.84c0.122-3.21 0.244-8.1 0.272-10.9 0.028-2.76 0.172-6.02 0.321-7.22l0.27-2.2 0.933-1.03-0.301-0.66c-0.318-0.697-0.717-0.814-1.37-0.402l-0.397 0.251-0.172 2.59c-0.0946 1.42-0.184 12.1-0.198 23.8l-0.0265 21.2h-0.512l-0.0749-22c-0.0412-12.1-8e-3 -22.5 0.074-23.1 0.189-1.36 0.0704-1.7-0.592-1.7h-0.532l0.157-4.83c0.0863-2.66 0.187-12.3 0.223-21.4l0.0662-16.5-1.47-0.708 0.15-5.65 0.661-0.313c0.972-0.46 8.3-1.91 10.7-2.11 1.12-0.0947 2.04-0.274 2.04-0.398 0-0.124 2.17-0.224 4.83-0.222 2.68 2e-3 4.67 0.102 4.48 0.225l-0.348 0.221 1.82 0.153c1.84 0.155 9.27 1.58 10.8 2.08l0.86 0.273v5.93l-2.16 0.455c-1.19 0.25-2.21 0.504-2.27 0.565-0.061 0.061-0.105 6.74-0.097 14.8l0.0139 14.7 1.93 1.8c1.06 0.993 2.17 1.81 2.47 1.82 0.298 7e-3 0.656 0.122 0.794 0.257 0.138 0.134 0.609 0.283 1.05 0.331l0.794 0.0865v0.776l-1.19 0.311c-0.655 0.171-2.38 0.592-3.84 0.935l-2.65 0.624 0.86 0.0829c0.98 0.0945 1.11 0.428 0.324 0.847l-0.536 0.287 0.147 7.5 1.31 0.652 7e-3 0.603c0.0128 1.11 2.55 0.584 2.93-0.604 0.0879-0.277 0.301-0.515 0.473-0.528 1.01-0.0794 2.74 0.108 3 0.327 0.17 0.14 2.08 0.717 4.24 1.28 2.16 0.564 4.63 1.29 5.48 1.6l1.55 0.578-0.318 0.196c-0.175 0.108-1.05 0.0362-1.95-0.16-0.898-0.196-2.76-0.433-4.15-0.527l-2.51-0.171 0.728 0.778c0.913 0.976 0.916 1.31 0.0138 1.53l-0.714 0.179 0.345 0.213c0.535 0.331 0.0671 0.486-2.91 0.963-1.52 0.243-2.9 0.483-3.09 0.532l-0.331 0.09v4.27l0.331 0.0968c0.182 0.0533 1.58 0.289 3.11 0.524 1.53 0.235 3.37 0.574 4.1 0.755l1.32 0.328-0.17 1.46h6.76l-0.635 0.635v6.71l0.807 0.67-0.807 0.892v14.7l-0.536 1 0.565 0.302c0.311 0.166 0.925 0.23 1.36 0.142 1.01-0.202 3.95 0.3 5.41 0.924l1.11 0.476 0.52 1.02c0.828 1.62 1.29 3.77 1.12 5.23l-0.154 1.32-0.433 0.0827c-1.17 0.224-2.18-1.75-2.51-4.91-0.0918-0.878-0.259-1.75-0.372-1.93l-0.205-0.332-3.4-0.188c-5.97-0.331-6.27 3.34-0.412 4.93 0.686 0.186 1.96 0.53 2.82 0.764 0.867 0.234 1.63 0.48 1.7 0.547 0.235 0.235-0.679 0.117-1.97-0.253-0.718-0.206-1.81-0.454-2.42-0.552l-1.12-0.177-1.74 3.62-1.63 0.16-0.795-0.669c-0.438-0.368-1.07-1.3-1.41-2.06l-0.616-1.4-0.189-5.29c-0.104-2.91-0.2-7.74-0.213-10.7l-0.0241-5.44-0.661-0.902-5.29 0.533c-2.91 0.293-5.65 0.63-6.09 0.749l-0.794 0.216-0.169 2.1c-0.242 3-0.32 75.7-0.0816 76.1l0.198 0.32 3.2-0.165c5.28-0.272 11-1.5 14-2.98 1.84-0.928 1.93 0.219 0.136 1.59-2.22 1.69-12.8 4.13-18 4.13h-1.26l-0.876 1.34 0.453 0.501c0.249 0.275 0.414 0.778 0.366 1.12l-0.0874 0.617-0.926 0.316c-0.999 0.341-2.35 0.374-4.23 0.105zm-68.3-90.2c0.126 0 1.3-1 2.62-2.23l2.39-2.23 4.44-2.76c2.44-1.52 5.63-3.38 7.08-4.14l2.65-1.38-1.32 0.182c-6.24 0.859-12.1 3.61-15.6 7.32-2.49 2.63-4.21 5.91-2.81 5.37 0.201-0.0773 0.469-0.141 0.595-0.141zm14.7-1.56c0.3-0.274 1.05-0.75 1.66-1.06l1.11-0.559h1.56c1.72 0 3.03-0.36 3.98-1.1 0.894-0.69 2.19-0.993 5.06-1.18l2.51-0.165 0.599-0.747 0.29 0.756 2.86 0.168c1.57 0.0924 3.52 0.232 4.32 0.31l1.46 0.142 1.9-1.51-0.716-0.669v-6.54l-2.05-0.0202c-1.13-0.0111-2.76-0.0953-3.62-0.187l-1.57-0.167-0.281 0.358c-0.298 0.38-2.53 0.532-2.53 0.173 0-1.03-8.27 0.382-8.78 1.5l-0.302 0.663-1.9-0.276-2.08 0.92c-3.21 1.42-4.85 2.5-7.1 4.66l-2.07 1.99v1.91l1.15 1.46 3.98-0.336zm40-23.3c0.728-0.127 2.45-0.429 3.84-0.671 3.54-0.621 8.61-2.1 9.47-2.75 0.397-0.305 1.02-0.784 1.38-1.06l0.661-0.509-1.16-9e-3c-2.89-0.022-16.5 3.54-16.8 4.4-0.214 0.559 0.36 1.21 0.884 1 0.231-0.0919 1.02-0.271 1.74-0.397zm-8.93 102c-1.29-0.304-3.34-1.35-4.4-2.24-1.07-0.899-0.935-1.04 0.356-0.386 0.554 0.283 1.66 0.66 2.46 0.838l1.45 0.325 1.47-0.309c1.99-0.418 3.22-1.29 4.5-3.2l1.07-1.6 0.186-1.99c0.102-1.09 0.104-2.87 4e-3 -3.94l-0.183-1.95-1.06-1.62c-1.11-1.7-2.46-2.93-4.47-4.09l-1.21-0.694-4.51 0.151-1.21 0.711c-0.668 0.391-1.71 1.28-2.32 1.97l-1.11 1.26 0.177-0.794c0.713-3.21 4.22-6.15 8.06-6.76l1.6-0.258 1.73 0.276c5.5 0.879 10 4.87 11.3 9.96l0.313 1.23 2.89 0.0508v1.85l-2.72-0.164-0.271 1.54c-1.17 6.64-7.89 11.3-14.1 9.85z" fill="#505050"/><path d="m184 389-0.166-0.433-2.9 0.341v-0.577c0-0.317 0.188-0.785 0.418-1.04l0.418-0.462-0.59-1.1-8.05-0.016 0.42-0.322c0.231-0.177 0.373-0.461 0.316-0.631-0.198-0.588 2.9-0.864 16-1.43l6.72-0.29 0.223 0.353c0.123 0.194 0.186 0.472 0.14 0.617-0.0928 0.293-5.42 1.14-7.37 1.17-1.73 0.0275-2.55 0.396-2.76 1.24l-0.179 0.712 0.964 0.705-0.341 0.638c-0.509 0.951-2.99 1.34-3.3 0.523zm-65.5-10.6c-0.509-0.0614-1.04-0.202-1.19-0.311-0.146-0.11-0.997-0.467-1.89-0.794-0.894-0.327-1.92-0.911-2.29-1.3l-0.661-0.706-0.298-4.76c-0.766-12.2-1.5-24.4-2.67-43.9-0.432-7.26-0.894-13.3-1.03-13.5-0.132-0.164-0.325-1.7-0.429-3.41-0.246-4.03-0.882-4.12-3.36-0.462l-0.806 1.19 0.182-1.32c0.323-2.35 1.26-5.7 1.83-6.56l0.561-0.845 3.26-1.03 0.166-0.942c0.0914-0.518 0.704-2.04 1.36-3.38l1.2-2.44 1.68-1.82c5.88-6.35 20.8-11.2 42.2-13.7l1.46-0.171-0.0995 3c-0.0547 1.65-0.116 3.01-0.137 3.03-0.0208 0.0189-3.67 0.165-8.11 0.326-7.92 0.286-9.66 0.418-16.5 1.26-11 1.34-21.6 8.11-21.6 13.8v0.505l-2.29 1.11-0.574 1.57c-0.814 2.23-0.783 2.26 1.34 1.24 2.61-1.25 3.03-1.23 2.05 0.0911-0.293 0.396-0.648 1.43-0.79 2.3l-0.257 1.58 0.26 2.92c0.143 1.6 0.379 4.64 0.525 6.75s0.386 5.56 0.534 7.67c0.148 2.11 0.39 6.28 0.539 9.26 0.563 11.3 0.779 14.7 1.04 16.5 0.248 1.71 0.477 4.03 1.06 10.7 0.12 1.38 0.354 3.11 0.521 3.84 0.166 0.728 0.416 2.19 0.553 3.25 0.138 1.06 0.416 2.32 0.617 2.8 0.202 0.483 0.451 1.72 0.554 2.74l0.187 1.87 0.836 0.788c0.46 0.433 1.07 0.919 1.37 1.08s0.41 0.276 0.265 0.257c-0.146-0.0189-0.681-0.0845-1.19-0.146zm42.2-2.19c-1.14-0.228-3.39-1.06-3.24-1.21 0.0487-0.0487 0.857 0.0951 1.8 0.319l1.71 0.408 3.1-0.263 3.34-1.64 2.85-3.08 0.605-1.56c0.343-0.885 0.668-2.44 0.75-3.58l0.145-2.02-0.554-1.82c-0.632-2.08-1.55-3.61-3.31-5.56-1.86-2.05-1.46-2.67 0.747-1.16 2.46 1.7 4.43 4.87 4.97 8.03l0.301 1.76-0.292 1.7c-1.07 6.26-7.15 10.8-12.9 9.67zm4.89-3.39c0-0.131 0.241-0.545 0.536-0.92 1.23-1.57 1.82-4.88 1.45-8.11l-0.189-1.62-1.54-2.34c-1.61-2.45-1.69-2.79-0.61-2.38 0.358 0.136 0.937 0.248 1.29 0.248 1.96 0 4.12 4.05 4.14 7.75l0.01 1.67-0.941 1.84c-0.885 1.73-2.09 3.01-3.55 3.79-0.327 0.174-0.595 0.21-0.595 0.0786zm12.3-69c-0.728-0.0482-1.6-0.151-1.94-0.228l-0.62-0.141 0.181-7.6-2.12-0.471 0.0883-0.383c0.0486-0.211 0.142-1.93 0.207-3.82 0.0651-1.89 0.159-3.94 0.208-4.55l0.09-1.11-1.55-0.539 0.279-0.521c0.616-1.15-0.478-3.78-2.12-5.1-1.06-0.853-1.35-1.54-0.64-1.54 0.5 0 0.514-0.797 0.0258-1.46l-0.371-0.508-2.87 0.621c-1.58 0.341-3.2 0.68-3.6 0.752l-0.728 0.131v-0.423c0-0.238 0.427-0.602 0.973-0.83 0.979-0.409 0.969-0.784-0.0249-0.964-1.55-0.28 0.0963-1.21 1.73-0.975l0.63 0.0891 0.0928 0.661c0.14 0.996 0.549 1.08 1.67 0.338l1.01-0.671 2.2 0.352 1.88-0.529c5.54-1.56 6.86-1.89 9.21-2.3l2.57-0.449 0.752 0.624 0.107 4.21c0.125 4.92-0.0866 4.52 2.52 4.74l2.06 0.172-0.529 0.291c-0.291 0.16-1.18 0.441-1.98 0.625-3.62 0.83-2.88 2.23 1.4 2.67 3.26 0.336 4.15 0.678 2.95 1.14l-0.407 0.156 0.152 5.17h1.49l0.28 0.498c0.157 0.279 0.213 1.06 0.127 1.79l-0.153 1.29 1.24 4e-3c0.684 2e-3 1.51 0.0754 1.84 0.163l0.595 0.16v7.57l-0.728 0.154c-3.12 0.659-13.3 1.09-18.2 0.764zm-16.5-4.78v-4.46l0.777-1.03 0.016-8.04 0.588-0.412c0.323-0.227 0.8-0.412 1.06-0.412 0.535 0 0.641-0.678 0.14-0.889-0.182-0.0766 0.175-0.116 0.793-0.0882 1.36 0.0618 1.44 0.473 0.241 1.18l-0.884 0.522-0.181 4.23c-0.0994 2.33-0.103 4.43-9e-3 4.68 0.103 0.269 2e-3 0.575-0.254 0.766l-0.426 0.318-0.141 7.94-1.72 0.166v-4.46zm-1.8-23.6-0.609-0.0913 0.135-1.1c0.0744-0.607 0.209-10.2 0.3-21.3l0.164-20.2-1.63-0.616v-5.45l0.679-0.258c0.373-0.142 0.909-0.258 1.19-0.258h0.512v6.1l0.809 0.311-0.805 0.599-0.0118 20.2-0.0119 20.2 0.499 0.607-0.612 1.33-0.608-0.0913zm15.3-23.6v-18.6l-0.926-0.682 0.529-0.173c0.291-0.095 0.797-0.28 1.12-0.41l0.595-0.237 0.0305-2.59c0.0168-1.42 0.0465-2.76 0.0661-2.98l0.0356-0.397 1.82-0.0789c2.27-0.0986 8.22 0.363 8.79 0.682l0.425 0.238 0.0866 5.88-0.996 0.168c-0.575 0.097-1.11 0.378-1.26 0.664l-0.265 0.496 0.162 15.2c0.178 16.6 0.162 16.3 0.676 16.1 3.07-0.794 6.12-0.158 5.61 1.17l-0.14 0.365-3.63-0.0672-0.882 0.732 0.837 0.171c0.46 0.0942 1.82-5.3e-4 3.01-0.21 2.14-0.376 2.58-0.363 4.42 0.125l0.926 0.246-0.397 0.163c-0.639 0.262-10.3 2.29-10.9 2.29h-0.559l0.592-0.415c0.326-0.228 0.519-0.534 0.429-0.68l-0.164-0.265-1.76 0.171c-0.968 0.0942-2.97 0.46-4.44 0.812-1.48 0.352-2.93 0.641-3.24 0.641h-0.559z" fill="#353535"/></g><g transform="matrix(.04 0 0 .0386 366 116)">

<path d="m419 93.5c-4.87 0.195-9.75 0.11-14.6 0.385-5.84-0.024-11.7 0.116-17.5 0.396-4.95-0.097-9.88 0.371-14.8 0.406-38.6 1.43-77.2 3.9-116 8.36-16.9 2-33.8 4.36-50.6 7.38-18.5 3.37-37 7.4-54.9 13.1-13 4.2-25.9 9.19-37.5 16.6-7.8 5.12-15.4 11.7-18.7 20.7-1.21 2.98-1.15 6.24-1.81 9.34 0.962 2.09 1.31 4.43 2.57 6.38 1.62 2.56 3.71 4.82 6.1 6.67 3.22-3.68 7.08-6.76 11.2-9.41 7.79-5.28 16.4-9.15 25.2-12.6 15.3-5.88 31.2-10 47.2-13.6 17.9-3.83 36-6.92 54.1-9.32 42.3-5.68 84.9-8.69 128-10.3 3.4-0.355 6.83-0.107 10.2-0.348 3.38-0.307 6.78-0.26 10.2-0.279 2.6 7e-3 5.19-0.34 7.79-0.344 9.09-0.063 18.2-0.133 27.3-0.16 5.04-0.455 10.1-0.232 15.2-0.283 6.36-0.043 12.7-0.0231 19.1 4e-3 4.41 0.035 8.83-0.158 13.2 0.266 7.27 0.086 14.6 0.0162 21.8 0.156 5.68 0.537 11.4 0.105 17.1 0.459 2.86 0.277 5.73 0.219 8.61 0.238 3.51-0.035 7 0.494 10.5 0.385 3.51-0.105 7 0.455 10.5 0.389 35.1 1.42 70.1 3.59 105 6.69 35.5 3.17 71 7.26 106 12.9 32.1 5.24 64.1 11.5 95.2 21.2 11 3.61 21.9 7.62 32.3 12.9 6.31 3.32 12.6 6.98 17.8 11.9-0.592 0.798-1.29 1.53-2.08 2.12-9.87 7.75-21.7 12.4-33.5 16.4-5.77 2.35-11.9 3.8-17.9 5.44-24.9 6.43-50.4 10.4-75.9 13.6-38.5 4.77-77.2 7.36-116 9.05-3.52-0.07-7 0.483-10.5 0.393-2.98-0.082-5.93 0.288-8.9 0.385 0.46 4 0.198 8.04 0.447 12.1 0.265 3.94 0.262 7.9 0.285 11.9 31.8 2.11 63.5 5.18 95 10.4 17.7 2.94 35.3 6.5 52.6 11.2 14.4 3.98 28.7 8.71 42.3 15 11.1 5.18 21.9 11.3 31.1 19.5 7.52 6.63 13.9 14.8 17.4 24.3 2.65 7.2 3.45 15 2.68 22.6-2.17 43.4-4.93 86.8-7.8 130-5.55 82-12 164-19.1 246-6.79 77-14.2 154-22.7 231-1.93 18.1-15.5 50.2-17.5 68.4 8.37-3.5-19 113-20 166-19.2 18.4-140 320-155 323-25.4 6.12-51.5 9.43-77.6 11.1-0.93 1.98-2.65 3.38-4.02 5.04-3.63 3.89-7.18 7.86-11 11.6-5.36 5.28-10.5 10.8-16.2 15.8-20.9 19.4-44.2 36.2-69.7 49.1-13.4 6.6-27.4 12.1-41.8 16.2-16 4.58-32.5 7.47-49.1 8.67-20.4 1.53-40.9 0.474-61.1-2.47-2.24-0.385-4.49-0.815-6.78-0.652 7.83 3.91 16 7.12 24.2 10.1 32.1 11.4 65.7 18.3 99.4 23.2 37.2 5.21 74.9 7.53 112 6.7 9.98-0.054 19.9-0.719 29.9-1.33 33.7-2.46 67.4-7.58 99.6-17.9 15.4-4.99 30.4-11.2 44.5-19.3 11.6-6.74 22.5-14.9 31.9-24.6 4.08-4.19 7.56-8.93 10.4-14 15.5-53 62.9-280 73.6-378 0 0 9.64-61.5 30-220 10.3-102 19.2-203 27.2-305 7.06-90.2 13.4-181 18.7-271 3.2-55 6.14-110 8.15-165 0.288-3.88 0.108-7.77 0.404-11.6 0.258-5.19 0.173-10.4 0.496-15.6 0.175-3.81-0.0125-7.62 0.229-11.4 0.32-9.16 0.269-18.3 0.273-27.5-0.016-5.84 0.0899-11.7-0.369-17.5 0.043-2.74-0.599-5.44-0.428-8.18 0.141-2.4-0.264-4.81-1.12-7.05-2.02-5.27-6.03-9.49-10.3-13-8.52-6.76-18.5-11.4-28.5-15.5-14.6-5.86-29.7-10.3-45-14.1-17.8-4.46-35.7-8.08-53.8-11.3-36.4-6.33-73-10.8-110-14.4-40.5-3.83-81.1-6.4-122-7.96-4.42-0.035-8.83-0.486-13.3-0.404-4.67-0.237-9.35-0.419-14-0.396-5.96-0.319-11.9-0.393-17.9-0.389-4.87-0.284-9.75-0.185-14.6-0.387z" fill="#86cceb" stroke="#86cceb"/>

<path d="m422 127c5.04-0.456 10.1-0.234 15.2-0.284 6.36-0.043 12.7-0.023 19.1 4e-3 4.41 0.035 8.83-0.16 13.2 0.265 7.27 0.086 14.6 0.016 21.8 0.156 5.68 0.537 11.4 0.105 17.1 0.459 2.86 0.276 5.73 0.218 8.6 0.238 3.51-0.035 7 0.494 10.5 0.385 3.51-0.105 7 0.456 10.5 0.389 35.1 1.42 70.1 3.59 105 6.69 35.5 3.17 71 7.26 106 12.9 32.1 5.24 64.1 11.5 95.2 21.2 11 3.61 21.9 7.62 32.3 12.9 6.31 3.32 12.6 6.98 17.8 11.9-0.592 0.798-1.29 1.53-2.08 2.12-9.87 7.75-21.7 12.4-33.5 16.4-5.77 2.35-11.9 3.8-17.9 5.44-24.9 6.43-50.4 10.4-75.9 13.6-38.5 4.77-77.2 7.36-116 9.05-3.52-0.07-7 0.483-10.5 0.393-2.98-0.082-5.93 0.288-8.9 0.385-5.74-0.058-11.5 0.428-17.2 0.417-4.42-8e-3 -8.82 0.284-13.2 0.327-13.8 0.082-27.5 0.483-41.3 0.417-6.88-0.019-13.8 0.055-20.6-0.062-3.8-0.047-7.6 0.101-11.4-0.132-9.17-0.206-18.4-0.055-27.5-0.452-5.1-0.136-10.2-0.058-15.3-0.331-41.7-1.08-83.3-3.16-125-6.28-33.8-2.58-67.6-5.86-101-10.3-17.2-2.29-34.5-4.88-51.6-7.97-18.1-3.27-36.1-7.04-53.8-12-8.33-2.34-16.6-4.9-24.7-8.04-9.12-3.59-18.3-7.63-25.9-13.9 3.22-3.68 7.08-6.76 11.2-9.41 7.8-5.28 16.4-9.15 25.2-12.6 15.3-5.88 31.2-10 47.2-13.6 17.9-3.83 36-6.92 54.1-9.32 42.3-5.68 84.9-8.69 128-10.3 3.4-0.354 6.82-0.105 10.2-0.347 3.38-0.308 6.78-0.261 10.2-0.28 2.6 8e-3 5.19-0.339 7.79-0.343 9.09-0.063 18.2-0.133 27.3-0.16z" fill="#68c3e7" stroke="#68c3e7"/>

<path d="m92.8 170c0.962 2.09 1.31 4.43 2.57 6.38 1.62 2.56 3.71 4.82 6.1 6.67 7.63 6.26 16.8 10.3 25.9 13.9 8.06 3.15 16.3 5.7 24.7 8.04 17.7 4.92 35.7 8.69 53.8 12 17.1 3.09 34.3 5.68 51.6 7.97 33.6 4.44 67.4 7.71 101 10.3 41.6 3.13 83.2 5.2 125 6.28 5.09 0.273 10.2 0.195 15.3 0.331 9.17 0.397 18.4 0.245 27.5 0.452 3.79 0.234 7.59 0.086 11.4 0.132 6.88 0.117 13.8 0.043 20.6 0.062 13.8 0.066 27.5-0.335 41.3-0.417 4.41-0.043 8.82-0.335 13.2-0.327 5.73 0.012 11.5-0.475 17.2-0.417 0.459 4 0.199 8.04 0.448 12.1 0.265 3.94 0.261 7.9 0.284 11.9-41.2-2.65-82.5-3.11-124-3.75-21-0.097-42-0.37-63.1-0.078-11-0.031-22.1 0.183-33.1 0.393-29.5 0.537-59 1.58-88.4 3.45-33.6 2.21-67.3 5.3-101 11-16 2.8-31.9 6.2-47.4 11-13.2 4.24-26.5 9.29-37.7 17.6-5.05 3.75-9.65 8.31-12.6 13.9-2.86 5.35-3.8 11.7-2.72 17.6 0.28 1.5 0.619 2.98 0.829 4.48 0.483 19.5 1.42 38.9 2.18 58.4 4.06 93.3 9.49 187 16.1 280 5.67 79.3 12.3 159 20.1 238 9.08 91.3 19.6 182 33.6 273 6.1 39.2 12.9 78.3 20.9 117 7.08 33.9 15 67.6 25.2 101 5.05 16.2 10.7 32.3 17.5 47.9 4.46 9.98 9.37 19.8 15.4 28.9 3.29 5.27 7.93 9.55 12.9 13.2 10.4 7.45 22.2 12.7 34.1 17.2 16.4 6.17 33.3 10.8 50.4 14.6 35 7.73 70.8 12.1 107 14.1 9.87 0.452 19.7 0.911 29.6 0.849 4.15 0.105 8.3 0.148 12.5 0.012 7.75 0 15.5-0.132 23.2-0.666 3.34-0.047 6.67-0.343 10-0.463-0.931 1.98-2.65 3.38-4.02 5.04-3.63 3.89-7.18 7.86-11 11.6-5.36 5.28-10.5 10.8-16.2 15.8-20.9 19.4-44.2 36.2-69.7 49.1-13.4 6.6-27.4 12.1-41.8 16.2-16 4.58-32.5 7.48-49.1 8.67-20.4 1.53-40.9 0.475-61.1-2.47-2.24-0.385-4.49-0.818-6.78-0.654-6.14-2.84-12.1-6.19-17.7-9.92-6.14-4.22-12.1-8.94-16.5-15-3.83-5.56-7.08-11.5-10.2-17.5-11-21.9-18.9-45.2-26.1-68.7-8.42-28.2-15.3-56.9-21.5-85.7-7.84-36.6-14.5-73.4-20.6-110-12-73.6-21.5-148-29.9-222-14.1-125-24.8-251-33.8-376-5.57-78.7-10.4-157-14.5-236-3.56-68.9-6.62-138-8.77-207-1.01-34.5-2-69-1.86-104-0.035-5.72 0.097-11.4 0.323-17.1 0.154-2.62 0.197-5.26 0.723-7.84z" fill="#a8d9f0" stroke="#a8d9f0"/>

<path d="m444 261c21-0.292 42-0.019 63.1 0.078 41.3 0.642 82.6 1.1 124 3.75 31.8 2.11 63.5 5.18 95 10.4 17.7 2.94 35.3 6.5 52.6 11.2 14.4 3.98 28.7 8.71 42.3 15 11.1 5.18 21.9 11.3 31.1 19.5 7.52 6.63 13.9 14.8 17.4 24.3 2.65 7.2 3.45 15 2.68 22.6-1.23 2.36-2.52 4.75-4.45 6.64-4.92 5.19-11.5 8.33-17.9 11.3-3.17 1.38-6.4 2.62-9.66 3.76-13.4 4.75-27.2 8.05-41 11-32.9 6.67-66.2 10.7-99.6 13.8-11.3 1.03-22.6 1.92-33.9 2.71-6.93 0.545-13.9 0.802-20.8 1.39-10.1 0.432-20.1 1.11-30.2 1.41-3.94 0.335-7.89 0.206-11.8 0.494-3.89 0.261-7.8 0.093-11.7 0.385-5.39 0.28-10.8 0.086-16.2 0.459-5.58 0.105-11.2 0.136-16.8 0.191-9.34 0.42-18.7 0.214-28 0.269-10.3-8e-3 -20.5 0.031-30.8-0.062-5.44-0.323-10.9-0.214-16.3-0.327-5.33 0.051-10.6-0.424-16-0.374-34.7-1.01-69.4-2.73-104-5.68-39.2-3.32-78.4-7.97-117-15.4-14-2.72-27.9-5.93-41.7-9.7-15.4-4.27-30.7-9.39-45.2-16.3-6.58-3.18-12.9-6.83-18.8-11.1-4.47-3.39-8.76-7.11-12.1-11.7-2.54-3.07-4.16-6.73-5.74-10.3-0.21-1.51-0.549-2.99-0.829-4.48-1.08-5.96-0.136-12.3 2.72-17.6 2.96-5.6 7.55-10.2 12.6-13.9 11.3-8.26 24.5-13.3 37.7-17.6 15.5-4.84 31.4-8.24 47.4-11 33.2-5.73 66.9-8.82 101-11 29.4-1.86 58.9-2.91 88.4-3.45 11-0.209 22.1-0.423 33.1-0.392z" fill="#f3b641" stroke="#f3b641"/>

<path d="m122 341c0.483 19.5 1.42 38.9 2.18 58.4 4.06 93.3 9.49 187 16.1 280 5.67 79.3 12.3 159 20.1 238 9.08 91.3 19.6 182 33.6 273 6.1 39.2 12.9 78.3 20.9 117 0.689-1.23 1.62-2.3 2.79-3.08 2.26 4.19 3.96 8.66 6.38 12.8 8.84 17.4 43.8 88.2 56.7 103 95.9 66.3 192 65.9 282 113-2.8 1.66-5.79 2.97-8.6 4.61-2.8 1.57-5.74 2.88-8.68 4.18-1.28 0.541-2.48 1.26-3.49 2.22 3.34-0.046 6.67-0.342 10-0.463 26.1-1.71 52.1-5.02 77.6-11.1 14.8-3.6 40.8-4.12 54.8-10.2 6.92-4.54 20.3-18.4 25.3-27.9 35.2-66.2 81.8-245 106-465 1.97-18.1 4.18-36.2 6.11-54.3 8.48-76.8 15.9-154 22.7-231 7.18-81.8 13.6-164 19.1-246 2.87-43.4 5.63-86.7 7.8-130-1.23 2.36-2.52 4.75-4.45 6.63-4.92 5.19-11.5 8.33-17.8 11.3-3.17 1.38-6.4 2.62-9.66 3.76 0.9 3.52-0.108 7.12-0.0527 10.7 0.066 2.73-0.438 5.44-0.395 8.18 0.031 2.73-0.467 5.44-0.393 8.18-7.07 135-16.7 271-29.4 406-6.84 72.2-14.6 144-23.7 216-0.311 1.86-0.214 3.85-0.977 5.62-0.706 0.687-109-0.596-194-1.5 2.31-10.6 4.5-21.3 6.59-32 6.77-33.9 12.2-68 17.3-102 14-95.2 24-191 28.7-287 0.366-2.95 0.0498-5.94 0.424-8.88 0.319-2.74 0.0305-5.51 0.354-8.25 0.202-1.86 0.246-3.74 0.207-5.61-0.078-2.87 0.47-5.7 0.404-8.57-0.046-2.13-0.0348-4.27 0.199-6.38 0.397-3.69-0.0183-7.4 0.305-11.1 0.6-5.58-0.0783-11.2 0.553-16.8 0.312-7.26-0.215-14.5 0.451-21.8 0.058-19.1 0.062-38.2 0-57.3-0.767-7.89 0.0735-15.8-0.689-23.7-0.175-3.93 0.157-7.88-0.287-11.8-0.338-3.2 7e-3 -6.42-0.246-9.62-0.498-4.46-0.0809-8.96-0.836-13.4-10.1 0.433-20.1 1.11-30.2 1.41-3.94 0.334-7.89 0.206-11.8 0.494-3.89 0.26-7.79 0.0928-11.7 0.385-5.39 0.28-10.8 0.085-16.2 0.459-5.58 0.105-11.2 0.136-16.8 0.191-9.34 0.421-18.7 0.215-28 0.27-10.3-7e-3 -20.5 0.0305-30.8-0.0625-5.44-0.323-10.9-0.215-16.3-0.328-5.33 0.05-10.6-0.424-16-0.373-34.7-1.01-69.4-2.73-104-5.68-39.2-3.32-78.4-7.97-117-15.4-14-2.72-27.9-5.93-41.7-9.7-15.4-4.27-30.7-9.39-45.2-16.3-6.58-3.18-12.9-6.83-18.8-11.1-4.47-3.39-8.75-7.11-12.1-11.7-2.54-3.07-4.16-6.73-5.74-10.3zm57.3 92.3c1.06-0.0706 2.15 0.286 2.95 1.01 3.93 3.48 7.55 7.35 10.4 11.8 6.11 9.25 10.4 19.6 14 30 5.44 15.9 9.2 32.3 12.4 48.7 9.04 48.8 12.6 98.5 14.7 148-0.023 5.07 0.475 10.1 0.436 15.2-0.055 4.03 0.39 8.04 0.328 12.1 0.058 5.32 0.131 10.6 0.143 16 0.412 6.09 0.129 12.2 0.211 18.3-0.078 6.62 0.202 13.2-0.219 19.8-0.016 6.63-0.101 13.3-0.188 19.9-0.429 5.44-0.132 10.9-0.529 16.4-0.615 21.2-1.76 42.3-3.35 63.5-1.41 17.8-3.14 35.6-5.72 53.3-1.19 7.96-2.49 15.9-4.27 23.8-1.34 6.02-2.94 12-5.24 17.7-1.14 2.38-2.21 4.88-4.06 6.82-1.19 1.25-3.16 1.96-4.78 1.12-2.42-1.17-3.71-3.67-4.98-5.9-3.74-7.65-6.09-15.9-8.21-24.1-4.24-17.1-7.13-34.4-9.71-51.8-5.2-36.1-8.69-72.4-11.6-109-2.89-37.6-4.97-75.2-6.36-113-0.089-5.33-0.49-10.7-0.467-16-0.358-5.05-0.292-10.1-0.42-15.2-0.381-5.57-0.235-11.2-0.363-16.7 0.07-2.99-0.326-5.96-0.244-8.94-0.137-18.2-0.16-36.3-0.0156-54.5-0.058-4.42 0.365-8.82 0.307-13.2-0.042-5.46 0.457-10.9 0.457-16.3 0.962-19.7 1.86-39.5 5.24-59 0.678-3.5 1.31-7.01 2.43-10.4 0.81-2.45 1.52-4.98 3-7.12 0.681-0.978 1.48-1.98 2.63-2.42 0.339-0.121 0.69-0.191 1.04-0.215zm40.6 573c2.36 0.032 4.7 0.41 6.88 1.32 6.06 2.38 10.5 7.51 14.1 12.8 6.1 9.59 9.8 20.5 12.5 31.5 4.84 20.1 6.44 41 4.91 61.6-0.693 8.06-1.97 16.1-4.51 23.8-1.04 2.97-2.14 5.94-3.79 8.63-2.06 3.51-4.81 6.85-8.62 8.51-3.31 1.43-7.14 1.39-10.5 0.144-3.98-1.31-7.22-4.11-10-7.12-4.86-5.02-8.32-11.2-11.4-17.4-6.82-14.5-11.1-30.1-13.7-45.8-1.96-12-2.88-24.3-2.25-36.5 0.494-7.89 1.61-15.8 4.27-23.3 1.75-4.5 3.91-9.02 7.51-12.3 2.72-2.93 6.47-4.84 10.4-5.53 1.39-0.188 2.81-0.293 4.22-0.273z" fill="#efa026" stroke="#efa026"/>

<path d="m799 401c13.9-2.91 27.7-6.21 41-11 0.899 3.52-0.109 7.12-0.054 10.7 0.066 2.73-0.436 5.44-0.393 8.18 0.031 2.73-0.467 5.44-0.393 8.18-7.07 135-16.7 271-29.4 406-6.84 72.2-14.6 144-23.7 216-0.311 1.86-0.214 3.85-0.977 5.62-1.15 1.12-2.69 1.72-4.03 2.58-25.2 145-50.6 333-154 439-19.2 18.1-40.7 33.9-63.8 46.7-2.8 1.66-5.79 2.97-8.6 4.61-2.8 1.57-5.74 2.88-8.68 4.18-1.28 0.541-2.48 1.26-3.49 2.22-7.73 0.533-15.5 0.67-23.2 0.666-4.15 0.136-8.3 0.094-12.5-0.012-9.88 0.062-19.8-0.397-29.6-0.849-35.8-1.95-71.5-6.33-107-14.1-17.1-3.84-34-8.44-50.4-14.6-11.9-4.57-23.7-9.8-34.1-17.2-5-3.63-9.63-7.91-12.9-13.2-6.07-9.12-11-18.9-15.4-28.9-6.84-15.6-12.5-31.6-17.5-47.9-10.2-33.1-18.2-66.8-25.2-101 0.689-1.23 1.62-2.3 2.79-3.08 2.25 4.19 3.96 8.66 6.38 12.8 8.84 17.4 19.6 33.8 32.5 48.4 1.84 2.3 4.14 4.18 5.98 6.5 2.02 2.52 4.79 4.28 6.93 6.68 14.9 13.8 32.5 24.8 51.9 31 9.11 3.09 18.7 4.89 28.3 5.25 3.8 0.541 7.6-0.09 11.4-0.218 16.9-1.31 33.4-6.9 48.2-15.2 12-6.67 22.9-15 33-24.2 3.48-3.01 6.54-6.44 9.85-9.62 2.36-2.19 4.32-4.76 6.58-7.04 24.2-27.1 43-58.6 59.2-91.1 2.84-6.21 5.95-12.3 8.66-18.6 16.8-37.3 30.2-76 41.7-115 11.7-40.2 21.3-81 29.3-122 6.77-33.9 12.2-68 17.3-102 14-95.2 24-191 28.7-287 0.366-2.95 0.051-5.94 0.424-8.88 0.319-2.74 0.031-5.51 0.354-8.25 0.203-1.86 0.245-3.74 0.206-5.61-0.078-2.87 0.471-5.7 0.405-8.57-0.047-2.13-0.035-4.27 0.199-6.38 0.397-3.69-0.019-7.4 0.304-11.1 0.6-5.58-0.078-11.2 0.553-16.8 0.312-7.26-0.214-14.5 0.452-21.8 0.058-19.1 0.062-38.2 0-57.3-0.767-7.89 0.074-15.8-0.689-23.7-0.175-3.93 0.156-7.88-0.288-11.8-0.339-3.2 8e-3 -6.42-0.245-9.62-0.498-4.46-0.082-8.96-0.837-13.4 6.92-0.588 13.9-0.845 20.8-1.39 11.3-0.786 22.6-1.67 33.9-2.71 33.4-3.08 66.7-7.11 99.6-13.8z" fill="#ec8d26" stroke="#ec8d26"/>

<path d="m179 433c1.36-0.483 2.93-0.171 4 0.794 3.93 3.48 7.55 7.35 10.4 11.8 6.11 9.25 10.4 19.6 14 30 5.44 15.9 9.2 32.3 12.4 48.7 9.04 48.8 12.6 98.5 14.7 148-0.023 5.06 0.475 10.1 0.436 15.2-0.054 4.03 0.389 8.04 0.327 12.1 0.058 5.32 0.132 10.6 0.144 16 0.413 6.09 0.128 12.2 0.21 18.3-0.078 6.62 0.202 13.2-0.218 19.8-0.016 6.63-0.101 13.3-0.187 19.9-0.428 5.44-0.132 10.9-0.53 16.4-0.615 21.2-1.76 42.3-3.35 63.5-1.41 17.8-3.14 35.6-5.72 53.3-1.19 7.96-2.5 15.9-4.27 23.8-1.34 6.02-2.94 12-5.24 17.7-1.14 2.38-2.22 4.88-4.06 6.82-1.19 1.25-3.16 1.96-4.78 1.12-2.42-1.17-3.71-3.67-4.98-5.9-3.74-7.66-6.09-15.9-8.21-24.1-4.24-17.1-7.12-34.4-9.71-51.8-5.2-36.1-8.69-72.4-11.6-109-2.89-37.6-4.97-75.2-6.36-113-0.09-5.33-0.491-10.7-0.467-16-0.358-5.05-0.292-10.1-0.42-15.2-0.382-5.57-0.234-11.2-0.362-16.7 0.07-2.99-0.327-5.96-0.245-8.94-0.136-18.2-0.16-36.3-0.016-54.5-0.058-4.42 0.366-8.82 0.308-13.2-0.043-5.46 0.456-10.9 0.456-16.3 0.962-19.7 1.86-39.5 5.24-59 0.677-3.5 1.31-7.01 2.43-10.4 0.81-2.45 1.52-4.98 3-7.12 0.682-0.975 1.48-1.98 2.63-2.42z" fill="#f3b641" stroke="#f3b641"/>

<path d="m216 1006c3.7-0.502 7.61-0.413 11.1 1.05 6.06 2.38 10.5 7.51 14.1 12.8 6.1 9.59 9.8 20.5 12.5 31.5 4.84 20.1 6.44 41 4.91 61.6-0.693 8.06-1.97 16.1-4.51 23.8-1.04 2.97-2.14 5.94-3.79 8.63-2.06 3.51-4.81 6.86-8.62 8.51-3.31 1.43-7.14 1.39-10.5 0.144-3.98-1.31-7.22-4.11-10-7.12-4.86-5.02-8.32-11.2-11.4-17.4-6.82-14.5-11.1-30.1-13.7-45.8-1.96-12-2.88-24.3-2.25-36.5 0.494-7.89 1.61-15.8 4.27-23.3 1.75-4.5 3.91-9.02 7.51-12.3 2.72-2.93 6.47-4.84 10.4-5.53z" fill="#f3b641" stroke="#f3b641"/>

</g><text x="308.40326" y="-49.490341" fill="#000000" font-family="serif" font-size="25.4px" stroke-width=".265" text-anchor="middle" style="line-height:1.25" xml:space="preserve"><tspan x="293.37494" y="-49.490341"><tspan x="293.37494" y="-49.490341" fill="#5c6a23" font-size="25.4px" stroke-width=".07" text-align="center"><tspan x="293.37494" y="-49.490341" fill="#5c6a23" font-family="serif" font-size="25.4px" stroke-width=".0185" text-align="center" text-anchor="middle">Input:</tspan></tspan></tspan><tspan x="293.37494" y="-17.740341" font-family="serif" font-style="italic">x</tspan></text><text x="435.93518" y="78.601532" fill="#000000" font-family="serif" font-size="25.4px" stroke-width=".265" text-anchor="middle" style="line-height:1.25" xml:space="preserve"><tspan x="417.36145" y="78.601532"><tspan x="417.36145" y="78.601532" fill="#5c6a23" font-size="25.4px" stroke-width=".07" text-align="center"><tspan x="417.36145" y="78.601532" fill="#5c6a23" font-family="serif" font-size="25.4px" stroke-width=".0185" text-align="center" text-anchor="middle">Output:</tspan></tspan></tspan><tspan x="417.36145" y="110.35153" font-family="serif" font-style="italic">f(x)</tspan></text></g></svg>
