<?xml version="1.0" encoding="UTF-8"?>
<svg width="9cm" height="9cm" version="1.1" viewBox="318 378 163 163" xmlns="http://www.w3.org/2000/svg">
 <g>
  <g stroke="#000" stroke-width="2">
   <rect x="360" y="440" width="20" height="20" rx="0" ry="0" fill="#ff7f50"/>
   <rect x="320" y="380" width="20" height="20" rx="0" ry="0" fill="#fffff0"/>
   <rect x="340" y="380" width="20" height="20" rx="0" ry="0" fill="#ff7f50"/>
   <rect x="360" y="380" width="20" height="20" rx="0" ry="0" fill="#fffff0"/>
   <rect x="380" y="380" width="20" height="20" rx="0" ry="0" fill="#ff7f50"/>
   <rect x="340" y="400" width="20" height="20" rx="0" ry="0" fill="#fffff0"/>
   <rect x="360" y="400" width="20" height="20" rx="0" ry="0" fill="#ff7f50"/>
   <rect x="380" y="400" width="20" height="20" rx="0" ry="0" fill="#fffff0"/>
   <rect x="320" y="400" width="20" height="20" rx="0" ry="0" fill="#ff7f50"/>
   <rect x="320" y="420" width="20" height="20" rx="0" ry="0" fill="#fffff0"/>
   <rect x="340" y="420" width="20" height="20" rx="0" ry="0" fill="#ff7f50"/>
   <rect x="360" y="420" width="20" height="20" rx="0" ry="0" fill="#fffff0"/>
   <rect x="380" y="420" width="20" height="20" rx="0" ry="0" fill="#ff7f50"/>
   <rect x="340" y="440" width="20" height="20" rx="0" ry="0" fill="#fffff0"/>
   <rect x="380" y="440" width="20" height="20" rx="0" ry="0" fill="#fffff0"/>
   <rect x="320" y="440" width="20" height="20" rx="0" ry="0" fill="#ff7f50"/>
   <rect x="440" y="440" width="20" height="20" rx="0" ry="0" fill="#ff7f50"/>
   <rect x="400" y="380" width="20" height="20" rx="0" ry="0" fill="#fffff0"/>
   <rect x="420" y="380" width="20" height="20" rx="0" ry="0" fill="#ff7f50"/>
   <rect x="440" y="380" width="20" height="20" rx="0" ry="0" fill="#fffff0"/>
   <rect x="460" y="380" width="20" height="20" rx="0" ry="0" fill="#ff7f50"/>
   <rect x="420" y="400" width="20" height="20" rx="0" ry="0" fill="#fffff0"/>
   <rect x="440" y="400" width="20" height="20" rx="0" ry="0" fill="#ff7f50"/>
   <rect x="460" y="400" width="20" height="20" rx="0" ry="0" fill="#fffff0"/>
   <rect x="400" y="400" width="20" height="20" rx="0" ry="0" fill="#ff7f50"/>
   <rect x="400" y="420" width="20" height="20" rx="0" ry="0" fill="#fffff0"/>
   <rect x="420" y="420" width="20" height="20" rx="0" ry="0" fill="#ff7f50"/>
   <rect x="440" y="420" width="20" height="20" rx="0" ry="0" fill="#fffff0"/>
   <rect x="460" y="420" width="20" height="20" rx="0" ry="0" fill="#ff7f50"/>
   <rect x="420" y="440" width="20" height="20" rx="0" ry="0" fill="#fffff0"/>
   <rect x="460" y="440" width="20" height="20" rx="0" ry="0" fill="#fffff0"/>
   <rect x="400" y="440" width="20" height="20" rx="0" ry="0" fill="#ff7f50"/>
  </g>
  <text x="370" y="433.9" fill="#000000" font-family="sans-serif" font-size="11.289" text-anchor="middle"><tspan x="370" y="433.9">●</tspan></text>
  <g stroke="#000" stroke-width="2">
   <rect x="360" y="520" width="20" height="20" rx="0" ry="0" fill="#ff7f50"/>
   <rect x="320" y="460" width="20" height="20" rx="0" ry="0" fill="#fffff0"/>
   <rect x="340" y="460" width="20" height="20" rx="0" ry="0" fill="#ff7f50"/>
   <rect x="360" y="460" width="20" height="20" rx="0" ry="0" fill="#fffff0"/>
   <rect x="380" y="460" width="20" height="20" rx="0" ry="0" fill="#ff7f50"/>
   <rect x="340" y="480" width="20" height="20" rx="0" ry="0" fill="#fffff0"/>
   <rect x="360" y="480" width="20" height="20" rx="0" ry="0" fill="#ff7f50"/>
   <rect x="380" y="480" width="20" height="20" rx="0" ry="0" fill="#fffff0"/>
   <rect x="320" y="480" width="20" height="20" rx="0" ry="0" fill="#ff7f50"/>
   <rect x="320" y="500" width="20" height="20" rx="0" ry="0" fill="#fffff0"/>
   <rect x="340" y="500" width="20" height="20" rx="0" ry="0" fill="#ff7f50"/>
   <rect x="360" y="500" width="20" height="20" rx="0" ry="0" fill="#fffff0"/>
   <rect x="380" y="500" width="20" height="20" rx="0" ry="0" fill="#ff7f50"/>
   <rect x="340" y="520" width="20" height="20" rx="0" ry="0" fill="#fffff0"/>
   <rect x="380" y="520" width="20" height="20" rx="0" ry="0" fill="#fffff0"/>
   <rect x="320" y="520" width="20" height="20" rx="0" ry="0" fill="#ff7f50"/>
  </g>
  <text x="470" y="535.875" fill="#000000" font-family="sans-serif" font-size="16.933" text-anchor="middle"><tspan x="470" y="535.875">♛</tspan></text>
  <g stroke="#000" stroke-width="2">
   <rect x="440" y="520" width="20" height="20" rx="0" ry="0" fill="#ff7f50"/>
   <rect x="400" y="460" width="20" height="20" rx="0" ry="0" fill="#fffff0"/>
   <rect x="420" y="460" width="20" height="20" rx="0" ry="0" fill="#ff7f50"/>
   <rect x="440" y="460" width="20" height="20" rx="0" ry="0" fill="#fffff0"/>
   <rect x="460" y="460" width="20" height="20" rx="0" ry="0" fill="#ff7f50"/>
   <rect x="420" y="480" width="20" height="20" rx="0" ry="0" fill="#fffff0"/>
   <rect x="440" y="480" width="20" height="20" rx="0" ry="0" fill="#ff7f50"/>
   <rect x="460" y="480" width="20" height="20" rx="0" ry="0" fill="#fffff0"/>
   <rect x="400" y="480" width="20" height="20" rx="0" ry="0" fill="#ff7f50"/>
   <rect x="400" y="500" width="20" height="20" rx="0" ry="0" fill="#fffff0"/>
   <rect x="420" y="500" width="20" height="20" rx="0" ry="0" fill="#ff7f50"/>
   <rect x="440" y="500" width="20" height="20" rx="0" ry="0" fill="#fffff0"/>
   <rect x="460" y="500" width="20" height="20" rx="0" ry="0" fill="#ff7f50"/>
   <rect x="420" y="520" width="20" height="20" rx="0" ry="0" fill="#fffff0"/>
   <rect x="460" y="520" width="20" height="20" rx="0" ry="0" fill="#fffff0"/>
   <rect x="400" y="520" width="20" height="20" rx="0" ry="0" fill="#ff7f50"/>
  </g>
  <g fill="#000000" font-family="sans-serif" text-anchor="middle">
   <text x="390" y="475.875" font-size="16.933"><tspan x="390" y="475.875">♞</tspan></text>
   <g font-size="11.289">
    <text x="410" y="433.9"><tspan x="410" y="433.9">●</tspan></text>
    <text x="430" y="453.9"><tspan x="430" y="453.9">●</tspan></text>
    <text x="430" y="493.9"><tspan x="430" y="493.9">●</tspan></text>
    <text x="410" y="513.9"><tspan x="410" y="513.9">●</tspan></text>
    <text x="370" y="513.9"><tspan x="370" y="513.9">●</tspan></text>
    <text x="350" y="493.9"><tspan x="350" y="493.9">●</tspan></text>
    <text x="350" y="453.9"><tspan x="350" y="453.9">●</tspan></text>
   </g>
  </g>
 </g>
</svg>
