<?xml version="1.0" encoding="UTF-8"?>
<svg class="iconify iconify--noto" width="800px" height="800px" aria-hidden="true" role="img" version="1.1" viewBox="0 0 128 128" xml:space="preserve" xmlns="http://www.w3.org/2000/svg"><g transform="matrix(.9 0 0 .9 -13.9 .281)"><path d="m93.8 81.2s5.21-5.21 10.7-3.66 9.01 4.36 9.43 10.1-0.96 10.1-5.35 13c-5.63 3.66-12.4 1.27-12.4 1.27z" fill="#ecf0f2"/><path d="m60.2 42.6s4.08-8.87 3.8-20.8-2.96-18.3-8.96-18.1c-6.57 0.26-8.61 10.8-8.49 19.6 0.14 10.7 4.04 18.8 4.04 18.8z" fill="#a8a8a8"/><path d="m46.7 77.7-10 0.84s0.33 1.03 0.23 1.97c-0.09 0.94-0.33 3.28-0.33 3.28l12.7 9.95 24.1-13.4-6.48-4.41z" fill="#a8a8a8"/><path d="m19.5 65a1 1 0 0 1-0.14-1.99c0.11-0.02 2.71-0.38 5.55-0.48 3.14-0.1 3.98-0.13 6.7 0.39 0.54 0.1 0.9 0.63 0.79 1.17s-0.63 0.89-1.17 0.79c-2.49-0.48-3.21-0.46-6.25-0.36-2.73 0.09-5.31 0.46-5.34 0.46-0.05 0.01-0.09 0.02-0.14 0.02z" fill="#8e9395"/><path d="m18.4 71.9c-0.45 0-0.86-0.31-0.97-0.76-0.13-0.54 0.2-1.08 0.74-1.21 0.14-0.04 3.52-0.86 5.6-1.23 2.07-0.38 5.81-0.83 5.97-0.85a0.98 0.98 0 0 1 1.11 0.87 0.987 0.987 0 0 1-0.87 1.11c-0.04 0-3.84 0.47-5.85 0.84s-5.45 1.2-5.48 1.21c-0.1 0.01-0.17 0.02-0.25 0.02z" fill="#8e9395"/><path d="m80.9 86.8-35.4 22.2s-7.32 8.26-5.68 10c0.87 0.92 4.29 1.74 7.27 1.08 4.27-0.94 7.98-10 7.98-10s-1.88 12.9 1.03 13.4 7.13-0.14 9.01-3.61 2.53-7.7 4.22-9.48 3.19-3.1 3.19-3.1 0.94 1.13 1.5 1.88 1.6 1.78 1.6 1.78-4.39 2.72-5.91 4.88c-1.55 2.21-1.23 4.82 1.03 5.73 3.28 1.31 17.5-4.41 17.5-4.41l-2.82-31.4z" fill="#a8a8a8"/><path d="m75.5 65.5s0.47-3.38-0.19-6.48-2.53-6.66-2.53-6.66 6.95-2.63 11.9-7.13c5.52-5 13.7-14.4 14.4-22.1s-3.85-14.6-16-7.32-20.9 25.4-20.9 25.4-9.57-4.04-17.4 0.19-11.9 15.1-12.3 15.9-5.2 2.94-5.82 9.57c-0.61 6.57 3.06 10.3 8.54 11.7 3.82 1.01 7.32 0.19 7.32 0.19s2.91 3.28 10.4 3.19 13.7-4.04 13.7-4.04-1.41 5.35-8.17 8.26c-5.07 2.18-11.3 1.88-15.8-0.09s-6.1-4.22-6.1-4.22-1.6 7.32 0 11.7 4.69 10.5 4.5 15.1-3.14 7.98-1.69 9.85c0.81 1.05 4.15 1.93 6.76-0.84 4.41-4.69 4.24-10 5.82-10.2 3.28-0.47 1.69 9.1 1.6 11.1s-0.37 4.46 1.78 4.79c4.6 0.7 5.35-1.03 7.32-5.63s1.74-6.99 3.75-9.76c1.64-2.25 4.41-3.75 4.41-3.75s-0.52-6.24 1.55-9.53c2.06-3.28 6.15-5.87 9.15-4.74s-3.61 1.92-5.77 6.62c-1.58 3.44-1.27 6.99 0.99 9.43 2.25 2.44 4.97 4.5 4.97 4.5s-10.8 3.88-11.7 7.84c-0.7 2.86 0.47 4.18 7.04 3.52s14.9-2.91 18.2-7.04c3.28-4.13 7.48-17.7 3.99-27.6-2.82-7.98-4.83-11.5-12.1-16.7-7.22-5.16-11.8-5.16-11.8-5.16z" fill="#afdde9"/><path d="m69.9 44c-1.76-1.82 1.31-8.26 8.26-15.7s11.7-9.76 14.1-8.07-1.03 8.92-7.7 16c-5.52 5.82-11.7 10.8-14.6 7.78z" fill="#ffb0b1"/><path d="m47.7 43.6c2.6 0.56 0.35 4.36-1.83 8.02s-3.8 5.56-3.31 7.32 4.29 5.14 4.08 9.15-3.59 8.59-9.92 8.09-8.87-5.35-7.81-10.6c0.84-4.18 5.14-6.12 6.26-8.17 1.13-2.04 2.99-5.47 4.93-8.31 2.75-3.99 4.99-6.03 7.6-5.47z" fill="#fff"/><ellipse transform="rotate(-84.4 56.8 58.8)" cx="56.8" cy="58.8" rx="4.75" ry="3.48" fill="#2f3030"/><path d="m34.6 63.2s3.14-2.58 4.36-1.31-3.71 4.32-3.71 4.32-0.47 2.3 0.94 2.53 1.6-2.77 3.14-1.97c1.55 0.8 0.14 4.79-2.58 4.83-1.62 0.03-2.58-1.17-2.58-1.17s-0.43 0.89-1.88 0.75c-2.39-0.23-3.52-5.08-1.74-5.02 1.41 0.05 0.56 2.3 1.88 2.3 1.5 0 0.89-2.67 0.89-2.67s-3.28-3.43-1.83-4.65c1.47-1.22 3.11 2.06 3.11 2.06z" fill="#2f3030"/><path d="m56.5 69.3c-0.12 0-0.23-0.02-0.35-0.06-0.04-0.01-3.62-1.34-5.92-1.84l-5.44-1.17c-0.54-0.12-0.88-0.65-0.77-1.19s0.65-0.88 1.19-0.77l5.44 1.17c2.44 0.53 6.04 1.86 6.19 1.92 0.52 0.19 0.78 0.77 0.59 1.29a0.98 0.98 0 0 1-0.93 0.65z" fill="#8e9395"/><path d="m55.4 75.9c-0.18 0-0.36-0.05-0.53-0.15-0.03-0.02-3.11-1.93-5.96-3.49a56 56 0 0 0-5.48-2.62 0.998 0.998 0 1 1 0.75-1.85c0.11 0.04 2.76 1.12 5.69 2.73 2.9 1.59 6.02 3.53 6.05 3.55 0.47 0.29 0.61 0.91 0.32 1.38-0.17 0.28-0.5 0.45-0.84 0.45z" fill="#8e9395"/></g><g stroke-width=".9"><path d="m58.6 87.3s-4.69-4.69-9.63-3.29-8.11 3.92-8.49 9.13 0.864 9.09 4.82 11.7c5.07 3.29 11.2 1.14 11.2 1.14z" fill="#ecf0f2"/><path d="m88.6 52.4s-3.67-7.98-3.42-18.8 2.66-16.5 8.06-16.3c5.91 0.234 7.75 9.77 7.64 17.7-0.126 9.63-3.64 16.9-3.64 16.9z" fill="#a8a8a8"/><path d="m101 84.1 9.04 0.756s-0.297 0.927-0.207 1.77c0.081 0.846 0.297 2.95 0.297 2.95l-11.4 8.96-21.7-12.1 5.83-3.97z" fill="#a8a8a8"/><path d="m125 72.6a0.9 0.9 0 0 0 0.126-1.79c-0.099-0.018-2.44-0.342-5-0.432-2.83-0.09-3.58-0.117-6.03 0.351-0.486 0.09-0.81 0.567-0.711 1.05s0.567 0.801 1.05 0.711c2.24-0.432 2.89-0.414 5.62-0.324 2.46 0.081 4.78 0.414 4.81 0.414 0.045 9e-3 0.081 0.018 0.126 0.018z" fill="#8e9395"/><path d="m126 78.8c0.405 0 0.774-0.279 0.873-0.684 0.117-0.486-0.18-0.972-0.666-1.09-0.126-0.036-3.17-0.774-5.04-1.11-1.86-0.342-5.23-0.747-5.37-0.765a0.882 0.882 0 0 0-0.999 0.783 0.888 0.888 0 0 0 0.783 0.999c0.036 0 3.46 0.423 5.26 0.756s4.9 1.08 4.93 1.09c0.09 9e-3 0.153 0.018 0.225 0.018z" fill="#8e9395"/><path d="m69.9 92.2 31.8 20s6.59 7.43 5.11 9c-0.783 0.828-3.86 1.57-6.54 0.972-3.84-0.846-7.18-9-7.18-9s1.69 11.6-0.927 12.1-6.42-0.126-8.11-3.25-2.28-6.93-3.8-8.53-2.87-2.79-2.87-2.79-0.846 1.02-1.35 1.69-1.44 1.6-1.44 1.6 3.95 2.45 5.32 4.39c1.4 1.99 1.11 4.34-0.927 5.16-2.95 1.18-15.7-3.97-15.7-3.97l2.54-28.3z" fill="#a8a8a8"/><path d="m74.8 73.1s-0.423-3.04 0.171-5.83 2.28-5.99 2.28-5.99-6.26-2.37-10.7-6.42c-4.97-4.5-12.3-12.9-13-19.9s3.46-13.2 14.4-6.59 18.8 22.9 18.8 22.9 8.61-3.64 15.6 0.171c7.01 3.81 10.7 13.6 11.1 14.3s4.68 2.65 5.24 8.61c0.549 5.91-2.75 9.25-7.69 10.6-3.44 0.909-6.59 0.171-6.59 0.171s-2.62 2.95-9.38 2.87c-6.76-0.081-12.3-3.64-12.3-3.64s1.27 4.82 7.35 7.43c4.56 1.96 10.1 1.69 14.2-0.081s5.49-3.8 5.49-3.8 1.44 6.59 0 10.6c-1.44 3.97-4.22 9.46-4.05 13.6s2.83 7.18 1.52 8.86c-0.729 0.945-3.74 1.74-6.08-0.756-3.97-4.22-3.82-9-5.24-9.21-2.95-0.423-1.52 8.19-1.44 9.96s0.333 4.01-1.6 4.31c-4.14 0.63-4.82-0.927-6.59-5.07s-1.57-6.29-3.38-8.78c-1.48-2.02-3.97-3.38-3.97-3.38s0.468-5.62-1.4-8.58c-1.85-2.95-5.54-5.28-8.24-4.27s3.25 1.73 5.19 5.96c1.42 3.1 1.14 6.29-0.891 8.49-2.02 2.2-4.47 4.05-4.47 4.05s9.68 3.49 10.6 7.06c0.63 2.57-0.423 3.76-6.34 3.17s-13.4-2.62-16.4-6.34c-2.95-3.72-6.73-15.9-3.59-24.8 2.54-7.18 4.35-10.4 10.9-15 6.5-4.64 10.6-4.64 10.6-4.64z" fill="#ffd5d5"/><path d="m79.9 53.7c1.58-1.64-1.18-7.43-7.43-14.1s-10.6-8.78-12.7-7.26 0.927 8.03 6.93 14.4c4.97 5.24 10.6 9.7 13.2 7z" fill="#ffb0b1"/><path d="m99.9 53.3c-2.34 0.504-0.315 3.92 1.65 7.22 1.96 3.29 3.42 5 2.98 6.59s-3.86 4.63-3.67 8.24 3.23 7.73 8.93 7.28 7.98-4.82 7.03-9.57c-0.756-3.76-4.63-5.51-5.63-7.35-1.02-1.84-2.69-4.92-4.44-7.48-2.48-3.59-4.49-5.43-6.84-4.92z" fill="#fff"/><ellipse transform="matrix(-.0977 -.995 -.995 .0977 0 0)" cx="-75.7" cy="-84.7" rx="4.28" ry="3.13" fill="#2f3030"/><path d="m112 71s-2.83-2.32-3.92-1.18 3.34 3.89 3.34 3.89 0.423 2.07-0.846 2.28-1.44-2.49-2.83-1.77c-1.4 0.72-0.126 4.31 2.32 4.35 1.46 0.027 2.32-1.05 2.32-1.05s0.387 0.801 1.69 0.675c2.15-0.207 3.17-4.57 1.57-4.52-1.27 0.045-0.504 2.07-1.69 2.07-1.35 0-0.801-2.4-0.801-2.4s2.95-3.09 1.65-4.18c-1.32-1.1-2.8 1.85-2.8 1.85z" fill="#2f3030"/><path d="m91.9 76.4c0.108 0 0.207-0.018 0.315-0.054 0.036-9e-3 3.26-1.21 5.33-1.66l4.9-1.05c0.486-0.108 0.792-0.585 0.693-1.07s-0.585-0.792-1.07-0.693l-4.9 1.05c-2.2 0.477-5.44 1.67-5.57 1.73-0.468 0.171-0.702 0.693-0.531 1.16a0.882 0.882 0 0 0 0.837 0.585z" fill="#8e9395"/><path d="m92.9 82.4c0.162 0 0.324-0.045 0.477-0.135 0.027-0.018 2.8-1.74 5.36-3.14a50.4 50.4 0 0 1 4.93-2.36 0.898 0.898 0 1 0-0.675-1.66c-0.099 0.036-2.48 1.01-5.12 2.46-2.61 1.43-5.42 3.18-5.45 3.2-0.423 0.261-0.549 0.819-0.288 1.24 0.153 0.252 0.45 0.405 0.756 0.405z" fill="#8e9395"/></g></svg>
