<?xml version="1.0" encoding="UTF-8" standalone="no"?>
<!DOCTYPE svg PUBLIC "-//W3C//DTD SVG 1.0//EN" "http://www.w3.org/TR/2001/PR-SVG-20010719/DTD/svg10.dtd">
<svg width="31cm" height="12cm" viewBox="-301 95 617 233" xmlns="http://www.w3.org/2000/svg" xmlns:xlink="http://www.w3.org/1999/xlink">
  <g id="Background"/>
  <g id="Background">
    <g>
      <path style="fill: none; stroke-opacity: 1; stroke-width: 2; stroke: #000000" d="M -180,230 A 40.2083,40.2083 0 1 0 -171.207,156.325"/>
      <polygon style="fill: #000000; fill-opacity: 1; stroke-opacity: 1; stroke-width: 2; stroke: #000000" fill-rule="evenodd" points="-178.054,158.899 -171.81,149.625 -171.525,155.208 -166.888,158.329 "/>
    </g>
    <g>
      <path style="fill: none; stroke-opacity: 1; stroke-width: 2; stroke: #000000" d="M 280 230 C 480,340 -240,400 -26.5789,167.177"/>
      <polygon style="fill: #000000; fill-opacity: 1; stroke-opacity: 1; stroke-width: 2; stroke: #000000" fill-rule="evenodd" points="-21.511,161.648 -24.5824,172.398 -26.5789,167.177 -31.954,165.641 "/>
    </g>
    <g>
      <path style="fill: none; stroke-opacity: 1; stroke-width: 2; stroke: #000000" d="M 100 230 C 140,220 120,180 151.292,164.354"/>
      <polygon style="fill: #000000; fill-opacity: 1; stroke-opacity: 1; stroke-width: 2; stroke: #000000" fill-rule="evenodd" points="158,161 151.292,169.944 151.292,164.354 146.82,161 "/>
    </g>
    <g>
      <rect style="fill: #ffff55; fill-opacity: 1; stroke-opacity: 1; stroke-width: 1; stroke: #7f7f7f" x="-280" y="180" width="100" height="100" rx="2" ry="2"/>
      <text font-size="16.9333" style="fill: #000000; fill-opacity: 1; stroke: none;text-anchor:start;font-family:monospace;font-style:normal;font-weight:normal" x="-274.5" y="214">
        <tspan x="-274.5" y="214"># ...</tspan>
        <tspan x="-274.5" y="235.167">f()</tspan>
        <tspan x="-274.5" y="256.333"># ...</tspan>
      </text>
    </g>
    <g>
      <rect style="fill: #ff5555; fill-opacity: 1; stroke-opacity: 1; stroke-width: 1; stroke: #7f7f7f" x="-300" y="140" width="120" height="40" rx="2" ry="2"/>
      <text font-size="16.9333" style="fill: #000000; fill-opacity: 1; stroke: none;text-anchor:start;font-family:monospace;font-style:normal;font-weight:normal" x="-294.5" y="165.167">
        <tspan x="-294.5" y="165.167">def f():</tspan>
      </text>
    </g>
    <g>
      <rect style="fill: #ffff55; fill-opacity: 1; stroke-opacity: 1; stroke-width: 1; stroke: #7f7f7f" x="0" y="180" width="100" height="100" rx="2" ry="2"/>
      <text font-size="16.9333" style="fill: #000000; fill-opacity: 1; stroke: none;text-anchor:start;font-family:monospace;font-style:normal;font-weight:normal" x="5.5" y="214">
        <tspan x="5.5" y="214"># ...</tspan>
        <tspan x="5.5" y="235.167">g()</tspan>
        <tspan x="5.5" y="256.333"># ...</tspan>
      </text>
    </g>
    <g>
      <rect style="fill: #ff5555; fill-opacity: 1; stroke-opacity: 1; stroke-width: 1; stroke: #7f7f7f" x="-20" y="140" width="120" height="40" rx="2" ry="2"/>
      <text font-size="16.9333" style="fill: #000000; fill-opacity: 1; stroke: none;text-anchor:start;font-family:monospace;font-style:normal;font-weight:normal" x="-14.5" y="165.167">
        <tspan x="-14.5" y="165.167">def f():</tspan>
      </text>
    </g>
    <g>
      <rect style="fill: #ffff55; fill-opacity: 1; stroke-opacity: 1; stroke-width: 1; stroke: #7f7f7f" x="180" y="180" width="100" height="100" rx="2" ry="2"/>
      <text font-size="16.9333" style="fill: #000000; fill-opacity: 1; stroke: none;text-anchor:start;font-family:monospace;font-style:normal;font-weight:normal" x="185.5" y="214">
        <tspan x="185.5" y="214"># ...</tspan>
        <tspan x="185.5" y="235.167">f()</tspan>
        <tspan x="185.5" y="256.333"># ...</tspan>
      </text>
    </g>
    <g>
      <rect style="fill: #ff5555; fill-opacity: 1; stroke-opacity: 1; stroke-width: 1; stroke: #7f7f7f" x="160" y="140" width="120" height="40" rx="2" ry="2"/>
      <text font-size="16.9333" style="fill: #000000; fill-opacity: 1; stroke: none;text-anchor:start;font-family:monospace;font-style:normal;font-weight:normal" x="165.5" y="165.167">
        <tspan x="165.5" y="165.167">def g():</tspan>
      </text>
    </g>
    <text font-size="22.5778" style="fill: #000000; fill-opacity: 1; stroke: none;text-anchor:middle;font-family:sans-serif;font-style:italic;font-weight:700" x="-220" y="120">
      <tspan x="-220" y="120">Direct call</tspan>
    </text>
    <text font-size="22.5778" style="fill: #000000; fill-opacity: 1; stroke: none;text-anchor:middle;font-family:sans-serif;font-style:italic;font-weight:700" x="120" y="120">
      <tspan x="120" y="120">Indirect call</tspan>
    </text>
  </g>
</svg>
