<?xml version="1.0" encoding="UTF-8"?>
<svg width="42cm" height="41cm" version="1.1" viewBox="180 100 840 801" xmlns="http://www.w3.org/2000/svg">
 <g stroke="#00f" stroke-width="8">
  <line x1="540" x2="639.06" y1="260" y2="260" fill="none"/>
  <polygon points="639.06 260 635.06 252 651.06 260 635.06 268" fill="#00f" fill-rule="evenodd"/>
  <line x1="660" x2="554.81" y1="440" y2="545.19" fill="none"/>
  <polygon points="554.81 545.19 563.3 548.02 546.32 553.68 551.98 536.7" fill="#00f" fill-rule="evenodd"/>
  <line x1="540" x2="639.06" y1="740" y2="740" fill="none"/>
  <polygon points="639.06 740 635.06 732 651.06 740 635.06 748" fill="#00f" fill-rule="evenodd"/>
 </g>
 <g fill-rule="evenodd" stroke="#000" stroke-width="2.351e-37">
  <polygon transform="matrix(-1,0,0,1,680,0)" points="500 260 500 420 180 420 180 100 340 100 340 260"/>
  <polygon transform="matrix(-1,0,0,1,1720,0)" points="860 180 860 260 780 260 780 340 860 340 860 260 940 260 940 340 1020 340 1020 420 700 420 700 100 780 100 780 180"/>
  <g transform="matrix(-.5 0 0 .5 340 290)">
   <polygon points="-160 660 -160 740 -240 740 -240 820 -160 820 -160 740 -80 740 -80 820 0 820 0 900 -320 900 -320 580 -240 580 -240 660"/>
   <polygon points="-160 980 -160 1060 -240 1060 -240 1140 -160 1140 -160 1060 -80 1060 -80 1140 0 1140 0 1220 -320 1220 -320 900 -240 900 -240 980"/>
   <polygon points="160 980 160 1060 80 1060 80 1140 160 1140 160 1060 240 1060 240 1140 320 1140 320 1220 0 1220 0 900 80 900 80 980"/>
  </g>
  <g transform="matrix(-.5 0 0 .5 1370 290)">
   <g transform="matrix(.5 0 0 .5 860 290)">
    <polygon points="-160 660 -160 740 -240 740 -240 820 -160 820 -160 740 -80 740 -80 820 0 820 0 900 -320 900 -320 580 -240 580 -240 660"/>
    <polygon points="-160 980 -160 1060 -240 1060 -240 1140 -160 1140 -160 1060 -80 1060 -80 1140 0 1140 0 1220 -320 1220 -320 900 -240 900 -240 980"/>
    <polygon points="160 980 160 1060 80 1060 80 1140 160 1140 160 1060 240 1060 240 1140 320 1140 320 1220 0 1220 0 900 80 900 80 980"/>
   </g>
   <g transform="matrix(.5 0 0 .5 860 610)">
    <polygon points="-160 660 -160 740 -240 740 -240 820 -160 820 -160 740 -80 740 -80 820 0 820 0 900 -320 900 -320 580 -240 580 -240 660"/>
    <polygon points="-160 980 -160 1060 -240 1060 -240 1140 -160 1140 -160 1060 -80 1060 -80 1140 0 1140 0 1220 -320 1220 -320 900 -240 900 -240 980"/>
    <polygon points="160 980 160 1060 80 1060 80 1140 160 1140 160 1060 240 1060 240 1140 320 1140 320 1220 0 1220 0 900 80 900 80 980"/>
   </g>
   <g transform="matrix(.5 0 0 .5 1180 610)">
    <polygon points="-160 660 -160 740 -240 740 -240 820 -160 820 -160 740 -80 740 -80 820 0 820 0 900 -320 900 -320 580 -240 580 -240 660"/>
    <polygon points="-160 980 -160 1060 -240 1060 -240 1140 -160 1140 -160 1060 -80 1060 -80 1140 0 1140 0 1220 -320 1220 -320 900 -240 900 -240 980"/>
    <polygon points="160 980 160 1060 80 1060 80 1140 160 1140 160 1060 240 1060 240 1140 320 1140 320 1220 0 1220 0 900 80 900 80 980"/>
   </g>
  </g>
 </g>
</svg>
