<?xml version="1.0" encoding="iso-8859-1"?>
<!-- Uploaded to: SVG Repo, www.svgrepo.com, Generator: SVG Repo Mixer Tools -->
<svg height="800px" width="800px" version="1.1" id="Layer_1" xmlns="http://www.w3.org/2000/svg" xmlns:xlink="http://www.w3.org/1999/xlink" 
	 viewBox="0 0 511.983 511.983" xml:space="preserve">
<polygon style="fill:#F5BA45;" points="319.986,191.995 294.393,213.331 217.826,213.331 191.998,191.995 191.998,85.335 
	319.986,85.335 "/>
<g>
	<path style="fill:#CBD0D8;" d="M227.216,20.838L227.216,20.838c5.617-1.781,8.727-7.773,6.945-13.39s-7.773-8.726-13.391-6.945
		L180.1,13.394l0,0c-5.617,1.781-8.727,7.773-6.945,13.39c1.781,5.617,7.773,8.726,13.39,6.944L227.216,20.838z"/>
	<path style="fill:#CBD0D8;" d="M240.106,61.508c5.617-1.781,8.727-7.773,6.945-13.39c-1.781-5.617-7.773-8.727-13.39-6.945
		l-40.67,12.89l0,0c-5.617,1.781-8.726,7.781-6.945,13.39c1.781,5.617,7.773,8.727,13.391,6.945L240.106,61.508L240.106,61.508z"/>
	<path style="fill:#CBD0D8;" d="M331.876,13.393L291.221,0.502c-0.016,0-0.016,0-0.016,0c-5.608-1.781-11.608,1.328-13.39,6.945
		s1.328,11.609,6.953,13.39l40.669,12.89l0,0l0,0c5.609,1.781,11.609-1.328,13.391-6.944
		C340.61,21.166,337.501,15.174,331.876,13.393z"/>
	<path style="fill:#CBD0D8;" d="M318.986,54.063L318.986,54.063l-40.67-12.89l0,0l0,0c-5.609-1.781-11.602,1.328-13.383,6.945
		s1.328,11.609,6.945,13.39l40.67,12.89l0,0c5.609,1.781,11.608-1.328,13.39-6.945C327.72,61.844,324.61,55.844,318.986,54.063z"/>
	<path style="fill:#CBD0D8;" d="M298.659,330.662c0-5.891-4.781-10.671-10.672-10.671h-31.991c5.891,0,10.664-4.766,10.664-10.656
		s-4.773-10.671-10.664-10.671h-42.67c-5.891,0-10.664,4.78-10.664,10.671s4.773,10.656,10.664,10.656h31.999
		c-5.891,0-10.664,4.78-10.664,10.671s4.773,10.672,10.664,10.672h-31.999c-5.891,0-10.664,4.766-10.664,10.656
		s4.773,10.671,10.664,10.671h31.999c-5.891,0-10.664,4.781-10.664,10.671c0,5.891,4.773,10.656,10.664,10.656h-31.999
		c-5.891,0-10.664,4.781-10.664,10.672s4.773,10.672,10.664,10.672h31.999c-5.891,0-10.664,4.766-10.664,10.656
		s4.773,10.671,10.664,10.671h-31.999c-5.891,0-10.664,4.781-10.664,10.672c0,5.89,4.773,10.654,10.664,10.654h31.999
		c-5.891,0-10.664,4.781-10.664,10.672s4.773,10.672,10.664,10.672h-31.999c-5.891,0-10.664,4.766-10.664,10.656
		s4.773,10.671,10.664,10.671h31.999c-5.891,0-10.664,4.781-10.664,10.672c0,5.89,4.773,10.655,10.664,10.655h42.663
		c5.891,0,10.672-4.766,10.672-10.655c0-5.891-4.781-10.672-10.672-10.672h-31.991c5.891,0,10.664-4.78,10.664-10.671
		s-4.773-10.656-10.664-10.656h31.991c5.891,0,10.672-4.781,10.672-10.672s-4.781-10.672-10.672-10.672h-31.991
		c5.891,0,10.664-4.765,10.664-10.654c0-5.891-4.773-10.672-10.664-10.672h31.991c5.891,0,10.672-4.781,10.672-10.671
		c0-5.891-4.781-10.656-10.672-10.656h-31.991c5.891,0,10.664-4.781,10.664-10.672s-4.773-10.672-10.664-10.672h31.991
		c5.891,0,10.672-4.766,10.672-10.656s-4.781-10.671-10.672-10.671h-31.991c5.891,0,10.664-4.781,10.664-10.671
		c0-5.891-4.773-10.656-10.664-10.656h31.991C293.878,341.334,298.659,336.553,298.659,330.662z"/>
</g>
<path style="fill:#FECD57;" d="M266.66,153.848v-15.187c0-5.89-4.773-10.664-10.664-10.664c-5.89,0-10.671,4.773-10.671,10.664
	v15.187c-19.921,15.452-42.663,66.646-42.663,91.481c0,29.46,23.874,53.334,53.334,53.334c29.445,0,53.318-23.874,53.318-53.334
	C309.314,220.494,286.581,169.301,266.66,153.848z M255.996,255.993c-5.89,0-10.671-4.773-10.671-10.664
	c0-5.898,4.781-10.671,10.671-10.671c5.891,0,10.664,4.773,10.664,10.671C266.66,251.22,261.887,255.993,255.996,255.993z"/>
</svg>