<?xml version="1.0" encoding="UTF-8"?>
<svg width="218.51" height="401.88" version="1.1" xml:space="preserve" xmlns="http://www.w3.org/2000/svg" xmlns:xlink="http://www.w3.org/1999/xlink">
  <defs>
    <path id="l" d="m215.43 654.5v11.31s34.25-0.0429 34.28-0.0372c0.0456 9e-3 -1.9994-8.3928-4.4713-8.3928-1.1045 9e-3 -1.4737 1.2522-2.4575 1.9116-2.2232 2.5352-3.4675 3.5483-5.6126 3.713-1.5183 0.11658-2.2508-0.3458-3.0108-0.70596-3.0674-1.455-5.2463-7.7984-5.2463-7.7984h-13.481z" fill="#888a85" stroke="#2e3436" stroke-linejoin="round" stroke-width="2.4409"/>
    <path id="n" d="m215.43 654.5v19.799h13.831s1.5337-6.1672 6.5579-7.4892c3.1282-0.82304 5.5917 2.0627 7.0322 3.5737 0.7076 0.95974 1.7647 1.9696 2.6205 1.9686 2.4719 0 4.2381-3.6044 4.2381-7.6518 0-4.0475-1.9994-7.321-4.4713-7.321-1.1045 9e-3 -1.4737 1.2522-2.4575 1.9116-2.2232 2.5352-3.4675 3.5483-5.6126 3.713-1.5183 0.11658-2.2508-0.3458-3.0108-0.70596-3.0674-1.455-5.2463-7.7984-5.2463-7.7984h-13.481z" fill="#888a85" stroke="#2e3436" stroke-linejoin="round" stroke-width="2.4409"/>
    
    
  
    
    
    
    
  
    
    
  
    
    
    
    
    
    
    
  
    
    
    
    
    
    
    
    
    
    
    
    
    
    
    
    
    
    
    
    
    
    
    
    
    
    
    
    
    
    
    
    
  
      
      
    
      
      
    
      
      
    
      
      
      
    
      
      
      
    
      
      
    
      
      
    
      
      
    
      
      
    
      
      
    
      
      
    
      
      
    
      
      
    
      
      
    
      
      
      
    
      
      
      
    
      
      
    
      
      
    
      
      
      
    
      
      
      
    
      
      
    
      
      
      
    
      
      
    
      
      
    
      
      
    
      
      
    
      
      
    
      
      
    
      
      
    
      
      
      
    
      
      
    
      
      
      
      
      
      
      
      
      
      
      
      
      
      
    
      
      
    <filter id="af-2" x="-.044351" y="-.007179" width="1.0887" height="1.0144">
      <feGaussianBlur stdDeviation=".20138119"/>
    </filter><filter id="ah-7" x="-.049576" y="-.0072573" width="1.0992" height="1.0145">
      <feGaussianBlur stdDeviation=".20096892"/>
    </filter><filter id="ai-9" x="-.0091988" y="-.01747" width="1.0184" height="1.0349">
      <feGaussianBlur stdDeviation=".1375424"/>
    </filter><filter id="aj-6" x="-.017794" y="-.036855" width="1.0356" height="1.0737">
      <feGaussianBlur stdDeviation=".34917234"/>
    </filter><filter id="ak-6" x="-.01802" y="-.035919" width="1.036" height="1.0718">
      <feGaussianBlur stdDeviation=".34555436"/>
    </filter><linearGradient id="linearGradient4107" x1="220.13" x2="234.72" y1="636.31" y2="645.92" gradientTransform="matrix(-.78318 0 0 1.2823 306.36 -499.02)" gradientUnits="userSpaceOnUse" xlink:href="#c"/><linearGradient id="linearGradient4109" x1="220.13" x2="234.72" y1="636.31" y2="645.92" gradientTransform="matrix(-.78318 0 0 1.2823 306.36 -600.47)" gradientUnits="userSpaceOnUse" xlink:href="#c"/><linearGradient id="linearGradient4111" x1="220.13" x2="234.72" y1="636.31" y2="645.92" gradientTransform="matrix(-.78318 0 0 1.2823 306.36 -676.96)" gradientUnits="userSpaceOnUse" xlink:href="#c"/><linearGradient id="linearGradient4113" x1="220.13" x2="234.72" y1="636.31" y2="645.92" gradientTransform="matrix(-.78318 0 0 1.2823 306.36 -702.84)" gradientUnits="userSpaceOnUse" xlink:href="#c"/><linearGradient id="linearGradient4115" x1="220.13" x2="234.72" y1="636.31" y2="645.92" gradientTransform="matrix(-.7306 -.28212 -.46193 1.1962 597.3 -610.19)" gradientUnits="userSpaceOnUse" xlink:href="#c"/><linearGradient id="linearGradient4117" x1="220.13" x2="234.72" y1="636.31" y2="645.92" gradientTransform="matrix(-.59668 -.50729 -.83061 .97696 817.67 -439.88)" gradientUnits="userSpaceOnUse" xlink:href="#c"/><linearGradient id="linearGradient4119" x1="220.13" x2="234.72" y1="636.31" y2="645.92" gradientTransform="matrix(-.56959 -.53753 -.88011 .93262 859.7 -422.98)" gradientUnits="userSpaceOnUse" xlink:href="#c"/><linearGradient id="linearGradient4121" x1="220.13" x2="234.72" y1="636.31" y2="645.92" gradientTransform="matrix(-.51854 -.58693 -.961 .84903 918.37 -374.31)" gradientUnits="userSpaceOnUse" xlink:href="#c"/></defs>
  <defs>
    
    
    <linearGradient id="d">
      <stop stop-color="#fff" stop-opacity="0" offset="0"/>
      <stop stop-color="#fff" offset=".26118"/>
      <stop stop-color="#fff" stop-opacity="0" offset="1"/>
    </linearGradient>
    
    
    
    <linearGradient id="c">
      <stop stop-color="#fff" offset="0"/>
      <stop stop-color="#fff" stop-opacity="0" offset="1"/>
    </linearGradient>
    
    <linearGradient id="m" x1="220.13" x2="234.72" y1="636.31" y2="645.92" gradientTransform="matrix(.78318 0 0 1.2823 -82.197 -435.83)" gradientUnits="userSpaceOnUse" xlink:href="#c"/>
    
    
    <linearGradient id="q" x1="220.13" x2="234.72" y1="636.31" y2="645.92" gradientTransform="matrix(.78318 0 0 1.2823 -82.197 -461.25)" gradientUnits="userSpaceOnUse" xlink:href="#c"/>
    <linearGradient id="r" x1="220.13" x2="234.72" y1="636.31" y2="645.92" gradientTransform="matrix(.78318 0 0 1.2823 -82.197 -486.43)" gradientUnits="userSpaceOnUse" xlink:href="#c"/>
    <linearGradient id="s" x1="220.13" x2="234.72" y1="636.31" y2="645.92" gradientTransform="matrix(.78318 0 0 1.2823 -82.197 -511.85)" gradientUnits="userSpaceOnUse" xlink:href="#c"/>
    <linearGradient id="t" x1="220.13" x2="234.72" y1="636.31" y2="645.92" gradientTransform="matrix(.78318 0 0 1.2823 -82.197 -537.04)" gradientUnits="userSpaceOnUse" xlink:href="#c"/>
    <linearGradient id="u" x1="220.13" x2="234.72" y1="636.31" y2="645.92" gradientTransform="matrix(.78318 0 0 1.2823 -82.197 -562.45)" gradientUnits="userSpaceOnUse" xlink:href="#c"/>
    <linearGradient id="v" x1="220.13" x2="234.72" y1="636.31" y2="645.92" gradientTransform="matrix(.78318 0 0 1.2823 -82.197 -587.64)" gradientUnits="userSpaceOnUse" xlink:href="#c"/>
    <linearGradient id="w" x1="220.13" x2="234.72" y1="636.31" y2="645.92" gradientTransform="matrix(-.78318 0 0 1.2823 306.36 -448.42)" gradientUnits="userSpaceOnUse" xlink:href="#c"/>
    <linearGradient id="x" x1="220.13" x2="234.72" y1="636.31" y2="645.92" gradientTransform="matrix(-.78318 0 0 1.2823 306.36 -473.84)" gradientUnits="userSpaceOnUse" xlink:href="#c"/>
    
    
    <linearGradient id="A" x1="220.13" x2="234.72" y1="636.31" y2="645.92" gradientTransform="matrix(-.78318 0 0 1.2823 306.36 -524.68)" gradientUnits="userSpaceOnUse" xlink:href="#c"/>
    <linearGradient id="B" x1="220.13" x2="234.72" y1="636.31" y2="645.92" gradientTransform="matrix(-.78318 0 0 1.2823 306.36 -549.86)" gradientUnits="userSpaceOnUse" xlink:href="#c"/>
    <linearGradient id="C" x1="220.13" x2="234.72" y1="636.31" y2="645.92" gradientTransform="matrix(-.78318 0 0 1.2823 306.36 -575.28)" gradientUnits="userSpaceOnUse" xlink:href="#c"/>
    <linearGradient id="D" x1="220.13" x2="234.72" y1="636.31" y2="645.92" gradientTransform="matrix(.78318 0 0 1.2823 -82.197 -613.53)" gradientUnits="userSpaceOnUse" xlink:href="#c"/>
    <linearGradient id="E" x1="220.13" x2="234.72" y1="636.31" y2="645.92" gradientTransform="matrix(.78318 0 0 1.2823 -82.197 -638.71)" gradientUnits="userSpaceOnUse" xlink:href="#c"/>
    <linearGradient id="F" x1="220.13" x2="234.72" y1="636.31" y2="645.92" gradientTransform="matrix(.78318 0 0 1.2823 -82.197 -664.13)" gradientUnits="userSpaceOnUse" xlink:href="#c"/>
    <linearGradient id="G" x1="220.13" x2="234.72" y1="636.31" y2="645.92" gradientTransform="matrix(.78318 0 0 1.2823 -82.197 -689.32)" gradientUnits="userSpaceOnUse" xlink:href="#c"/>
    
    
    <linearGradient id="J" x1="220.13" x2="234.72" y1="636.31" y2="645.92" gradientTransform="matrix(-.78318 0 0 1.2823 306.36 -626.35)" gradientUnits="userSpaceOnUse" xlink:href="#c"/>
    <linearGradient id="K" x1="220.13" x2="234.72" y1="636.31" y2="645.92" gradientTransform="matrix(-.78318 0 0 1.2823 306.36 -651.77)" gradientUnits="userSpaceOnUse" xlink:href="#c"/>
    <linearGradient id="L" x1="220.13" x2="234.72" y1="636.31" y2="645.92" gradientTransform="matrix(.75926 -.19208 .3145 1.2432 -282.76 -646.07)" gradientUnits="userSpaceOnUse" xlink:href="#c"/>
    
    
    
    
    <linearGradient id="Q" x1="220.13" x2="234.72" y1="636.31" y2="645.92" gradientTransform="matrix(.61494 -.48499 .79409 1.0069 -570.83 -450.93)" gradientUnits="userSpaceOnUse" xlink:href="#c"/>
    
    
    <linearGradient id="T" x1="220.13" x2="234.72" y1="636.31" y2="645.92" gradientTransform="matrix(.54702 -.56048 .91769 .89566 -652.09 -380.72)" gradientUnits="userSpaceOnUse" xlink:href="#c"/>
    
    
    
    
    <linearGradient id="Y" x1="220.13" x2="234.72" y1="636.31" y2="645.92" gradientTransform="matrix(.51747 -.58787 .96254 .84728 -693.11 -359.81)" gradientUnits="userSpaceOnUse" xlink:href="#c"/>
    <linearGradient id="Z" x1="220.13" x2="234.72" y1="636.31" y2="645.92" gradientTransform="matrix(-.44276 -.64601 1.0577 -.72495 -373.23 634.76)" gradientUnits="userSpaceOnUse" xlink:href="#c"/>
    <linearGradient id="aa" x1="220.13" x2="234.72" y1="636.31" y2="645.92" gradientTransform="matrix(.41192 -.6661 1.0906 .67446 -772.78 -246.4)" gradientUnits="userSpaceOnUse" xlink:href="#c"/>
    <linearGradient id="ad" x1="61.457" x2="63.601" y1="720.18" y2="720.53" gradientTransform="matrix(1.1999 -.01734 .01445 .9999 12.297 -516.43)" gradientUnits="userSpaceOnUse" xlink:href="#d"/>
    <linearGradient id="ae" x1="61.044" x2="63.601" y1="720.18" y2="720.53" gradientTransform="matrix(-1.1984 -.0622 -.05183 .99866 240.47 -510.22)" gradientUnits="userSpaceOnUse" xlink:href="#d"/>
    <linearGradient id="ag" x1="87.313" x2="94.734" y1="728.89" y2="727.98" gradientTransform="translate(35.193 -516.62)" gradientUnits="userSpaceOnUse"><stop offset="0"/><stop stop-opacity="0" offset="1"/></linearGradient>
    <linearGradient id="al" x1="83.569" x2="68.245" y1="739.33" y2="708.2" gradientTransform="translate(35.193 -516.62)" gradientUnits="userSpaceOnUse"><stop stop-color="#fff" offset="0"/><stop stop-color="#fff" stop-opacity="0" offset="1"/></linearGradient>
    <linearGradient id="am" x1="242.5" x2="241.17" y1="559.79" y2="536.47" gradientTransform="translate(-129.28 -388.3)" gradientUnits="userSpaceOnUse"><stop stop-color="#555753" offset="0"/><stop stop-color="#555753" stop-opacity="0" offset="1"/></linearGradient>
    <linearGradient id="an" x1="242.06" x2="245.91" y1="543.85" y2="561.81" gradientTransform="translate(-129.28 -388.3)" gradientUnits="userSpaceOnUse"><stop stop-color="#fff" offset="0"/><stop stop-color="#fff" stop-opacity="0" offset="1"/></linearGradient>
    <linearGradient id="ao" x1="244.51" x2="241.36" y1="502.52" y2="490.86" gradientTransform="translate(-129.28 -388.3)" gradientUnits="userSpaceOnUse"><stop stop-color="#888a85" offset="0"/><stop stop-color="#babdb6" stop-opacity="0" offset="1"/></linearGradient>
    <linearGradient id="k" x1="31.643" x2="31.643" y1="13.617" y2="9.6385" gradientTransform="matrix(7.2268 0 0 7.6176 -111.11 94.934)" gradientUnits="userSpaceOnUse"><stop stop-color="#fff" offset="0"/><stop stop-color="#fff" stop-opacity="0" offset="1"/></linearGradient>
    
    
    
    
    
    
    
  </defs><g fill-rule="evenodd">
  
  
  
  
  
  
  
  
  
  
  
  
<path d="m90.427 140.03s-12.915 3.6946-10.636 12.562c2.2792 8.8671 16.196 22.907 19.753 22.907h15.78z" fill="#fff" opacity=".33333" overflow="visible"/><path d="m89.17 144.8c-3.5566 0-12.915-8.4367-10.636 0.43034 2.2791 8.8671 13.513 22.907 19.753 22.907h16.707z" fill="#204a87" overflow="visible"/><path d="m110.54 176.78-31.938 25.586-10.859-50.498 14.692 41.072z" fill="url(#k)" opacity=".28655" overflow="visible"/></g><g stroke="#000"><path d="m112.61 396.57v-267.43c0.1776-6.6053 0.65225-14.602 2.5674-21.25 10.274-35.665 44.33-69.164 80.946-87.473l11.612 13.028c-31.871 18.024-56.411 38.433-67.779 63.8-4.426 9.8766-8.2046 20.225-7.6217 31.895v267.43z" fill="#555753" stroke-width=".9822"/><path d="m112.23 396.25v-258.21c-0.16902-6.6058-0.62077-14.603-2.4434-21.251-9.4472-34.46-40.021-66.898-73.508-85.568-1.1732-0.65411-6.9672-4.0946-8.1468-4.7144l-6.4345 15.832c30.332 18.025 53.688 38.436 64.506 63.804 4.2122 9.8773 7.8084 20.226 7.2537 31.897v258.21z" fill="#555753" stroke-width=".95823"/><path d="m112.46 385.78c-5.4203 0.74148-10.897 2.6539-17.84-9.091v-234.51c-0.1841-6.605-0.67614-14.601-2.6614-21.249-10.651-35.664-46.118-69.821-84.075-88.129l-6.7608 10.389c-2.1447 3.2955 1.7087 7.09 4.9877 9.028 28.105 16.612 49.609 35.352 60.161 58.067 4.588 9.8762 8.505 20.224 7.9008 31.894v249.67c10.828 12.159 25.144 8.8205 38.595 9.3242z"/><path d="m112.75 385.71c11.152 5.6592 14.215-4.4728 19.239-10.777v-243.46c0.1841-6.605 0.67614-14.601 2.6614-21.249 10.651-35.664 39.687-66.688 77.644-84.996l4.782 7.7502c2.8801 5.0473-1.4403 10.532-5.8035 13.262-24.739 15.568-41.259 32.509-50.936 53.338-4.588 9.8762-8.505 20.224-7.9008 31.894v260.72c-9.1325 12.022-26.964 8.1536-40.11 9.1441z"/></g><use transform="translate(-129 -277.01)" stroke-linejoin="round" stroke-width="2.4409" xlink:href="#l"/><path d="m118.42 387.08s-1.5375-4.2357-2.2285-4.76c-0.01 0.0673-1.2313 1.0351-2.5719 2.7702-1.3407 1.7351-6.0232 3.1371-8.8085 2.0052-3.4977-1.4214-5.9432-7.5835-6.0645-7.855l-10.592 5e-3 -0.0163 7.8667 30.282-0.0321z" fill="url(#m)" opacity=".67677" stroke="#eeeeec" stroke-width="1.0021"/><use transform="matrix(-1 0 0 1 353.16 -340.2)" stroke-linejoin="round" stroke-width="2.4409" xlink:href="#n"/><path d="m136.03 332.34-10.877 5e-3c-0.0794-0.052-2.6892-5.7884-6.0332-6.9645-3.7586-1.3219-7.076 0.26938-8.4618 2.054-1.174 0.90145-2.4123 2.9063-3.0349 2.9053-1.4056-0.32262-2.522-2.2053-2.4677-6.2517 0.0323-2.4087 1.5787-5.2663 2.5583-5.2134 0.4632 0.0673 2.0367 1.8188 3.1903 3.3474 1.1536 1.5286 4.8281 3.027 8.1489 1.799 3.8195-1.4124 6.4996-7.8143 6.3531-7.9787l10.592 5e-3 0.0323 16.292z" fill="url(#linearGradient4107)" opacity=".67677" stroke="#eeeeec" stroke-width="1.0021"/><path d="m136.03 332.34-10.877 5e-3c-0.0794-0.052-2.6892-5.7884-6.0332-6.9645-3.7586-1.3219-7.076 0.26938-8.4618 2.054-1.174 0.90145-2.4123 2.9063-3.0349 2.9053-1.4056-0.32262-2.522-2.2053-2.4677-6.2517 0.0323-2.4087 1.5787-5.2663 2.5583-5.2134 0.4632 0.0673 2.0367 1.8188 3.1903 3.3474 1.1536 1.5286 4.8281 3.027 8.1489 1.799 3.8195-1.4124 6.4996-7.8143 6.3531-7.9787l10.592 5e-3 0.0323 16.292z" fill="url(#linearGradient4107)" opacity=".67677" stroke="#eeeeec" stroke-width="1.0021"/><use transform="translate(-129 -302.43)" stroke-linejoin="round" stroke-width="2.4409" xlink:href="#n"/><path d="m88.127 370.12 10.877 5e-3c0.0794-0.052 2.6892-5.7884 6.0332-6.9645 3.7586-1.3219 7.076 0.26938 8.4618 2.054 1.174 0.90145 2.4123 2.9063 3.0349 2.9053 1.4056-0.32262 2.522-2.2053 2.4677-6.2517-0.0323-2.4087-1.5787-5.2663-2.5583-5.2134-0.4632 0.0673-2.0367 1.8188-3.1903 3.3474-1.1536 1.5286-4.8281 3.027-8.1489 1.799-3.8195-1.4124-6.4996-7.8143-6.3531-7.9787l-10.592 5e-3 -0.0323 16.292z" fill="url(#q)" opacity=".67677" stroke="#eeeeec" stroke-width="1.0021"/><use transform="translate(-129 -327.61)" stroke-linejoin="round" stroke-width="2.4409" xlink:href="#n"/><path d="m88.127 344.94 10.877 5e-3c0.0794-0.052 2.6892-5.7884 6.0332-6.9645 3.7586-1.3219 7.076 0.26938 8.4618 2.054 1.174 0.90145 2.4123 2.9063 3.0349 2.9053 1.4056-0.32262 2.522-2.2053 2.4677-6.2517-0.0323-2.4087-1.5787-5.2663-2.5583-5.2134-0.4632 0.0673-2.0367 1.8188-3.1903 3.3474-1.1536 1.5286-4.8281 3.027-8.1489 1.799-3.8195-1.4124-6.4996-7.8143-6.3531-7.9787l-10.592 5e-3 -0.0323 16.292z" fill="url(#r)" opacity=".67677" stroke="#eeeeec" stroke-width="1.0021"/><use transform="translate(-129 -353.03)" stroke-linejoin="round" stroke-width="2.4409" xlink:href="#n"/><path d="m88.127 319.52 10.877 5e-3c0.0794-0.052 2.6892-5.7884 6.0332-6.9645 3.7586-1.3219 7.076 0.26938 8.4618 2.054 1.174 0.90145 2.4123 2.9063 3.0349 2.9053 1.4056-0.32262 2.522-2.2053 2.4677-6.2517-0.0323-2.4087-1.5787-5.2663-2.5583-5.2134-0.4632 0.0673-2.0367 1.8188-3.1903 3.3474-1.1536 1.5286-4.8281 3.027-8.1489 1.799-3.8195-1.4124-6.4996-7.8143-6.3531-7.9787l-10.592 5e-3 -0.0323 16.292z" fill="url(#s)" opacity=".67677" stroke="#eeeeec" stroke-width="1.0021"/><use transform="translate(-129 -378.22)" stroke-linejoin="round" stroke-width="2.4409" xlink:href="#n"/><path d="m88.127 294.33 10.877 5e-3c0.0794-0.052 2.6892-5.7884 6.0332-6.9645 3.7586-1.3219 7.076 0.26938 8.4618 2.054 1.174 0.90145 2.4123 2.9063 3.0349 2.9053 1.4056-0.32262 2.522-2.2053 2.4677-6.2517-0.0323-2.4087-1.5787-5.2663-2.5583-5.2134-0.4632 0.0673-2.0367 1.8188-3.1903 3.3474-1.1536 1.5286-4.8281 3.027-8.1489 1.799-3.8195-1.4124-6.4996-7.8143-6.3531-7.9787l-10.592 5e-3 -0.0323 16.292z" fill="url(#t)" opacity=".67677" stroke="#eeeeec" stroke-width="1.0021"/><use transform="translate(-129 -403.63)" stroke-linejoin="round" stroke-width="2.4409" xlink:href="#n"/><path d="m88.127 268.91 10.877 5e-3c0.0794-0.052 2.6892-5.7884 6.0332-6.9645 3.7586-1.3219 7.076 0.26938 8.4618 2.054 1.174 0.90145 2.4123 2.9063 3.0349 2.9053 1.4056-0.32262 2.522-2.2053 2.4677-6.2517-0.0323-2.4087-1.5787-5.2663-2.5583-5.2134-0.4632 0.0673-2.0367 1.8188-3.1903 3.3474-1.1536 1.5286-4.8281 3.027-8.1489 1.799-3.8195-1.4124-6.4996-7.8143-6.3531-7.9787l-10.592 5e-3 -0.0323 16.292z" fill="url(#u)" opacity=".67677" stroke="#eeeeec" stroke-width="1.0021"/><use transform="translate(-129 -428.82)" stroke-linejoin="round" stroke-width="2.4409" xlink:href="#n"/><path d="m88.127 243.73 10.877 5e-3c0.0794-0.052 2.6892-5.7884 6.0332-6.9645 3.7586-1.3219 7.076 0.26938 8.4618 2.054 1.174 0.90145 2.4123 2.9063 3.0349 2.9053 1.4056-0.32262 2.522-2.2053 2.4677-6.2517-0.0323-2.4087-1.5787-5.2663-2.5583-5.2134-0.4632 0.0673-2.0367 1.8188-3.1903 3.3474-1.1536 1.5286-4.8281 3.027-8.1489 1.799-3.8195-1.4124-6.4996-7.8143-6.3531-7.9787l-10.592 5e-3 -0.0323 16.292z" fill="url(#v)" opacity=".67677" stroke="#eeeeec" stroke-width="1.0021"/><use transform="matrix(-1 0 0 1 353.16 -289.6)" stroke-linejoin="round" stroke-width="2.4409" xlink:href="#n"/><path d="m136.03 382.95-10.877 5e-3c-0.0794-0.052-2.6892-5.7884-6.0332-6.9645-3.7586-1.3219-7.076 0.26938-8.4618 2.054-1.174 0.90145-2.4123 2.9063-3.0349 2.9053-1.4056-0.32262-2.522-2.2053-2.4677-6.2517 0.0323-2.4087 1.5787-5.2663 2.5583-5.2134 0.4632 0.0673 2.0367 1.8188 3.1903 3.3474 1.1536 1.5286 4.8281 3.027 8.1489 1.799 3.8195-1.4124 6.4996-7.8143 6.3531-7.9787l10.592 5e-3 0.0323 16.292z" fill="url(#w)" opacity=".67677" stroke="#eeeeec" stroke-width="1.0021"/><use transform="matrix(-1 0 0 1 353.16 -315.02)" stroke-linejoin="round" stroke-width="2.4409" xlink:href="#n"/><path d="m136.03 357.53-10.877 5e-3c-0.0794-0.052-2.6892-5.7884-6.0332-6.9645-3.7586-1.3219-7.076 0.26938-8.4618 2.054-1.174 0.90144-2.4123 2.9063-3.0349 2.9053-1.4056-0.32262-2.522-2.2053-2.4677-6.2517 0.0323-2.4087 1.5787-5.2663 2.5583-5.2134 0.4632 0.0673 2.0367 1.8188 3.1903 3.3474s4.8281 3.027 8.1489 1.799c3.8195-1.4124 6.4996-7.8143 6.3531-7.9787l10.592 5e-3 0.0323 16.292z" fill="url(#x)" opacity=".67677" stroke="#eeeeec" stroke-width="1.0021"/><use transform="matrix(-1 0 0 1 353.16 -441.65)" stroke-linejoin="round" stroke-width="2.4409" xlink:href="#n"/><path d="m136.03 230.9-10.877 5e-3c-0.0794-0.052-2.6892-5.7884-6.0332-6.9645-3.7586-1.3219-7.076 0.26938-8.4618 2.054-1.174 0.90145-2.4123 2.9063-3.0349 2.9053-1.4056-0.32262-2.522-2.2053-2.4677-6.2517 0.0323-2.4087 1.5787-5.2663 2.5583-5.2134 0.4632 0.0673 2.0367 1.8188 3.1903 3.3474 1.1536 1.5286 4.8281 3.027 8.1489 1.799 3.8195-1.4124 6.4996-7.8143 6.3531-7.9787l10.592 5e-3 0.0323 16.292z" fill="url(#linearGradient4109)" opacity=".67677" stroke="#eeeeec" stroke-width="1.0021"/><path d="m136.03 230.9-10.877 5e-3c-0.0794-0.052-2.6892-5.7884-6.0332-6.9645-3.7586-1.3219-7.076 0.26938-8.4618 2.054-1.174 0.90145-2.4123 2.9063-3.0349 2.9053-1.4056-0.32262-2.522-2.2053-2.4677-6.2517 0.0323-2.4087 1.5787-5.2663 2.5583-5.2134 0.4632 0.0673 2.0367 1.8188 3.1903 3.3474 1.1536 1.5286 4.8281 3.027 8.1489 1.799 3.8195-1.4124 6.4996-7.8143 6.3531-7.9787l10.592 5e-3 0.0323 16.292z" fill="url(#linearGradient4109)" opacity=".67677" stroke="#eeeeec" stroke-width="1.0021"/><use transform="matrix(-1 0 0 1 353.16 -365.86)" stroke-linejoin="round" stroke-width="2.4409" xlink:href="#n"/><path d="m136.03 306.69-10.877 5e-3c-0.0794-0.052-2.6892-5.7884-6.0332-6.9645-3.7586-1.3219-7.076 0.26938-8.4618 2.054-1.174 0.90145-2.4123 2.9063-3.0349 2.9053-1.4056-0.32262-2.522-2.2053-2.4677-6.2517 0.0323-2.4087 1.5787-5.2663 2.5583-5.2134 0.4632 0.0673 2.0367 1.8188 3.1903 3.3474 1.1536 1.5286 4.8281 3.027 8.1489 1.799 3.8195-1.4124 6.4996-7.8143 6.3531-7.9787l10.592 5e-3 0.0323 16.292z" fill="url(#A)" opacity=".67677" stroke="#eeeeec" stroke-width="1.0021"/><use transform="matrix(-1 0 0 1 353.16 -391.04)" stroke-linejoin="round" stroke-width="2.4409" xlink:href="#n"/><path d="m136.03 281.51-10.877 5e-3c-0.0794-0.052-2.6892-5.7884-6.0332-6.9645-3.7586-1.3219-7.076 0.26938-8.4618 2.054-1.174 0.90145-2.4123 2.9063-3.0349 2.9053-1.4056-0.32262-2.522-2.2053-2.4677-6.2517 0.0323-2.4087 1.5787-5.2663 2.5583-5.2134 0.4632 0.0673 2.0367 1.8188 3.1903 3.3474 1.1536 1.5286 4.8281 3.027 8.1489 1.799 3.8195-1.4124 6.4996-7.8143 6.3531-7.9787l10.592 5e-3 0.0323 16.292z" fill="url(#B)" opacity=".67677" stroke="#eeeeec" stroke-width="1.0021"/><use transform="matrix(-1 0 0 1 353.16 -416.46)" stroke-linejoin="round" stroke-width="2.4409" xlink:href="#n"/><path d="m136.03 256.09-10.877 5e-3c-0.0794-0.052-2.6892-5.7884-6.0332-6.9645-3.7586-1.3219-7.076 0.26938-8.4618 2.054-1.174 0.90145-2.4123 2.9063-3.0349 2.9053-1.4056-0.32262-2.522-2.2053-2.4677-6.2517 0.0323-2.4087 1.5787-5.2663 2.5583-5.2134 0.4632 0.0673 2.0367 1.8188 3.1903 3.3474 1.1536 1.5286 4.8281 3.027 8.1489 1.799 3.8195-1.4124 6.4996-7.8143 6.3531-7.9787l10.592 5e-3 0.0323 16.292z" fill="url(#C)" opacity=".67677" stroke="#eeeeec" stroke-width="1.0021"/><use transform="translate(-129 -454.71)" stroke-linejoin="round" stroke-width="2.4409" xlink:href="#n"/><path d="m88.127 217.84 10.877 5e-3c0.0794-0.052 2.6892-5.7884 6.0332-6.9645 3.7586-1.3219 7.076 0.26938 8.4618 2.054 1.174 0.90145 2.4123 2.9063 3.0349 2.9053 1.4056-0.32262 2.522-2.2053 2.4677-6.2517-0.0323-2.4087-1.5787-5.2663-2.5583-5.2134-0.4632 0.0673-2.0367 1.8188-3.1903 3.3474-1.1536 1.5286-4.8281 3.027-8.1489 1.799-3.8195-1.4124-6.4996-7.8143-6.3531-7.9787l-10.592 5e-3 -0.0323 16.292z" fill="url(#D)" opacity=".67677" stroke="#eeeeec" stroke-width="1.0021"/><use transform="translate(-129 -479.89)" stroke-linejoin="round" stroke-width="2.4409" xlink:href="#n"/><path d="m88.127 192.66 10.877 5e-3c0.0794-0.052 2.6892-5.7884 6.0332-6.9645 3.7586-1.3219 7.076 0.26938 8.4618 2.054 1.174 0.90145 2.4123 2.9063 3.0349 2.9053 1.4056-0.32262 2.522-2.2053 2.4677-6.2517-0.0323-2.4087-1.5787-5.2663-2.5583-5.2134-0.4632 0.0673-2.0367 1.8188-3.1903 3.3474-1.1536 1.5286-4.8281 3.027-8.1489 1.799-3.8195-1.4124-6.4996-7.8143-6.3531-7.9787l-10.592 5e-3 -0.0323 16.292z" fill="url(#E)" opacity=".67677" stroke="#eeeeec" stroke-width="1.0021"/><use transform="translate(-129 -505.31)" stroke-linejoin="round" stroke-width="2.4409" xlink:href="#n"/><path d="m88.127 167.24 10.877 5e-3c0.0794-0.052 2.6892-5.7884 6.0332-6.9645 3.7586-1.3219 7.076 0.26938 8.4618 2.054 1.174 0.90145 2.4123 2.9063 3.0349 2.9053 1.4056-0.32262 2.522-2.2053 2.4677-6.2517-0.0323-2.4087-1.5787-5.2663-2.5583-5.2134-0.4632 0.0673-2.0367 1.8188-3.1903 3.3474-1.1536 1.5286-4.8281 3.027-8.1489 1.799-3.8195-1.4124-6.4996-7.8143-6.3531-7.9787l-10.592 5e-3 -0.0323 16.292z" fill="url(#F)" opacity=".67677" stroke="#eeeeec" stroke-width="1.0021"/><use transform="translate(-129 -530.5)" stroke-linejoin="round" stroke-width="2.4409" xlink:href="#n"/><path d="m88.127 142.05 10.877 5e-3c0.0794-0.052 2.6892-5.7884 6.0332-6.9645 3.7586-1.3219 7.076 0.26938 8.4618 2.054 1.174 0.90145 2.4123 2.9063 3.0349 2.9053 1.4056-0.32262 2.522-2.2053 2.4677-6.2517-0.0323-2.4087-1.5787-5.2663-2.5583-5.2134-0.4632 0.0673-2.0367 1.8188-3.1903 3.3474-1.1536 1.5286-4.8281 3.027-8.1489 1.799-3.8195-1.4124-6.4996-7.8143-6.3531-7.9787l-10.592 5e-3 -0.0323 16.292z" fill="url(#G)" opacity=".67677" stroke="#eeeeec" stroke-width="1.0021"/><use transform="matrix(-1 0 0 1 353.16 -518.14)" stroke-linejoin="round" stroke-width="2.4409" xlink:href="#n"/><path d="m136.03 154.41-10.877 5e-3c-0.0794-0.052-2.6892-5.7884-6.0332-6.9645-3.7586-1.3219-7.076 0.26938-8.4618 2.054-1.174 0.90145-2.4123 2.9063-3.0349 2.9053-1.4056-0.32262-2.522-2.2053-2.4677-6.2517 0.0323-2.4087 1.5787-5.2663 2.5583-5.2134 0.4632 0.0673 2.0367 1.8188 3.1903 3.3474 1.1536 1.5286 4.8281 3.027 8.1489 1.799 3.8195-1.4124 6.4996-7.8143 6.3531-7.9787l10.592 5e-3 0.0323 16.292z" fill="url(#linearGradient4111)" opacity=".67677" stroke="#eeeeec" stroke-width="1.0021"/><path d="m136.03 154.41-10.877 5e-3c-0.0794-0.052-2.6892-5.7884-6.0332-6.9645-3.7586-1.3219-7.076 0.26938-8.4618 2.054-1.174 0.90145-2.4123 2.9063-3.0349 2.9053-1.4056-0.32262-2.522-2.2053-2.4677-6.2517 0.0323-2.4087 1.5787-5.2663 2.5583-5.2134 0.4632 0.0673 2.0367 1.8188 3.1903 3.3474 1.1536 1.5286 4.8281 3.027 8.1489 1.799 3.8195-1.4124 6.4996-7.8143 6.3531-7.9787l10.592 5e-3 0.0323 16.292z" fill="url(#linearGradient4111)" opacity=".67677" stroke="#eeeeec" stroke-width="1.0021"/><use transform="matrix(-1 0 0 1 353.16 -467.53)" stroke-linejoin="round" stroke-width="2.4409" xlink:href="#n"/><path d="m136.03 205.02-10.877 5e-3c-0.0794-0.052-2.6892-5.7884-6.0332-6.9645-3.7586-1.3219-7.076 0.26938-8.4618 2.054-1.174 0.90145-2.4123 2.9063-3.0349 2.9053-1.4056-0.32262-2.522-2.2053-2.4677-6.2517 0.0323-2.4087 1.5787-5.2663 2.5583-5.2134 0.4632 0.0673 2.0367 1.8188 3.1903 3.3474 1.1536 1.5286 4.8281 3.027 8.1489 1.799 3.8195-1.4124 6.4996-7.8143 6.3531-7.9787l10.592 5e-3 0.0323 16.292z" fill="url(#J)" opacity=".67677" stroke="#eeeeec" stroke-width="1.0021"/><use transform="matrix(-1 0 0 1 353.16 -492.95)" stroke-linejoin="round" stroke-width="2.4409" xlink:href="#n"/><path d="m136.03 179.6-10.877 5e-3c-0.0794-0.052-2.6892-5.7884-6.0332-6.9645-3.7586-1.3219-7.076 0.26938-8.4618 2.054-1.174 0.90145-2.4123 2.9063-3.0349 2.9053-1.4056-0.32262-2.522-2.2053-2.4677-6.2517 0.0323-2.4087 1.5787-5.2663 2.5583-5.2134 0.4632 0.0673 2.0367 1.8188 3.1903 3.3474 1.1536 1.5286 4.8281 3.027 8.1489 1.799 3.8195-1.4124 6.4996-7.8143 6.3531-7.9787l10.592 5e-3 0.0323 16.292z" fill="url(#K)" opacity=".67677" stroke="#eeeeec" stroke-width="1.0021"/><use transform="rotate(-14.197 -2074.3 920.78)" stroke-linejoin="round" stroke-width="2.4409" xlink:href="#n"/><path d="m86.261 118.14 10.546-2.6628c0.0642-0.0699 1.1874-6.2712 4.1408-8.2315 3.3196-2.2033 6.926-1.4743 8.7072-0.0841 1.3592 0.58599 3.0514 2.2259 3.6548 2.0722 1.2835-0.65749 1.9041-2.7565 0.85908-6.666-0.62206-2.3272-2.8221-4.7183-3.7588-4.4268-0.43255 0.17885-1.5284 2.2628-2.2719 4.0276-0.74349 1.7648-3.9382 4.1187-7.4588 3.7426-4.0493-0.43251-8.2176-5.9816-8.1159-6.1769l-10.267 2.6025 3.9643 15.802z" fill="url(#L)" opacity=".67677" stroke="#eeeeec" stroke-width="1.0021"/><use transform="matrix(-1 0 0 1 353.16 -544.02)" stroke-linejoin="round" stroke-width="2.4409" xlink:href="#n"/><path d="m136.03 128.53-10.877 5e-3c-0.0794-0.052-2.6892-5.7884-6.0332-6.9645-3.7586-1.3219-7.076 0.26938-8.4618 2.054-1.174 0.90145-2.4123 2.9063-3.0349 2.9053-1.4056-0.32262-2.522-2.2053-2.4677-6.2517 0.0323-2.4087 1.5787-5.2663 2.5583-5.2134 0.4632 0.0673 2.0367 1.8188 3.1903 3.3474 1.1536 1.5286 4.8281 3.027 8.1489 1.799 3.8195-1.4124 6.4996-7.8143 6.3531-7.9787l10.592 5e-3 0.0323 16.292z" fill="url(#linearGradient4113)" opacity=".67677" stroke="#eeeeec" stroke-width="1.0021"/><path d="m136.03 128.53-10.877 5e-3c-0.0794-0.052-2.6892-5.7884-6.0332-6.9645-3.7586-1.3219-7.076 0.26938-8.4618 2.054-1.174 0.90145-2.4123 2.9063-3.0349 2.9053-1.4056-0.32262-2.522-2.2053-2.4677-6.2517 0.0323-2.4087 1.5787-5.2663 2.5583-5.2134 0.4632 0.0673 2.0367 1.8188 3.1903 3.3474 1.1536 1.5286 4.8281 3.027 8.1489 1.799 3.8195-1.4124 6.4996-7.8143 6.3531-7.9787l10.592 5e-3 0.0323 16.292z" fill="url(#linearGradient4113)" opacity=".67677" stroke="#eeeeec" stroke-width="1.0021"/><use transform="matrix(-.93287 -.36022 -.36022 .93287 583.75 -445.17)" stroke-linejoin="round" stroke-width="2.4409" xlink:href="#n"/><path d="m138.93 104.01-10.149-3.9135c-0.0553-0.0771-0.4235-6.3685-3.1194-8.6703-3.0301-2.5871-6.698-2.2977-8.6336-1.1321-1.4199 0.41803-3.2973 1.8422-3.8777 1.617-1.195-0.80727-1.5582-2.9657-0.05-6.7209 0.8978-2.2354 3.3698-4.344 4.2646-3.9419 0.40786 0.22964 1.2448 2.4304 1.7703 4.2719 0.52555 1.8415 3.4135 4.563 6.9538 4.6137 4.0719 0.0583 8.8781-4.9484 8.8007-5.1545l9.8789 3.8201-5.8385 15.21z" fill="url(#linearGradient4115)" opacity=".67677" stroke="#eeeeec" stroke-width="1.0021"/><path d="m138.93 104.01-10.149-3.9135c-0.0553-0.0771-0.4235-6.3685-3.1194-8.6703-3.0301-2.5871-6.698-2.2977-8.6336-1.1321-1.4199 0.41803-3.2973 1.8422-3.8777 1.617-1.195-0.80727-1.5582-2.9657-0.05-6.7209 0.8978-2.2354 3.3698-4.344 4.2646-3.9419 0.40786 0.22964 1.2448 2.4304 1.7703 4.2719 0.52555 1.8415 3.4135 4.563 6.9538 4.6137 4.0719 0.0583 8.8781-4.9484 8.8007-5.1545l9.8789 3.8201-5.8385 15.21z" fill="url(#linearGradient4115)" opacity=".67677" stroke="#eeeeec" stroke-width="1.0021"/><use transform="rotate(-38.262 -683.06 585.38)" stroke-linejoin="round" stroke-width="2.4409" xlink:href="#n"/><path d="m77.734 96.38 8.5435-6.7317c0.0301-0.09-1.473-6.2103 0.42436-9.2046 2.1326-3.3654 5.7228-4.1704 7.9161-3.6273 1.48-0.0192 3.6939 0.78817 4.1821 0.40182 0.90384-1.1237 0.61456-3.2933-1.9338-6.4369-1.517-1.8713-4.5008-3.1574-5.2372-2.5093-0.32202 0.33968-0.47283 2.6894-0.43207 4.6039 0.0408 1.9146-1.9164 5.3666-5.2844 6.4588-3.8737 1.2563-9.9425-2.1108-9.9292-2.3306l-8.3134 6.563 10.063 12.812z" fill="url(#Q)" opacity=".67677" stroke="#eeeeec" stroke-width="1.0021"/><use transform="matrix(-.76187 -.64773 -.64773 .76187 750.45 -288.56)" stroke-linejoin="round" stroke-width="2.4409" xlink:href="#n"/><path d="m149.4 83.191-8.29-7.0416c-0.0268-0.091 1.7006-6.1519-0.0853-9.2139-2.0073-3.4416-5.5655-4.3782-7.7772-3.9162-1.4783-0.0737-3.7204 0.6517-4.1941 0.24763-0.86188-1.1562-0.49294-3.3137 2.1694-6.3614 1.5848-1.8142 4.614-2.9896 5.326-2.3148 0.3093 0.35131 0.37355 2.7049 0.26236 4.6167-0.1112 1.9118 1.7176 5.4335 5.0431 6.6489 3.8248 1.398 10.013-1.7434 10.008-1.9636l8.0662 6.8644-10.528 12.433z" fill="url(#linearGradient4117)" opacity=".67677" stroke="#eeeeec" stroke-width="1.0021"/><path d="m149.4 83.191-8.29-7.0416c-0.0268-0.091 1.7006-6.1519-0.0853-9.2139-2.0073-3.4416-5.5655-4.3782-7.7772-3.9162-1.4783-0.0737-3.7204 0.6517-4.1941 0.24763-0.86188-1.1562-0.49294-3.3137 2.1694-6.3614 1.5848-1.8142 4.614-2.9896 5.326-2.3148 0.3093 0.35131 0.37355 2.7049 0.26236 4.6167-0.1112 1.9118 1.7176 5.4335 5.0431 6.6489 3.8248 1.398 10.013-1.7434 10.008-1.9636l8.0662 6.8644-10.528 12.433z" fill="url(#linearGradient4117)" opacity=".67677" stroke="#eeeeec" stroke-width="1.0021"/><use transform="rotate(-45.696 -565.96 559.58)" stroke-linejoin="round" stroke-width="2.4409" xlink:href="#n"/><path d="m61.839 78.073 7.6008-7.7805c0.0182-0.0931-2.2642-5.9675-0.77013-9.1821 1.6792-3.6131 5.1352-4.8758 7.3802-4.621 1.4651-0.21054 3.7648 0.30362 4.199-0.14266 0.75086-1.2312 0.18329-3.3452-2.7504-6.1326-1.7463-1.6593-4.8715-2.5485-5.5178-1.8106-0.27537 0.37849-0.12091 2.7279 0.16723 4.6211 0.28814 1.8932-1.206 5.5695-4.4043 7.0883-3.6786 1.7469-10.132-0.80662-10.147-1.0263l-7.3944 7.5834 11.636 11.402z" fill="url(#T)" opacity=".67677" stroke="#eeeeec" stroke-width="1.0021"/><use transform="matrix(-.72728 -.68634 -.68634 .72728 784.73 -275.35)" stroke-linejoin="round" stroke-width="2.4409" xlink:href="#n"/><path d="m165.22 64.761-7.914-7.4616c-0.0221-0.0923 2.017-6.0555 0.39218-9.206-1.8263-3.541-5.3312-4.6606-7.5639-4.3138-1.4725-0.15017-3.7492 0.45805-4.2013 0.03-0.80081-1.1993-0.32059-3.3348 2.4961-6.2404 1.6767-1.7296 4.7626-2.7465 5.4388-2.0358 0.29069 0.36686 0.23289 2.7207 0.0228 4.6241-0.21011 1.9035 1.4338 5.5152 4.6918 6.9013 3.7472 1.5943 10.09-1.2223 10.097-1.4424l7.6998 7.2732-11.158 11.871z" fill="url(#linearGradient4119)" opacity=".67677" stroke="#eeeeec" stroke-width="1.0021"/><path d="m165.22 64.761-7.914-7.4616c-0.0221-0.0923 2.017-6.0555 0.39218-9.206-1.8263-3.541-5.3312-4.6606-7.5639-4.3138-1.4725-0.15017-3.7492 0.45805-4.2013 0.03-0.80081-1.1993-0.32059-3.3348 2.4961-6.2404 1.6767-1.7296 4.7626-2.7465 5.4388-2.0358 0.29069 0.36686 0.23289 2.7207 0.0228 4.6241-0.21011 1.9035 1.4338 5.5152 4.6918 6.9013 3.7472 1.5943 10.09-1.2223 10.097-1.4424l7.6998 7.2732-11.158 11.871z" fill="url(#linearGradient4119)" opacity=".67677" stroke="#eeeeec" stroke-width="1.0021"/><use transform="matrix(-.6621 -.74942 -.74942 .6621 830.33 -234.09)" stroke-linejoin="round" stroke-width="2.4409" xlink:href="#n"/><path d="m182.55 48.488-7.2054-8.1481c-0.0136-0.0939 2.5575-5.8478 1.2248-9.1326-1.4979-3.692-4.8869-5.1246-7.1418-4.9815-1.4529-0.28297-3.7752 0.11645-4.1867-0.35082-0.68884-1.267-0.0171-3.3501 3.0513-5.9886 1.8265-1.5706 4.9919-2.3037 5.6009-1.5346 0.25625 0.39169-0.0146 2.7306-0.39631 4.6072-0.38172 1.8766 0.92815 5.6224 4.0472 7.2981 3.5874 1.9272 10.16-0.30292 10.186-0.52155l7.009 7.941-12.188 10.811z" fill="url(#linearGradient4121)" opacity=".67677" stroke="#eeeeec" stroke-width="1.0021"/><path d="m182.55 48.488-7.2054-8.1481c-0.0136-0.0939 2.5575-5.8478 1.2248-9.1326-1.4979-3.692-4.8869-5.1246-7.1418-4.9815-1.4529-0.28297-3.7752 0.11645-4.1867-0.35082-0.68884-1.267-0.0171-3.3501 3.0513-5.9886 1.8265-1.5706 4.9919-2.3037 5.6009-1.5346 0.25625 0.39169-0.0146 2.7306-0.39631 4.6072-0.38172 1.8766 0.92815 5.6224 4.0472 7.2981 3.5874 1.9272 10.16-0.30292 10.186-0.52155l7.009 7.941-12.188 10.811z" fill="url(#linearGradient4121)" opacity=".67677" stroke="#eeeeec" stroke-width="1.0021"/><use transform="rotate(-48.644 -545.5 559.21)" stroke-linejoin="round" stroke-width="2.4409" xlink:href="#n"/><path d="m43.47 61.657 7.1906-8.1611c0.0134-0.094-2.5681-5.8432-1.2414-9.1303 1.4912-3.6947 4.8776-5.1334 7.1328-4.9945 1.4524-0.28561 3.7754 0.10959 4.1861-0.35843 0.68654-1.2682 0.011-3.3502-3.0622-5.983-1.8294-1.5673-4.9961-2.2946-5.6037-1.5244-0.25554 0.39215 0.0196 2.7305 0.40467 4.6064 0.38513 1.8759-0.91794 5.6241-4.0339 7.3054-3.5838 1.9338-10.16-0.28448-10.187-0.50307l-6.9946 7.9537 12.207 10.789z" fill="url(#Y)" opacity=".67677" stroke="#eeeeec" stroke-width="1.0021"/><use transform="rotate(235.57 45.876 348.64)" stroke-linejoin="round" stroke-width="2.4409" xlink:href="#l"/><path d="m192.14 4.0472s-2.6246 3.6628-2.6664 4.5292c0.0612-0.0298 1.5499 0.43042 3.7391 0.55534 2.1892 0.12491 5.9928 3.1948 6.6338 6.1322 0.80492 3.6887-2.8954 9.1895-3.0508 9.4431l5.9921 8.7338 6.4981-4.4339-17.146-24.96z" fill="url(#Z)" opacity=".67677" stroke="#eeeeec" stroke-width="1.0021"/><use transform="rotate(-58.267 -441.56 532.62)" stroke-linejoin="round" stroke-width="2.4409" xlink:href="#n"/><path d="m23.893 46.002 5.7251-9.2483c-2e-3 -0.0949-3.5087-5.3316-2.7502-8.7944 0.8526-3.892 3.9508-5.8766 6.1975-6.1165 1.3842-0.52438 3.7406-0.52307 4.0672-1.0531 0.46488-1.3651-0.54918-3.3049-4.0192-5.387-2.0656-1.2394-5.3094-1.4271-5.7796-0.5662-0.18639 0.42935 0.47573 2.6888 1.169 4.474 0.69329 1.7851 0.0351 5.6984-2.7559 7.8769-3.2102 2.5056-10.065 1.4179-10.127 1.2069l-5.5666 9.011 13.839 8.5963z" fill="url(#aa)" opacity=".67677" stroke="#eeeeec" stroke-width="1.0021"/><path d="m79.256 112.94c2.9816-4.2301 11.201-5.94 11.201-5.94l44.509-0.0908s8.8442 0.47338 11.622 6.0816c2.6417 5.333 1.1383 11.29-5.0504 14.662-6.1887 3.3718-4.0469 16.172-6.6029 30.63-0.39242 2.2198-3.9718 3.1757-6.2209 4.1183-1.4838 0.62184-5.1741 1.842-5.1741 1.842l-21.324-0.14169-4.2775-1.5586c-1.9994-0.72851-6.0672-2.1911-6.399-4.0701-2.5008-14.16-0.19571-28.272-5.8423-31.497-3.6546-2.0871-9.4229-9.8059-6.4413-14.036z" fill="#d3d7cf" stroke="#888a85" stroke-width="3.88"/><path d="m130.6 252.23c0 10.291-8.3425 18.633-18.633 18.633-10.291 0-18.633-8.3425-18.633-18.633s8.3425-18.633 18.633-18.633c10.291 0 18.633 8.3425 18.633 18.633z" fill="#fff" opacity=".56229"/><path d="m113.53 144.81c-4.1774 0.13003-8.3538 1.7342-12.531 4.4375l-14.656 98.125c-3.733 34.039 53.957 40.09 51.938 0l-12.219-98.125c-4.1774-3.2234-8.3538-4.5675-12.531-4.4375zm0.25 10.062c3.9616 0 7.1875 3.1947 7.1875 7.1562 0 2.6547-0.81326 10.159-3.042 13.322-1.0971 1.5567-3.2281 1.621-4.535 1.621-1.2807 0-3.3273-0.25577-4.3271-1.7615-2.0928-3.1519-2.4397-10.5-2.4397-13.181 0-3.9616 3.1947-7.1562 7.1562-7.1562zm-1.1562 79.969c8.5151 0 15.438 6.8912 15.438 15.406s-6.9224 15.406-15.438 15.406-15.406-6.8912-15.406-15.406 6.8912-15.406 15.406-15.406z" fill="#d3d7cf" stroke="#888a85" stroke-linejoin="round" stroke-width="5"/><g fill="none" stroke="#555753"><g stroke-linejoin="round"><path d="m131.03 250.26c0 10.161-8.2369 18.398-18.398 18.398-10.161 0-18.398-8.2369-18.398-18.398 0-10.161 8.2369-18.398 18.398-18.398 10.161 0 18.398 8.2369 18.398 18.398z" stroke-width="1.2"/><path d="m118.38 162.45c-0.40014 2.1466-0.4188 8.3048-1.9276 11.23-0.66437 1.2882-2.3774 1.0981-2.8964 1.1338-0.47987 0.033-2.5304-0.0242-3.0462-1.4079-1.1244-3.0168-1.5171-8.6488-1.6946-10.65-0.1649-1.8594 1.65-5.3133 4.5812-5.3133 2.9312 0 4.9835 2.0764 4.9835 5.0076z" stroke-width=".61861"/><path d="m125.41 250.26c0 7.0576-5.7213 12.779-12.779 12.779-7.0576 0-12.779-5.7213-12.779-12.779 0-7.0576 5.7213-12.779 12.779-12.779 7.0576 0 12.779 5.7213 12.779 12.779z"/></g><path d="m88.811 249.58c-8e-3 15.163 13.344 22.804 23.905 22.841 8.3903 0.0295 22.968-4.7016 22.735-22.841l-12.01-98.644c-6.6851-4.7915-13.37-3.9798-20.055 0.2332z"/></g><path d="m103.22 159.34-13.19 86.055 4.5426-6.6337 9.5259-67.073z" fill="url(#ad)"/><path d="m124.33 161.68 11.434 90.146-4.8294-12.323-7.9438-65.517z" fill="url(#ae)"/><path d="m102.97 175.62-8.7396 58.621-0.59129 4.9094 2.5701-3.1496 8.3273-58.072-1.0718-6.1012z" filter="url(#af-2)" opacity=".30303"/><path d="m123.25 173.48 8.08 66.461-3.133-3.1945-6.5959-59.227z" fill="url(#ag)" filter="url(#ah-7)" opacity=".71717"/><path d="m94.968 248.92c-0.96099 1.8733 1.6549 18.989 18.324 18.895 14.605-0.0823 18.294-16.931 17.212-17.081 0.0371 0.11138-2.237 15.657-17.527 15.145-16.992-0.56928-18.008-16.959-18.008-16.959z" fill="#2e3436" filter="url(#ai-9)" opacity=".78788"/><path d="m89.179 249.48c-2.2264 0.37897 2.3458 22.537 24.486 22.737 18.415 0.16628 24.207-20.676 21.454-22.387 1.4766 2.6125-5.2775 20.374-21.571 20.172-17.765-0.22191-26.014-18.328-24.369-20.522z" fill="#fff" filter="url(#aj-6)" opacity=".7037"/><path d="m89.179 249.13c-1.7966 0.12833 3.8325-22.06 23.903-21.804 19.253 0.24579 21.804 23.087 21.804 23.087s-5.0923-21.137-21.804-20.755c-18.195 0.41592-25.5 19.586-23.903 19.472z" fill="#2e3436" filter="url(#ak-6)" opacity=".56229"/><path d="m104.69 177.89-8.0454 55.852c10.236-8.2522 20.586-9.8695 31.132-0.1166l-6.2964-55.852v-1.5158c-4.7529 4.0804-9.9083 5.344-16.207 0.3498l-0.2332-0.8162z" fill="url(#al)" opacity=".48148"/><path d="m123.2 160.97c0.14438 5.2632 0.034 13.503-4.2399 16.899-1.1647 0.92563-3.4273 1.6456-5.9361 1.5456-2.8222-0.11246-4.12-0.13908-5.7056-1.7511-3.1751-3.2281-3.4393-10.138-3.5513-16.461-0.0839-4.7376 4.9489-9.046 9.6873-9.046 4.7384 0 9.7456 4.0744 9.7456 8.8128z" fill="none" stroke="#555753" stroke-linejoin="round" stroke-width="1.2"/><path d="m103.89 102.27h17.974c1.3877 21.558 1.2491 45.5 0 66.619h-17.974c-1.5664-21.327-1.5114-45.292 0-66.619z" fill="#d3d7cf" stroke="#888a85" stroke-linejoin="round" stroke-width="3.7"/><path d="m103.89 102.27h17.974c1.3877 21.558-0.38329 43.634-1.6324 64.753l-14.709 0.1166c-1.5664-21.327-3.1438-43.543-1.6324-64.87z" fill="url(#am)"/><path d="m105.21 160.57 15.391 0.1166-0.34981 6.1798-14.692 0.2332z" fill="url(#an)"/><path d="m105.67 104.14h14.342l0.34981 6.6462-15.158-0.1166z" fill="url(#ao)"/></svg>
