<?xml version="1.0" encoding="UTF-8"?>
<svg class="iconify iconify--noto" width="1463" height="1064" aria-hidden="true" preserveAspectRatio="xMidYMid" role="img" version="1.1" viewBox="0 0 234 170" xmlns="http://www.w3.org/2000/svg">
 <defs>
  <radialGradient id="IconifyId17ecdb2904d178eab9960-2" cx="67.2" cy="493" r="80.7" gradientTransform="matrix(.786 .232 -.253 .843 -28.6 -436)" gradientUnits="userSpaceOnUse">
   <stop stop-color="#F9DDBD" offset="0"/>
   <stop stop-color="#F8DBBA" offset=".327"/>
   <stop stop-color="#F5D5AF" offset=".604"/>
   <stop stop-color="#F0CB9E" offset=".862"/>
   <stop stop-color="#EDC391" offset="1"/>
  </radialGradient>
  <radialGradient id="IconifyId17ecdb2904d178eab9959-4" cx="-439" cy="70.3" r="22.1" gradientTransform="matrix(-.123 .977 .395 .0458 -138 428)" gradientUnits="userSpaceOnUse">
   <stop stop-color="#F9DDBD" offset=".5"/>
   <stop stop-color="#EDC391" offset="1"/>
  </radialGradient>
  <radialGradient id="IconifyId17ecdb2904d178eab9958-5" cx="49.1" cy="258" r="29.6" fx="55.2" fy="230" gradientTransform="matrix(.00672 .985 .336 .00369 -163 -52.2)" gradientUnits="userSpaceOnUse">
   <stop stop-color="#F9DDBD" offset=".5"/>
   <stop stop-color="#EDC391" offset="1"/>
  </radialGradient>
  <radialGradient id="IconifyId17ecdb2904d178eab9957-3" cx="48.1" cy="75.2" r="29.6" gradientTransform="matrix(1 0 0 .61 21.1 -26.9)" gradientUnits="userSpaceOnUse">
   <stop stop-color="#EDC391" offset=".34"/>
   <stop stop-color="#EDC391" stop-opacity="0" offset="1"/>
  </radialGradient>
  <radialGradient id="IconifyId17ecdb2904d178eab9956-5" cx="48" cy="9.95" r="116" gradientTransform="matrix(.00218 .991 .442 -.00095 -73.6 -93.2)" gradientUnits="userSpaceOnUse">
   <stop stop-color="#EDC391" offset=".242"/>
   <stop stop-color="#F9DDBD" offset=".688"/>
   <stop stop-color="#EDC391" offset=".992"/>
  </radialGradient>
 </defs>
 <radialGradient id="IconifyId17ecdb2904d178eab9956" cx="48" cy="9.95" r="116" gradientTransform="matrix(-.00218 .991 -.442 -.00095 52.5 -37)" gradientUnits="userSpaceOnUse">
  <stop stop-color="#EDC391" offset=".242"/>
  <stop stop-color="#F9DDBD" offset=".688"/>
  <stop stop-color="#EDC391" offset=".992"/>
 </radialGradient>
 <radialGradient id="IconifyId17ecdb2904d178eab9957" cx="48.1" cy="75.2" r="29.6" gradientTransform="matrix(1 0 0 .61 0 29.2)" gradientUnits="userSpaceOnUse">
  <stop stop-color="#EDC391" offset=".34"/>
  <stop stop-color="#EDC391" stop-opacity="0" offset="1"/>
 </radialGradient>
 <radialGradient id="IconifyId17ecdb2904d178eab9958" cx="49.1" cy="258" r="29.6" fx="55.2" fy="230" gradientTransform="matrix(-.00672 .985 -.336 .00369 142 4.02)" gradientUnits="userSpaceOnUse">
  <stop stop-color="#F9DDBD" offset=".5"/>
  <stop stop-color="#EDC391" offset="1"/>
 </radialGradient>
 <radialGradient id="IconifyId17ecdb2904d178eab9959" cx="-439" cy="70.3" r="22.1" gradientTransform="matrix(.123 .977 -.395 .0458 117 484)" gradientUnits="userSpaceOnUse">
  <stop stop-color="#F9DDBD" offset=".5"/>
  <stop stop-color="#EDC391" offset="1"/>
 </radialGradient>
 <radialGradient id="IconifyId17ecdb2904d178eab9960" cx="67.2" cy="493" r="80.7" gradientTransform="matrix(-.786 .232 .253 .843 7.46 -380)" gradientUnits="userSpaceOnUse">
  <stop stop-color="#F9DDBD" offset="0"/>
  <stop stop-color="#F8DBBA" offset=".327"/>
  <stop stop-color="#F5D5AF" offset=".604"/>
  <stop stop-color="#F0CB9E" offset=".862"/>
  <stop stop-color="#EDC391" offset="1"/>
 </radialGradient>
 <g transform="translate(113 22.3)">
  <path d="m48.3 122c-21.9 0-37.2-15.9-37.2-38.8v-17.4l-2.08-32.1c-0.19-2.65 0.5-5.01 1.93-6.66 1.17-1.35 2.81-2.13 4.73-2.27 0.2-0.01 0.4-0.02 0.59-0.02 4.07 0 6.92 3.05 7.25 7.77 0 0.04 0.01 0.09 0.01 0.13l3.86 24c0.12 0.72 0.74 1.26 1.47 1.26 9.94 0.05 23.2 1.28 34.6 3.21a1.48 1.48 0 0 0 1.21-0.33c0.34-0.28 0.53-0.69 0.54-1.13l0.74-47c0.21-3.8 2.49-7.7 7.1-7.7 0.15 0 0.3 0 0.46 0.01 2.11 0.11 3.86 1.02 5.05 2.61 1.16 1.56 1.73 3.7 1.6 6.02l-0.47 49c-0.02 1.94 0.11 3.66 0.4 5.27 1.35 7.53 4.85 9.15 7.16 10.2 1 0.47 1.58 0.75 1.84 1.25 1.76 3.39 0.3 12.3-5.18 21.3-3.88 6.41-15.2 21.3-35.6 21.3z" fill="url(#IconifyId17ecdb2904d178eab9956)"/>
  <path d="m73.1 7c0.12 0 0.25 0 0.38 0.01 1.5 0.08 2.72 0.63 3.63 1.64 1.14 1.27 1.73 3.24 1.61 5.41v0.14l-0.47 49c-0.02 2.03 0.12 3.84 0.43 5.55 1.49 8.29 5.57 10.2 8 11.3 0.42 0.2 0.99 0.46 1.15 0.61 1.26 2.51 0.5 10.5-5.15 19.8-3.77 6.18-14.6 20.6-34.4 20.6-10.6 0-19.7-3.75-26.2-10.8-6.14-6.73-9.51-16.1-9.51-26.4v-17.4c0-0.06 0-0.13-0.01-0.19l-2.08-32c-0.16-2.21 0.41-4.24 1.57-5.56 0.92-1.06 2.16-1.65 3.7-1.75 0.17-0.01 0.33-0.02 0.49-0.02 3.91 0 5.55 3.44 5.75 6.38l0.03 0.26 3.86 24a2.99 2.99 0 0 0 2.95 2.52c9.86 0.05 23 1.27 34.4 3.19 0.17 0.03 0.33 0.04 0.5 0.04a3 3 0 0 0 3-2.95l0.74-46.9c0.17-2.92 1.74-6.29 5.6-6.29m0-3c-5.09 0-8.31 4-8.6 9.17l-0.74 47c-10.6-1.79-24-3.18-34.8-3.23l-3.86-24c-0.37-5.19-3.66-9.17-8.75-9.17-0.23 0-0.46 0.01-0.7 0.02-5.48 0.38-8.44 5.09-8.05 10.5l2.08 32v17.4c0 22.1 14.6 40.2 38.7 40.2 32 0 47-35.5 42.2-44.8-1.53-2.95-7.04-0.96-8.85-11-0.3-1.64-0.39-3.32-0.38-4.99l0.47-49c0.29-5.32-2.68-9.89-8.08-10.2-0.18-0.01-0.36-0.01-0.53-0.01z" fill="#e6b77e"/>
  <ellipse cx="48.1" cy="75.1" rx="27.5" ry="20.5" fill="url(#IconifyId17ecdb2904d178eab9957)" opacity=".4"/>
  <path d="m54.7 84.2c-2.01 0-3.74-0.67-5-1.95-1.37-1.39-2.11-3.4-2.08-5.67l-0.8-21c0.05-4.17 3.82-7.64 8.4-7.66 2.36 0 4.49 0.87 6.04 2.44 1.39 1.41 2.15 3.25 2.12 5.18l-1.29 20.8c-0.06 4.61-3.08 7.79-7.36 7.81z" fill="url(#IconifyId17ecdb2904d178eab9958)"/>
  <path d="m55.2 46.5v3c1.92 0 3.67 0.71 4.94 1.99 1.09 1.11 1.69 2.54 1.69 4.04l-1.29 20.8c0 0.05 0 0.1-0.01 0.15-0.04 3.1-1.86 6.23-5.89 6.25-1.63 0-2.95-0.51-3.93-1.5-1.09-1.1-1.67-2.73-1.65-4.6v-0.15l-0.79-20.8c0.08-3.4 3.16-6.17 6.91-6.18l0.02-3m0 0h-0.04c-5.4 0.02-9.83 4.15-9.9 9.21l0.8 20.9c-0.06 5.05 3.21 9.14 8.58 9.14h0.04c5.4-0.02 8.79-4.15 8.85-9.21l1.3-20.9c0.07-5.06-4.24-9.14-9.63-9.14z" fill="#e6b77e"/>
  <path d="m37.5 82.8c-3.95 0-6.94-2.83-7.42-7.05l-3.03-17.2c-0.21-1.89 0.37-3.86 1.65-5.45 1.41-1.75 3.56-2.89 5.91-3.13 0.31-0.03 0.63-0.05 0.94-0.05 4.36 0 7.99 3.03 8.45 7.05l0.91 17c0.28 2.44-0.28 4.62-1.57 6.22-1.17 1.45-2.87 2.33-4.91 2.54-0.32 0.04-0.63 0.05-0.93 0.05z" fill="url(#IconifyId17ecdb2904d178eab9959)"/>
  <path d="m35.5 51.5c3.56 0 6.54 2.42 6.95 5.64l0.92 17c0 0.06 0.01 0.12 0.02 0.18 0.22 1.95-0.22 3.73-1.26 5.02-0.91 1.13-2.26 1.82-3.9 1.98-0.26 0.03-0.52 0.04-0.77 0.04-3.2 0-5.53-2.24-5.93-5.72l-0.03-0.18-3-17c-0.16-1.55 0.31-3.09 1.32-4.35 1.16-1.44 2.94-2.38 4.89-2.58 0.27-0.02 0.53-0.03 0.79-0.03m0-3c-0.36 0-0.72 0.02-1.09 0.05-5.5 0.56-9.48 5.18-8.88 10.3l3.02 17.1c0.55 4.81 3.98 8.37 8.91 8.37 0.35 0 0.71-0.02 1.07-0.05 5.5-0.56 8.43-5.18 7.84-10.3l-0.92-17.1c-0.56-4.81-4.9-8.37-9.95-8.37z" fill="#e6b77e"/>
  <path d="m109 64.8c7.5 1.38 13.2 6.12 12.4 11.6-0.61 4.13-3.7 7.19-9.56 6.41-10.1-1.35-18 3.32-21.3 10.4-4.19 8.8-9.88 16.6-12.4 17.6-10.7 4.02-20.3-3.74-18.9-16.2 1.53-13.2 17.1-22.5 21.2-24.5 5.86-2.82 16.7-7.35 28.5-5.2z" fill="url(#IconifyId17ecdb2904d178eab9960)"/>
  <path d="m109 64.8c-2.14-0.39-4.25-0.56-6.3-0.56-9.24 0-17.4 3.45-22.2 5.76-1.83 0.88-8.15 5-12.3 8.55 2.62 0.62 12.3-5.2 13.6-5.85 2.81-1.35 11.4-5.46 20.9-5.46 1.96 0 3.9 0.17 5.76 0.51 6.13 1.12 10.5 4.71 10 8.17-0.39 2.64-2.01 3.97-4.83 3.97-0.43 0-0.89-0.03-1.37-0.1-1.28-0.17-2.57-0.26-3.82-0.26-9.1 0-17 4.71-20.6 12.3-1.35 2.83-2.77 5.64-4.43 8.31-0.79 1.27-1.61 2.51-2.58 3.65-1.34 1.57-2.75 3.08-4.18 4.57-0.72 0.75-1.44 1.49-2.16 2.23-0.37 0.38-0.72 0.81-1.12 1.15-0.18 0.15-0.72 0.73-0.92 0.74 1.38-0.09 6.29 3.75 18.1-19.4 3.13-6.13 9.46-10.6 17.9-10.6 1.11 0 2.25 0.08 3.42 0.23 0.62 0.08 1.21 0.12 1.76 0.12 4.72 0 7.25-2.84 7.8-6.53 0.82-5.41-4.93-10.2-12.4-11.5z" fill="#e6b77e"/>
 </g>
 <g transform="translate(142 78.5)">
  <path d="m-69.4 66.3c21.9 0 37.2-15.9 37.2-38.8v-17.4l2.08-32.1c0.19-2.65-0.5-5.01-1.93-6.66-1.17-1.35-2.81-2.13-4.73-2.27-0.2-0.01-0.4-0.02-0.59-0.02-4.07 0-6.92 3.05-7.25 7.77 0 0.04-0.01 0.09-0.01 0.13l-3.86 24c-0.12 0.72-0.74 1.26-1.47 1.26-9.94 0.05-23.2 1.28-34.6 3.21a1.48 1.48 0 0 1-1.21-0.33c-0.34-0.28-0.53-0.69-0.54-1.13l-0.74-47c-0.21-3.8-2.49-7.7-7.1-7.7-0.15 0-0.3 0-0.46 0.01-2.11 0.11-3.86 1.02-5.05 2.61-1.16 1.56-1.73 3.7-1.6 6.02l0.47 49c0.02 1.94-0.11 3.66-0.4 5.27-1.35 7.53-4.85 9.15-7.16 10.2-1 0.47-1.58 0.75-1.84 1.25-1.76 3.39-0.3 12.3 5.18 21.3 3.88 6.41 15.1 21.3 35.6 21.3z" fill="url(#IconifyId17ecdb2904d178eab9956-5)"/>
  <path d="m-94.2-49.2c-0.12 0-0.25 0-0.38 0.01-1.5 0.08-2.72 0.63-3.63 1.64-1.14 1.27-1.73 3.24-1.61 5.41v0.14l0.47 49c0.02 2.03-0.12 3.84-0.43 5.55-1.49 8.29-5.57 10.2-8 11.3-0.42 0.2-0.99 0.46-1.15 0.61-1.26 2.51-0.5 10.5 5.15 19.8 3.77 6.18 14.6 20.6 34.4 20.6 10.6 0 19.7-3.75 26.2-10.8 6.14-6.73 9.51-16.1 9.51-26.4v-17.4c0-0.06 0-0.13 0.01-0.19l2.08-32c0.16-2.21-0.41-4.24-1.57-5.56-0.92-1.06-2.16-1.65-3.7-1.75-0.17-0.01-0.33-0.02-0.49-0.02-3.91 0-5.55 3.44-5.75 6.38l-0.03 0.26-3.86 24a2.99 2.99 0 0 1-2.95 2.52c-9.86 0.05-23 1.27-34.4 3.19-0.17 0.03-0.33 0.04-0.5 0.04a3 3 0 0 1-3-2.95l-0.74-46.9c-0.17-2.92-1.74-6.29-5.6-6.29m0-3c5.09 0 8.31 4 8.6 9.17l0.74 47c10.6-1.79 24-3.18 34.8-3.23l3.86-24c0.37-5.19 3.66-9.17 8.75-9.17 0.23 0 0.46 0.01 0.7 0.02 5.48 0.38 8.44 5.09 8.05 10.5l-2.08 32v17.4c0 22.1-14.6 40.2-38.7 40.2-32 0-47-35.5-42.2-44.8 1.53-2.95 7.04-0.96 8.85-11 0.3-1.64 0.39-3.32 0.38-4.99l-0.47-49c-0.29-5.32 2.68-9.89 8.08-10.2 0.18-0.01 0.36-0.01 0.53-0.01z" fill="#e6b77e"/>
  <ellipse transform="scale(-1,1)" cx="69.2" cy="18.9" rx="27.5" ry="20.5" fill="url(#IconifyId17ecdb2904d178eab9957-3)" opacity=".4"/>
  <path d="m-75.8 28c2.01 0 3.74-0.67 5-1.95 1.37-1.39 2.11-3.4 2.08-5.67l0.8-21c-0.05-4.17-3.82-7.64-8.4-7.66-2.36 0-4.49 0.87-6.04 2.44-1.39 1.41-2.15 3.25-2.12 5.18l1.29 20.8c0.06 4.61 3.08 7.79 7.36 7.81z" fill="url(#IconifyId17ecdb2904d178eab9958-5)"/>
  <path d="m-76.3-9.72v3c-1.92 0-3.67 0.71-4.94 1.99-1.09 1.11-1.69 2.54-1.69 4.04l1.29 20.8c0 0.05 0 0.1 0.01 0.15 0.04 3.1 1.86 6.23 5.89 6.25 1.63 0 2.95-0.51 3.93-1.5 1.09-1.1 1.67-2.73 1.65-4.6v-0.15l0.79-20.8c-0.08-3.4-3.16-6.17-6.91-6.18l-0.02-3m0 0h0.04c5.4 0.02 9.83 4.15 9.9 9.21l-0.8 20.9c0.06 5.05-3.21 9.14-8.58 9.14h-0.04c-5.4-0.02-8.79-4.15-8.85-9.21l-1.3-20.9c-0.07-5.06 4.24-9.14 9.63-9.14z" fill="#e6b77e"/>
  <path d="m-58.6 26.7c3.95 0 6.94-2.83 7.42-7.05l3.03-17.2c0.21-1.89-0.37-3.86-1.65-5.45-1.41-1.75-3.56-2.89-5.91-3.13-0.31-0.03-0.63-0.05-0.94-0.05-4.36 0-7.99 3.03-8.45 7.05l-0.91 17c-0.28 2.44 0.28 4.62 1.57 6.22 1.17 1.45 2.87 2.33 4.91 2.54 0.32 0.04 0.63 0.05 0.93 0.05z" fill="url(#IconifyId17ecdb2904d178eab9959-4)"/>
  <path d="m-56.6-4.69c-3.56 0-6.54 2.42-6.95 5.64l-0.92 17c0 0.06-0.01 0.12-0.02 0.18-0.22 1.95 0.22 3.73 1.26 5.02 0.91 1.13 2.26 1.82 3.9 1.98 0.26 0.03 0.52 0.04 0.77 0.04 3.2 0 5.53-2.24 5.93-5.72l0.03-0.18 3-17c0.16-1.55-0.31-3.09-1.32-4.35-1.16-1.44-2.94-2.38-4.89-2.58-0.27-0.02-0.53-0.03-0.79-0.03m0-3c0.36 0 0.72 0.02 1.09 0.05 5.5 0.56 9.48 5.18 8.88 10.3l-3.02 17.1c-0.55 4.81-3.98 8.37-8.91 8.37-0.35 0-0.71-0.02-1.07-0.05-5.5-0.56-8.43-5.18-7.84-10.3l0.92-17.1c0.56-4.81 4.9-8.37 9.95-8.37z" fill="#e6b77e"/>
  <path d="m-130 8.63c-7.5 1.38-13.2 6.12-12.4 11.6 0.61 4.13 3.7 7.19 9.56 6.41 10.1-1.35 18 3.32 21.3 10.4 4.19 8.8 9.88 16.6 12.4 17.6 10.7 4.02 20.3-3.74 18.9-16.2-1.53-13.2-17.1-22.5-21.2-24.5-5.86-2.82-16.7-7.35-28.5-5.2z" fill="url(#IconifyId17ecdb2904d178eab9960-2)"/>
  <path d="m-130 8.63c2.14-0.39 4.25-0.56 6.3-0.56 9.24 0 17.4 3.45 22.2 5.76 1.83 0.88 8.15 5 12.3 8.55-2.62 0.62-12.3-5.2-13.6-5.85-2.81-1.35-11.4-5.46-20.9-5.46-1.96 0-3.9 0.17-5.76 0.51-6.13 1.12-10.5 4.71-10 8.17 0.39 2.64 2.01 3.97 4.83 3.97 0.43 0 0.89-0.03 1.37-0.1 1.28-0.17 2.57-0.26 3.82-0.26 9.1 0 17 4.71 20.6 12.3 1.35 2.83 2.77 5.64 4.43 8.31 0.79 1.27 1.61 2.51 2.58 3.65 1.34 1.57 2.75 3.08 4.18 4.57 0.72 0.75 1.44 1.49 2.16 2.23 0.37 0.38 0.72 0.81 1.12 1.15 0.18 0.15 0.72 0.73 0.92 0.74-1.38-0.09-6.29 3.75-18.1-19.4-3.13-6.13-9.46-10.6-17.9-10.6-1.11 0-2.25 0.08-3.42 0.23-0.62 0.08-1.21 0.12-1.76 0.12-4.72 0-7.25-2.84-7.8-6.53-0.82-5.41 4.93-10.2 12.4-11.5z" fill="#e6b77e"/>
 </g>
 <g fill="#000000" font-family="sans-serif" stroke-width=".16" text-anchor="middle">
  <g font-size="11.9px">
   <text x="216.73383" y="99.834114" text-align="center" style="line-height:1.25" xml:space="preserve"><tspan x="216.73383" y="99.834114" font-family="'Trebuchet MS'" font-size="11.9px" stroke-width=".16" text-align="center" text-anchor="middle">1</tspan></text>
   <text x="185.95328" y="42.182503" text-align="center" style="line-height:1.25" xml:space="preserve"><tspan x="185.95328" y="42.182503" font-family="'Trebuchet MS'" font-size="11.9px" stroke-width=".16" text-align="center" text-anchor="middle">2</tspan></text>
   <text x="128.43912" y="61.018753" text-align="center" style="line-height:1.25" xml:space="preserve"><tspan x="128.43912" y="61.018753" font-family="'Trebuchet MS'" font-size="11.9px" stroke-width=".16" text-align="center" text-anchor="middle">16</tspan></text>
   <text x="104.49994" y="60.661671" text-align="center" style="line-height:1.25" xml:space="preserve"><tspan x="104.49994" y="60.661671" font-family="'Trebuchet MS'" font-size="11.9px" stroke-width=".16" text-align="center" text-anchor="middle">32</tspan></text>
   <text x="48.091614" y="41.957924" text-align="center" style="line-height:1.25" xml:space="preserve"><tspan x="48.091614" y="41.957924" font-family="'Trebuchet MS'" font-size="11.9px" stroke-width=".16" text-align="center" text-anchor="middle">256</tspan></text>
   <text x="19.268265" y="100.69501" text-align="center" style="line-height:1.25" xml:space="preserve"><tspan x="19.268265" y="100.69501" font-family="'Trebuchet MS'" font-size="11.9px" stroke-width=".16" text-align="center" text-anchor="middle">512</tspan></text>
  </g>
  <text x="116.01102" y="17.394976" font-size="23.9px" text-align="center" style="line-height:1.25" xml:space="preserve"><tspan x="116.01102" y="17.394976" font-family="'Trebuchet MS'" font-size="23.9px" stroke-width=".16" text-align="center" text-anchor="middle">1 1 0 0 1 1 0 0 1 1</tspan></text>
  <text x="114.82837" y="165.2229" font-size="23.9px" text-align="center" style="line-height:1.25" xml:space="preserve"><tspan x="114.82837" y="165.2229" font-family="'Trebuchet MS'" font-size="23.9px" font-style="italic" stroke-width=".16" text-align="center" text-anchor="middle">(819)</tspan></text>
 </g>
</svg>
