<?xml version="1.0" encoding="UTF-8"?>
<svg width="800" height="400" version="1.1" viewBox="-10 -11 40 20" xmlns="http://www.w3.org/2000/svg" xmlns:xlink="http://www.w3.org/1999/xlink">
 <defs>
  <path id="a" d="m-6-3.4641a6 6 0 0 1 12 0z"/>
  <path id="b" d="m0-3.4641a6 6 0 0 0-6 0 6 6 0 0 0 3 5.1961z"/>
  <path id="c" d="m0-3.4641a6 6 0 0 1 3 5.1961 6 6 0 0 1-6 0 6 6 0 0 1 3-5.1961z"/>
 </defs>
 <path d="m-10-11h20v20h-20"/>
 <use width="100%" height="100%" fill="#ff0000" xlink:href="#a"/>
 <use transform="rotate(120)" width="100%" height="100%" fill="#0000ff" xlink:href="#a"/>
 <use transform="rotate(240)" width="100%" height="100%" fill="#00ff00" xlink:href="#a"/>
 <use width="100%" height="100%" fill="#ffff00" xlink:href="#b"/>
 <use transform="rotate(120)" width="100%" height="100%" fill="#ff00ff" xlink:href="#b"/>
 <use transform="rotate(240)" width="100%" height="100%" fill="#00ffff" xlink:href="#b"/>
 <use width="100%" height="100%" fill="#ffffff" xlink:href="#c"/>
 <g fill="none" stroke-width=".5">
  <path d="m-1-4v-4h1a1 1 0 0 1 0 2h-1 1l1.2 2" stroke="#000"/>
  <path d="m-5 2a1 1 0 0 0-2 0v2a1 1 0 0 0 2 0v-1h-1" stroke="#000"/>
  <path d="m5 5v-4h1a1 1 0 0 1 0 2h-1 1a1 1 0 0 1 0 2h-1.25" stroke="#fff"/>
 </g>
 <path d="m10-11h20v20h-20" fill="#fff"/>
 <use transform="translate(20)" width="100%" height="100%" fill="#00ffff" xlink:href="#a"/>
 <use transform="rotate(120 10 5.7735)" width="100%" height="100%" fill="#ffff00" xlink:href="#a"/>
 <use transform="rotate(240 10 -5.7735)" width="100%" height="100%" fill="#ff00ff" xlink:href="#a"/>
 <use transform="translate(20)" width="100%" height="100%" fill="#0000ff" xlink:href="#b"/>
 <use transform="rotate(120 10 5.7735)" width="100%" height="100%" fill="#00ff00" xlink:href="#b"/>
 <use transform="rotate(240 10 -5.7735)" width="100%" height="100%" fill="#ff0000" xlink:href="#b"/>
 <use transform="translate(20)" width="100%" height="100%" fill="#000000" xlink:href="#c"/>
 <g fill="none" stroke="#000" stroke-width=".5">
  <path d="m21-7a1 1 0 0 0-2 0v2a1 1 0 0 0 2 0"/>
  <path d="m13 5.25v-4.5l1 3 1-3v4.5"/>
  <path d="m25 0.75 1.2 2v2.75-2.75l1.2-2"/>
 </g>
 <text x="-8.5220518" y="-9.4991159" fill="#ffffff" font-family="sans-serif" font-size="1.3333px" stroke-width=".05" style="line-height:1.25" xml:space="preserve"><tspan x="-8.5220518" y="-9.4991159" fill="#ffffff" font-size="1.3333px" stroke-width=".05">Screen</tspan></text>
 <text x="11.387388" y="-9.4903889" fill="#000000" font-family="sans-serif" font-size="1.3333px" stroke-width=".05" style="line-height:1.25" xml:space="preserve"><tspan x="11.387388" y="-9.4903889" fill="#000000" font-size="1.3333px" stroke-width=".05">Printer</tspan></text>
</svg>
