<?xml version="1.0" encoding="UTF-8" standalone="no"?>
<!DOCTYPE svg PUBLIC "-//W3C//DTD SVG 1.0//EN" "http://www.w3.org/TR/2001/PR-SVG-20010719/DTD/svg10.dtd">
<svg width="12cm" height="21cm" viewBox="179 79 223 402" xmlns="http://www.w3.org/2000/svg" xmlns:xlink="http://www.w3.org/1999/xlink">
  <defs/>
  <g id="Background">
    <rect style="fill: #1e90ff; fill-opacity: 1; stroke-opacity: 1; stroke-width: 2; stroke: #000000" x="340" y="80" width="60" height="40" rx="0" ry="0"/>
    <text font-size="16.9333" style="fill: #ffffff; fill-opacity: 1; stroke: none;text-anchor:middle;font-family:sans-serif;font-style:normal;font-weight:normal" x="370" y="105.862">
      <tspan x="370" y="105.862">Dec</tspan>
    </text>
    <rect style="fill: #1e90ff; fill-opacity: 1; stroke-opacity: 1; stroke-width: 2; stroke: #000000" x="180" y="80" width="100" height="40" rx="0" ry="0"/>
    <text font-size="16.9333" style="fill: #ffffff; fill-opacity: 1; stroke: none;text-anchor:middle;font-family:sans-serif;font-style:normal;font-weight:normal" x="230" y="105.862">
      <tspan x="230" y="105.862">Bin</tspan>
    </text>
    <rect style="fill: #1e90ff; fill-opacity: 1; stroke-opacity: 1; stroke-width: 2; stroke: #000000" x="280" y="80" width="60" height="40" rx="0" ry="0"/>
    <text font-size="16.9333" style="fill: #ffffff; fill-opacity: 1; stroke: none;text-anchor:middle;font-family:sans-serif;font-style:normal;font-weight:normal" x="310" y="105.862">
      <tspan x="310" y="105.862">Hex</tspan>
    </text>
    <rect style="fill: #ffffff; fill-opacity: 1; stroke-opacity: 1; stroke-width: 2; stroke: #000000" x="340" y="120" width="60" height="360" rx="0" ry="0"/>
    <text font-size="16.9333" style="fill: #000000; fill-opacity: 1; stroke: none;text-anchor:middle;font-family:sans-serif;font-style:normal;font-weight:normal" x="370" y="146.866">
      <tspan x="370" y="146.866">0</tspan>
      <tspan x="370" y="168.032">1</tspan>
      <tspan x="370" y="189.199">2</tspan>
      <tspan x="370" y="210.366">3</tspan>
      <tspan x="370" y="231.532">4</tspan>
      <tspan x="370" y="252.699">5</tspan>
      <tspan x="370" y="273.866">6</tspan>
      <tspan x="370" y="295.032">7</tspan>
      <tspan x="370" y="316.199">8</tspan>
      <tspan x="370" y="337.366">9</tspan>
      <tspan x="370" y="358.532">10</tspan>
      <tspan x="370" y="379.699">11</tspan>
      <tspan x="370" y="400.866">12</tspan>
      <tspan x="370" y="422.032">13</tspan>
      <tspan x="370" y="443.199">14</tspan>
      <tspan x="370" y="464.366">15</tspan>
    </text>
    <rect style="fill: #ffffff; fill-opacity: 1; stroke-opacity: 1; stroke-width: 2; stroke: #000000" x="180" y="120" width="100" height="360" rx="0" ry="0"/>
    <text font-size="16.9333" style="fill: #000000; fill-opacity: 1; stroke: none;text-anchor:middle;font-family:sans-serif;font-style:normal;font-weight:normal" x="230" y="147.112">
      <tspan x="230" y="147.112">0000</tspan>
      <tspan x="230" y="168.279">0001</tspan>
      <tspan x="230" y="189.445">0010</tspan>
      <tspan x="230" y="210.612">0011</tspan>
      <tspan x="230" y="231.779">0100</tspan>
      <tspan x="230" y="252.945">0101</tspan>
      <tspan x="230" y="274.112">0110</tspan>
      <tspan x="230" y="295.279">0111</tspan>
      <tspan x="230" y="316.445">1000</tspan>
      <tspan x="230" y="337.612">1001</tspan>
      <tspan x="230" y="358.779">1010</tspan>
      <tspan x="230" y="379.945">1011</tspan>
      <tspan x="230" y="401.112">1100</tspan>
      <tspan x="230" y="422.279">1101</tspan>
      <tspan x="230" y="443.445">1110</tspan>
      <tspan x="230" y="464.612">1111</tspan>
    </text>
    <rect style="fill: #ffffff; fill-opacity: 1; stroke-opacity: 1; stroke-width: 2; stroke: #000000" x="280" y="120" width="60" height="360" rx="0" ry="0"/>
    <text font-size="16.9333" style="fill: #000000; fill-opacity: 1; stroke: none;text-anchor:middle;font-family:sans-serif;font-style:normal;font-weight:normal" x="310" y="147.112">
      <tspan x="310" y="147.112">0</tspan>
      <tspan x="310" y="168.279">1</tspan>
      <tspan x="310" y="189.445">2</tspan>
      <tspan x="310" y="210.612">3</tspan>
      <tspan x="310" y="231.779">4</tspan>
      <tspan x="310" y="252.945">5</tspan>
      <tspan x="310" y="274.112">6</tspan>
      <tspan x="310" y="295.279">7</tspan>
      <tspan x="310" y="316.445">8</tspan>
      <tspan x="310" y="337.612">9</tspan>
      <tspan x="310" y="358.779">A</tspan>
      <tspan x="310" y="379.945">B</tspan>
      <tspan x="310" y="401.112">C</tspan>
      <tspan x="310" y="422.279">D</tspan>
      <tspan x="310" y="443.445">E</tspan>
      <tspan x="310" y="464.612">F</tspan>
    </text>
  </g>
</svg>
