<?xml version="1.0" encoding="UTF-8" standalone="no"?>
<!DOCTYPE svg PUBLIC "-//W3C//DTD SVG 1.0//EN" "http://www.w3.org/TR/2001/PR-SVG-20010719/DTD/svg10.dtd">
<svg width="11cm" height="9cm" viewBox="699 199 203 163" xmlns="http://www.w3.org/2000/svg" xmlns:xlink="http://www.w3.org/1999/xlink">
  <g id="Background"/>
  <g id="Background"/>
  <g id="Background"/>
  <g id="Background">
    <g>
      <rect style="fill: #1e90ff; fill-opacity: 1; stroke-opacity: 1; stroke-width: 2; stroke: #ffffff" x="700" y="200" width="40" height="40" rx="10" ry="10"/>
      <text font-size="28.2222" style="fill: #ffffff; fill-opacity: 1; stroke: none;text-anchor:middle;font-family:sans-serif;font-style:normal;font-weight:700" x="720" y="232.561">
        <tspan x="720" y="232.561">4</tspan>
      </text>
    </g>
    <g>
      <rect style="fill: #1e90ff; fill-opacity: 1; stroke-opacity: 1; stroke-width: 2; stroke: #ffffff" x="740" y="200" width="40" height="40" rx="10" ry="10"/>
      <text font-size="28.2222" style="fill: #ffffff; fill-opacity: 1; stroke: none;text-anchor:middle;font-family:sans-serif;font-style:normal;font-weight:700" x="760" y="232.561">
        <tspan x="760" y="232.561">5</tspan>
      </text>
    </g>
    <g>
      <rect style="fill: #1e90ff; fill-opacity: 1; stroke-opacity: 1; stroke-width: 2; stroke: #ffffff" x="780" y="200" width="40" height="40" rx="10" ry="10"/>
      <text font-size="28.2222" style="fill: #ffffff; fill-opacity: 1; stroke: none;text-anchor:middle;font-family:sans-serif;font-style:normal;font-weight:700" x="800" y="232.561">
        <tspan x="800" y="232.561">…</tspan>
      </text>
    </g>
    <g>
      <rect style="fill: #1e90ff; fill-opacity: 1; stroke-opacity: 1; stroke-width: 2; stroke: #ffffff" x="820" y="200" width="40" height="40" rx="10" ry="10"/>
      <text font-size="28.2222" style="fill: #ffffff; fill-opacity: 1; stroke: none;text-anchor:middle;font-family:sans-serif;font-style:normal;font-weight:700" x="840" y="232.561">
        <tspan x="840" y="232.561"></tspan>
      </text>
    </g>
    <g>
      <rect style="fill: #1e90ff; fill-opacity: 1; stroke-opacity: 1; stroke-width: 2; stroke: #ffffff" x="860" y="200" width="40" height="40" rx="10" ry="10"/>
      <text font-size="28.2222" style="fill: #ffffff; fill-opacity: 1; stroke: none;text-anchor:middle;font-family:sans-serif;font-style:normal;font-weight:700" x="880" y="232.561">
        <tspan x="880" y="232.561"></tspan>
      </text>
    </g>
    <g>
      <rect style="fill: #1e90ff; fill-opacity: 1; stroke-opacity: 1; stroke-width: 2; stroke: #ffffff" x="700" y="240" width="40" height="40" rx="10" ry="10"/>
      <text font-size="28.2222" style="fill: #ffffff; fill-opacity: 1; stroke: none;text-anchor:middle;font-family:sans-serif;font-style:normal;font-weight:700" x="720" y="272.561">
        <tspan x="720" y="272.561">3</tspan>
      </text>
    </g>
    <g>
      <rect style="fill: #1e90ff; fill-opacity: 1; stroke-opacity: 1; stroke-width: 2; stroke: #ffffff" x="740" y="240" width="40" height="40" rx="10" ry="10"/>
      <text font-size="28.2222" style="fill: #ffffff; fill-opacity: 1; stroke: none;text-anchor:middle;font-family:sans-serif;font-style:normal;font-weight:700" x="760" y="272.561">
        <tspan x="760" y="272.561"></tspan>
      </text>
    </g>
    <g>
      <rect style="fill: #1e90ff; fill-opacity: 1; stroke-opacity: 1; stroke-width: 2; stroke: #ffffff" x="780" y="240" width="40" height="40" rx="10" ry="10"/>
      <text font-size="28.2222" style="fill: #ffffff; fill-opacity: 1; stroke: none;text-anchor:middle;font-family:sans-serif;font-style:normal;font-weight:700" x="800" y="272.561">
        <tspan x="800" y="272.561"></tspan>
      </text>
    </g>
    <g>
      <rect style="fill: #1e90ff; fill-opacity: 1; stroke-opacity: 1; stroke-width: 2; stroke: #ffffff" x="820" y="240" width="40" height="40" rx="10" ry="10"/>
      <text font-size="28.2222" style="fill: #ffffff; fill-opacity: 1; stroke: none;text-anchor:middle;font-family:sans-serif;font-style:normal;font-weight:700" x="840" y="272.561">
        <tspan x="840" y="272.561"></tspan>
      </text>
    </g>
    <g>
      <rect style="fill: #1e90ff; fill-opacity: 1; stroke-opacity: 1; stroke-width: 2; stroke: #ffffff" x="861.758" y="240" width="38.2426" height="38.2426" rx="10" ry="10"/>
      <text font-size="28.2222" style="fill: #ffffff; fill-opacity: 1; stroke: none;text-anchor:middle;font-family:sans-serif;font-style:normal;font-weight:700" x="880.879" y="271.682">
        <tspan x="880.879" y="271.682"></tspan>
      </text>
    </g>
    <g>
      <rect style="fill: #1e90ff; fill-opacity: 1; stroke-opacity: 1; stroke-width: 2; stroke: #ffffff" x="700" y="280" width="40" height="40" rx="10" ry="10"/>
      <text font-size="28.2222" style="fill: #ffffff; fill-opacity: 1; stroke: none;text-anchor:middle;font-family:sans-serif;font-style:normal;font-weight:700" x="720" y="312.561">
        <tspan x="720" y="312.561">2</tspan>
      </text>
    </g>
    <g>
      <rect style="fill: #1e90ff; fill-opacity: 1; stroke-opacity: 1; stroke-width: 2; stroke: #ffffff" x="740" y="280" width="40" height="40" rx="10" ry="10"/>
      <text font-size="28.2222" style="fill: #ffffff; fill-opacity: 1; stroke: none;text-anchor:middle;font-family:sans-serif;font-style:normal;font-weight:700" x="760" y="312.561">
        <tspan x="760" y="312.561"></tspan>
      </text>
    </g>
    <g>
      <rect style="fill: #1e90ff; fill-opacity: 1; stroke-opacity: 1; stroke-width: 2; stroke: #ffffff" x="780" y="280" width="40" height="40" rx="10" ry="10"/>
      <text font-size="28.2222" style="fill: #ffffff; fill-opacity: 1; stroke: none;text-anchor:middle;font-family:sans-serif;font-style:normal;font-weight:700" x="800" y="312.561">
        <tspan x="800" y="312.561"></tspan>
      </text>
    </g>
    <g>
      <rect style="fill: #1e90ff; fill-opacity: 1; stroke-opacity: 1; stroke-width: 2; stroke: #ffffff" x="820" y="280" width="40" height="40" rx="10" ry="10"/>
      <text font-size="28.2222" style="fill: #ffffff; fill-opacity: 1; stroke: none;text-anchor:middle;font-family:sans-serif;font-style:normal;font-weight:700" x="840" y="312.561">
        <tspan x="840" y="312.561"></tspan>
      </text>
    </g>
    <g>
      <rect style="fill: #1e90ff; fill-opacity: 1; stroke-opacity: 1; stroke-width: 2; stroke: #ffffff" x="860" y="280" width="40" height="40" rx="10" ry="10"/>
      <text font-size="28.2222" style="fill: #ffffff; fill-opacity: 1; stroke: none;text-anchor:middle;font-family:sans-serif;font-style:normal;font-weight:700" x="880" y="312.561">
        <tspan x="880" y="312.561"></tspan>
      </text>
    </g>
    <g>
      <rect style="fill: #1e90ff; fill-opacity: 1; stroke-opacity: 1; stroke-width: 2; stroke: #ffffff" x="700" y="320" width="40" height="40" rx="10" ry="10"/>
      <text font-size="28.2222" style="fill: #ffffff; fill-opacity: 1; stroke: none;text-anchor:middle;font-family:sans-serif;font-style:normal;font-weight:700" x="720" y="352.561">
        <tspan x="720" y="352.561">1</tspan>
      </text>
    </g>
    <g>
      <rect style="fill: #1e90ff; fill-opacity: 1; stroke-opacity: 1; stroke-width: 2; stroke: #ffffff" x="740" y="320" width="40" height="40" rx="10" ry="10"/>
      <text font-size="28.2222" style="fill: #ffffff; fill-opacity: 1; stroke: none;text-anchor:middle;font-family:sans-serif;font-style:normal;font-weight:700" x="760" y="352.561">
        <tspan x="760" y="352.561"></tspan>
      </text>
    </g>
    <g>
      <rect style="fill: #1e90ff; fill-opacity: 1; stroke-opacity: 1; stroke-width: 2; stroke: #ffffff" x="780" y="320" width="40" height="40" rx="10" ry="10"/>
      <text font-size="28.2222" style="fill: #ffffff; fill-opacity: 1; stroke: none;text-anchor:middle;font-family:sans-serif;font-style:normal;font-weight:700" x="800" y="352.561">
        <tspan x="800" y="352.561"></tspan>
      </text>
    </g>
    <g>
      <rect style="fill: #1e90ff; fill-opacity: 1; stroke-opacity: 1; stroke-width: 2; stroke: #ffffff" x="820" y="320" width="40" height="40" rx="10" ry="10"/>
      <text font-size="28.2222" style="fill: #ffffff; fill-opacity: 1; stroke: none;text-anchor:middle;font-family:sans-serif;font-style:normal;font-weight:700" x="840" y="352.561">
        <tspan x="840" y="352.561"></tspan>
      </text>
    </g>
    <g>
      <rect style="fill: #1e90ff; fill-opacity: 1; stroke-opacity: 1; stroke-width: 2; stroke: #ffffff" x="860" y="320" width="40" height="40" rx="10" ry="10"/>
      <text font-size="28.2222" style="fill: #ffffff; fill-opacity: 1; stroke: none;text-anchor:middle;font-family:sans-serif;font-style:normal;font-weight:700" x="880" y="352.561">
        <tspan x="880" y="352.561"></tspan>
      </text>
    </g>
    <g>
      <polyline style="fill: none; stroke-opacity: 0.498039; stroke-width: 2; stroke-dasharray: 4; stroke: #000000" points="720,330 720,220 796.827,220 796.827,220 880,220 880,340 760,340 760,260 840,260 840,300 819.736,300 "/>
      <polygon style="fill: #000000; fill-opacity: 0.498039; stroke-opacity: 0.498039; stroke-width: 2; stroke: #000000" fill-rule="evenodd" points="812.236,300 822.236,295 819.736,300 822.236,305 "/>
    </g>
  </g>
</svg>
