<?xml version="1.0" encoding="UTF-8" standalone="no"?>
<!DOCTYPE svg PUBLIC "-//W3C//DTD SVG 1.0//EN" "http://www.w3.org/TR/2001/PR-SVG-20010719/DTD/svg10.dtd">
<svg width="21cm" height="17cm" viewBox="199 199 402 324" xmlns="http://www.w3.org/2000/svg" xmlns:xlink="http://www.w3.org/1999/xlink">
  <defs/>
  <g id="Background">
    <rect style="fill: #197ad8; fill-opacity: 1; stroke-opacity: 1; stroke-width: 2; stroke: #ffffff" x="200" y="200" width="80" height="81" rx="0" ry="0"/>
    <rect style="fill: #197ad8; fill-opacity: 1; stroke-opacity: 1; stroke-width: 2; stroke: #ffffff" x="280" y="200" width="80" height="81" rx="0" ry="0"/>
    <rect style="fill: #197ad8; fill-opacity: 1; stroke-opacity: 1; stroke-width: 2; stroke: #ffffff" x="360" y="200" width="80" height="81" rx="0" ry="0"/>
    <rect style="fill: #197ad8; fill-opacity: 1; stroke-opacity: 1; stroke-width: 2; stroke: #ffffff" x="440" y="200" width="80" height="81" rx="0" ry="0"/>
    <rect style="fill: #197ad8; fill-opacity: 1; stroke-opacity: 1; stroke-width: 2; stroke: #ffffff" x="520" y="200" width="80" height="81" rx="0" ry="0"/>
    <rect style="fill: #197ad8; fill-opacity: 1; stroke-opacity: 1; stroke-width: 2; stroke: #ffffff" x="200" y="280" width="80" height="81" rx="0" ry="0"/>
    <rect style="fill: #197ad8; fill-opacity: 1; stroke-opacity: 1; stroke-width: 2; stroke: #ffffff" x="280" y="280" width="80" height="81" rx="0" ry="0"/>
    <rect style="fill: #197ad8; fill-opacity: 1; stroke-opacity: 1; stroke-width: 2; stroke: #ffffff" x="360" y="280" width="80" height="81" rx="0" ry="0"/>
    <rect style="fill: #197ad8; fill-opacity: 1; stroke-opacity: 1; stroke-width: 2; stroke: #ffffff" x="440" y="280" width="80" height="81" rx="0" ry="0"/>
    <rect style="fill: #197ad8; fill-opacity: 1; stroke-opacity: 1; stroke-width: 2; stroke: #ffffff" x="520" y="280" width="80" height="81" rx="0" ry="0"/>
    <rect style="fill: #197ad8; fill-opacity: 1; stroke-opacity: 1; stroke-width: 2; stroke: #ffffff" x="200" y="360" width="80" height="81" rx="0" ry="0"/>
    <rect style="fill: #197ad8; fill-opacity: 1; stroke-opacity: 1; stroke-width: 2; stroke: #ffffff" x="280" y="360" width="80" height="81" rx="0" ry="0"/>
    <rect style="fill: #197ad8; fill-opacity: 1; stroke-opacity: 1; stroke-width: 2; stroke: #ffffff" x="360" y="360" width="80" height="81" rx="0" ry="0"/>
    <rect style="fill: #197ad8; fill-opacity: 1; stroke-opacity: 1; stroke-width: 2; stroke: #ffffff" x="440" y="360" width="80" height="81" rx="0" ry="0"/>
    <rect style="fill: #197ad8; fill-opacity: 1; stroke-opacity: 1; stroke-width: 2; stroke: #ffffff" x="520" y="360" width="80" height="81" rx="0" ry="0"/>
    <rect style="fill: #197ad8; fill-opacity: 1; stroke-opacity: 1; stroke-width: 2; stroke: #ffffff" x="200" y="440" width="80" height="81" rx="0" ry="0"/>
    <rect style="fill: #197ad8; fill-opacity: 1; stroke-opacity: 1; stroke-width: 2; stroke: #ffffff" x="280" y="440" width="80" height="81" rx="0" ry="0"/>
    <rect style="fill: #197ad8; fill-opacity: 1; stroke-opacity: 1; stroke-width: 2; stroke: #ffffff" x="360" y="440" width="80" height="81" rx="0" ry="0"/>
    <rect style="fill: #197ad8; fill-opacity: 1; stroke-opacity: 1; stroke-width: 2; stroke: #ffffff" x="440" y="440" width="80" height="81" rx="0" ry="0"/>
    <rect style="fill: #197ad8; fill-opacity: 1; stroke-opacity: 1; stroke-width: 2; stroke: #ffffff" x="520" y="440" width="80" height="81" rx="0" ry="0"/>
    <g>
      <line style="fill: none; stroke-opacity: 1; stroke-width: 2; stroke: #ff0000" x1="240" y1="460" x2="240" y2="429.736"/>
      <polygon style="fill: #ff0000; fill-opacity: 1; stroke-opacity: 1; stroke-width: 2; stroke: #ff0000" fill-rule="evenodd" points="240,422.236 245,432.236 240,429.736 235,432.236 "/>
    </g>
    <g>
      <line style="fill: none; stroke-opacity: 1; stroke-width: 2; stroke: #ff0000" x1="240" y1="380" x2="240" y2="349.736"/>
      <polygon style="fill: #ff0000; fill-opacity: 1; stroke-opacity: 1; stroke-width: 2; stroke: #ff0000" fill-rule="evenodd" points="240,342.236 245,352.236 240,349.736 235,352.236 "/>
    </g>
    <g>
      <line style="fill: none; stroke-opacity: 1; stroke-width: 2; stroke: #ff0000" x1="240" y1="300" x2="240" y2="269.736"/>
      <polygon style="fill: #ff0000; fill-opacity: 1; stroke-opacity: 1; stroke-width: 2; stroke: #ff0000" fill-rule="evenodd" points="240,262.236 245,272.236 240,269.736 235,272.236 "/>
    </g>
    <g>
      <line style="fill: none; stroke-opacity: 1; stroke-width: 2; stroke: #ff0000" x1="260" y1="240" x2="290.264" y2="240"/>
      <polygon style="fill: #ff0000; fill-opacity: 1; stroke-opacity: 1; stroke-width: 2; stroke: #ff0000" fill-rule="evenodd" points="297.764,240 287.764,245 290.264,240 287.764,235 "/>
    </g>
    <g>
      <line style="fill: none; stroke-opacity: 1; stroke-width: 2; stroke: #ff0000" x1="340" y1="240" x2="370.264" y2="240"/>
      <polygon style="fill: #ff0000; fill-opacity: 1; stroke-opacity: 1; stroke-width: 2; stroke: #ff0000" fill-rule="evenodd" points="377.764,240 367.764,245 370.264,240 367.764,235 "/>
    </g>
    <g>
      <line style="fill: none; stroke-opacity: 1; stroke-width: 2; stroke: #ff0000" x1="420" y1="240" x2="450.264" y2="240"/>
      <polygon style="fill: #ff0000; fill-opacity: 1; stroke-opacity: 1; stroke-width: 2; stroke: #ff0000" fill-rule="evenodd" points="457.764,240 447.764,245 450.264,240 447.764,235 "/>
    </g>
    <g>
      <line style="fill: none; stroke-opacity: 1; stroke-width: 2; stroke: #ff0000" x1="500" y1="240" x2="530.264" y2="240"/>
      <polygon style="fill: #ff0000; fill-opacity: 1; stroke-opacity: 1; stroke-width: 2; stroke: #ff0000" fill-rule="evenodd" points="537.764,240 527.764,245 530.264,240 527.764,235 "/>
    </g>
    <g>
      <line style="fill: none; stroke-opacity: 1; stroke-width: 2; stroke: #ff0000" x1="560" y1="260" x2="560" y2="290.264"/>
      <polygon style="fill: #ff0000; fill-opacity: 1; stroke-opacity: 1; stroke-width: 2; stroke: #ff0000" fill-rule="evenodd" points="560,297.764 555,287.764 560,290.264 565,287.764 "/>
    </g>
    <g>
      <line style="fill: none; stroke-opacity: 1; stroke-width: 2; stroke: #ff0000" x1="560" y1="340" x2="560" y2="370.264"/>
      <polygon style="fill: #ff0000; fill-opacity: 1; stroke-opacity: 1; stroke-width: 2; stroke: #ff0000" fill-rule="evenodd" points="560,377.764 555,367.764 560,370.264 565,367.764 "/>
    </g>
    <g>
      <line style="fill: none; stroke-opacity: 1; stroke-width: 2; stroke: #ff0000" x1="560" y1="420" x2="560" y2="450.264"/>
      <polygon style="fill: #ff0000; fill-opacity: 1; stroke-opacity: 1; stroke-width: 2; stroke: #ff0000" fill-rule="evenodd" points="560,457.764 555,447.764 560,450.264 565,447.764 "/>
    </g>
    <g>
      <line style="fill: none; stroke-opacity: 1; stroke-width: 2; stroke: #ff0000" x1="540" y1="480" x2="509.736" y2="480"/>
      <polygon style="fill: #ff0000; fill-opacity: 1; stroke-opacity: 1; stroke-width: 2; stroke: #ff0000" fill-rule="evenodd" points="502.236,480 512.236,475 509.736,480 512.236,485 "/>
    </g>
    <g>
      <line style="fill: none; stroke-opacity: 1; stroke-width: 2; stroke: #ff0000" x1="460" y1="480" x2="429.736" y2="480"/>
      <polygon style="fill: #ff0000; fill-opacity: 1; stroke-opacity: 1; stroke-width: 2; stroke: #ff0000" fill-rule="evenodd" points="422.236,480 432.236,475 429.736,480 432.236,485 "/>
    </g>
    <g>
      <line style="fill: none; stroke-opacity: 1; stroke-width: 2; stroke: #ff0000" x1="380" y1="480" x2="349.736" y2="480"/>
      <polygon style="fill: #ff0000; fill-opacity: 1; stroke-opacity: 1; stroke-width: 2; stroke: #ff0000" fill-rule="evenodd" points="342.236,480 352.236,475 349.736,480 352.236,485 "/>
    </g>
    <g>
      <line style="fill: none; stroke-opacity: 1; stroke-width: 2; stroke: #ff0000" x1="320" y1="460" x2="320" y2="429.736"/>
      <polygon style="fill: #ff0000; fill-opacity: 1; stroke-opacity: 1; stroke-width: 2; stroke: #ff0000" fill-rule="evenodd" points="320,422.236 325,432.236 320,429.736 315,432.236 "/>
    </g>
    <g>
      <line style="fill: none; stroke-opacity: 1; stroke-width: 2; stroke: #ff0000" x1="320" y1="380" x2="320" y2="349.736"/>
      <polygon style="fill: #ff0000; fill-opacity: 1; stroke-opacity: 1; stroke-width: 2; stroke: #ff0000" fill-rule="evenodd" points="320,342.236 325,352.236 320,349.736 315,352.236 "/>
    </g>
    <g>
      <line style="fill: none; stroke-opacity: 1; stroke-width: 2; stroke: #ff0000" x1="340" y1="320" x2="370.264" y2="320"/>
      <polygon style="fill: #ff0000; fill-opacity: 1; stroke-opacity: 1; stroke-width: 2; stroke: #ff0000" fill-rule="evenodd" points="377.764,320 367.764,325 370.264,320 367.764,315 "/>
    </g>
    <g>
      <line style="fill: none; stroke-opacity: 1; stroke-width: 2; stroke: #ff0000" x1="420" y1="320" x2="450.264" y2="320"/>
      <polygon style="fill: #ff0000; fill-opacity: 1; stroke-opacity: 1; stroke-width: 2; stroke: #ff0000" fill-rule="evenodd" points="457.764,320 447.764,325 450.264,320 447.764,315 "/>
    </g>
    <g>
      <line style="fill: none; stroke-opacity: 1; stroke-width: 2; stroke: #ff0000" x1="480" y1="340" x2="480" y2="370.264"/>
      <polygon style="fill: #ff0000; fill-opacity: 1; stroke-opacity: 1; stroke-width: 2; stroke: #ff0000" fill-rule="evenodd" points="480,377.764 475,367.764 480,370.264 485,367.764 "/>
    </g>
    <g>
      <line style="fill: none; stroke-opacity: 1; stroke-width: 2; stroke: #ff0000" x1="460" y1="400" x2="429.736" y2="400"/>
      <polygon style="fill: #ff0000; fill-opacity: 1; stroke-opacity: 1; stroke-width: 2; stroke: #ff0000" fill-rule="evenodd" points="422.236,400 432.236,395 429.736,400 432.236,405 "/>
    </g>
    <text font-size="28.2218" style="fill: #000000; fill-opacity: 1; stroke: none;text-anchor:middle;font-family:sans-serif;font-style:normal;font-weight:normal" x="240" y="491.45">
      <tspan x="240" y="491.45">1</tspan>
    </text>
    <text font-size="28.2218" style="fill: #000000; fill-opacity: 1; stroke: none;text-anchor:middle;font-family:sans-serif;font-style:normal;font-weight:normal" x="240" y="410.969">
      <tspan x="240" y="410.969">2</tspan>
    </text>
    <text font-size="28.2218" style="fill: #000000; fill-opacity: 1; stroke: none;text-anchor:middle;font-family:sans-serif;font-style:normal;font-weight:normal" x="240" y="330.969">
      <tspan x="240" y="330.969">3</tspan>
    </text>
    <text font-size="28.2218" style="fill: #000000; fill-opacity: 1; stroke: none;text-anchor:middle;font-family:sans-serif;font-style:normal;font-weight:normal" x="240" y="250.969">
      <tspan x="240" y="250.969">4</tspan>
    </text>
    <text font-size="28.2218" style="fill: #000000; fill-opacity: 1; stroke: none;text-anchor:middle;font-family:sans-serif;font-style:normal;font-weight:normal" x="320" y="250.969">
      <tspan x="320" y="250.969">5</tspan>
    </text>
    <text font-size="28.2218" style="fill: #000000; fill-opacity: 1; stroke: none;text-anchor:middle;font-family:sans-serif;font-style:normal;font-weight:normal" x="400" y="250.969">
      <tspan x="400" y="250.969">…</tspan>
    </text>
  </g>
</svg>
