<?xml version="1.0" encoding="UTF-8"?>
<svg enable-background="new 0 0 373.655 373.655" version="1.1" viewBox="0 0 374 374" xml:space="preserve" xmlns="http://www.w3.org/2000/svg">
<g transform="matrix(1 0 0 -1 0 374)">
	<polygon points="111 147 172 207 172 280 202 280 202 207 262 147 241 126 187 180 132 126"/>
	<path d="m369 176-172-172c-5.86-5.86-15.4-5.86-21.2 0l-172 172c-5.86 5.86-5.86 15.4 0 21.2l172 172c2.93 2.93 6.77 4.39 10.6 4.39s7.68-1.46 10.6-4.39l172-172c5.86-5.86 5.86-15.4 1e-3 -21.2zm-182 161-151-151 151-151 151 151z"/>
</g>
<path d="m112 262-75-75 150-150 150 150-150 150zm48-40.7 27-27 54.3 54.3 10.7-10.7c5.87-5.86 10.7-10.9 10.7-11.1 0-0.264-13.5-14-30.1-30.6l-30.1-30.1v-72.8h-30.8v72.8l-30.1 30.1c-16.6 16.6-30.1 30.3-30.1 30.6 0 0.469 20.9 21.6 21.3 21.6 0.133 0 12.4-12.2 27.3-27z" fill="#ffd800" stroke-width=".474"/></svg>
