<?xml version="1.0" encoding="UTF-8"?>
<!-- Created with Inkscape (http://www.inkscape.org/) -->
<svg width="150" height="135" version="1.0" xmlns="http://www.w3.org/2000/svg">
 <path d="m14.813 30.92c-0.74708 0-1.2407-0.34668-1.4807-1.04-0.05291-0.16032-0.079359-0.33366-0.079345-0.52002v-9.3604c-1.4e-5 -0.74624 0.34667-1.2394 1.04-1.4795 0.15949-0.053698 0.33283-0.080554 0.52002-0.080566 0.74624 1.2e-5 1.2394-0.34667 1.4795-1.04 0.053694-0.15949 0.080549-0.33283 0.080566-0.52002v-7.7991c-1.7e-5 -0.74705-0.3467-1.2406-1.04-1.4807l-0.52002-0.079346c-0.74708 2.34e-5 -1.2407-0.34666-1.4807-1.04-0.05291-0.16029-0.079359-0.33363-0.079345-0.52002v-1.5601c-1.4e-5 -0.74704 0.34667-1.2406 1.04-1.4807 0.15949-0.052869 0.33283-0.079318 0.52002-0.079346h3.1201c0.74624 2.81e-5 1.2394 0.34671 1.4795 1.04l0.080566 0.52002v12.479c-2e-5 0.74708 0.34666 1.2407 1.04 1.4807 0.15948 0.05291 0.33282 0.079358 0.52002 0.079346h3.1189c0.74704 1.2e-5 1.2406 0.34669 1.4807 1.04l0.079346 0.52002v9.3604c-2.6e-5 0.74707-0.3467 1.2402-1.04 1.4795l-0.52002 0.080566h-9.3591zm30.078 0-0.040283-0.040283c-0.72023 0-1.2004-0.33325-1.4404-0.99976-0.05291-0.16032-0.079359-0.33366-0.079345-0.52002v-12.48c-1.4e-5 -0.74624 0.34667-1.2394 1.04-1.4795 0.15949-0.053696 0.33283-0.080551 0.52002-0.080567h6.2402c0.74623 1.6e-5 1.2394-0.34626 1.4795-1.0388 0.053688-0.1603 0.080544-0.33364 0.080566-0.52002v-6.2402c-2.2e-5 -0.74705-0.3467-1.2406-1.04-1.4807l-0.52002-0.079346h-6.2402c-0.74708 2.5e-5 -1.2407-0.34665-1.4807-1.04-0.05291-0.16029-0.079359-0.33363-0.079345-0.52002-1.4e-5 -0.74704 0.34667-1.2406 1.04-1.4807 0.15949-0.052869 0.33283-0.079318 0.52002-0.079346h9.3591c0.74704 2.81e-5 1.2406 0.34671 1.4807 1.04l0.079346 0.52002v12.479c-2.6e-5 0.74708-0.3467 1.2407-1.04 1.4807l-0.52002 0.079346h-6.239c-0.74709 1.2e-5 -1.2407 0.34669-1.4807 1.04l-0.079346 0.52002v6.2402c-1.7e-5 0.74707 0.34666 1.2406 1.04 1.4807 0.15949 0.052901 0.33283 0.079349 0.52002 0.079346h6.239c0.74704 3e-6 1.2406 0.34668 1.4807 1.04 0.052871 0.16032 0.07932 0.33366 0.079346 0.52002-2.6e-5 0.74707-0.3467 1.2402-1.04 1.4795l-0.52002 0.080566h-9.3591zm26.958 0c-0.74708 0-1.2407-0.34668-1.4807-1.04-0.052907-0.16032-0.079356-0.33366-0.079345-0.52002-1.1e-5 -0.74625 0.34667-1.2394 1.04-1.4795 0.15949-0.053708 0.33283-0.080564 0.52002-0.080567h6.2402c0.74624 3e-6 1.2394-0.34668 1.4795-1.04 0.053691-0.1595 0.080546-0.33284 0.080566-0.52002v-6.2402c-2e-5 -0.74624-0.3467-1.2394-1.04-1.4795l-0.52002-0.080566h-6.2402c-0.74708 1.2e-5 -1.2407-0.34667-1.4807-1.04-0.052907-0.15949-0.079356-0.33283-0.079345-0.52002-1.1e-5 -0.74624 0.34667-1.2394 1.04-1.4795 0.15949-0.053696 0.33283-0.080551 0.52002-0.080567h6.2402c0.74624 1.6e-5 1.2394-0.34626 1.4795-1.0388 0.053691-0.1603 0.080546-0.33364 0.080566-0.52002v-6.2402c-2e-5 -0.74705-0.3467-1.2406-1.04-1.4807l-0.52002-0.079346h-6.2402c-0.74708 2.5e-5 -1.2407-0.34665-1.4807-1.04-0.052907-0.16029-0.079356-0.33363-0.079345-0.52002-1.1e-5 -0.74704 0.34667-1.2406 1.04-1.4807 0.15949-0.052869 0.33283-0.079318 0.52002-0.079346h9.3604c0.74623 2.81e-5 1.2394 0.34671 1.4795 1.04l0.080566 0.52002v10.919c-2.2e-5 0.74709 0.34625 1.2407 1.0388 1.4807 0.1603 0.052911 0.33363 0.07936 0.52002 0.079346 0.74704 1.4e-5 1.2406 0.34669 1.4807 1.04l0.079346 0.52002v10.92c-2.6e-5 0.74707-0.3467 1.2402-1.04 1.4795l-0.52002 0.080566h-12.479zm39.438 0c-0.74709 0-1.2407-0.34668-1.4807-1.04-0.05292-0.16032-0.07936-0.33366-0.07934-0.52002v-3.1201c-2e-5 -0.74625-0.3467-1.2394-1.04-1.4795l-0.52002-0.080566h-9.3604c-0.74708 6e-6 -1.2402-0.34667-1.4795-1.04-0.053718-0.1595-0.080574-0.33284-0.080567-0.52002v-18.719c-7e-6 -0.74704 0.34667-1.2406 1.04-1.4807 0.16031-0.052869 0.33365-0.079318 0.52002-0.079346h3.1201c0.74625 2.81e-5 1.2394 0.34671 1.4795 1.04l0.08057 0.52002v15.599c-1e-5 0.74708 0.34667 1.2407 1.04 1.4807 0.15949 0.052907 0.33283 0.079355 0.52002 0.079346h3.1201c0.74623 9e-6 1.2394-0.34667 1.4795-1.04 0.05369-0.1595 0.08055-0.33284 0.08057-0.52002-2e-5 -0.74624 0.34665-1.2394 1.04-1.4795 0.15949-0.053698 0.33283-0.080554 0.52002-0.080566h3.1189c0.74705 1.2e-5 1.2406 0.34669 1.4807 1.04l0.07935 0.52002v9.3604c-3e-5 0.74707-0.34671 1.2402-1.04 1.4795l-0.52002 0.080566h-3.1189zm20.718 0c-0.74708 0-1.2406-0.34668-1.4807-1.04-0.0529-0.16032-0.07935-0.33366-0.07934-0.52002-1e-5 -0.74625 0.34667-1.2394 1.04-1.4795 0.15949-0.053708 0.33283-0.080564 0.52002-0.080567h9.3604c0.74623 3e-6 1.2394-0.34668 1.4795-1.04 0.05369-0.1595 0.08054-0.33284 0.08057-0.52002v-6.2402c-3e-5 -0.74624-0.3467-1.2394-1.04-1.4795l-0.52002-0.080566h-9.3604c-0.74708 1.2e-5 -1.2406-0.34667-1.4807-1.04-0.0529-0.15949-0.07935-0.33283-0.07934-0.52002v-12.479c-1e-5 -0.74704 0.34667-1.2406 1.04-1.4807 0.15949-0.052869 0.33283-0.079318 0.52002-0.079346h12.479c0.74704 2.81e-5 1.2406 0.34671 1.4807 1.04l0.07934 0.52002c-2e-5 0.74628-0.3467 1.2394-1.04 1.4795l-0.52001 0.080566h-9.3591c-0.74708 2.5e-5 -1.2406 0.3467-1.4807 1.04l-0.07934 0.52002v6.2402c-2e-5 0.74627 0.34666 1.2394 1.04 1.4795 0.1595 0.052912 0.33284 0.079361 0.52002 0.079345h9.3591c0.74704 1.6e-5 1.2406 0.3467 1.4807 1.04l0.07934 0.52002v12.48c-2e-5 0.74707-0.3467 1.2402-1.04 1.4795l-0.52001 0.080566h-12.479zm-123.43 50c-0.74708 0-1.2402-0.34668-1.4795-1.04-0.053718-0.16032-0.080574-0.33366-0.080566-0.52002v-24.96c-7.2e-6 -0.74704 0.34667-1.2406 1.04-1.4807 0.16031-0.052869 0.33365-0.079318 0.52002-0.079346h9.3604c0.74624 2.8e-5 1.2394 0.34671 1.4795 1.04l0.080566 0.52002v4.6802c-2e-5 0.74628-0.3467 1.2394-1.04 1.4795l-0.52002 0.080566c-0.74709 2.1e-5 -1.2407-0.34666-1.4807-1.04-0.052914-0.1603-0.079363-0.33364-0.079346-0.52002v-1.5601c-1.7e-5 -0.74705-0.3467-1.2406-1.04-1.4807l-0.52002-0.079345h-3.1201c-0.74708 2.4e-5 -1.2407 0.3467-1.4807 1.04l-0.079345 0.52002v9.3591c-1.1e-5 0.74708 0.34667 1.2407 1.04 1.4807 0.15949 0.05291 0.33283 0.079358 0.52002 0.079346h12.479c0.74704 1.2e-5 1.2406 0.34669 1.4807 1.04l0.079346 0.52002v9.3604c-2.6e-5 0.74707-0.3467 1.2402-1.04 1.4795l-0.52002 0.080566h-15.599zm3.1201-3.1201h9.3604c0.74623 3e-6 1.2394-0.34668 1.4795-1.04 0.053688-0.1595 0.080544-0.33284 0.080566-0.52002v-3.1201c-2.2e-5 -0.74625-0.3467-1.2394-1.04-1.4795l-0.52002-0.080566h-9.3604c-0.74708 9e-6 -1.2407 0.34669-1.4807 1.04-0.052907 0.16033-0.079356 0.33367-0.079345 0.52002v3.1201c-1.1e-5 0.74707 0.34667 1.2406 1.04 1.4807 0.15949 0.052901 0.33283 0.079349 0.52002 0.079346zm36.318 3.1201c-0.74709 0-1.2407-0.34668-1.4807-1.04-0.052914-0.16032-0.079363-0.33366-0.079346-0.52002v-12.48c-1.7e-5 -0.69334 0.31981-1.1731 0.95947-1.4392l4.3201-1.8005c0.64044-0.2661 0.96067-0.74583 0.96069-1.4392v-4.6802c-2.2e-5 -0.74705-0.3467-1.2406-1.04-1.4807l-0.52002-0.079345h-6.2402c-0.74708 2.4e-5 -1.2407 0.3467-1.4807 1.04l-0.079345 0.52002v3.1201c-1.4e-5 0.74628-0.34669 1.2394-1.04 1.4795l-0.52002 0.080566c-0.74708 1.9e-5 -1.2407-0.34666-1.4807-1.04-0.052907-0.1603-0.079356-0.33364-0.079345-0.52002v-6.2402c-1.1e-5 -0.74704 0.34667-1.2406 1.04-1.4807 0.15949-0.052869 0.33283-0.079318 0.52002-0.079346h12.479c0.74704 2.8e-5 1.2406 0.34671 1.4807 1.04l0.079346 0.52002v9.9194c-2.6e-5 0.69338-0.31985 1.1735-0.95947 1.4404l-4.3201 1.72c-0.63967 0.26694-0.95949 0.74708-0.95947 1.4404v10.439c-2e-5 0.74707-0.3467 1.2402-1.04 1.4795l-0.52002 0.080566zm17.598 0c-0.74626 0-1.2394-0.34668-1.4795-1.04-0.053715-0.16032-0.080571-0.33366-0.080567-0.52002v-10.92c-4e-6 -0.74624 0.34668-1.2394 1.04-1.4795 0.16031-0.053697 0.33365-0.080552 0.52002-0.080566 0.74706 1.4e-5 1.2402-0.34666 1.4795-1.04 0.053704-0.15949 0.080559-0.33283 0.080566-0.52002v-10.919c-7e-6 -0.74704 0.34667-1.2406 1.04-1.4807 0.16031-0.052869 0.33365-0.079318 0.52002-0.079346h12.48c0.74623 2.8e-5 1.2394 0.34671 1.4795 1.04l0.080566 0.52002v10.919c-2.2e-5 0.74709 0.34625 1.2407 1.0388 1.4807 0.1603 0.052911 0.33363 0.07936 0.52002 0.079346 0.74704 1.4e-5 1.2406 0.34669 1.4807 1.04l0.079346 0.52002v10.92c-2.6e-5 0.74707-0.3467 1.2402-1.04 1.4795l-0.52002 0.080566h-18.719zm6.2402-3.1201h6.2402c0.74624 3e-6 1.2394-0.34668 1.4795-1.04 0.053691-0.1595 0.080546-0.33284 0.080566-0.52002v-6.2402c-2e-5 -0.74624-0.3467-1.2394-1.04-1.4795l-0.52002-0.080566h-6.2402c-0.74708 1.2e-5 -1.2407 0.34669-1.4807 1.04l-0.079345 0.52002v6.2402c-1.1e-5 0.74707 0.34667 1.2406 1.04 1.4807 0.15949 0.052901 0.33283 0.079349 0.52002 0.079346zm0-12.48h6.2402c0.74624 1.6e-5 1.2394-0.34626 1.4795-1.0388 0.053691-0.1603 0.080546-0.33364 0.080566-0.52002v-6.2402c-2e-5 -0.74705-0.3467-1.2406-1.04-1.4807l-0.52002-0.079345h-6.2402c-0.74708 2.4e-5 -1.2407 0.3467-1.4807 1.04l-0.079345 0.52002v6.2402c-1.1e-5 0.74627 0.34667 1.2394 1.04 1.4795 0.15949 0.052912 0.33283 0.079361 0.52002 0.079345zm39.438 15.601c-0.74709 0-1.2407-0.34668-1.4807-1.04-0.05292-0.16032-0.07936-0.33366-0.07934-0.52002v-9.3604c-2e-5 -0.74624-0.3467-1.2394-1.04-1.4795l-0.52002-0.080566h-9.3604c-0.74708 1.2e-5 -1.2402-0.34667-1.4795-1.04-0.053718-0.15949-0.080574-0.33283-0.080567-0.52002v-12.479c-7e-6 -0.74704 0.34667-1.2406 1.04-1.4807 0.16031-0.052869 0.33365-0.079318 0.52002-0.079346h15.599c0.74705 2.8e-5 1.2406 0.34671 1.4807 1.04l0.07935 0.52002v24.96c-3e-5 0.74707-0.34671 1.2402-1.04 1.4795l-0.52002 0.080566h-3.1189zm0-15.601c0.74624 1.6e-5 1.2394-0.34626 1.4795-1.0388 0.05368-0.1603 0.08054-0.33364 0.08056-0.52002v-6.2402c-2e-5 -0.74705-0.3467-1.2406-1.04-1.4807l-0.52002-0.079345h-9.3604c-0.74708 2.4e-5 -1.2406 0.3467-1.4807 1.04l-0.07935 0.52002v6.2402c-1e-5 0.74627 0.34667 1.2394 1.04 1.4795 0.1595 0.052912 0.33284 0.079361 0.52002 0.079345h9.3604zm19.158 15.601c-2.0264 0-3.6666-0.81339-4.9207-2.4402-0.87972-1.1198-1.3196-2.3865-1.3196-3.8v-15.599c0-2.0272 0.81339-3.6674 2.4402-4.9207 1.1198-0.87969 2.3865-1.3196 3.8-1.3196h9.3604c2.0264 2.8e-5 3.6662 0.81342 4.9194 2.4402 0.8797 1.1198 1.3196 2.3865 1.3196 3.8v15.599c-2e-5 2.0272-0.81301 3.6674-2.439 4.9207-1.1206 0.87972-2.3873 1.3196-3.8 1.3196h-9.3604zm0-3.1201h9.3604c1.2264 3e-6 2.133-0.53344 2.7197-1.6003 0.2669-0.47932 0.40036-0.98592 0.40039-1.5198v-15.599c-3e-5 -1.2272-0.53347-2.1342-1.6003-2.7209-0.48017-0.26609-0.98676-0.39914-1.5198-0.39917h-9.3604c-1.2264 2.4e-5 -2.133 0.53306-2.7197 1.5991-0.26693 0.48017-0.4004 0.98716-0.40039 1.521v15.599c-1e-5 1.2272 0.53344 2.1338 1.6003 2.7197 0.48014 0.26693 0.98673 0.40039 1.5198 0.40039zm-124.99 48.44c-0.74626 0-1.2394-0.34668-1.4795-1.04-0.053715-0.1595-0.08057-0.33284-0.080566-0.52002v-15.599c-4.1e-6 -0.74705 0.34668-1.2406 1.04-1.4807 0.16031-0.05287 0.33365-0.07932 0.52002-0.07935h3.1201c0.74625 3e-5 1.2394 0.34671 1.4795 1.04l0.080567 0.52002v15.599c-1.1e-5 0.74707-0.34669 1.2406-1.04 1.4807-0.16033 0.0529-0.33367 0.07935-0.52002 0.07935h-3.1201zm12.48 4.6802c-0.74709 0-1.2407-0.34668-1.4807-1.04-0.052914-0.16032-0.079363-0.33366-0.079346-0.52002v-6.2402c-1.7e-5 -0.74625 0.34666-1.2394 1.04-1.4795 0.15949-0.05371 0.33283-0.08056 0.52002-0.08057h6.239c0.74704 1e-5 1.2406 0.34669 1.4807 1.04 0.052871 0.16033 0.07932 0.33367 0.079346 0.52002v6.2402c-2.6e-5 0.74707-0.3467 1.2402-1.04 1.4795l-0.52002 0.08057h-6.239zm0-18.719c-0.74709 2e-5 -1.2407-0.34666-1.4807-1.04-0.052914-0.1603-0.079363-0.33364-0.079346-0.52002v-6.2402c-1.7e-5 -0.74705 0.34666-1.2406 1.04-1.4807 0.15949-0.05287 0.33283-0.07931 0.52002-0.07934h6.239c0.74704 3e-5 1.2406 0.3467 1.4807 1.04l0.079346 0.52002v6.2402c-2.6e-5 0.74628-0.3467 1.2394-1.04 1.4795l-0.52002 0.08057h-6.239zm17.598 18.719c-0.74626 0-1.2394-0.34668-1.4795-1.04-0.053715-0.16032-0.080571-0.33366-0.080567-0.52002v-9.3604c-4e-6 -0.74624 0.34668-1.2394 1.04-1.4795 0.16031-0.0537 0.33365-0.08055 0.52002-0.08057h3.1201c0.74625 2e-5 1.2394 0.34669 1.4795 1.04l0.080567 0.52002v9.3604c-1.1e-5 0.74707-0.34669 1.2402-1.04 1.4795-0.16033 0.05372-0.33367 0.08057-0.52002 0.08057h-3.1201zm9.3604-7.0398c-0.74708 0-1.2407-0.34668-1.4807-1.04-0.05291-0.16031-0.079359-0.33365-0.079345-0.52002v-10.92c-1.4e-5 -0.74624 0.34667-1.2394 1.04-1.4795 0.15949-0.05369 0.33283-0.08055 0.52002-0.08057 0.74624 2e-5 1.2394 0.3467 1.4795 1.04l0.080566 0.52002v10.92c-1.7e-5 0.74626-0.3467 1.2394-1.04 1.4795l-0.52002 0.08057zm6.2402-8.5608c-0.74709 1e-5 -1.2407-0.34626-1.4807-1.0388-0.052917-0.16031-0.079366-0.33364-0.079346-0.52002v-9.3604c-2e-5 -0.74705 0.34666-1.2406 1.04-1.4807 0.15948-0.05287 0.33282-0.07931 0.52002-0.07934h3.1189c0.74704 3e-5 1.2406 0.3467 1.4807 1.04l0.079346 0.52002v9.3604c-2.6e-5 0.74627-0.3467 1.2394-1.04 1.4795l-0.52002 0.07935h-3.1189zm14.478 10.92c-0.74626 0-1.2394-0.34668-1.4795-1.04-0.053715-0.1595-0.080571-0.33284-0.080567-0.52002v-15.599c-4e-6 -0.74705 0.34668-1.2406 1.04-1.4807 0.16031-0.05287 0.33365-0.07932 0.52002-0.07935 0.74706 3e-5 1.2402 0.34671 1.4795 1.04l0.080566 0.52002v15.599c-7e-6 0.74707-0.34669 1.2406-1.04 1.4807-0.16032 0.0529-0.33366 0.07935-0.52002 0.07935zm6.2402 0c-0.74708 0-1.2407-0.34668-1.4807-1.04-0.052907-0.1595-0.079356-0.33284-0.079345-0.52002v-15.599c-1.1e-5 -0.74705 0.34667-1.2406 1.04-1.4807 0.15949-0.05287 0.33283-0.07932 0.52002-0.07935 0.74624 3e-5 1.2394 0.34671 1.4795 1.04l0.080567 0.52002v15.599c-1.4e-5 0.74707-0.34669 1.2406-1.04 1.4807l-0.52002 0.07935zm6.2402-9.3604c-0.74709 2e-5 -1.2407-0.34666-1.4807-1.04-0.052914-0.15949-0.079363-0.33282-0.079346-0.52001v-9.3591c-1.7e-5 -0.74704 0.34666-1.2406 1.04-1.4807 0.15949-0.05287 0.33283-0.07932 0.52002-0.07934h6.239c0.74704 2e-5 1.2406 0.3467 1.4807 1.04l0.079346 0.52001v9.3591c-2.6e-5 0.74708-0.3467 1.2406-1.04 1.4807l-0.52002 0.07934h-6.239zm17.598 6.2402c-0.74626 1e-5 -1.2394-0.34667-1.4795-1.04-0.053715-0.1595-0.080571-0.33284-0.080567-0.52002v-9.3591c-4e-6 -0.74705 0.34668-1.2406 1.04-1.4807 0.16031-0.05288 0.33365-0.07933 0.52002-0.07935h3.1201c0.74625 2e-5 1.2394 0.3467 1.4795 1.04l0.08056 0.52002v9.3591c-1e-5 0.74708-0.34669 1.2406-1.04 1.4807-0.16033 0.05291-0.33367 0.07936-0.52002 0.07935h-3.1201zm9.3604 0c-0.74709 1e-5 -1.2407-0.34667-1.4807-1.04-0.05291-0.1595-0.07936-0.33284-0.07935-0.52002v-9.3591c-1e-5 -0.74705 0.34667-1.2406 1.04-1.4807 0.15949-0.05288 0.33283-0.07933 0.52002-0.07935h3.1201c0.74623 2e-5 1.2394 0.3467 1.4795 1.04l0.08057 0.52002v9.3591c-2e-5 0.74708-0.3467 1.2406-1.04 1.4807l-0.52002 0.07935h-3.1201zm9.3591 0c-0.74628 1e-5 -1.2394-0.34667-1.4795-1.04-0.05292-0.1595-0.07937-0.33284-0.07935-0.52002v-9.3591c-2e-5 -0.74705 0.34625-1.2406 1.0388-1.4807 0.1603-0.05288 0.33364-0.07933 0.52002-0.07935 0.74705 2e-5 1.2406 0.3467 1.4807 1.04l0.07935 0.52002v9.3591c-3e-5 0.74708-0.34671 1.2406-1.04 1.4807l-0.52002 0.07935z"/>
</svg>
