<?xml version="1.0" encoding="UTF-8"?>
<svg clip-path="url(#a)" fill-rule="evenodd" stroke-linejoin="round" stroke-width="28.222" version="1.2" viewBox="0 0 27259 15825" xml:space="preserve" xmlns="http://www.w3.org/2000/svg"><defs><clipPath id="a"><rect width="28000" height="21000"/></clipPath></defs><path d="m15236 15528h-11726v-13805h23452v13805h-11726z" fill="#ffc"/><path d="m15236 15528h-11726v-13805h23452v13805h-11726z" fill="none" stroke="#800000" stroke-width="28.222"/><text x="-805.65277" y="-4112.6523" font-family="Courier New" font-size="564px" font-weight="400"><tspan><tspan x="3814.3472" y="2464.3477"><tspan fill="#000000">0000    </tspan><tspan fill="#008000">42 4d 76 02 00 00 00 00  00 00 76 00 00 00 </tspan><tspan fill="#000000"/><tspan fill="#ff0000">28 00 </tspan></tspan></tspan><tspan><tspan x="3814.3472" y="3140.3477"><tspan fill="#000000">0010</tspan></tspan><tspan x="5169.3472" y="3140.3477"><tspan fill="#ff0000">    00 00 20 00 00 00 20 00  00 00 01 00 04 00 00 00 </tspan></tspan></tspan><tspan><tspan x="3814.3472" y="3816.3477"><tspan fill="#000000">0020</tspan></tspan><tspan x="5169.3472" y="3816.3477"><tspan fill="#ff0000">    00 00 00 00 00 00 00 00  00 00 00 00 00 00 00 00 </tspan></tspan></tspan><tspan><tspan x="3814.3472" y="4492.3477"><tspan fill="#000000">0030</tspan></tspan><tspan x="5169.3472" y="4492.3477"><tspan fill="#ff0000">    00 00 00 00 00 00 </tspan><tspan fill="#000000"/><tspan fill="#0000ff">00 00  00 00 00 00 80 00 00 80 </tspan></tspan></tspan><tspan><tspan x="3814.3472" y="5168.3477"><tspan fill="#000000">0040</tspan></tspan><tspan x="5169.3472" y="5168.3477"><tspan fill="#0000ff">    00 00 00 80 80 00 80 00  00 00 80 00 80 00 80 80 </tspan></tspan></tspan><tspan><tspan x="3814.3472" y="5844.3477"><tspan fill="#000000">0050</tspan></tspan><tspan x="5169.3472" y="5844.3477"><tspan fill="#0000ff">    00 00 80 80 80 00 c0 c0  c0 00 00 00 ff 00 00 ff </tspan></tspan></tspan><tspan><tspan x="3814.3472" y="6520.3477"><tspan fill="#000000">0060</tspan></tspan><tspan x="5169.3472" y="6520.3477"><tspan fill="#0000ff">    00 00 00 ff ff 00 ff 00  00 00 ff 00 ff 00 ff ff </tspan></tspan></tspan><tspan><tspan x="3814.3472" y="7196.3477"><tspan fill="#000000">0070</tspan></tspan><tspan x="5169.3472" y="7196.3477"><tspan fill="#0000ff">    00 00 ff ff ff 00</tspan><tspan fill="#000000"> 00 00  00 00 00 00 00 00 00 00 </tspan></tspan></tspan><tspan><tspan x="3814.3472" y="7872.3477"><tspan fill="#000000">0080    00 00 00 00 00 00 00 00  00 00 00 00 00 00 09 00 </tspan></tspan></tspan><tspan><tspan x="3814.3472" y="8548.3477"><tspan fill="#000000">0090    00 00 00 00 00 00 11 11  01 19 11 01 10 10 09 09 </tspan></tspan></tspan><tspan><tspan x="3814.3472" y="9224.3477"><tspan fill="#000000">00a0    01 09 11 11 01 90 11 01  19 09 09 91 11 10 09 11 </tspan></tspan></tspan><tspan><tspan x="3814.3472" y="9900.3477"><tspan fill="#000000">00b0    09 11 19 10 90 11 19 01  19 19 10 10 11 10 09 01 </tspan></tspan></tspan><tspan><tspan x="3814.3472" y="10576.348"><tspan fill="#000000">00c0    91 10 91 09 10 10 90 99  11 11 11 11 19 00 09 01 </tspan></tspan></tspan><tspan><tspan x="3814.3472" y="11252.348"><tspan fill="#000000">00d0    91 01 01 19 00 99 11 10  11 91 99 11 09 90 09 91 </tspan></tspan></tspan><tspan><tspan x="3814.3472" y="11928.348"><tspan fill="#000000">00e0    01 11 11 11 91 10 09 19  01 00 11 90 91 10 09 01 </tspan></tspan></tspan><tspan><tspan x="3814.3472" y="12604.348"><tspan fill="#000000">00f0    11 99 10 01 11 11 91 11  11 19 10 11 99 10 09 10 </tspan></tspan></tspan><tspan><tspan x="3814.3472" y="13280.348"><tspan fill="#000000">0100    01 11 11 11 19 10 11 09  09 10 19 10 10 10 09 01</tspan></tspan></tspan><tspan><tspan x="3814.3472" y="13956.348"><tspan fill="#000000">...</tspan></tspan></tspan></text><g fill="#808080" fill-opacity=".251" stroke="#fff" stroke-opacity=".251" stroke-width="28.222">
<path d="m7204.3 2690.3c-186 0-344-20-505-65-161-44-277-99-370-176s-135-152-135-240c0-89 42-164 135-241s209-132 370-176c161-45 319-65 505-65s344 20 505 65c161 44 277 99 370 176s135 152 135 241c0 88-42 163-135 240s-209 132-370 176c-161 45-319 65-505 65z"/><path d="m10361 2690.3c-395 0-731-20-1073-65-343-44-589-99-786-176-198-77-288-152-288-240 0-89 90-164 288-241 197-77 443-132 786-176 342-45 678-65 1073-65s731 20 1074 65c342 44 588 99 785 176 198 77 288 152 288 241 0 88-90 163-288 240-197 77-443 132-785 176-343 45-679 65-1074 65z"/><path d="m18948 2690.3c-396 0-732-20-1074-65-342-44-588-99-785-176-198-77-288-152-288-240 0-89 90-164 288-241 197-77 443-132 785-176 342-45 678-65 1074-65 395 0 731 20 1073 65 342 44 588 99 785 176 198 77 288 152 288 241 0 88-90 163-288 240-197 77-443 132-785 176-342 45-678 65-1073 65z"/><path d="m10361 3446.3c-395 0-731-21-1073-68-343-46-589-104-786-184-198-81-288-160-288-252 0-93 90-172 288-253 197-80 443-138 786-184 342-47 678-68 1073-68s731 21 1074 68c342 46 588 104 785 184 198 81 288 160 288 253 0 92-90 171-288 252-197 80-443 138-785 184-343 47-679 68-1074 68z"/><path d="m14621 3446.3c-395 0-731-21-1073-68-343-46-589-104-786-184-198-81-288-160-288-252 0-93 90-172 288-253 197-80 443-138 786-184 342-47 678-68 1073-68s731 21 1074 68c342 46 588 104 785 184 198 81 288 160 288 253 0 92-90 171-288 252-197 80-443 138-785 184-343 47-679 68-1074 68z"/></g><path d="m5843.3 1362.3-37 8-36 8-38 6-37 5-76 6-39 1h-38l-38-1-39-3-38-4-37-5-37-6-37-7-36-9-35-10-35-11-34-12-32-13-32-14-30-15-30-16-28-17-27-18-25-18-24-20-22-20-21-21-19-22-17-22-16-23-14-23-12-24-11-24-8-24-7-25-4-24-3-25-1-25 1-25 3-25 5-25 7-24 8-24 11-24 12-24 14-23 16-23 18-22 19-22 21-21 22-20 24-19 26-19 27-18 28-17 29-16 31-15 32-14 32-13 34-11 35-11 35-10 36-8 37-8 37-6 38-5 76-6 38-1h39l38 1 38 3 38 4 38 5 37 6 37 7 36 9 70 20 33 12 33 13 32 15 30 15 30 16 28 17 52 36 24 20 22 20 21 21 19 22 17 22 16 23 14 23 12 23 11 24 8 25 7 24 4 25 3 25 1 25-1 25-3 25-5 24-7 25-8 24-11 24-12 24-14 23-16 23-17 22-20 21-21 21-22 21-24 19-25 19-27 17-28 17 358 550-587-459z" fill="#c0c0c0" fill-opacity=".502" stroke="#fff" stroke-opacity=".502" stroke-width="28.222"/><g fill="none" stroke="#c0c0c0" stroke-width="28.222"><path d="m5843.3 1362.3-37 8-13 3"/><path d="m5743.3 1382.3-11 2-37 5h-2"/><path d="m5642.3 1393.3-23 2-28 1"/><path d="m5540.3 1396.3-36-1-15-1"/><path d="m5438.3 1389.3-11-1-37-5h-3"/><path d="m5337.3 1374.3-21-4-29-7"/><path d="m5238.3 1349.3-28-9-20-7"/><path d="m5143.3 1314.3-31-13-16-8"/><path d="m5051.3 1269.3-27-16-16-11"/><path d="m4967.3 1212.3-19-15-20-18"/><path d="m4893.3 1142.3-7-8-17-22-7-10"/><path d="m4835.3 1058.3-8-16-11-24-2-6"/><path d="m4800.3 963.35-3-18-3-25v-8"/><path d="m4795.3 861.35 2-16 5-25 2-9"/><path d="m4821.3 763.35 7-15 12-24 4-6"/><path d="m4872.3 675.35 16-19 17-20"/><path d="m4942.3 601.35 8-8 24-19 7-5"/><path d="m5023.3 540.35 4-3 28-17 12-7"/><path d="m5112.3 490.35 3-1 32-14 12-5"/><path d="m5207.3 453.35 6-2 35-11 8-2"/><path d="m5305.3 425.35 14-3 36-8"/><path d="m5405.3 406.35 26-3 25-2"/><path d="m5507.3 397.35 38-1h13"/><path d="m5609.3 397.35h13l38 3"/><path d="m5710.3 406.35 26 3 25 4"/><path d="m5811.3 422.35 35 9 14 4"/><path d="m5909.3 449.35 7 2 33 12 8 3"/><path d="m6004.3 486.35 46 23"/><path d="m6094.3 534.35 8 5 26 18 8 6"/><path d="m6177.3 594.35 1 1 22 20 14 14"/><path d="m6247.3 667.35 10 13 16 23 4 6"/><path d="m6301.3 754.35 9 19 8 25 1 3"/><path d="m6330.3 851.35 2 21 1 25v5"/><path d="m6328.3 953.35-4 18-7 25-2 6"/><path d="m6295.3 1049.3-9 19-14 23-2 2"/><path d="m6240.3 1135.3-1 1-20 21-14 14"/><path d="m6167.3 1206.3-15 12-25 19"/><path d="m6084.3 1264.3-12 7 20 31"/><path d="m6120.3 1345.3 28 43"/><path d="m6176.3 1431.3 28 42"/><path d="m6231.3 1516.3 28 43"/><path d="m6287.3 1601.3 28 43"/><path d="m6343.3 1687.3 28 43"/><path d="m6398.3 1772.3 28 43"/><path d="m6395.3 1794.3-40-32"/><path d="m6315.3 1731.3-40-31"/><path d="m6235.3 1668.3-41-31"/><path d="m6154.3 1605.3-40-31"/><path d="m6074.3 1543.3-40-32"/><path d="m5994.3 1480.3-41-32"/><path d="m5913.3 1417.3-40-32"/></g><text x="-805.65277" y="-4112.6523" font-size="12px"><tspan font-family="Arial" font-size="494px" font-weight="400"><tspan x="5027.3472" y="1094.3475" fill="#c0c0c0"><tspan>“</tspan><tspan>BM”</tspan></tspan></tspan></text>
<path d="m5743.3 1262.3-37 8-36 8-38 6-37 5-76 6-39 1h-38l-38-1-39-3-38-4-37-5-37-6-37-7-36-9-35-10-35-11-34-12-32-13-32-14-30-15-30-16-28-17-27-18-25-18-24-20-22-20-21-21-19-22-17-22-16-23-14-23-12-24-11-24-8-24-7-25-4-24-3-25-1-25 1-25 3-25 5-25 7-24 8-24 11-24 12-24 14-23 16-23 18-22 19-22 21-21 22-20 24-19 26-19 27-18 28-17 29-16 31-15 32-14 32-13 34-11 35-11 35-10 36-8 37-8 37-6 38-5 76-6 38-1h39l38 1 38 3 38 4 38 5 37 6 37 7 36 9 70 20 33 12 33 13 32 15 30 15 30 16 28 17 52 36 24 20 22 20 21 21 19 22 17 22 16 23 14 23 12 23 11 24 8 25 7 24 4 25 3 25 1 25-1 25-3 25-5 24-7 25-8 24-11 24-12 24-14 23-16 23-17 22-20 21-21 21-22 21-24 19-25 19-27 17-28 17 358 550-587-459z" fill="#ff0" fill-opacity=".502" stroke="#fff" stroke-opacity=".502" stroke-width="28.222"/><g fill="none" stroke="#800000" stroke-width="28.222"><path d="m5743.3 1262.3-37 8-13 3"/><path d="m5643.3 1282.3-11 2-37 5h-2"/><path d="m5542.3 1293.3-23 2-28 1"/><path d="m5440.3 1296.3-36-1-15-1"/><path d="m5338.3 1289.3-11-1-37-5h-3"/><path d="m5237.3 1274.3-21-4-29-7"/><path d="m5138.3 1249.3-28-9-20-7"/><path d="m5043.3 1214.3-31-13-16-8"/><path d="m4951.3 1169.3-27-16-16-11"/><path d="m4867.3 1112.3-19-15-20-18"/><path d="m4793.3 1042.3-7-8-17-22-7-10"/><path d="m4735.3 958.35-8-16-11-24-2-6"/><path d="m4700.3 863.35-3-18-3-25v-8"/><path d="m4695.3 761.35 2-16 5-25 2-9"/><path d="m4721.3 663.35 7-15 12-24 4-6"/><path d="m4772.3 575.35 16-19 17-20"/><path d="m4842.3 501.35 8-8 24-19 7-5"/><path d="m4923.3 440.35 4-3 28-17 12-7"/><path d="m5012.3 390.35 3-1 32-14 12-5"/><path d="m5107.3 353.35 6-2 35-11 8-2"/><path d="m5205.3 325.35 14-3 36-8"/><path d="m5305.3 306.35 26-3 25-2"/><path d="m5407.3 297.35 38-1h13"/><path d="m5509.3 297.35h13l38 3"/><path d="m5610.3 306.35 26 3 25 4"/><path d="m5711.3 322.35 35 9 14 4"/><path d="m5809.3 349.35 7 2 33 12 8 3"/><path d="m5904.3 386.35 46 23"/><path d="m5994.3 434.35 8 5 26 18 8 6"/><path d="m6077.3 494.35 1 1 22 20 14 14"/><path d="m6147.3 567.35 10 13 16 23 4 6"/><path d="m6201.3 654.35 9 19 8 25 1 3"/><path d="m6230.3 751.35 2 21 1 25v5"/><path d="m6228.3 853.35-4 18-7 25-2 6"/><path d="m6195.3 949.35-9 19-14 23-2 2"/><path d="m6140.3 1035.3-1 1-20 21-14 14"/><path d="m6067.3 1106.3-15 12-25 19"/><path d="m5984.3 1164.3-12 7 20 31"/><path d="m6020.3 1245.3 28 43"/><path d="m6076.3 1331.3 28 42"/><path d="m6131.3 1416.3 28 43"/><path d="m6187.3 1501.3 28 43"/><path d="m6243.3 1587.3 28 43"/><path d="m6298.3 1672.3 28 43"/><path d="m6295.3 1694.3-40-32"/><path d="m6215.3 1631.3-40-31"/><path d="m6135.3 1568.3-41-31"/><path d="m6054.3 1505.3-40-31"/><path d="m5974.3 1443.3-40-32"/><path d="m5894.3 1380.3-41-32"/><path d="m5813.3 1317.3-40-32"/></g><text x="-805.65277" y="-4112.6523" font-size="12px"><tspan font-family="Arial" font-size="494px" font-weight="400"><tspan x="4927.3472" y="994.34753" fill="#000000"><tspan>“</tspan><tspan>BM”</tspan></tspan></tspan></text>
<path d="m8687.3 1382.3-63 5-63 4-64 3-63 2h-64l-64-1-64-2-63-3-63-5-63-6-61-7-60-8-60-9-58-11-56-12-55-12-54-14-51-15-50-16-47-16-45-18-43-18-41-20-38-20-35-20-33-22-30-22-27-22-24-24-22-23-18-24-15-24-12-25-9-24-5-25-3-25 1-25 4-25 7-25 10-24 13-25 17-24 19-23 23-24 25-23 29-22 31-22 34-21 37-20 39-20 41-19 45-18 46-17 48-17 51-15 52-14 54-13 56-13 57-11 59-10 60-9 60-7 62-7 63-5 63-4 63-3 64-2h64l64 1 64 2 63 3 63 5 62 6 62 7 60 8 59 9 58 11 57 12 55 12 53 14 52 15 49 16 48 16 45 18 43 18 41 20 38 20 35 20 33 22 30 22 27 22 24 23 22 24 18 24 15 24 12 25 9 24 5 25 3 25-1 25-4 25-7 25-10 24-13 25-17 24-19 23-23 24-25 23-29 22-31 22-34 21-36 20-40 20-41 19-44 18-47 17-48 16-50 16-53 14 438 607-846-537z" fill="#c0c0c0" fill-opacity=".502" stroke="#fff" stroke-opacity=".502" stroke-width="28.222"/><g fill="none" stroke="#c0c0c0" stroke-width="28.222"><path d="m8687.3 1382.3-51 4"/><path d="m8585.3 1389.3-24 2-27 1"/><path d="m8483.3 1394.3-49 2h-2"/><path d="m8381.3 1396.3h-11l-40-1"/><path d="m8279.3 1394.3-37-1-14-1"/><path d="m8178.3 1390.3-51-4"/><path d="m8076.3 1381.3-23-2-28-3"/><path d="m7975.3 1370.3-43-6-8-1"/><path d="m7874.3 1355.3h-2l-49-9"/><path d="m7774.3 1335.3-16-3-34-7"/><path d="m7674.3 1313.3-25-7-24-7"/><path d="m7576.3 1284.3-28-9-20-7"/><path d="m7480.3 1251.3-24-10-23-10"/><path d="m7386.3 1210.3-14-7-31-16"/><path d="m7297.3 1161.3-31-20-11-8"/><path d="m7214.3 1101.3-5-4-31-31"/><path d="m7145.3 1027.3v-1l-15-24-10-20"/><path d="m7105.3 934.35-1-6-3-25 1-20"/><path d="m7112.3 833.35 1-5 10-24 9-17"/><path d="m7161.3 745.35 11-13 23-24 1-1"/><path d="m7234.3 674.35 15-11 27-19"/><path d="m7319.3 617.35 32-17 13-7"/><path d="m7410.3 571.35 21-10 26-10"/><path d="m7504.3 533.35 18-7 30-11"/><path d="m7601.3 500.35 20-6 29-8"/><path d="m7699.3 474.35 28-7 22-5"/><path d="m7799.3 451.35 41-8 9-2"/><path d="m7899.3 433.35 51-8"/><path d="m8000.3 419.35 19-2 32-4"/><path d="m8102.3 408.35 42-3 8-1"/><path d="m8203.3 401.35h4l47-2"/><path d="m8305.3 397.35 29-1h22"/><path d="m8407.3 396.35 51 1"/><path d="m8509.3 398.35 51 3"/><path d="m8611.3 404.35 41 3 10 1"/><path d="m8713.3 413.35h1l49 6"/><path d="m8814.3 425.35 22 3 28 4"/><path d="m8915.3 441.35 38 7 12 2"/><path d="m9015.3 461.35 50 11"/><path d="m9114.3 485.35 4 1 45 13"/><path d="m9211.3 515.35 8 2 41 14"/><path d="m9307.3 549.35 5 2 42 18"/><path d="m9400.3 591.35 34 18 11 6"/><path d="m9489.3 642.35 13 9 28 21"/><path d="m9569.3 705.35 14 13 21 23"/><path d="m9634.3 783.35 4 7 12 25 5 14"/><path d="m9666.3 879.35 1 10-1 25-2 15"/><path d="m9649.3 978.35-4 10-13 25-7 10"/><path d="m9593.3 1063.3-20 21-16 15"/><path d="m9517.3 1130.3-29 21-13 8"/><path d="m9431.3 1185.3-13 7-32 16"/><path d="m9340.3 1230.3-3 1-44 18h-1"/><path d="m9244.3 1267.3-46 15-2 1"/><path d="m9147.3 1298.3-49 13"/><path d="m9123.3 1351.3 30 41"/><path d="m9183.3 1433.3 29 42"/><path d="m9242.3 1516.3 30 42"/><path d="m9302.3 1599.3 30 41"/><path d="m9362.3 1682.3 30 41"/><path d="m9421.3 1764.3 30 42"/><path d="m9481.3 1847.3 30 41"/><path d="m9522.3 1912.3-43-27"/><path d="m9436.3 1857.3-43-27"/><path d="m9350.3 1803.3-43-28"/><path d="m9263.3 1748.3-43-27"/><path d="m9177.3 1693.3-43-27"/><path d="m9091.3 1639.3-43-28"/><path d="m9005.3 1584.3-43-27"/><path d="m8919.3 1529.3-43-27"/><path d="m8833.3 1475.3-43-28"/><path d="m8747.3 1420.3-43-27"/></g><text x="-805.65277" y="-4112.6523" font-size="12px"><tspan font-family="Arial" font-size="494px" font-weight="400"><tspan x="7473.3472" y="1094.3475"><tspan fill="#c0c0c0">File size</tspan></tspan></tspan></text>
<path d="m8587.3 1282.3-63 5-63 4-64 3-63 2h-64l-64-1-64-2-63-3-63-5-63-6-61-7-60-8-60-9-58-11-56-12-55-12-54-14-51-15-50-16-47-16-45-18-43-18-41-20-38-20-35-20-33-22-30-22-27-22-24-24-22-23-18-24-15-24-12-25-9-24-5-25-3-25 1-25 4-25 7-25 10-24 13-25 17-24 19-23 23-24 25-23 29-22 31-22 34-21 37-20 39-20 41-19 45-18 46-17 48-17 51-15 52-14 54-13 56-13 57-11 59-10 60-9 60-7 62-7 63-5 63-4 63-3 64-2h64l64 1 64 2 63 3 63 5 62 6 62 7 60 8 59 9 58 11 57 12 55 12 53 14 52 15 49 16 48 16 45 18 43 18 41 20 38 20 35 20 33 22 30 22 27 22 24 23 22 24 18 24 15 24 12 25 9 24 5 25 3 25-1 25-4 25-7 25-10 24-13 25-17 24-19 23-23 24-25 23-29 22-31 22-34 21-36 20-40 20-41 19-44 18-47 17-48 16-50 16-53 14 438 607-846-537z" fill="#ff0" fill-opacity=".502" stroke="#fff" stroke-opacity=".502" stroke-width="28.222"/><g fill="none" stroke="#800000" stroke-width="28.222"><path d="m8587.3 1282.3-51 4"/><path d="m8485.3 1289.3-24 2-27 1"/><path d="m8383.3 1294.3-49 2h-2"/><path d="m8281.3 1296.3h-11l-40-1"/><path d="m8179.3 1294.3-37-1-14-1"/><path d="m8078.3 1290.3-51-4"/><path d="m7976.3 1281.3-23-2-28-3"/><path d="m7875.3 1270.3-43-6-8-1"/><path d="m7774.3 1255.3h-2l-49-9"/><path d="m7674.3 1235.3-16-3-34-7"/><path d="m7574.3 1213.3-25-7-24-7"/><path d="m7476.3 1184.3-28-9-20-7"/><path d="m7380.3 1151.3-24-10-23-10"/><path d="m7286.3 1110.3-14-7-31-16"/><path d="m7197.3 1061.3-31-20-11-8"/><path d="m7114.3 1001.3-5-4-31-31"/><path d="m7045.3 927.35v-1l-15-24-10-20"/><path d="m7005.3 834.35-1-6-3-25 1-20"/><path d="m7012.3 733.35 1-5 10-24 9-17"/><path d="m7061.3 645.35 11-13 23-24 1-1"/><path d="m7134.3 574.35 15-11 27-19"/><path d="m7219.3 517.35 32-17 13-7"/><path d="m7310.3 471.35 21-10 26-10"/><path d="m7404.3 433.35 18-7 30-11"/><path d="m7501.3 400.35 20-6 29-8"/><path d="m7599.3 374.35 28-7 22-5"/><path d="m7699.3 351.35 41-8 9-2"/><path d="m7799.3 333.35 51-8"/><path d="m7900.3 319.35 19-2 32-4"/><path d="m8002.3 308.35 42-3 8-1"/><path d="m8103.3 301.35h4l47-2"/><path d="m8205.3 297.35 29-1h22"/><path d="m8307.3 296.35 51 1"/><path d="m8409.3 298.35 51 3"/><path d="m8511.3 304.35 41 3 10 1"/><path d="m8613.3 313.35h1l49 6"/><path d="m8714.3 325.35 22 3 28 4"/><path d="m8815.3 341.35 38 7 12 2"/><path d="m8915.3 361.35 50 11"/><path d="m9014.3 385.35 4 1 45 13"/><path d="m9111.3 415.35 8 2 41 14"/><path d="m9207.3 449.35 5 2 42 18"/><path d="m9300.3 491.35 34 18 11 6"/><path d="m9389.3 542.35 13 9 28 21"/><path d="m9469.3 605.35 14 13 21 23"/><path d="m9534.3 683.35 4 7 12 25 5 14"/><path d="m9566.3 779.35 1 10-1 25-2 15"/><path d="m9549.3 878.35-4 10-13 25-7 10"/><path d="m9493.3 963.35-20 21-16 15"/><path d="m9417.3 1030.3-29 21-13 8"/><path d="m9331.3 1085.3-13 7-32 16"/><path d="m9240.3 1130.3-3 1-44 18h-1"/><path d="m9144.3 1167.3-46 15-2 1"/><path d="m9047.3 1198.3-49 13"/><path d="m9023.3 1251.3 30 41"/><path d="m9083.3 1333.3 29 42"/><path d="m9142.3 1416.3 30 42"/><path d="m9202.3 1499.3 30 41"/><path d="m9262.3 1582.3 30 41"/><path d="m9321.3 1664.3 30 42"/><path d="m9381.3 1747.3 30 41"/><path d="m9422.3 1812.3-43-27"/><path d="m9336.3 1757.3-43-27"/><path d="m9250.3 1703.3-43-28"/><path d="m9163.3 1648.3-43-27"/><path d="m9077.3 1593.3-43-27"/><path d="m8991.3 1539.3-43-28"/><path d="m8905.3 1484.3-43-27"/><path d="m8819.3 1429.3-43-27"/><path d="m8733.3 1375.3-43-28"/><path d="m8647.3 1320.3-43-27"/></g><text x="-805.65277" y="-4112.6523" font-size="12px"><tspan font-family="Arial" font-size="494px" font-weight="400"><tspan x="7373.3472" y="994.34753"><tspan fill="#000000">File size</tspan></tspan></tspan></text>
<path d="m13018 1377.3-85-8-84-8-82-10-81-11-78-12-76-13-74-14-71-15-69-17-65-17-62-18-59-18-56-20-51-20-49-21-44-22-41-22-36-23-32-23-29-24-23-24-20-24-15-25-11-24-6-25-2-25 3-25 7-25 11-25 16-24 20-24 25-24 29-24 33-23 37-23 41-22 45-22 49-20 53-21 56-19 59-19 63-17 66-17 69-16 71-15 74-14 77-13 79-12 81-11 82-9 84-9 86-7 87-6 88-5 88-3 89-3 90-1h89l90 2 89 2 88 4 88 5 86 6 86 8 84 8 82 10 80 11 79 12 76 13 74 14 71 15 68 16 66 17 62 18 59 19 55 20 52 20 48 21 45 22 40 22 37 23 32 23 28 24 24 24 20 24 15 24 11 25 6 25 2 25-3 25-7 25-11 24-16 25-20 24-25 24-29 24-33 23-37 23-41 22-45 21-49 21-52 20-57 20-59 19-63 17-66 17-68 16-72 15-74 14-77 13-78 12-81 11-83 9-84 9-86 7-86 6-88 5-178 6-834 1392 213-1410z" fill="#c0c0c0" fill-opacity=".502" stroke="#fff" stroke-opacity=".502" stroke-width="28.222"/><g fill="none" stroke="#c0c0c0" stroke-width="28.222"><path d="m13015 1399.3 3-22-51-5"/><path d="m12916 1367.3-50-4"/><path d="m12815 1357.3-48-6h-3"/><path d="m12714 1344.3-28-4-23-3"/><path d="m12613 1329.3-5-1-45-8"/><path d="m12512 1311.3-50-9"/><path d="m12412 1291.3-25-5-24-6"/><path d="m12313 1268.3-49-13"/><path d="m12215 1241.3-24-7-25-8"/><path d="m12117 1211.3-41-15-7-3"/><path d="m12022 1175.3-46-20h-1"/><path d="m11930 1132.3-39-21-6-4"/><path d="m11842 1079.3-19-14-21-17"/><path d="m11766 1011.3-15-18-14-23"/><path d="m11720 922.35-1-3-2-25 3-22"/><path d="m11736 823.35 2-4 16-24 11-13"/><path d="m11801 745.35 27-22 13-9"/><path d="m11884 686.35 14-9 30-16"/><path d="m11974 638.35 10-5 36-15"/><path d="m12068 599.35 18-7 30-10"/><path d="m12164 566.35 37-12 12-3"/><path d="m12262 538.35 2-1 48-12"/><path d="m12361 513.35 38-9 12-2"/><path d="m12461 491.35 9-2 41-8"/><path d="m12561 472.35 50-8"/><path d="m12662 456.35 38-6 12-2"/><path d="m12763 441.35 18-2 32-4"/><path d="m12864 430.35 51-6"/><path d="m12965 420.35 51-5"/><path d="m13067 412.35 51-4"/><path d="m13169 405.35 39-2h12"/><path d="m13271 401.35 25-1 26-1"/><path d="m13373 397.35h51"/><path d="m13475 396.35h51"/><path d="m13577 396.35 51 1"/><path d="m13679 399.35 51 1"/><path d="m13781 402.35 50 2h1"/><path d="m13883 407.35 36 2 14 1"/><path d="m13984 414.35 21 1 30 3"/><path d="m14086 423.35h5l46 4"/><path d="m14187 433.35 51 6"/><path d="m14289 445.35 48 7h2"/><path d="m14390 460.35 26 4 24 4"/><path d="m14490 477.35h2l48 9"/><path d="m14590 496.35 47 10 3 1"/><path d="m14690 518.35 15 4 34 9"/><path d="m14789 544.35 44 13 4 1"/><path d="m14886 574.35 6 2 42 15"/><path d="m14982 609.35 17 7 30 13"/><path d="m15075 651.35 17 8 28 15"/><path d="m15164 701.35 5 3 32 23 4 3"/><path d="m15243 765.35 10 10 20 24 3 4"/><path d="m15299 849.35 6 24 2 25v1"/><path d="m15297 949.35-11 23-14 21"/><path d="m15239 1032.3-14 13-24 20"/><path d="m15159 1095.3-33 20-11 6"/><path d="m15070 1144.3-30 14-17 7"/><path d="m14976 1185.3-37 14-11 4"/><path d="m14880 1220.3-48 15"/><path d="m14783 1249.3-23 6-27 7"/><path d="m14684 1274.3-50 12"/><path d="m14584 1297.3-50 10"/><path d="m14484 1316.3-4 1-46 8"/><path d="m14384 1333.3-51 8"/><path d="m14283 1348.3-39 5-12 1"/><path d="m14182 1360.3-21 2-30 3"/><path d="m14080 1371.3h-3l-48 4"/><path d="m13978 1379.3-50 3"/><path d="m13877 1386.3-51 3"/><path d="m13775 1390.3-47 2h-4"/><path d="m13673 1394.3-34 1-9 15"/><path d="m13604 1453.3-26 44"/><path d="m13552 1541.3-27 44"/><path d="m13499 1628.3-26 44"/><path d="m13447 1716.3-27 44"/><path d="m13394 1803.3-26 44"/><path d="m13342 1891.3-26 44"/><path d="m13289 1978.3-26 44"/><path d="m13237 2066.3-26 44"/><path d="m13185 2153.3-27 44"/><path d="m13132 2241.3-26 44"/><path d="m13080 2328.3-26 44"/><path d="m13027 2416.3-26 44"/><path d="m12975 2503.3-26 44"/><path d="m12922 2591.3-26 44"/><path d="m12870 2678.3-26 44"/><path d="m12818 2766.3-13 21 4-26"/><path d="m12817 2710.3 7-50"/><path d="m12832 2610.3 7-51"/><path d="m12847 2509.3 8-51"/><path d="m12862 2408.3 8-51"/><path d="m12878 2307.3 7-50"/><path d="m12893 2206.3 7-50"/><path d="m12908 2105.3 8-50"/><path d="m12923 2004.3 8-50"/><path d="m12938 1904.3 8-51"/><path d="m12954 1803.3 7-51"/><path d="m12969 1702.3 8-51"/><path d="m12984 1601.3 8-50"/><path d="m12999 1500.3 8-50"/></g><text x="-805.65277" y="-4112.6523" font-size="12px"><tspan font-family="Arial" font-size="494px" font-weight="400"><tspan x="12117.348" y="1094.3475" fill="#c0c0c0"><tspan>W</tspan><tspan>×H=32×32</tspan></tspan></tspan></text>
<path d="m12918 1277.3-85-8-84-8-82-10-81-11-78-12-76-13-74-14-71-15-69-17-65-17-62-18-59-18-56-20-51-20-49-21-44-22-41-22-36-23-32-23-29-24-23-24-20-24-15-25-11-24-6-25-2-25 3-25 7-25 11-25 16-24 20-24 25-24 29-24 33-23 37-23 41-22 45-22 49-20 53-21 56-19 59-19 63-17 66-17 69-16 71-15 74-14 77-13 79-12 81-11 82-9 84-9 86-7 87-6 88-5 88-3 89-3 90-1h89l90 2 89 2 88 4 88 5 86 6 86 8 84 8 82 10 80 11 79 12 76 13 74 14 71 15 68 16 66 17 62 18 59 19 55 20 52 20 48 21 45 22 40 22 37 23 32 23 28 24 24 24 20 24 15 24 11 25 6 25 2 25-3 25-7 25-11 24-16 25-20 24-25 24-29 24-33 23-37 23-41 22-45 21-49 21-52 20-57 20-59 19-63 17-66 17-68 16-72 15-74 14-77 13-78 12-81 11-83 9-84 9-86 7-86 6-88 5-178 6-834 1392 213-1410z" fill="#ff0" fill-opacity=".502" stroke="#fff" stroke-opacity=".502" stroke-width="28.222"/><g fill="none" stroke="#800000" stroke-width="28.222"><path d="m12915 1299.3 3-22-51-5"/><path d="m12816 1267.3-50-4"/><path d="m12715 1257.3-48-6h-3"/><path d="m12614 1244.3-28-4-23-3"/><path d="m12513 1229.3-5-1-45-8"/><path d="m12412 1211.3-50-9"/><path d="m12312 1191.3-25-5-24-6"/><path d="m12213 1168.3-49-13"/><path d="m12115 1141.3-24-7-25-8"/><path d="m12017 1111.3-41-15-7-3"/><path d="m11922 1075.3-46-20h-1"/><path d="m11830 1032.3-39-21-6-4"/><path d="m11742 979.35-19-14-21-17"/><path d="m11666 911.35-15-18-14-23"/><path d="m11620 822.35-1-3-2-25 3-22"/><path d="m11636 723.35 2-4 16-24 11-13"/><path d="m11701 645.35 27-22 13-9"/><path d="m11784 586.35 14-9 30-16"/><path d="m11874 538.35 10-5 36-15"/><path d="m11968 499.35 18-7 30-10"/><path d="m12064 466.35 37-12 12-3"/><path d="m12162 438.35 2-1 48-12"/><path d="m12261 413.35 38-9 12-2"/><path d="m12361 391.35 9-2 41-8"/><path d="m12461 372.35 50-8"/><path d="m12562 356.35 38-6 12-2"/><path d="m12663 341.35 18-2 32-4"/><path d="m12764 330.35 51-6"/><path d="m12865 320.35 51-5"/><path d="m12967 312.35 51-4"/><path d="m13069 305.35 39-2h12"/><path d="m13171 301.35 25-1 26-1"/><path d="m13273 297.35h51"/><path d="m13375 296.35h51"/><path d="m13477 296.35 51 1"/><path d="m13579 299.35 51 1"/><path d="m13681 302.35 50 2h1"/><path d="m13783 307.35 36 2 14 1"/><path d="m13884 314.35 21 1 30 3"/><path d="m13986 323.35h5l46 4"/><path d="m14087 333.35 51 6"/><path d="m14189 345.35 48 7h2"/><path d="m14290 360.35 26 4 24 4"/><path d="m14390 377.35h2l48 9"/><path d="m14490 396.35 47 10 3 1"/><path d="m14590 418.35 15 4 34 9"/><path d="m14689 444.35 44 13 4 1"/><path d="m14786 474.35 6 2 42 15"/><path d="m14882 509.35 17 7 30 13"/><path d="m14975 551.35 17 8 28 15"/><path d="m15064 601.35 5 3 32 23 4 3"/><path d="m15143 665.35 10 10 20 24 3 4"/><path d="m15199 749.35 6 24 2 25v1"/><path d="m15197 849.35-11 23-14 21"/><path d="m15139 932.35-14 13-24 20"/><path d="m15059 995.35-33 20-11 6"/><path d="m14970 1044.3-30 14-17 7"/><path d="m14876 1085.3-37 14-11 4"/><path d="m14780 1120.3-48 15"/><path d="m14683 1149.3-23 6-27 7"/><path d="m14584 1174.3-50 12"/><path d="m14484 1197.3-50 10"/><path d="m14384 1216.3-4 1-46 8"/><path d="m14284 1233.3-51 8"/><path d="m14183 1248.3-39 5-12 1"/><path d="m14082 1260.3-21 2-30 3"/><path d="m13980 1271.3h-3l-48 4"/><path d="m13878 1279.3-50 3"/><path d="m13777 1286.3-51 3"/><path d="m13675 1290.3-47 2h-4"/><path d="m13573 1294.3-34 1-9 15"/><path d="m13504 1353.3-26 44"/><path d="m13452 1441.3-27 44"/><path d="m13399 1528.3-26 44"/><path d="m13347 1616.3-27 44"/><path d="m13294 1703.3-26 44"/><path d="m13242 1791.3-26 44"/><path d="m13189 1878.3-26 44"/><path d="m13137 1966.3-26 44"/><path d="m13085 2053.3-27 44"/><path d="m13032 2141.3-26 44"/><path d="m12980 2228.3-26 44"/><path d="m12927 2316.3-26 44"/><path d="m12875 2403.3-26 44"/><path d="m12822 2491.3-26 44"/><path d="m12770 2578.3-26 44"/><path d="m12718 2666.3-13 21 4-26"/><path d="m12717 2610.3 7-50"/><path d="m12732 2510.3 7-51"/><path d="m12747 2409.3 8-51"/><path d="m12762 2308.3 8-51"/><path d="m12778 2207.3 7-50"/><path d="m12793 2106.3 7-50"/><path d="m12808 2005.3 8-50"/><path d="m12823 1904.3 8-50"/><path d="m12838 1804.3 8-51"/><path d="m12854 1703.3 7-51"/><path d="m12869 1602.3 8-51"/><path d="m12884 1501.3 8-50"/><path d="m12899 1400.3 8-50"/></g><text x="-805.65277" y="-4112.6523" font-size="12px"><tspan font-family="Arial" font-size="494px" font-weight="400"><tspan x="12017.348" y="994.34753" fill="#000000"><tspan>W</tspan><tspan>×H=32×32</tspan></tspan></tspan></text>
<path d="m21834 2690.3c-186 0-344-20-505-65-161-44-277-99-370-176s-135-152-135-240c0-89 42-164 135-241s209-132 370-176c161-45 319-65 505-65s344 20 505 65c161 44 277 99 370 176s135 152 135 241c0 88-42 163-135 240s-209 132-370 176c-161 45-319 65-505 65z" fill="#808080" fill-opacity=".251" stroke="#fff" stroke-opacity=".251" stroke-width="28.222"/><path d="m17498 1379.3-75 6-75 4-76 4-76 2-77 1h-77l-76-2-76-3-76-4-75-5-74-6-73-8-72-9-70-10-69-11-66-12-65-13-63-15-61-15-58-16-55-17-53-18-50-19-47-20-44-20-41-22-38-21-34-23-30-22-28-24-23-23-20-25-16-24-13-25-8-24-5-25-1-25 3-25 7-25 10-25 14-24 18-24 22-24 25-24 29-23 32-22 36-22 39-22 43-21 45-20 49-19 51-18 54-18 57-17 60-16 61-14 64-14 66-13 68-12 69-10 71-10 73-8 73-7 75-6 75-4 76-4 76-2 77-1h77l76 2 76 3 76 4 75 5 74 6 73 8 72 9 70 10 69 11 67 12 65 13 62 14 61 16 58 16 56 17 53 18 50 19 47 20 44 20 41 21 37 22 34 22 31 23 27 23 24 24 20 24 16 25 12 24 9 25 5 25 1 25-3 25-7 25-10 24-14 25-18 24-22 24-25 23-29 23-32 23-36 22-39 22-42 20-46 20-48 20-52 18-54 18-57 17-59 15-61 15 531 578-1017-504z" fill="#c0c0c0" fill-opacity=".502" stroke="#fff" stroke-opacity=".502" stroke-width="28.222"/><g fill="none" stroke="#c0c0c0" stroke-width="28.222"><path d="m17498 1379.3-51 4"/><path d="m17396 1386.3-48 3h-3"/><path d="m17294 1392.3-22 1-29 1"/><path d="m17192 1395.3-51 1"/><path d="m17090 1396.3h-51"/><path d="m16989 1395.3-23-1-28-1"/><path d="m16887 1391.3-51-3"/><path d="m16785 1385.3-46-3h-5"/><path d="m16683 1377.3-18-1-33-4"/><path d="m16582 1367.3-51-7"/><path d="m16480 1353.3-30-4-20-3"/><path d="m16380 1338.3-50-9"/><path d="m16279 1319.3-29-6-20-5"/><path d="m16180 1296.3-50-12"/><path d="m16081 1271.3-13-4-36-11"/><path d="m15984 1240.3-24-8-24-9"/><path d="m15889 1204.3-26-11-21-10"/><path d="m15796 1161.3-18-10-26-15"/><path d="m15709 1109.3-3-2-30-22-8-7"/><path d="m15631 1044.3-6-6-20-25-6-9"/><path d="m15574 959.35-6-19-5-25v-5"/><path d="m15567 859.35 5-19 10-25 2-4"/><path d="m15612 769.35 2-2 22-24 11-11"/><path d="m15686 699.35 4-3 32-22 6-4"/><path d="m15772 644.35 25-14 20-10"/><path d="m15863 599.35 22-10 26-10"/><path d="m15958 561.35 27-9 22-7"/><path d="m16055 529.35 41-12 8-2"/><path d="m16153 502.35 3-1 47-11"/><path d="m16253 479.35 28-6 22-4"/><path d="m16353 459.35 50-9"/><path d="m16453 442.35 31-4 20-3"/><path d="m16554 428.35h1l50-5"/><path d="m16656 417.35 45-4h6"/><path d="m16757 408.35 19-1 32-2"/><path d="m16859 403.35 51-3"/><path d="m16961 398.35 42-1h9"/><path d="m17063 396.35h51"/><path d="m17165 396.35 51 2"/><path d="m17267 399.35 42 2h9"/><path d="m17369 404.35 16 1 35 2"/><path d="m17471 411.35 51 4"/><path d="m17572 420.35 35 4 16 2"/><path d="m17674 432.35 5 1 45 6"/><path d="m17774 447.35 44 7 7 1"/><path d="m17875 464.35 50 10"/><path d="m17975 485.35 37 8 13 3"/><path d="m18074 509.35 49 14"/><path d="m18172 537.35 48 16"/><path d="m18268 571.35 22 8 26 11"/><path d="m18362 610.35 19 9 27 14"/><path d="m18452 658.35 7 4 34 22 2 2"/><path d="m18536 717.35 15 13 22 22"/><path d="m18604 792.35 7 11 12 24 4 10"/><path d="m18637 887.35 1 15-3 25-3 10"/><path d="m18613 985.35-9 16-18 24-1 2"/><path d="m18549 1063.3-10 9-29 23"/><path d="m18468 1124.3-26 16-18 10"/><path d="m18378 1174.3-17 8-29 13"/><path d="m18285 1215.3-18 7-30 10"/><path d="m18189 1249.3-28 9-21 6"/><path d="m18091 1278.3-46 12-3 1"/><path d="m17992 1303.3-8 2 29 31"/><path d="m18047 1374.3 35 37"/><path d="m18116 1449.3 35 37"/><path d="m18185 1524.3 35 38"/><path d="m18254 1599.3 35 38"/><path d="m18323 1674.3 35 38"/><path d="m18392 1749.3 35 38"/><path d="m18461 1824.3 35 38"/><path d="m18495 1873.3-46-23"/><path d="m18403 1828.3-45-23"/><path d="m18312 1782.3-46-22"/><path d="m18221 1737.3-46-23"/><path d="m18129 1692.3-45-23"/><path d="m18038 1647.3-46-23"/><path d="m17946 1601.3-45-22"/><path d="m17855 1556.3-46-23"/><path d="m17764 1511.3-46-23"/><path d="m17672 1465.3-45-22"/><path d="m17581 1420.3-46-23"/></g><text x="-805.65277" y="-4112.6523" font-size="12px"><tspan font-family="Arial" font-size="494px" font-weight="400"><tspan x="16052.348" y="1094.3475"><tspan fill="#c0c0c0">Inizio img</tspan></tspan></tspan></text>
<path d="m17398 1279.3-75 6-75 4-76 4-76 2-77 1h-77l-76-2-76-3-76-4-75-5-74-6-73-8-72-9-70-10-69-11-66-12-65-13-63-15-61-15-58-16-55-17-53-18-50-19-47-20-44-20-41-22-38-21-34-23-30-22-28-24-23-23-20-25-16-24-13-25-8-24-5-25-1-25 3-25 7-25 10-25 14-24 18-24 22-24 25-24 29-23 32-22 36-22 39-22 43-21 45-20 49-19 51-18 54-18 57-17 60-16 61-14 64-14 66-13 68-12 69-10 71-10 73-8 73-7 75-6 75-4 76-4 76-2 77-1h77l76 2 76 3 76 4 75 5 74 6 73 8 72 9 70 10 69 11 67 12 65 13 62 14 61 16 58 16 56 17 53 18 50 19 47 20 44 20 41 21 37 22 34 22 31 23 27 23 24 24 20 24 16 25 12 24 9 25 5 25 1 25-3 25-7 25-10 24-14 25-18 24-22 24-25 23-29 23-32 23-36 22-39 22-42 20-46 20-48 20-52 18-54 18-57 17-59 15-61 15 531 578-1017-504z" fill="#ff0" fill-opacity=".502" stroke="#fff" stroke-opacity=".502" stroke-width="28.222"/><g fill="none" stroke="#800000" stroke-width="28.222"><path d="m17398 1279.3-51 4"/><path d="m17296 1286.3-48 3h-3"/><path d="m17194 1292.3-22 1-29 1"/><path d="m17092 1295.3-51 1"/><path d="m16990 1296.3h-51"/><path d="m16889 1295.3-23-1-28-1"/><path d="m16787 1291.3-51-3"/><path d="m16685 1285.3-46-3h-5"/><path d="m16583 1277.3-18-1-33-4"/><path d="m16482 1267.3-51-7"/><path d="m16380 1253.3-30-4-20-3"/><path d="m16280 1238.3-50-9"/><path d="m16179 1219.3-29-6-20-5"/><path d="m16080 1196.3-50-12"/><path d="m15981 1171.3-13-4-36-11"/><path d="m15884 1140.3-24-8-24-9"/><path d="m15789 1104.3-26-11-21-10"/><path d="m15696 1061.3-18-10-26-15"/><path d="m15609 1009.3-3-2-30-22-8-7"/><path d="m15531 944.35-6-6-20-25-6-9"/><path d="m15474 859.35-6-19-5-25v-5"/><path d="m15467 759.35 5-19 10-25 2-4"/><path d="m15512 669.35 2-2 22-24 11-11"/><path d="m15586 599.35 4-3 32-22 6-4"/><path d="m15672 544.35 25-14 20-10"/><path d="m15763 499.35 22-10 26-10"/><path d="m15858 461.35 27-9 22-7"/><path d="m15955 429.35 41-12 8-2"/><path d="m16053 402.35 3-1 47-11"/><path d="m16153 379.35 28-6 22-4"/><path d="m16253 359.35 50-9"/><path d="m16353 342.35 31-4 20-3"/><path d="m16454 328.35h1l50-5"/><path d="m16556 317.35 45-4h6"/><path d="m16657 308.35 19-1 32-2"/><path d="m16759 303.35 51-3"/><path d="m16861 298.35 42-1h9"/><path d="m16963 296.35h51"/><path d="m17065 296.35 51 2"/><path d="m17167 299.35 42 2h9"/><path d="m17269 304.35 16 1 35 2"/><path d="m17371 311.35 51 4"/><path d="m17472 320.35 35 4 16 2"/><path d="m17574 332.35 5 1 45 6"/><path d="m17674 347.35 44 7 7 1"/><path d="m17775 364.35 50 10"/><path d="m17875 385.35 37 8 13 3"/><path d="m17974 409.35 49 14"/><path d="m18072 437.35 48 16"/><path d="m18168 471.35 22 8 26 11"/><path d="m18262 510.35 19 9 27 14"/><path d="m18352 558.35 7 4 34 22 2 2"/><path d="m18436 617.35 15 13 22 22"/><path d="m18504 692.35 7 11 12 24 4 10"/><path d="m18537 787.35 1 15-3 25-3 10"/><path d="m18513 885.35-9 16-18 24-1 2"/><path d="m18449 963.35-10 9-29 23"/><path d="m18368 1024.3-26 16-18 10"/><path d="m18278 1074.3-17 8-29 13"/><path d="m18185 1115.3-18 7-30 10"/><path d="m18089 1149.3-28 9-21 6"/><path d="m17991 1178.3-46 12-3 1"/><path d="m17892 1203.3-8 2 29 31"/><path d="m17947 1274.3 35 37"/><path d="m18016 1349.3 35 37"/><path d="m18085 1424.3 35 38"/><path d="m18154 1499.3 35 38"/><path d="m18223 1574.3 35 38"/><path d="m18292 1649.3 35 38"/><path d="m18361 1724.3 35 38"/><path d="m18395 1773.3-46-23"/><path d="m18303 1728.3-45-23"/><path d="m18212 1682.3-46-22"/><path d="m18121 1637.3-46-23"/><path d="m18029 1592.3-45-23"/><path d="m17938 1547.3-46-23"/><path d="m17846 1501.3-45-22"/><path d="m17755 1456.3-46-23"/><path d="m17664 1411.3-46-23"/><path d="m17572 1365.3-45-22"/><path d="m17481 1320.3-46-23"/></g><text x="-805.65277" y="-4112.6523" font-size="12px"><tspan font-family="Arial" font-size="494px" font-weight="400"><tspan x="15952.348" y="994.34753"><tspan fill="#000000">Inizio img</tspan></tspan></tspan></text>
<path d="m12383 7227.3c-24 0-44-5-64-17s-34-26-46-46-17-40-17-63c0-24 5-44 17-64s26-34 46-46 40-17 64-17c23 0 43 5 63 17s34 26 46 46 17 40 17 64c0 23-5 43-17 63s-26 34-46 46-40 17-63 17z" fill="#808080" fill-opacity=".251" stroke="#fff" stroke-opacity=".251" stroke-width="28.222"/><path d="m18947 2690.3c0 3213-5962 1261-6523 3865" fill="none" stroke="#808080" stroke-width="28.222"/><path d="m12382 6974.3 197-432-299-31 102 463z" fill="#808080"/><path d="m19832 3446.3c-186 0-344-20-505-65-161-44-277-99-370-176s-135-152-135-240c0-89 42-164 135-241s209-132 370-176c161-45 319-65 505-65s344 20 505 65c161 44 277 99 370 176s135 152 135 241c0 88-42 163-135 240s-209 132-370 176c-161 45-319 65-505 65z" fill="#808080" fill-opacity=".251" stroke="#fff" stroke-opacity=".251" stroke-width="28.222"/><path d="m20538 1387.3-100-6-98-6-97-8-95-10-93-10-91-11-89-13-86-13-83-15-80-16-76-16-73-17-70-19-65-19-62-20-58-20-53-22-49-22-44-22-39-23-35-24-30-23-25-25-20-24-16-25-10-25-4-24v-25l5-25 10-25 16-25 20-24 26-24 30-24 35-23 40-23 45-23 49-22 53-21 58-21 62-19 66-20 70-18 73-17 77-17 80-15 83-15 86-13 89-13 91-11 93-10 96-9 97-8 98-7 100-5 101-5 101-3 102-1 103-1 102 1 102 2 102 3 100 4 100 6 98 6 97 8 96 10 93 10 91 11 88 13 86 13 83 15 80 16 77 16 73 18 69 18 66 19 61 20 58 21 53 21 49 22 44 22 40 23 34 24 30 24 25 24 21 24 15 25 10 25 4 25v24l-5 25-10 25-16 25-20 24-26 24-30 24-35 24-40 23-45 22-49 22-53 21-58 21-62 20-66 19-70 18-73 17-77 17-80 15-83 15-87 13-88 13-91 11-94 10-95 9-97 8-99 7-99 5-101 5-488 1209-224-1214z" fill="#c0c0c0" fill-opacity=".502" stroke="#fff" stroke-opacity=".502" stroke-width="28.222"/><g fill="none" stroke="#c0c0c0" stroke-width="28.222"><path d="m20538 1387.3-51-3"/><path d="m20436 1381.3-51-3"/><path d="m20334 1375.3-50-5"/><path d="m20233 1366.3-51-5"/><path d="m20131 1355.3-50-5"/><path d="m20030 1344.3-51-6"/><path d="m19929 1331.3-51-8"/><path d="m19828 1316.3-39-6-11-2"/><path d="m19727 1299.3-21-4-29-6"/><path d="m19627 1279.3h-1l-49-10"/><path d="m19528 1258.3-50-12"/><path d="m19429 1233.3-22-6-27-8"/><path d="m19331 1204.3-49-15"/><path d="m19234 1172.3-12-4-35-15"/><path d="m19140 1133.3-20-9-26-13"/><path d="m19049 1086.3-12-7-30-21"/><path d="m18967 1027.3-20-20-15-18"/><path d="m18906 946.35-5-13-4-24v-13"/><path d="m18907 846.35 5-12 16-25 5-6"/><path d="m18968 766.35 6-5 30-24 4-3"/><path d="m19051 707.35 28-16 17-9"/><path d="m19142 660.35 31-14 15-6"/><path d="m19236 621.35 48-17"/><path d="m19333 589.35 13-4 35-11"/><path d="m19430 560.35 50-12"/><path d="m19530 536.35 25-6 24-5"/><path d="m19629 514.35 3-1 47-9"/><path d="m19729 495.35 51-9"/><path d="m19830 478.35 50-8"/><path d="m19931 463.35 39-6 11-1"/><path d="m20032 450.35 29-4 22-2"/><path d="m20133 438.35 21-2 30-3"/><path d="m20235 428.35 15-1 36-3"/><path d="m20336 420.35 11-1 40-3"/><path d="m20438 412.35h7l44-2"/><path d="m20540 407.35h5l46-2"/><path d="m20642 402.35h4l47-1"/><path d="m20744 399.35h51"/><path d="m20846 398.35h51"/><path d="m20948 397.35h51"/><path d="m21050 398.35h4l47 1"/><path d="m21152 400.35h4l47 1"/><path d="m21254 403.35h4l47 2"/><path d="m21356 407.35h2l49 3"/><path d="m21458 413.35 50 3"/><path d="m21559 419.35 51 4"/><path d="m21661 428.35 51 5"/><path d="m21762 438.35 51 6"/><path d="m21864 450.35 50 6"/><path d="m21965 463.35 50 7"/><path d="m22066 478.35 41 6 9 2"/><path d="m22166 495.35 24 4 26 5"/><path d="m22267 514.35 3 1 46 10"/><path d="m22366 536.35 50 12"/><path d="m22465 561.35 24 6 25 7"/><path d="m22563 589.35 49 16"/><path d="m22660 622.35 14 5 33 13"/><path d="m22754 660.35 22 10 24 12"/><path d="m22845 706.35 15 9 28 19"/><path d="m22927 766.35 22 21 14 16"/><path d="m22989 846.35 6 15 4 25v10"/><path d="m22990 945.35-6 15-16 25-4 4"/><path d="m22929 1026.3-7 7-30 24-2 1"/><path d="m22847 1087.3-30 17-14 7"/><path d="m22757 1133.3-34 15-13 5"/><path d="m22662 1172.3-48 17"/><path d="m22566 1205.3-16 5-33 9"/><path d="m22468 1233.3-50 13"/><path d="m22369 1258.3-28 6-22 5"/><path d="m22269 1280.3-5 1-45 8"/><path d="m22169 1299.3-50 9"/><path d="m22069 1316.3-51 7"/><path d="m21968 1331.3-42 6-9 1"/><path d="m21867 1344.3-32 4-19 2"/><path d="m21765 1355.3-24 3-27 3"/><path d="m21664 1365.3-18 2-33 3"/><path d="m21562 1374.3-13 1-38 3"/><path d="m21460 1381.3-10 1-41 2"/><path d="m21358 1387.3h-7l-44 2"/><path d="m21257 1392.3h-7l-17 41"/><path d="m21214 1481.3-19 47"/><path d="m21176 1575.3-19 47"/><path d="m21138 1670.3-19 47"/><path d="m21100 1764.3-19 48"/><path d="m21062 1859.3-20 47"/><path d="m21023 1953.3-19 48"/><path d="m20985 2048.3-19 47"/><path d="m20947 2143.3-19 47"/><path d="m20909 2237.3-19 47"/><path d="m20871 2332.3-19 47"/><path d="m20832 2426.3-19 48"/><path d="m20794 2521.3-19 47"/><path d="m20759 2586.3-9-51"/><path d="m20741 2485.3-10-50"/><path d="m20722 2385.3-9-50"/><path d="m20704 2285.3-10-51"/><path d="m20685 2184.3-9-50"/><path d="m20667 2084.3-10-50"/><path d="m20648 1984.3-9-50"/><path d="m20630 1883.3-10-50"/><path d="m20611 1783.3-9-50"/><path d="m20593 1683.3-10-50"/><path d="m20574 1583.3-9-51"/><path d="m20556 1482.3-10-50"/></g><text x="-805.65277" y="-4112.6523" font-size="12px"><tspan font-family="Arial" font-size="494px" font-weight="400"><tspan x="19170.348" y="1095.3475"><tspan fill="#c0c0c0">Profondità (bpp)</tspan></tspan></tspan></text>
<path d="m20438 1287.3-100-6-98-6-97-8-95-10-93-10-91-11-89-13-86-13-83-15-80-16-76-16-73-17-70-19-65-19-62-20-58-20-53-22-49-22-44-22-39-23-35-24-30-23-25-25-20-24-16-25-10-25-4-24v-25l5-25 10-25 16-25 20-24 26-24 30-24 35-23 40-23 45-23 49-22 53-21 58-21 62-19 66-20 70-18 73-17 77-17 80-15 83-15 86-13 89-13 91-11 93-10 96-9 97-8 98-7 100-5 101-5 101-3 102-1 103-1 102 1 102 2 102 3 100 4 100 6 98 6 97 8 96 10 93 10 91 11 88 13 86 13 83 15 80 16 77 16 73 18 69 18 66 19 61 20 58 21 53 21 49 22 44 22 40 23 34 24 30 24 25 24 21 24 15 25 10 25 4 25v24l-5 25-10 25-16 25-20 24-26 24-30 24-35 24-40 23-45 22-49 22-53 21-58 21-62 20-66 19-70 18-73 17-77 17-80 15-83 15-87 13-88 13-91 11-94 10-95 9-97 8-99 7-99 5-101 5-488 1209-224-1214z" fill="#ff0" fill-opacity=".502" stroke="#fff" stroke-opacity=".502" stroke-width="28.222"/><g fill="none" stroke="#800000" stroke-width="28.222"><path d="m20438 1287.3-51-3"/><path d="m20336 1281.3-51-3"/><path d="m20234 1275.3-50-5"/><path d="m20133 1266.3-51-5"/><path d="m20031 1255.3-50-5"/><path d="m19930 1244.3-51-6"/><path d="m19829 1231.3-51-8"/><path d="m19728 1216.3-39-6-11-2"/><path d="m19627 1199.3-21-4-29-6"/><path d="m19527 1179.3h-1l-49-10"/><path d="m19428 1158.3-50-12"/><path d="m19329 1133.3-22-6-27-8"/><path d="m19231 1104.3-49-15"/><path d="m19134 1072.3-12-4-35-15"/><path d="m19040 1033.3-20-9-26-13"/><path d="m18949 986.35-12-7-30-21"/><path d="m18867 927.35-20-20-15-18"/><path d="m18806 846.35-5-13-4-24v-13"/><path d="m18807 746.35 5-12 16-25 5-6"/><path d="m18868 666.35 6-5 30-24 4-3"/><path d="m18951 607.35 28-16 17-9"/><path d="m19042 560.35 31-14 15-6"/><path d="m19136 521.35 48-17"/><path d="m19233 489.35 13-4 35-11"/><path d="m19330 460.35 50-12"/><path d="m19430 436.35 25-6 24-5"/><path d="m19529 414.35 3-1 47-9"/><path d="m19629 395.35 51-9"/><path d="m19730 378.35 50-8"/><path d="m19831 363.35 39-6 11-1"/><path d="m19932 350.35 29-4 22-2"/><path d="m20033 338.35 21-2 30-3"/><path d="m20135 328.35 15-1 36-3"/><path d="m20236 320.35 11-1 40-3"/><path d="m20338 312.35h7l44-2"/><path d="m20440 307.35h5l46-2"/><path d="m20542 302.35h4l47-1"/><path d="m20644 299.35h51"/><path d="m20746 298.35h51"/><path d="m20848 297.35h51"/><path d="m20950 298.35h4l47 1"/><path d="m21052 300.35h4l47 1"/><path d="m21154 303.35h4l47 2"/><path d="m21256 307.35h2l49 3"/><path d="m21358 313.35 50 3"/><path d="m21459 319.35 51 4"/><path d="m21561 328.35 51 5"/><path d="m21662 338.35 51 6"/><path d="m21764 350.35 50 6"/><path d="m21865 363.35 50 7"/><path d="m21966 378.35 41 6 9 2"/><path d="m22066 395.35 24 4 26 5"/><path d="m22167 414.35 3 1 46 10"/><path d="m22266 436.35 50 12"/><path d="m22365 461.35 24 6 25 7"/><path d="m22463 489.35 49 16"/><path d="m22560 522.35 14 5 33 13"/><path d="m22654 560.35 22 10 24 12"/><path d="m22745 606.35 15 9 28 19"/><path d="m22827 666.35 22 21 14 16"/><path d="m22889 746.35 6 15 4 25v10"/><path d="m22890 845.35-6 15-16 25-4 4"/><path d="m22829 926.35-7 7-30 24-2 1"/><path d="m22747 987.35-30 17-14 7"/><path d="m22657 1033.3-34 15-13 5"/><path d="m22562 1072.3-48 17"/><path d="m22466 1105.3-16 5-33 9"/><path d="m22368 1133.3-50 13"/><path d="m22269 1158.3-28 6-22 5"/><path d="m22169 1180.3-5 1-45 8"/><path d="m22069 1199.3-50 9"/><path d="m21969 1216.3-51 7"/><path d="m21868 1231.3-42 6-9 1"/><path d="m21767 1244.3-32 4-19 2"/><path d="m21665 1255.3-24 3-27 3"/><path d="m21564 1265.3-18 2-33 3"/><path d="m21462 1274.3-13 1-38 3"/><path d="m21360 1281.3-10 1-41 2"/><path d="m21258 1287.3h-7l-44 2"/><path d="m21157 1292.3h-7l-17 41"/><path d="m21114 1381.3-19 47"/><path d="m21076 1475.3-19 47"/><path d="m21038 1570.3-19 47"/><path d="m21000 1664.3-19 48"/><path d="m20962 1759.3-20 47"/><path d="m20923 1853.3-19 48"/><path d="m20885 1948.3-19 47"/><path d="m20847 2043.3-19 47"/><path d="m20809 2137.3-19 47"/><path d="m20771 2232.3-19 47"/><path d="m20732 2326.3-19 48"/><path d="m20694 2421.3-19 47"/><path d="m20659 2486.3-9-51"/><path d="m20641 2385.3-10-50"/><path d="m20622 2285.3-9-50"/><path d="m20604 2185.3-10-51"/><path d="m20585 2084.3-9-50"/><path d="m20567 1984.3-10-50"/><path d="m20548 1884.3-9-50"/><path d="m20530 1783.3-10-50"/><path d="m20511 1683.3-9-50"/><path d="m20493 1583.3-10-50"/><path d="m20474 1483.3-9-51"/><path d="m20456 1382.3-10-50"/></g><text x="-805.65277" y="-4112.6523" font-size="12px"><tspan font-family="Arial" font-size="494px" font-weight="400"><tspan x="19070.348" y="995.34753"><tspan fill="#000000">Profondità (bpp)</tspan></tspan></tspan></text>
<path d="m12383 4455.3c-24 0-44-5-64-17-20-11-34-26-46-46s-17-40-17-63 5-43 17-63 26-35 46-46c20-12 40-17 64-17 23 0 43 5 63 17 20 11 34 26 46 46s17 40 17 63-5 43-17 63-26 35-46 46c-20 12-40 17-63 17z" fill="#808080" fill-opacity=".251" stroke="#fff" stroke-opacity=".251" stroke-width="28.222"/><path d="m23507 1265.3-28-17-26-18-25-19-24-20-22-20-20-21-18-22-17-23-16-23-13-23-12-24-9-24-8-24-6-25-4-25-3-24v-25l2-25 3-25 6-25 7-24 9-25 11-23 13-24 15-23 16-22 18-22 20-22 21-21 23-20 24-19 26-18 27-18 29-16 30-16 31-15 32-14 33-12 34-12 35-10 35-9 36-9 37-7 38-5 37-5 38-3 38-2 39-1h38l38 2 39 3 37 4 38 5 37 7 36 8 36 9 35 10 34 11 34 12 32 14 31 14 31 15 29 17 27 17 26 18 25 19 24 20 22 20 20 22 18 21 17 23 16 23 13 23 12 24 9 24 8 24 6 25 4 25 3 25v24l-2 25-3 25-6 25-7 24-9 25-11 23-13 24-15 23-16 23-18 22-20 21-21 21-23 20-24 19-26 18-28 18-28 16-30 16-31 15-32 14-33 12-34 12-35 10-35 9-37 9-36 7-38 5-37 5-38 3-39 2-38 1h-38l-39-2-38-3-37-4-38-6-37-6-36-8-36-9-889 752 664-845z" fill="#c0c0c0" fill-opacity=".502" stroke="#fff" stroke-opacity=".502" stroke-width="28.222"/><g fill="none" stroke="#c0c0c0" stroke-width="28.222"><path d="m23502 1271.3 5-6-28-17-15-10"/><path d="m23423 1207.3-19-16-19-17"/><path d="m23350 1136.3-6-8-17-23-7-10"/><path d="m23294 1051.3-8-16-9-24-2-7"/><path d="m23262 955.35-3-18-3-24v-9"/><path d="m23259 853.35 2-15 6-25 3-9"/><path d="m23287 756.35 7-15 13-24 4-6"/><path d="m23340 669.35 16-19 18-20"/><path d="m23411 595.35 9-8 24-19 6-4"/><path d="m23493 535.35 4-3 29-16 11-6"/><path d="m23583 487.35 4-2 32-14 11-4"/><path d="m23678 450.35 8-3 35-10 6-1"/><path d="m23776 423.35 16-4 34-6"/><path d="m23876 406.35 28-4 23-2"/><path d="m23978 397.35h2l39-1h10"/><path d="m24080 397.35 15 1 36 3"/><path d="m24182 406.35 27 4 23 4"/><path d="m24282 425.35 36 9 13 4"/><path d="m24380 453.35 7 2 34 12 7 3"/><path d="m24474 491.35 10 4 31 15 5 3"/><path d="m24564 539.35 7 5 26 18 9 7"/><path d="m24645 601.35h1l22 20 14 15"/><path d="m24714 675.35 9 12 16 23 4 7"/><path d="m24766 763.35 7 18 8 24 1 6"/><path d="m24792 861.35 2 19v24l-1 8"/><path d="m24787 963.35-4 16-7 24-3 9"/><path d="m24752 1058.3-9 17-15 23-2 4"/><path d="m24695 1142.3-1 1-20 21-15 15"/><path d="m24621 1212.3-15 12-26 18"/><path d="m24536 1269.3-12 7-30 16-3 1"/><path d="m24445 1315.3-14 6-33 12"/><path d="m24349 1349.3-20 6-29 7"/><path d="m24250 1374.3-29 6-21 3"/><path d="m24149 1390.3h-3l-38 3h-9"/><path d="m24048 1396.3h-51"/><path d="m23946 1393.3-30-2-21-2"/><path d="m23845 1382.3-4-1-37-6-10-2"/><path d="m23745 1361.3-13-3-29 25"/><path d="m23664 1415.3-39 33"/><path d="m23586 1481.3-39 33"/><path d="m23508 1547.3-39 33"/><path d="m23430 1613.3-38 33"/><path d="m23353 1679.3-39 33"/><path d="m23275 1745.3-39 33"/><path d="m23197 1811.3-39 33"/><path d="m23119 1877.3-39 33"/><path d="m23041 1942.3-39 33"/><path d="m22963 2008.3-39 33"/><path d="m22885 2074.3-39 33"/><path d="m22872 2073.3 31-40"/><path d="m22935 1993.3 31-40"/><path d="m22998 1913.3 31-40"/><path d="m23061 1833.3 31-40"/><path d="m23124 1753.3 31-41"/><path d="m23187 1672.3 31-40"/><path d="m23250 1592.3 31-40"/><path d="m23313 1512.3 31-40"/><path d="m23376 1432.3 31-40"/><path d="m23439 1352.3 31-41"/></g><text x="-805.65277" y="-4112.6523" font-size="12px"><tspan font-family="Arial" font-size="494px" font-weight="400"><tspan x="23750.348" y="1094.3475"><tspan fill="#c0c0c0">40</tspan></tspan></tspan></text>
<path d="m23407 1165.3-28-17-26-18-25-19-24-20-22-20-20-21-18-22-17-23-16-23-13-23-12-24-9-24-8-24-6-25-4-25-3-24v-25l2-25 3-25 6-25 7-24 9-25 11-23 13-24 15-23 16-22 18-22 20-22 21-21 23-20 24-19 26-18 27-18 29-16 30-16 31-15 32-14 33-12 34-12 35-10 35-9 36-9 37-7 38-5 37-5 38-3 38-2 39-1h38l38 2 39 3 37 4 38 5 37 7 36 8 36 9 35 10 34 11 34 12 32 14 31 14 31 15 29 17 27 17 26 18 25 19 24 20 22 20 20 22 18 21 17 23 16 23 13 23 12 24 9 24 8 24 6 25 4 25 3 25v24l-2 25-3 25-6 25-7 24-9 25-11 23-13 24-15 23-16 23-18 22-20 21-21 21-23 20-24 19-26 18-28 18-28 16-30 16-31 15-32 14-33 12-34 12-35 10-35 9-37 9-36 7-38 5-37 5-38 3-39 2-38 1h-38l-39-2-38-3-37-4-38-6-37-6-36-8-36-9-889 752 664-845z" fill="#ff0" fill-opacity=".502" stroke="#fff" stroke-opacity=".502" stroke-width="28.222"/><g fill="none" stroke="#800000" stroke-width="28.222"><path d="m23402 1171.3 5-6-28-17-15-10"/><path d="m23323 1107.3-19-16-19-17"/><path d="m23250 1036.3-6-8-17-23-7-10"/><path d="m23194 951.35-8-16-9-24-2-7"/><path d="m23162 855.35-3-18-3-24v-9"/><path d="m23159 753.35 2-15 6-25 3-9"/><path d="m23187 656.35 7-15 13-24 4-6"/><path d="m23240 569.35 16-19 18-20"/><path d="m23311 495.35 9-8 24-19 6-4"/><path d="m23393 435.35 4-3 29-16 11-6"/><path d="m23483 387.35 4-2 32-14 11-4"/><path d="m23578 350.35 8-3 35-10 6-1"/><path d="m23676 323.35 16-4 34-6"/><path d="m23776 306.35 28-4 23-2"/><path d="m23878 297.35h2l39-1h10"/><path d="m23980 297.35 15 1 36 3"/><path d="m24082 306.35 27 4 23 4"/><path d="m24182 325.35 36 9 13 4"/><path d="m24280 353.35 7 2 34 12 7 3"/><path d="m24374 391.35 10 4 31 15 5 3"/><path d="m24464 439.35 7 5 26 18 9 7"/><path d="m24545 501.35h1l22 20 14 15"/><path d="m24614 575.35 9 12 16 23 4 7"/><path d="m24666 663.35 7 18 8 24 1 6"/><path d="m24692 761.35 2 19v24l-1 8"/><path d="m24687 863.35-4 16-7 24-3 9"/><path d="m24652 958.35-9 17-15 23-2 4"/><path d="m24595 1042.3-1 1-20 21-15 15"/><path d="m24521 1112.3-15 12-26 18"/><path d="m24436 1169.3-12 7-30 16-3 1"/><path d="m24345 1215.3-14 6-33 12"/><path d="m24249 1249.3-20 6-29 7"/><path d="m24150 1274.3-29 6-21 3"/><path d="m24049 1290.3h-3l-38 3h-9"/><path d="m23948 1296.3h-51"/><path d="m23846 1293.3-30-2-21-2"/><path d="m23745 1282.3-4-1-37-6-10-2"/><path d="m23645 1261.3-13-3-29 25"/><path d="m23564 1315.3-39 33"/><path d="m23486 1381.3-39 33"/><path d="m23408 1447.3-39 33"/><path d="m23330 1513.3-38 33"/><path d="m23253 1579.3-39 33"/><path d="m23175 1645.3-39 33"/><path d="m23097 1711.3-39 33"/><path d="m23019 1777.3-39 33"/><path d="m22941 1842.3-39 33"/><path d="m22863 1908.3-39 33"/><path d="m22785 1974.3-39 33"/><path d="m22772 1973.3 31-40"/><path d="m22835 1893.3 31-40"/><path d="m22898 1813.3 31-40"/><path d="m22961 1733.3 31-40"/><path d="m23024 1653.3 31-41"/><path d="m23087 1572.3 31-40"/><path d="m23150 1492.3 31-40"/><path d="m23213 1412.3 31-40"/><path d="m23276 1332.3 31-40"/><path d="m23339 1252.3 31-41"/></g><text x="-805.65277" y="-4112.6523" font-size="12px"><tspan font-family="Arial" font-size="494px" font-weight="400"><tspan x="23650.348" y="994.34753"><tspan fill="#000000">40</tspan></tspan></tspan></text>
<path d="m3150.3 5353.3-4 41-9 41-12 41-15 40-18 40-22 39-25 38-28 38-31 37-34 35-37 35-40 34-43 32-45 31-48 29-50 29-53 26-55 25-56 23-59 22-60 20-62 18-63 16-65 14-65 12-67 11-67 8-68 6-68 5-69 2h-69l-68-2-69-4-68-6-67-8-67-10-65-12-65-14-63-16-62-18-61-20-58-21-57-23-55-25-53-26-50-28-49-30-45-31-43-32-40-33-38-35-34-36-32-36-28-38-26-38-22-39-18-40-16-40-12-41-9-40-5-42-2-41 2-41 4-41 9-41 12-41 15-40 18-40 22-39 25-38 28-38 31-37 34-35 37-35 40-34 43-32 45-31 48-29 50-29 53-26 55-25 56-23 59-22 60-20 62-18 63-16 65-14 65-12 67-11 67-8 68-6 68-5 69-2h69l68 2 69 4 68 6 67 8 67 10 65 12 65 14 63 16 62 18 61 20 58 21 57 23 55 25 53 26 50 28 49 30 45 31 43 32 40 33 38 35 34 35 32 37 28 38 26 38 22 39 9061-549-9001 834z" fill="#c0c0c0" fill-opacity=".502" stroke="#fff" stroke-opacity=".502" stroke-width="28.222"/><g fill="none" stroke="#c0c0c0" stroke-width="28.222"><path d="m3150.3 5353.3-4 41-2 10"/><path d="m3132.3 5453.3-7 23-10 25"/><path d="m3095.3 5548.3-3 8-21 37"/><path d="m3043.3 5636.3-26 35-5 5"/><path d="m2979.3 5715.3-27 28-9 8"/><path d="m2906.3 5786.3-31 26-8 6"/><path d="m2825.3 5849.3-38 26-4 2"/><path d="m2740.3 5904.3h-1l-43 25"/><path d="m2650.3 5952.3-14 7-32 15"/><path d="m2557.3 5994.3-32 13-15 6"/><path d="m2462.3 6030.3-49 17"/><path d="m2364.3 6061.3-20 6-29 7"/><path d="m2266.3 6086.3-50 11"/><path d="m2166.3 6106.3-15 3-36 6"/><path d="m2065.3 6122.3-48 6h-3"/><path d="m1963.3 6133.3-14 1-36 3"/><path d="m1862.3 6140.3-50 1h-1"/><path d="m1760.3 6141.3h-17l-34-1"/><path d="m1658.3 6138.3-51-3"/><path d="m1556.3 6131.3-18-2-33-4"/><path d="m1455.3 6119.3-51-8"/><path d="m1354.3 6102.3-50-10"/><path d="m1255.3 6080.3-44-11-6-2"/><path d="m1156.3 6053.3-7-2-41-14"/><path d="m1060.3 6021.3-30-11-18-7"/><path d="m965.35 5983.3-47-21"/><path d="m872.35 5940.3-7-4-37-21"/><path d="m784.35 5889.3-18-11-25-17"/><path d="m700.35 5831.3-22-16-18-15"/><path d="m621.35 5767.3-21-20-15-16"/><path d="m550.35 5693.3-16-18-16-21"/><path d="m489.35 5612.3-9-13-17-31"/><path d="m441.35 5522.3-1-2-18-45"/><path d="m409.35 5426.3-6-27-3-24"/><path d="m396.35 5325.3v-9l2-41v-1"/><path d="m404.35 5223.3 7-30 6-19"/><path d="m433.35 5125.3 5-13 15-34"/><path d="m478.35 5034.3v-1l25-38 3-4"/><path d="m536.35 4951.3 26-31 8-8"/><path d="m606.35 4876.3 27-26 10-9"/><path d="m683.35 4809.3 33-25 8-5"/><path d="m766.35 4750.3 43-26h1"/><path d="m854.35 4698.3 5-3 40-20"/><path d="m945.35 4654.3 22-10 25-10"/><path d="m1040.3 4615.3 42-16 6-2"/><path d="m1136.3 4581.3 6-2 43-12"/><path d="m1234.3 4553.3 33-8 17-4"/><path d="m1334.3 4531.3 50-10"/><path d="m1434.3 4513.3 30-5 20-2"/><path d="m1535.3 4500.3 51-5"/><path d="m1637.3 4491.3 30-2 21-1"/><path d="m1739.3 4487.3h51"/><path d="m1841.3 4488.3 32 1 19 1"/><path d="m1942.3 4493.3 51 5"/><path d="m2044.3 4503.3 33 4 18 3"/><path d="m2145.3 4517.3 50 9"/><path d="m2245.3 4537.3 29 6 21 5"/><path d="m2344.3 4561.3 49 14"/><path d="m2442.3 4591.3 18 6 30 11"/><path d="m2537.3 4626.3 38 15 10 4"/><path d="m2631.3 4666.3 46 23"/><path d="m2721.3 4714.3 12 6 32 20"/><path d="m2808.3 4768.3 19 13 22 17"/><path d="m2889.3 4829.3 21 17 18 16"/><path d="m2964.3 4898.3 18 18 17 19"/><path d="m3030.3 4975.3 12 16 18 26"/><path d="m3086.3 5061.3 4 7 43-3"/><path d="m3184.3 5062.3 51-3"/><path d="m3285.3 5056.3 51-3"/><path d="m3387.3 5050.3 51-3"/><path d="m3489.3 5044.3 51-3"/><path d="m3591.3 5038.3 51-3"/><path d="m3693.3 5031.3 51-3"/><path d="m3794.3 5025.3 51-3"/><path d="m3896.3 5019.3 51-3"/><path d="m3998.3 5013.3 51-3"/><path d="m4100.3 5007.3 51-3"/><path d="m4202.3 5001.3 51-3"/><path d="m4304.3 4994.3 50-3"/><path d="m4405.3 4988.3 51-3"/><path d="m4507.3 4982.3 51-3"/><path d="m4609.3 4976.3 51-3"/><path d="m4711.3 4970.3 51-3"/><path d="m4813.3 4964.3 51-3"/><path d="m4914.3 4957.3 51-3"/><path d="m5016.3 4951.3 51-3"/><path d="m5118.3 4945.3 51-3"/><path d="m5220.3 4939.3 51-3"/><path d="m5322.3 4933.3 51-3"/><path d="m5424.3 4927.3 50-3"/><path d="m5525.3 4920.3 51-3"/><path d="m5627.3 4914.3 51-3"/><path d="m5729.3 4908.3 51-3"/><path d="m5831.3 4902.3 51-3"/><path d="m5933.3 4896.3 50-3"/><path d="m6034.3 4890.3 51-3"/><path d="m6136.3 4883.3 51-3"/><path d="m6238.3 4877.3 51-3"/><path d="m6340.3 4871.3 51-3"/><path d="m6442.3 4865.3 51-3"/><path d="m6543.3 4859.3 51-3"/><path d="m6645.3 4853.3 51-3"/><path d="m6747.3 4846.3 51-3"/><path d="m6849.3 4840.3 51-3"/><path d="m6951.3 4834.3 51-3"/><path d="m7053.3 4828.3 50-3"/><path d="m7154.3 4822.3 51-3"/><path d="m7256.3 4816.3 51-4"/><path d="m7358.3 4809.3 51-3"/><path d="m7460.3 4803.3 51-3"/><path d="m7562.3 4797.3 50-3"/><path d="m7663.3 4791.3 51-3"/><path d="m7765.3 4785.3 51-3"/><path d="m7867.3 4779.3 51-4"/><path d="m7969.3 4772.3 51-3"/><path d="m8071.3 4766.3 51-3"/><path d="m8172.3 4760.3 51-3"/><path d="m8274.3 4754.3 51-3"/><path d="m8376.3 4748.3 51-3"/><path d="m8478.3 4742.3 51-4"/><path d="m8580.3 4735.3 51-3"/><path d="m8682.3 4729.3 50-3"/><path d="m8783.3 4723.3 51-3"/><path d="m8885.3 4717.3 51-3"/><path d="m8987.3 4711.3 51-3"/><path d="m9089.3 4705.3 51-4"/><path d="m9191.3 4698.3 51-3"/><path d="m9292.3 4692.3 51-3"/><path d="m9394.3 4686.3 51-3"/><path d="m9496.3 4680.3 51-3"/><path d="m9598.3 4674.3 51-3"/><path d="m9700.3 4668.3 51-4"/><path d="m9801.3 4661.3 51-3"/><path d="m9903.3 4655.3 51-3"/><path d="m10005 4649.3 51-3"/><path d="m10107 4643.3 51-3"/><path d="m10209 4637.3 51-3"/><path d="m10311 4631.3 50-4"/><path d="m10412 4624.3 51-3"/><path d="m10514 4618.3 51-3"/><path d="m10616 4612.3 51-3"/><path d="m10718 4606.3 51-3"/><path d="m10820 4600.3 51-3"/><path d="m10921 4593.3 51-3"/><path d="m11023 4587.3 51-3"/><path d="m11125 4581.3 51-3"/><path d="m11227 4575.3 51-3"/><path d="m11329 4569.3 51-3"/><path d="m11430 4563.3 51-3"/><path d="m11532 4556.3 51-3"/><path d="m11634 4550.3 51-3"/><path d="m11736 4544.3 51-3"/><path d="m11838 4538.3 51-3"/><path d="m11940 4532.3 50-3"/><path d="m12041 4526.3 51-3"/><path d="m12143 4519.3h8l-43 4"/><path d="m12057 4528.3-51 4"/><path d="m11956 4537.3-51 5"/><path d="m11854 4547.3-51 4"/><path d="m11753 4556.3-51 5"/><path d="m11651 4565.3-51 5"/><path d="m11549 4575.3-50 4"/><path d="m11448 4584.3-51 5"/><path d="m11346 4594.3-51 4"/><path d="m11245 4603.3-51 5"/><path d="m11143 4612.3-51 5"/><path d="m11042 4622.3-51 5"/><path d="m10940 4631.3-51 5"/><path d="m10838 4641.3-50 4"/><path d="m10737 4650.3-51 5"/><path d="m10635 4659.3-50 5"/><path d="m10534 4669.3-51 5"/><path d="m10432 4678.3-51 5"/><path d="m10331 4688.3-51 4"/><path d="m10229 4697.3-51 5"/><path d="m10127 4706.3-50 5"/><path d="m10026 4716.3-51 5"/><path d="m9924.3 4725.3-50 5"/><path d="m9823.3 4735.3-51 4"/><path d="m9721.3 4744.3-51 5"/><path d="m9620.3 4754.3-51 4"/><path d="m9518.3 4763.3-51 5"/><path d="m9417.3 4772.3-51 5"/><path d="m9315.3 4782.3-51 4"/><path d="m9213.3 4791.3-50 5"/><path d="m9112.3 4801.3-51 4"/><path d="m9010.3 4810.3-51 5"/><path d="m8909.3 4819.3-51 5"/><path d="m8807.3 4829.3-51 5"/><path d="m8706.3 4838.3-51 5"/><path d="m8604.3 4848.3-51 4"/><path d="m8502.3 4857.3-50 5"/><path d="m8401.3 4866.3-51 5"/><path d="m8299.3 4876.3-50 5"/><path d="m8198.3 4885.3-51 5"/><path d="m8096.3 4895.3-51 4"/><path d="m7995.3 4904.3-51 5"/><path d="m7893.3 4914.3-51 4"/><path d="m7792.3 4923.3-51 5"/><path d="m7690.3 4932.3-51 5"/><path d="m7588.3 4942.3-50 4"/><path d="m7487.3 4951.3-51 5"/><path d="m7385.3 4961.3-51 4"/><path d="m7284.3 4970.3-51 5"/><path d="m7182.3 4979.3-51 5"/><path d="m7081.3 4989.3-51 5"/><path d="m6979.3 4998.3-51 5"/><path d="m6877.3 5008.3-50 4"/><path d="m6776.3 5017.3-51 5"/><path d="m6674.3 5026.3-50 5"/><path d="m6573.3 5036.3-51 5"/><path d="m6471.3 5045.3-51 5"/><path d="m6370.3 5055.3-51 4"/><path d="m6268.3 5064.3-51 5"/><path d="m6166.3 5074.3-50 4"/><path d="m6065.3 5083.3-51 5"/><path d="m5963.3 5092.3-50 5"/><path d="m5862.3 5102.3-51 4"/><path d="m5760.3 5111.3-51 5"/><path d="m5659.3 5121.3-51 4"/><path d="m5557.3 5130.3-51 5"/><path d="m5456.3 5139.3-51 5"/><path d="m5354.3 5149.3-51 4"/><path d="m5252.3 5158.3-50 5"/><path d="m5151.3 5168.3-51 4"/><path d="m5049.3 5177.3-51 5"/><path d="m4948.3 5186.3-51 5"/><path d="m4846.3 5196.3-51 5"/><path d="m4745.3 5205.3-51 5"/><path d="m4643.3 5215.3-51 4"/><path d="m4541.3 5224.3-50 5"/><path d="m4440.3 5233.3-51 5"/><path d="m4338.3 5243.3-50 5"/><path d="m4237.3 5252.3-51 5"/><path d="m4135.3 5262.3-51 4"/><path d="m4034.3 5271.3-51 5"/><path d="m3932.3 5281.3-51 4"/><path d="m3830.3 5290.3-50 5"/><path d="m3729.3 5299.3-51 5"/><path d="m3627.3 5309.3-50 4"/><path d="m3526.3 5318.3-51 5"/><path d="m3424.3 5328.3-51 4"/><path d="m3323.3 5337.3-51 5"/><path d="m3221.3 5346.3-51 5"/></g><text x="-805.65277" y="-4112.6523" font-size="12px"><tspan font-family="Arial" font-size="494px" font-weight="400"><tspan x="1001.3472" y="5216.3477"><tspan fill="#c0c0c0">Palette</tspan></tspan><tspan x="1181.3472" y="5808.3477"><tspan fill="#c0c0c0">colori</tspan></tspan></tspan></text>
<path d="m3050.3 5253.3-4 41-9 41-12 41-15 40-18 40-22 39-25 38-28 38-31 37-34 35-37 35-40 34-43 32-45 31-48 29-50 29-53 26-55 25-56 23-59 22-60 20-62 18-63 16-65 14-65 12-67 11-67 8-68 6-68 5-69 2h-69l-68-2-69-4-68-6-67-8-67-10-65-12-65-14-63-16-62-18-61-20-58-21-57-23-55-25-53-26-50-28-49-30-45-31-43-32-40-33-38-35-34-36-32-36-28-38-26-38-22-39-18-40-16-40-12-41-9-40-5-42-2-41 2-41 4-41 9-41 12-41 15-40 18-40 22-39 25-38 28-38 31-37 34-35 37-35 40-34 43-32 45-31 48-29 50-29 53-26 55-25 56-23 59-22 60-20 62-18 63-16 65-14 65-12 67-11 67-8 68-6 68-5 69-2h69l68 2 69 4 68 6 67 8 67 10 65 12 65 14 63 16 62 18 61 20 58 21 57 23 55 25 53 26 50 28 49 30 45 31 43 32 40 33 38 35 34 35 32 37 28 38 26 38 22 39 9061-549-9001 834z" fill="#ff0" fill-opacity=".502" stroke="#fff" stroke-opacity=".502" stroke-width="28.222"/><g fill="none" stroke="#800000" stroke-width="28.222"><path d="m3050.3 5253.3-4 41-2 10"/><path d="m3032.3 5353.3-7 23-10 25"/><path d="m2995.3 5448.3-3 8-21 37"/><path d="m2943.3 5536.3-26 35-5 5"/><path d="m2879.3 5615.3-27 28-9 8"/><path d="m2806.3 5686.3-31 26-8 6"/><path d="m2725.3 5749.3-38 26-4 2"/><path d="m2640.3 5804.3h-1l-43 25"/><path d="m2550.3 5852.3-14 7-32 15"/><path d="m2457.3 5894.3-32 13-15 6"/><path d="m2362.3 5930.3-49 17"/><path d="m2264.3 5961.3-20 6-29 7"/><path d="m2166.3 5986.3-50 11"/><path d="m2066.3 6006.3-15 3-36 6"/><path d="m1965.3 6022.3-48 6h-3"/><path d="m1863.3 6033.3-14 1-36 3"/><path d="m1762.3 6040.3-50 1h-1"/><path d="m1660.3 6041.3h-17l-34-1"/><path d="m1558.3 6038.3-51-3"/><path d="m1456.3 6031.3-18-2-33-4"/><path d="m1355.3 6019.3-51-8"/><path d="m1254.3 6002.3-50-10"/><path d="m1155.3 5980.3-44-11-6-2"/><path d="m1056.3 5953.3-7-2-41-14"/><path d="m960.35 5921.3-30-11-18-7"/><path d="m865.35 5883.3-47-21"/><path d="m772.35 5840.3-7-4-37-21"/><path d="m684.35 5789.3-18-11-25-17"/><path d="m600.35 5731.3-22-16-18-15"/><path d="m521.35 5667.3-21-20-15-16"/><path d="m450.35 5593.3-16-18-16-21"/><path d="m389.35 5512.3-9-13-17-31"/><path d="m341.35 5422.3-1-2-18-45"/><path d="m309.35 5326.3-6-27-3-24"/><path d="m296.35 5225.3v-9l2-41v-1"/><path d="m304.35 5123.3 7-30 6-19"/><path d="m333.35 5025.3 5-13 15-34"/><path d="m378.35 4934.3v-1l25-38 3-4"/><path d="m436.35 4851.3 26-31 8-8"/><path d="m506.35 4776.3 27-26 10-9"/><path d="m583.35 4709.3 33-25 8-5"/><path d="m666.35 4650.3 43-26h1"/><path d="m754.35 4598.3 5-3 40-20"/><path d="m845.35 4554.3 22-10 25-10"/><path d="m940.35 4515.3 42-16 6-2"/><path d="m1036.3 4481.3 6-2 43-12"/><path d="m1134.3 4453.3 33-8 17-4"/><path d="m1234.3 4431.3 50-10"/><path d="m1334.3 4413.3 30-5 20-2"/><path d="m1435.3 4400.3 51-5"/><path d="m1537.3 4391.3 30-2 21-1"/><path d="m1639.3 4387.3h51"/><path d="m1741.3 4388.3 32 1 19 1"/><path d="m1842.3 4393.3 51 5"/><path d="m1944.3 4403.3 33 4 18 3"/><path d="m2045.3 4417.3 50 9"/><path d="m2145.3 4437.3 29 6 21 5"/><path d="m2244.3 4461.3 49 14"/><path d="m2342.3 4491.3 18 6 30 11"/><path d="m2437.3 4526.3 38 15 10 4"/><path d="m2531.3 4566.3 46 23"/><path d="m2621.3 4614.3 12 6 32 20"/><path d="m2708.3 4668.3 19 13 22 17"/><path d="m2789.3 4729.3 21 17 18 16"/><path d="m2864.3 4798.3 18 18 17 19"/><path d="m2930.3 4875.3 12 16 18 26"/><path d="m2986.3 4961.3 4 7 43-3"/><path d="m3084.3 4962.3 51-3"/><path d="m3185.3 4956.3 51-3"/><path d="m3287.3 4950.3 51-3"/><path d="m3389.3 4944.3 51-3"/><path d="m3491.3 4938.3 51-3"/><path d="m3593.3 4931.3 51-3"/><path d="m3694.3 4925.3 51-3"/><path d="m3796.3 4919.3 51-3"/><path d="m3898.3 4913.3 51-3"/><path d="m4000.3 4907.3 51-3"/><path d="m4102.3 4901.3 51-3"/><path d="m4204.3 4894.3 50-3"/><path d="m4305.3 4888.3 51-3"/><path d="m4407.3 4882.3 51-3"/><path d="m4509.3 4876.3 51-3"/><path d="m4611.3 4870.3 51-3"/><path d="m4713.3 4864.3 51-3"/><path d="m4814.3 4857.3 51-3"/><path d="m4916.3 4851.3 51-3"/><path d="m5018.3 4845.3 51-3"/><path d="m5120.3 4839.3 51-3"/><path d="m5222.3 4833.3 51-3"/><path d="m5324.3 4827.3 50-3"/><path d="m5425.3 4820.3 51-3"/><path d="m5527.3 4814.3 51-3"/><path d="m5629.3 4808.3 51-3"/><path d="m5731.3 4802.3 51-3"/><path d="m5833.3 4796.3 50-3"/><path d="m5934.3 4790.3 51-3"/><path d="m6036.3 4783.3 51-3"/><path d="m6138.3 4777.3 51-3"/><path d="m6240.3 4771.3 51-3"/><path d="m6342.3 4765.3 51-3"/><path d="m6443.3 4759.3 51-3"/><path d="m6545.3 4753.3 51-3"/><path d="m6647.3 4746.3 51-3"/><path d="m6749.3 4740.3 51-3"/><path d="m6851.3 4734.3 51-3"/><path d="m6953.3 4728.3 50-3"/><path d="m7054.3 4722.3 51-3"/><path d="m7156.3 4716.3 51-4"/><path d="m7258.3 4709.3 51-3"/><path d="m7360.3 4703.3 51-3"/><path d="m7462.3 4697.3 50-3"/><path d="m7563.3 4691.3 51-3"/><path d="m7665.3 4685.3 51-3"/><path d="m7767.3 4679.3 51-4"/><path d="m7869.3 4672.3 51-3"/><path d="m7971.3 4666.3 51-3"/><path d="m8072.3 4660.3 51-3"/><path d="m8174.3 4654.3 51-3"/><path d="m8276.3 4648.3 51-3"/><path d="m8378.3 4642.3 51-4"/><path d="m8480.3 4635.3 51-3"/><path d="m8582.3 4629.3 50-3"/><path d="m8683.3 4623.3 51-3"/><path d="m8785.3 4617.3 51-3"/><path d="m8887.3 4611.3 51-3"/><path d="m8989.3 4605.3 51-4"/><path d="m9091.3 4598.3 51-3"/><path d="m9192.3 4592.3 51-3"/><path d="m9294.3 4586.3 51-3"/><path d="m9396.3 4580.3 51-3"/><path d="m9498.3 4574.3 51-3"/><path d="m9600.3 4568.3 51-4"/><path d="m9701.3 4561.3 51-3"/><path d="m9803.3 4555.3 51-3"/><path d="m9905.3 4549.3 51-3"/><path d="m10007 4543.3 51-3"/><path d="m10109 4537.3 51-3"/><path d="m10211 4531.3 50-4"/><path d="m10312 4524.3 51-3"/><path d="m10414 4518.3 51-3"/><path d="m10516 4512.3 51-3"/><path d="m10618 4506.3 51-3"/><path d="m10720 4500.3 51-3"/><path d="m10821 4493.3 51-3"/><path d="m10923 4487.3 51-3"/><path d="m11025 4481.3 51-3"/><path d="m11127 4475.3 51-3"/><path d="m11229 4469.3 51-3"/><path d="m11330 4463.3 51-3"/><path d="m11432 4456.3 51-3"/><path d="m11534 4450.3 51-3"/><path d="m11636 4444.3 51-3"/><path d="m11738 4438.3 51-3"/><path d="m11840 4432.3 50-3"/><path d="m11941 4426.3 51-3"/><path d="m12043 4419.3h8l-43 4"/><path d="m11957 4428.3-51 4"/><path d="m11856 4437.3-51 5"/><path d="m11754 4447.3-51 4"/><path d="m11653 4456.3-51 5"/><path d="m11551 4465.3-51 5"/><path d="m11449 4475.3-50 4"/><path d="m11348 4484.3-51 5"/><path d="m11246 4494.3-51 4"/><path d="m11145 4503.3-51 5"/><path d="m11043 4512.3-51 5"/><path d="m10942 4522.3-51 5"/><path d="m10840 4531.3-51 5"/><path d="m10738 4541.3-50 4"/><path d="m10637 4550.3-51 5"/><path d="m10535 4559.3-50 5"/><path d="m10434 4569.3-51 5"/><path d="m10332 4578.3-51 5"/><path d="m10231 4588.3-51 4"/><path d="m10129 4597.3-51 5"/><path d="m10027 4606.3-50 5"/><path d="m9926.3 4616.3-51 5"/><path d="m9824.3 4625.3-50 5"/><path d="m9723.3 4635.3-51 4"/><path d="m9621.3 4644.3-51 5"/><path d="m9520.3 4654.3-51 4"/><path d="m9418.3 4663.3-51 5"/><path d="m9317.3 4672.3-51 5"/><path d="m9215.3 4682.3-51 4"/><path d="m9113.3 4691.3-50 5"/><path d="m9012.3 4701.3-51 4"/><path d="m8910.3 4710.3-51 5"/><path d="m8809.3 4719.3-51 5"/><path d="m8707.3 4729.3-51 5"/><path d="m8606.3 4738.3-51 5"/><path d="m8504.3 4748.3-51 4"/><path d="m8402.3 4757.3-50 5"/><path d="m8301.3 4766.3-51 5"/><path d="m8199.3 4776.3-50 5"/><path d="m8098.3 4785.3-51 5"/><path d="m7996.3 4795.3-51 4"/><path d="m7895.3 4804.3-51 5"/><path d="m7793.3 4814.3-51 4"/><path d="m7692.3 4823.3-51 5"/><path d="m7590.3 4832.3-51 5"/><path d="m7488.3 4842.3-50 4"/><path d="m7387.3 4851.3-51 5"/><path d="m7285.3 4861.3-51 4"/><path d="m7184.3 4870.3-51 5"/><path d="m7082.3 4879.3-51 5"/><path d="m6981.3 4889.3-51 5"/><path d="m6879.3 4898.3-51 5"/><path d="m6777.3 4908.3-50 4"/><path d="m6676.3 4917.3-51 5"/><path d="m6574.3 4926.3-50 5"/><path d="m6473.3 4936.3-51 5"/><path d="m6371.3 4945.3-51 5"/><path d="m6270.3 4955.3-51 4"/><path d="m6168.3 4964.3-51 5"/><path d="m6066.3 4974.3-50 4"/><path d="m5965.3 4983.3-51 5"/><path d="m5863.3 4992.3-50 5"/><path d="m5762.3 5002.3-51 4"/><path d="m5660.3 5011.3-51 5"/><path d="m5559.3 5021.3-51 4"/><path d="m5457.3 5030.3-51 5"/><path d="m5356.3 5039.3-51 5"/><path d="m5254.3 5049.3-51 4"/><path d="m5152.3 5058.3-50 5"/><path d="m5051.3 5068.3-51 4"/><path d="m4949.3 5077.3-51 5"/><path d="m4848.3 5086.3-51 5"/><path d="m4746.3 5096.3-51 5"/><path d="m4645.3 5105.3-51 5"/><path d="m4543.3 5115.3-51 4"/><path d="m4441.3 5124.3-50 5"/><path d="m4340.3 5133.3-51 5"/><path d="m4238.3 5143.3-50 5"/><path d="m4137.3 5152.3-51 5"/><path d="m4035.3 5162.3-51 4"/><path d="m3934.3 5171.3-51 5"/><path d="m3832.3 5181.3-51 4"/><path d="m3730.3 5190.3-50 5"/><path d="m3629.3 5199.3-51 5"/><path d="m3527.3 5209.3-50 4"/><path d="m3426.3 5218.3-51 5"/><path d="m3324.3 5228.3-51 4"/><path d="m3223.3 5237.3-51 5"/><path d="m3121.3 5246.3-51 5"/></g><text x="-805.65277" y="-4112.6523" font-size="12px"><tspan font-family="Arial" font-size="494px" font-weight="400"><tspan x="901.34723" y="5116.3477"><tspan fill="#000000">Palette</tspan></tspan><tspan x="1081.3472" y="5708.3477"><tspan fill="#000000">colori</tspan></tspan></tspan></text>
<path d="m3150.3 8385.3-4 41-9 41-12 41-15 40-18 40-22 39-25 38-28 38-31 37-34 35-37 35-40 34-43 32-45 31-48 29-50 29-53 26-55 25-56 23-59 22-60 20-62 18-63 16-65 14-65 12-67 11-67 8-68 6-68 5-69 2h-69l-68-2-69-4-68-6-67-8-67-10-65-12-65-14-63-16-62-18-61-20-58-21-57-23-55-25-53-26-50-28-49-30-45-31-43-32-40-33-38-35-34-36-32-36-28-38-26-38-22-39-18-40-16-40-12-41-9-40-5-42-2-41 2-41 4-41 9-41 12-41 15-40 18-40 22-39 25-38 28-38 31-37 34-35 37-35 40-34 43-32 45-31 48-29 50-29 53-26 55-25 56-23 59-22 60-20 62-18 63-16 65-14 65-12 67-11 67-8 68-6 68-5 69-2h69l68 2 69 4 68 6 67 8 67 10 65 12 65 14 63 16 62 18 61 20 58 21 57 23 55 25 53 26 50 28 49 30 45 31 43 32 40 33 38 35 34 35 32 37 28 38 26 38 22 39 9061-549-9001 834z" fill="#c0c0c0" fill-opacity=".502" stroke="#fff" stroke-opacity=".502" stroke-width="28.222"/><g fill="none" stroke="#c0c0c0" stroke-width="28.222"><path d="m3150.3 8385.3-4 41-2 10"/><path d="m3132.3 8485.3-7 23-10 25"/><path d="m3095.3 8580.3-3 8-21 37"/><path d="m3043.3 8668.3-26 35-5 5"/><path d="m2979.3 8747.3-27 28-9 8"/><path d="m2906.3 8818.3-31 26-8 6"/><path d="m2825.3 8881.3-38 26-4 2"/><path d="m2740.3 8936.3h-1l-43 25"/><path d="m2650.3 8984.3-14 7-32 15"/><path d="m2557.3 9026.3-32 13-15 6"/><path d="m2462.3 9062.3-49 17"/><path d="m2364.3 9093.3-20 6-29 7"/><path d="m2266.3 9118.3-50 11"/><path d="m2166.3 9138.3-15 3-36 6"/><path d="m2065.3 9154.3-48 6h-3"/><path d="m1963.3 9165.3-14 1-36 3"/><path d="m1862.3 9172.3-50 1h-1"/><path d="m1760.3 9173.3h-17l-34-1"/><path d="m1658.3 9170.3-51-3"/><path d="m1556.3 9163.3-18-2-33-4"/><path d="m1455.3 9151.3-51-8"/><path d="m1354.3 9134.3-50-10"/><path d="m1255.3 9112.3-44-11-6-2"/><path d="m1156.3 9085.3-7-2-41-14"/><path d="m1060.3 9053.3-30-11-18-7"/><path d="m965.35 9015.3-47-21"/><path d="m872.35 8972.3-7-4-37-21"/><path d="m784.35 8921.3-18-11-25-17"/><path d="m700.35 8863.3-22-16-18-15"/><path d="m621.35 8799.3-21-20-15-16"/><path d="m550.35 8725.3-16-18-16-21"/><path d="m489.35 8644.3-9-13-17-31"/><path d="m441.35 8554.3-1-2-18-45"/><path d="m409.35 8458.3-6-27-3-24"/><path d="m396.35 8357.3v-9l2-41v-1"/><path d="m404.35 8255.3 7-30 6-19"/><path d="m433.35 8157.3 5-13 15-34"/><path d="m478.35 8066.3v-1l25-38 3-4"/><path d="m536.35 7983.3 26-31 8-8"/><path d="m606.35 7908.3 27-26 10-9"/><path d="m683.35 7841.3 33-25 8-5"/><path d="m766.35 7782.3 43-26h1"/><path d="m854.35 7730.3 5-3 40-20"/><path d="m945.35 7686.3 22-10 25-10"/><path d="m1040.3 7647.3 42-16 6-2"/><path d="m1136.3 7613.3 6-2 43-12"/><path d="m1234.3 7585.3 33-8 17-4"/><path d="m1334.3 7563.3 50-10"/><path d="m1434.3 7545.3 30-5 20-2"/><path d="m1535.3 7532.3 51-5"/><path d="m1637.3 7523.3 30-2 21-1"/><path d="m1739.3 7519.3h51"/><path d="m1841.3 7520.3 32 1 19 1"/><path d="m1942.3 7525.3 51 5"/><path d="m2044.3 7535.3 33 4 18 3"/><path d="m2145.3 7549.3 50 9"/><path d="m2245.3 7569.3 29 6 21 5"/><path d="m2344.3 7593.3 49 14"/><path d="m2442.3 7623.3 18 6 30 11"/><path d="m2537.3 7658.3 38 15 10 4"/><path d="m2631.3 7698.3 46 23"/><path d="m2721.3 7746.3 12 6 32 20"/><path d="m2808.3 7800.3 19 13 22 17"/><path d="m2889.3 7861.3 21 17 18 16"/><path d="m2964.3 7930.3 18 18 17 19"/><path d="m3030.3 8007.3 12 16 18 26"/><path d="m3086.3 8093.3 4 7 43-3"/><path d="m3184.3 8094.3 51-3"/><path d="m3285.3 8088.3 51-3"/><path d="m3387.3 8082.3 51-3"/><path d="m3489.3 8076.3 51-3"/><path d="m3591.3 8070.3 51-3"/><path d="m3693.3 8063.3 51-3"/><path d="m3794.3 8057.3 51-3"/><path d="m3896.3 8051.3 51-3"/><path d="m3998.3 8045.3 51-3"/><path d="m4100.3 8039.3 51-3"/><path d="m4202.3 8033.3 51-3"/><path d="m4304.3 8026.3 50-3"/><path d="m4405.3 8020.3 51-3"/><path d="m4507.3 8014.3 51-3"/><path d="m4609.3 8008.3 51-3"/><path d="m4711.3 8002.3 51-3"/><path d="m4813.3 7996.3 51-3"/><path d="m4914.3 7989.3 51-3"/><path d="m5016.3 7983.3 51-3"/><path d="m5118.3 7977.3 51-3"/><path d="m5220.3 7971.3 51-3"/><path d="m5322.3 7965.3 51-3"/><path d="m5424.3 7959.3 50-3"/><path d="m5525.3 7952.3 51-3"/><path d="m5627.3 7946.3 51-3"/><path d="m5729.3 7940.3 51-3"/><path d="m5831.3 7934.3 51-3"/><path d="m5933.3 7928.3 50-3"/><path d="m6034.3 7922.3 51-3"/><path d="m6136.3 7915.3 51-3"/><path d="m6238.3 7909.3 51-3"/><path d="m6340.3 7903.3 51-3"/><path d="m6442.3 7897.3 51-3"/><path d="m6543.3 7891.3 51-3"/><path d="m6645.3 7885.3 51-3"/><path d="m6747.3 7878.3 51-3"/><path d="m6849.3 7872.3 51-3"/><path d="m6951.3 7866.3 51-3"/><path d="m7053.3 7860.3 50-3"/><path d="m7154.3 7854.3 51-3"/><path d="m7256.3 7848.3 51-4"/><path d="m7358.3 7841.3 51-3"/><path d="m7460.3 7835.3 51-3"/><path d="m7562.3 7829.3 50-3"/><path d="m7663.3 7823.3 51-3"/><path d="m7765.3 7817.3 51-3"/><path d="m7867.3 7811.3 51-4"/><path d="m7969.3 7804.3 51-3"/><path d="m8071.3 7798.3 51-3"/><path d="m8172.3 7792.3 51-3"/><path d="m8274.3 7786.3 51-3"/><path d="m8376.3 7780.3 51-3"/><path d="m8478.3 7774.3 51-4"/><path d="m8580.3 7767.3 51-3"/><path d="m8682.3 7761.3 50-3"/><path d="m8783.3 7755.3 51-3"/><path d="m8885.3 7749.3 51-3"/><path d="m8987.3 7743.3 51-3"/><path d="m9089.3 7737.3 51-4"/><path d="m9191.3 7730.3 51-3"/><path d="m9292.3 7724.3 51-3"/><path d="m9394.3 7718.3 51-3"/><path d="m9496.3 7712.3 51-3"/><path d="m9598.3 7706.3 51-3"/><path d="m9700.3 7700.3 51-4"/><path d="m9801.3 7693.3 51-3"/><path d="m9903.3 7687.3 51-3"/><path d="m10005 7681.3 51-3"/><path d="m10107 7675.3 51-3"/><path d="m10209 7669.3 51-3"/><path d="m10311 7663.3 50-4"/><path d="m10412 7656.3 51-3"/><path d="m10514 7650.3 51-3"/><path d="m10616 7644.3 51-3"/><path d="m10718 7638.3 51-3"/><path d="m10820 7632.3 51-3"/><path d="m10921 7625.3 51-3"/><path d="m11023 7619.3 51-3"/><path d="m11125 7613.3 51-3"/><path d="m11227 7607.3 51-3"/><path d="m11329 7601.3 51-3"/><path d="m11430 7595.3 51-3"/><path d="m11532 7588.3 51-3"/><path d="m11634 7582.3 51-3"/><path d="m11736 7576.3 51-3"/><path d="m11838 7570.3 51-3"/><path d="m11940 7564.3 50-3"/><path d="m12041 7558.3 51-3"/><path d="m12143 7551.3h8l-43 4"/><path d="m12057 7560.3-51 4"/><path d="m11956 7569.3-51 5"/><path d="m11854 7579.3-51 4"/><path d="m11753 7588.3-51 5"/><path d="m11651 7597.3-51 5"/><path d="m11549 7607.3-50 4"/><path d="m11448 7616.3-51 5"/><path d="m11346 7626.3-51 4"/><path d="m11245 7635.3-51 5"/><path d="m11143 7644.3-51 5"/><path d="m11042 7654.3-51 5"/><path d="m10940 7663.3-51 5"/><path d="m10838 7673.3-50 4"/><path d="m10737 7682.3-51 5"/><path d="m10635 7691.3-50 5"/><path d="m10534 7701.3-51 5"/><path d="m10432 7710.3-51 5"/><path d="m10331 7720.3-51 4"/><path d="m10229 7729.3-51 5"/><path d="m10127 7738.3-50 5"/><path d="m10026 7748.3-51 5"/><path d="m9924.3 7757.3-50 5"/><path d="m9823.3 7767.3-51 4"/><path d="m9721.3 7776.3-51 5"/><path d="m9620.3 7786.3-51 4"/><path d="m9518.3 7795.3-51 5"/><path d="m9417.3 7804.3-51 5"/><path d="m9315.3 7814.3-51 4"/><path d="m9213.3 7823.3-50 5"/><path d="m9112.3 7833.3-51 4"/><path d="m9010.3 7842.3-51 5"/><path d="m8909.3 7851.3-51 5"/><path d="m8807.3 7861.3-51 5"/><path d="m8706.3 7870.3-51 5"/><path d="m8604.3 7880.3-51 4"/><path d="m8502.3 7889.3-50 5"/><path d="m8401.3 7898.3-51 5"/><path d="m8299.3 7908.3-50 5"/><path d="m8198.3 7917.3-51 5"/><path d="m8096.3 7927.3-51 4"/><path d="m7995.3 7936.3-51 5"/><path d="m7893.3 7946.3-51 4"/><path d="m7792.3 7955.3-51 5"/><path d="m7690.3 7964.3-51 5"/><path d="m7588.3 7974.3-50 4"/><path d="m7487.3 7983.3-51 5"/><path d="m7385.3 7993.3-51 4"/><path d="m7284.3 8002.3-51 5"/><path d="m7182.3 8011.3-51 5"/><path d="m7081.3 8021.3-51 5"/><path d="m6979.3 8030.3-51 5"/><path d="m6877.3 8040.3-50 4"/><path d="m6776.3 8049.3-51 5"/><path d="m6674.3 8058.3-50 5"/><path d="m6573.3 8068.3-51 5"/><path d="m6471.3 8077.3-51 5"/><path d="m6370.3 8087.3-51 4"/><path d="m6268.3 8096.3-51 5"/><path d="m6166.3 8106.3-50 4"/><path d="m6065.3 8115.3-51 5"/><path d="m5963.3 8124.3-50 5"/><path d="m5862.3 8134.3-51 4"/><path d="m5760.3 8143.3-51 5"/><path d="m5659.3 8153.3-51 4"/><path d="m5557.3 8162.3-51 5"/><path d="m5456.3 8171.3-51 5"/><path d="m5354.3 8181.3-51 4"/><path d="m5252.3 8190.3-50 5"/><path d="m5151.3 8200.3-51 4"/><path d="m5049.3 8209.3-51 5"/><path d="m4948.3 8218.3-51 5"/><path d="m4846.3 8228.3-51 5"/><path d="m4745.3 8237.3-51 5"/><path d="m4643.3 8247.3-51 4"/><path d="m4541.3 8256.3-50 5"/><path d="m4440.3 8265.3-51 5"/><path d="m4338.3 8275.3-50 5"/><path d="m4237.3 8284.3-51 5"/><path d="m4135.3 8294.3-51 4"/><path d="m4034.3 8303.3-51 5"/><path d="m3932.3 8313.3-51 4"/><path d="m3830.3 8322.3-50 5"/><path d="m3729.3 8331.3-51 5"/><path d="m3627.3 8341.3-50 4"/><path d="m3526.3 8350.3-51 5"/><path d="m3424.3 8360.3-51 4"/><path d="m3323.3 8369.3-51 5"/><path d="m3221.3 8378.3-51 5"/></g><text x="-805.65277" y="-4112.6523" font-size="12px"><tspan font-family="Arial" font-size="494px" font-weight="400"><tspan x="1194.3472" y="8248.3477"><tspan fill="#c0c0c0">Inizio</tspan></tspan><tspan x="1376.3472" y="8840.3477"><tspan fill="#c0c0c0">img</tspan></tspan></tspan></text>
<path d="m3050.3 8285.3-4 41-9 41-12 41-15 40-18 40-22 39-25 38-28 38-31 37-34 35-37 35-40 34-43 32-45 31-48 29-50 29-53 26-55 25-56 23-59 22-60 20-62 18-63 16-65 14-65 12-67 11-67 8-68 6-68 5-69 2h-69l-68-2-69-4-68-6-67-8-67-10-65-12-65-14-63-16-62-18-61-20-58-21-57-23-55-25-53-26-50-28-49-30-45-31-43-32-40-33-38-35-34-36-32-36-28-38-26-38-22-39-18-40-16-40-12-41-9-40-5-42-2-41 2-41 4-41 9-41 12-41 15-40 18-40 22-39 25-38 28-38 31-37 34-35 37-35 40-34 43-32 45-31 48-29 50-29 53-26 55-25 56-23 59-22 60-20 62-18 63-16 65-14 65-12 67-11 67-8 68-6 68-5 69-2h69l68 2 69 4 68 6 67 8 67 10 65 12 65 14 63 16 62 18 61 20 58 21 57 23 55 25 53 26 50 28 49 30 45 31 43 32 40 33 38 35 34 35 32 37 28 38 26 38 22 39 9061-549-9001 834z" fill="#ff0" fill-opacity=".502" stroke="#fff" stroke-opacity=".502" stroke-width="28.222"/><g fill="none" stroke="#800000" stroke-width="28.222"><path d="m3050.3 8285.3-4 41-2 10"/><path d="m3032.3 8385.3-7 23-10 25"/><path d="m2995.3 8480.3-3 8-21 37"/><path d="m2943.3 8568.3-26 35-5 5"/><path d="m2879.3 8647.3-27 28-9 8"/><path d="m2806.3 8718.3-31 26-8 6"/><path d="m2725.3 8781.3-38 26-4 2"/><path d="m2640.3 8836.3h-1l-43 25"/><path d="m2550.3 8884.3-14 7-32 15"/><path d="m2457.3 8926.3-32 13-15 6"/><path d="m2362.3 8962.3-49 17"/><path d="m2264.3 8993.3-20 6-29 7"/><path d="m2166.3 9018.3-50 11"/><path d="m2066.3 9038.3-15 3-36 6"/><path d="m1965.3 9054.3-48 6h-3"/><path d="m1863.3 9065.3-14 1-36 3"/><path d="m1762.3 9072.3-50 1h-1"/><path d="m1660.3 9073.3h-17l-34-1"/><path d="m1558.3 9070.3-51-3"/><path d="m1456.3 9063.3-18-2-33-4"/><path d="m1355.3 9051.3-51-8"/><path d="m1254.3 9034.3-50-10"/><path d="m1155.3 9012.3-44-11-6-2"/><path d="m1056.3 8985.3-7-2-41-14"/><path d="m960.35 8953.3-30-11-18-7"/><path d="m865.35 8915.3-47-21"/><path d="m772.35 8872.3-7-4-37-21"/><path d="m684.35 8821.3-18-11-25-17"/><path d="m600.35 8763.3-22-16-18-15"/><path d="m521.35 8699.3-21-20-15-16"/><path d="m450.35 8625.3-16-18-16-21"/><path d="m389.35 8544.3-9-13-17-31"/><path d="m341.35 8454.3-1-2-18-45"/><path d="m309.35 8358.3-6-27-3-24"/><path d="m296.35 8257.3v-9l2-41v-1"/><path d="m304.35 8155.3 7-30 6-19"/><path d="m333.35 8057.3 5-13 15-34"/><path d="m378.35 7966.3v-1l25-38 3-4"/><path d="m436.35 7883.3 26-31 8-8"/><path d="m506.35 7808.3 27-26 10-9"/><path d="m583.35 7741.3 33-25 8-5"/><path d="m666.35 7682.3 43-26h1"/><path d="m754.35 7630.3 5-3 40-20"/><path d="m845.35 7586.3 22-10 25-10"/><path d="m940.35 7547.3 42-16 6-2"/><path d="m1036.3 7513.3 6-2 43-12"/><path d="m1134.3 7485.3 33-8 17-4"/><path d="m1234.3 7463.3 50-10"/><path d="m1334.3 7445.3 30-5 20-2"/><path d="m1435.3 7432.3 51-5"/><path d="m1537.3 7423.3 30-2 21-1"/><path d="m1639.3 7419.3h51"/><path d="m1741.3 7420.3 32 1 19 1"/><path d="m1842.3 7425.3 51 5"/><path d="m1944.3 7435.3 33 4 18 3"/><path d="m2045.3 7449.3 50 9"/><path d="m2145.3 7469.3 29 6 21 5"/><path d="m2244.3 7493.3 49 14"/><path d="m2342.3 7523.3 18 6 30 11"/><path d="m2437.3 7558.3 38 15 10 4"/><path d="m2531.3 7598.3 46 23"/><path d="m2621.3 7646.3 12 6 32 20"/><path d="m2708.3 7700.3 19 13 22 17"/><path d="m2789.3 7761.3 21 17 18 16"/><path d="m2864.3 7830.3 18 18 17 19"/><path d="m2930.3 7907.3 12 16 18 26"/><path d="m2986.3 7993.3 4 7 43-3"/><path d="m3084.3 7994.3 51-3"/><path d="m3185.3 7988.3 51-3"/><path d="m3287.3 7982.3 51-3"/><path d="m3389.3 7976.3 51-3"/><path d="m3491.3 7970.3 51-3"/><path d="m3593.3 7963.3 51-3"/><path d="m3694.3 7957.3 51-3"/><path d="m3796.3 7951.3 51-3"/><path d="m3898.3 7945.3 51-3"/><path d="m4000.3 7939.3 51-3"/><path d="m4102.3 7933.3 51-3"/><path d="m4204.3 7926.3 50-3"/><path d="m4305.3 7920.3 51-3"/><path d="m4407.3 7914.3 51-3"/><path d="m4509.3 7908.3 51-3"/><path d="m4611.3 7902.3 51-3"/><path d="m4713.3 7896.3 51-3"/><path d="m4814.3 7889.3 51-3"/><path d="m4916.3 7883.3 51-3"/><path d="m5018.3 7877.3 51-3"/><path d="m5120.3 7871.3 51-3"/><path d="m5222.3 7865.3 51-3"/><path d="m5324.3 7859.3 50-3"/><path d="m5425.3 7852.3 51-3"/><path d="m5527.3 7846.3 51-3"/><path d="m5629.3 7840.3 51-3"/><path d="m5731.3 7834.3 51-3"/><path d="m5833.3 7828.3 50-3"/><path d="m5934.3 7822.3 51-3"/><path d="m6036.3 7815.3 51-3"/><path d="m6138.3 7809.3 51-3"/><path d="m6240.3 7803.3 51-3"/><path d="m6342.3 7797.3 51-3"/><path d="m6443.3 7791.3 51-3"/><path d="m6545.3 7785.3 51-3"/><path d="m6647.3 7778.3 51-3"/><path d="m6749.3 7772.3 51-3"/><path d="m6851.3 7766.3 51-3"/><path d="m6953.3 7760.3 50-3"/><path d="m7054.3 7754.3 51-3"/><path d="m7156.3 7748.3 51-4"/><path d="m7258.3 7741.3 51-3"/><path d="m7360.3 7735.3 51-3"/><path d="m7462.3 7729.3 50-3"/><path d="m7563.3 7723.3 51-3"/><path d="m7665.3 7717.3 51-3"/><path d="m7767.3 7711.3 51-4"/><path d="m7869.3 7704.3 51-3"/><path d="m7971.3 7698.3 51-3"/><path d="m8072.3 7692.3 51-3"/><path d="m8174.3 7686.3 51-3"/><path d="m8276.3 7680.3 51-3"/><path d="m8378.3 7674.3 51-4"/><path d="m8480.3 7667.3 51-3"/><path d="m8582.3 7661.3 50-3"/><path d="m8683.3 7655.3 51-3"/><path d="m8785.3 7649.3 51-3"/><path d="m8887.3 7643.3 51-3"/><path d="m8989.3 7637.3 51-4"/><path d="m9091.3 7630.3 51-3"/><path d="m9192.3 7624.3 51-3"/><path d="m9294.3 7618.3 51-3"/><path d="m9396.3 7612.3 51-3"/><path d="m9498.3 7606.3 51-3"/><path d="m9600.3 7600.3 51-4"/><path d="m9701.3 7593.3 51-3"/><path d="m9803.3 7587.3 51-3"/><path d="m9905.3 7581.3 51-3"/><path d="m10007 7575.3 51-3"/><path d="m10109 7569.3 51-3"/><path d="m10211 7563.3 50-4"/><path d="m10312 7556.3 51-3"/><path d="m10414 7550.3 51-3"/><path d="m10516 7544.3 51-3"/><path d="m10618 7538.3 51-3"/><path d="m10720 7532.3 51-3"/><path d="m10821 7525.3 51-3"/><path d="m10923 7519.3 51-3"/><path d="m11025 7513.3 51-3"/><path d="m11127 7507.3 51-3"/><path d="m11229 7501.3 51-3"/><path d="m11330 7495.3 51-3"/><path d="m11432 7488.3 51-3"/><path d="m11534 7482.3 51-3"/><path d="m11636 7476.3 51-3"/><path d="m11738 7470.3 51-3"/><path d="m11840 7464.3 50-3"/><path d="m11941 7458.3 51-3"/><path d="m12043 7451.3h8l-43 4"/><path d="m11957 7460.3-51 4"/><path d="m11856 7469.3-51 5"/><path d="m11754 7479.3-51 4"/><path d="m11653 7488.3-51 5"/><path d="m11551 7497.3-51 5"/><path d="m11449 7507.3-50 4"/><path d="m11348 7516.3-51 5"/><path d="m11246 7526.3-51 4"/><path d="m11145 7535.3-51 5"/><path d="m11043 7544.3-51 5"/><path d="m10942 7554.3-51 5"/><path d="m10840 7563.3-51 5"/><path d="m10738 7573.3-50 4"/><path d="m10637 7582.3-51 5"/><path d="m10535 7591.3-50 5"/><path d="m10434 7601.3-51 5"/><path d="m10332 7610.3-51 5"/><path d="m10231 7620.3-51 4"/><path d="m10129 7629.3-51 5"/><path d="m10027 7638.3-50 5"/><path d="m9926.3 7648.3-51 5"/><path d="m9824.3 7657.3-50 5"/><path d="m9723.3 7667.3-51 4"/><path d="m9621.3 7676.3-51 5"/><path d="m9520.3 7686.3-51 4"/><path d="m9418.3 7695.3-51 5"/><path d="m9317.3 7704.3-51 5"/><path d="m9215.3 7714.3-51 4"/><path d="m9113.3 7723.3-50 5"/><path d="m9012.3 7733.3-51 4"/><path d="m8910.3 7742.3-51 5"/><path d="m8809.3 7751.3-51 5"/><path d="m8707.3 7761.3-51 5"/><path d="m8606.3 7770.3-51 5"/><path d="m8504.3 7780.3-51 4"/><path d="m8402.3 7789.3-50 5"/><path d="m8301.3 7798.3-51 5"/><path d="m8199.3 7808.3-50 5"/><path d="m8098.3 7817.3-51 5"/><path d="m7996.3 7827.3-51 4"/><path d="m7895.3 7836.3-51 5"/><path d="m7793.3 7846.3-51 4"/><path d="m7692.3 7855.3-51 5"/><path d="m7590.3 7864.3-51 5"/><path d="m7488.3 7874.3-50 4"/><path d="m7387.3 7883.3-51 5"/><path d="m7285.3 7893.3-51 4"/><path d="m7184.3 7902.3-51 5"/><path d="m7082.3 7911.3-51 5"/><path d="m6981.3 7921.3-51 5"/><path d="m6879.3 7930.3-51 5"/><path d="m6777.3 7940.3-50 4"/><path d="m6676.3 7949.3-51 5"/><path d="m6574.3 7958.3-50 5"/><path d="m6473.3 7968.3-51 5"/><path d="m6371.3 7977.3-51 5"/><path d="m6270.3 7987.3-51 4"/><path d="m6168.3 7996.3-51 5"/><path d="m6066.3 8006.3-50 4"/><path d="m5965.3 8015.3-51 5"/><path d="m5863.3 8024.3-50 5"/><path d="m5762.3 8034.3-51 4"/><path d="m5660.3 8043.3-51 5"/><path d="m5559.3 8053.3-51 4"/><path d="m5457.3 8062.3-51 5"/><path d="m5356.3 8071.3-51 5"/><path d="m5254.3 8081.3-51 4"/><path d="m5152.3 8090.3-50 5"/><path d="m5051.3 8100.3-51 4"/><path d="m4949.3 8109.3-51 5"/><path d="m4848.3 8118.3-51 5"/><path d="m4746.3 8128.3-51 5"/><path d="m4645.3 8137.3-51 5"/><path d="m4543.3 8147.3-51 4"/><path d="m4441.3 8156.3-50 5"/><path d="m4340.3 8165.3-51 5"/><path d="m4238.3 8175.3-50 5"/><path d="m4137.3 8184.3-51 5"/><path d="m4035.3 8194.3-51 4"/><path d="m3934.3 8203.3-51 5"/><path d="m3832.3 8213.3-51 4"/><path d="m3730.3 8222.3-50 5"/><path d="m3629.3 8231.3-51 5"/><path d="m3527.3 8241.3-50 4"/><path d="m3426.3 8250.3-51 5"/><path d="m3324.3 8260.3-51 4"/><path d="m3223.3 8269.3-51 5"/><path d="m3121.3 8278.3-51 5"/></g><text x="-805.65277" y="-4112.6523" font-size="12px"><tspan font-family="Arial" font-size="494px" font-weight="400"><tspan x="1094.3472" y="8148.3477"><tspan fill="#000000">Inizio</tspan></tspan><tspan x="1276.3472" y="8740.3477"><tspan fill="#000000">img</tspan></tspan></tspan></text><g fill="#808080" fill-opacity=".251" stroke="#fff" stroke-opacity=".251" stroke-width="28.222">
<path d="m14547 4887.3c-395 0-731-21-1073-68-343-46-589-104-786-184-198-81-288-160-288-252 0-93 90-172 288-253 197-80 443-138 786-184 342-47 678-68 1073-68s731 21 1074 68c342 46 588 104 785 184 198 81 288 160 288 253 0 92-90 171-288 252-197 80-443 138-785 184-343 47-679 68-1074 68z"/><path d="m18841 4888.3c-395 0-731-21-1073-68-343-46-589-104-786-184-198-81-288-160-288-252 0-93 90-172 288-253 197-80 443-138 786-184 342-47 678-68 1073-68s731 21 1074 68c342 46 588 104 785 184 198 81 288 160 288 253 0 92-90 171-288 252-197 80-443 138-785 184-343 47-679 68-1074 68z"/><path d="m18841 6146.3c-395 0-731-21-1073-68-343-46-589-104-786-184-198-81-288-160-288-252 0-93 90-172 288-253 197-80 443-138 786-184 342-47 678-68 1073-68s731 21 1074 68c342 46 588 104 785 184 198 81 288 160 288 253 0 92-90 171-288 252-197 80-443 138-785 184-343 47-679 68-1074 68z"/></g><text x="8688.8447" y="15116.661" font-family="sans-serif" font-size="533.33px" letter-spacing="0" word-spacing="0" xml:space="preserve"><tspan x="8688.8447" y="15116.661" fill="#008000" font-style="italic">✶ Little endian: prima byte meno significativi</tspan></text></svg>
