<?xml version="1.0" encoding="UTF-8"?>
<!DOCTYPE svg PUBLIC "-//W3C//DTD SVG 1.1//EN" "http://www.w3.org/Graphics/SVG/1.1/DTD/svg11.dtd">
<svg version="1.1" id="Ebene_1" xmlns="http://www.w3.org/2000/svg" xmlns:xlink="http://www.w3.org/1999/xlink" x="0" y="0" width="210" height="123" viewBox="0 0 210 123"><title>Digitalsignal (wertkontinuirlich und zeitdiskret)</title><g><polyline points="22.381,21.009 25.134,15.502 27.887,21.009"/><rect x="24.579" y="20.128" width="1.106" height="97.725"/><path d="M189.838,95.853l3.918,2.253l-3.918,2.253 M5,97.577h185.788v1.058H5V97.577z"/><path fill="none" stroke="#C1272D" stroke-width="0.6899" stroke-linejoin="round" stroke-miterlimit="10" stroke-dasharray="2.7598,2.0698" d="M25.021,66.057c1.433-2.754,3.635-11.896,9.144-17.182c5.507-5.287,15.197-14.209,23.899-14.319c8.701-0.109,17.843,11.676,28.197,13.658c10.351,1.981,24.45-4.295,33.479-1.872c9.033,2.423,14.76,9.801,20.927,16.52c6.059,6.829,10.795,19.825,15.749,24.231c5.067,4.406,10.574,5.838,14.761,1.873c4.072-4.076,8.258-21.698,9.801-26.104"/><path fill="#009245" d="M23.149,66.717c0-1.101,0.773-1.872,1.872-1.872c0.994,0,1.763,0.771,1.763,1.872c0,0.991-0.769,1.763-1.763,1.763C23.923,68.479,23.149,67.708,23.149,66.717 M25.685,66.717v31.389h-1.432V66.717H25.685z"/><path fill="#009245" d="M33.833,47.442c0-1.101,0.772-1.871,1.874-1.871c0.991,0,1.762,0.771,1.762,1.871c0,0.992-0.771,1.764-1.762,1.764C34.605,49.206,33.833,48.435,33.833,47.442 M36.367,47.442v50.225h-1.432V47.442H36.367z"/><path fill="#009245" d="M45.066,38.301c0-0.991,0.773-1.763,1.875-1.763c0.99,0,1.761,0.771,1.761,1.763s-0.771,1.873-1.761,1.873C45.84,40.174,45.066,39.401,45.066,38.301 M47.603,38.301l0.219,59.366h-1.431l-0.223-59.366H47.603z"/><path fill="#009245" d="M55.531,34.446c0-0.991,0.771-1.873,1.763-1.873c1.102,0,1.872,0.882,1.872,1.873c0,0.99-0.771,1.762-1.872,1.871C56.303,36.317,55.531,35.437,55.531,34.446 M58.064,34.446l0.11,63.99h-1.432l-0.11-63.99H58.064z"/><path fill="#009245" d="M67.536,40.504c0-0.991,0.881-1.873,1.873-1.873c0.99,0,1.762,0.882,1.762,1.873s-0.771,1.872-1.762,1.872C68.417,42.376,67.536,41.495,67.536,40.504 M70.07,40.504v57.163h-1.324V40.504H70.07z"/><path fill="#009245" d="M78.55,47.442c0-1.101,0.882-1.871,1.873-1.871s1.762,0.771,1.762,1.871c0,0.992-0.771,1.764-1.762,1.764S78.55,48.435,78.55,47.442 M81.084,47.442v50.663h-1.322V47.442H81.084z"/><path fill="#009245" d="M88.573,48.214c0-0.991,0.77-1.872,1.764-1.872c1.099,0,1.872,0.881,1.872,1.872c0,0.992-0.773,1.873-1.872,1.873C89.343,50.087,88.573,49.206,88.573,48.214 M91.105,48.214v49.892h-1.432V48.214H91.105z"/><path fill="#009245" d="M99.696,48.214c0-0.991,0.771-1.872,1.874-1.872c0.99,0,1.761,0.881,1.761,1.872c0,0.992-0.771,1.873-1.872,1.873C100.468,49.977,99.696,49.206,99.696,48.214 M102.229,48.214l-0.108,50.223h-1.434l0.11-50.223H102.229z"/><path fill="#009245" d="M110.93,46.011c0-0.99,0.772-1.873,1.874-1.873c0.99,0,1.761,0.883,1.761,1.873c0,0.991-0.771,1.873-1.761,1.873C111.702,47.884,110.93,47.002,110.93,46.011 M113.466,46.011v51.875h-1.435V46.011H113.466z"/><path fill="#009245" d="M121.614,47.112c0-0.991,0.771-1.762,1.762-1.762c1.103,0,1.874,0.771,1.874,1.762c0,1.102-0.771,1.871-1.874,1.871C122.386,48.983,121.614,48.214,121.614,47.112 M124.148,47.112v51.213h-1.432V47.112H124.148z"/><path fill="#009245" d="M132.407,56.693c0-0.991,0.771-1.872,1.762-1.872c1.103,0,1.873,0.881,1.873,1.872s-0.771,1.873-1.873,1.873C133.179,58.566,132.407,57.685,132.407,56.693 M134.94,56.693v41.192h-1.431V56.693H134.94z"/><path fill="#009245" d="M143.863,70.239c0-0.988,0.771-1.869,1.872-1.869c0.991,0,1.763,0.881,1.763,1.869c0,0.994-0.771,1.873-1.763,1.873C144.634,72.112,143.863,71.233,143.863,70.239 M146.396,70.239v28.086h-1.434V70.239H146.396z"/><path fill="#009245" d="M154.987,86.982c0-0.991,0.77-1.872,1.872-1.872c0.989,0,1.762,0.881,1.762,1.872s-0.772,1.872-1.762,1.872C155.757,88.854,154.987,87.974,154.987,86.982 M157.52,86.982v11.674h-1.432V86.982H157.52z"/><path fill="#009245" d="M165.339,90.287c0-0.991,0.771-1.873,1.762-1.873c1.102,0,1.874,0.882,1.874,1.873s-0.772,1.872-1.874,1.872C166.11,92.159,165.339,91.278,165.339,90.287 M167.873,90.287v7.818h-1.433v-7.818H167.873z"/><path d="M25.328,8.102l1.014-1.286c0.108-0.141,0.197-0.277,0.265-0.409c0.068-0.133,0.102-0.269,0.102-0.409c0-0.119-0.044-0.219-0.133-0.297c-0.088-0.078-0.226-0.135-0.413-0.171V5.147h2.549v0.382c-0.197,0.058-0.398,0.169-0.604,0.335s-0.456,0.434-0.753,0.803l-1.613,1.98l1.777,2.393c0.255,0.344,0.483,0.605,0.686,0.787c0.203,0.182,0.405,0.313,0.608,0.391v0.381h-3.134v-0.381c0.432-0.053,0.647-0.213,0.647-0.484c0-0.108-0.019-0.213-0.055-0.311c-0.036-0.1-0.104-0.214-0.202-0.344l-1.131-1.574l-1.2,1.559c-0.089,0.114-0.157,0.22-0.207,0.316c-0.049,0.096-0.073,0.203-0.073,0.322c0,0.141,0.048,0.256,0.144,0.348c0.097,0.09,0.248,0.146,0.456,0.168v0.381h-2.604v-0.381c0.172-0.063,0.326-0.141,0.464-0.234s0.278-0.215,0.421-0.362c0.144-0.148,0.331-0.365,0.565-0.651l1.621-2.011l-1.66-2.276c-0.229-0.312-0.41-0.537-0.545-0.678c-0.136-0.141-0.261-0.247-0.375-0.32c-0.114-0.072-0.229-0.124-0.343-0.155V5.147h3.056v0.382c-0.411,0.063-0.616,0.224-0.616,0.483c0,0.119,0.027,0.238,0.082,0.358s0.139,0.252,0.254,0.397L25.328,8.102z"/><path d="M205,101.894h-3.071v-0.382c0.203-0.063,0.348-0.117,0.437-0.164c0.088-0.047,0.162-0.111,0.223-0.194c0.06-0.083,0.106-0.212,0.14-0.386c0.034-0.174,0.051-0.438,0.051-0.791v-2.042c0-0.364-0.01-0.694-0.031-0.99c-0.021-0.297-0.056-0.539-0.104-0.729c-0.05-0.189-0.109-0.338-0.18-0.445c-0.07-0.105-0.154-0.197-0.249-0.272c-0.097-0.075-0.207-0.135-0.332-0.179c-0.125-0.045-0.288-0.066-0.491-0.066s-0.395,0.04-0.576,0.121c-0.183,0.08-0.382,0.219-0.601,0.416c-0.219,0.198-0.376,0.393-0.476,0.585c-0.099,0.192-0.147,0.413-0.147,0.663v2.907c0,0.447,0.021,0.757,0.062,0.932c0.042,0.174,0.121,0.307,0.237,0.396c0.117,0.092,0.309,0.171,0.573,0.238v0.382h-3.055v-0.382c0.202-0.063,0.347-0.117,0.433-0.164s0.158-0.111,0.219-0.194c0.059-0.083,0.105-0.21,0.139-0.382c0.034-0.171,0.051-0.439,0.051-0.803V96.57c0-0.333-0.005-0.601-0.016-0.804c-0.01-0.202-0.047-0.364-0.109-0.486c-0.061-0.122-0.156-0.213-0.283-0.273c-0.128-0.06-0.309-0.11-0.542-0.151v-0.413l1.824-0.07h0.476l-0.086,1.271l0.108,0.031c0.385-0.39,0.695-0.668,0.932-0.834c0.236-0.167,0.477-0.295,0.717-0.386c0.242-0.092,0.498-0.137,0.769-0.137c0.28,0,0.531,0.032,0.752,0.098c0.221,0.064,0.416,0.165,0.585,0.3c0.168,0.136,0.308,0.303,0.417,0.503s0.19,0.44,0.245,0.721c0.055,0.281,0.082,0.637,0.082,1.068v2.938c0,0.358,0.01,0.618,0.031,0.779c0.021,0.161,0.057,0.286,0.108,0.374c0.053,0.088,0.128,0.162,0.227,0.222c0.099,0.061,0.27,0.124,0.515,0.191V101.894z"/></g></svg>