<?xml version="1.0" encoding="UTF-8" standalone="no"?>
<!DOCTYPE svg PUBLIC "-//W3C//DTD SVG 1.0//EN" "http://www.w3.org/TR/2001/PR-SVG-20010719/DTD/svg10.dtd">
<svg width="35cm" height="18cm" viewBox="159 83 682 358" xmlns="http://www.w3.org/2000/svg" xmlns:xlink="http://www.w3.org/1999/xlink">
  <defs/>
  <g id="Background">
    <rect style="fill: #ffff00; fill-opacity: 1; stroke-opacity: 1; stroke-width: 2; stroke-linejoin: round; stroke: #000000" x="160" y="200" width="40" height="40" rx="4" ry="4"/>
    <rect style="fill: #ffff00; fill-opacity: 1; stroke-opacity: 1; stroke-width: 2; stroke-linejoin: round; stroke: #000000" x="200" y="200" width="40" height="40" rx="4" ry="4"/>
    <rect style="fill: #ffff00; fill-opacity: 1; stroke-opacity: 1; stroke-width: 2; stroke-linejoin: round; stroke: #000000" x="240" y="200" width="40" height="40" rx="4" ry="4"/>
    <rect style="fill: #ffff00; fill-opacity: 1; stroke-opacity: 1; stroke-width: 2; stroke-linejoin: round; stroke: #000000" x="520" y="200" width="40" height="40" rx="4" ry="4"/>
    <text font-size="22.5778" style="fill: #000000; fill-opacity: 1; stroke: none;text-anchor:middle;font-family:sans-serif;font-style:normal;font-weight:normal" x="180" y="228.75">
      <tspan x="180" y="228.75">1</tspan>
    </text>
    <text font-size="22.5778" style="fill: #000000; fill-opacity: 1; stroke: none;text-anchor:middle;font-family:sans-serif;font-style:normal;font-weight:normal" x="220" y="228.75">
      <tspan x="220" y="228.75">1</tspan>
    </text>
    <text font-size="22.5778" style="fill: #000000; fill-opacity: 1; stroke: none;text-anchor:middle;font-family:sans-serif;font-style:normal;font-weight:normal" x="260" y="228.75">
      <tspan x="260" y="228.75">0</tspan>
    </text>
    <text font-size="22.5778" style="fill: #000000; fill-opacity: 1; stroke: none;text-anchor:middle;font-family:sans-serif;font-style:normal;font-weight:normal" x="540" y="228.75">
      <tspan x="540" y="228.75">1</tspan>
    </text>
    <rect style="fill: #90ee90; fill-opacity: 1; stroke-opacity: 1; stroke-width: 2; stroke-linejoin: round; stroke: #000000" x="400" y="200" width="40" height="40" rx="4" ry="4"/>
    <rect style="fill: #90ee90; fill-opacity: 1; stroke-opacity: 1; stroke-width: 2; stroke-linejoin: round; stroke: #000000" x="440" y="200" width="40" height="40" rx="4" ry="4"/>
    <rect style="fill: #90ee90; fill-opacity: 1; stroke-opacity: 1; stroke-width: 2; stroke-linejoin: round; stroke: #000000" x="600" y="200" width="40" height="40" rx="4" ry="4"/>
    <rect style="fill: #90ee90; fill-opacity: 1; stroke-opacity: 1; stroke-width: 2; stroke-linejoin: round; stroke: #000000" x="640" y="200" width="40" height="40" rx="4" ry="4"/>
    <text font-size="22.5778" style="fill: #000000; fill-opacity: 1; stroke: none;text-anchor:middle;font-family:sans-serif;font-style:normal;font-weight:normal" x="420" y="228.75">
      <tspan x="420" y="228.75">1</tspan>
    </text>
    <text font-size="22.5778" style="fill: #000000; fill-opacity: 1; stroke: none;text-anchor:middle;font-family:sans-serif;font-style:normal;font-weight:normal" x="460" y="228.75">
      <tspan x="460" y="228.75">1</tspan>
    </text>
    <text font-size="22.5778" style="fill: #000000; fill-opacity: 1; stroke: none;text-anchor:middle;font-family:sans-serif;font-style:normal;font-weight:normal" x="620" y="228.75">
      <tspan x="620" y="228.75">1</tspan>
    </text>
    <text font-size="22.5778" style="fill: #000000; fill-opacity: 1; stroke: none;text-anchor:middle;font-family:sans-serif;font-style:normal;font-weight:normal" x="660" y="228.75">
      <tspan x="660" y="228.75">0</tspan>
    </text>
    <rect style="fill: #add8e6; fill-opacity: 1; stroke-opacity: 1; stroke-width: 2; stroke-linejoin: round; stroke: #000000" x="280" y="200" width="40" height="40" rx="4" ry="4"/>
    <rect style="fill: #add8e6; fill-opacity: 1; stroke-opacity: 1; stroke-width: 2; stroke-linejoin: round; stroke: #000000" x="320" y="200" width="40" height="40" rx="4" ry="4"/>
    <rect style="fill: #add8e6; fill-opacity: 1; stroke-opacity: 1; stroke-width: 2; stroke-linejoin: round; stroke: #000000" x="360" y="200" width="40" height="40" rx="4" ry="4"/>
    <text font-size="22.5778" style="fill: #000000; fill-opacity: 1; stroke: none;text-anchor:middle;font-family:sans-serif;font-style:normal;font-weight:normal" x="300" y="228.75">
      <tspan x="300" y="228.75">0</tspan>
    </text>
    <text font-size="22.5778" style="fill: #000000; fill-opacity: 1; stroke: none;text-anchor:middle;font-family:sans-serif;font-style:normal;font-weight:normal" x="340" y="228.75">
      <tspan x="340" y="228.75">0</tspan>
    </text>
    <text font-size="22.5778" style="fill: #000000; fill-opacity: 1; stroke: none;text-anchor:middle;font-family:sans-serif;font-style:normal;font-weight:normal" x="380" y="228.75">
      <tspan x="380" y="228.75">0</tspan>
    </text>
    <rect style="fill: #ffff00; fill-opacity: 1; stroke-opacity: 1; stroke-width: 2; stroke-linejoin: round; stroke: #000000" x="560" y="200" width="40" height="40" rx="4" ry="4"/>
    <text font-size="22.5778" style="fill: #000000; fill-opacity: 1; stroke: none;text-anchor:middle;font-family:sans-serif;font-style:normal;font-weight:normal" x="580" y="228.75">
      <tspan x="580" y="228.75">0</tspan>
    </text>
    <rect style="fill: #90ee90; fill-opacity: 1; stroke-opacity: 1; stroke-width: 2; stroke-linejoin: round; stroke: #000000" x="680" y="200" width="40" height="40" rx="4" ry="4"/>
    <rect style="fill: #90ee90; fill-opacity: 1; stroke-opacity: 1; stroke-width: 2; stroke-linejoin: round; stroke: #000000" x="720" y="200" width="40" height="40" rx="4" ry="4"/>
    <text font-size="22.5778" style="fill: #000000; fill-opacity: 1; stroke: none;text-anchor:middle;font-family:sans-serif;font-style:normal;font-weight:normal" x="700" y="228.75">
      <tspan x="700" y="228.75">1</tspan>
    </text>
    <text font-size="22.5778" style="fill: #000000; fill-opacity: 1; stroke: none;text-anchor:middle;font-family:sans-serif;font-style:normal;font-weight:normal" x="740" y="228.75">
      <tspan x="740" y="228.75">0</tspan>
    </text>
    <rect style="fill: #90ee90; fill-opacity: 1; stroke-opacity: 1; stroke-width: 2; stroke-linejoin: round; stroke: #000000" x="760" y="200" width="40" height="40" rx="4" ry="4"/>
    <text font-size="22.5778" style="fill: #000000; fill-opacity: 1; stroke: none;text-anchor:middle;font-family:sans-serif;font-style:normal;font-weight:normal" x="780" y="228.75">
      <tspan x="780" y="228.75">0</tspan>
    </text>
    <rect style="fill: #90ee90; fill-opacity: 1; stroke-opacity: 1; stroke-width: 2; stroke-linejoin: round; stroke: #000000" x="800" y="200" width="40" height="40" rx="4" ry="4"/>
    <text font-size="22.5778" style="fill: #000000; fill-opacity: 1; stroke: none;text-anchor:middle;font-family:sans-serif;font-style:normal;font-weight:normal" x="820" y="228.75">
      <tspan x="820" y="228.75">1</tspan>
    </text>
    <rect style="fill: #90ee90; fill-opacity: 1; stroke-opacity: 1; stroke-width: 2; stroke-linejoin: round; stroke: #000000" x="581.4" y="84" width="40" height="40" rx="4" ry="4"/>
    <text font-size="22.5778" style="fill: #000000; fill-opacity: 1; stroke: none;text-anchor:middle;font-family:sans-serif;font-style:normal;font-weight:normal" x="601.4" y="112.75">
      <tspan x="601.4" y="112.75">0</tspan>
    </text>
    <rect style="fill: #90ee90; fill-opacity: 1; stroke-opacity: 1; stroke-width: 2; stroke-linejoin: round; stroke: #000000" x="621.4" y="84" width="40" height="40" rx="4" ry="4"/>
    <rect style="fill: #90ee90; fill-opacity: 1; stroke-opacity: 1; stroke-width: 2; stroke-linejoin: round; stroke: #000000" x="661.4" y="84" width="40" height="40" rx="4" ry="4"/>
    <text font-size="22.5778" style="fill: #000000; fill-opacity: 1; stroke: none;text-anchor:middle;font-family:sans-serif;font-style:normal;font-weight:normal" x="641.4" y="112.75">
      <tspan x="641.4" y="112.75">1</tspan>
    </text>
    <text font-size="22.5778" style="fill: #000000; fill-opacity: 1; stroke: none;text-anchor:middle;font-family:sans-serif;font-style:normal;font-weight:normal" x="681.4" y="112.75">
      <tspan x="681.4" y="112.75">0</tspan>
    </text>
    <rect style="fill: #90ee90; fill-opacity: 1; stroke-opacity: 1; stroke-width: 2; stroke-linejoin: round; stroke: #000000" x="701.4" y="84" width="40" height="40" rx="4" ry="4"/>
    <text font-size="22.5778" style="fill: #000000; fill-opacity: 1; stroke: none;text-anchor:middle;font-family:sans-serif;font-style:normal;font-weight:normal" x="721.4" y="112.75">
      <tspan x="721.4" y="112.75">0</tspan>
    </text>
    <rect style="fill: #90ee90; fill-opacity: 1; stroke-opacity: 1; stroke-width: 2; stroke-linejoin: round; stroke: #000000" x="741.4" y="84" width="40" height="40" rx="4" ry="4"/>
    <text font-size="22.5778" style="fill: #000000; fill-opacity: 1; stroke: none;text-anchor:middle;font-family:sans-serif;font-style:normal;font-weight:normal" x="761.4" y="112.75">
      <tspan x="761.4" y="112.75">1</tspan>
    </text>
    <rect style="fill: #90ee90; fill-opacity: 1; stroke-opacity: 1; stroke-width: 2; stroke-linejoin: round; stroke: #000000" x="461.4" y="84" width="40" height="40" rx="4" ry="4"/>
    <rect style="fill: #90ee90; fill-opacity: 1; stroke-opacity: 1; stroke-width: 2; stroke-linejoin: round; stroke: #000000" x="501.4" y="84" width="40" height="40" rx="4" ry="4"/>
    <text font-size="22.5778" style="fill: #000000; fill-opacity: 1; stroke: none;text-anchor:middle;font-family:sans-serif;font-style:normal;font-weight:normal" x="481.4" y="112.75">
      <tspan x="481.4" y="112.75">1</tspan>
    </text>
    <text font-size="22.5778" style="fill: #000000; fill-opacity: 1; stroke: none;text-anchor:middle;font-family:sans-serif;font-style:normal;font-weight:normal" x="521.4" y="112.75">
      <tspan x="521.4" y="112.75">1</tspan>
    </text>
    <text font-size="22.5778" style="fill: #000000; fill-opacity: 1; stroke: none;text-anchor:end;font-family:sans-serif;font-style:normal;font-weight:normal" x="440" y="108.75">
      <tspan x="440" y="108.75">é : E9 =</tspan>
    </text>
    <g>
      <path style="fill: none; stroke-opacity: 1; stroke-width: 2; stroke: #000000" d="M 481.4 124 C 481.4,144 420,180 420,190.264"/>
      <polygon style="fill: #000000; fill-opacity: 1; stroke-opacity: 1; stroke-width: 2; stroke: #000000" fill-rule="evenodd" points="420,197.764 415,187.764 420,190.264 425,187.764 "/>
    </g>
    <rect style="fill: #90ee90; fill-opacity: 1; stroke-opacity: 1; stroke-width: 2; stroke-linejoin: round; stroke: #000000" x="541.4" y="84" width="40" height="40" rx="4" ry="4"/>
    <text font-size="22.5778" style="fill: #000000; fill-opacity: 1; stroke: none;text-anchor:middle;font-family:sans-serif;font-style:normal;font-weight:normal" x="561.4" y="112.75">
      <tspan x="561.4" y="112.75">1</tspan>
    </text>
    <g>
      <path style="fill: none; stroke-opacity: 1; stroke-width: 2; stroke: #000000" d="M 521.4 124 C 521.4,144 460,180 460,190.264"/>
      <polygon style="fill: #000000; fill-opacity: 1; stroke-opacity: 1; stroke-width: 2; stroke: #000000" fill-rule="evenodd" points="460,197.764 455,187.764 460,190.264 465,187.764 "/>
    </g>
    <g>
      <path style="fill: none; stroke-opacity: 1; stroke-width: 2; stroke: #000000" d="M 561.4 124 C 561.4,144 620,180 620,190.264"/>
      <polygon style="fill: #000000; fill-opacity: 1; stroke-opacity: 1; stroke-width: 2; stroke: #000000" fill-rule="evenodd" points="620,197.764 615,187.764 620,190.264 625,187.764 "/>
    </g>
    <g>
      <path style="fill: none; stroke-opacity: 1; stroke-width: 2; stroke: #000000" d="M 601.4 124 C 601.4,144 660,180 660,190.264"/>
      <polygon style="fill: #000000; fill-opacity: 1; stroke-opacity: 1; stroke-width: 2; stroke: #000000" fill-rule="evenodd" points="660,197.764 655,187.764 660,190.264 665,187.764 "/>
    </g>
    <g>
      <path style="fill: none; stroke-opacity: 1; stroke-width: 2; stroke: #000000" d="M 641.4 124 C 641.4,144 700,180 700,190.264"/>
      <polygon style="fill: #000000; fill-opacity: 1; stroke-opacity: 1; stroke-width: 2; stroke: #000000" fill-rule="evenodd" points="700,197.764 695,187.764 700,190.264 705,187.764 "/>
    </g>
    <g>
      <path style="fill: none; stroke-opacity: 1; stroke-width: 2; stroke: #000000" d="M 681.4 124 C 681.4,144 740,180 740,190.264"/>
      <polygon style="fill: #000000; fill-opacity: 1; stroke-opacity: 1; stroke-width: 2; stroke: #000000" fill-rule="evenodd" points="740,197.764 735,187.764 740,190.264 745,187.764 "/>
    </g>
    <g>
      <path style="fill: none; stroke-opacity: 1; stroke-width: 2; stroke: #000000" d="M 721.4 124 C 721.4,144 780,180 780,190.264"/>
      <polygon style="fill: #000000; fill-opacity: 1; stroke-opacity: 1; stroke-width: 2; stroke: #000000" fill-rule="evenodd" points="780,197.764 775,187.764 780,190.264 785,187.764 "/>
    </g>
    <g>
      <path style="fill: none; stroke-opacity: 1; stroke-width: 2; stroke: #000000" d="M 761.4 124 C 761.4,144 820,180 820,190.264"/>
      <polygon style="fill: #000000; fill-opacity: 1; stroke-opacity: 1; stroke-width: 2; stroke: #000000" fill-rule="evenodd" points="820,197.764 815,187.764 820,190.264 825,187.764 "/>
    </g>
    <rect style="fill: #90ee90; fill-opacity: 1; stroke-opacity: 1; stroke-width: 2; stroke-linejoin: round; stroke: #000000" x="240" y="320" width="40" height="40" rx="4" ry="4"/>
    <text font-size="22.5778" style="fill: #000000; fill-opacity: 1; stroke: none;text-anchor:start;font-family:sans-serif;font-style:normal;font-weight:normal" x="300" y="348.75">
      <tspan x="300" y="348.75">Payload: actual code point, right aligned</tspan>
    </text>
    <rect style="fill: #ffff00; fill-opacity: 1; stroke-opacity: 1; stroke-width: 2; stroke-linejoin: round; stroke: #000000" x="240" y="360" width="40" height="40" rx="4" ry="4"/>
    <text font-size="22.5778" style="fill: #000000; fill-opacity: 1; stroke: none;text-anchor:start;font-family:sans-serif;font-style:normal;font-weight:normal" x="300" y="388.75">
      <tspan x="300" y="388.75">UTF-8 header pattern</tspan>
    </text>
    <rect style="fill: #add8e6; fill-opacity: 1; stroke-opacity: 1; stroke-width: 2; stroke-linejoin: round; stroke: #000000" x="240" y="400" width="40" height="40" rx="4" ry="4"/>
    <text font-size="22.5778" style="fill: #000000; fill-opacity: 1; stroke: none;text-anchor:start;font-family:sans-serif;font-style:normal;font-weight:normal" x="300" y="428.75">
      <tspan x="300" y="428.75">Padding: remaining bits at left, filled with 0</tspan>
    </text>
  </g>
</svg>
