<?xml version="1.0" encoding="UTF-8"?>
<svg width="640" height="480" version="1.1" viewBox="0 0 640 480" xmlns="http://www.w3.org/2000/svg" xmlns:xlink="http://www.w3.org/1999/xlink">
 <title>Gnuplot</title>
 <desc>Produced by GNUPLOT 5.4 patchlevel 3</desc>
 <g id="gnuplot_canvas">
  <g fill="none">
   <rect width="640" height="480"/>
   <g stroke="currentColor">
    <g color="gray" stroke-width=".5">
     <path class="gridline" d="m64.1 422h551" stroke="gray" stroke-dasharray="2,4"/>
    </g>
    <g color="black">
     <path d="m64.1 422h9m542 0h-9" stroke="#000"/>
     <g transform="translate(55.8 426)" fill="#000" font-family="Arial" font-size="12" stroke="none" text-anchor="end">
      <text><tspan font-family="Arial">0</tspan></text>
     </g>
    </g>
    <g color="gray" stroke-width=".5">
     <path class="gridline" d="m64.1 387h551" stroke="gray" stroke-dasharray="2,4"/>
    </g>
    <g color="black">
     <path d="m64.1 387h9m542 0h-9" stroke="#000"/>
     <g transform="translate(55.8 391)" fill="#000" font-family="Arial" font-size="12" stroke="none" text-anchor="end">
      <text><tspan font-family="Arial">2</tspan></text>
     </g>
    </g>
    <g color="gray" stroke-width=".5">
     <path class="gridline" d="m64.1 352h551" stroke="gray" stroke-dasharray="2,4"/>
    </g>
    <g color="black">
     <path d="m64.1 352h9m542 0h-9" stroke="#000"/>
     <g transform="translate(55.8 356)" fill="#000" font-family="Arial" font-size="12" stroke="none" text-anchor="end">
      <text><tspan font-family="Arial">4</tspan></text>
     </g>
    </g>
    <g color="gray" stroke-width=".5">
     <path class="gridline" d="m64.1 317h551" stroke="gray" stroke-dasharray="2,4"/>
    </g>
    <g color="black">
     <path d="m64.1 317h9m542 0h-9" stroke="#000"/>
     <g transform="translate(55.8 321)" fill="#000" font-family="Arial" font-size="12" stroke="none" text-anchor="end">
      <text><tspan font-family="Arial">6</tspan></text>
     </g>
    </g>
    <g color="gray" stroke-width=".5">
     <path class="gridline" d="m64.1 282h551" stroke="gray" stroke-dasharray="2,4"/>
    </g>
    <g color="black">
     <path d="m64.1 282h9m542 0h-9" stroke="#000"/>
     <g transform="translate(55.8 286)" fill="#000" font-family="Arial" font-size="12" stroke="none" text-anchor="end">
      <text><tspan font-family="Arial">8</tspan></text>
     </g>
    </g>
    <g color="gray" stroke-width=".5">
     <path class="gridline" d="m64.1 247h551" stroke="gray" stroke-dasharray="2,4"/>
    </g>
    <g color="black">
     <path d="m64.1 247h9m542 0h-9" stroke="#000"/>
     <g transform="translate(55.8 251)" fill="#000" font-family="Arial" font-size="12" stroke="none" text-anchor="end">
      <text><tspan font-family="Arial">10</tspan></text>
     </g>
    </g>
    <g color="gray" stroke-width=".5">
     <path class="gridline" d="m64.1 212h551" stroke="gray" stroke-dasharray="2,4"/>
    </g>
    <g color="black">
     <path d="m64.1 212h9m542 0h-9" stroke="#000"/>
     <g transform="translate(55.8 216)" fill="#000" font-family="Arial" font-size="12" stroke="none" text-anchor="end">
      <text><tspan font-family="Arial">12</tspan></text>
     </g>
    </g>
    <g color="gray" stroke-width=".5">
     <path class="gridline" d="m64.1 177h551" stroke="gray" stroke-dasharray="2,4"/>
    </g>
    <g color="black">
     <path d="m64.1 177h9m542 0h-9" stroke="#000"/>
     <g transform="translate(55.8 181)" fill="#000" font-family="Arial" font-size="12" stroke="none" text-anchor="end">
      <text><tspan font-family="Arial">14</tspan></text>
     </g>
    </g>
    <g color="gray" stroke-width=".5">
     <path class="gridline" d="m64.1 142h551" stroke="gray" stroke-dasharray="2,4"/>
    </g>
    <g color="black">
     <path d="m64.1 142h9m542 0h-9" stroke="#000"/>
     <g transform="translate(55.8 146)" fill="#000" font-family="Arial" font-size="12" stroke="none" text-anchor="end">
      <text><tspan font-family="Arial">16</tspan></text>
     </g>
    </g>
    <g color="gray" stroke-width=".5">
     <path class="gridline" d="m64.1 107h551" stroke="gray" stroke-dasharray="2,4"/>
    </g>
    <g color="black">
     <path d="m64.1 107h9m542 0h-9" stroke="#000"/>
     <g transform="translate(55.8 111)" fill="#000" font-family="Arial" font-size="12" stroke="none" text-anchor="end">
      <text><tspan font-family="Arial">18</tspan></text>
     </g>
    </g>
    <g color="gray" stroke-width=".5">
     <path class="gridline" d="m64.1 72h551" stroke="gray" stroke-dasharray="2,4"/>
    </g>
    <g color="black">
     <path d="m64.1 72h9m542 0h-9" stroke="#000"/>
     <g transform="translate(55.8 75.9)" fill="#000" font-family="Arial" font-size="12" stroke="none" text-anchor="end">
      <text><tspan font-family="Arial">20</tspan></text>
     </g>
    </g>
    <g color="gray" stroke-width=".5">
     <path class="gridline" d="m64.1 422v-350" stroke="gray" stroke-dasharray="2,4"/>
    </g>
    <g color="black">
     <path d="m64.1 422v-9m0-341v9" stroke="#000"/>
     <g transform="translate(64.1 444)" fill="#000" font-family="Arial" font-size="12" stroke="none" text-anchor="middle">
      <text><tspan font-family="Arial">1952</tspan></text>
     </g>
     <path d="m71.8 422v-4.5m0-346v4.5m7.63 346v-4.5m0-346v4.5m7.65 346v-4.5m0-346v4.5m7.64 346v-4.5m0-346v4.5m7.67 346v-4.5m0-346v4.5" stroke="#000"/>
    </g>
    <g color="gray" stroke-width=".5">
     <path class="gridline" d="m110 422v-350" stroke="gray" stroke-dasharray="2,4"/>
    </g>
    <g color="black">
     <path d="m110 422v-9m0-341v9" stroke="#000"/>
     <g transform="translate(110 444)" fill="#000" font-family="Arial" font-size="12" stroke="none" text-anchor="middle">
      <text><tspan font-family="Arial">1958</tspan></text>
     </g>
     <path d="m118 422v-4.5m0-346v4.5m7.65 346v-4.5m0-346v4.5m7.67 346v-4.5m0-346v4.5m7.62 346v-4.5m0-346v4.5m7.65 346v-4.5m0-346v4.5" stroke="#000"/>
    </g>
    <g color="gray" stroke-width=".5">
     <path class="gridline" d="m156 422v-350" stroke="gray" stroke-dasharray="2,4"/>
    </g>
    <g color="black">
     <path d="m156 422v-9m0-341v9" stroke="#000"/>
     <g transform="translate(156 444)" fill="#000" font-family="Arial" font-size="12" stroke="none" text-anchor="middle">
      <text><tspan font-family="Arial">1964</tspan></text>
     </g>
     <path d="m164 422v-4.5m0-346v4.5m7.63 346v-4.5m0-346v4.5m7.65 346v-4.5m0-346v4.5m7.64 346v-4.5m0-346v4.5m7.67 346v-4.5m0-346v4.5" stroke="#000"/>
    </g>
    <g color="gray" stroke-width=".5">
     <path class="gridline" d="m202 422v-350" stroke="gray" stroke-dasharray="2,4"/>
    </g>
    <g color="black">
     <path d="m202 422v-9m0-341v9" stroke="#000"/>
     <g transform="translate(202 444)" fill="#000" font-family="Arial" font-size="12" stroke="none" text-anchor="middle">
      <text><tspan font-family="Arial">1970</tspan></text>
     </g>
     <path d="m209 422v-4.5m0-346v4.5m7.65 346v-4.5m0-346v4.5m7.67 346v-4.5m0-346v4.5m7.62 346v-4.5m0-346v4.5m7.65 346v-4.5m0-346v4.5" stroke="#000"/>
    </g>
    <g color="gray" stroke-width=".5">
     <path class="gridline" d="m248 422v-350" stroke="gray" stroke-dasharray="2,4"/>
    </g>
    <g color="black">
     <path d="m248 422v-9m0-341v9" stroke="#000"/>
     <g transform="translate(248 444)" fill="#000" font-family="Arial" font-size="12" stroke="none" text-anchor="middle">
      <text><tspan font-family="Arial">1976</tspan></text>
     </g>
     <path d="m255 422v-4.5m0-346v4.5m7.63 346v-4.5m0-346v4.5m7.65 346v-4.5m0-346v4.5m7.64 346v-4.5m0-346v4.5m7.67 346v-4.5m0-346v4.5" stroke="#000"/>
    </g>
    <g color="gray" stroke-width=".5">
     <path class="gridline" d="m294 422v-350" stroke="gray" stroke-dasharray="2,4"/>
    </g>
    <g color="black">
     <path d="m294 422v-9m0-341v9" stroke="#000"/>
     <g transform="translate(294 444)" fill="#000" font-family="Arial" font-size="12" stroke="none" text-anchor="middle">
      <text><tspan font-family="Arial">1982</tspan></text>
     </g>
     <path d="m301 422v-4.5m0-346v4.5m7.65 346v-4.5m0-346v4.5m7.67 346v-4.5m0-346v4.5m7.62 346v-4.5m0-346v4.5m7.65 346v-4.5m0-346v4.5" stroke="#000"/>
    </g>
    <g color="gray" stroke-width=".5">
     <path class="gridline" d="m339 422v-350" stroke="gray" stroke-dasharray="2,4"/>
    </g>
    <g color="black">
     <path d="m339 422v-9m0-341v9" stroke="#000"/>
     <g transform="translate(339 444)" fill="#000" font-family="Arial" font-size="12" stroke="none" text-anchor="middle">
      <text><tspan font-family="Arial">1988</tspan></text>
     </g>
     <path d="m347 422v-4.5m0-346v4.5m7.63 346v-4.5m0-346v4.5m7.65 346v-4.5m0-346v4.5m7.64 346v-4.5m0-346v4.5m7.67 346v-4.5m0-346v4.5" stroke="#000"/>
    </g>
    <g color="gray" stroke-width=".5">
     <path class="gridline" d="m385 422v-350" stroke="gray" stroke-dasharray="2,4"/>
    </g>
    <g color="black">
     <path d="m385 422v-9m0-341v9" stroke="#000"/>
     <g transform="translate(385 444)" fill="#000" font-family="Arial" font-size="12" stroke="none" text-anchor="middle">
      <text><tspan font-family="Arial">1994</tspan></text>
     </g>
     <path d="m393 422v-4.5m0-346v4.5m7.65 346v-4.5m0-346v4.5m7.67 346v-4.5m0-346v4.5m7.62 346v-4.5m0-346v4.5m7.65 346v-4.5m0-346v4.5" stroke="#000"/>
    </g>
    <g color="gray" stroke-width=".5">
     <path class="gridline" d="m431 422v-350" stroke="gray" stroke-dasharray="2,4"/>
    </g>
    <g color="black">
     <path d="m431 422v-9m0-341v9" stroke="#000"/>
     <g transform="translate(431 444)" fill="#000" font-family="Arial" font-size="12" stroke="none" text-anchor="middle">
      <text><tspan font-family="Arial">2000</tspan></text>
     </g>
     <path d="m439 422v-4.5m0-346v4.5m7.63 346v-4.5m0-346v4.5m7.65 346v-4.5m0-346v4.5m7.64 346v-4.5m0-346v4.5m7.67 346v-4.5m0-346v4.5" stroke="#000"/>
    </g>
    <g color="gray" stroke-width=".5">
     <path class="gridline" d="m477 422v-350" stroke="gray" stroke-dasharray="2,4"/>
    </g>
    <g color="black">
     <path d="m477 422v-9m0-341v9" stroke="#000"/>
     <g transform="translate(477 444)" fill="#000" font-family="Arial" font-size="12" stroke="none" text-anchor="middle">
      <text><tspan font-family="Arial">2006</tspan></text>
     </g>
     <path d="m485 422v-4.5m0-346v4.5m7.65 346v-4.5m0-346v4.5m7.67 346v-4.5m0-346v4.5m7.62 346v-4.5m0-346v4.5m7.65 346v-4.5m0-346v4.5" stroke="#000"/>
    </g>
    <g color="gray" stroke-width=".5">
     <path class="gridline" d="m523 422v-350" stroke="gray" stroke-dasharray="2,4"/>
    </g>
    <g color="black">
     <path d="m523 422v-9m0-341v9" stroke="#000"/>
     <g transform="translate(523 444)" fill="#000" font-family="Arial" font-size="12" stroke="none" text-anchor="middle">
      <text><tspan font-family="Arial">2012</tspan></text>
     </g>
     <path d="m531 422v-4.5m0-346v4.5m7.63 346v-4.5m0-346v4.5m7.65 346v-4.5m0-346v4.5m7.64 346v-4.5m0-346v4.5m7.67 346v-4.5m0-346v4.5" stroke="#000"/>
    </g>
    <g color="gray" stroke-width=".5">
     <path class="gridline" d="m569 422v-341-9" stroke="gray" stroke-dasharray="2,4"/>
    </g>
    <g color="black">
     <path d="m569 422v-9m0-341v9" stroke="#000"/>
     <g transform="translate(569 444)" fill="#000" font-family="Arial" font-size="12" stroke="none" text-anchor="middle">
      <text><tspan font-family="Arial">2018</tspan></text>
     </g>
     <path d="m577 422v-4.5m0-346v4.5m7.65 346v-4.5m0-346v4.5m7.67 346v-4.5m0-346v4.5m7.62 346v-4.5m0-346v4.5m7.65 346v-4.5m0-346v4.5" stroke="#000"/>
    </g>
    <g color="gray" stroke-width=".5">
     <path class="gridline" d="m615 422v-350" stroke="gray" stroke-dasharray="2,4"/>
    </g>
    <g color="black">
     <path d="m615 422v-9m0-341v9" stroke="#000"/>
     <g transform="translate(615 444)" fill="#000" font-family="Arial" font-size="12" stroke="none" text-anchor="middle">
      <text><tspan font-family="Arial">2024</tspan></text>
     </g>
     <path d="m64.1 72v350h551v-350h-551z" stroke="#000"/>
     <g transform="translate(19.2 247) rotate(-90)" fill="#000" font-family="Arial" font-size="12" stroke="none" text-anchor="middle">
      <text><tspan font-family="Arial">Percent</tspan></text>
     </g>
     <g transform="translate(339 471)" fill="#000" font-family="Arial" font-size="12" stroke="none" text-anchor="middle">
      <text><tspan font-family="Arial">Date</tspan></text>
     </g>
    </g>
   </g>
  </g>
  <g>
   <title>gnuplot_plot_1</title>
   <g color="black" fill="none" stroke="currentColor">
    <path d="m83.2 408 0.65-7.35 0.65 2.62 0.62 3.86 0.65 0.35 0.63-7.88 0.65-1.93 0.65 1.75 0.59-1.05 0.64-1.4h0.63l0.65-3.68 0.63-0.7 0.65-4.91 0.65-3.85 0.63-1.05 0.65-1.93 0.62-2.28 0.65 0.53 0.65-0.88h0.61l0.65-2.1 0.63-2.28 0.65 0.7 0.62-0.7 0.65 0.35 0.65-3.85 0.63-0.18 0.65 1.4 0.63-1.05 0.65 1.75 0.65-2.8 0.58 0.7 0.65-0.7h0.63 0.65l0.63 0.18 0.65-4.38 0.65-4.03 0.62-0.53 0.65 3.86 0.63 5.25 0.65 4.56 0.65 18.4 0.59 8.24 0.64-1.05 0.63 11 0.65-5.25 0.63 4.38 0.65-14.9 0.65-4.03 0.63-0.71 0.65-8.23 0.62-2.63 0.65-1.05 0.65 0.88 0.59-6.48 0.65-2.81 0.63 1.05 0.65-8.58 0.62-1.4 0.65-0.53 0.65-4.55 0.63-3.86 0.65-0.35 0.63 0.18h0.65l0.65 0.35 0.6 2.28 0.65-1.41 0.63 1.23 0.65 9.29 0.63 1.57 0.65 4.38 0.65 6.66 0.62 2.28 0.65 0.52 0.63 8.06 0.65 9.29 0.65-19.1 0.59 9.11 0.64 9.29 0.63-8.59 0.65 4.38 0.63 9.81 0.65-14.5 0.65 2.1 0.63-6.65 0.65-6.14 0.62 4.91 0.65 3.15 0.65-3.85 0.59-8.41 0.65 1.23 0.63 7.35 0.65-5.6 0.62-0.53 0.65-3.85 0.65 0.52h0.63l0.65-0.7 0.63 0.18 0.65 0.17 0.65-1.4 0.58 0.35 0.65 1.4 0.63-1.75 0.65 0.18 0.63-0.53 0.65-8.23 0.64 0.17 0.63-0.35 0.65 0.35 0.63 1.75 0.65-1.75h0.65l0.61 0.88 0.65-0.7 0.62-0.53h0.65l0.63 1.4 0.65-1.4 0.65 0.88 0.63 1.57 0.65-2.8 0.62-5.78 0.65-0.88 0.65-1.4 0.59-1.22 0.65-0.7 0.63-0.18 0.65 0.88 0.62-0.7 0.65-0.53 0.65 1.75 0.63-1.05 0.65-0.35 0.63-3.85 0.65-1.76 0.65-3.15 0.58-1.05 0.65-0.18 0.63-4.03 0.65-4.73 0.63-2.27 0.65-4.03 0.65 2.27 0.62-2.27 0.65-4.03 0.63 6.3 0.65 8.06 0.65-1.05 0.59 8.24 0.64 8.41 0.63 1.92 0.65-0.7 0.63 3.33 0.65-1.93 0.65-1.57 0.63 1.92 0.65-4.38 0.62-6.65 0.65-1.75 0.65-1.76 0.61-5.95 0.65-12.4 0.63-6.31 0.65 0.88 0.62 0.7h0.65l0.65 4.38 0.63-2.28 0.65 1.58 0.63-3.51 0.65-4.9 0.65-5.43 0.58-3.16 0.65-10.9 0.63-22.1 0.65-4.03 0.63 5.08 0.65-10.2 0.65 0.7 0.62 2.62 0.65 2.63 0.63-2.1 0.65-0.18h0.65l0.59 21.4 0.64-5.96 0.63 2.63 0.65 5.96 0.63 7 0.65 10.3 0.65 5.78 0.63 1.58 0.65 10.5 0.62 12.3 0.65 13.3 0.65 7.36 0.59 0.17 0.65-7.88 0.63-8.24 0.65-4.9 0.62-7.01 0.65-4.55 0.65 0.35 0.63 6.13 0.65 5.08 0.63 13.5 0.65 11 0.65 3.68 0.6-9.29 0.65-5.96 0.63-1.75 0.65-3.33 0.63-1.57 0.65-4.56 0.65-1.05 0.62-3.15 0.65-0.18 0.63-4.73 0.65-10.7 0.65-11.2 0.59-8.93 0.64-0.53 0.63-12.6 0.65-11.4 0.63-33.5 0.65-1.75 0.65-4.91 0.63 13.5 0.65-0.35 0.62 1.4 0.65 5.26 0.65 11.9 0.59-6.66 0.65-20.3 0.63-14 0.65-10.9 0.62-17.3 0.65 15.9 0.65 11.7 0.63 22.4 0.65 10.7 0.63 16.1 0.65 24.5 0.65 15.6 0.58 12.3 0.65 0.88 0.63 4.73 0.65-5.78 0.63-9.64 0.65-0.7 0.64-1.75 0.63 7.36 0.65 10.5 0.63 0.35 0.65 5.78 0.65 1.75 0.61-1.22 0.65 0.35 0.62-8.24 0.65-3.33 0.63 2.98 0.65 0.35 0.65 0.7 0.63 4.03 0.65 1.23 0.62 5.25 0.65 0.71 0.65-1.23 0.59-0.18 0.65-0.7 0.63-10.9 0.65-0.7 0.62-0.53 0.65-8.41 0.65-4.2 0.63-5.78 0.65-0.7 0.63-0.88 0.65-2.45 0.65-1.4 0.58-0.18 0.65-1.75 0.63-8.23 0.65-4.21 0.63-3.68 0.65-4.03 0.65-7.18 0.62-8.93 0.65-14 0.63-4.73 0.65-0.7 0.65 0.17 0.59-0.52 0.64 1.4 0.63-4.03 0.65-0.88 0.63-3.15 0.65-8.23 0.65-8.59 0.63-41 0.65 10.3 0.62-10.5 0.65-0.7 0.65-5.43 0.61-53.6 0.65-7.36 0.63 116 0.65 26.4 0.62 7.71 0.65-10.2 0.65-22.1 0.63-34 0.65-53.3 0.63-53.4 0.65-3.15 0.65 55.2 0.58 21.6 0.65-17.9 0.63-49 0.65-10.2 0.63 1.05 0.65 21.4 0.65 34.2 0.62 13.8 0.65 31 0.63 16.5 0.65-14.9 0.65-27.3 0.59 1.75 0.64-4.55 0.63 8.58 0.65 5.26 0.63 27.3 0.65 43.3 0.65-3.33 0.63 10.5 0.65 8.93 0.62 4.38 0.65 4.73 0.65 2.98 0.59-4.56 0.65-0.52 0.63 2.98 0.65-6.14 0.62-6.83 0.65-3.33 0.65 1.93 0.63-0.52 0.65 2.45 0.63-2.28 0.65-1.58 0.65-0.52 0.6-5.61 0.65-6.66 0.63-0.52 0.65-13 0.63-2.97 0.65-7.19 0.65 5.96 0.62 23 0.65 9.81 0.63 18.4 0.65 0.52 0.65-2.63 0.59-1.4 0.64 5.43 0.63 5.26 0.65 7.71 0.63-6.13 1.3-0.7 0.63-1.23 0.65-1.05 0.62-3.86 0.65 2.28 0.65 4.91 0.59 6.65 0.65 8.59 0.63 2.45 0.65-1.22 0.62 6.3 0.65 6.83 0.65 4.91 0.63 0.7 0.65-3.33 0.63-15.2 0.65 8.41 0.65 5.78 0.58-0.52 0.65-4.21 0.63-8.41 0.65 2.1 0.63 2.63 0.65-2.63 0.64-8.58 0.63-1.23 0.65 10.5 0.63-1.4 0.65-1.05 0.65 4.38h0.61l0.65-5.08 0.62-3.85 0.65-7.36 0.63-4.21 0.65-4.55 0.65-3.15 0.63-1.93 0.65-0.88 0.62-7.18 0.65-6.31 0.65-4.2 0.59-8.59 0.65 0.18 0.63 0.52 0.65 4.91 0.62 5.08 0.65 4.38 0.65-0.53 0.63 3.16 0.65 5.08 0.63 1.75 0.65 3.85 0.65-0.17 0.58-0.7 0.65 0.35 0.63 1.4 0.65-1.93 0.63 2.46 0.65 0.35 0.65-1.23 0.62 1.58 0.65 5.25 0.63 8.76 0.65 7.01 0.65 11.6 0.59 2.28 0.64 3.68 0.63 2.28 0.65-2.11 0.63 1.41 0.65 2.8 0.65 3.68 0.63 4.2 0.65 7.01 0.62 6.66 0.65 7.01 0.65-0.53 0.61 1.4 0.65 4.38 0.63-1.57 0.65 1.05 0.62 8.93 0.65-0.87 0.65 1.4 0.63 2.1 0.65 0.17 0.63 2.98 0.65-1.75 0.65-0.17 0.58-0.7 0.65 1.92 0.63-0.7 0.65-0.7 0.63-0.35 0.65 0.53 0.65-1.06 0.62 1.76 0.65-0.53 0.63 1.05 0.65-1.57 0.65-3.51 0.59-1.58 0.64-3.85 0.63-7.88 0.65-4.21 0.63-0.17 0.65-3.68 0.65-4.56 0.63-0.52 0.65-9.29 0.62-2.8 0.65-1.4 0.65-6.84 0.59-1.05 0.65-1.22 0.63 0.7 0.65 0.17 0.62 2.63 0.65 1.93 0.65-1.05 0.63 0.7 0.65-0.7 0.63 3.5 0.65 0.7 0.65 5.96 0.6-1.58 0.65 1.58 0.63-0.35 0.65-0.53 0.63-2.28 0.65 3.16 0.65-1.4 0.62 1.05 0.65-1.23 0.63 0.35 0.65 0.7 0.65 1.05 0.59-3.5 0.64-2.1 0.63 0.17 0.65-1.05 0.63 0.7 0.65-0.35h0.65l0.63 0.7 0.65-0.35 0.62 0.35 0.65-1.05 0.65 0.88 0.59 0.35 0.65 0.7 0.63-0.7 0.65-1.23 0.62 0.35 0.65-0.17 0.65 0.7 0.63 7.71 0.65 4.2 0.63 2.63 0.65 0.87 0.65-2.27 0.58-0.88 0.65 1.23h0.63l0.65-0.35 0.63-4.03 0.65-1.4 0.64-2.63 0.63 0.35 0.65-3.86 0.63 2.11 0.65-2.63 0.65-4.91 0.61-2.1 0.65-2.98 0.62-4.38 0.65-4.55 0.63-0.18 0.65 0.7 0.65-0.35 0.63 0.18h0.65l0.62 1.93 0.65 7.35 0.65 8.59 0.59 3.15 0.65 8.94 0.63 10.3 0.65 4.21 0.62 3.5 0.65 2.1 0.65 10.2 0.63 10.2 0.65 7 0.63 4.73 0.65 1.58 0.65-0.17 0.58 0.17 0.65-0.35h0.63 0.65l0.63 0.35 0.65-0.17 0.65-0.18h0.62l0.65 7.18 0.63 1.76h0.65l0.65-0.35 0.59 0.17 0.64-0.17h0.63l0.65 0.7 0.63 3.68 0.65-0.36 0.65 0.36h0.63l0.65 0.17 0.62 0.35 0.65-0.35 0.65-0.17 0.61 0.17h0.65 0.63l0.65-0.53 0.62-4.02 0.65-2.98 0.65-3.16 0.63-2.62 0.65-2.98 0.63-4.03 0.65-2.1 0.65-3.86 0.58-2.28 0.65-2.8 0.63-3.68 0.65-0.7 0.63-3.85 0.65-4.21 0.65-2.1 0.62-2.8 0.65-3.86 0.63-2.8 0.65-2.28 0.65-3.5 0.59-1.75 0.64-3.51 0.63-2.63 0.65-0.87 0.63-4.38 0.65-0.18h0.65 0.63 0.65l0.62 0.18 0.65-0.18 0.65-0.17h0.59l0.65 0.17h0.63 0.65l0.62-0.17 0.65 4.2 0.65 1.4 0.63 3.16 0.65 4.73 0.63 4.38 0.65 5.25 0.65 16.8 0.6 6.48 0.65 5.79 0.63 5.25 0.65-0.35 0.63-0.17 0.65 0.17 0.65 3.33 0.62 14.7 0.65 10.2 0.63 4.03 0.65 0.17 0.65-1.22 0.59 0.7 0.64 0.52 0.63-0.52 0.65-0.53 0.63 0.88h0.65l0.65 0.17 0.63 0.53h0.65 0.62l0.65 0.17 0.65-0.35 0.59-0.52 0.65-0.7h0.63l0.65 0.35h0.62l0.65-0.18h0.65 0.63 0.65l0.63 0.18 0.65 0.17 0.65 0.18 0.58 0.35 0.65 0.7 0.63 0.17h0.65l0.63 0.35 0.65-0.52 0.64 0.35 0.63 0.17 0.65-0.17 0.63 0.17 0.65-0.17 0.65-0.35 0.61-0.53 0.65-0.17 0.62-0.35h0.65 0.63l0.65 0.52 0.65-0.17 0.63-0.35h0.65 0.62l0.65 0.35 0.65-0.18 0.59 0.18 0.65-0.18 0.63 0.7 0.65 0.35h0.62l0.65 0.18h0.65l0.63-0.18 0.65 0.18 0.63-0.18 0.65 0.35h0.65l0.58-0.17 0.65-0.18h0.63l0.65-0.17 0.63 0.17h0.65 0.65 0.62 0.65l0.63-0.52 0.65 0.17h0.65 0.59l0.64-0.17h0.63l0.65-0.18h0.63l0.65-0.17h0.65l0.63 0.35h0.65l0.62-2.1 0.65-1.76 0.65-0.7 0.61 0.35 0.65-0.17h0.63l0.65-0.18 1.27-0.35h0.65 0.63l0.65-0.17 0.63-2.28 0.65-1.93 0.65-0.17 0.58-2.28 0.65-1.93 0.63-0.17 0.65-2.28 0.63-1.93 0.65-0.17 0.65 0.17h0.62l0.65-0.17 0.63-2.46 0.65-1.92 0.65-0.18 0.59-1.57 0.64-3.16 0.63-0.17 0.65-2.11 0.63-1.57h0.65l0.65-0.7 0.63-4.21 0.65-0.17 0.62-1.23 0.65-2.28h0.65l0.59-0.17 0.65-0.18 0.63 0.53 0.65 0.17 0.62-0.35 0.65 4.73 0.65 1.58 0.63 3.68 0.65 4.9h0.63 0.65l0.65-0.52 0.6 16.3 0.65 10.5h0.63l0.65-0.52 0.63-0.18 0.65-0.17 0.65 0.17h0.62 0.65 0.63 0.65l0.65 0.18 0.59 0.17h0.64l0.63 0.18 0.65-0.35 0.63-0.35 0.65 0.17 0.65 0.18h0.63 0.65 0.62 0.65 0.65l0.59-2.1 0.65-2.28 0.63-7.71" stroke="#9400d3"/>
   </g>
  </g>
  <g color="black" fill="none">
   <path d="m64.1 72v350h551v-350h-551z" stroke="#000"/>
   <g transform="translate(339 30.9)" fill="#000" font-family="Arial" font-size="12" text-anchor="middle">
    <text><tspan font-family="Arial">Federal Funds Rate (effective)</tspan></text>
   </g>
   <g transform="translate(339 48.9)" fill="#000" font-family="Arial" font-size="12" text-anchor="middle">
    <text><tspan font-family="Arial">July 1954 to June 2022</tspan></text>
   </g>
  </g>
 </g>
</svg>
