<?xml version="1.0" encoding="UTF-8"?>
<svg width="18cm" height="17cm" version="1.1" viewBox="59 259 342 322" xmlns="http://www.w3.org/2000/svg"><rect x="60" y="260" width="80" height="40" rx="0" ry="0" style="fill:#fff;stroke-width:2;stroke:#000"/><text x="100" y="283.881" font-size="12.8" style="fill:#000000;font-family:sans-serif;font-style:italic;text-anchor:middle"><tspan x="100" y="283.881">type</tspan></text><rect x="140" y="260" width="60" height="40" rx="0" ry="0" style="fill:#fff;stroke-width:2;stroke:#000"/><text x="170" y="283.881" font-size="12.8" style="fill:#000000;font-family:sans-serif;text-anchor:middle"><tspan x="170" y="283.881">ndarray</tspan></text><rect x="60" y="300" width="80" height="40" rx="0" ry="0" style="fill:#fff;stroke-width:2;stroke:#000"/><text x="100" y="323.881" font-size="12.8" style="fill:#000000;font-family:sans-serif;font-style:italic;text-anchor:middle"><tspan x="100" y="323.881">refcount</tspan></text><rect x="140" y="300" width="60" height="40" rx="0" ry="0" style="fill:#fff;stroke-width:2;stroke:#000"/><text x="170" y="323.881" font-size="12.8" style="fill:#000000;font-family:sans-serif;text-anchor:middle"><tspan x="170" y="323.881">1</tspan></text><rect x="60" y="340" width="80" height="40" rx="0" ry="0" style="fill:#fff;stroke-width:2;stroke:#000"/><text x="100" y="363.881" font-size="12.8" style="fill:#000000;font-family:sans-serif;font-style:italic;text-anchor:middle"><tspan x="100" y="363.881">data</tspan></text><rect x="140" y="340" width="60" height="40" rx="0" ry="0" style="fill:#fff;stroke-width:2;stroke:#000"/><text x="170" y="363.881" font-size="12.8" style="fill:#000000;font-family:sans-serif;text-anchor:middle"><tspan x="170" y="363.881"/></text><rect x="60" y="380" width="80" height="40" rx="0" ry="0" style="fill:#fff;stroke-width:2;stroke:#000"/><text x="100" y="403.881" font-size="12.8" style="fill:#000000;font-family:sans-serif;font-style:italic;text-anchor:middle"><tspan x="100" y="403.881">dtype</tspan></text><rect x="140" y="380" width="60" height="40" rx="0" ry="0" style="fill:#fff;stroke-width:2;stroke:#000"/><text x="170" y="403.881" font-size="12.8" style="fill:#000000;font-family:sans-serif;text-anchor:middle"><tspan x="170" y="403.881">int32</tspan></text><rect x="60" y="420" width="80" height="40" rx="0" ry="0" style="fill:#fff;stroke-width:2;stroke:#000"/><text x="100" y="443.881" font-size="12.8" style="fill:#000000;font-family:sans-serif;font-style:italic;text-anchor:middle"><tspan x="100" y="443.881">shape</tspan></text><rect x="140" y="420" width="60" height="40" rx="0" ry="0" style="fill:#fff;stroke-width:2;stroke:#000"/><text x="170" y="443.881" font-size="12.8" style="fill:#000000;font-family:sans-serif;text-anchor:middle"><tspan x="170" y="443.881">(2, 5)</tspan></text><rect x="240" y="320" width="60" height="20" rx="0" ry="0" style="fill:#fff;stroke-width:2;stroke:#000"/><text x="270" y="333.881" font-size="12.8" style="fill:#000000;font-family:sans-serif;text-anchor:middle"><tspan x="270" y="333.881"/></text><rect x="240" y="340" width="60" height="20" rx="0" ry="0" style="fill:#fff;stroke-width:2;stroke:#000"/><text x="270" y="353.881" font-size="12.8" style="fill:#000000;font-family:sans-serif;text-anchor:middle"><tspan x="270" y="353.881"/></text><rect x="240" y="360" width="60" height="20" rx="0" ry="0" style="fill:#fff;stroke-width:2;stroke:#000"/><text x="270" y="373.881" font-size="12.8" style="fill:#000000;font-family:sans-serif;text-anchor:middle"><tspan x="270" y="373.881"/></text><rect x="240" y="380" width="60" height="20" rx="0" ry="0" style="fill:#fff;stroke-width:2;stroke:#000"/><text x="270" y="393.881" font-size="12.8" style="fill:#000000;font-family:sans-serif;text-anchor:middle"><tspan x="270" y="393.881"/></text><rect x="240" y="400" width="60" height="20" rx="0" ry="0" style="fill:#fff;stroke-width:2;stroke:#000"/><text x="270" y="413.881" font-size="12.8" style="fill:#000000;font-family:sans-serif;text-anchor:middle"><tspan x="270" y="413.881"/></text><line x1="200" x2="232.21" y1="360" y2="335.84" style="fill:none;stroke-width:2;stroke:#f00"/><polygon points="238.21 331.34 233.21 341.34 232.21 335.84 227.21 333.34" fill-rule="evenodd" style="fill:#f00;stroke-width:2;stroke:#f00"/><rect x="60" y="460" width="80" height="40" rx="0" ry="0" style="fill:#fff;stroke-width:2;stroke:#000"/><text x="100" y="483.881" font-size="12.8" style="fill:#000000;font-family:sans-serif;font-style:italic;text-anchor:middle"><tspan x="100" y="483.881">strides</tspan></text><rect x="140" y="460" width="60" height="40" rx="0" ry="0" style="fill:#fff;stroke-width:2;stroke:#000"/><text x="170" y="483.881" font-size="12.8" style="fill:#000000;font-family:sans-serif;text-anchor:middle"><tspan x="170" y="483.881">(20, 4)</tspan></text><rect x="240" y="420" width="60" height="20" rx="0" ry="0" style="fill:#fff;stroke-width:2;stroke:#000"/><text x="270" y="433.881" font-size="12.8" style="fill:#000000;font-family:sans-serif;text-anchor:middle"><tspan x="270" y="433.881"/></text><rect x="240" y="440" width="60" height="20" rx="0" ry="0" style="fill:#fff;stroke-width:2;stroke:#000"/><text x="270" y="453.881" font-size="12.8" style="fill:#000000;font-family:sans-serif;text-anchor:middle"><tspan x="270" y="453.881"/></text><rect x="240" y="460" width="60" height="20" rx="0" ry="0" style="fill:#fff;stroke-width:2;stroke:#000"/><text x="270" y="473.881" font-size="12.8" style="fill:#000000;font-family:sans-serif;text-anchor:middle"><tspan x="270" y="473.881"/></text><rect x="240" y="480" width="60" height="20" rx="0" ry="0" style="fill:#fff;stroke-width:2;stroke:#000"/><text x="270" y="493.881" font-size="12.8" style="fill:#000000;font-family:sans-serif;text-anchor:middle"><tspan x="270" y="493.881"/></text><rect x="240" y="500" width="60" height="20" rx="0" ry="0" style="fill:#fff;stroke-width:2;stroke:#000"/><text x="270" y="513.881" font-size="12.8" style="fill:#000000;font-family:sans-serif;text-anchor:middle"><tspan x="270" y="513.881"/></text><text x="320" y="340" font-size="12.8" style="fill:#000000;font-family:sans-serif"><tspan x="320" y="340">4 bytes * 10</tspan><tspan x="320" y="356">(contiguous)</tspan></text><rect x="60" y="500" width="80" height="40" rx="0" ry="0" style="fill:#fff;stroke-width:2;stroke:#000"/><text x="100" y="523.881" font-size="12.8" style="fill:#000000;font-family:sans-serif;font-style:italic;text-anchor:middle"><tspan x="100" y="523.881">size</tspan></text><rect x="140" y="500" width="60" height="40" rx="0" ry="0" style="fill:#fff;stroke-width:2;stroke:#000"/><text x="170" y="523.881" font-size="12.8" style="fill:#000000;font-family:sans-serif;text-anchor:middle"><tspan x="170" y="523.881">10</tspan></text><rect x="60" y="540" width="80" height="40" rx="0" ry="0" style="fill:#fff;stroke-width:2;stroke:#000"/><text x="100" y="563.881" font-size="12.8" style="fill:#000000;font-family:sans-serif;font-style:italic;text-anchor:middle"><tspan x="100" y="563.881">...</tspan></text><rect x="140" y="540" width="60" height="40" rx="0" ry="0" style="fill:#fff;stroke-width:2;stroke:#000"/><text x="170" y="563.881" font-size="12.8" style="fill:#000000;font-family:sans-serif;text-anchor:middle"><tspan x="170" y="563.881">...</tspan></text></svg>
