<?xml version="1.0" encoding="UTF-8" standalone="no"?>
<!DOCTYPE svg PUBLIC "-//W3C//DTD SVG 1.0//EN" "http://www.w3.org/TR/2001/PR-SVG-20010719/DTD/svg10.dtd">
<svg width="26cm" height="15cm" viewBox="378 279 503 281" xmlns="http://www.w3.org/2000/svg" xmlns:xlink="http://www.w3.org/1999/xlink">
  <g id="Background"/>
  <g id="Background">
    <g>
      <path style="fill: #ffe9aa; fill-opacity: 1; stroke: none" fill-rule="evenodd" d="M 803.614 338.458 L 803.54,335.563 L 803.283,332.668 L 802.804,329.824 L 802.142,326.98 L 801.258,324.085 L 800.264,321.291 L 799.013,318.6 L 797.614,315.857 L 796.104,313.216 L 794.337,310.626 L 792.46,308.137 L 790.398,305.699 L 788.153,303.363 L 785.797,301.128 L 783.294,298.944 L 780.606,296.862 L 777.845,294.881 L 774.974,293.053 L 771.955,291.377 L 768.826,289.751 L 765.587,288.228 L 762.237,286.907 L 758.887,285.688 L 755.39,284.622 L 751.819,283.708 L 748.248,282.844 L 744.604,282.184 L 740.922,281.676 L 737.204,281.321 L 733.45,281.117 L 729.695,281.016 L 729.695,281.016 L 725.977,281.117 L 722.185,281.321 L 718.504,281.676 L 714.822,282.184 L 711.141,282.844 L 707.57,283.708 L 704,284.622 L 700.539,285.688 L 697.116,286.907 L 693.839,288.228 L 690.6,289.751 L 687.508,291.377 L 684.452,293.053 L 681.581,294.881 L 678.783,296.862 L 676.096,298.944 L 673.592,301.128 L 671.236,303.363 L 668.991,305.699 L 666.929,308.137 L 665.052,310.626 L 663.322,313.216 L 661.739,315.857 L 660.414,318.6 L 659.162,321.291 L 658.131,324.085 L 657.248,326.98 L 656.659,329.824 L 656.18,332.668 L 655.849,335.563 L 655.812,338.458 L 655.812,338.458 L 655.849,341.353 L 656.18,344.35 L 656.659,347.194 L 657.248,350.089 L 658.131,352.933 L 659.162,355.726 L 660.414,358.418 L 661.739,361.161 L 663.322,363.802 L 665.052,366.341 L 666.929,368.881 L 668.991,371.319 L 671.236,373.604 L 673.592,375.89 L 676.096,378.074 L 678.783,380.156 L 681.581,382.086 L 684.452,383.864 L 687.508,385.692 L 690.6,387.266 L 693.839,388.739 L 697.116,390.111 L 700.539,391.33 L 704,392.345 L 707.57,393.31 L 711.141,394.123 L 714.822,394.783 L 718.504,395.24 L 722.185,395.697 L 725.977,395.85 L 729.695,395.901 L 729.695,395.901 L 733.45,395.85 L 737.204,395.697 L 740.922,395.24 L 744.604,394.783 L 748.248,394.123 L 751.819,393.31 L 755.39,392.345 L 758.887,391.33 L 762.237,390.111 L 765.587,388.739 L 768.826,387.266 L 771.955,385.692 L 774.974,383.864 L 777.845,382.086 L 780.606,380.156 L 783.294,378.074 L 785.797,375.89 L 788.153,373.604 L 790.398,371.319 L 792.46,368.881 L 794.337,366.341 L 796.104,363.802 L 797.614,361.161 L 799.013,358.418 L 800.264,355.726 L 801.258,352.933 L 802.142,350.089 L 802.804,347.194 L 803.283,344.35 L 803.54,341.353 L 803.614,338.458z"/>
      <path style="fill: #ffe9aa; fill-opacity: 1; stroke: none" fill-rule="evenodd" d="M 687.765 368.627 L 687.692,365.732 L 687.434,362.837 L 687.139,359.993 L 686.624,357.098 L 685.961,354.254 L 685.152,351.46 L 684.194,348.718 L 683.164,346.026 L 681.986,343.385 L 680.66,340.794 L 679.225,338.306 L 677.642,335.868 L 675.875,333.532 L 674.071,331.195 L 672.157,329.113 L 670.095,327.031 L 668.034,325.05 L 665.751,323.221 L 663.469,321.495 L 661.039,319.92 L 658.61,318.397 L 656.07,317.076 L 653.419,315.857 L 650.769,314.79 L 648.045,313.876 L 645.284,313.013 L 642.486,312.353 L 639.651,311.896 L 636.854,311.489 L 633.982,311.286 L 631.111,311.184 L 631.111,311.184 L 628.239,311.286 L 625.368,311.489 L 622.497,311.896 L 619.699,312.353 L 616.864,313.013 L 614.104,313.876 L 611.416,314.79 L 608.766,315.857 L 606.152,317.076 L 603.612,318.397 L 601.109,319.92 L 598.753,321.495 L 596.397,323.221 L 594.188,325.05 L 592.09,327.031 L 590.028,329.113 L 588.114,331.195 L 586.273,333.532 L 584.543,335.868 L 582.997,338.306 L 581.524,340.794 L 580.236,343.385 L 579.021,346.026 L 577.954,348.718 L 577.033,351.46 L 576.223,354.254 L 575.561,357.098 L 575.082,359.993 L 574.714,362.837 L 574.493,365.732 L 574.42,368.627 L 574.42,368.627 L 574.493,371.573 L 574.714,374.518 L 575.082,377.363 L 575.561,380.207 L 576.223,383.102 L 577.033,385.794 L 577.954,388.587 L 579.021,391.33 L 580.236,393.971 L 581.524,396.51 L 582.997,399.05 L 584.543,401.487 L 586.273,403.773 L 588.114,406.058 L 590.028,408.242 L 592.09,410.223 L 594.188,412.255 L 596.397,414.032 L 598.753,415.861 L 601.109,417.435 L 603.612,418.908 L 606.152,420.279 L 608.766,421.447 L 611.416,422.514 L 614.104,423.479 L 616.864,424.292 L 619.699,424.952 L 622.497,425.409 L 625.368,425.765 L 628.239,426.019 L 631.111,426.069 L 631.111,426.069 L 633.982,426.019 L 636.854,425.765 L 639.651,425.409 L 642.486,424.952 L 645.284,424.292 L 648.045,423.479 L 650.769,422.514 L 653.419,421.447 L 656.07,420.279 L 658.61,418.908 L 661.039,417.435 L 663.469,415.861 L 665.751,414.032 L 668.034,412.255 L 670.095,410.223 L 672.157,408.242 L 674.071,406.058 L 675.875,403.773 L 677.642,401.487 L 679.225,399.05 L 680.66,396.51 L 681.986,393.971 L 683.164,391.33 L 684.194,388.587 L 685.152,385.794 L 685.961,383.102 L 686.624,380.207 L 687.139,377.363 L 687.434,374.518 L 687.692,371.573 L 687.765,368.627z"/>
      <path style="fill: #ffe9aa; fill-opacity: 1; stroke: none" fill-rule="evenodd" d="M 616.312 427.237 L 616.275,424.901 L 616.165,422.514 L 615.907,420.178 L 615.576,417.791 L 615.097,415.505 L 614.545,413.22 L 613.956,410.985 L 613.257,408.801 L 612.447,406.617 L 611.527,404.433 L 610.533,402.503 L 609.465,400.472 L 608.324,398.491 L 607.109,396.713 L 605.784,394.936 L 604.422,393.31 L 603.023,391.685 L 601.55,390.161 L 599.968,388.79 L 598.348,387.47 L 596.691,386.251 L 594.961,385.133 L 593.231,384.118 L 591.427,383.254 L 589.586,382.492 L 587.746,381.883 L 585.868,381.273 L 583.917,380.918 L 582.003,380.613 L 580.126,380.461 L 578.175,380.359 L 578.175,380.359 L 576.223,380.461 L 574.272,380.613 L 572.358,380.918 L 570.481,381.273 L 568.566,381.883 L 566.689,382.492 L 564.885,383.254 L 563.118,384.118 L 561.314,385.133 L 559.584,386.251 L 557.928,387.47 L 556.308,388.79 L 554.762,390.161 L 553.252,391.685 L 551.854,393.31 L 550.492,394.936 L 549.203,396.713 L 547.951,398.491 L 546.81,400.472 L 545.743,402.503 L 544.749,404.433 L 543.902,406.617 L 543.092,408.801 L 542.393,410.985 L 541.73,413.22 L 541.178,415.505 L 540.773,417.791 L 540.442,420.178 L 540.147,422.514 L 540,424.901 L 540,427.237 L 540,427.237 L 540,429.574 L 540.147,432.012 L 540.442,434.297 L 540.773,436.684 L 541.178,439.02 L 541.73,441.255 L 542.393,443.49 L 543.092,445.674 L 543.902,447.909 L 544.749,450.042 L 545.743,452.022 L 546.81,454.003 L 547.951,455.933 L 549.203,457.762 L 550.492,459.539 L 551.854,461.215 L 553.252,462.841 L 554.762,464.313 L 556.308,465.685 L 557.928,467.005 L 559.584,468.224 L 561.314,469.342 L 563.118,470.357 L 564.885,471.17 L 566.689,471.983 L 568.566,472.643 L 570.481,473.202 L 572.358,473.608 L 574.272,473.862 L 576.223,474.014 L 578.175,474.116 L 578.175,474.116 L 580.126,474.014 L 582.003,473.862 L 583.917,473.608 L 585.868,473.202 L 587.746,472.643 L 589.586,471.983 L 591.427,471.17 L 593.231,470.357 L 594.961,469.342 L 596.691,468.224 L 598.348,467.005 L 599.968,465.685 L 601.55,464.313 L 603.023,462.841 L 604.422,461.215 L 605.784,459.539 L 607.109,457.762 L 608.324,455.933 L 609.465,454.003 L 610.533,452.022 L 611.527,450.042 L 612.447,447.909 L 613.257,445.674 L 613.956,443.49 L 614.545,441.255 L 615.097,439.02 L 615.576,436.684 L 615.907,434.297 L 616.165,432.012 L 616.275,429.574 L 616.312,427.237z"/>
      <path style="fill: #ffe9aa; fill-opacity: 1; stroke: none" fill-rule="evenodd" d="M 677.936 472.389 L 677.9,469.849 L 677.642,467.259 L 677.237,464.72 L 676.758,462.18 L 676.096,459.692 L 675.323,457.203 L 674.329,454.816 L 673.298,452.378 L 672.046,450.093 L 670.721,447.858 L 669.212,445.623 L 667.629,443.49 L 665.935,441.306 L 664.095,439.325 L 662.144,437.446 L 660.082,435.618 L 657.91,433.942 L 655.628,432.316 L 653.309,430.793 L 650.879,429.371 L 648.339,428.101 L 645.762,426.882 L 643.112,425.765 L 640.424,424.8 L 637.663,424.038 L 634.829,423.327 L 632.031,422.717 L 629.16,422.209 L 626.288,421.905 L 623.38,421.752 L 620.435,421.651 L 620.435,421.651 L 617.527,421.752 L 614.656,421.905 L 611.711,422.209 L 608.876,422.717 L 606.005,423.327 L 603.244,424.038 L 600.483,424.8 L 597.759,425.765 L 595.108,426.882 L 592.568,428.101 L 590.028,429.371 L 587.599,430.793 L 585.243,432.316 L 582.997,433.942 L 580.825,435.618 L 578.764,437.446 L 576.812,439.325 L 574.972,441.306 L 573.242,443.49 L 571.659,445.623 L 570.149,447.858 L 568.787,450.093 L 567.609,452.378 L 566.542,454.816 L 565.548,457.203 L 564.738,459.692 L 564.149,462.18 L 563.597,464.72 L 563.229,467.259 L 563.008,469.849 L 562.934,472.389 L 562.934,472.389 L 563.008,474.979 L 563.229,477.519 L 563.597,480.16 L 564.149,482.699 L 564.738,485.137 L 565.548,487.575 L 566.542,490.063 L 567.609,492.451 L 568.787,494.787 L 570.149,497.072 L 571.659,499.307 L 573.242,501.44 L 574.972,503.573 L 576.812,505.605 L 578.764,507.433 L 580.825,509.211 L 582.997,510.989 L 585.243,512.614 L 587.599,514.137 L 590.028,515.56 L 592.568,516.829 L 595.108,518.048 L 597.759,519.064 L 600.483,520.029 L 603.244,520.892 L 606.005,521.553 L 608.876,522.162 L 611.711,522.67 L 614.656,522.924 L 617.527,523.178 L 620.435,523.178 L 620.435,523.178 L 623.38,523.178 L 626.288,522.924 L 629.16,522.67 L 632.031,522.162 L 634.829,521.553 L 637.663,520.892 L 640.424,520.029 L 643.112,519.064 L 645.762,518.048 L 648.339,516.829 L 650.879,515.56 L 653.309,514.137 L 655.628,512.614 L 657.91,510.989 L 660.082,509.211 L 662.144,507.433 L 664.095,505.554 L 665.935,503.472 L 667.629,501.44 L 669.212,499.307 L 670.721,497.072 L 672.046,494.787 L 673.298,492.451 L 674.329,490.063 L 675.323,487.575 L 676.096,485.137 L 676.758,482.699 L 677.237,480.16 L 677.642,477.519 L 677.9,474.979 L 677.936,472.389z"/>
      <path style="fill: #ffe9aa; fill-opacity: 1; stroke: none" fill-rule="evenodd" d="M 815.946 498.647 L 815.799,495.599 L 815.505,492.552 L 814.916,489.505 L 814.142,486.559 L 813.185,483.512 L 812.007,480.617 L 810.608,477.722 L 808.989,474.878 L 807.148,472.084 L 805.16,469.443 L 802.915,466.802 L 800.559,464.161 L 797.982,461.774 L 795.258,459.387 L 792.276,457.101 L 789.257,454.917 L 786.018,452.937 L 782.631,451.007 L 779.171,449.178 L 775.489,447.502 L 771.771,445.979 L 767.906,444.506 L 763.967,443.236 L 759.881,442.169 L 755.795,441.154 L 751.598,440.29 L 747.401,439.63 L 743.058,439.071 L 738.824,438.716 L 734.443,438.411 L 730.1,438.411 L 730.1,438.411 L 725.756,438.411 L 721.412,438.716 L 717.105,439.071 L 712.835,439.63 L 708.564,440.29 L 704.405,441.154 L 700.282,442.169 L 696.269,443.236 L 692.256,444.506 L 688.465,445.979 L 684.673,447.502 L 681.065,449.178 L 677.568,451.007 L 674.218,452.937 L 670.979,454.917 L 667.887,457.101 L 664.978,459.387 L 662.254,461.774 L 659.641,464.161 L 657.248,466.802 L 655.039,469.443 L 653.088,472.084 L 651.247,474.878 L 649.628,477.722 L 648.229,480.617 L 647.014,483.512 L 646.057,486.559 L 645.247,489.505 L 644.695,492.552 L 644.363,495.599 L 644.253,498.647 L 644.253,498.647 L 644.363,501.643 L 644.695,504.742 L 645.247,507.789 L 646.057,510.785 L 647.014,513.782 L 648.229,516.728 L 649.628,519.572 L 651.247,522.416 L 653.088,525.21 L 655.039,527.901 L 657.248,530.492 L 659.641,533.031 L 662.254,535.52 L 664.978,537.907 L 667.887,540.192 L 670.979,542.275 L 674.218,544.408 L 677.568,546.338 L 681.065,548.115 L 684.673,549.791 L 688.465,551.366 L 692.256,552.686 L 696.269,554.007 L 700.282,555.175 L 704.405,556.191 L 708.564,557.003 L 712.835,557.714 L 717.105,558.222 L 721.412,558.629 L 725.756,558.883 L 730.1,558.933 L 730.1,558.933 L 734.443,558.883 L 738.824,558.629 L 743.058,558.222 L 747.401,557.714 L 751.598,557.003 L 755.795,556.191 L 759.881,555.175 L 763.967,554.007 L 767.906,552.686 L 771.771,551.366 L 775.489,549.791 L 779.171,548.115 L 782.631,546.338 L 786.018,544.408 L 789.257,542.275 L 792.276,540.192 L 795.258,537.907 L 797.982,535.52 L 800.559,533.031 L 802.915,530.492 L 805.16,527.901 L 807.148,525.21 L 808.989,522.416 L 810.608,519.572 L 812.007,516.728 L 813.185,513.782 L 814.142,510.785 L 814.916,507.789 L 815.505,504.742 L 815.799,501.643 L 815.946,498.647z"/>
      <path style="fill: #ffe9aa; fill-opacity: 1; stroke: none" fill-rule="evenodd" d="M 863.582 359.688 L 863.545,357.453 L 863.324,355.168 L 862.919,352.882 L 862.477,350.648 L 861.815,348.413 L 861.078,346.229 L 860.158,344.045 L 859.091,341.861 L 857.949,339.829 L 856.698,337.747 L 855.262,335.817 L 853.716,333.887 L 852.096,332.059 L 850.292,330.23 L 848.452,328.554 L 846.427,326.98 L 844.366,325.355 L 842.23,323.983 L 839.948,322.561 L 837.629,321.291 L 835.273,320.174 L 832.77,319.108 L 830.23,318.143 L 827.653,317.33 L 825.002,316.517 L 822.352,315.908 L 819.628,315.451 L 816.903,314.994 L 814.106,314.689 L 811.345,314.587 L 808.547,314.537 L 808.547,314.537 L 805.712,314.587 L 802.951,314.689 L 800.154,314.994 L 797.43,315.451 L 794.742,315.908 L 792.055,316.517 L 789.441,317.33 L 786.828,318.143 L 784.288,319.108 L 781.784,320.174 L 779.392,321.291 L 777.109,322.561 L 774.827,323.983 L 772.692,325.355 L 770.63,326.98 L 768.642,328.554 L 766.765,330.23 L 764.961,332.059 L 763.341,333.887 L 761.832,335.817 L 760.359,337.747 L 759.108,339.829 L 757.967,341.861 L 756.899,344.045 L 755.979,346.229 L 755.243,348.413 L 754.617,350.648 L 754.101,352.882 L 753.77,355.168 L 753.586,357.453 L 753.476,359.688 L 753.476,359.688 L 753.586,361.974 L 753.77,364.208 L 754.101,366.545 L 754.617,368.779 L 755.243,371.065 L 755.979,373.249 L 756.899,375.433 L 757.967,377.464 L 759.108,379.648 L 760.359,381.629 L 761.832,383.559 L 763.341,385.54 L 764.961,387.317 L 766.765,389.146 L 768.642,390.822 L 770.63,392.447 L 772.692,393.971 L 774.827,395.443 L 777.109,396.815 L 779.392,398.085 L 781.784,399.253 L 784.288,400.319 L 786.828,401.233 L 789.441,402.097 L 792.055,402.859 L 794.742,403.468 L 797.43,403.976 L 800.154,404.433 L 802.951,404.687 L 805.712,404.789 L 808.547,404.941 L 808.547,404.941 L 811.345,404.789 L 814.106,404.687 L 816.903,404.433 L 819.628,403.976 L 822.352,403.468 L 825.002,402.859 L 827.653,402.097 L 830.23,401.233 L 832.77,400.319 L 835.273,399.253 L 837.629,398.085 L 839.948,396.815 L 842.23,395.443 L 844.366,393.971 L 846.427,392.447 L 848.452,390.822 L 850.292,389.146 L 852.096,387.317 L 853.716,385.54 L 855.262,383.559 L 856.698,381.629 L 857.949,379.648 L 859.091,377.464 L 860.158,375.433 L 861.078,373.249 L 861.815,371.065 L 862.477,368.779 L 862.919,366.545 L 863.324,364.208 L 863.545,361.974 L 863.582,359.688z"/>
      <path style="fill: #ffe9aa; fill-opacity: 1; stroke: none" fill-rule="evenodd" d="M 879.19 417.74 L 879.08,415.505 L 878.932,413.22 L 878.564,410.934 L 878.086,408.649 L 877.423,406.363 L 876.687,404.179 L 875.803,402.046 L 874.736,399.964 L 873.595,397.831 L 872.343,395.85 L 870.907,393.869 L 869.361,391.99 L 867.778,390.161 L 865.974,388.282 L 864.134,386.657 L 862.22,385.032 L 860.158,383.457 L 857.949,382.086 L 855.777,380.664 L 853.458,379.394 L 851.102,378.277 L 848.636,377.159 L 846.133,376.245 L 843.556,375.433 L 840.905,374.62 L 838.255,374.011 L 835.567,373.503 L 832.806,373.046 L 830.082,372.842 L 827.321,372.69 L 824.56,372.588 L 824.56,372.588 L 821.763,372.69 L 819.039,372.842 L 816.278,373.046 L 813.59,373.503 L 810.903,374.011 L 808.216,374.62 L 805.602,375.433 L 803.062,376.245 L 800.522,377.159 L 798.055,378.277 L 795.699,379.394 L 793.38,380.664 L 791.135,382.086 L 789.036,383.457 L 786.975,385.032 L 784.95,386.657 L 783.11,388.282 L 781.379,390.161 L 779.796,391.99 L 778.25,393.869 L 776.851,395.85 L 775.526,397.831 L 774.385,399.964 L 773.391,402.046 L 772.471,404.179 L 771.661,406.363 L 771.072,408.649 L 770.593,410.934 L 770.225,413.22 L 770.004,415.505 L 769.968,417.74 L 769.968,417.74 L 770.004,419.975 L 770.225,422.26 L 770.593,424.596 L 771.072,426.831 L 771.661,429.117 L 772.471,431.301 L 773.391,433.484 L 774.385,435.516 L 775.526,437.649 L 776.851,439.681 L 778.25,441.611 L 779.796,443.49 L 781.379,445.369 L 783.11,447.198 L 784.95,448.874 L 786.975,450.448 L 789.036,452.022 L 791.135,453.394 L 793.38,454.816 L 795.699,456.086 L 798.055,457.203 L 800.522,458.32 L 803.062,459.285 L 805.602,460.047 L 808.216,460.86 L 810.903,461.469 L 813.59,461.977 L 816.278,462.434 L 819.039,462.688 L 821.763,462.841 L 824.56,462.891 L 824.56,462.891 L 827.321,462.841 L 830.082,462.688 L 832.806,462.434 L 835.567,461.977 L 838.255,461.469 L 840.905,460.86 L 843.556,460.047 L 846.133,459.285 L 848.636,458.32 L 851.102,457.203 L 853.458,456.086 L 855.777,454.816 L 857.949,453.394 L 860.158,452.022 L 862.22,450.448 L 864.134,448.874 L 865.974,447.198 L 867.778,445.369 L 869.361,443.49 L 870.907,441.611 L 872.343,439.681 L 873.595,437.649 L 874.736,435.516 L 875.803,433.484 L 876.687,431.301 L 877.423,429.117 L 878.086,426.831 L 878.564,424.596 L 878.932,422.26 L 879.08,419.975 L 879.19,417.74z"/>
      <path style="fill: #ffe9aa; fill-opacity: 1; stroke: none" fill-rule="evenodd" d="M 868.515 465.736 L 868.441,461.977 L 868.22,458.27 L 867.926,454.562 L 867.447,450.804 L 866.821,447.147 L 866.048,443.49 L 865.165,439.985 L 864.097,436.481 L 862.956,433.078 L 861.741,429.777 L 860.342,426.526 L 858.796,423.377 L 857.176,420.33 L 855.409,417.435 L 853.569,414.591 L 851.654,412.001 L 849.593,409.461 L 847.495,407.125 L 845.249,404.839 L 842.967,402.808 L 840.611,400.929 L 838.218,399.202 L 835.715,397.627 L 833.175,396.155 L 830.524,394.936 L 827.91,393.971 L 825.186,393.056 L 822.499,392.396 L 819.812,391.99 L 817.087,391.685 L 814.327,391.584 L 814.327,391.584 L 811.566,391.685 L 808.841,391.99 L 806.081,392.396 L 803.393,393.056 L 800.743,393.971 L 798.055,394.936 L 795.479,396.155 L 792.939,397.627 L 790.435,399.202 L 787.969,400.929 L 785.613,402.808 L 783.33,404.839 L 781.159,407.125 L 778.987,409.461 L 776.962,412.001 L 775.011,414.591 L 773.17,417.435 L 771.44,420.33 L 769.783,423.377 L 768.311,426.526 L 766.912,429.777 L 765.624,433.078 L 764.482,436.481 L 763.489,439.985 L 762.605,443.49 L 761.832,447.147 L 761.206,450.804 L 760.728,454.562 L 760.359,458.27 L 760.139,461.977 L 760.065,465.736 L 760.065,465.736 L 760.139,469.494 L 760.359,473.303 L 760.728,477.011 L 761.206,480.668 L 761.832,484.375 L 762.605,487.93 L 763.489,491.486 L 764.482,494.99 L 765.624,498.393 L 766.912,501.796 L 768.311,505.046 L 769.783,508.144 L 771.44,511.141 L 773.17,514.036 L 775.011,516.829 L 776.962,519.572 L 778.987,522.111 L 781.159,524.448 L 783.33,526.632 L 785.613,528.714 L 787.969,530.644 L 790.435,532.371 L 792.939,533.945 L 795.479,535.367 L 798.055,536.535 L 800.743,537.602 L 803.393,538.415 L 806.081,539.075 L 808.841,539.583 L 811.566,539.888 L 814.327,539.989 L 814.327,539.989 L 817.087,539.888 L 819.812,539.583 L 822.499,539.075 L 825.186,538.415 L 827.91,537.602 L 830.524,536.535 L 833.175,535.367 L 835.715,533.945 L 838.218,532.371 L 840.611,530.644 L 842.967,528.714 L 845.249,526.632 L 847.495,524.448 L 849.593,522.111 L 851.654,519.572 L 853.569,516.829 L 855.409,514.036 L 857.176,511.141 L 858.796,505.554 L 860.342,505.046 L 861.741,501.796 L 862.956,498.393 L 864.097,494.99 L 865.165,491.486 L 866.048,487.93 L 866.821,484.375 L 867.447,480.668 L 867.926,477.011 L 868.22,473.303 L 868.441,469.494 L 868.515,465.736z"/>
      <path style="fill: #ffe9aa; fill-opacity: 1; stroke: none" fill-rule="evenodd" d="M 821.689 421.092 L 821.542,417.334 L 821.1,413.575 L 820.401,409.817 L 819.443,406.109 L 818.192,402.503 L 816.646,398.897 L 814.842,395.291 L 812.744,391.787 L 810.461,388.333 L 807.884,385.083 L 805.013,381.832 L 801.958,378.683 L 798.644,375.636 L 795.11,372.69 L 791.356,369.897 L 787.453,367.256 L 783.294,364.716 L 778.95,362.431 L 774.495,360.145 L 769.82,358.063 L 764.998,356.184 L 760.065,354.457 L 755.022,352.882 L 749.868,351.46 L 744.567,350.241 L 739.192,349.175 L 733.781,348.413 L 728.296,347.651 L 722.774,347.245 L 717.215,346.94 L 711.583,346.889 L 711.583,346.889 L 706.024,346.94 L 700.466,347.245 L 694.944,347.651 L 689.422,348.413 L 684.01,349.175 L 678.636,350.241 L 673.372,351.46 L 668.218,352.882 L 663.101,354.457 L 658.242,356.184 L 653.419,358.063 L 648.707,360.145 L 644.216,362.431 L 639.946,364.716 L 635.749,367.256 L 631.81,369.897 L 628.129,372.69 L 624.558,375.636 L 621.245,378.683 L 618.227,381.832 L 615.355,385.083 L 612.815,388.333 L 610.496,391.787 L 608.361,395.291 L 606.594,398.897 L 605.084,402.503 L 603.759,406.109 L 602.802,409.817 L 602.103,413.575 L 601.661,417.334 L 601.55,421.092 L 601.55,421.092 L 601.661,424.8 L 602.103,428.558 L 602.802,432.316 L 603.759,436.024 L 605.084,439.681 L 606.594,443.236 L 608.361,446.842 L 610.496,450.346 L 612.815,453.8 L 615.355,457.101 L 618.227,460.301 L 621.245,463.45 L 624.558,466.497 L 628.129,469.443 L 631.81,472.237 L 635.749,474.878 L 639.946,477.417 L 644.216,479.703 L 648.707,482.039 L 653.419,484.07 L 658.242,485.95 L 663.101,487.676 L 668.218,489.251 L 673.372,490.673 L 678.636,491.892 L 684.01,492.958 L 689.422,493.72 L 694.944,494.431 L 700.466,494.888 L 706.024,495.193 L 711.583,495.244 L 711.583,495.244 L 717.215,495.193 L 722.774,494.888 L 728.296,494.431 L 733.781,493.72 L 739.192,492.958 L 744.567,491.892 L 749.868,490.673 L 755.022,489.251 L 760.065,487.676 L 764.998,485.95 L 769.82,484.07 L 774.495,482.039 L 778.95,479.703 L 783.294,477.417 L 787.453,474.878 L 791.356,472.237 L 795.11,469.443 L 798.644,466.497 L 801.958,463.45 L 805.013,460.301 L 807.884,457.101 L 810.461,453.8 L 812.744,450.346 L 814.842,446.842 L 816.646,443.236 L 818.192,439.681 L 819.443,436.024 L 820.401,432.316 L 821.1,428.558 L 821.542,424.8 L 821.689,421.092z"/>
      <path style="fill: #ffe9aa; fill-opacity: 1; stroke: none" fill-rule="evenodd" d="M 730.541 338.001 L 803.393,325.151 L 802.473,322.307 L 801.332,319.565 L 800.08,316.771 L 798.571,314.029 L 796.951,311.388 L 795.11,308.848 L 793.196,306.309 L 790.987,303.972 L 788.742,301.585 L 786.312,299.351 L 783.699,297.217 L 780.974,295.237 L 778.103,293.307 L 775.121,291.428 L 772.029,289.751 L 768.826,288.228 L 765.587,286.704 L 762.163,285.434 L 758.703,284.317 L 755.206,283.2 L 751.561,282.286 L 747.917,281.574 L 744.236,280.914 L 740.518,280.508 L 736.763,280.203 L 732.971,280 L 729.216,280 L 725.424,280.051 L 721.633,280.356 L 717.951,280.813 L 714.233,281.321 L 710.552,282.133 L 706.908,282.895 L 703.337,283.962 L 699.877,285.079 L 696.49,286.349 L 693.14,287.771 L 689.9,289.244 L 686.845,290.97 L 683.826,292.697 L 680.918,294.576 L 678.157,296.557 L 675.544,298.69 L 673.077,300.925 L 670.721,303.16 L 668.512,305.648 L 666.451,308.086 L 664.573,310.677 L 662.954,313.267 L 661.371,315.908 L 660.009,318.701 L 658.867,321.495 L 657.91,324.339 L 657.1,327.183 L 730.541,338.001z"/>
      <path style="fill: none; stroke-opacity: 1; stroke-width: 0.02; stroke: #805d00" d="M 803.393 325.05 L 802.436,322.206 L 801.332,319.412 L 800.043,316.67 L 798.571,313.978 L 796.877,311.337 L 795.074,308.797 L 793.123,306.309 L 790.914,303.82 L 788.631,301.585 L 786.275,299.351 L 783.625,297.116 L 780.974,295.135 L 778.066,293.205 L 775.084,291.428 L 772.029,289.701 L 768.826,288.177 L 765.55,286.704 L 762.126,285.384 L 758.666,284.165 L 755.206,283.149 L 751.561,282.286 L 747.88,281.574 L 744.199,280.914 L 740.481,280.508 L 736.763,280.203 L 732.934,280 L 729.179,280 L 725.424,280.051 L 721.67,280.356 L 717.915,280.813 L 714.233,281.321 L 710.552,282.082 L 706.945,282.895 L 703.411,283.962 L 699.877,285.079 L 696.527,286.349 L 693.177,287.771 L 689.974,289.193 L 686.845,290.869 L 683.863,292.697 L 680.955,294.576 L 678.194,296.506 L 675.58,298.69 L 673.077,300.874 L 670.721,303.16 L 668.512,305.598 L 666.524,307.985 L 664.61,310.524 L 662.954,313.216 L 661.408,315.857 L 660.082,318.6 L 658.867,321.342 L 657.91,324.186 L 657.137,327.031"/>
      <path style="fill: #ffe9aa; fill-opacity: 1; stroke: none" fill-rule="evenodd" d="M 631.479 368.119 L 668.218,323.577 L 665.935,321.85 L 663.543,320.073 L 661.113,318.447 L 658.61,317.076 L 656.07,315.705 L 653.419,314.537 L 650.695,313.419 L 648.008,312.556 L 645.173,311.743 L 642.375,311.083 L 639.504,310.677 L 636.633,310.321 L 633.761,310.118 L 630.89,310.118 L 627.982,310.118 L 625.11,310.473 L 622.239,310.778 L 619.405,311.388 L 616.607,312.048 L 613.846,312.962 L 611.085,313.927 L 608.434,314.994 L 605.784,316.263 L 603.244,317.685 L 600.777,319.209 L 598.421,320.834 L 596.065,322.561 L 593.857,324.44 L 591.758,326.421 L 589.697,328.554 L 587.783,330.789 L 586.016,333.024 L 584.322,335.462 L 582.776,337.95 L 581.304,340.49 L 580.015,343.08 L 578.8,345.721 L 577.77,348.514 L 576.849,351.308 L 576.113,354.152 L 575.524,356.996 L 575.009,359.891 L 574.641,362.837 L 574.493,365.732 L 574.42,368.627 L 574.53,371.623 L 574.751,374.569 L 575.193,377.413 L 631.479,368.119z"/>
      <path style="fill: none; stroke-opacity: 1; stroke-width: 0.02; stroke: #805d00" d="M 668.034 323.475 L 665.751,321.647 L 663.432,319.971 L 661.003,318.397 L 658.463,316.974 L 655.849,315.603 L 653.235,314.486 L 650.548,313.368 L 647.787,312.454 L 645.026,311.743 L 642.155,311.083 L 639.32,310.626 L 636.485,310.321 L 633.614,310.118 L 630.669,310.118 L 627.871,310.169 L 625,310.473 L 622.055,310.829 L 619.257,311.388 L 616.496,312.099 L 613.662,313.013 L 610.974,313.927 L 608.324,315.146 L 605.71,316.416 L 603.133,317.736 L 600.667,319.311 L 598.311,320.936 L 596.029,322.714 L 593.82,324.491 L 591.648,326.574 L 589.697,328.656 L 587.746,330.84 L 585.942,333.176 L 584.285,335.512 L 582.702,338.001 L 581.304,340.591 L 580.015,343.131 L 578.8,345.873 L 577.733,348.565 L 576.849,351.409 L 576.113,354.203 L 575.45,357.098 L 575.009,359.993 L 574.641,362.888 L 574.493,365.732 L 574.42,368.779 L 574.604,371.674 L 574.825,374.569 L 575.193,377.464"/>
      <path style="fill: #ffe9aa; fill-opacity: 1; stroke: none" fill-rule="evenodd" d="M 621.245 471.881 L 562.124,470.357 L 562.124,472.948 L 562.235,475.538 L 562.529,478.23 L 563.008,480.82 L 563.56,483.41 L 564.259,485.95 L 565.18,488.489 L 566.137,490.978 L 567.352,493.314 L 568.64,495.752 L 570.002,498.088 L 571.622,500.323 L 573.242,502.507 L 575.082,504.64 L 576.96,506.621 L 578.984,508.551 L 581.156,510.379 L 583.365,512.055 L 585.684,513.782 L 588.114,515.255 L 590.617,516.728 L 593.231,518.048 L 595.881,519.216 L 598.532,520.283 L 601.33,521.248 L 604.164,522.061 L 607.036,522.772 L 609.944,523.33 L 612.852,523.787 L 615.797,524.092 L 618.779,524.295 L 621.797,524.295 L 624.706,524.143 L 627.687,523.991 L 630.632,523.635 L 633.54,523.178 L 636.485,522.518 L 639.283,521.807 L 642.155,520.943 L 644.842,519.927 L 647.566,518.759 L 650.217,517.591 L 652.72,516.22 L 655.26,514.798 L 657.579,513.223 L 659.898,511.496 L 621.245,471.881z"/>
      <path style="fill: none; stroke-opacity: 1; stroke-width: 0.02; stroke: #805d00" d="M 562.198 470.357 L 562.087,472.948 L 562.308,475.538 L 562.529,478.128 L 563.008,480.769 L 563.56,483.359 L 564.296,485.95 L 565.18,488.489 L 566.21,490.927 L 567.352,493.314 L 568.566,495.701 L 570.002,498.037 L 571.511,500.272 L 573.242,502.456 L 575.009,504.589 L 576.923,506.57 L 578.911,508.5 L 581.046,510.328 L 583.255,512.055 L 585.574,513.68 L 588.003,515.204 L 590.507,516.677 L 593.047,517.947 L 595.697,519.115 L 598.458,520.232 L 601.182,521.197 L 603.98,521.959 L 606.851,522.772 L 609.796,523.229 L 612.705,523.787 L 615.613,524.041 L 618.595,524.295 L 621.576,524.295 L 624.521,524.194 L 627.466,524.041 L 630.411,523.686 L 633.32,523.178 L 636.265,522.518 L 639.062,521.857 L 641.934,520.943 L 644.658,519.978 L 647.308,518.912 L 649.959,517.693 L 652.499,516.321 L 655.039,514.899 L 657.432,513.325 L 659.677,511.7"/>
      <path style="fill: #ffe9aa; fill-opacity: 1; stroke: none" fill-rule="evenodd" d="M 809.357 358.621 L 861.373,373.299 L 862.256,371.116 L 862.919,368.932 L 863.545,366.646 L 863.913,364.411 L 864.281,362.177 L 864.355,359.891 L 864.355,357.504 L 864.281,355.219 L 863.987,352.984 L 863.582,350.749 L 862.993,348.464 L 862.293,346.28 L 861.483,344.096 L 860.526,341.861 L 859.422,339.829 L 858.17,337.747 L 856.771,335.766 L 855.336,333.735 L 853.753,331.957 L 852.059,330.078 L 850.256,328.3 L 848.268,326.675 L 846.28,325.101 L 844.108,323.577 L 841.936,322.206 L 839.654,320.936 L 837.298,319.666 L 834.831,318.6 L 832.328,317.533 L 829.751,316.67 L 827.1,315.857 L 824.487,315.197 L 821.726,314.587 L 819.002,314.181 L 816.241,313.826 L 813.443,313.622 L 810.682,313.419 L 807.921,313.521 L 805.123,313.622 L 802.326,313.876 L 799.602,314.232 L 796.841,314.638 L 794.117,315.197 L 791.429,315.908 L 809.357,358.621z"/>
      <path style="fill: none; stroke-opacity: 1; stroke-width: 0.02; stroke: #805d00" d="M 856.587 381.578 L 861.336,373.401 L 862.22,371.166 L 862.919,369.033 L 863.471,366.748 L 863.913,364.462 L 864.207,362.227 L 864.318,359.993 L 864.355,357.656 L 864.244,355.32 L 863.987,353.035 L 863.582,350.8 L 862.993,348.565 L 862.293,346.33 L 861.52,344.147 L 860.563,341.963 L 859.422,339.931 L 858.17,337.798 L 856.882,335.817 L 855.372,333.887 L 853.79,332.008 L 852.096,330.129 L 850.292,328.453 L 848.378,326.827 L 846.353,325.151 L 844.255,323.679 L 842.01,322.206 L 839.727,320.936 L 837.371,319.717 L 834.905,318.65 L 832.401,317.635 L 829.861,316.72 L 827.248,315.857 L 824.56,315.197 L 821.91,314.587 L 819.186,314.181 L 816.425,313.876 L 813.627,313.622 L 810.829,313.419 L 807.995,313.419 L 805.234,313.622 L 802.436,313.876 L 799.675,314.181 L 796.951,314.587 L 794.264,315.197 L 791.576,315.857"/>
      <path style="fill: #ffe9aa; fill-opacity: 1; stroke: none" fill-rule="evenodd" d="M 816.756 418.349 L 875.325,436.887 L 876.503,434.5 L 877.46,432.062 L 878.343,429.523 L 879.043,426.983 L 879.521,424.444 L 879.853,421.905 L 879.963,419.264 L 879.963,416.724 L 879.742,414.134 L 879.411,411.493 L 878.822,408.953 L 878.123,406.516 L 877.202,403.976 L 876.208,401.538 L 874.957,399.05 L 873.558,396.764 L 872.049,394.529 L 870.318,392.244 L 868.478,390.111 L 816.756,418.349z"/>
      <path style="fill: none; stroke-opacity: 1; stroke-width: 0.02; stroke: #805d00" d="M 867.889 445.318 L 875.251,437.04 L 876.356,434.602 L 877.46,432.062 L 878.307,429.574 L 879.006,426.983 L 879.485,424.444 L 879.853,421.905 L 880,419.264 L 879.963,416.724 L 879.742,414.032 L 879.337,411.493 L 878.822,408.903 L 878.123,406.363 L 877.202,403.874 L 876.172,401.437 L 874.883,398.999 L 873.521,396.662 L 871.901,394.326 L 870.245,392.091 L 868.367,389.907 L 856.587,381.578"/>
      <path style="fill: #ffe9aa; fill-opacity: 1; stroke: none" fill-rule="evenodd" d="M 814.29 467.361 L 795.81,537.907 L 798.534,539.024 L 801.295,539.989 L 804.056,540.853 L 806.927,541.462 L 809.725,541.868 L 812.523,542.071 L 815.431,542.122 L 818.265,541.868 L 821.063,541.564 L 823.898,540.954 L 826.659,540.243 L 829.42,539.329 L 832.144,538.161 L 834.831,536.84 L 837.408,535.367 L 839.985,533.691 L 842.488,531.914 L 844.918,529.831 L 847.274,527.647 L 849.519,525.362 L 851.654,522.873 L 853.716,520.283 L 855.704,517.49 L 857.581,514.595 L 859.275,511.649 L 860.894,508.5 L 862.44,505.3 L 863.803,501.897 L 865.017,498.545 L 866.159,494.99 L 867.116,491.435 L 867.999,487.829 L 868.699,484.121 L 869.288,480.363 L 869.656,476.655 L 869.987,472.846 L 870.061,469.037 L 870.061,465.228 L 869.913,461.469 L 869.619,457.66 L 869.177,453.902 L 868.625,450.143 L 867.889,446.486 L 814.29,467.361z"/>
      <path style="fill: none; stroke-opacity: 1; stroke-width: 0.02; stroke: #805d00" d="M 795.957 538.008 L 798.718,539.075 L 801.442,540.141 L 804.24,540.903 L 807.038,541.513 L 809.909,541.868 L 812.707,542.122 L 815.541,542.173 L 818.376,541.868 L 821.247,541.564 L 824.045,540.954 L 826.806,540.243 L 829.567,539.278 L 832.291,538.059 L 834.942,536.789 L 837.592,535.266 L 840.132,533.64 L 842.599,531.761 L 844.991,529.831 L 847.347,527.597 L 849.593,525.26 L 851.728,522.772 L 853.79,520.181 L 855.777,517.439 L 857.618,514.544 L 859.385,511.446 L 860.931,508.398 L 862.477,505.046 L 863.839,501.796 L 865.054,498.393 L 866.159,494.888 L 867.152,491.282 L 868.036,487.575 L 868.699,483.969 L 869.288,480.261 L 869.729,476.503 L 869.987,472.694 L 870.061,468.884 L 870.061,465.075 L 869.877,461.266 L 869.619,457.457 L 869.14,453.648 L 868.515,449.991 L 867.889,446.334"/>
      <path style="fill: #ffe9aa; fill-opacity: 1; stroke: none" fill-rule="evenodd" d="M 580.162 427.237 L 577.365,379.394 L 575.303,379.648 L 573.352,379.953 L 571.291,380.461 L 569.303,381.019 L 567.352,381.832 L 565.437,382.594 L 563.56,383.559 L 561.719,384.676 L 559.879,385.794 L 558.149,387.063 L 556.455,388.536 L 554.835,390.06 L 553.252,391.634 L 551.817,393.31 L 550.381,395.088 L 549.056,396.866 L 547.804,398.796 L 546.663,400.878 L 545.522,402.859 L 544.528,405.043 L 543.681,407.277 L 542.871,409.512 L 542.098,411.747 L 541.509,414.134 L 541.031,416.47 L 540.589,418.908 L 540.258,421.244 L 540.11,423.733 L 540,426.171 L 540,428.558 L 540.11,431.047 L 540.331,433.484 L 540.663,435.872 L 541.031,438.309 L 541.583,440.646 L 542.172,442.931 L 542.908,445.318 L 543.718,447.502 L 544.638,449.686 L 545.632,451.819 L 546.773,453.902 L 547.915,455.832 L 549.203,457.762 L 550.565,459.641 L 551.964,461.469 L 553.473,463.095 L 555.056,464.669 L 556.676,466.091 L 558.406,467.564 L 560.1,468.834 L 561.94,470.002 L 580.162,427.237z"/>
      <path style="fill: none; stroke-opacity: 1; stroke-width: 0.02; stroke: #805d00" d="M 577.365 379.394 L 575.414,379.648 L 573.389,379.953 L 571.401,380.461 L 569.487,381.019 L 567.536,381.73 L 565.621,382.492 L 563.781,383.457 L 561.977,384.473 L 560.173,385.641 L 558.517,386.911 L 556.786,388.231 L 555.204,389.704 L 553.657,391.177 L 552.185,392.853 L 550.712,394.58 L 549.424,396.358 L 548.136,398.237 L 546.994,400.218 L 545.89,402.198 L 544.933,404.281 L 544.013,406.363 L 543.129,408.547 L 542.393,410.782 L 541.73,413.017 L 541.178,415.404 L 540.773,417.74 L 540.368,420.076 L 540.147,422.463 L 540,424.901 L 540,427.288 L 540,429.675 L 540.221,432.062 L 540.442,434.5 L 540.773,436.786 L 541.252,439.122 L 541.73,441.458 L 542.393,443.744 L 543.203,445.979 L 544.013,448.163 L 544.933,450.346 L 545.964,452.378 L 547.031,454.359 L 548.172,456.39 L 549.424,458.168 L 550.786,459.996 L 552.222,461.723 L 553.694,463.399 L 555.277,464.821 L 556.823,466.294 L 558.517,467.615 L 560.247,468.884 L 562.014,470.103"/>
      <path style="fill: #ffe9aa; fill-opacity: 1; stroke: none" fill-rule="evenodd" d="M 729.29 504.183 L 645.505,509.77 L 646.057,512.563 L 646.756,515.306 L 647.713,518.048 L 648.928,520.689 L 650.217,523.432 L 651.799,526.022 L 653.53,528.562 L 655.481,531.05 L 657.653,533.488 L 659.972,535.875 L 662.401,538.059 L 665.089,540.294 L 667.887,542.427 L 670.868,544.408 L 673.997,546.287 L 677.237,548.065 L 680.697,549.741 L 684.158,551.315 L 687.802,552.686 L 691.52,554.108 L 695.422,555.226 L 699.324,556.343 L 703.263,557.207 L 707.386,558.07 L 711.509,558.73 L 715.669,559.289 L 719.792,559.644 L 724.026,559.898 L 728.296,560 L 732.492,559.949 L 736.763,559.746 L 740.959,559.391 L 745.119,559.035 L 749.242,558.375 L 753.365,557.714 L 757.341,556.8 L 761.317,555.785 L 765.182,554.616 L 769.01,553.347 L 772.692,552.026 L 776.226,550.502 L 779.686,548.877 L 783.036,547.15 L 786.239,545.322 L 789.294,543.392 L 792.129,541.259 L 794.89,539.176 L 797.43,536.891 L 799.859,534.605 L 802.105,532.269 L 804.093,529.831 L 805.933,527.292 L 807.627,524.702 L 809.062,522.061 L 729.29,504.183z"/>
      <path style="fill: none; stroke-opacity: 1; stroke-width: 0.02; stroke: #805d00" d="M 645.578 509.82 L 646.057,512.614 L 646.793,515.306 L 647.713,518.099 L 648.928,520.842 L 650.29,523.483 L 651.799,526.022 L 653.566,528.562 L 655.481,531.101 L 657.653,533.488 L 659.972,535.875 L 662.401,538.059 L 665.089,540.294 L 667.96,542.427 L 670.868,544.408 L 673.997,546.287 L 677.237,548.065 L 680.697,549.741 L 684.158,551.315 L 687.802,552.686 L 691.52,554.108 L 695.349,555.226 L 699.251,556.343 L 703.227,557.207 L 707.35,558.019 L 711.436,558.73 L 715.595,559.238 L 719.755,559.644 L 723.952,559.898 L 728.185,560 L 732.419,559.949 L 736.615,559.746 L 740.812,559.391 L 745.045,559.035 L 749.168,558.375 L 753.218,557.664 L 757.267,556.8 L 761.206,555.835 L 765.071,554.616 L 768.863,553.397 L 772.508,552.026 L 776.115,550.502 L 779.576,548.928 L 782.889,547.201 L 786.091,545.373 L 789.11,543.443 L 792.055,541.411 L 794.779,539.227 L 797.356,537.043 L 799.786,534.656 L 801.958,532.371 L 804.019,529.831 L 805.86,527.343 L 807.479,524.752 L 808.989,522.162"/>
    </g>
    <g>
      <path style="fill: #1e90ff; fill-opacity: 1; stroke-opacity: 1; stroke-width: 2; stroke: #000000" fill-rule="evenodd" d="M 380 336.388 L 460,336.388 C 482.091,336.388 500,346.735 500,359.499 C 500,372.263 482.091,382.61 460,382.61 L 380,382.61 L 380,336.388z"/>
      <text font-size="22.5778" style="fill: #000000; fill-opacity: 1; stroke: none;text-anchor:middle;font-family:sans-serif;font-style:normal;font-weight:normal" x="420" y="370.788">
        <tspan x="420" y="370.788">pi</tspan>
      </text>
    </g>
    <g>
      <path style="fill: #1e90ff; fill-opacity: 1; stroke-opacity: 1; stroke-width: 2; stroke: #000000" fill-rule="evenodd" d="M 380 397.528 L 460,397.528 C 482.091,397.528 500,407.875 500,420.639 C 500,433.403 482.091,443.75 460,443.75 L 380,443.75 L 380,397.528z"/>
      <text font-size="22.5778" style="fill: #000000; fill-opacity: 1; stroke: none;text-anchor:middle;font-family:sans-serif;font-style:normal;font-weight:normal" x="420" y="431.928">
        <tspan x="420" y="431.928">radius</tspan>
      </text>
    </g>
    <g>
      <path style="fill: #1e90ff; fill-opacity: 1; stroke-opacity: 1; stroke-width: 2; stroke: #000000" fill-rule="evenodd" d="M 380 457.528 L 460,457.528 C 482.091,457.528 500,467.875 500,480.639 C 500,493.403 482.091,503.75 460,503.75 L 380,503.75 L 380,457.528z"/>
      <text font-size="22.5778" style="fill: #000000; fill-opacity: 1; stroke: none;text-anchor:middle;font-family:sans-serif;font-style:normal;font-weight:normal" x="420" y="491.928">
        <tspan x="420" y="491.928">area</tspan>
      </text>
    </g>
    <g>
      <rect style="fill: #ffa500; fill-opacity: 1; stroke-opacity: 1; stroke-width: 2; stroke: #000000" x="700" y="320" width="80" height="40" rx="2" ry="2"/>
      <text font-size="22.5778" style="fill: #000000; fill-opacity: 1; stroke: none;text-anchor:middle;font-family:sans-serif;font-style:normal;font-weight:normal" x="740" y="350.039">
        <tspan x="740" y="350.039">3.14</tspan>
      </text>
    </g>
    <g>
      <rect style="fill: #ffa500; fill-opacity: 1; stroke-opacity: 1; stroke-width: 2; stroke: #000000" x="700" y="380" width="80" height="40" rx="2" ry="2"/>
      <text font-size="22.5778" style="fill: #000000; fill-opacity: 1; stroke: none;text-anchor:middle;font-family:sans-serif;font-style:normal;font-weight:normal" x="740" y="410.039">
        <tspan x="740" y="410.039">2.5</tspan>
      </text>
    </g>
    <g>
      <rect style="fill: #ffa500; fill-opacity: 1; stroke-opacity: 1; stroke-width: 2; stroke: #000000" x="700" y="440" width="80" height="40" rx="2" ry="2"/>
      <text font-size="22.5778" style="fill: #000000; fill-opacity: 1; stroke: none;text-anchor:middle;font-family:sans-serif;font-style:normal;font-weight:normal" x="740" y="470.039">
        <tspan x="740" y="470.039">3.5</tspan>
      </text>
    </g>
    <g>
      <rect style="fill: #ffa500; fill-opacity: 1; stroke-opacity: 1; stroke-width: 2; stroke: #000000" x="700" y="500" width="80" height="40" rx="2" ry="2"/>
      <text font-size="22.5778" style="fill: #000000; fill-opacity: 1; stroke: none;text-anchor:middle;font-family:sans-serif;font-style:normal;font-weight:normal" x="740" y="530.039">
        <tspan x="740" y="530.039">19.625</tspan>
      </text>
    </g>
    <g>
      <path style="fill: none; stroke-opacity: 1; stroke-width: 2; stroke: #000000" d="M 480 360 C 540,360.5 640,340 690.264,340"/>
      <path style="fill: #000000; fill-opacity: 1; stroke-opacity: 1; stroke-width: 2; stroke: #000000" fill-rule="evenodd" d="M 480 360 C 480.021,357.5 482.542,355.021 485.041,355.042 C 487.541,355.063 490.02,357.583 490,360.083 C 489.979,362.583 487.458,365.062 484.958,365.041 C 482.458,365.021 479.979,362.5 480,360z"/>
      <polygon style="fill: #000000; fill-opacity: 1; stroke-opacity: 1; stroke-width: 2; stroke: #000000" fill-rule="evenodd" points="697.764,340 687.764,345 690.264,340 687.764,335 "/>
    </g>
    <g>
      <path style="fill: none; stroke-opacity: 1; stroke-width: 2; stroke: #000000" d="M 480 420 C 540,420.5 638.992,400 689.256,400"/>
      <path style="fill: #000000; fill-opacity: 1; stroke-opacity: 1; stroke-width: 2; stroke: #000000" fill-rule="evenodd" d="M 480 420 C 480.021,417.5 482.542,415.021 485.041,415.042 C 487.541,415.063 490.02,417.583 490,420.083 C 489.979,422.583 487.458,425.062 484.958,425.041 C 482.458,425.021 479.979,422.5 480,420z"/>
      <polygon style="fill: #000000; fill-opacity: 1; stroke-opacity: 1; stroke-width: 2; stroke: #000000" fill-rule="evenodd" points="696.756,400 686.756,405 689.256,400 686.756,395 "/>
    </g>
    <g>
      <path style="fill: none; stroke-opacity: 1; stroke-width: 2; stroke: #000000" d="M 480 420 C 540,420.5 639.009,460 689.273,460"/>
      <path style="fill: #000000; fill-opacity: 1; stroke-opacity: 1; stroke-width: 2; stroke: #000000" fill-rule="evenodd" d="M 480 420 C 480.021,417.5 482.542,415.021 485.041,415.042 C 487.541,415.063 490.02,417.583 490,420.083 C 489.979,422.583 487.458,425.062 484.958,425.041 C 482.458,425.021 479.979,422.5 480,420z"/>
      <polygon style="fill: #000000; fill-opacity: 1; stroke-opacity: 1; stroke-width: 2; stroke: #000000" fill-rule="evenodd" points="696.773,460 686.773,465 689.273,460 686.773,455 "/>
    </g>
    <text font-size="56.4444" style="fill: #ff0000; fill-opacity: 1; stroke: none;text-anchor:middle;font-family:sans-serif;font-style:normal;font-weight:normal" x="660" y="421.9">
      <tspan x="660" y="421.9">×</tspan>
    </text>
    <g>
      <path style="fill: none; stroke-opacity: 1; stroke-width: 2; stroke: #000000" d="M 480 480 C 540,480.5 639.009,520 689.273,520"/>
      <path style="fill: #000000; fill-opacity: 1; stroke-opacity: 1; stroke-width: 2; stroke: #000000" fill-rule="evenodd" d="M 480 480 C 480.021,477.5 482.542,475.021 485.041,475.042 C 487.541,475.063 490.02,477.583 490,480.083 C 489.979,482.583 487.458,485.062 484.958,485.041 C 482.458,485.021 479.979,482.5 480,480z"/>
      <polygon style="fill: #000000; fill-opacity: 1; stroke-opacity: 1; stroke-width: 2; stroke: #000000" fill-rule="evenodd" points="696.773,520 686.773,525 689.273,520 686.773,515 "/>
    </g>
  </g>
</svg>
