<?xml version="1.0" encoding="UTF-8" standalone="no"?>
<!DOCTYPE svg PUBLIC "-//W3C//DTD SVG 1.0//EN" "http://www.w3.org/TR/2001/PR-SVG-20010719/DTD/svg10.dtd">
<svg width="9cm" height="12cm" viewBox="218 37 163 224" xmlns="http://www.w3.org/2000/svg" xmlns:xlink="http://www.w3.org/1999/xlink">
  <g id="Background"/>
  <g id="Background">
    <g>
      <path style="fill: #90ee90; fill-opacity: 1; stroke-opacity: 1; stroke-width: 2; stroke: #000000" fill-rule="evenodd" d="M 273.333 40 L 326.667,40 C 334.03,40 340,48.9543 340,60 C 340,71.0457 334.03,80 326.667,80 L 273.333,80 C 265.97,80 260,71.0457 260,60 C 260,48.9543 265.97,40 273.333,40z"/>
      <text font-size="12.8" style="fill: #000000; fill-opacity: 1; stroke: none;text-anchor:middle;font-family:sans-serif;font-style:normal;font-weight:normal" x="300" y="66.4">
        <tspan x="300" y="66.4">Start</tspan>
      </text>
    </g>
    <g>
      <polygon style="fill: #add8e6; fill-opacity: 1; stroke-opacity: 1; stroke-width: 2; stroke-dasharray: 10; stroke: #000000" fill-rule="evenodd" points="234.559,100 380,100 365.441,140 220,140 "/>
      <text font-size="12.8" style="fill: #000000; fill-opacity: 1; stroke: none;text-anchor:middle;font-family:sans-serif;font-style:normal;font-weight:normal" x="300" y="125.7">
        <tspan x="300" y="125.7">user ?</tspan>
      </text>
    </g>
    <g>
      <line style="fill: none; stroke-opacity: 1; stroke-width: 2; stroke: #000000" x1="300" y1="80.9912" x2="300" y2="89.2727"/>
      <polygon style="fill: #000000; fill-opacity: 1; stroke-opacity: 1; stroke-width: 2; stroke: #000000" fill-rule="evenodd" points="300,96.7727 295,86.7727 300,89.2727 305,86.7727 "/>
    </g>
    <g>
      <line style="fill: none; stroke-opacity: 1; stroke-width: 2; stroke: #000000" x1="300" y1="140.99" x2="300" y2="148.283"/>
      <polygon style="fill: #000000; fill-opacity: 1; stroke-opacity: 1; stroke-width: 2; stroke: #000000" fill-rule="evenodd" points="300,155.783 295,145.783 300,148.283 305,145.783 "/>
    </g>
    <g>
      <polygon style="fill: #ffc0cb; fill-opacity: 1; stroke-opacity: 1; stroke-width: 2; stroke: #000000" fill-rule="evenodd" points="234.559,159.009 380,159.009 365.441,199.009 220,199.009 "/>
      <text font-size="12.8" style="fill: #000000; fill-opacity: 1; stroke: none;text-anchor:middle;font-family:sans-serif;font-style:normal;font-weight:normal" x="300" y="184.709">
        <tspan x="300" y="184.709">'Hello', user</tspan>
      </text>
    </g>
    <g>
      <path style="fill: #ff4040; fill-opacity: 1; stroke-opacity: 1; stroke-width: 2; stroke: #000000" fill-rule="evenodd" d="M 273.541 219.008 L 326.875,219.008 C 334.238,219.008 340.208,227.962 340.208,239.008 C 340.208,250.054 334.238,259.008 326.875,259.008 L 273.541,259.008 C 266.178,259.008 260.208,250.054 260.208,239.008 C 260.208,227.962 266.178,219.008 273.541,219.008z"/>
      <text font-size="12.8" style="fill: #000000; fill-opacity: 1; stroke: none;text-anchor:middle;font-family:sans-serif;font-style:normal;font-weight:normal" x="300.208" y="245.408">
        <tspan x="300.208" y="245.408">Stop</tspan>
      </text>
    </g>
    <g>
      <line style="fill: none; stroke-opacity: 1; stroke-width: 2; stroke: #000000" x1="300.073" y1="200" x2="300.101" y2="208.281"/>
      <polygon style="fill: #000000; fill-opacity: 1; stroke-opacity: 1; stroke-width: 2; stroke: #000000" fill-rule="evenodd" points="300.127,215.781 295.093,205.798 300.101,208.281 305.093,205.764 "/>
    </g>
  </g>
</svg>
