<?xml version="1.0" encoding="UTF-8"?>
<svg class="iconify iconify--noto" width="1381" height="923" aria-hidden="true" preserveAspectRatio="xMidYMid" role="img" version="1.1" viewBox="0 0 221 148" xml:space="preserve" xmlns="http://www.w3.org/2000/svg"><path d="m27 12.4s-11.5 4.75-14.2 6.7c-3.29 2.38-7.29 5.41-9.41 9.46-2.03 3.87-2.84 6.83-2.99 11.8s5.15 46.2 5.15 46.2 28.7 27.1 33.2 29.1 11.2 4.56 19.2 4.41 13.3-2.62 16.4-4.08c3.06-1.46 39.4-55.3 39.7-59.6s0.59-12.7 0.41-16.3c-0.19-3.62-0.93-6.51-2.83-10.2s-5.02-7.21-6.91-8.82c-1.9-1.6-25.8-12.3-33-13.9-20.9-4.65-44.8 5.27-44.8 5.27z" fill="#ff2a2a"/><path d="m9 24.8c0.14 4.89 4.08 7.15 12.1 11.2s28.4 16 36.9 16.3 39.8-18.8 44.4-21.7c4.48-2.9 5.23-7.53 1.02-10.7-5.84-4.37-32-16.5-37.5-18.5-2.83-1.04-10-2.66-15.8-0.44-4.52 1.75-33.2 15-36 16.8s-5.25 4.28-5.18 7.01z" fill="#a00"/><g transform="translate(-139,-7.25)" fill="#d40000"><path d="m167 22.2c-1.78-2.01-14.3 4.55-14.3 10.1 0 5.42 11.4 12.3 14.2 9.76 2.05-1.84-5.21-7.58-4.26-10.9 0.94-3.32 5.87-7.3 4.35-9z"/><path d="m179 51.1c-1.97 2.85 10.6 8.98 18.3 8.98 7.23 0 19-7.06 17.5-9.11-2.46-3.32-8.43-0.2-17.7 0-5.12 0.11-16-2.84-18.1 0.13z"/><path d="m225 42.1c2.46 1.61 16.5-5.5 16.8-9.76s-8.72-9.38-11.3-7.58 0.76 3.13-0.09 6.25-8.35 9.16-5.4 11.1z"/></g><path d="m0 40.8c-0.15 5.17 0.16 36.7 0.23 41 0.07 4.72 1.23 9.97 4.37 12.7 3.14 2.69 28.6 18.8 34.3 21.3 8.01 3.46 15.8-0.34 16.4-8.96 0.56-8.63 0.22-35 0.22-38.5s-1.8-8.86-5.72-11.6-34.9-20.5-38.1-22.3c-4.48-2.57-11.4-1.34-11.6 6.39z" fill="#f00"/><path d="m64 57.2c-3.36 2.66-4.71 6.5-4.71 10.6s-0.22 36.1-0.11 39.3 4.71 11.9 11.9 9.75c7.41-2.2 16.8-8.85 23.5-12.9 6.72-4.03 12-7.45 14.3-9.37 3-2.45 5.03-8.38 5.14-13.4 0.11-4.93-0.03-35.8-0.12-38.2-0.22-5.68-2.52-10.4-8.68-9.03s-36.4 19.4-41.2 23.2z" fill="#a00"/><g fill="#fff"><ellipse cx="58" cy="25" rx="13.8" ry="9.93"/><path d="m96 62.8c3.27 1.86 8.53-0.45 11.2-5.19 2.71-4.75 2.25-10.1-1.01-12-3.27-1.86-8.44 0.44-11.2 5.19-2.71 4.74-2.35 10.1 0.92 12z"/><path d="m83 84.4c3.32 1.94 8.72-0.37 11.5-5.2 2.82-4.82 2.42-10.3-0.9-12.2s-8.83 0.21-11.6 5.03c-2.82 4.84-2.3 10.5 1.01 12.4z"/><path d="m70 107c3.21 1.96 8.54-0.2 11.4-4.86s2.55-10-0.66-12-8.18-0.58-11.5 4.61c-2.92 4.61-2.48 10.3 0.73 12.2z"/></g><path d="m133 40.1s-11.5 4.75-14.2 6.7c-3.29 2.38-7.29 5.41-9.41 9.46-2.03 3.87-2.84 6.83-2.99 11.8s5.15 46.2 5.15 46.2 28.7 27.1 33.2 29.1 11.2 4.56 19.2 4.41 13.3-2.62 16.4-4.08c3.06-1.46 39.4-55.3 39.7-59.6s0.59-12.7 0.41-16.3c-0.19-3.62-0.93-6.51-2.83-10.2s-5.02-7.21-6.91-8.82c-1.9-1.6-25.7-12.3-33-13.9-20.9-4.65-44.8 5.27-44.8 5.27z" fill="#ff2a2a"/><path d="m116 52.6c0.14 4.89 4.08 7.15 12.1 11.2s28.4 16 36.9 16.3 39.8-18.8 44.3-21.7c4.48-2.9 5.23-7.53 1.02-10.7-5.84-4.37-31.9-16.5-37.5-18.5-2.83-1.04-10-2.66-15.8-0.44-4.52 1.75-33.2 15-36 16.8s-5.25 4.28-5.18 7.01z" fill="#a00"/><g transform="translate(104,6.71)" fill="#d40000"><path d="m30.5 36c-1.78-2.01-14.3 4.55-14.3 10.1 0 5.42 11.4 12.3 14.2 9.76 2.05-1.84-5.21-7.58-4.26-10.9 0.94-3.32 5.87-7.3 4.35-9z"/><path d="m42.9 64.9c-1.97 2.85 10.6 8.98 18.3 8.98 7.23 0 19-7.06 17.5-9.11-2.46-3.32-8.43-0.2-17.7 0-5.12 0.11-16-2.84-18.1 0.13z"/><path d="m88.6 55.9c2.46 1.61 16.5-5.5 16.8-9.76s-8.72-9.38-11.3-7.58 0.76 3.13-0.09 6.25-8.35 9.16-5.4 11.1z"/></g><path d="m107 68.6c-0.15 5.17 0.16 36.7 0.23 41 0.07 4.72 1.23 9.97 4.37 12.7 3.14 2.69 28.6 18.8 34.3 21.3 8.01 3.46 15.8-0.34 16.4-8.96 0.56-8.63 0.22-35 0.22-38.5s-1.8-8.86-5.72-11.6-34.9-20.5-38.1-22.3c-4.48-2.57-11.4-1.34-11.6 6.39z" fill="#f00"/><path d="m171 84.9c-3.36 2.66-4.71 6.5-4.71 10.6s-0.22 36.1-0.11 39.3 4.71 11.9 11.9 9.75c7.41-2.2 16.8-8.85 23.5-12.9 6.72-4.03 12-7.45 14.3-9.37 3-2.45 5.03-8.38 5.14-13.4 0.11-4.93-0.03-35.8-0.12-38.2-0.22-5.68-2.52-10.4-8.68-9.03s-36.4 19.4-41.2 23.2z" fill="#a00"/><g fill="#fff"><path d="m19.7 48.9c1.8 5.02 1.26 10.2-2.59 11.6s-8.46-2.05-10.2-6.96c-1.81-5.02-1.36-10.2 2.59-11.6 3.87-1.33 8.43 1.94 10.2 6.96z"/><path d="m49.8 98.1c2.14 4.88 2.02 10.7-1.72 12.3s-8.81-1.77-10.9-6.55c-2.15-4.88-1.83-10.2 1.91-11.9 3.75-1.64 8.59 1.24 10.7 6.12z"/><path d="m50 65c1.8 5.02 1.26 10.2-2.59 11.6s-8.46-2.05-10.2-6.96c-1.81-5.02-1.36-10.2 2.59-11.6 3.87-1.33 8.43 1.94 10.2 6.96z"/><path d="m35.1 73.3c1.8 5.02 1.26 10.2-2.59 11.6s-8.46-2.05-10.2-6.96c-1.81-5.02-1.36-10.2 2.59-11.6 3.87-1.33 8.43 1.94 10.2 6.96z"/><path d="m19.9 82.1c2.14 4.88 2.02 10.7-1.72 12.3s-8.81-1.77-10.9-6.55c-2.15-4.88-1.83-10.2 1.91-11.9 3.75-1.64 8.59 1.24 10.7 6.12z"/><path d="m204 83.9c3.27 1.86 8.53-0.45 11.2-5.19 2.71-4.75 2.25-10.1-1.01-12-3.27-1.86-8.44 0.44-11.1 5.19-2.71 4.74-2.35 10.1 0.92 12z"/><path d="m204 103c3.27 1.86 8.53-0.45 11.2-5.19 2.71-4.75 2.25-10.1-1.01-12-3.27-1.86-8.44 0.44-11.1 5.19-2.71 4.74-2.35 10.1 0.92 12z"/><path d="m174 121c3.32 1.94 8.72-0.37 11.5-5.2 2.82-4.82 2.42-10.3-0.9-12.3s-8.83 0.21-11.6 5.03c-2.82 4.84-2.3 10.5 1.01 12.4z"/><path d="m174 101c3.32 1.94 8.72-0.37 11.5-5.2 2.82-4.82 2.42-10.3-0.9-12.2s-8.83 0.21-11.6 5.03c-2.82 4.84-2.3 10.5 1.01 12.4z"/><path d="m174 140c3.21 1.96 8.54-0.2 11.4-4.86s2.55-10-0.66-12-8.18-0.58-11.5 4.61c-2.92 4.61-2.48 10.3 0.73 12.2z"/><path d="m203 123c3.21 1.96 8.54-0.2 11.4-4.86s2.55-10-0.66-12c-3.21-1.96-8.18-0.58-11.5 4.61-2.92 4.61-2.48 10.3 0.73 12.2z"/><g transform="translate(104,6.71)"><path d="m58 39.7c-2.11-0.433-4.13-1.52-5.29-2.84-3.8-4.33 0.498-10 7.57-10.1 4-0.0114 7.16 1.51 8.75 4.21 0.807 1.37 0.782 3.2-0.0632 4.74-1.39 2.52-4.84 4.18-8.58 4.14-0.853-0.0108-1.92-0.0959-2.38-0.189z"/><path d="m58 65c-2.11-0.433-4.13-1.52-5.29-2.84-3.8-4.33 0.498-10 7.57-10.1 4-0.0114 7.16 1.51 8.75 4.21 0.807 1.37 0.782 3.2-0.0632 4.74-1.39 2.52-4.84 4.18-8.58 4.14-0.853-0.0108-1.92-0.0959-2.38-0.189z"/><path d="m31 52c-2.11-0.433-4.13-1.52-5.29-2.84-3.8-4.33 0.498-10 7.57-10.1 4-0.0114 7.16 1.51 8.75 4.21 0.807 1.37 0.782 3.2-0.0632 4.74-1.39 2.52-4.84 4.18-8.58 4.14-0.853-0.0108-1.92-0.0959-2.38-0.189z"/><path d="m84.5 52c-2.11-0.433-4.13-1.52-5.29-2.84-3.8-4.33 0.498-10 7.57-10.1 4-0.0114 7.16 1.51 8.75 4.21 0.807 1.37 0.782 3.2-0.0633 4.74-1.39 2.52-4.84 4.18-8.58 4.14-0.853-0.0108-1.92-0.0959-2.38-0.189z"/></g><path d="m127 77.3c1.8 5.02 1.26 10.2-2.59 11.6s-8.46-2.05-10.2-6.96c-1.81-5.02-1.36-10.2 2.59-11.6 3.87-1.33 8.43 1.94 10.2 6.96z"/><path d="m152 122c2.14 4.88 2.02 10.7-1.72 12.3s-8.81-1.77-10.9-6.55c-2.15-4.88-1.83-10.2 1.91-11.9 3.75-1.64 8.59 1.24 10.7 6.12z"/></g></svg>
