<?xml version="1.0" encoding="UTF-8"?>
<svg width="307" height="314" version="1.1" xmlns="http://www.w3.org/2000/svg">
 <defs>
  <clipPath id="a">
   <path d="m27.4 67.3h278v569h-278v-569z"/>
  </clipPath>
 </defs>
 <g transform="matrix(1.25 0 0 -1.25 -46.6 400)" clip-path="url(#a)">
  <path d="m212 223-5.09-72.6 14.4 4.2c0.317 24.8 9.07 65.1 18.1 84.4l-20.4-13-7-2.98z" fill="#8dc63f"/>
  <path d="m207 151 5.09 72.6-31.3-0.017 5.23-75.5 21 2.84z" fill="#d7df23"/>
  <path d="m135 245 35.1 16.2c18.9-1.88 57.6-11.5 69.5-16.8-10.6-23-23.7-71.9-25.1-99.7l10.1-2.1c-2.22 46.9 30.6 116 55.1 142-4.69-1.21-7.88-1.11-11.1 0.829-1.08 0.646-2.17 1.5-3.32 2.57-5.7-7.29-17.9-26.2-22.7-37.4-14.1 5.07-52.6 14.6-63.1 16.2l16.1 35-7.35 1.62-15.2-35.4-4.35 0.987-34.7-16.4 1.07-7.61z" fill="#9bafba"/>
  <path d="m103 103c-3.01-8.97-10.2-15.2-16.1-13.9-1.08 0.239-2.03 0.715-2.86 1.39-3.67 3-4.76 9.89-2.3 17.2 2.92 8.69 9.76 14.8 15.5 14 0.186-0.027 0.371-0.06 0.554-0.101 5.86-1.3 8.16-9.63 5.16-18.6"/>
  <path d="m97.9 104c-1.35-4.02-4.57-6.8-7.19-6.22-2.62 0.584-3.66 4.31-2.31 8.33 1.35 4.02 4.57 6.8 7.19 6.22 2.62-0.584 3.66-4.31 2.31-8.33" fill="#bcd8e1"/>
  <path d="m97.8 122-7.47 2.35c-11.2-3.14-18.9-19.9-11.7-31l5.97-2.51c-3.67 3-4.76 9.89-2.3 17.2 2.92 8.69 9.76 14.8 15.5 14" fill="#8b909e"/>
  <path d="m91.5 109 70.5 46.6 62.4-11-7.77-6.32-49.7 9.96-61.3-37.3-14.1-1.88z" fill="#9bafba"/>
  <path d="m106 111 25.1 15.3 0.352-0.427-17.9-14 44.7-11.7-3.65-3.48c-3.41 1.02-48.6 14.4-48.6 14.4"/>
  <path d="m222 138-6.82-9.06s-44.8-35.1-46.6-36.5l-17.9-2.65c-2.49 0.695-59.2 19.9-59.2 19.9l14.1 1.88s45.2-13.4 48.6-14.4l19.8 5.3s39.1 35.3 40.9 36.8l1.7-0.342 7.77 6.32 1.28-1.54-3.64-5.72z" fill="#9bafba"/>
  <path d="m91.5 109s56.7-19.2 59.2-19.9l0.457-0.149-0.16-0.411-58.5 14.2-2.41 6.62 1.38-0.379z" fill="#fff"/>
  <path d="m89.5 186c-0.094-2.62-6.55-4.55-14.4-4.32-4.63 0.138-8.71 0.995-11.3 2.21-1.79 0.85-2.83 1.87-2.79 2.95 0.097 2.62 6.55 4.55 14.4 4.32 7.86-0.233 14.2-2.54 14.1-5.16" fill="#ce9468"/>
  <path d="m84.1 140-20.3 43.9c2.56-1.22 6.64-2.07 11.3-2.21 7.86-0.233 14.3 1.7 14.4 4.32l14.7-41.5-20-4.51z" fill="#f9d177"/>
  <path d="m134 253-93.5-44 11.3-2.06 83.3 38.5-1.07 7.61z" fill="#9bafba"/>
  <path d="m118 199 16.9 15.3 49.2 1.83-3.13-12.5-63-4.62z" fill="#78cdd1"/>
  <path d="m181 204 3.13 12.5 6.68-74.9-4.47-1.22-5.34 63.6z" fill="#008396"/>
  <path d="m130 139-11.5 60.1 63 4.62 5.34-63.6-56.9-1.08z" fill="#5a9b9f"/>
  <path d="m174 165-2.19 26.1-2.6 27.4-40.5-4.42 10.2-51.2 35.1 2.12z" fill="#9fc4c6"/>
  <path d="m119 225 15.9-58 46.4-5.63 5.97 4.57-26.2 17.9-41.9 41.2-0.161 8e-3z" fill="#71707f"/>
  <path d="m88.7 206 45.8 9.4-3.81-13.5-52.3-12.8 10.3 16.9z" fill="#fff"/>
  <path d="m92.4 153-14 35.8 52.3 12.8 17.2-54.5 2.03-6.88-57.5 12.8z" fill="#f0eada"/>
  <path d="m148 147-17.2 54.5 3.81 13.5 23.2-60.1-9.79-7.89zm-4.47 9.01c0-2.1-5.53-3.79-12.3-3.79-6.82 0-12.3 1.7-12.3 3.79s5.53 3.79 12.3 3.79c6.82 0 12.3-1.7 12.3-3.79" fill="#bcd8e1"/>
  <path d="m143 156c0-2.1-5.53-3.79-12.3-3.79-6.82 0-12.3 1.7-12.3 3.79l2.21-20c3.32-1.79 11.5-2.48 19.6-0.424l2.83 20.4z" fill="#8dc640"/>
  <path d="m119 161c0-2.1-5.53-3.79-12.3-3.79-6.82 0-12.3 1.7-12.3 3.79s5.53 3.79 12.3 3.79c6.82 0 12.3-1.7 12.3-3.79" fill="#bcd8e1"/>
  <path d="m116 137 3.09 23.9c0-2.1-5.53-3.79-12.3-3.79-6.82 0-12.3 1.7-12.3 3.79l0.254-23.2c3.6-0.835 18.4-1.7 21.3-0.664" fill="#3bb54a"/>
  <path d="m140 156c0-1.26-3.95-2.27-8.81-2.27-4.87 0-8.82 1.02-8.82 2.27s3.95 2.27 8.82 2.27c4.87 0 8.81-1.02 8.81-2.27m-26 4.3c0-1.26-3.95-2.27-8.82-2.27-4.87 0-8.81 1.02-8.81 2.27s3.94 2.27 8.81 2.27c4.87 0 8.82-1.02 8.82-2.27" fill="#f2eeea"/>
  <path d="m140 145 4.95-13.7 1.04-2.86 12.7-5.31-11.6 26.3-7.12-4.43z" fill="#f0d7af"/>
  <path d="m58 183-3.3 5.3s88.9-19.1 92.3-19.5l-0.561-0.198-88.3 14.8-0.156-0.338z" fill="#6d726e"/>
  <path d="m154 145-84.8 17.7-4.27 7.24 88-21.5 1.05-3.45zm61.3 71.6 3.93-34.4 6.95 13-1.96 26.9-8.92-5.55z" fill="#9bafba"/>
  <path d="m144 180 6.57-1.22 17.9-48.7-10.1-4.46-14.4 54.3z" fill="#9bafba"/>
  <path d="m217 161-1.41-7.22-52.5-38.3 1.63 2.92c3.1 2.73 52.2 42.5 52.2 42.5m-73-29.2-64.5 13.4-2.24 0.42-1.53-6.81 80.6-9.82-0.053 0.201-12.3 2.61z" fill="#6d726e"/>
  <path d="m172 191 2.19-26.1 3.1-31 4.94 4.42-5.74 56.1-4.48-3.38zm19.4 9.79 5.74-53.2 6.04 3.92-2.87 54.5-8.92-5.28z" fill="#9bafba"/>
  <path d="m153 170c18.6 12.6 64.4 36.8 74.4 39.1l-4.14-15.6c-15.5-4.19-52.6-22.6-66.7-32.7l-3.6 9.24z" fill="#9bafba"/>
  <path d="m156 161c14.1 10.1 51.2 28.5 66.7 32.7l1.85 6.99c-11.4-2.59-59.3-28.4-68.7-39.4l0.144-0.225z" fill="#6d726e"/>
  <path d="m160 150c22.5 16.4 53.2 36 61 38.5l-0.542-2.66-1.75-8.55c-9.5-4.26-39.7-23.7-56.2-35.7l-2.52 8.37z" fill="#9bafba"/>
  <path d="m163 141c16.5 12 46.7 31.4 56.2 35.7l1.75 8.55c-13.7-7.81-39.6-27.2-58.6-43.6l0.624-0.61zm-6.24 41.3 74.6 41.5c0.061 0.338 1.38 3.93 2.69 7.47-10.8-5.52-49.9-28.5-77.4-48.9l0.156-0.08z" fill="#6d726e"/>
  <path d="m239 245c-10.6-23-23.7-71.9-25.1-99.7l10.1-2.1c-2.22 46.9 30.6 116 55.1 142-4.7-1.21-7.88-1.11-11.1 0.829-1.08 0.645-2.17 1.5-3.32 2.57-5.7-7.29-17.9-26.2-22.7-37.4l-2.86-6.11z" fill="#9bafba"/>
  <path d="m223 143 1.53 0.077c-2.22 46.9 30.6 116 55.1 142-4.69-1.21-7.88-1.11-11.1 0.829-31.2-43.9-48.2-99.9-45.5-143m-72.5 35.9 17.9-48.7 0.462-1.34-4.94-2.79-13.5 52.8 0.077 0.043z" fill="#6d726e"/>
  <path d="m239 138c1.17-3.41 1.09-7.99-0.505-12.8-2.97-8.84-10.1-15-15.8-13.7-1.06 0.236-2 0.705-2.82 1.37-2.87 2.34-4.14 7.11-3.33 12.6 0.211 1.42 0.561 2.89 1.06 4.38 2.87 8.57 9.61 14.6 15.3 13.8 0.182-0.026 0.364-0.06 0.543-0.099 2.67-0.594 4.59-2.66 5.59-5.59"/>
  <path d="m239 138c-1 2.93-2.92 4.99-5.59 5.59-0.179 0.039-0.361 0.073-0.543 0.099-5.67 0.799-12.4-5.22-15.3-13.8-0.502-1.49-0.852-2.96-1.06-4.38l22.5 12.5z" fill="#58595b"/>
  <path d="m233 126c-1.33-3.96-4.5-6.7-7.09-6.13-2.58 0.575-3.6 4.25-2.28 8.21 1.33 3.96 4.5 6.7 7.09 6.13 2.58-0.575 3.6-4.25 2.27-8.21" fill="#bcd8e1"/>
  <path d="m220 113c-2.87 2.34-4.14 7.11-3.33 12.6 0.21 1.42 0.561 2.89 1.06 4.38 2.87 8.57 9.61 14.6 15.3 13.8l-7.36 2.31c-11.1-3.09-18.6-19.7-11.5-30.6l5.88-2.48z" fill="#8b909e"/>
  <path d="m169 92.2c1.77 1.38 46.6 36.5 46.6 36.5l0.484-0.548-41.7-37.1-5.39 1.17z"/>
  <path d="m180 97.2c1.26-3.68 1.18-8.61-0.545-13.7-3.2-9.53-10.8-16.1-17.1-14.8-1.14 0.255-2.16 0.761-3.04 1.48-3.1 2.52-4.46 7.66-3.59 13.6 0.228 1.53 0.606 3.12 1.14 4.72 3.1 9.24 10.4 15.7 16.5 14.9 0.197-0.027 0.392-0.062 0.587-0.106 2.87-0.639 4.94-2.87 6.02-6.02"/>
  <path d="m180 97.2c-1.08 3.16-3.15 5.38-6.02 6.02-0.195 0.044-0.39 0.079-0.587 0.106-6.11 0.862-13.4-5.63-16.5-14.9-0.539-1.6-0.917-3.19-1.14-4.72l24.2 13.5z" fill="#58595b"/>
  <path d="m173 84.9c-1.43-4.27-4.85-7.23-7.64-6.61-2.79 0.62-3.89 4.58-2.45 8.85 1.43 4.27 4.85 7.23 7.64 6.61 2.79-0.62 3.88-4.58 2.45-8.85" fill="#bcd8e1"/>
  <path d="m159 70.2c-3.1 2.52-4.46 7.66-3.59 13.6 0.228 1.53 0.606 3.12 1.14 4.72 3.1 9.24 10.4 15.7 16.5 14.9l-7.94 2.5c-11.9-3.33-20.1-21.2-12.4-33l6.34-2.67z" fill="#8b909e"/>
  <path d="m278 301s-5.74 1.26-14.3 3.13c-24.2 5.32-71 15.6-72.5 15.9-11.7 0.833-15.6-12.2-11.1-15.5 5.63-1.2 87.5-19.8 87.5-19.8l10.5 16.2z" fill="#ed1b35"/>
  <path d="m180 304c5.63-1.2 87.5-19.8 87.5-19.8l10.5 16.2s-5.74 1.26-14.3 3.13l-83.5 1.02-0.138-0.591z" fill="#d1223e"/>
  <path d="m283 292c0-4.93-4.47-8.93-9.98-8.93-5.51 0-9.97 4-9.97 8.93 0 4.93 4.46 8.93 9.97 8.93 5.51 0 9.98-4 9.98-8.93" fill="#860010"/>
  <path d="m204 290s-1.42 1.5-5.02 7.81-9.24 12.8 2.23 8.12c11.5-4.65 5.53-7.85 13.6-3.9 8.06 3.94 12.2 10.5 14.2 2.97 1.95-7.55 8.87-4.9-0.995-11.9-9.87-7.02-5.5-4.16-9.87-7.02-4.36-2.87-12-2.23-12-2.23l-2.06 6.18z" fill="#e5eef1"/>
  <path d="m204 290s-1.42 1.5-5.02 7.81-9.24 12.8 2.23 8.12c11.5-4.65 5.53-7.85 13.6-3.9 8.06 3.94 12.2 10.5 14.2 2.97 1.95-7.55 8.87-4.9-0.995-11.9-9.87-7.02-5.5-4.16-9.87-7.02-4.36-2.87-12-2.23-12-2.23l-2.06 6.18z" fill="none" stroke="#e7eef3" stroke-miterlimit="10" stroke-width=".486"/>
  <path d="m211 227c-0.803-2.69-3.9-4.25-6.91-3.48l-25.8 6.57c-3.01 0.767-4.81 3.57-4.01 6.26l15.8 53.1c0.803 2.69 3.9 4.25 6.91 3.48l25.8-6.57c3.01-0.766 4.81-3.57 4.01-6.26l-15.8-53.1z" fill="#ce9468"/>
  <g fill="#b7906b">
   <path d="m189 286s21.3-9.32 36.1-8.16l-1.25-3.74s-16.7-0.75-35.9 8.77l1.07 3.12z"/>
   <path d="m191 290s21.3-9.32 36.1-8.16l-1.25-3.74s-16.7-0.75-35.9 8.77l1.07 3.12zm-2.62-8.33s21.3-9.32 36.1-8.16l-1.25-3.74s-16.7-0.751-35.9 8.77l1.07 3.12z"/>
   <path d="m187 277s21.3-9.32 36.1-8.16l-1.25-3.74s-16.7-0.751-35.9 8.77l1.07 3.12z"/>
   <path d="m185 273s21.3-9.32 36.1-8.16l-1.26-3.74s-16.7-0.75-35.9 8.77l1.07 3.12z"/>
   <path d="m184 269s21.3-9.32 36.1-8.16l-1.25-3.74s-16.7-0.75-35.9 8.77l1.07 3.12z"/>
   <path d="m183 265s21.3-9.32 36.1-8.16l-1.26-3.74s-16.7-0.75-35.9 8.77l1.07 3.12z"/>
   <path d="m182 260s21.3-9.32 36.1-8.16l-1.26-3.74s-16.7-0.751-35.9 8.77l1.07 3.12z"/>
   <path d="m180 256s21.3-9.32 36.1-8.16l-1.25-3.74s-16.7-0.751-35.9 8.77l1.07 3.12z"/>
   <path d="m179 252s21.3-9.32 36.1-8.16l-1.25-3.74s-16.7-0.75-35.9 8.77l1.07 3.12z"/>
   <path d="m178 248s21.3-9.32 36.1-8.16l-1.25-3.74s-16.7-0.75-35.9 8.77l1.07 3.12z"/>
   <path d="m177 244s21.3-9.32 36.1-8.16l-1.25-3.74s-16.7-0.75-35.9 8.77l1.07 3.12z"/>
   <path d="m175 239s21.3-9.32 36.1-8.16l-1.25-3.74s-16.7-0.75-35.9 8.77l1.07 3.12z"/>
  </g>
  <g fill="#fff">
   <path d="m193.0088 261.6493 1.009.553c.831.454 1.325.821 1.48 1.104.214.388.2.756-.046 1.11-.114.164-.244.293-.392.389-.15.097-.397.203-.745.324-.428.155-.7.323-.827.503-.181.26-.146.576.104.945l.512.747c.352.525.545 1.052.573 1.582.032.53-.096 1.004-.389 1.425-.413.594-1.002.935-1.774 1.022-.767.088-1.571-.097-2.407-.554-.855-.467-1.553-1.09-2.097-1.867-.544-.778-.855-1.586-.939-2.422-.083-.836.093-1.568.526-2.194.185-.264.41-.467.675-.604.268-.138.611-.226 1.027-.268.263-.017.443-.047.542-.09.099-.041.189-.119.271-.238.125-.179.156-.373.1-.581-.061-.209-.193-.371-.402-.485-.347-.187-.755-.249-1.23-.184-.474.066-.936.241-1.389.523-.451.28-.832.646-1.143 1.092-.589.851-.84 1.828-.753 2.934.091 1.102.49 2.17 1.204 3.2.713 1.028 1.639 1.856 2.779 2.481.865.472 1.714.751 2.546.839.83.087 1.597-.02 2.296-.321.701-.305 1.276-.779 1.726-1.431.675-.974.808-2.081.397-3.323-.199-.591-.482-1.081-.849-1.473.413-.149.753-.307 1.009-.485.258-.177.483-.402.671-.673.311-.446.46-.92.449-1.425-.01-.502-.178-.977-.508-1.426-.181-.241-.416-.468-.7-.675-.284-.209-.726-.478-1.324-.803l-1.721-.942c-.204-.112-.361-.19-.466-.23-.109-.04-.228-.065-.361-.075-.343-.004-.61.133-.801.409-.076.116-.138.247-.181.399-.045.153-.087.389-.126.706l-1.105 7.886c-.056.429-.057.736-.009.923.05.186.176.335.38.446.196.11.404.144.615.1.213-.042.375-.146.489-.311.089-.13.164-.397.224-.811l1.08-7.751zm5.4193 8.7936c.055.037.111.072.172.107.469.254.919.355 1.354.299.434-.057.766-.256 1.005-.601.193-.277.284-.598.276-.962-.008-.364-.114-.884-.315-1.56l-.279-.928c-.153-.48-.173-.799-.06-.964.069-.099.159-.154.279-.166.119-.013.242.016.373.086.265.146.579.45.948.912.364.462.694.961.987 1.505.172.306.286.498.346.581.062.082.139.15.236.202.156.087.322.108.497.067.174-.045.313-.14.413-.288.116-.165.147-.365.095-.607-.053-.24-.198-.569-.437-.99-.379-.661-.782-1.207-1.198-1.636-.413-.427-.874-.78-1.376-1.056-.568-.309-1.09-.438-1.576-.383-.483.051-.863.275-1.138.67-.246.358-.324.812-.228 1.359.089.415.252.996.489 1.742.175.524.271.851.291.974.019.123-.004.234-.073.332-.082.118-.19.171-.324.161-.133-.008-.322-.078-.569-.205.052-.312.052-.552-.003-.724-.051-.17-.17-.303-.35-.402-.187-.101-.379-.134-.57-.096-.195.039-.349.139-.465.305-.082.117-.15.363-.204.735l-.163 1.213c-.056.418-.06.706-.017.866.045.163.164.294.354.4.181.101.37.133.565.098.193-.036.348-.134.463-.298.079-.118.146-.346.189-.68l.013-.068z"/>
   <path d="M203.8598 269.5877c-.347.185-.607.405-.785.661-.479.692-.377 1.533.309 2.523.223.32.45.609.681.866.231.256.408.417.533.487.178.098.366.13.558.095.192-.037.344-.135.454-.293.118-.17.135-.352.051-.545-.062-.113-.258-.382-.583-.809l-.428-.55c-.177-.24-.285-.435-.323-.589-.036-.156-.009-.296.077-.425.06-.081.15-.166.28-.248.406.56.703.891.89.995.152.082.324.103.516.06.193-.043.344-.139.446-.287.093-.135.128-.272.106-.415-.022-.142-.108-.308-.258-.496-.067-.093-.197-.263-.384-.506l-.55-.725c-.224-.3-.367-.539-.434-.72-.064-.18-.053-.334.037-.463.132-.189.341-.205.629-.048.356.195.762.552 1.217 1.07.456.518.859 1.083 1.212 1.701.241.437.438.694.584.774.164.09.332.117.507.077.175-.038.313-.132.418-.28.134-.195.149-.439.048-.731-.099-.293-.353-.732-.754-1.321-.44-.622-.869-1.131-1.284-1.528-.417-.397-.855-.721-1.319-.974-.553-.304-1.066-.425-1.541-.364-.478.062-.854.297-1.136.702-.438.636-.365 1.403.226 2.306"/>
   <path d="M212.4508 271.2235c-.192-.466-.38-.812-.561-1.039-.181-.225-.419-.419-.705-.576-.499-.273-.991-.345-1.478-.221-.487.126-.897.428-1.226.903-.432.621-.619 1.386-.571 2.299.05.908.337 1.796.86 2.662.17.297.389.608.657.933.272.325.553.616.847.876.296.262.566.457.811.59.512.282.896.238 1.152-.132.118-.169.143-.332.079-.492-.068-.159-.242-.352-.526-.581-.469-.373-.845-.742-1.133-1.108-.287-.368-.527-.773-.724-1.22-.248-.554-.383-1.09-.397-1.612-.019-.52.073-.928.275-1.22.112-.161.239-.264.388-.313.147-.05.292-.036.432.042.203.109.362.298.482.563.114.265.215.649.295 1.152l-.043.211c-.07.406-.107.623-.101.655l-.089.651c-.057.406-.06.709-.006.909.055.197.181.352.387.464.18.098.362.134.545.104.185-.03.328-.116.427-.26.093-.134.163-.382.212-.744l.087-.682c.013-.101.026-.2.038-.302.016-.104.026-.21.036-.316.037-.332.092-.55.163-.652.127-.186.289-.222.488-.115.123.068.245.207.361.415.118.209.297.598.54 1.167.145.335.243.548.299.641.055.096.135.169.236.226.145.081.312.105.492.073s.317-.112.405-.24c.218-.311.126-.882-.278-1.709-.303-.618-.581-1.083-.836-1.395-.255-.314-.556-.565-.899-.753-.554-.303-1.03-.254-1.421.146"/>
   <path d="M217.5223 279.1697c-.446-.42-.806-.904-1.087-1.457-.283-.556-.446-1.094-.489-1.615-.044-.524.048-.947.275-1.276.105-.153.238-.252.399-.298.157-.043.313-.021.467.061.169.093.329.285.485.573.155.29.278.623.377 1.002l-.427 3.01zm-.243 1.733-.408 2.967c-.054.415-.06.704-.016.865.044.164.16.296.354.4.187.105.375.137.568.101.192-.037.347-.138.459-.3.083-.118.148-.367.204-.748l.992-7.121c.051-.353.128-.605.231-.754.042-.055.108-.094.198-.107.093-.017.175-.009.241.03.126.068.235.191.335.368.099.178.299.61.594 1.295.115.281.206.474.273.577.064.105.148.184.25.239.139.076.304.096.496.059.189-.037.328-.121.418-.249.095-.138.121-.345.074-.615-.044-.272-.168-.623-.369-1.051-.293-.614-.577-1.086-.85-1.422-.274-.338-.574-.596-.9-.776-.255-.139-.5-.198-.735-.179-.238.021-.477.121-.721.305-.342-.8-.798-1.357-1.376-1.673-.468-.257-.951-.32-1.444-.192-.493.129-.902.426-1.226.892-.447.646-.644 1.403-.59 2.27.054.865.337 1.728.857 2.582.516.857 1.214 1.602 2.091 2.237"/>
  </g>
  <path d="m161 263-8.06-5.23s-1.47-0.579-1.94-1.76c-0.584-1.46-14-37.4-14-37.4s-0.55-1.66 0.081-2.47c0 0 1.1-1.73 2.72-1.93l50.2-8.16s3.59-0.837 6.16 1.53l2.88 3.54-38 51.9z" fill="#faed23"/>
  <path d="m146 217c-3.15 0.447-4.33 4.13-2.58 8.2l14.6 33.9c1.65 3.84 5.31 6.15 8.12 5.18l44.9-15.5c1.84-0.635 2.36-3.62 1.18-6.69l-10.3-26.9c-1.23-3.21-3.86-5.59-5.9-5.3l-49.9 7.09z" fill="#fcf38e"/>
  <path d="m176 229c-5.02-7.73-20-5.5-24.4 0.256-4.47 5.76 4.7 9.83 13.7 15.4 9.03 5.62 2.46 10.1 19 4.9 7.39-2.32-2.73-12.1-8.26-20.6" fill="#f0eada"/>
  <path d="m196 223c-1.58-2.96-20-5.5-24.4 0.255-4.47 5.76 4.7 9.83 13.7 15.4 9.03 5.62 13.9 9.29 19 4.9 5.63-4.87-3.52-11.7-8.26-20.6" fill="#f0eada"/>
  <path d="M162.935 241.6789c-.123-.496-.55-.702-1.057-.601-.456.091-.62.323-.62.736.015.273-.484.603-1.234.752-2.02.404-4.202-2.166-4.658-4.006-.466-1.868.384-2.926 1.395-3.128.994-.199 2.228.154 2.846.643.128.373.388.797 1.072.659.588-.116.754-.548.697-.782-.061-.233-.192-.483-.682-.814-.889-.543-2.741-1.247-4.45-.89-2.006.4-3.118 1.986-2.439 4.716.545 2.191 3.37 5.427 6.437 4.816 1.825-.364 2.868-1.399 2.693-2.101m4.7788-4.9374c.128.511.079.659-.198.714-.457.091-1.521.012-2.676-.845l-.667-2.687c.055-.118.073-.26.027-.434-.089-.366-.72-.486-1.24-.382-.489.098-.629.294-.554.6.059.235.131.389.235.46l1.882 7.563c.017.135-.074.322-.043.453.12.482.627.657 1.213.54.262-.053.71-.448.619-.813-.035-.146-.156-.291-.256-.409l-.855-3.446.031-.007c1.255.639 2.508.864 3.374.692.864-.173 1.024-.695.781-1.673l-1.002-4.031c-.007-.089.079-.23.051-.347-.084-.335-.665-.541-1.123-.451-.505.102-.801.36-.724.667.04.16.123.358.282.449l.843 3.387zm6.2683 3.1788c-.215-.861-.811-1.262-1.316-1.162-.524.103-.662.438-.561.846.186.746.689 1.258 1.309 1.134.474-.094.671-.394.568-.818m-1.013-3.245-1.039-4.176c.066-.074.153-.276.11-.451-.124-.497-.864-.58-1.368-.479-.424.085-.668.409-.562.832.064.264.234.398.318.459l1.009 4.058c-.077.108-.086.278-.053.409.103.408.245.841 1.238.642.375-.075.722-.542.63-.845-.064-.248-.23-.369-.283-.449m7.9525-1.4645c-.101-.408-.471-.656-1.123-.527-.359.072-.392.278-.431.47-.055.194-.121.407-.677.518-.569.113-1.125-.052-1.713-.425-.679-.387-1.471-1.102-1.72-2.093-.221-.891.152-1.518 1.132-1.713.375-.075.75-.012 1.12.099.404.117.878.361 1.181.683.194.375.367.648.887.543.62-.122.701-.554.647-.772-.041-.161-.759-.984-1.837-1.397-.823-.356-1.636-.454-2.646-.253-1.616.323-2.38 1.517-2.038 2.889.419 1.679 1.329 2.325 2.515 3.023.572.376 1.84.722 2.719.546 1.256-.251 2.14-.964 1.984-1.591m2.8109-1.9092.028-.021c.601.417.987.662 1.349.881l1.804.989c.079.244.394.412.735.343.572-.114.761-.52.67-.885-.082-.335-.444-.478-.687-.429l-2.847-1.67 1.912-2.91c.316-.032.56-.295.483-.603-.103-.423-.577-.666-1.213-.538-.276.054-.431.254-.464.535l-1.276 1.957c-.184.297-.42.651-.734 1.249l-.035-.007-.453-1.811c.013-.156.101-.357.06-.517-.126-.511-.49-.669-1.144-.539-.391.078-.864.311-.707.938.026.103.092.304.269.392l1.836 7.387c-.066.075-.129.302-.092.448.083.336.317.657 1.131.495.621-.124.835-.365.719-.833-.03-.117-.107-.286-.226-.353l-1.118-4.498zm6.8852-1.6946c2.999-.124 3.462.014 3.512.218.088.351-.091.801-.81.944-.928.186-1.98-.325-2.702-1.162m4.979-.013c-.164-.656-.819-1.154-4.751-.998l-.778.032c-.141-.217-.239-.473-.31-.765-.183-.731.169-1.107.871-1.246 1.125-.225 2.214.17 2.607.506.035.346.436.587.975.48.602-.121.646-.497.575-.788-.103-.409-1.946-1.835-4.622-1.302-1.384.276-2.311 1.028-1.936 2.533.674 2.715 3.298 4.246 5.434 3.819 1.843-.368 2.076-1.701 1.935-2.271m2.0814-4.4907c.057-.119.066-.214.026-.374-.092-.38-.701-.412-1.14-.323-.407.081-.78.308-.693.658.044.175.121.282.298.37l.566 2.278c-.112.099-.182.296-.124.53.058.234.201.467.455.799l.292 1.167c-.05.148-.071.275-.024.465.074.292.656.498 1.16.397.621-.123.749-.364.673-.672-.05-.203-.185-.33-.276-.419l-.143-.568c1.974.908 2.78 1.055 3.367.937.587-.117 1.099-.74.983-1.208l-1.184-4.76c.01-.093.054-.194.003-.399-.112-.453-.479-.548-1.081-.428-.554.111-.782.371-.694.721.04.161.132.249.242.351l1.016 4.088c.025.103-.191.329-.306.351-.164.033-.814-.037-2.653-.895l-.763-3.066z" fill="#04a8ad"/>
  <path d="m172 221c-0.34-2.23-6.49-3.31-13.7-2.42-7.25 0.89-12.8 3.42-12.5 5.64 0.34 2.23 6.49 3.31 13.7 2.42s12.8-3.42 12.5-5.64" fill="#b3b4b4"/>
  <path d="m164 188 7.71 33.3c-0.34-2.23-6.49-3.31-13.7-2.42-7.25 0.89-12.8 3.42-12.5 5.64l-0.407-8.55-0.619-12.9 0.426-10.9c3.9-2.31 12.7-4.34 19.1-4.19" fill="#ec2127"/>
  <path d="m144 202 1.26 17.1c1.26-1.51 20.7-4.73 22.5-4.82l-1.53-12.1c-8.36-0.611-17.6-2.94-22.2-0.217" fill="#e6e6e6"/>
  <path d="m169 222c-0.205-1.33-4.57-1.9-9.74-1.27-5.18 0.635-9.21 2.23-9 3.57 0.205 1.34 4.57 1.9 9.74 1.27 5.18-0.635 9.21-2.23 9-3.57" fill="#f2eeea"/>
  <path d="m148.4005 213.7938.17.005-.263-1.58-.181-.001c.032.434-.052.77-.252 1.009-.198.239-.476.353-.831.344-.311-.009-.576-.105-.792-.287-.213-.182-.339-.42-.387-.712-.042-.274-.005-.519.114-.742.118-.224.405-.514.866-.873.547-.423.902-.793 1.069-1.109.165-.317.212-.675.145-1.072-.086-.509-.324-.933-.706-1.27-.38-.33-.789-.479-1.228-.445-.251.02-.557.121-.917.305-.146.074-.24.113-.282.115-.09.008-.169-.066-.242-.219l-.157.011.255 1.662.16-.008c-.069-.461.005-.837.219-1.133.217-.296.503-.456.855-.482.34-.025.631.059.87.248.245.193.397.462.454.809.043.261-.005.514-.138.76-.134.246-.445.566-.928.958-.39.319-.638.568-.756.746-.116.179-.191.375-.228.587-.035.212-.035.444.006.698.075.492.275.893.603 1.209.332.317.728.484 1.197.498.257.007.532-.044.823-.153.138-.049.239-.074.294-.072.048.002.083.014.104.037.021.023.049.075.084.157m3.8956-4.8971c.118.615.083 1.117-.1 1.502-.182.384-.489.579-.917.585-.422.005-.785-.171-1.088-.529-.301-.352-.501-.832-.607-1.439-.106-.592-.074-1.069.097-1.433.17-.367.46-.567.875-.597.418-.03.785.127 1.097.474.315.35.529.83.643 1.437m.879-.035c-.125-.654-.448-1.183-.967-1.585-.508-.393-1.074-.567-1.692-.52-.612.049-1.077.291-1.401.728-.32.433-.43.954-.325 1.568.108.625.393 1.141.865 1.551.479.415 1.034.623 1.667.617.646-.006 1.149-.233 1.505-.679.359-.452.477-1.013.348-1.68m5.7662 2.2798.237-.004-.855-3.949c-.057-.255-.036-.432.059-.528.096-.098.314-.159.652-.183l-.049-.217-1.791.044.175.834-.024.001c-.601-.56-1.204-.811-1.816-.765-.433.033-.754.201-.969.5-.214.299-.278.659-.195 1.084l.451 2.277c.043.232.019.392-.081.476-.098.085-.298.129-.594.134l.04.208 1.476.122.221-.002-.651-3.229c-.062-.31-.02-.56.13-.751.148-.193.381-.299.698-.322.441-.03.909.189 1.4.662l.53 2.504c.07.324.061.528-.024.611-.089.086-.342.135-.76.15l.045.217 1.695.126zm3.114-1.2389-.703-3.047c.328-.425.773-.661 1.353-.703.492-.035.959.14 1.402.533.445.394.75.906.903 1.532.167.685.13 1.255-.111 1.711-.246.454-.634.685-1.164.693-.531.01-1.091-.233-1.68-.719m.279 1.204-.193-.836c.419.298.789.51 1.109.635.322.124.668.185 1.037.18.754-.007 1.327-.27 1.711-.791.385-.525.484-1.18.289-1.953-.198-.794-.645-1.43-1.325-1.909-.668-.471-1.4-.672-2.19-.612-.538.043-1.037.273-1.498.691l-.716-3.101c-.073-.316-.061-.532.037-.645.096-.114.316-.192.652-.232l-.052-.219-2.711.332.048.212c.341-.041.579-.025.719.048.138.076.237.237.293.485l1.489 6.583c.072.328.067.539-.021.631-.086.092-.329.139-.729.146l.051.228 1.737.13.263-.003z" fill="#ed1d24"/>
  <path d="m234 231c-1.31-3.55-2.63-7.14-2.69-7.47l-81.2-45.1-6.57 1.21 0.255 8.99 92.9 49.6c-0.135-0.441-1.38-3.79-2.64-7.17" fill="#9bafba"/>
  <path d="m116 235 5.44 26.8-23.2 6.4 1.54-25.7 16.2-7.52z" fill="#f7bd5b"/>
  <path d="m165 252-48.4-16.8 5.44 26.8 49.2 12.9-6.21-22.9z" fill="#faa74a"/>
  <path d="m155 279-56.6-10.6 23.2-6.4 49.2 12.9-15.8 4.08z" fill="#f9c97b"/>
  <path d="m133.9038 259.8995-.093-.03-.495-.226-.318-.189-.669-.472-.463-.413-.514-.559-.138-.282-.363-.427-.204-.476-.24-.519-.165-.481-.127-.558-.234-.713.046-.614-.042-.136-.001-.473.04-.063.014-.693.094-.611.009-.04.236-.733.163-.446.654-1.109.37-.387.359-.239.195-.189.428-.226.296-.156.436-.083-.038.149-.098.056-.191.403-.122.284-.252.789-.318.96-.104.866-.047.051-.056.309-.031.777-.032.543.022.338-.003.887.135.813.175.825.093.237.233.669.194.456.255.528.118.256.194.35.377.557.303.479-.081-.039zm1.86 2.222.1-.085.131-.048.108-.121-.298-.337-.415-.489.066-.043.195.013.034-.003.598.004.799-.086.139-.075.124.017.563-.114.784-.234.835-.483.292-.263.371-.544.221-.574.134-.85-.106-.448-.012-.175-.091-.246-.046-.243-.028-.055-.253-.413-.01-.081-.295-.515-.54-.535-.691-.53-.584-.318-.196-.082-.538-.196-.212-.007-.188-.051-.425-.014-.527.111-.358.147-.326.147-.509.576-.201.323-.094.491.029.41-.05.227.289.551.31.373.124.169.504.337.005.06.33.098.063.055.224.033.322-.09.531-.253.596-.383.014-.054-.021-.044-.225.071-.183.023-.353-.077-.072-.055-.143.003-.073-.145-.132-.004-.19-.204-.227-.194-.038-.069-.172-.062-.312-.476-.009-.262-.046-.293-.004-.454.256-.447.051-.068.404-.234.219-.022.544.025.478.177.488.199.778.516.339.345.614.806.202.429.236.859.039.432-.063.557-.219.45-.152.277-.392.442-.784.474-.607.197-.474.048-.861.079-1.01-.143-.153-.042-.115.013-.476-.133-.144-.08-.195-.275-.587-.895-.322-.547-.031-.096-.187-.291-.055-.183-.302-.62-.021-.216-.07-.096-.065-.51-.088-.155-.081-.232.026-.144-.094-.086.025-.238-.063-.576-.064-.665.002-.556-.066-.202.017-.204.018-.724.111-.617.027-.191-.009-.108.132-.699.287-1.061.042-.029.254-.605.232-.711.177-.17.07-.215.18-.147.848-.121 1.217.063 1.268.348.605.232.956.53.957.699.343.352.585.816.149.399.107.433-.045.704-.054.114-.216.275-.427.227.15.081.046.024.452-.01.384-.117.214-.196.211-.264.053-.689-.098-.069.073-.068-.037-.132-.169-.551-.343-.618-.404-.469-.709-.65-.175-.127-.555-.371-.508-.317-.541-.267-.392-.197-1.722-.454-.504-.107-.997-.06-.217.007.301-.419.146-.234.135-.108.277-.275-.022-.103-.108-.089-.182.057-.087.006-.163.119-.383.407-.13.13-.259.338-.2.217-1.038.281-.583.212-.813.369-.55.345-.505.457-.55.588-.1.047-.562.781-.142.304-.464 1.099-.182.625.013.057.01-.041-.138.699-.028.617.086.465-.016.313.084.512.067.08-.036.095.204.673.163.38.262.526.203.354.178.357.321.399.679.716.546.47.491.316.375.219.157.113.606.277.485.25.563.139.553.164.621.134.099.124.138.231.095.021.194.174.028.14.118.043.22.36.178.065zm6.9835-.7473.366.027.584-.059.137-.171.026-.596.022-.176-.053-.121.012-.282-.042-.058.08-.144-.073-.083.015-.125h.078l-.048-.067.037-.065-.021-.197-.057-.043.076-.056-.037-.111.032-.213-.045-.123.047-.331-.052-.031.075-.048-.051-.068.021-.07-.073-.093.031-.216-.019-.042-.007-.631-.114-.123.116-.017-.037-.329.039.008-.01-.143-.043-.03-.002-.303-.02-.072.066-.088-.102-.206.066-.059-.111-.107.047-.026.083-.005-.055-.054.037-.056-.056-.091.017-.064-.048-.079.069-.277-.072-.029.043-.189-.078-.081.018-.35.129.084-.068.057.05.043.178.473.067.047.135.475.162.244.115.051-.055.05.226.458.06.205.066.045.01.039.451.718.123.068.301.079.273-.04.298-.264.096-.428-.026-.082.053-.079-.085-.172.073-.054-.039-.132.055.014-.025-.315-.069-.065.124-.126-.13-.223.069-.064-.015-.118.059-.106-.124-.034.123-.165-.094-.11.06-.003-.093-.12.038-.226.082.014-.01-.098-.045-.013-.04-.067.142-.149-.115-.081.181-.691.052-.04.077-.131.096-.028.313.197.249.285.058.168.091-.049-.182-.406-.152-.283-.288-.22-.253-.076-.342.05-.046.063-.177.025-.032.143-.253.232.042.09-.025.021-.084-.023.008.154-.125.432.06.027-.127.06.018.186-.046.395-.066-.009.087.112-.016.469-.093.079.138.102.018.176-.067.029-.053.388.072.162v.506l-.07.073-.092-.024-.317-.535-.398-.758-.328-.779-.325-1.064-.155-.714-.121-.995-.092-.74-.05-.263-.154-.155-.19.038-.043-.033-.119.093-.182-.026-.053.075.042.072-.042.195.016.501-.017.173.044.142.074.072-.001.483-.048.21.09.487-.01.044.09.223-.093.002-.026.09.075.177-.063.187.034.173.071.04-.082.364.042.138-.052.187.044.061-.022.368.084.283-.105.116.046.164-.078.093.088.197.027.112-.083.015.063.169-.062.145.061.11-.046.302-.005.8.053.06-.074.047.078.188-.073.04-.009.492.039.773-.04 1.18.002.439-.035.022-.429-.298-.147-.154-.081-.018-.688-.64.076-.122.204-.363-.193.001-.471.444-.09.212.071.184.203.063.088.086.158-.02.059.041-.029.066.225.099.103.087.307.125.629.36-.035.056zm7.1787-3.7353-.256-.151-.325-.316-.221-.349-.282-.574-.15-.827.031-.037.054-.02.39.222.51.466.463.685.134.434.005.228-.104.223-.249.016zm-.406.261.236.035.623-.21.067-.072.278-.177.062-.35-.117-.366-.116-.16-.447-.599-.047-.032-.072-.002-.033-.073-.572-.43-.298-.131.007-.055-.199-.02-.202-.112.116-.647-.021-.025.362-.426.425-.105.261.06.231.098.367.229.387.421.046.06.306.466-.062-.431-.244-.459-.442-.402-.44-.264-.169.005-.143-.081-.106.043-.076-.032-.472.1-.474.261-.177.182-.2.289-.239.754-.427.28.096.063.297-.101.042.178.133.703.265.533.277.386.476.447.234.106.201.063zm4.1903.7571-.24-.143-.301-.301-.197-.336-.258-.548-.126-.793.03-.036.049-.021.364.21.47.444.424.656.118.418.001.217-.101.217-.233.016zm-.387.252.22.033.59-.206.064-.07.264-.171.063-.34-.103-.35-.105-.152-.411-.573-.043-.03-.069-.002-.028-.07-.532-.41-.277-.125.008-.05-.186-.018-.187-.106.119-.622-.019-.024.345-.411.399-.107.246.056.216.092.34.218.356.401.042.056.28.446-.051-.414-.223-.439-.406-.381-.41-.25-.158.005-.133-.075-.1.042-.071-.033-.445.103-.449.255-.169.175-.192.279-.237.725-.404.274.091.061.278-.101.037.171.112.675.24.51.254.369.44.425.217.103.187.056zm5.235 1.5671.061-.189-.009-.286.035-.158-.047-.045.008-.098-.178-.351-.067-.11-.136-.112-.246-.128-.028.017-.256-.019-.159.023-.107.014-.273.179-.113.129-.129.38-.02.221.094.202.172.114.083.012.072-.005.28-.127.007-.024.107-.038.034-.059-.1-.059-.201-.037-.088-.082-.112-.241.009-.15.019-.037.104-.098.067-.091.188-.042.188.008.13.088.23.365.059.308-.018.129-.136.454-.221.3-.067.057-.201.115-.085.002-.05.054-.064-.024-.269.005-.121-.09-.038.017-.026-.016-.019-.039-.121-.045-.233-.228-.152-.402-.041-.154.034-.643.016-.105.121-.333.075-.107.011-.058.049-.054.328-.379.329-.265.79-.5.674-.519.224-.308.114-.06.153-.263.22-.585.028-.188.013-.264-.037-.055.039-.073-.058-.217.031-.095-.086-.182.02-.162-.098-.065.031-.053-.08-.173-.012-.04-.083-.068-.044-.137-.209-.306-.03-.011-.401-.352-.332-.172-.435-.164-.07.013-.08-.062-.396.02-.665.213-.24.174-.112.035-.386.316-.071.121-.093.078-.196.386-.043.193-.069.085-.007.24-.051.135.012.236-.03.098.043.083-.015.103.064.17.008.089.071.119.005.099.358.465.061.02.007.028.31.255.562.182.158.013.365-.066.152-.051.346-.269.237-.292.034-.111.077-.14-.034-.045.08-.149-.017-.282-.036-.039.03-.017.005-.043-.09-.096-.005-.168-.123-.204-.009-.126-.19-.096-.043-.073-.361-.107-.329.074-.278.248-.148.263-.024.557.057.077.032.011.035-.007.067-.06-.031-.21.078-.284.348-.235.077-.012.082.027.066.027.24.226.061.271-.01.085.042.126-.07.405-.15.266-.139.184-.276.127-.256.003-.312-.128-.366-.422-.209-.449-.023-.007-.088-.584.048-.259-.008-.138.17-.553.289-.462.094-.086.364-.248.145-.034.151-.058.165.009.052-.037.116.054.162-.007.401.194.29.255.082.025.019.094.03.011.17.31.182.471-.007.102.045.163-.029.035.047.108-.023.732-.148.489-.178.307-.274.383-.22.27-.085.035-.048.054-.067.034-.008.048-.496.345-.093.067-.53.415-.255.274-.214.215-.268.405.017.047-.062.146-.022.081-.066.466.04.205.036.17.273.373.129.126.386.216.05.021.522.107.175-.007.384-.051.328-.121.115-.07.147-.143.237-.353zm2.8591.2558-.203-.128-.254-.271-.16-.307-.206-.5-.082-.727.027-.033.044-.021.308.187.397.401.347.596.089.383-.006.202-.096.2-.205.018zm-.345.239.192.027.521-.2.059-.064.234-.163.068-.312-.079-.323-.087-.138-.34-.52-.035-.026h-.059l-.024-.066-.45-.367-.236-.109.007-.048-.162-.013-.158-.095.125-.573-.018-.023.315-.384.353-.103.212.047.185.081.288.195.299.362.035.052.23.405-.031-.38-.18-.399-.343-.344-.349-.224-.138.008-.114-.068-.09.04-.059-.026-.391.1-.399.242-.152.164-.177.26-.232.67-.361.257.076.054.246-.096.026.156.077.62.191.463.209.337.369.383.187.09.16.051z" fill="#be1e2d"/>
  <path d="m142 180-68.7 2.05-7.5 56.9 69 1.36 7.19-60.4z" fill="#c2bd99"/>
  <path d="m134 240-67.6-1.45 4.2 6.1 66.3 2.44-2.98-7.09z" fill="#dcd9c5"/>
  <path d="m142 180-7.97 59.9 3.13 6.98 8.47-61.8-3.63-5.03z" fill="#a9a573"/>
  <path d="m132 212c0.521-12.4-11-23.6-26-25.2-15.3-1.72-29.1 6.97-30.6 19.8-1.49 13.3 10.7 25.4 27 26.7 15.9 1.26 29-8.43 29.5-21.2" fill="#ebd3b4"/>
  <path d="m117 223c0.157-2.65-2.27-5.02-5.42-5.31-3.17-0.289-5.91 1.63-6.1 4.3-0.195 2.69 2.26 5.1 5.46 5.37 3.2 0.269 5.9-1.69 6.06-4.36m-20.3-3.15c0.224-2.68-2.21-5.07-5.45-5.37-3.26-0.3-6.12 1.63-6.38 4.32-0.266 2.71 2.2 5.15 5.5 5.44 3.28 0.279 6.12-1.69 6.34-4.38m-2.88-15.7c0.229-2.58-2.17-4.93-5.37-5.26-3.21-0.331-6.04 1.5-6.31 4.1-0.272 2.62 2.16 5.01 5.4 5.32 3.24 0.312 6.04-1.56 6.27-4.16m14-8.61c0.181-2.5-2.18-4.79-5.27-5.13-3.11-0.342-5.82 1.41-6.04 3.93-0.222 2.53 2.16 4.86 5.31 5.19 3.14 0.323 5.82-1.47 6-3.98m2.61 14.8c0.174-2.59-2.22-4.92-5.36-5.24-3.16-0.314-5.89 1.53-6.11 4.14-0.216 2.62 2.21 5 5.4 5.3 3.18 0.295 5.89-1.59 6.07-4.19m11.4-9.28c0.135-2.51-2.22-4.79-5.27-5.11-3.07-0.329-5.7 1.44-5.87 3.96-0.173 2.54 2.21 4.86 5.31 5.17 3.09 0.308 5.69-1.5 5.83-4.02m6.98 11.8c0.117-2.56-2.26-4.88-5.33-5.18-3.07-0.305-5.7 1.53-5.85 4.11-0.152 2.6 2.26 4.95 5.37 5.24 3.1 0.284 5.69-1.59 5.81-4.17" fill="#cb6b56"/>
  <path d="M76.3593 226.6564c-.854 3.968-1.01 4.697-1.257 5.53-.259.883-.628 1.298-1.834 1.473-.295.05-.913.073-1.424.072-.401-.003-.632.049-.671.237-.041.185.205.24.753.241 1.899.004 4.098-.068 5.044-.067 1.357.007 3.207.085 4.648.088 3.738.008 5.239-.976 5.767-1.32.72-.478 1.718-1.505 1.988-2.727.727-3.289-1.631-5.879-5.817-6.273-.153-.014-.489-.046-.653-.035-.159.01-.383.015-.421.19-.043.2.159.294.808.354 1.694.15 3.64 1.86 3.106 4.297-.175.787-.611 2.379-2.52 3.538-1.261.784-2.556.916-3.275.906-.478-.004-.949-.035-1.224-.114-.151-.053-.214-.204-.155-.479l2.19-10.097c.505-2.338.942-4.348 1.338-5.419.249-.696.558-1.226 1.514-1.173.439.022 1.12.084 1.57.159.331.055.495.007.521-.118.037-.173-.185-.288-.515-.346-2.014-.344-4.024-.61-4.869-.754-.755-.129-2.864-.573-4.253-.811-.459-.08-.725-.042-.765.149-.03.136.095.241.521.311.525.091.932.212 1.232.319.664.221.71.83.681 1.621-.068 1.134-.514 3.215-1.037 5.634l-.991 4.614zm18.8112-.3188c-.638 2.85-.756 3.381-.913 3.975-.192.639-.466.85-.97.969-.268.059-.549.072-.83.063-.229-.006-.369.035-.408.214-.027.113.146.162.5.173.835.021 2.326.016 2.929.033.527.015 1.854.092 2.633.112.252.008.418-.03.442-.137.038-.168-.064-.212-.27-.219-.205-.005-.359-.032-.578-.08-.535-.104-.643-.367-.544-1.01.083-.58.199-1.095.823-3.866l.725-3.233c.398-1.77.729-3.241.996-4.005.178-.486.378-.746.985-.734.277.002.725.055 1.012.102.218.036.328-.053.347-.139.03-.127-.109-.216-.327-.254-1.292-.221-2.679-.393-3.239-.488-.471-.08-1.9-.394-2.762-.542-.273-.047-.44-.005-.469.13-.021.093.029.218.303.264.322.054.566.118.752.197.419.162.48.45.428 1.018-.077.797-.417 2.31-.823 4.131l-.742 3.326zm15.7173-5.3887c1.574.249 2.026.67 2.168 1.191.063.259.105.533.103.762-.005.171.008.269.108.281.116.017.175-.09.26-.458.121-.516.173-1.56.161-1.964-.019-.293-.089-.439-.356-.486-2.557-.439-5.336-.834-8.874-1.44-.209-.036-.327.009-.355.133-.024.104-.028.212.111.555 1.65 4.156 3.257 8.181 4.671 11.653l-3.111-.118c-.883-.034-1.922-.072-2.424-.395-.525-.349-.723-.951-.673-1.358.015-.249-.057-.313-.161-.32-.126-.009-.207.07-.253.275-.092.409-.176 1.987-.19 2.518-.033.244.033.329.134.331.169.002.296-.096.755-.104 1.711-.013 2.53.028 3.228.047l4.909.132c.155.004.268-.047.285-.122.032-.126.009-.182-.017-.293-1.304-3.657-2.856-7.592-4.413-11.446l3.934.626zm9.8493 1.5666c1.232.195 1.576.559 1.676 1.017.042.228.066.471.062.672-.008.152-.003.236.076.247.093.013.144-.081.221-.408.108-.459.174-1.382.178-1.738-.01-.257-.06-.387-.271-.423-2.005-.344-4.165-.643-6.896-1.11-.158-.027-.251.011-.275.123-.022.089-.027.183.068.48 1.16 3.608 2.302 7.125 3.313 10.178l-2.426-.091c-.684-.026-1.492-.057-1.868-.338-.396-.302-.532-.831-.481-1.188.017-.215-.034-.274-.117-.278-.094-.005-.161.064-.201.242-.084.358-.191 1.74-.221 2.205-.034.216.015.288.096.289.13.005.23-.083.584-.09 1.326-.018 1.96.017 2.503.031l3.844.102c.12.004.213-.04.228-.107.028-.113.013-.163-.005-.261-.93-3.228-2.039-6.683-3.147-10.04l3.059.486z" fill="#74664b"/>
  <path d="M127.1413 226.8089c.048.005.052.037.031.082l-1.759 3.22c-.022.044-.051.121-.078.12-.037-.002-.029-.081-.032-.127l-.233-3.43c-.01-.065.022-.094.059-.088l2.012.223zm-2.059-.988c-.061-.007-.07-.026-.074-.107l-.154-1.883c-.033-.352-.002-.693.036-.854.057-.239.19-.366.521-.311l.162.027c.132.022.171-.036.192-.116.026-.111-.028-.152-.139-.172-.356-.06-.875-.1-1.229-.159-.115-.02-.704-.172-1.302-.274-.142-.026-.216-.004-.244.11-.02.084.004.157.096.173.104.017.232.055.335.072.496.184.588.636.655 1.367l.855 8.672c.031.371.079.526.187.528.157.004.233-.117.408-.405.419-.704 3.336-5.81 4.401-7.643.632-1.08.936-1.198 1.112-1.215.142-.006.251-.004.355.015.081.013.133-.024.153-.11.024-.101-.02-.14-.36-.198-.324-.057-1.004-.174-1.814-.282-.178-.014-.29-.033-.312.057-.016.077-.007.125.089.157.063.026.099.156.02.301l-1.378 2.471c-.041.072-.078.084-.124.077l-2.447-.298z" fill="#74664b"/>
  <path d="m66.6 197 20.5-55.6 5.44-0.405-19.8 55.9-6.12 0.166z" fill="#9bafba"/>
  <path d="m68.9 162-4.26 7.24 1.11-0.717 86.4-23.2-0.293-0.246-82.8 17.1-0.09-0.191z" fill="#6d726e"/>
  <g fill="#9bafba">
   <path d="m78 142 84.8-26.2 52.5 38.3 1.41 7.22-0.65 2.3c-7.82-4.56-38.9-26-48-33l-10.1-4.46-9.98 3.66-4.26 2.33-64.5 13.4s-28.7 52.2-30.7 55.7l0.103 0.033 94.9-20.8 0.256 8.99-92.5 17.9-11.3 2.06-2.78-1.56c0.499-0.685 38.2-68.7 38.2-68.7l2.55 2.98z"/>
   <path d="m119 186 19.8-53.9 6.38-1.16-19.7 54.6-6.55 0.43z"/>
   <path d="m147 168c-3.38 0.405-92.3 19.5-92.3 19.5l3.3-5.3 91.4-23.3-2.38 9.06z"/>
   <path d="m92.7 192 20.5-55.2 5.84-0.938-20.1 55.8-6.28 0.35z"/>
  </g>
 </g>
</svg>
