<?xml version="1.0" encoding="UTF-8"?>
<svg width="151mm" height="179mm" version="1.1" viewBox="0 0 535 635" xmlns="http://www.w3.org/2000/svg" xmlns:xlink="http://www.w3.org/1999/xlink">
 <title>First responder - army / soldier</title>
 <defs>
  <linearGradient id="linearGradient7557" x1="-270" x2="-268" y1="460" y2="460" gradientTransform="matrix(201 227 227 -201 -50555 153920)" gradientUnits="userSpaceOnUse">
   <stop stop-color="#FFD8BF" offset="0"/>
   <stop stop-color="#BF7400" offset=".539"/>
   <stop offset="1"/>
  </linearGradient>
  <linearGradient id="linearGradient7559" x1="-270" x2="-268" y1="460" y2="460" gradientTransform="matrix(201 227 227 -201 -50555 153920)" gradientUnits="userSpaceOnUse">
   <stop stop-color="#F3C192" offset="0"/>
   <stop stop-color="#D49035" offset=".539"/>
   <stop stop-color="#765735" offset="1"/>
  </linearGradient>
 </defs>
 <g transform="translate(-36.8 -49.2)">
  <g transform="matrix(4.34 0 0 4.34 -3392 842)">
   <g transform="matrix(.577 .556 -.556 .577 230 -662)">
    <path d="m1051 17.4c-4.45-1.46-12.9-1.17-8.16-7.89 2.43-6.48 0.831-11.8 0.738-18.1-2.35-3.11-0.844-3.25-3.02-1.86-5.76 2.18-13.8 0.859-20.8 0.841-6 0.184-10.5-0.898-13.6-3.48-2.84-2.02-3.84 4.12-5.89-0.304-4.08-2.07-12.3-0.524-17.9-0.912-3.06 0.983-11.1-0.48-6.44-3.86 8.45-0.257 16.9 0.759 25.3 0.31 0.696-2.99-2.05-10.6 2.61-9.47 3.68 8.89 13.1 5.14 20.6 5.75 6.21-0.705 12 0.466 16.9 1.36 0.415 0.285 0.32-9.07 5.84-6.6 7.69-0.459 15.4-1.65 23.1-1.78 1.76 3.23 4.25 7.27 5.83 9.51 5.34 1.85 11.7 1.4 17.3 0.785 5.58 0.127 11.2 0.144 16.7 0.206 3.78-4.15 8-6.6 10.2-0.63 0.572 5.34 1.14 15.9-2.02 18-3.03-2.05-7.79-5.14-8.38-1.21-3.02-3.53-6.61-3.09-9.19-3.2-4.9 0.072-1.88-7.04-7.95-4.93-4.38-0.151-14.6-5.67-14.5 1.59-10.4 1.09 0.665 11.4 3.1 16.1 0.618 4.27-10.9 6.11-9.77-0.393-3.46-3.75-3.22-8.56-9.82-7.4-9.24-2.32-5.36 9.51-8.51 14.7-0.5 1.27-0.228 3.16-2.28 2.85zm13.4-19.5c2.83-2.81-2.28-4.8-1.87-0.212-1.31 1.28 1.57-5.99-3.65-3.3-4.93 1.41-0.222 5.58 3.06 4.07 0.883-0.077 1.86 0.329 2.46-0.563zm-56.8-17.7c-0.863-6.25-6.78-2.98-3.94 0.12 1.31-0.0103 2.64 0.11 3.94-0.12zm55.6-2.72c2.84-5.05-10.5-1.65-14-2.57-4.18-1.76-9.41 3.06-2.47 2.66 5.5 0.0456 11 0.116 16.5-0.089z" stroke="#000"/>
    <path d="m1050 18.2c-4.2-1.48-12-1.33-7.75-7.66 1.16-4.24 2.55-9.75 0.812-13.1-1.2-0.0726 7.89 2.53 1.54 1.1-0.21-0.547 15.7 6.25 11.4-2.11 0.276-1.4 0.606 5.02 4.59 2.88 2.93 1.31 6.16-4.37 2.68 0.819 4.79 3.97 2.24-8.78 2.67-0.824-0.57 2.65-3.78-0.00712-0.764-1.95-3.45-3.94 5.03-1.33-1.3-2.61-3.13-1.35-11.8 1.78-5.97-2.04-0.01-3.64-0.229-5.11-0.262-0.0344-5.01 0.528 0.317 9.47-5.73 6.8-2.5 0.323-10.2-2.07-8.64-4.34 0.925-2.07-4.79-7.77 2.08-6.74 1.03 0.937-4.78-1.54-0.723-1.92 2.99 0.0844 11.9-0.152 4.35-0.321-4.95-0.848-8.12 0.855-11.5 0.754-2.03-4.63 4.43-4.92 3.29-2.52 4.04 1.24 5.64-3.47 8.92-1.36 4.36 3.31 13.4 0.0689 19.2 1.27 4.2-1.87 6.96 3.24 1.76 2.07-3.58 0.0296-7.42 0.116-10.4 0.0028-5.76 0.141 0.226 1.38 2.55 0.85 4.29 0.273 10.5-1.06 10.3 2.1 2.29 1.35 5.84 0.284 0.852 1.61-1.62 2.29-6.15 3.9-2.57 4.94 3.78 8.45-1.42-5.41 5.14-4.07 3.74 0.107-7.69 2.29-2.63 6.12 1.72 4.4 12.7 13.1 2.72 13.9-6.02 2.89-5.72-6.75-8.92-8.97-1.92-3.35-14.8-4.55-12.7 2.91-1.53 3.29-0.4 12.4-4.99 12.4zm-5.86-2.02c-1.73-0.781-0.219 0.404 0 0zm32.2-4.54c8.97 0.0508 0.459-7.83-2.19-10.1 0.947 1.42 4.9 5.75 2.34 5.94 0.955-0.0778-3.12-1.2-0.932-1.77-0.796-2.14-1.97-1.91-1.01 0.653-1.6 1.43-1.48 1.25-3.84-2.16-0.495-1.8-0.34-0.92-0.576-2.44-5.88-2.58 1.03 5.25 2.42 8.08-1.32 3.3 1.93 2 3.78 1.81zm-3.4-0.179c0.591-0.815 0.689 0.583 0 0zm2.4-0.217c-0.361-2.72 7.54-1.29 1.33-0.27-0.652-1.64-0.932 0.867-1.33 0.27zm-0.498-2.1c0.204-0.367 0.082-0.205 0 0zm-0.737-0.298c-3.14-3.93 1.44 1.24 0 0zm3.84-0.13c-0.356-1.22 1.38-0.954 0 0zm-2.31-0.616c-1.65-1.21 1.4 0.553 0 0zm-1.13-0.396c-1.16-1.11 0-0.978 0.956-0.722-0.996-0.145-0.677 1.76-0.956 0.722zm2.72 0.134c0.912-1.57 1.6-0.167 0 0zm-0.592-1.17c-0.536-1.61-1.42 0.491 0 0zm-3.22-0.326c2-0.927-1.47-0.313-0.568-0.0931-1.34-2.24-1.6 0.615 0.568 0.0931zm0.847-1.06c-0.839-0.585-0.357 0.738 0 0zm-0.824-0.403c-0.869-0.0589-0.89 0.752 0 0zm2.47 0.202c-0.619-0.493-0.89 0.551 0 0zm-3.56-0.221c-0.233-0.629-0.304 0.834 0 0zm-0.722-0.127c-1.09-1.2-1.17-0.895 0 0zm1.48-0.313c0.758-0.569-2.1-0.289 0 0zm-0.583-0.138c-0.201-0.826 0.536 0.628 0 0zm1.24-0.54c-0.833-0.951-0.864-0.577 0 0zm-1.32-0.392c-1.25-0.714-1.02 0.0849 0 0zm-0.247-0.869c0.304-1.08-0.375 0.449 0 0zm1.97-2.05c-0.59-1.94 0.27 2.3 0 0zm-16.3-0.0403c-1.28-0.256-0.245 0.265 0 0zm-7.21-4.37c-0.294-8.04-0.141 8.41-1e-4 0zm2.75 1.39c-0.244 0.396 0.242 2.01 0 0zm0-3.05c-0.177 2.28 0.144 2.3 0 0zm-6.71 0.972c-0.845-0.801-0.874 0.676 0 0zm0.264-0.227c-0.373 0.154 0.347 0.652 0 0zm0.724 0.387c-0.87-1.28-0.339 0.426 0 0zm0.659-0.232c-0.297-0.466-0.698 0.804 0 0zm19-0.477c-0.723-0.235-0.069 0.317 0 0zm1.74-5e-3c-2.01-0.24-0.397 0.243 0 0zm-23.9-0.802c-0.363-0.625-0.781 0.786 0 0zm0.784 0.107c-0.257-0.924-0.8 0.585 0 0zm1.17-0.0206c-0.326-0.46-1.6 0.158 0 0zm0.571 0.0189c-0.312-0.829-0.512 0.597 0 0zm0.659-0.0646c-0.635-0.793-0.635 0.793 0 0zm1.15-5e-3c-0.938-0.765-1.11 0.808 0 0zm3.12-0.833c-1.09-0.546-2.4 0.412 0 0zm-9.36-1.71c-2.59-4 1.62 4.81 0 0zm4.88 1.31c2.11-0.00619-1.35-2.01-2.06-0.437-3.03-0.496 1.37-5.4-1.45-0.779 0.034 1.53 2.49 1.63 3.51 1.22zm14.7-0.19c-0.643-0.602-0.643 0.602 0 0zm6.21 0.0506c-1.09-0.244-0.211 0.273 0 0zm1.57-2e-3c-1.85-0.261-0.337 0.259 0 0zm-20-2.21c-0.234-6.17-0.302 6.44 0 0zm20.2 1.6c-2.7-1.1-3.32 1.04 0 0zm-5.38-0.104c-0.487-1.05-1.74 0.98 0 0zm0.537 0.0131c-0.305-1.14-0.305 1.14 0 0zm11.3 0.22c-0.907-0.267-0.165 0.288 0 0zm-25.2-0.879c2.99 0.593-3.04 0.194 0 0zm1.68 0.366c-0.499-0.875-0.504 0.546 0 0zm-7.49-0.284c-1.47-0.864 0.526 0.813 0 0zm14.9-0.165c-0.714-1.09 0.067 1.01 0 0zm0.549 0c-0.144-0.87-0.39 0.864 0 0zm-5.24-0.0302c-0.723-0.235-0.069 0.317 0 0zm9.03-0.172c-1.7-0.536-1.15 0.543 0 0zm0.405 0.131c0-0.763-0.442 0.538 0 0zm4.21-0.102c2.59 0.0174-2.65-0.0148 0 0zm-23.5-0.0737c-0.406-0.587-0.2 0.602 0 0zm21 0.0522c-0.722-0.236-0.071 0.317 0 0zm-21.9-0.289c-1.6-0.602 0.137 0.845 0 0zm2.41-0.0231c-1.89-2.54-1.04-0.199 0 0zm8.24 0.095c-0.421-0.591-0.421 0.591 0 0zm-10-0.538c-0.506-0.401 0.492 0.884 0 0zm15 0.215c-0.477-0.591-2.66 0.349 0 0zm0.947-0.171c0.067-0.351-1.52 0.637 0 0zm0.76 0.0824c-0.391-0.864-0.143 0.87 0 0zm4.51-0.118c-0.402-1.01-0.878 0.99 0 0zm-14.2-0.335c-0.288 0.165 0.267 0.907 0 0zm15 0.298c-0.866-0.788-0.847 0.85 0 0zm4.02 0.0451c-1.23-0.958-1.25 0.262 0 0zm0.363-0.587c-0.371 0.156 0.349 0.651 0 0zm-17 0.12c-0.815-2.51-1.71 0.263 0 0zm1.65-0.494c-0.483-2.57-0.865 2.43 0 0zm2.84 0.283c-0.019-1.14-1.5 0.547 0 0zm1.07 0.102c-1.47-1.84-0.461 0.87 0 0zm0.876-0.22c-1.23-1.1-0.145 0.801 0 0zm1 0.0954c-0.999-0.808-1.01 0.727 0 0zm-9.89-1.35c-4.29-0.179-1.61-0.636-0.082 0.422-0 1.88 0.172 0.417 0.082-0.422zm3.09 0.882c-0.274-1.71-0.531 1.63 0 0zm3.06-0.0412c-0.577 0.224-0.134 0.92 0 0zm2.02-0.533c-2.3-0.144-2.28 0.176 0 0zm2.14 5e-3c-1.85-0.261-0.337 0.259 0 0zm-5.87-0.498c-0.373 0.154 0.347 0.652 0 0zm-0.824-1.32c-0.371 0.156 0.349 0.651 0 0zm-1.99-0.209c-1.24-0.552-0.94 0.359 0 0zm-1.24-0.155c-0.842-0.375-1.25 0.554 0 0zm7.74-0.114c-0.421-0.275-1.96 0.576 0 0zm-5.19-0.0605c-0.838-0.656 0.231 0.599 0 0zm11.6-0.43c3.03 0.125 7.28-0.498 1.58-0.69-2.78 0.133-13.2-0.546-11.4 0.591 3.27 0.136 6.51 0.408 9.78 0.0984zm-13.3-0.393c-2.21-0.652-13.7 0.0451-5.5 0.119 1.83-0.0068 3.67 0.0505 5.5-0.119zm-16.9-0.45c-0.373 0.154 0.347 0.652 0 0zm18 0.337c-0.723-0.235-0.069 0.317 0 0zm-7.65-0.496c-1.09-0.244-0.211 0.273 0 0zm19 18.1c-0.588-0.82 0.932 0.586 0 0zm50.8-2.43c-2.41-1.73-8.5-6.21-8.23-1.26-2.95-3-7.67-3.81-7.78-4.44-5.96-0.287-1.89 0.68-0.777 0.639 1.96 1.67-1.13 0.419-4.1-0.7 1.15-4.44-4.58-3.93 1.53-4.12 3.99 1.53 2.27 0.585 7.82 0.125 3.99 0.974 13.7-2.5 11.9 3.99 1.82 7.55-3.71 1.71-8.88 0.0736 1.09 2.28 4.33 2.25 5.78 3.6 6.75 5.23 3.96-7.87 4.5-11.5 0.815-4.27-1.84-6.48-3.6-9.34-1.17-3.2-7.82-7.17-3.69-1.72 3.35 7.5-8.48 8.45-8.8 7.02 2.98-0.267 6.49 0.915 8.34-2.14 1.37-2.63-3.52-11 1.2-7.05 3.48 4.6 7.92 7.93 7.24 14.2-0.872 3.25 0.543 12.2-2.47 12.7zm-8.13-1.74c-2.33-2.06-0.82-0.367 0 0zm7.34-0.451c-0.406-0.587-0.2 0.602 0 0zm-8.38-0.45c-0.806-0.00388 0.449 0.853 0 0zm-0.841-0.491c-3.39-2.88-2.72-1.43 0 0zm-3.19-2.19c-1.69-0.681-0.878 0.116 0.193 0.329zm3.68-1.08c-4.28-3.3 0.076 0.696 0 0zm-2.79-1.97c-1.82-0.929 0.935 0.849 0 0zm10.3 0.0604c-0.972-1.01-1.81 0.433 0 0zm0.55-0.376c-0.154-0.899-0.386 1.1 0 0zm0.891-0.544c-3.63-0.81-7.39 0.549-1.29 0.202l0.721-0.0398zm2.62-0.412c-0.288 0.165 0.267 0.907 0 0zm-65.3 9.77c-1.47-0.41 1.92-0.0316 0 0zm-2.64-0.48c-3.74-1.08 6.64 0.852 0 0zm3.66 0.108c-0.864-3.81 0.647-7.35 0.548-1.53 0.71 0.335 0.476 2.34-0.548 1.53zm-6.38-0.787c0.822-0.598 0.437 0.635 0 0zm-0.824-0.165c1.52-0.442-0.843 0.563 0 0zm-0.906-0.165c0.643-0.602 0.643 0.602 0 0zm13.7-0.0933c5.48-5.82-8.74-2.81-1.35-3.93 2.76-1.02 7.23 2.72 3.28 0.717 0.337 0.553-1.36 4.24-1.93 3.21zm-30.1-7.32c-4.42-0.262 4.9-0.555 4.64-0.225 3.12 0.126-1.92-0.872 2.45-1.47 0.273-2.77 5.7 1.96 0.097 0.293-1.18 2.83-4.73 0.895-7.19 1.41zm-3.04-0.0759c-4.37-0.0313-7.71-0.467-1.36-0.28-0.21-0.0965 3.41 0.0648 1.36 0.28zm-9.86-0.499c2.92-0.4 6.3 0.84 0 0zm59.6-0.0842c-0.086-4.7 8.9-2.13 13.2-2.59 1.14 2.48-5.15 0.734-1.07 1.74-3.45 0.0778-11.3-3.78-12.1 0.851zm9.91-1.25c-2.76-2.37-9.22-0.615-2.08-0.804-0.079-0.729 2.69 1.93 2.08 0.804zm-76.1 1.29c-2.99-1.23-2.62-2.68 0.15-0.385 3.69 0.264 8.41 0.53 1.84 0.449 0.738 0.0115-2.66-0.0585-1.99-0.0632zm16.4-0.201c-0.436-1.13 0.96 1.12 0 0zm2.22 0.0345c0.246-0.946 2.95 0.356 0 0zm2.28 0.0184c-0.125-0.683 0.794 0.914 0 0zm-6.92-0.037c-0.139-0.966 0.501 0.421 1e-4 1e-5zm8.35 0.0431c0.654-0.345 0.152 0.371 0 0zm57.7-0.0334c-2.21-0.507 0.126-0.802 0.825-2.08 2.53-0.488 11.4 0.839 5.63 1.47-1.99-0.0231-7.66-0.0884-5.14 0.652l-1.32-0.0433zm1.98-0.0627c1.35-0.485 1.64 0.448 0 0zm-72.5-0.208c0.047-0.814 0.708 1.08 0 0zm3.68 0.0837c0.384-0.566 0.474 0.314 0 0zm4.45 0.0824c0.394-0.562 0.667 0.315 0 0zm-12.6-0.257c0.2-0.602 0.406 0.587 0 0zm83.8-0.457c0.167-2.57 4.56-0.564 6.53-1.19 7.56 0.811-4.77 2.31-6.53 1.19zm9.21-0.166c0.888-2.99 14.2 0.18 6.6 0.396-1.93-0.278-5.6 0.631-6.6-0.396zm-103-0.521c-1.34-3.06-3.97-1.81-5.06 0.0158-5.06-1.17 1.03-3.84 0.716-0.643-0.03-3.97 6.14 1.41 3.77-3.25 1.47 3.35 2.26 5.26 1.49-0.531-0.067-1.92 2.69 7.75-0.912 4.41zm-4.53-0.53c-0.367-1.69-4.42-0.359 0-1.5e-4zm39-0.0359c-0.201-3.32 4.2-0.438 0 0zm-32.3-0.266c-0.564-0.683 1.04 0.576 0 0zm4.78-0.124c0.229-1.22 0.566 0.378 0 0zm21.1-0.809c-0.999-1.05-2.36-0.242-5.01-0.944 3.63 0.65-0.542 0.745-1.76-0.0559-0.196-0.141 1.76 0.852-0.852 0.327-2.35 1.13-0.298-1.43-2 0.206-2.36-1.02-4.57-0.641-7.07-0.247-2.66-0.459-1.43 0.0419-4.49-0.296-0.06-1.76-3.77 0.585-4.24-1.68-3.16 1.84 2.04-3.23 1.81-1.61 0.954-2.9 2.84 4.5 2.44-0.613 2.63-0.935 1.3 5.23 2.33 0.246 2.13-0.881 4.39 0.878 4.3 0.836-0.111-4.32 3.02 2.64 2.72-1.1 2.68-0.604 1.32 3.79 2.1-0.31 2.23 1.88 1.41-0.0545 4.25 0.466 1.24 0.0971 2.55-0.688 4.8 0.203-0.556 1.7 2.7-3.31 2.32 1.2-0.388 1.18 0.785 4.26-1.67 3.38zm-1.73-0.992c-1.48-0.275-0.265 0.274 0 0zm-22.7-0.875c-1.39-0.543-0.588 0.291-2e-4 -2e-5zm0.659-0.0921c-0.667-0.315-0.394 0.562 0 0zm4.57 0.137c-2.74-0.228-0.545 0.229 0 0zm1.06 7e-3c-0.723-0.235-0.069 0.317 0 0zm-5.48-0.999c0-1.26-0.639 1.66 0 0zm9.51-1.73c-0.288 0.165 0.267 0.907 0 0zm52.4 3.98c2.72-6.95 2.56 0.935 0 0zm1.86-0.106c0.955-3.34 2.09-2.04-0.355 0.859 0.118-0.286 0.237-0.573 0.355-0.859zm-68 0.187c-0.82-2.69 1.79 1.29 0 0zm69.8-1.29c0.66-3.05 8.44 0.458 12.2-1.03 4.19-0.801 10.3 0.106 15.6-0.235 4.39 0.574 11.6-1.16 14.6 1.14-3.94 2.01-11.3 0.699-16.3 1.18-3.76-0.158-7.09-0.212-11.1-0.0796-1.8-0.99-8.81 0.0272-12-0.498 0.59-0.79-3.57 1.51-2.98-0.488zm0.962-0.349c-0.736-0.864-0.345 1.12 0 0zm1.24 0.0921c-0.809-0.623-1.15 0.61 0 0zm5.19 0.0131c-2.8-0.543-5.38 0.65 0 0zm-84.6 1.39c-4.19-0.675 2.38-0.431 0 0zm2.06-0.123c0.248-1.54 0.57 0.789 0 0zm20.5-0.0412c0.143-0.87 0.391 0.864 0 0zm0.938-7e-3c0.251-0.781 0.428 0.59 0 0zm-41.1-0.0339c-5.66 2.94-10.5-4.03-6.71-3.84-3.66 1.98 1.25 4.04 3.64 3.45 3.95 0.788 2.78-5.3 0.329-3.96 4.46-1.47 1.55 6.11 5.53 3.21-0.192 0.579 9.39 1.1 1.9 0.928-1.61-0.24-3.26-0.0768-4.69 0.204zm36.6-0.0412c-0.377-0.65 1.2 0.551 0 0zm2.14 5e-3c1.73-0.561 0.544 0.473 0 0zm3.46-5e-3c0.421-0.591 0.421 0.591 0 0zm-34-0.165c2-1.62 11.2 0.723 3.95-0.0116-1.3-0.331-2.72 0.34-3.95 0.0116zm3.25-0.439c-0.907-0.267-0.165 0.288 0 0zm7.54 0.456c0.621-0.955 0.33 0.515 0 0zm8.81-0.0149c0.373-0.572 0.664 0.318 0 0zm1.41-0.0713c0.074-0.71 0.239 0.439 0 0zm-8.33-0.395c1.02-2.71 4.83 1.73 0 0zm-7.83-0.525c0.422-0.61 0.633 0.591 0 0zm12-0.0412c-1.94-2.49 1.32 0.797 0 0zm-4.75-0.137c-2.03-3.23-6.63-1.71-10.6-2.03-3.62-0.315-9.8-0.335-2.68-0.41 3.31-0.34 9.43 1.39 11.5-0.748 0.877-2.98-1.95-10 2.94-8.37 2.59 6.53 6.78 5.36 8.99 1.69-0.208 1.01-2.85 3.95-5.33 4.86-0.919-3.3-7.42-6.3-4.74-2.15-3.42-0.46-0.577 7.3 0.292 6.16-0.29-0.319 0.033 1.79-0.274 0.995zm10.3-9.37c-1.27-1.48-1.32 0.49 0 0zm-9.63-1.71c-0.833-0.951-0.864-0.577 0 0zm-1.81-0.529c-0.474-0.314-0.384 0.566 0 0zm3.89 11.4c-3.38 0.0859 0.309-0.964-1.1-1.72 0.709-1.69-4.69 1.6-2.37-3.16-0.321-5.42 7.47-1.42 4.3 1.9-1.45 0.358 0.602 2.93-0.833 2.98zm-1.68-3.72c7.52 1.92-1.51-8.57-1.39-1.23 0.446 1.37-0.789 1.66 1.39 1.23zm-0.892-0.0428c0.62-0.533 0.908 0.286 0 0zm2.84 0.12c-0.907-0.267-0.165 0.288 0 0zm-7.37 3.6c-8.2 0.0624 3.88-1.91 1.65-0.0241l-0.541-0.0338-1.11 0.058zm-8.87-0.214c-2.06-0.429 2.19-0.311 0 0zm90.8 0.121c0.558-0.669 0.778-0.454 0 0zm-102-0.35c0.408-0.868 0.408 0.868 0 0zm6.97-0.494c0.145-1.37 0.103 1.57 0 0zm0.447 0.576c1.74-0.613 1.74 0.613 0 0zm-5.44-0.329c0.294-0.94 0.283 0.904 0 0zm10.6 0.0961c0.0735-0.71 0.238 0.439 0 0zm15.8 0.11c-0.526-1.91 1.03 0.443 0 0zm-27.5-0.165c0.229-1.22 0.566 0.378 0 0zm-2.02-1.14c0.907-0.267 0.165 0.288 0 0zm65.8-0.0208c-2.93 0.164-1.15-3.81 1.04-1.24 1.91-2.31 5.36-0.907 8.15-1.26 3.42 0.216 7.18-0.351 10.4 0.357 2.9 1.37 12.2-1.43 4.31-2.35-6.54-0.333-13.4 0.565-20.1 0.106-4.61-1.84-6.46 3.82-4.88-2.75 4.52-4.05 12.2-1.72 18-3.22 3 0.509 8.62-2.49 6.9 0.927 0.94 1.79 4.25-0.463 4.04-1.06 1.62 4.21 3.84 8.81 6.98 9.54 6.3 1.77 12.6-0.0403 18.8 0.335 4.34-0.212 7.8 0.533 1.6 0.37-7.27-0.0464-15.1 1.1-22-0.403-2.04-0.647-1.15 0.0022-3.14-0.544 2.79 2.82-8.21 0.55-10.6 1.28-3.97-0.0147-7.93-0.0293-11.9-0.044-1.71-3.21-5.3 0.527-7.6-0.0476zm6.74-1.13c-0.923-0.532 0.056-0.0906 0 0zm24.6-0.803c0.707-3.5-1.99-0.0531 0 0zm0.796 0.0772c0.6-1.63-1.32 0.401 0 0zm-11.5-3.26c-0.289-4.91-11.4-1.17-15.8-2.3-4.17-1.6-7.41 3.52-1.29 2.55 5.68 0.0259 11.4 0.328 17-0.247zm-21.1-0.435c0.064-4.07 11.6-2.18 8.12-2.25 3.65-0.622 12.1 0.751 13.5 0.118-4.45-1.65-9.76-0.389-14.6-0.706-2.59 0.405-7.02-1.34-7.47 2.53-0.381 0.367 1.1 1.91 0.453 0.311zm10.5-2.5c0.652-0.347 0.154 0.372 0 0zm18.3 2.63c-1.06-2.95-1.73 1.12-3.05-0.323 1.14-1.82-4.25-0.158-0.449 0.739 0.619-0.343 3.81 0.61 3.5-0.416zm-0.969 0.1c0.633-0.591 0.422 0.61 0 0zm2.12-0.913c-0.528-0.649 0.18 0.817 0 0zm-6.15-1.15c-2.46-1.18-3.36-5.12-1.31 0.117 0.329 0.0134 1.1 0.392 1.31-0.117zm-17-0.427c-2.74-0.26-3.9 0.016 0 0zm19.3-0.0376c-4-0.699 0.034 0.661 0 0zm2.53-0.119c-1.95-0.759-2.8 2.7e-4 -2e-4 0zm-2.51-0.571c-0.769-1.25 0.394 1.8 0 0zm0.798-0.439c-0.224-0.906-0.706 1.47 0 0zm1.68 0.411c-0.723-0.235-0.069 0.317 0 0zm-26.8-0.165c-0.723-0.235-0.069 0.317 0 0zm1.82-0.161c-0.907-0.267-0.165 0.288 0 0zm7.74-0.555c-2.11-0.135 0.417 0.474 0 0zm6.25-0.331c9.29-0.98-11.2 0.538-2.33 0.146l1.16-0.075 1.17-0.0712zm6.06-0.515c-1.14-0.47-3.53 0.818 0 0zm45.6 9.82c0.262-3.25 4-0.37 0 0zm-135-0.234c-0.272-0.611 0.833 0.62 0 0zm0.494 0c0.516-0.494 0.857 0.649 0 0zm1.09-0.0288c2-0.0912-0.713 0.514 0 0zm62.6 0.0837c-0.532-1.06 0.592 0.0405 0 0zm-3.35-0.474c0.251-0.781 0.428 0.59 0 0zm-2.57-0.174c-0.506-1.22 1.1 0.393 0 0zm3.75-0.0689c-1.99-2.96-5.56-2.05-6.01-2.23-2.12 0.0209-3.47 0.0528-8.28-0.0561-2.85 0.29-5.76-0.287-8.69 0.3 0.816-0.506-5.57 0.813-2.41-3.28-2.41 4.2 3.3 2.05 5.65 2.6 6.26 0.0484 12.5 0.065 18.8 0.166 0.665 2.98 6.98 0.883 0.958 2.51zm-13.3-2.3c-0.069-0.648-1.54 0.636 0 0zm9.39-0.0921c-0.474-0.314-0.384 0.566 0 0zm28.9 1.9c-5.16-3.18 9.27-2.47 1.19-1.53-0.133 1.16-1.8 0.132-1.19 1.53zm-0.386-1.58c2.71-0.677-1.08-0.336 0 9e-5zm-54.3 1.54c-0.348-2.42 4.18-0.115 0 0zm33.9-0.79c-1.42-2.95 7.8-0.535 11.5-1.39 2.87-0.063 11.6 0.15 4.12 0.234-2.78 0.0445-16.5 0.0498-6.81 0.198 3.67-0.0665 15.7 0.225 5.57 0.372-4.76 0.16-9.84-0.405-14.4 0.587zm1.24-1.07c-1.05-0.945-0.935 0.544 0 0zm23.7 0.741c2.94-0.613 2.52 0.62 0 0zm-1.63-0.145c-1.73-1.01 3.85 0.179 0 0zm-39.2-0.284c0.654-0.345 0.152 0.371 0 0zm-15.1-2.55c0.641-1.52 0.6 0.0045 0.07 0.334l-0.07-0.334zm99.1-3.87c0.654-0.345 0.152 0.371 0 0zm-42.7-1.33c1.45-0.239 0.298 0.253 0 0z" fill="#ccc"/>
   </g>
   <g transform="matrix(.453 0 0 .453 901 -188)">
    <g>
     <path d="m-8.75 263c1.01 22.7-14 43.9-34.8 52.3-29 12.1-63.4 12.2-92.1-0.94-21.4-9.48-35.5-32.4-33.6-55.8 2.31-35.4 21.8-71.8 54.6-87.6 27.1-13 60.9-3.07 79.4 19.8 17 19.9 26.2 46.2 26.5 72.3z" fill="#996"/>
     <path d="m-88 167c-33.1-0.238-59.4 26.7-71.1 55.7-9.81 23.6-14 54.2 4.08 74.9 16.4 18.7 42.7 24.8 66.7 24.9-26.3-0.0546-56.9-8.04-70.6-32.7-12.4-25.1-4.06-56.6 13.7-77 26-30.9 77.3-34.4 107-7.03 22.8 20.5 32.6 57 18.1 84.9-13.4 23.6-42.6 31.9-68.2 31.8 27.2 0.133 58.7-8.91 71.9-34.9 11.5-24.5 4.32-53.3-7.17-76.4-12.3-24.2-36.1-44.6-64.5-44.2z" fill="#996"/>
     <path d="m-147 195c-19 24.8-30.8 58.8-20.7 89.5 9.08 26.4 37.9 38.3 63.6 41.4 29.9 3.49 64.8-2.13 84.9-26.7 18.1-24.4 13.2-58.1 1.17-84-12.1-27.7-39.1-51-70.6-50.3-22.9 0.01-44.4 12.4-58.4 30.1m-21.4 69.6c0.682-35.9 18.6-73.6 51.1-91 26.4-14.1 60.6-5.5 79.5 17 19.6 22.5 30.2 53.8 25.9 83.5-4 25-27.3 41.7-51 46.2-28.5 5.45-60.5 2.99-84.9-13.9-13.3-9.43-21-25.4-20.6-41.7z" fill="#282828"/>
     <path d="m-88.1 301c-27.6-0.132-58.3-3.81-78.6-24.5 4.35 24.8 28.7 39.8 51.9 43.8 28.1 4.93 59.9 3.67 84-13.3 9.86-7.22 16.8-18.2 19.2-30.1-19.5 20.4-49.8 23.9-76.5 24z" fill="#28170b"/>
     <path d="m-88 166c31.3-0.354 56.5 24.9 67.5 52.5 10.2 24.1 13.3 55.5-5.23 76.5-20.8 23-54.9 26.1-83.8 21.4-23.3-3.63-48.8-16.8-54.7-41.5-5.49-28.3 4.69-58.2 22-80.5 12.2-15.4 30.3-26.9 50.2-28.1-34.1 2.18-59.8 31.5-70.2 62.2-7.92 22.6-10.9 51.2 6.49 70.3 20.8 22.3 54 26.8 83 23.8 25.5-2.56 52.7-16.8 60.3-42.9 7.53-28-2.07-58.2-18.1-81.4-13.1-18.5-34.2-32.5-57.4-32.1z" fill="#282828"/>
    </g>
    <path d="m-25.8 126c0.63 34.5-33.3 62.9-66.9 59.7-32.2-1.7-60.9-31.7-57.5-64.4 2.32-35.4 40.2-61.6 74.3-54 27.6 5.15 50.5 30.2 50.2 58.7z" fill="#fcd095"/>
    <path d="m-130 103c19.7-22.2 58.3-23.5 80-3.6 9.48 9.08 14.5 21.9 16.4 34.7 5.73-32.2-24.2-62.8-56.1-61-30.9 0.0044-58.6 30-53.1 61 1.76-11.1 5.46-22.4 12.8-31.1z" fill="#ffe2ae"/>
    <path d="m-28 118c-2.06 23-17.4 45.6-40.8 50.7-32.2 9.01-70.5-10.8-78.1-44.1-2.25-14.7-2.37 9.85 0.148 14.9 8.61 33.3 48.9 53.1 80.6 39.9 24.5-9.05 42-35.1 38.2-61.4z" fill="#fabb78"/>
    <path d="m-148 119c-2.3 4.03 0.521 17.5-0.428 5.77l0.141-2.89zm119-5.55c7.85 31-15.8 63.9-46.6 69.6-28.3 6.27-60.3-9.93-69.5-38.1-2.27-4.97-5.82-17.6-7.11-17.6 0.248 33.2 31.4 60.9 64 60.2 33.9 0.702 66-29.5 64-64-1.23-8.48 1.68-6.29-4.84-10.2zm2.29-3.47 0.051 1.12zm-0.062-1.04 0.051 0.837zm-0.05-0.606 0.0232 0.268z" fill="url(#linearGradient7557)"/>
    <path d="m-43.7 74.5c9.99 9.4 17.2 22.3 17.2 36.3-7.41-8.88-18.6-19.8-27.8-6.34-14.6 7.3-32.6 10.8-47.8 3.05-13.2-7.91-25.2 5.24-23.6 18.3 0.336 11-4.91 10.1-7.46 0.81-1.52-8.27-14.7-25.6-16.5-8.13-0.576 4.59 0.851 18.4-3.47 7.65-0.942-16.5 0.889-35 13.4-47.1 23.6-25 67.8-29 94.2-6.3z" fill="#888a85"/>
    <path d="m-154 115c-0.349 6.96 7.87 22.6 3.12 7.64-1.16-2.49-2.55-4.92-3.12-7.64zm110-24.1c-9.14 8.48-21.1 13.7-33.7 14.4-14.6 3.38-30.3-8.38-43.3-1.64-5.64 6.8-5.1 21.2-9.17 25.6-6.19-7.17-6.08-25.6-19-22.5-4.29 4.44-0.909 21.2-0.415 7.22 13.5-8.65 14 18.6 21.7 20.4 3.45-9.87 1.19-26.2 14.3-28.9 10.8-0.481 20 8.32 31.1 5.84 13.2-0.594 26.6-4.28 36.2-13.8 8.92-8.01 19.1 24.6 19.3 7.35-0.251-7.69 0.588 6.06-4.71-1.54-4.13-4.08-5.99-11.5-12.4-12.5z" fill="#2e3436"/>
    <path d="m-52.3 91.8c-3.38 13-20.7 12.8-31.7 13.8-12.4-0.164-26.5-0.154-36.6-8.38-5.06-8.64 13.2 0.746 18.3-0.682 15.8 3.51 30.6-3.26 45.8-5.99 1.21 0.0736 3.86-0.582 4.17 1.26z" fill="#babdb6"/>
    <path d="m-28.2 98.4c1.39 6.45 4.24 23.1 2.07 7.81-0.488-2.65-1.16-5.27-2.07-7.81z" fill="#f3d4b2"/>
    <path d="m-146 111c-10.5 13.9 14.2 1.4 0 0zm98.1-10.9c-15.4 11.1-36.3 13.3-54 6.74-16.8-8.28-26.4 11.7-25.4 25.8-2.58 6.82-13.1-27-8.45-10 1.72 6.08 10.6 26.6 11.9 9.69-0.476-14.6 11.8-28.3 26.6-19.7 17.5 5.95 38.2 2.81 52.6-8.87l-1.58-1.85zm6.04-3.85c3.12 5.1 18.5 24 10 9.25-2.62-3.75-6.01-7.02-10-9.25z" fill="#f2bd7e"/>
    <path d="m-142 113c-4.39 7.71 10.1 6.16 0 0zm98.1-16.8c-7.95 3.43-2.23 9.48 3.22 5.72 5.52 6.47-1.36-6.71-3.22-5.72z" fill="#f3c58a"/>
    <path d="m-148 130c0.714 6.87 1.09 6.81 0 0z" fill="#f1b26f"/>
    <path d="m-147 112c-8.3 4.03 0.707 23.5-4.61 16.4 2.17 7.24 3.87 10.3 2.41 0.628 0.367-5.71 1.09-11.4 2.2-17zm120-3.53c1.82 7.85-7.03-4.93-2.14 4.82 5.48 8.71 3.68-1.25 2.14-4.82z" fill="url(#linearGradient7559)"/>
    <path d="m-128 135-0.276 0.132zm-21.4-4.88 0.148 0.08zm-1.34-2.25 0.394 0.756zm-0.382-0.782 0.16 0.324zm-0.372-0.83 0.21 0.47zm-0.244-0.598 0.147 0.382zm5.49-14.4c-5.95-0.06 13.1 3.56 1.61 0.265zm120-0.426-0.148 0.046zm-0.052-2.82 0.021 0.336zm-84.8-2.8c3.95-0.104 14.5 3.77 4.94 0.726l-2.45-0.497zm-0.374 0h-0.358zm77.4-1.74c3.36 3.58 3.37 3.58 0 0zm6.31-5.39c1 3.41 1.98 14.2 0.936 4.68l-0.433-2.7zm-15.3-2.01-0.47 0.134z" fill="#d69c5d"/>
    <path d="m-152 126c2.8 6.22 3.04 5.77 0 0zm1.91-0.968c0.782 5.63 1.09 8.15 0 0zm10.4-10.5c2.44 5.13 10.5 22.6 9.32 18.6-3.84-5.86-4.35-13.4-9.32-18.6zm-9.02-2.26c-3.45 2.66-1.36 13.9-1.87 4.2l0.557-2.36zm122-1.47-0.084 0.326zm-5.4-4.33c3.18 4.22 7.03 6.19 1.14 1.35zm-80.3-0.96c-13.4 0.832-12.5 17-15.2 26.6-1.14 6.94 0.72-16.6 4.79-20.3 2.12-3.69 6.02-6.41 10.4-6.37zm0.36 0 2.28 0.15zm67.9-9.01c-13.1 10.4-30.1 17.4-47 13.4-5.14-0.958-23.6-5.76-9.74-2.19 17.1 6.4 36.7 3.36 51.3-7.59 1.83-1.2 3.64-2.42 5.45-3.63zm0.472-0.132c4.87 1.74 13 12.2 5.17 3.18-1.46-1.36-3.04-3.03-5.17-3.18z" fill="#2e3436"/>
    <path d="m-153 120c-0.586-30.3 26.6-55.1 55.6-58.3 34.1-5.6 70.9 21.1 72.4 56.4 1.22 6.51-3.41 22.1-3.81 22.6 13.4-24.6 2.35-56.1-19.4-72-22-18.1-55.6-19.3-78.5-2.33-22.9 15.1-35.9 46.7-23.3 72.4 4.79 12.4-5.44-16.7-2.92-18.7z" fill="#2e3436"/>
   </g>
   <path d="m834-93.7c-0.357-2.09 2.7-2.78 3.8-4.27 1.54-0.901 3.2-2.85 4.76-3.02 1.3 1.32 3.91 2.46 4.43 3.89-2.34 3.42-5.06 6.57-8.2 9.28-1.49-2.05-3.13-3.97-4.79-5.88z" color="#000000" fill="#fc0"/>
   <path d="m887-94.1c0.357-2.09-2.7-2.78-3.8-4.27-1.54-0.901-3.2-2.85-4.76-3.02-1.3 1.32-3.91 2.46-4.43 3.89 2.34 3.42 5.07 6.57 8.2 9.28 1.49-2.05 3.13-3.97 4.79-5.88z" color="#000000" fill="#fc0"/>
   <path d="m890-144c3.77 1.57-4.15 0.108 0.203 3.44 5.7-0.584 0.886-9.56-3.65-9.67-1.68-5.49-4.65-10.7-8.07-15.3-8.7-10.9-25.9-15.3-37.9-7.23-6.96 4.48-11.8 11.9-13 20.1-1.52 6.64 0.0338 13.4 2.3 19.7 4.01-1.56 7.29 3.06 10.1-1.42 11.2-7.67 24.3-14.4 38.2-12.9 4.07 0.498 8.38 0.799 11.8 3.33z" clip-rule="evenodd" fill="#996" fill-rule="evenodd" image-rendering="optimizeQuality" shape-rendering="geometricPrecision" stroke="#000" stroke-width="1.07"/>
  </g>
 </g>
</svg>
