<?xml version="1.0" encoding="UTF-8"?>
<svg width="293.94" height="312.63" version="1.1" xmlns="http://www.w3.org/2000/svg"><rect x="162.95" y="257.62" width="88.803" height="52.597" rx="18.827" ry="46.023" fill="#fff"/><path d="M153.84 307.4c-1.149-2.374-2.089-5.047-2.089-5.941s-.45-1.903-1-2.243c-2.183-1.35-.204-15.274 2.641-18.579 1.505-1.748 1.865-6.921.482-6.921-.483 0-1.438.675-2.122 1.5-2.91 3.506-8.673 1.258-10.923-4.261-3.604-8.841 5.626-29.239 13.23-29.239 2.883 0 6.585 2.66 5.192 3.731-1.516 1.166-1.288 13.269.25 13.269.688 0 1.25-.455 1.25-1.012 0-2.091 6.516-10.753 9.449-12.562 7.681-4.737 7.235-4.648 11.052-2.198 1.947 1.25 3.799 3.266 4.117 4.481s1.209 2.732 1.98 3.372c2.361 1.96 1.736 4.919-1.039 4.919-1.342 0-2.719.45-3.059 1s-1.604 1.015-2.809 1.033c-2.05.031-6.691 3.067-6.691 4.377 0 1.221 3.806.529 5-.91.685-.825 2.288-1.5 3.563-1.5s2.597-.45 2.937-1c1.208-1.954 5.5-1.149 5.5 1.031 0 1.117.675 2.29 1.5 2.607s1.5.993 1.5 1.504c0 .534-.821.489-1.934-.107-9.002-4.818-20.478 7.015-19.847 20.465.282 6 .282 6-7.468 6.292-5.834.22-7.75.638-7.75 1.691 0 1.961 2.068 3.025 2.987 1.538.548-.887 2.841-1.075 8.138-.667 24.867 1.917 24.167 1.92 28.665-.122 13.34-6.056 14.461-20.881 1.96-25.934-4.33-1.75-4.451-2.137-1.75-5.571 1.1-1.398 2-2.827 2-3.175 0-1.136 4.353-6.552 5.266-6.552 1.547 0 16.176 16.166 17.527 19.37.711 1.686 1.782 3.367 2.378 3.736 1.699 1.05.172 2.575-3.266 3.263-5.726 1.145-10.502 7.189-11.296 14.296-.689 6.165-.689 6.165-3.104 3.75-1.328-1.328-2.885-2.415-3.46-2.415-1.606 0-1.24 2.712.455 3.362.825.317 1.5 1.285 1.5 2.152 0 1.663-5.449 1.28-9.184-.646-6.058-3.123-19.051 2.288-20.952 8.727-2.012 6.814-17.487 6.881-20.775.089zm-1.281-41.612c1.619-3.657 1.202-14.246-.584-14.835-.972-.321-1.112.616-.586 3.921.635 3.995.555 4.231-.998 2.95-2.301-1.898-3.214-.664-1.802 2.435 1.607 3.527 1.454 6.457-.338 6.457-.825 0-1.5.45-1.5 1 0 2.413 4.556.901 5.808-1.928zm49.192 44.551c0-1.53 2.315-3.778 3.645-3.539 2.454.44 4.355-.251 4.355-1.583 0-2.485 1.849-1.693 3.5 1.5.853 1.65 2.188 3 2.967 3s1.693.45 2.033 1c.394.637-2.49 1-7.941 1-6.603 0-8.559-.315-8.559-1.378zm18.675-1.048c-3.806-3.527-3.712-3.574 7.137-3.574 10.976 0 10.656.192 16.173-9.718 2.777-4.99-.663-16.857-5.235-18.056-.962-.253-1.75-1.082-1.75-1.842s-.45-1.383-1-1.383-1 .689-1 1.531-.634 1.775-1.41 2.072c-1.742.668-8.236-2.557-6.956-3.455.509-.357 2.064-2.899 3.455-5.649 3.083-6.095 14.911.075 14.911 7.779 0 .277 2.475 2.979 5.5 6.004 5.95 5.95 6.588 8.13 4.081 13.933-4.732 10.954-5.739 12.798-7.5 13.741-2.871 1.537-20.784 1.364-21.422-.207-.403-.993-.693-.987-1.409.027-.694.982-1.518.705-3.576-1.202zm-193.78-63.024c-3.084-1.799-6.909-4.617-8.5-6.263s-3.905-3.525-5.143-4.175c-2.847-1.497-2.88-2.881-.078-3.293 4.23-.622-2.552-11.82-7.16-11.82-.75 0-.773-.578-.075-1.882 2.143-4.004 6.574-3.571 9.595.939 1.67 2.492 5.468 4.149 5.468 2.385 0-2.154-6.671-8.326-10.115-9.358-2.882-.863-3.918-1.674-3.686-2.881.808-4.196 12.801-.147 12.801 4.322 0 1.973.507 2.475 2.5 2.475 1.795 0 2.5-.539 2.5-1.911 0-1.684-1.21-2.956-8.087-8.509-.873-.705-2.817-1.59-4.321-1.967s-2.563-1.2-2.353-1.828c1.703-5.11 13.238-.553 16.837 6.652 3.555 7.118 11.12 6.711 11.966-.644.298-2.589.868-5.034 1.267-5.433 2.598-2.597 3.881 7.792 2.213 17.916-.616 3.74-.448 5.149.777 6.502 2.167 2.394 3.819 7.034 2.741 7.7-.487.301-1.169 1.842-1.517 3.424-1.898 8.641-9.944 12.133-17.629 7.65zM2.753 232.716c0-.55 1.098-1 2.441-1s2.719.45 3.059 1c.361.583-.656 1-2.441 1-1.683 0-3.059-.45-3.059-1z" fill="#fafb82"/><path d="m95.45 309.68c-.309-1.182-2.245-2.758-4.606-3.75-2.24-.941-4.078-2.234-4.084-2.872s-1.473-2.328-3.26-3.755l-4.834-4.089c-.871-.822-1.996-1.512-2.5-1.533s-2.491-2.079-4.416-4.574-5.177-5.406-7.226-6.47-4.721-3.281-5.938-4.926-2.731-2.992-3.365-2.992-3.034-1.844-5.334-4.099c-2.475-2.426-4.771-3.872-5.627-3.544-.795.305-1.724.106-2.063-.444s-2.379-1.703-4.532-2.565-3.915-2.138-3.915-2.835-.687-1.839-1.527-2.536c-1.33-1.104-1.137-1.504 1.5-3.108 1.665-1.012 3.027-2.273 3.027-2.8s2-2.834 4.445-5.126 4.716-5.354 5.047-6.805c1.374-6.021 2.973-6.73 7.352-3.262 2.169 1.718 4.282 3.123 4.696 3.123 1.425 0 11.968 7.336 17.124 11.914 6.261 5.559 9.435 7.895 15.365 11.306 2.491 1.433 8.116 5.696 12.5 9.473s9.771 7.953 11.971 9.279 5.769 3.9 7.93 5.72 4.594 3.308 5.406 3.308 2.868 1.03 4.57 2.289c3.26 2.412 9.826 5.412 12.941 5.914 1.643.264 3.15 3.102 5.336 10.047.516 1.638-1.239 1.75-27.449 1.75-27.336 0-28.013-.048-28.533-2.039zm156.3.539c.685-.825 1.81-1.5 2.5-1.5s1.815-.675 2.5-1.5c2.583-3.112 8-.371 8 4.047 0 .249-3.205.453-7.122.453-6.218 0-6.964-.191-5.878-1.5zm15-.5c0-1.175.667-2 1.616-2 1.891 0 11.384-6.742 11.384-8.085 0-.503.689-.915 1.531-.915s1.79-.675 2.107-1.5 1.177-1.5 1.912-1.5 1.924-.835 2.643-1.856c4.186-5.948 5.807-3.914 5.807 7.289 0 10.567 0 10.567-13.5 10.567-12.833 0-13.5-.099-13.5-2zm-125.04-13.831c-5.456-2.573-11.688-7.528-11.218-8.919 1.596-4.712 16.257 3.114 16.257 8.679 0 2.43-.359 2.447-5.039.24z" fill="#06f"/><path d="m140.99 284.47c-3.643-2.999-5.517-5.427-6.368-8.25-1.643-5.451-2.467-6.173-4.718-4.136-3.486 3.155-3.502-5.056-.027-14.161.482-1.263.877-3.087.877-4.053s1.395-3.653 3.1-5.971c4.45-6.051 1.56-10.484-3.212-4.929-1.933 2.25-1.933 2.25-1.338-1.75.504-3.392 1.958-5.331 9.554-12.75 10.911-10.657 13.02-10.966 9.308-1.364-.532 1.375-.348 1.761.68 1.423.775-.255 1.976-2.165 2.67-4.246s2.106-4.971 3.14-6.423 1.987-3.09 2.117-3.64c.272-1.145.481-1.871 1.716-5.937 1.256-4.138 3.069-4.334 3.449-.373.727 7.57 5.508 4.583 8.434-5.268 2.007-6.757 3.647-6.338 3.248.829-.176 3.163-.046 6.2.29 6.75s.937 2.518 1.335 4.374c.837 3.898 4.287 10.127 5.61 10.127 1.453 0 1.037-2.265-1.044-5.677-6.178-10.133-4.302-11.884 13.678-12.765 16.184-.793 17.122-.568 14.285 3.416-3.053 4.288-2.597 4.767 4.939 5.193 4.998.282 7.744.973 9.75 2.452 1.536 1.133 3.918 2.334 5.293 2.669 9.852 2.404 12.885 4.038 12.36 6.659-.455 2.276.051 2.853 4.312 4.919 2.655 1.287 6.763 3.644 9.128 5.237s4.658 2.896 5.095 2.896c1.162 0 4.105 3.462 4.105 4.829 0 .644-.675 1.171-1.5 1.171-2.375 0-1.772 2.38 1.986 7.843 3.194 4.644 6.956 13.748 7.708 18.657.253 1.649-.176 1.944-2.444 1.678-2.169-.254-2.75.09-2.75 1.628 0 1.072-.675 2.509-1.5 3.194s-1.5 2.063-1.5 3.063-.45 2.097-1 2.437-1 1.491-1 2.559-.675 1.941-1.5 1.941c-2.655 0-1.778-6.238 2.288-16.26.839-2.068 1.193-4.092.787-4.498-.956-.956-3.508 2.545-4.199 5.759-2.363 10.984-3.991 10.503-15.375-4.542-8.668-11.456-9.727-12.024-12.504-6.708-5.183 9.923-5.185 9.925-6.785 6.144-.79-1.867-4.316-6.319-7.836-9.894s-7.411-7.85-8.648-9.5c-2.382-3.178-7.012.106-10.547 7.482-1.625 3.391-3.023 2.842-3.935-1.546-.415-1.998-1.653-4.774-2.75-6.169s-1.995-3.051-1.995-3.679c0-7.821-14.715-7.935-22.082-.17-3.155 3.325-3.918 3.234-3.918-.468 0-6.794-9.859-7.499-15.862-1.134-11.266 11.945-10.903 35.185.55 35.185 3.705 0 4.136 1.336 2.214 6.851-1.394 3.998-1.489 3.984-7.666-1.101z" fill="#fa0000"/><path d="m92.78 310.25c-.671-.809-2.751-2.024-4.622-2.701s-3.402-1.775-3.402-2.44-1.462-2.378-3.25-3.804l-4.834-4.089c-.871-.822-1.996-1.512-2.5-1.533s-2.491-2.079-4.416-4.574-5.177-5.406-7.226-6.47-4.721-3.281-5.938-4.926-2.807-2.992-3.534-2.992-2.092-.9-3.034-2-2.11-2-2.595-2-2.748-1.253-5.028-2.785-5.608-3.386-7.395-4.121-3.25-1.902-3.25-2.592-.675-1.816-1.5-2.501c-2.213-1.836-1.892-5.741.535-6.511 2.45-.778-.319-3.428-6.227-5.96-1.82-.78-5.267-3.233-7.66-5.451-5.177-4.798-9.44-7.078-13.234-7.078-1.83 0-2.98-.635-3.369-1.859-1.463-4.609 2.747-7.076 7.701-4.514 1.617.836 3.192 1.268 3.5.959.664-.664-6.469-7.587-7.818-7.587-1.296 0-1.159-3.402.264-6.525.958-2.102.926-2.784-.16-3.455-1.675-1.035.267-6.539 2.627-7.444.972-.373 1.255-1.269.826-2.62-2.854-8.992 16.909-4.892 21.589 4.48 3.299 6.605 7.289 6.379 7.688-.437.536-9.15 2.67-11.493 6.556-7.199 2.301 2.543 3.358 15.117 1.693 20.16-1.175 3.559-1.096 4.119.936 6.711 2.568 3.277 13.124 12.265 14.448 12.303 1.58.045 11.936 7.205 17.268 11.939 6.261 5.559 9.435 7.895 15.365 11.306 2.491 1.433 8.133 5.72 12.538 9.526s10.064 8.125 12.574 9.596 5.375 3.571 6.366 4.666c2.273 2.512 3.192 2.51 3.992-.009.482-1.519 1.521-2.004 4.317-2.015 2.162-.009 3.174-.339 2.45-.798-.678-.431-1.849-2.561-2.602-4.735-1.241-3.581-1.437-3.74-2.085-1.702-2.646 8.322-6.885-4.044-4.502-13.134l3.453-13.366c.349-1.304.154-2.25-.465-2.25-.587 0-1.067.675-1.067 1.5s-.493 1.5-1.096 1.5c-1.183 0-.767-7.083.743-12.643 1.461-5.376 15.115-18.541 22.104-21.312 1.788-.709 3.25-1.854 3.25-2.544s.621-1.771 1.38-2.401 1.652-2.505 1.984-4.168c.633-3.164 5.236-9.932 6.755-9.932.485 0 .881 2.475.881 5.5 0 8.331 1.678 7.101 4.969-3.645.712-2.326 1.887-3.846 3.247-4.202 3.177-.831 3.784-.004 3.783 5.155-.001 4.691-.001 4.691 16.102 3.815 12.39-.674 17.002-.58 20.001.41 3.851 1.271 5.254 2.966 2.455 2.966-5.674 0-4.368 4.524 1.473 5.103 3.701.367 7.135 1.38 8.775 2.589 1.482 1.093 3.82 2.253 5.195 2.58 11.523 2.733 23.158 9.708 16.25 9.741-2.776.013-2.778.012 14.086 9.685 3.001 1.721 10.664 10.287 10.664 11.92 0 1.948-3.957 1.719-6.343-.368-2.312-2.022-1.633-.536 1.943 4.25 1.233 1.65 3.209 5.925 4.392 9.5s2.519 7.4 2.97 8.5c3.943 9.635 3.416 13.227-1.274 8.682-3.793-3.677-4.245-3.805-5.042-1.432-.323.962-.981 2.425-1.461 3.25-2.212 3.799-3.184 6.094-3.184 7.518 0 .85-.675 1.804-1.5 2.121s-1.5 1.202-1.5 1.969-.406 1.393-.902 1.393c-.831 0-2.369 3.208-4.177 8.709-.696 2.119-.63 2.146 1.636.662 2.453-1.608 8.443-1.105 8.443.709 0 1.913 3.402.795 8.116-2.665 2.686-1.972 4.884-3.997 4.884-4.5s.689-.915 1.531-.915 1.79-.675 2.107-1.5 1.177-1.5 1.912-1.5 1.924-.794 2.643-1.765c1.105-1.493 5.866-4.235 7.354-4.235 1.554 0 .051 2.992-1.797 3.576-1.237.391-2.838 1.546-3.557 2.567s-1.908 1.856-2.643 1.856-1.595.675-1.912 1.5-1.265 1.5-2.107 1.5-1.531.412-1.531.915c0 1.343-9.493 8.085-11.384 8.085-.949 0-1.616.825-1.616 2 0 2.955-1.58 2.429-3-1-1.383-3.338-4.857-4.082-7-1.5-.685.825-1.81 1.5-2.5 1.5s-1.815.675-2.5 1.5-2.375 1.5-3.757 1.5c-2.512 0-2.512 0-.061-1.928 1.348-1.06 3.082-3.873 3.852-6.25s1.976-5.447 2.678-6.822c1.523-2.983 1.714-10 .272-10-1.209 0-8.848-7.872-10.983-11.318-8.335-13.453-10.001-14.274-13.633-6.721-3.442 7.158-6.503 8.185-8.287 2.781-.591-1.792-4.856-7.213-9.477-12.046-9.053-9.47-9.338-9.477-14.103-.315-2.232 4.291-7.5 4.748-7.5.65 0-2.181-4.292-2.986-5.5-1.031-.34.55-1.661 1-2.937 1s-2.879.675-3.563 1.5c-1.194 1.439-5 2.132-5 .91 0-1.31 4.641-4.346 6.691-4.377 1.205-.018 2.469-.483 2.809-1.033s1.69-1 3-1c3.402 0 3.947-1.617 1.565-4.644-1.136-1.444-2.065-3.139-2.065-3.768 0-1.306-5.727-6.588-7.143-6.588-4.882 0-17.857 12.132-17.857 16.697 0 .717-.684 1.303-1.519 1.303-1.322 0-1.266-4.213.078-5.835.153-.184-.196-1.695-.776-3.357-.823-2.36-.75-3.222.332-3.934 1.869-1.23-1.502-3.874-4.938-3.874-7.734 0-17.38 22.122-13.126 30.105 2.546 4.778 8.317 6.567 10.949 3.395.685-.825 1.64-1.5 2.122-1.5 1.417 0 1.005 5.649-.502 6.9-.759.63-1.705 2.597-2.103 4.372-2.122 9.472-2.211 10.766-.904 13.284.737 1.421 1.259 2.889 1.16 3.263-.319 1.208 2.602 8.18 3.427 8.18.44 0 .799.45.799 1 0 5.073-4.54-.629-7.364-9.25-.315-.962-1.438-1.75-2.495-1.75-2.432 0-8.722-2.824-12.808-5.75-1.728-1.237-3.779-2.25-4.557-2.25s-3.184-1.489-5.346-3.308-5.73-4.394-7.93-5.72-7.587-5.502-11.971-9.279-10.009-8.04-12.5-9.473c-5.929-3.411-9.104-5.747-15.365-11.306-5.156-4.578-15.7-11.914-17.124-11.914-.414 0-2.527-1.405-4.696-3.123-4.379-3.468-5.978-2.759-7.352 3.262-.331 1.451-2.603 4.514-5.047 6.805s-4.445 4.598-4.445 5.126-1.362 1.788-3.027 2.8c-2.637 1.603-2.83 2.004-1.5 3.108.84.697 1.527 1.838 1.527 2.536s1.762 1.974 3.915 2.835 4.193 2.016 4.532 2.565 1.268.749 2.063.444c.856-.328 3.152 1.118 5.627 3.544 2.3 2.254 4.7 4.099 5.334 4.099s2.148 1.346 3.365 2.992 3.889 3.862 5.938 4.926 5.301 3.976 7.226 6.47 3.912 4.553 4.416 4.574 1.629.71 2.5 1.533 3.046 2.662 4.834 4.089 3.266 3.117 3.286 3.755 1.932 2.061 4.25 3.161 4.359 2.788 4.537 3.75c.394 2.132-1.135 2.285-2.799.279zm53.976-14.601c0-5.564-14.661-13.391-16.257-8.679-.471 1.391 5.761 6.346 11.218 8.919 4.68 2.207 5.039 2.19 5.039-.24zm1.902-10.078c1.923-5.515 1.491-6.851-2.214-6.851-11.453 0-11.816-23.24-.55-35.185 6.003-6.365 15.862-5.659 15.862 1.134 0 3.702.763 3.793 3.918.468 7.368-7.764 22.082-7.651 22.082.17 0 .628.898 2.284 1.995 3.679s2.335 4.171 2.75 6.169c.912 4.388 2.309 4.937 3.935 1.546 3.535-7.376 8.165-10.661 10.547-7.482 1.237 1.65 5.128 5.925 8.648 9.5s7.046 8.027 7.836 9.894c1.6 3.781 1.602 3.779 6.785-6.144 2.776-5.316 3.835-4.747 12.504 6.708 11.384 15.045 13.012 15.526 15.375 4.542.691-3.214 3.244-6.714 4.199-5.759.406.406.052 2.43-.787 4.498-4.065 10.022-4.943 16.26-2.288 16.26.825 0 1.5-.873 1.5-1.941s.45-2.219 1-2.559 1-1.436 1-2.437.675-2.379 1.5-3.063 1.5-2.122 1.5-3.194c0-1.538.581-1.881 2.75-1.628 2.268.265 2.696-.029 2.444-1.678-.752-4.908-4.513-14.013-7.708-18.657-3.758-5.464-4.361-7.843-1.986-7.843.825 0 1.5-.527 1.5-1.171 0-1.366-2.943-4.829-4.105-4.829-.437 0-2.73-1.303-5.095-2.896s-6.473-3.95-9.128-5.237c-4.261-2.066-4.767-2.643-4.312-4.919.524-2.621-2.509-4.255-12.36-6.659-1.375-.335-3.757-1.537-5.293-2.669-2.006-1.479-4.752-2.17-9.75-2.452-7.536-.426-7.992-.905-4.939-5.193 2.837-3.985 1.899-4.209-14.285-3.416-17.98.881-19.856 2.632-13.678 12.765 2.08 3.412 2.497 5.677 1.044 5.677-1.322 0-4.773-6.229-5.61-10.127-.398-1.855-.999-3.823-1.335-4.374s-.467-3.587-.29-6.75c.399-7.167-1.241-7.586-3.248-.829-2.925 9.851-7.707 12.838-8.434 5.268-.38-3.961-2.193-3.764-3.449.373l-1.716 5.938c-.13.55-1.083 2.188-2.117 3.64s-2.447 4.343-3.14 6.423-1.894 3.992-2.67 4.246c-1.028.338-1.212-.048-.68-1.423 3.713-9.602 1.604-9.293-9.308 1.364-7.596 7.419-9.049 9.358-9.554 12.75-.595 4-.595 4 1.338 1.75 4.773-5.555 7.662-1.122 3.212 4.929-1.705 2.318-3.1 5.005-3.1 5.971s-.394 2.79-.877 4.053c-3.475 9.105-3.459 17.315.027 14.161 2.251-2.037 3.075-1.315 4.718 4.136 2.321 7.701 12.293 14.345 14.034 9.351zm-109.8-39.546c2.694-2.582 4.899-5.102 4.899-5.599s.727-2.436 1.616-4.309c1.575-3.319 1.548-3.495-1.099-6.964-2.35-3.081-2.619-4.122-2.003-7.746 1.269-7.467.791-17.811-.901-19.503-1.932-1.932-2.434-.812-2.833 6.316-.427 7.633-8.055 8.244-11.704.936-3.426-6.86-15.92-12.197-16.88-7.21-.222 1.152.548 1.923 2.383 2.383 1.491.374 3.541 1.403 4.554 2.286l4.838 4.105c3.749 3.13 4.008 6 .542 6-1.982 0-2.44-.456-2.25-2.243.21-1.976-6.978-7.26-10.44-7.675-4.715-.565-3.557 5.322 1.235 6.28 2.704.541 9.926 7 9.938 8.889.012 1.812-3.049.496-5.18-2.226-3.319-4.24-8.036-5.031-9.595-1.609-.804 1.764-.839 2.585-.11 2.585 1.654 0 10.044 9.039 9.6 10.342-.432 1.268-6.88 1.378-10.461.178-1.716-.575-2.25-.371-2.25.863 0 1.11.892 1.617 2.846 1.617 3.851 0 8.088 2.249 13.302 7.061 2.394 2.209 6.206 4.848 8.473 5.864s4.431 2.349 4.809 2.961c1.035 1.675 1.377 1.492 6.671-3.582zm134.9 64.516c0-11.087 14.57-15.592 29.773-9.206 3.273 1.375 3.273 1.375 1.724-1.62-.852-1.647-1.987-2.995-2.523-2.995s-.974-.675-.974-1.5c0-2.782 3.766-.875 5.758 2.916.811 1.543 1.152.669 1.749-4.481 1.408-12.129 12.474-20.099 21.458-15.453 4.883 2.525 8.23 3.642 7.533 2.515-.339-.548-1.265-.997-2.057-.997-.87 0-1.441-.99-1.441-2.5 0-1.375.45-2.5 1-2.5s1 .623 1 1.383.788 1.59 1.75 1.842 2.25 1.543 2.861 2.867c4.457 9.656 5.338 12.908 3.497 12.908-.49 0-1.172 1.117-1.514 2.482-1.839 7.327-6.129 9.664-17.126 9.33-7.863-.24-10.107-.023-9.736.939.265.688 1.009 1.25 1.653 1.25s1.941.9 2.883 2c1.212 1.416 1.336 2 .422 2-2.728 0-6.48-2.547-8.769-5.952-2.268-3.373-2.403-3.432-2.736-1.197-.291 1.952-.828 2.281-3.163 1.938-2.251-.33-3.145.149-4.474 2.399-1.829 3.096-28.548 4.624-28.548 1.633zm59.56-23.771c1.955 1.622 1.823 7.871-.214 10.122-2.102 2.323-10.499 2.553-12.337.338-3.413-4.113 1.5564-14.718 8.46-13.836 2.4431.31187 3.298 2.7192 4.091 3.3762zm-21.858 7.038c-1.097 8.16.977 9.478 15.363 9.763 7.054.14 7.735-.035 10.128-2.6l-.002-.001c5.75-6.165 6.489-11.917 1.946-15.152-1.575-1.121-4.527-.79386-5.2897-1.3408-1.5248-1.0934.21526-1.4458-3.7278-2.7853-9.6817-3.289-17.148 2.676-18.417 12.116zm19.47 1.257c2.63-2.38 2.264-4.626-1.264-7.77-3.403-3.032-5.316-1.864-7.122 4.348-1.358 4.672 4.406 7.024 8.386 3.422zm-6.171-2.723c0-2.889 2.16-4.882 4.373-4.033 3.193 1.225 2.082 6.41-1.373 6.41-2.492 0-3-.402-3-2.378zm-67.333 1.711c-2.444-2.444-.345-3.333 7.869-3.333 8.129 0 8.486-.092 7.5-1.934-3.366-6.29 2.045-20.987 9.064-24.617 8.744-4.522 26.863 6.135 25.45 14.969-1.662 10.395-10.335 16.094-23.049 15.146-23.012-1.716-24.5-1.756-24.5-.666 0 1.224-1.302 1.467-2.333.436zm29.587-2.583c.336-.997.73-.995 1.949.011 3.58 2.953 14.329-5.517 16.102-12.688.742-3.001-5.144-9.073-8.795-9.073-3.34 0-5.511-1-5.511-2.54 0-4.087-8.204-1.794-11.585 3.239-7.062 10.513-6.931 17.249.401 20.543 4.472 2.009 6.877 2.174 7.438.508zm-4.08-3.621c-2.627-1.665-2.658-8.79-.055-12.695 4.45-6.678 13.881-3.611 13.881 4.514 0 7.347-7.832 11.981-13.826 8.181zm9.511-3.303c4.154-3.903 2.846-8.829-2.695-10.146-2.057-.489-2.929.016-4.837 2.801-4.711 6.876 1.541 12.974 7.532 7.346zm-6.1462-4.7837c.14447-1.9098 1.2387-2.807 3.1301-2.7289 1.6265.0672 2.93 1.1137 2.646 2.9261-.17029 1.0867-1.5941 3.5603-3.3168 3.0461-1.8958-.56591-2.5423-2.1464-2.4593-3.2433zm-39.54-12.042c0-.55.623-1 1.383-1 2.013 0 2.756-4.004 1.057-5.702-1.627-1.627-1.931-4.298-.49-4.298.523 0 1.452.788 2.065 1.75.873 1.371.994.703.558-3.081-.414-3.591-.238-4.726.685-4.422 1.731.57 2.145 9.457.653 14.002-1.165 3.548-5.911 5.756-5.911 2.75zm104.63-53.25c-.332-1.237-.609-4.141-.617-6.453-.015-4.691-1.736-9.297-3.473-9.297-1.352 0-4.023-6.851-3.05-7.823.37-.37 1.199.029 1.842.887s1.843 1.813 2.668 2.123c1.869.701 3.682 7.228 4.461 16.064.573 6.497-.553 9.266-1.83 4.5zm16.715-17.293c-.326-.849-.341-1.794-.035-2.1.876-.876 2.69.61 2.69 2.202 0 1.919-1.908 1.846-2.655-.102zm-136.65-14.207c-.886-2.062-2.15-5.663-2.81-8s-1.579-4.25-2.042-4.25-.842-.45-.842-1c0-3.858 3.903-.421 5.395 4.75 1.718 5.957 4.507 11.726 4.569 9.452.054-1.981 5.256-6.135 7.726-6.17 1.205-.017 2.469-.482 2.809-1.032.714-1.155 5.504-1.373 5.492-.25-.01.942-4.869 3.239-6.942 3.282-1.836.037-7.051 4.416-7.051 5.92 0 2.926-4.767.884-6.306-2.702zm140.77 1c.372-.962.927-3.1 1.233-4.75s1.466-5.7 2.579-9 1.961-7.013 1.885-8.25.322-2.25.883-2.25c2.237 0 2.124 3.578-.361 11.347-1.434 4.484-2.884 9.615-3.224 11.403-.376 1.979-1.215 3.25-2.145 3.25-1.046 0-1.314-.552-.851-1.75zm-28.213-4.47c-3.19-1.538-2.835-3.166.5-2.292 11.749 3.08 16.608-2.129 7.452-7.988-3.613-2.312-3.961-3.626-1.327-5.013 1.032-.543 3.169-1.718 4.75-2.61 4.833-2.729 7.375-3.227 7.375-1.444 0 .862-.562 1.569-1.25 1.571-4.778.014-8 4.126-5.377 6.864 7.493 7.822-1.586 15.994-12.123 10.912zm-12.25-.615c0-1.251-7.133-10.164-8.134-10.164-.476 0-.873 1.462-.882 3.25-.016 3.354-1.441 6.628-2.447 5.621-.775-.775 1.522-15.871 2.415-15.871.391 0 2.162 2.138 3.937 4.75 8.374 12.328 9.11 12.756 9.11 5.293 0-4.332 1.149-9.043 2.205-9.043.903 0 .278 11.189-.852 15.25-.487 1.751-5.352 2.582-5.352.914zm-148.46-3.905c-3.217-3.469-3.231-5.26-.041-5.26 4.459 0 1.587-11.348-7.124-28.154-.757-1.46-1.376-3.372-1.376-4.25 0-2.218-1.368-1.995-4.673.764-1.555 1.298-4.231 3.079-5.947 3.959-1.836.941-3.999 3.366-5.256 5.891-1.174 2.36-2.531 4.966-3.014 5.791-2.541 4.338-3.45 7.488-3.526 12.211-.083 5.136-.145 5.24-3.752 6.256-2.017.568-4.005 1.371-4.417 1.783-1.101 1.104-6.196.913-6.921-.259-1.681-2.719 6.659-10.991 11.081-10.991.841 0 1.735-1.298 2.079-3.021.332-1.661.996-3.263 1.475-3.559s.871-1.205.871-2.02.981-2.808 2.179-4.429c2.626-3.552 1.819-4.856-1.613-2.607-5.987 3.923-8.616.97-3.496-3.927 1.688-1.615 3.95-4.359 5.026-6.098s3.962-5.338 6.414-8c4.666-5.065 10.49-14.937 10.49-17.779 0-.913.687-2.987 1.526-4.61 1.78-3.442 1.278-3.754-1.526-.95-3.486 3.486-20.015 2.931-24.856-.834-2.004-1.559-4.399-3.107-5.321-3.441-1.792-.648-5.823-8.795-5.823-11.769 0-.984-.562-2.018-1.25-2.297-.961-.39-.974-.704-.055-1.358.827-.589-.636-2.364-4.75-5.764-3.27-2.702-5.945-5.471-5.945-6.152s-1.03-2.06-2.288-3.062c-4.122-3.283-5.283-7.782-2.816-10.917 1.158-1.471 2.104-3.112 2.104-3.647s1.298-2.611 2.884-4.615c5.534-6.993 6.667-11.265 3.672-13.846-3.242-2.793-3.236-3.661.022-3.038 2.006.384 2.818-.034 3.661-1.883.595-1.307 1.46-2.376 1.922-2.376 1.176 0 1.046 2.746-.245 5.158-1.015 1.896-.886 1.88 2-.254 1.697-1.254 3.085-2.646 3.085-3.093s.45-.812 1-.812c2.227 0 1.066 5.848-1.25 6.294-1.393.268-.821.485 1.5.57 4.586.167 5.043 2.131.5 2.15-5.815.024-7.537.996-9.22 5.203-.885 2.211-2.754 5.522-4.155 7.358-6.445 8.45-7.092 12.255-2.678 15.748 1.267 1.002 2.303 2.352 2.304 3s2.25 3.115 5 5.483c5 4.306 5 4.306 5 1.291 0-26.45 47.994-31.224 53.558-5.328.323 1.502 1.212 4.307 1.977 6.232s1.519 4.553 1.678 5.84c.351 2.856 7.683-2.175 11.288-7.744 1.1-1.7 3.03-3.435 4.288-3.856 2.275-.761 2.267-.789-1.25-4.629-1.946-2.125-3.538-4.224-3.538-4.665s-1.125-1.687-2.5-2.768-2.53-2.352-2.567-2.823c-.217-2.772-9.06-13.07-12.757-14.856-4.439-2.144-5.906-5.158-1.926-3.955 1.238.374 2.678 1.079 3.2 1.567 2.143 2.002 2.752.66 2.093-4.612-.413-3.308-.306-5.5.268-5.5 1.158 0 2.154 3.424 2.182 7.5.02 3 .02 3 2.007 0 1.093-1.65 1.99-3.788 1.993-4.75s.457-1.75 1.007-1.75 1 1.125 1 2.5.45 2.5 1 2.5c2.039 0 .9 2.563-2 4.5-3.809 2.544-3.762 3.436.5 9.5 1.925 2.739 3.5 5.257 3.5 5.596s1.125 1.501 2.5 2.583 2.5 2.327 2.5 2.768 1.575 2.521 3.5 4.623c4.08 4.454 4.575 7.935 1.25 8.796-1.238.321-3.337 2.194-4.666 4.163s-4.116 4.793-6.194 6.275c-5.423 3.87-7.89 8.768-7.89 15.67 0 6.725-6.541 21.557-12.14 27.525-3.405 3.63-3.668 5.53-1.385 10 4.858 9.512 9.449 21.825 9.508 25.5.021 1.267 1.495 2.836 4.025 4.28 3.249 1.855 3.992 2.833 3.992 5.25 0 4.331-8.511 4.489-12.46.23zm10.46-.145c0-1.7-4.496-3.761-6.906-3.164-2.279.564-2.315.686-.679 2.322 1.777 1.777 7.584 2.422 7.584.842zm-51.585-2.865c.412-.413 2.363-1.204 4.337-1.76 4.012-1.129 5.275-2.989 2.519-3.709-1.957-.512-9.271 3.617-9.271 5.233 0 1.165 1.355 1.298 2.415.235zm110.43 2c-.087-2.062-.137-4.312-.111-5s-.354-1.25-.842-1.25c-4.061 0 .814-5.004 5.879-6.035l6.982-1.487c2.117-.474 3.25-.349 3.25.357 0 1.005-3.537 2.261-10.25 3.639-1.513.31-2.75.992-2.75 1.514s.675.691 1.5.374c.922-.354 1.5.002 1.5.924 0 .825-.675 1.759-1.5 2.076-3.735 1.433-1.775 6.638 2.5 6.638 2.2 0 4 .45 4 1 0 3.593-10.005.884-10.158-2.75zm18.158 2.79c0-.528 1.8-1.499 4-2.158s4-1.544 4-1.968c0-1.243-5.126-4.913-6.885-4.93-3.538-.034-4.529-1.571-3.153-4.892 1.346-3.25 2.898-3.773 6.104-2.057 2.637 1.411 2.442 3.106-.316 2.753-3.366-.431-3.683 1.452-.393 2.332 7.49 2.003 9.246 8.783 2.777 10.721-4.704 1.409-6.134 1.456-6.134.198zm33.75-1.51c-2.373-3.264-2.201-7.666.436-11.146l2.306-3.108c.628-1.165 7.823 2.322 8.682 4.207 1.33 2.919.223 9.516-1.597 9.516-.733 0-1.892.675-2.577 1.5-1.844 2.222-5.261 1.765-7.25-.97zm7.962-2.53c1.512 0 2.351-4.013 1.264-6.044-2.092-3.909-6.98-2.67-8.512 2.157-.947 2.985 2.62 7.079 4.615 5.298.868-.776 2.053-1.41 2.633-1.41zm-21.712 2.41c0-.324.998-1.398 2.218-2.385 3.114-2.521.952-5.025-4.34-5.025-4.599 0-4.998-1.499-1.425-5.354 2.444-2.637 8.548-3.812 8.548-1.646 0 .55-.9 1-2 1s-2.9.9-4 2c-2 2-2 2 1.3 2 3.975 0 5.7 1.514 5.7 5 0 1.43-.54 3.14-1.2 3.8-1.224 1.224-4.8 1.679-4.8.61zm73-22.442c0-1.117-.675-2.29-1.5-2.607s-1.5-1.102-1.5-1.746c0-1.513-5.564-7.616-6.944-7.616-.581 0-1.056 1.575-1.056 3.5s-.45 3.5-1 3.5c-.582 0-1-3.292-1-7.875 0-4.331-.235-9.169-.522-10.75-.927-5.105 3.666-7.352 7.545-3.692 3.485 3.29 3.774 6.389.964 10.336-2.014 2.828-2.014 2.828 1 6.127 1.658 1.815 3.014 3.826 3.014 4.47s.675 1.429 1.5 1.746c1.669.641 2.121 6.638.5 6.638-.55 0-1-.914-1-2.031zm-6.894-19.118c2.243-3.149 2.243-3.149-.036-4.995-3.073-2.488-4.07-1.58-4.07 3.703 0 5.25 1.052 5.581 4.106 1.292zm-132.54 17.438c-3.57-3.57-5.812-9.061-5.222-12.789 1.502-9.493 3.14-12.452 6.911-12.485 2.387-.021 2.215 1.702-.248 2.484-1.099.349-2.26 1.842-2.581 3.317-.40799 1.7711-.92158 3.5162-1.538 5.226-3.057 8.145 9.292 18.782 15.083 12.991 6.56-6.56 7.265-12.034 1.551-12.034-3.034 0-5.517-.45-5.517-1 0-.564 2.833-1 6.5-1 7.692 0 8.094.92 3.966 9.067-4.923 9.716-12.813 12.312-18.904 6.221zm100.63-11.454c.393-8.224.29-8.943-1-7-.791 1.191-2.058 2.165-2.816 2.165s-1.378.675-1.378 1.5c0 1.869-3.843 1.935-6.25.108-.962-.731-1.757-1.954-1.765-2.718s-.494-2.065-1.08-2.89c-.77-1.085-.922 1.057-.55 7.75.423 7.609.26 9.25-.92 9.25-1.156 0-1.435-2.044-1.435-10.5 0-6.333.397-10.5 1-10.5.55 0 1-.9 1-2s.45-2 1-2 1 .682 1 1.516c0 3.165 2.491 9.31 4.209 10.383 1.424.889 1.791.809 1.791-.39 0-.83.515-1.509 1.144-1.509s2.609-1.687 4.4-3.75 3.553-3.46 3.916-3.106c1.028 1.002-.622 22.856-1.725 22.856-.601 0-.81-3.548-.542-9.165zm-48.123 3.615c-1.689-2.503-3.071-5.251-3.071-6.107 0-1.009-.557-1.343-1.582-.95-.87.334-1.77.607-2 .607s-.418 2.025-.418 4.5c0 3.451-.372 4.5-1.594 4.5-1.76 0-1.196-8.563.815-12.383.545-1.036.722-3.567.393-5.625-.551-3.449-.41-3.742 1.8-3.742 1.996 0 2.485.608 2.911 3.625.926 6.548 1.934 9.411 4.823 13.691 1.568 2.323 2.851 4.721 2.851 5.329 0 2.315-1.972.937-4.929-3.445zm22.914-3.2c-.018-8.931-1.248-12.279-2.927-7.966l-2.033 5.216c-1.427 3.657-3.673 3.075-4.822-1.25-.927-3.489-1.003-3.245-1.099 3.5-.058 4.098-.538 7.25-1.103 7.25-.588 0-1-3.5-1-8.5s-.412-8.5-1-8.5c-.55 0-1-1.156-1-2.57 0-4.858 4.216-2.769 6.194 3.07 1.694 5 1.694 5 3.402.75 1.869-4.652 4.589-5.641 6.369-2.316 1.341 2.506 1.372 19.066.035 19.066-.579 0-1.006-3.26-1.015-7.75zm31.49 4.035c.383-2.043 1.345-4.968 2.137-6.5.845-1.634 1.016-2.785.414-2.785-.564 0-1.026-.45-1.026-1s.675-1 1.5-1 1.515-.788 1.533-1.75c.045-2.35 3.4-6.25 5.377-6.25 1.361 0 1.59 1.656 1.59 11.5 0 7-.391 11.5-1 11.5-.564 0-1-2.833-1-6.5 0-5.525-.262-6.499-1.75-6.496-1.902.004-5.25 6.864-5.25 10.757 0 1.393-.609 2.24-1.611 2.24-1.318 0-1.484-.677-.914-3.715zm9.526-13.407c0-1.773-.247-1.918-1.5-.878-.825.685-1.5 1.64-1.5 2.122s.675.878 1.5.878c.862 0 1.5-.902 1.5-2.122zm-90.257 6.372c-.294-4.812-.833-9.482-1.199-10.377-.519-1.271.133-1.777 2.971-2.309 6.346-1.191 8.207 2.403 4.499 8.688-1.985 3.365-1.985 3.365 2.532 5.56 4.3 2.089 6.424 4.552 5.083 5.893-.34.34-1.408-.076-2.374-.923-1.75-1.535-7.662-4.781-8.707-4.781-.302 0-.55 1.575-.55 3.5 0 7.215-1.743 3.159-2.257-5.25zm5.563-9.5c-1.134-2.003-4.529-.71-3.937 1.5.332 1.237.611 2.925.622 3.75s.856.15 1.879-1.5 1.669-3.337 1.436-3.75zm105.69-16.75c0-4.667-.333-6-1.5-6-1.041 0-1.5 1.047-1.5 3.418 0 4.033-.84 6.582-2.168 6.582-.564 0-.679-1.839-.279-4.5.619-4.127.5-4.5-1.439-4.5-2.834 0-2.677-1.422.308-2.782 1.83-.834 2.282-1.638 1.848-3.294-.416-1.59-.189-2.064.829-1.729.771.254 1.545 1.439 1.721 2.634.442 3.001 2.18 2.739 2.18-.328 0-1.375.45-2.5 1-2.5s1.014 2.362 1.03 5.25c.025 4.403.211 4.927 1.148 3.25.614-1.1 1.296-2.207 1.514-2.461s1.491.871 2.829 2.5c2.664 3.243 4.433 2.336 4.464-2.289.016-2.332.939-2.645 4.765-1.62 1.777.476 2.25 1.322 2.25 4.019 0 2.607-.532 3.63-2.25 4.32-2.163.869-2.143.907.5.968 1.513.035 2.75.513 2.75 1.063 0 1.578-6.619 1.164-8-.5-.685-.825-2.063-1.5-3.063-1.5s-2.101-.457-2.447-1.016c-1.029-1.665-2.22-.235-2.922 3.505-1.154 6.153-3.568 4.469-3.568-2.489zm16.823-4.333c.191-.987-.319-1.667-1.25-1.667s-1.573.855-1.573 2.083c0 2.437 2.337 2.093 2.823-.416zm-35.823 4.833c0-3.833-.296-4.5-2-4.5-1.1 0-2-.45-2-1s.871-1 1.935-1c1.304 0 2.348-1.142 3.201-3.5 1.169-3.233 4.864-5.132 4.864-2.5 0 .55-.45 1-1 1s-1 .675-1 1.5.45 1.5 1 1.5c1.792 0 1.052 1.849-1 2.5-1.644.522-2 1.513-2 5.567 0 2.713-.45 4.933-1 4.933s-1-2.025-1-4.5zm-17.75 2.279c-3.054-1.473-3.03-9.779.028-9.779.585 0 1.93-.784 2.988-1.741 3.778-3.419 7.603 5.379 4.698 10.807-1.134 2.119-4.212 2.403-7.715.714zm5.77-2.817c1.666-3.113.314-6.2-2.351-5.369-5.146 1.605-4.582 5.566 1.045 7.339.118.037.706-.849 1.305-1.97zm-73.02-3.579c0-6.407-.072-6.594-2.25-5.903-1.237.393-3.038.766-4 .831-1.407.094-1.75 1.057-1.75 4.903 0 2.632-.45 4.786-1 4.786s-1-2.25-1-5c0-4.889-.067-5-3-5-1.65 0-3-.45-3-1s1.301-1 2.892-1c2.25 0 3.031-.554 3.519-2.5.782-3.114 2.982-3.336 2.391-.241-.585 3.062 6.753 2.72 7.731-.36.8-2.522 2.468-2.429 2.468.137 0 1.702.316 1.866 1.934 1 2.59-1.386 3.066-1.31 3.066.49 0 .894-1.24 1.773-3 2.125-2.957.591-3 .692-3 6.975 0 3.583-.438 6.375-1 6.375s-1-2.872-1-6.617zm35-2.883c0-5.667.404-9.5 1-9.5.55 0 1 1.405 1 3.122 0 2.534.259 2.908 1.373 1.983 3.44-2.855 6.092 1.619 2.991 5.045-1.337 1.478-1.383 1.889-.25 2.253l5.136 1.598c2.063.634 3.75 1.569 3.75 2.076 0 1.27-1.699 1.144-7.25-.541-4.75-1.441-4.75-1.441-4.75 1.011 0 1.513-.574 2.452-1.5 2.452-1.228 0-1.5-1.722-1.5-9.5zm-64.965 6.566c-1.826-3.413-1.21-7.553 1.472-9.885 3.564-3.099 5.292-2.72 7.147 1.57l2.652 5.999c1.264 2.76.284 3.987-1.801 2.256-1.269-1.054-1.864-.99-3.353.357-2.417 2.187-4.851 2.069-6.117-.296zm5.431-3.029c1.926-2.128 1.456-5.037-.812-5.037-2.177 0-3.891 2.678-3.169 4.952.813 2.56 1.724 2.58 3.981.085zm30.99 2.892c-1.574-2.546.593-9.903 3.102-10.533 3.51-.881 5.442.181 5.442 2.991 0 4.124 1.013 5.848 2.641 4.496 1.708-1.417 2.826-.543 2.014 1.574-.683 1.779-5.655 2.121-5.655.388 0-.691-.735-.49-1.829.5-2.087 1.888-4.741 2.16-5.715.584zm4.498-3.374c1.471-1.772 1.006-5.808-.55-4.779-1.412.933-2.726 6.224-1.545 6.224.493 0 1.436-.65 2.096-1.445zm10.712 3.778c-2.878-2.878 1.4-11.652 5.197-10.659 2.349.614 2.932 2.326.792 2.326-2.098 0-4.972 3.732-4.274 5.55.497 1.294 1.437 1.487 4.621.949 3.963-.67 5.65.652 2.416 1.893-2.119.813-7.918.774-8.751-.06zm30.333-27.833c0-5.5 0-5.5-3.5-5.5-4.692 0-4.487-1.798.25-2.19 3.741-.31 3.75-.321 3.554-4.626-.245-5.408 2.048-5.278 2.506.143.419 4.96 3.19 5.11 3.19.173 0-1.925.45-3.5 1-3.5s1 1.538 1 3.417.563 3.679 1.25 4c1 .467 1 .7 0 1.167-.687.321-1.25 1.271-1.25 2.111 0 1.081.556.84 1.905-.825 2.595-3.205 6.095-.415 6.095 4.859 0 2.723.356 3.347 1.75 3.065 1.325-.267 1.672-1.15 1.427-3.638-.422-4.297 2.212-8.383 5.136-7.967 3.077.438 3.49 5.234.767 8.916-2.895 3.916-2.687 4.213 2.419 3.447 4.637-.695 6.371.719 2.418 1.974-6.237 1.98-15.796-.568-16.114-4.295-.437-5.127-2.276-5.035-4.437.221-2.512 6.109-3.367 5.722-3.367-1.525 0-8.726-3.342-8.433-3.8.333-.383 7.332-2.2 7.53-2.2.24zm25-5.691c0-1.513-1.926-.816-2.93 1.06-1.331 2.487.028 3.718 1.652 1.496.703-.961 1.277-2.111 1.277-2.556zm-54.25 7.799c-.962-.731-1.75-1.616-1.75-1.968 0-1.037 3.826-.731 4.5.36.34.55 1.154.983 1.809.962s-.549-1.527-2.675-3.347c-3.049-2.611-3.722-3.764-3.183-5.462.963-3.033 7.548-3.166 7.548-.153 0 1.1-.45 2-1 2s-1-.45-1-1-.675-1-1.5-1c-2.334 0-1.781 1.416 1.5 3.842 4.063 3.004 4.209 7.172.25 7.126-1.513-.018-3.538-.63-4.5-1.36zm-49.75-.715c0-.97 1.369-1.422 4.513-1.489 5.779-.123 5.855-.224 6.316-8.377.388-6.866.388-6.866-3.72-6.315-2.716.364-4.108.167-4.108-.581 0-.622.337-1.171.75-1.219s4.575-.422 9.25-.831 9.288-1.093 10.25-1.52c1.234-.547 1.75-.334 1.75.724 0 1.951-2.132 2.714-7.582 2.714-4.418 0-4.418 0-4.418 7.627s0 7.627 5 7.147c3.773-.363 5-.148 5 .873 0 .969-1.52 1.353-5.353 1.353-2.944 0-8.119.289-11.5.642-4.894.511-6.147.359-6.146-.75zm29-3.311c0-4.713-.882-6.582-3.107-6.582-1.041 0-1.893-.45-1.893-1s.9-1 2-1c2.282 0 2.59-2.075.75-5.044-1.191-1.921-.009-3.882 2.375-3.941.944-.023 1.903 5.749 1.241 7.474-.441 1.148.166 1.511 2.527 1.511 1.709 0 3.107.45 3.107 1s-1.125 1-2.5 1c-2.333 0-2.5.333-2.5 5 0 2.75-.45 5-1 5s-1-1.538-1-3.418zm8.622-14.711c-1.483-1.732-1.571-2.288-.472-2.985 1.967-1.246 2.545-1.092 3.235.864.34.962.879 2.313 1.2 3 .963 2.066-2.004 1.408-3.962-.879zm87.378-15.671c0-1.035 2.165-3.2 3.2-3.2.44 0 .8.9.8 2 0 1.333-.667 2-2 2-1.1 0-2-.36-2-.8zm-114.41-8.95c-1.207-11.922-9.757-33.224-13.343-33.243-3.416-.018-1.156-4.77 3-6.307 17.603-6.51 27.991.825 19.302 13.629-2.395 3.53-2.395 3.53.748 4.626 7.086 2.47 13.924 22.045 7.7 22.045-.569 0-1-2.938-1-6.813 0-7.458-2.093-10.773-8.279-13.11-4.317-1.631-9.773 1.554-8.506 4.966.895 2.41 3.731 17.248 3.767 19.707.073 4.957-2.803.29-3.389-5.5zm3.492-23.489c11.803-11.803 6.322-19.524-10.335-14.559-4.555 1.358-4.605.371.5 9.866 4.804 8.934 5.339 9.189 9.835 4.693zm85.067 19.49c-.677-5.913-1.626-12.1-2.108-13.75-.60417-2.145-1.1351-4.3099-1.592-6.491-.715-3.491-.715-3.491-2.139 1.5-5.115 17.917-8.318 26.491-9.899 26.491-1.724 0-1.856.829 1.192-7.5 1.409-3.85 3.236-9.25 4.062-12l2.481-8.244c.539-1.784 1.005-5.069 1.036-7.301.137-9.934 5.72 1.316 7.466 15.045 2.34 18.401 2.111 18.217 8.035 6.455 3-5.955 6.489-12.058 7.753-13.561s3.147-4.792 4.182-7.31 2.22-4.579 2.632-4.581c2.379-.012-1.284 10.058-5.274 14.496-1.794 1.995-10.931 19.536-12.892 24.75-2.134 5.673-3.65 3.215-4.934-8zm-53.66 3.149c-4.329-5.675-5.737-16.984-3.536-28.395.611-3.169.524-4.708-.294-5.214-.829-.513-.668-1.21.565-2.444 2.811-2.811 3.201-.865 1.83 9.122-2.38 17.336 1.646 29.024 9.761 28.335 5.566-.473 14.529-16.537 16.489-29.553 1.425-9.462 3.196-9.557 2.319-.125-.648 6.968-4.635 18.005-8.614 23.845-1.1686 1.7349-2.2988 3.4954-3.39 5.28-2.762 4.557-11.374 4.073-15.13-.851zm85.509-8.125c0-.48.376-1.301.835-1.823s1.622-3.2 2.584-5.95 2.353-6.35 3.092-8c2.729-6.098 3.941-10.049 3.638-11.861-.407-2.433 2.223-1.638 2.699.815.31 1.598-.496 4.04-4.135 12.545-.588 1.375-2.041 5.2-3.229 8.5-1.84 5.114-5.483 8.95-5.483 5.773z" fill="#1d100e"/></svg>
