<?xml version="1.0" encoding="UTF-8"?>
<svg class="iconify iconify--noto" width="800px" height="800px" aria-hidden="true" role="img" version="1.1" viewBox="0 0 128 128" xmlns="http://www.w3.org/2000/svg">
 <path d="m70.2 101 48.6 4.62c4.57 0.44 5.74-2.11 5.74-4.27l-0.05-2.62-59.7-8.42c0 2.99 2.43 10.7 5.47 10.7z" fill="#c62828"/>
 <path d="m72 98.5 7.64 0.67 40.9 3.95c2.2 0 3.97-1.75 3.97-3.91l-2.17-66.3c0-2.16-1.78-3.91-3.97-3.91l-46.4-4.38c-3.04 0-5.51 2.43-5.51 5.42v63c0 2.99 2.46 5.42 5.51 5.42z" fill="#f44336"/>
 <path d="m57.8 101-48.6 4.62c-4.57 0.44-5.74-2.11-5.74-4.27l0.05-2.62 59.7-8.43c0 3-2.43 10.7-5.47 10.7z" fill="#c62828"/>
 <path d="m56 98.5-7.58 0.67-41 3.96c-2.2 0-3.97-1.75-3.97-3.91l2.17-66.3c0-2.16 1.78-3.91 3.97-3.91l46.4-4.38c3.04 0 5.51 2.43 5.51 5.42v63c0 2.98-2.46 5.41-5.51 5.41z" fill="#f44336"/>
 <path d="m78.8 83.7h-29.5l-0.9 15.5 9.2 0.86s1.97 4.92 6.43 4.92 6.43-4.92 6.43-4.92l9.2-0.86-0.88-15.5z" fill="#424242"/>
 <path d="m79.5 100-8.57-0.74" fill="none" stroke="#616161" stroke-miterlimit="10" stroke-width="2.5"/>
 <path d="m48.5 100 8.57-0.74" fill="none" stroke="#616161" stroke-miterlimit="10" stroke-width="2.5"/>
 <path d="m120 32.8-4-5.5-51.6 58.7-51.6-58.7-4 5.5-0.56 65.4s10.6 1.33 24.8-0.11c12.4-1.25 18.2-4.45 22.3-3.62 4.96 1 5.86 4.05 6.02 4.57 0.45 1.44 1.34 2.56 3.07 2.56s2.5-0.6 3.03-2.38c0.16-0.52 1.1-3.74 6.06-4.74 4.13-0.83 9.95 2.37 22.3 3.62 14.2 1.44 24.8 0.11 24.8 0.11l-0.56-65.4z" fill="#94c6d6"/>
 <linearGradient id="IconifyId17ecdb2904d178eab14703" x1="50.9" x2="50.6" y1="88.2" y2="70.9" gradientTransform="matrix(-1 0 0 1 168 0)" gradientUnits="userSpaceOnUse">
  <stop stop-color="#82aec0" offset=".267"/>
  <stop stop-color="#82aec0" stop-opacity="0" offset="1"/>
 </linearGradient>
 <path d="m114 91.9 0.16-26.4h5.47l0.28 32.7s-4.35-1.69-5.91-6.3z" fill="url(#IconifyId17ecdb2904d178eab14703)"/>
 <linearGradient id="IconifyId17ecdb2904d178eab14704" x1="98.2" x2="55.4" y1="84.6" y2="84.6" gradientTransform="matrix(-1 0 0 1 168 0)" gradientUnits="userSpaceOnUse">
  <stop stop-color="#2f7889" offset="0"/>
  <stop stop-color="#82aec0" offset="1"/>
 </linearGradient>
 <path d="m115 76.5-0.25 15.4s-12-0.62-31-3.92c-12.5-2.16-19.3 4.76-19.3 4.76l-0.11-16.2h50.7z" fill="url(#IconifyId17ecdb2904d178eab14704)"/>
 <linearGradient id="IconifyId17ecdb2904d178eab14705" x1="58" x2="15.3" y1="84.6" y2="84.6" gradientUnits="userSpaceOnUse">
  <stop stop-color="#2f7889" offset="0"/>
  <stop stop-color="#82aec0" offset="1"/>
 </linearGradient>
 <path d="m13.4 76.5 0.25 15.4s12-0.62 31-3.92c12.5-2.16 19.3 4.76 19.3 4.76l-0.11-16.2h-50.4z" fill="url(#IconifyId17ecdb2904d178eab14705)"/>
 <linearGradient id="IconifyId17ecdb2904d178eab14706" x1="10.8" x2="10.5" y1="88.2" y2="70.9" gradientUnits="userSpaceOnUse">
  <stop stop-color="#82aec0" offset=".267"/>
  <stop stop-color="#82aec0" stop-opacity="0" offset="1"/>
 </linearGradient>
 <path d="m13.7 91.9-0.16-26.4h-5.48l-0.27 32.7s4.34-1.69 5.91-6.3z" fill="url(#IconifyId17ecdb2904d178eab14706)"/>
 <path d="m116 27.3s-26.5-4.99-38.2-5.64c-11-0.61-13.2 4.97-13.4 5.64h-0.04c-0.23-0.67-2.48-6.24-13.4-5.64-11.6 0.65-38.2 5.64-38.2 5.64l-1.18 64.4s31.6-6.62 39.2-5.76 13.6 6.76 13.6 6.76v-0.01 0.01s5.93-5.9 13.6-6.76 39.2 5.76 39.2 5.76l-1.18-64.4z" fill="#f5f5f5"/>
 <path d="M53.62 21.69l-5.4 64.2c.85-.02 1.6 0 2.2.07c7.64.85 13.58 6.76 13.58 6.76l-.17-65.4s-1.3-5.12-10.21-5.63z" fill="#94c6d6" opacity=".26"/>
 <g fill="#757575" opacity=".5">
  <path d="M25.31 30.18c-2.7.47-4.91.87-6.17 1.09c0 .62 0 1.3-.01 2.03c1.11-.2 3.37-.61 6.18-1.1v-2.02z"/>
  <path d="M49.65 26.96v1.99c5.33-.01 8.28 1.33 9.25 1.87c0-.83.01-1.57.01-2.22c-1.65-.74-4.67-1.65-9.26-1.64z"/>
  <path d="m45.3 27.2c-4.33 0.44-10.4 1.36-15.7 2.24v2.03c5.26-0.87 11.3-1.8 15.7-2.26v-2.01z"/>
  <path d="m34.7 35.8c-6.46 1-12.9 2.16-15.5 2.63v2.03c2.26-0.41 8.89-1.61 15.5-2.64v-2.02z"/>
  <path d="M46.69 34.28c-2.11.17-4.8.51-7.69.91v2.02c2.95-.42 5.71-.76 7.85-.94c7.18-.59 10.97 1.17 12.03 1.77v-2.23c-1.96-.87-5.89-2.05-12.19-1.53z"/>
  <path d="M26.38 44.39c-3.16.54-5.8 1.01-7.26 1.28v2.03c1.31-.24 3.99-.72 7.26-1.28v-2.03z"/>
  <path d="m58.9 43c-1.95-0.88-5.89-2.08-12.2-1.55-4.07 0.33-10.3 1.26-15.9 2.18v2.03c5.66-0.93 12-1.87 16.1-2.21 7.3-0.6 11.1 1.23 12.1 1.8v-2.25z"/>
  <path d="M58.89 50.27c-1.93-.88-5.89-2.11-12.3-1.58c-.65.05-1.35.12-2.09.2v2.01c.81-.09 1.56-.16 2.26-.22c7.44-.61 11.24 1.3 12.14 1.84c-.01-.75-.01-1.5-.01-2.25z"/>
  <path d="m40.2 49.4c-7.82 1.07-17.6 2.8-21 3.43v2.03c3.05-0.56 13-2.35 21-3.45v-2.01z"/>
  <path d="M28.25 58.47c-3.93.66-7.33 1.27-9.12 1.59v2.03c1.62-.3 5.07-.92 9.12-1.6v-2.02z"/>
  <path d="m58.9 57.5c-1.91-0.88-5.89-2.14-12.4-1.61-3.6 0.3-8.88 1.05-13.9 1.86v2.02c5.11-0.82 10.5-1.59 14.1-1.89 7.63-0.63 11.4 1.41 12.2 1.87v-2.25z"/>
  <path d="m58.9 72c-1.82-0.87-5.76-2.18-12.3-1.69v2.01c8.29-0.67 12 1.81 12.3 1.96v-2.28z"/>
  <path d="M26.38 73.18c-3.08.53-5.7.99-7.23 1.27v2.03c1.41-.26 4.05-.73 7.23-1.28v-2.02z"/>
  <path d="M30.72 72.46v2.03c3.88-.63 8.05-1.27 11.6-1.72v-2.02c-3.53.44-7.7 1.07-11.6 1.71z"/>
  <path d="m37.7 78.6c-7.16 1.04-15.2 2.47-18.5 3.07v2.03c2.99-0.55 11.2-2.01 18.5-3.08v-2.02z"/>
  <path d="M58.93 79.22c-1.81-.88-5.84-2.25-12.56-1.7c-1.27.1-2.75.27-4.36.47V80c1.67-.21 3.21-.38 4.52-.49c8.56-.71 12.32 1.95 12.36 1.97l.05-.06c0-.69 0-1.42-.01-2.2z"/>
  <path d="m36.2 64.4c-6.82 1.02-14 2.31-17 2.86v2.03c2.68-0.49 10-1.81 17-2.87v-2.02z"/>
  <path d="M58.91 64.74c-1.88-.88-5.87-2.18-12.43-1.64c-1.68.14-3.73.38-5.95.68v2.02c2.29-.31 4.4-.56 6.12-.7c7.88-.65 11.69 1.54 12.27 1.91c-.01-.74-.01-1.5-.01-2.27z"/>
  <path d="m88.4 29.7c8.28 1.1 19.1 3.06 22 3.59 0-0.74 0-1.41-0.01-2.03-3.44-0.63-14-2.51-22-3.58v2.02z"/>
  <path d="M84.06 27.19c-.43-.04-.84-.08-1.23-.11c-6.27-.52-10.19.65-12.16 1.52c0 .65.01 1.4.01 2.22c1.12-.62 4.91-2.33 11.99-1.75c.44.04.91.08 1.39.13v-2.01z"/>
  <path d="m102 39.1a673 673 0 0 1 8.1 1.43v-2.03c-1.57-0.29-4.55-0.82-8.1-1.42v2.02z"/>
  <path d="m98 36.3c-5.41-0.87-11.2-1.73-15.1-2.05-6.3-0.52-10.2 0.66-12.2 1.53v2.23c1.06-0.6 4.85-2.36 12-1.77 3.91 0.32 9.84 1.2 15.3 2.08v-2.02z"/>
  <path d="m97.2 43.4v2.02c5.81 0.93 11.2 1.91 13.3 2.29v-2.03c-2.33-0.42-7.64-1.37-13.3-2.28z"/>
  <path d="M88.4 49.3c-2.01-.26-3.87-.48-5.41-.6c-6.41-.53-10.37.7-12.3 1.58v2.25c.9-.53 4.71-2.45 12.14-1.84c1.58.13 3.5.35 5.57.63V49.3z"/>
  <path d="m92.8 49.9v2.02c7.25 1.08 15.1 2.49 17.7 2.97v-2.03c-2.98-0.55-10.6-1.91-17.7-2.96z"/>
  <path d="M93.63 57.24c-3.95-.6-7.78-1.11-10.58-1.34c-6.48-.53-10.46.73-12.36 1.61v2.26c.76-.47 4.57-2.5 12.2-1.87c2.83.23 6.74.76 10.75 1.37v-2.03z"/>
  <path d="m98 57.9v2.03c5.44 0.88 10.4 1.78 12.5 2.15v-2.03c-2.28-0.42-7.18-1.3-12.5-2.15z"/>
  <path d="M105.04 66.3v2.03c2.36.41 4.29.76 5.39.96v-2.03c-1.2-.22-3.1-.56-5.39-.96z"/>
  <path d="M89.29 71.01c-2.29-.31-4.41-.56-6.13-.7c-6.64-.55-10.65.79-12.49 1.67v2.28c.21-.15 3.99-2.65 12.34-1.96c1.76.14 3.94.4 6.3.72v-2.01z"/>
  <path d="m93.6 71.6v2.02c6.88 1.04 14.1 2.34 16.8 2.83v-2.03c-3-0.54-10.1-1.8-16.8-2.82z"/>
  <path d="m97.2 79.4c-5.07-0.81-10.4-1.57-14-1.87-6.73-0.55-10.8 0.83-12.6 1.7v2.2l0.05 0.06c0.03-0.02 3.79-2.68 12.4-1.97 3.63 0.3 9.02 1.08 14.1 1.9v-2.02z"/>
  <path d="M101.53 80.1v2.03c3.89.65 7.21 1.25 8.89 1.56v-2.03c-1.83-.34-5.11-.93-8.89-1.56z"/>
  <path d="M82.93 63.09c-6.46-.51-10.4.78-12.26 1.65v2.27c.58-.37 4.38-2.56 12.26-1.91v-2.01z"/>
  <path d="m87.3 63.6v2.01c4.12 0.52 9.07 1.3 13.4 2.02v-2.03c-4.38-0.72-9.33-1.49-13.4-2z"/>
  <path d="M79.72 41.37c-4.48.03-7.43.95-9.02 1.67v2.24c.84-.48 3.71-1.87 9.02-1.92v-1.99z"/>
  <path d="M84.06 41.59v2.01c2.49.25 5.58.67 8.77 1.14v-2.02c-3.2-.48-6.28-.89-8.77-1.13z"/>
 </g>
 <path d="M71.16 98.45c-1.12-.1-2.15.59-2.51 1.66c-.54 1.63-1.8 3.76-4.65 3.76c-2.88 0-4.15-2.14-4.7-3.77a2.415 2.415 0 0 0-2.48-1.64l-.39.03l.01.32a7.55 7.55 0 0 0 7.55 7.55a7.55 7.55 0 0 0 7.55-7.55c0-.1-.01-.33-.01-.33l-.37-.03z" fill="#616161"/>
 <text transform="skewY(-12.4)" x="19.120001" y="43.292046" font-family="sans-serif" font-size="10.2px" stroke-width=".16" style="line-height:1.25" xml:space="preserve"><tspan x="19.120001" y="43.292046">Ada</tspan></text>
 <text transform="skewY(-12.4)" x="19.059296" y="72.438919" font-family="sans-serif" font-size="10.2px" stroke-width=".16" style="line-height:1.25" xml:space="preserve"><tspan x="19.059296" y="72.438919" stroke-width=".16">Ann</tspan></text>
</svg>
