<?xml version="1.0" encoding="UTF-8" standalone="no"?>
<!DOCTYPE svg PUBLIC "-//W3C//DTD SVG 1.0//EN" "http://www.w3.org/TR/2001/PR-SVG-20010719/DTD/svg10.dtd">
<svg width="89cm" height="48cm" viewBox="279 80 1762 941" xmlns="http://www.w3.org/2000/svg" xmlns:xlink="http://www.w3.org/1999/xlink">
  <defs/>
  <g id="Background"/>
  <g id="Background"/>
  <g id="Background"/>
  <g id="Background"/>
  <g id="Background">
    <polygon style="fill: #ff0000; fill-opacity: 1; stroke-opacity: 1; stroke-width: 2; stroke: #000000" fill-rule="evenodd" points="402.249,240.396 439.836,254.077 357.751,479.604 320.164,465.923 "/>
    <text font-size="28.2222" style="fill: #000000; fill-opacity: 1; stroke: none;text-anchor:middle;font-family:sans-serif;font-style:normal;font-weight:normal" transform="translate(380,360) rotate(-70) translate(-380,-360)">
      <tspan x="380" y="370.95">1</tspan>
    </text>
    <rect style="fill: #ffff00; fill-opacity: 1; stroke-opacity: 1; stroke-width: 2; stroke: #000000" x="440" y="240" width="40" height="240" rx="0" ry="0"/>
    <rect style="fill: #ffff00; fill-opacity: 1; stroke-opacity: 1; stroke-width: 2; stroke: #000000" x="560" y="240" width="40" height="240" rx="0" ry="0"/>
    <rect style="fill: #ffff00; fill-opacity: 1; stroke-opacity: 1; stroke-width: 2; stroke: #000000" x="680" y="240" width="40" height="240" rx="0" ry="0"/>
    <rect style="fill: #ffff00; fill-opacity: 1; stroke-opacity: 1; stroke-width: 2; stroke: #000000" x="800" y="240" width="40" height="240" rx="0" ry="0"/>
    <rect style="fill: #ffff00; fill-opacity: 1; stroke-opacity: 1; stroke-width: 2; stroke: #000000" x="920" y="240" width="40" height="240" rx="0" ry="0"/>
    <rect style="fill: #000000; fill-opacity: 1; stroke-opacity: 1; stroke-width: 2; stroke: #000000" x="280" y="480" width="840" height="20" rx="0" ry="0"/>
    <image x="280" y="200" width="120" height="120" xlink:href="index.svg"/>
    <polygon style="fill: #ff0000; fill-opacity: 1; stroke-opacity: 1; stroke-width: 2; stroke: #000000" fill-rule="evenodd" points="1642.25,240.396 1679.84,254.077 1597.75,479.604 1560.16,465.923 "/>
    <text font-size="28.2222" style="fill: #000000; fill-opacity: 1; stroke: none;text-anchor:middle;font-family:sans-serif;font-style:normal;font-weight:normal" transform="translate(1620,360) rotate(-70) translate(-1620,-360)">
      <tspan x="1620" y="370.95">n</tspan>
    </text>
    <rect style="fill: #ffff00; fill-opacity: 1; stroke-opacity: 1; stroke-width: 2; stroke: #000000" x="1320" y="240" width="40" height="240" rx="0" ry="0"/>
    <rect style="fill: #ffff00; fill-opacity: 1; stroke-opacity: 1; stroke-width: 2; stroke: #000000" x="1440" y="240" width="40" height="240" rx="0" ry="0"/>
    <rect style="fill: #ffff00; fill-opacity: 1; stroke-opacity: 1; stroke-width: 2; stroke: #000000" x="1200" y="240" width="40" height="240" rx="0" ry="0"/>
    <rect style="fill: #ffff00; fill-opacity: 1; stroke-opacity: 1; stroke-width: 2; stroke: #000000" x="1680" y="240" width="40" height="240" rx="0" ry="0"/>
    <rect style="fill: #ffff00; fill-opacity: 1; stroke-opacity: 1; stroke-width: 2; stroke: #000000" x="1800" y="240" width="40" height="240" rx="0" ry="0"/>
    <rect style="fill: #000000; fill-opacity: 1; stroke-opacity: 1; stroke-width: 2; stroke: #000000" x="1160" y="480" width="840" height="20" rx="0" ry="0"/>
    <image x="1520" y="200" width="120" height="120" xlink:href="index.svg"/>
    <polygon style="fill: #ff0000; fill-opacity: 1; stroke-opacity: 1; stroke-width: 2; stroke: #000000" fill-rule="evenodd" points="832.446,776.23 865.212,799.173 727.554,995.77 694.788,972.827 "/>
    <text font-size="28.2222" style="fill: #000000; fill-opacity: 1; stroke: none;text-anchor:middle;font-family:sans-serif;font-style:normal;font-weight:normal" transform="translate(780,886) rotate(-55) translate(-780,-886)">
      <tspan x="780" y="896.95">n</tspan>
    </text>
    <rect style="fill: #ffff00; fill-opacity: 1; stroke-opacity: 1; stroke-width: 2; stroke: #000000" x="440" y="760" width="40" height="240" rx="0" ry="0"/>
    <rect style="fill: #ffff00; fill-opacity: 1; stroke-opacity: 1; stroke-width: 2; stroke: #000000" x="560" y="760" width="40" height="240" rx="0" ry="0"/>
    <rect style="fill: #ffff00; fill-opacity: 1; stroke-opacity: 1; stroke-width: 2; stroke: #000000" x="320" y="760" width="40" height="240" rx="0" ry="0"/>
    <rect style="fill: #ffff00; fill-opacity: 1; stroke-opacity: 1; stroke-width: 2; stroke: #000000" x="920" y="760" width="40" height="240" rx="0" ry="0"/>
    <rect style="fill: #000000; fill-opacity: 1; stroke-opacity: 1; stroke-width: 2; stroke: #000000" x="280" y="1000" width="840" height="20" rx="0" ry="0"/>
    <image x="640" y="720" width="120" height="120" xlink:href="index.svg"/>
    <rect style="fill: #ffff00; fill-opacity: 1; stroke-opacity: 1; stroke-width: 2; stroke: #000000" x="1800" y="960" width="240" height="40" rx="0" ry="0"/>
    <rect style="fill: #000000; fill-opacity: 1; stroke-opacity: 1; stroke-width: 2; stroke: #000000" x="1160" y="1000" width="840" height="20" rx="0" ry="0"/>
    <polygon style="fill: #ffff00; fill-opacity: 1; stroke-opacity: 1; stroke-width: 2; stroke: #000000" fill-rule="evenodd" points="1680.4,962.249 1905.92,880.164 1919.6,917.751 1694.08,999.836 "/>
    <polygon style="fill: #ffff00; fill-opacity: 1; stroke-opacity: 1; stroke-width: 2; stroke: #000000" fill-rule="evenodd" points="1560.4,962.249 1785.92,880.164 1799.6,917.751 1574.08,999.836 "/>
    <polygon style="fill: #ffff00; fill-opacity: 1; stroke-opacity: 1; stroke-width: 2; stroke: #000000" fill-rule="evenodd" points="1440.4,962.249 1665.92,880.164 1679.6,917.751 1454.08,999.836 "/>
    <polygon style="fill: #ffff00; fill-opacity: 1; stroke-opacity: 1; stroke-width: 2; stroke: #000000" fill-rule="evenodd" points="1320.4,962.249 1545.92,880.164 1559.6,917.751 1334.08,999.836 "/>
    <polygon style="fill: #ffff00; fill-opacity: 1; stroke-opacity: 1; stroke-width: 2; stroke: #000000" fill-rule="evenodd" points="1200.4,962.249 1425.92,880.164 1439.6,917.751 1214.08,999.836 "/>
    <polygon style="fill: #ff0000; fill-opacity: 1; stroke-opacity: 1; stroke-width: 2; stroke: #000000" fill-rule="evenodd" points="882.249,760.396 919.836,774.077 837.751,999.604 800.164,985.923 "/>
    <text font-size="28.2222" style="fill: #000000; fill-opacity: 1; stroke: none;text-anchor:middle;font-family:sans-serif;font-style:normal;font-weight:normal" transform="translate(860,880) rotate(-70) translate(-860,-880)">
      <tspan x="860" y="890.95">n+1</tspan>
    </text>
    <text font-size="42.3333" style="fill: #000000; fill-opacity: 1; stroke: none;text-anchor:middle;font-family:sans-serif;font-style:normal;font-weight:normal" x="700" y="134.067">
      <tspan x="700" y="134.067">① Prove that P(1)</tspan>
      <tspan x="700" y="186.983">Can you knock down 1st domino?</tspan>
    </text>
    <text font-size="42.3333" style="fill: #000000; fill-opacity: 1; stroke: none;text-anchor:middle;font-family:sans-serif;font-style:normal;font-weight:normal" x="1580" y="134.067">
      <tspan x="1580" y="134.067">② Assume that P(n)…</tspan>
      <tspan xml:space="preserve" x="1580" y="186.983"> Assume you knock down n-th domino…</tspan>
    </text>
    <text font-size="42.3333" style="fill: #000000; fill-opacity: 1; stroke: none;text-anchor:middle;font-family:sans-serif;font-style:normal;font-weight:normal" x="700" y="605.325">
      <tspan x="700" y="605.325">③ Prove that P(n)→P(n+1)</tspan>
      <tspan xml:space="preserve" x="700" y="658.242"> If n-th domino is knocked down,</tspan>
      <tspan x="700" y="711.158">also the next one falls</tspan>
    </text>
    <text font-size="42.3333" style="fill: #000000; fill-opacity: 1; stroke: none;text-anchor:middle;font-family:sans-serif;font-style:normal;font-weight:normal" x="1580" y="651.317">
      <tspan x="1580" y="651.317">④ Thus ∀n, P(n)</tspan>
      <tspan x="1580" y="704.233">→ All dominoes fall</tspan>
    </text>
  </g>
</svg>
