<?xml version="1.0" encoding="UTF-8"?>
<svg width="614.4" height="249.6" version="1.1" viewBox="0 0 614.4 249.6" xmlns="http://www.w3.org/2000/svg"><path d="m602.4 245.61c0-.96529.80758-2.065 1.7946-2.4437 1.5348-.58896 1.3826-1.8236-1.0511-8.5284-2.5792-7.1056-2.6526-7.8397-.78454-7.8397 1.3809 0 2.5743 1.683 3.6161 5.1l1.555 5.1 1.3708-4.7905c.79524-2.7792 2.2136-4.9528 3.3783-5.1771 1.7399-.33508 1.5614.9436-1.3387 9.5904-3.177 9.4725-8.5404 15.118-8.5404 8.9889zm-492-6c0-.96529.80758-2.065 1.7946-2.4437 1.5348-.58896 1.3826-1.8236-1.0511-8.5284-2.5792-7.1056-2.6526-7.8397-.78455-7.8397 1.3809 0 2.5743 1.683 3.6161 5.1l1.555 5.1 1.3708-4.7905c.79524-2.7792 2.2136-4.9528 3.3783-5.1771 1.7399-.33507 1.5614.94361-1.3387 9.5904-3.177 9.4725-8.5404 15.118-8.5404 8.9889zm384-8.1533c0-7.6076.35224-9.4585 1.8-9.4585 1.0918 0 1.8 1.1148 1.8 2.8336 0 2.3859.48066 2.7417 3.042 2.2521 6.3162-1.2074 10.476 7.6823 5.6422 12.057-1.272 1.1512-4.1432 1.8867-7.2 1.8445l-5.0843-.0702zm10.2 2.5415c0-3.5422-4.9178-5.0529-6.1338-1.8842-1.1948 3.1136.47986 5.687 3.4284 5.2683 1.9833-.28163 2.7054-1.1849 2.7054-3.3842zm8.586 5.0055c-4.3053-4.7573-.99628-12.206 5.4225-12.206 6.1456 0 9.3503 8.2934 4.797 12.414-2.8982 2.6228-7.7467 2.5239-10.22-.2085zm8.214-5.0055c0-3.5422-4.9178-5.0529-6.1338-1.8842-1.1948 3.1136.47986 5.687 3.4284 5.2683 1.9833-.28163 2.7054-1.1849 2.7054-3.3842zm6.7296 5.6496c-2.0603-2.0603-1.7233-12.85.40139-12.85 1.1786 0 1.8488 1.6276 2.1 5.1.30222 4.177.80335 5.1 2.769 5.1s2.4668-.923 2.769-5.1c.60855-8.4111 3.831-6.8046 3.831 1.9099v7.0099l-5.2704.0797c-2.8987.0438-5.8687-.51866-6.6-1.25zm15.47-5.5082v-7.0585l5.0633-.0698c6.7374-.093 8.1367 1.3402 8.1367 8.3339 0 7.7622-3.2773 8.4064-3.831.75308-.30222-4.177-.80335-5.1-2.769-5.1s-2.4668.923-2.769 5.1c-.61083 8.4423-3.831 6.7961-3.831-1.9586zm17.41 5.0975c-4.2598-4.2598-.15625-13.542 5.3502-12.102 1.9535.51085 2.4395.0628 2.4395-2.2497 0-1.7668.69867-2.8877 1.8-2.8877 1.4478 0 1.8 1.851 1.8 9.4585v9.4585l-4.7896.0661c-2.749.0379-5.5609-.7052-6.6-1.7443zm7.1896-5.2389c0-3.4208-3.7875-4.8712-4.932-1.8887-1.0918 2.8451.453 5.7184 2.8284 5.2609 1.3284-.25583 2.1036-1.4985 2.1036-3.3722zm9.091 6.0562c-2.6986-1.6678-.88488-5.3976 3.2115-6.6044 5.2259-1.5395 4.9887-3.5237-.30249-2.531-4.3137.80926-5.296-.14485-2.76-2.6808 4.5938-4.5938 10.113-.9117 10.732 7.16l.42947 5.6h-4.8917c-2.6904 0-5.5789-.42471-6.4188-.94379zm6.7781-4.4618c.29768-.89413-.43028-1.1707-2.0006-.76005-1.3577.35505-2.4685 1.1621-2.4685 1.7936 0 1.5931 3.8944.69247 4.4691-1.0335zm6.3309-1.5944c0-5.6.4-7.2 1.8-7.2.99 0 1.8.648 1.8 1.44 0 1.12.32 1.12 1.44 0 1.9169-1.9169 3.36-1.8224 3.36.22004 0 .91302-1.08 1.9425-2.4 2.2877-1.9069.49867-2.4 1.6368-2.4 5.54 0 3.5665-.49314 4.9123-1.8 4.9123-1.4 0-1.8-1.6-1.8-7.2zm-588-8.5415c0-7.6076.35224-9.4585 1.8-9.4585 1.0918 0 1.8 1.1148 1.8 2.8336 0 2.3859.48066 2.7417 3.042 2.2521 6.3162-1.2074 10.476 7.6823 5.6422 12.057-1.272 1.1512-4.1432 1.8867-7.2 1.8445l-5.0843-.0702zm10.2 2.5415c0-3.5422-4.9178-5.0529-6.1338-1.8842-1.1948 3.1136.47986 5.687 3.4284 5.2683 1.9833-.28163 2.7054-1.1849 2.7054-3.3842zm8.586 5.0055c-4.3053-4.7573-.99629-12.206 5.4225-12.206 6.1456 0 9.3503 8.2934 4.797 12.414-2.8982 2.6228-7.7467 2.5239-10.22-.2085zm8.214-5.0055c0-3.5422-4.9178-5.0529-6.1338-1.8842-1.1948 3.1136.47986 5.687 3.4284 5.2683 1.9833-.28163 2.7054-1.1849 2.7054-3.3842zm6.7296 5.6496c-2.0603-2.0603-1.7233-12.85.40139-12.85 1.1786 0 1.8488 1.6276 2.1 5.1.30222 4.177.80335 5.1 2.769 5.1s2.4668-.923 2.769-5.1c.60856-8.4111 3.831-6.8046 3.831 1.9099v7.0099l-5.2704.0797c-2.8987.0438-5.8687-.51866-6.6-1.25zm15.47-5.5082v-7.0585l5.0633-.0698c6.7374-.093 8.1367 1.3402 8.1367 8.3338 0 7.7622-3.2773 8.4064-3.831.75307-.30222-4.177-.80335-5.1-2.769-5.1s-2.4668.923-2.769 5.1c-.61082 8.4424-3.831 6.7961-3.831-1.9585zm17.41 5.0975c-4.2598-4.2598-.15625-13.542 5.3502-12.102 1.9535.51085 2.4395.0627 2.4395-2.2497 0-1.7668.69867-2.8876 1.8-2.8876 1.4478 0 1.8 1.851 1.8 9.4585v9.4585l-4.7896.0661c-2.749.0379-5.5609-.7052-6.6-1.7443zm7.1896-5.2389c0-1.8737-.7752-3.1164-2.1036-3.3722-2.3754-.45747-3.9201 2.4159-2.8284 5.2609 1.1445 2.9825 4.932 1.5321 4.932-1.8887zm9.0909 6.0562c-2.6986-1.6678-.88487-5.3976 3.2116-6.6044 5.2259-1.5395 4.9887-3.5237-.3025-2.531-4.3137.80926-5.296-.14485-2.76-2.6808 4.5938-4.5938 10.113-.9117 10.732 7.16l.42946 5.6h-4.8917c-2.6904 0-5.5789-.42471-6.4188-.94379zm6.7781-4.4618c.29768-.89413-.43027-1.1707-2.0006-.76005-1.3577.35505-2.4685 1.1621-2.4685 1.7936 0 1.5931 3.8944.69247 4.4691-1.0335zm6.3309-1.5944c0-5.6.4-7.2 1.8-7.2.99 0 1.8.648 1.8 1.44 0 1.12.32 1.12 1.44 0 1.9169-1.9169 3.36-1.8224 3.36.22004 0 .91302-1.08 1.9425-2.4 2.2877-1.9069.49867-2.4 1.6368-2.4 5.54 0 3.5665-.49314 4.9123-1.8 4.9123-1.4 0-1.8-1.6-1.8-7.2zm-67.2-49.2v-33.6h541.2v67.2h-541.2zm60 0v-32.4h-58.8v64.8h58.8zm-22.8 3c0-1-1.0667-1.8-2.4-1.8-1.6 0-2.4-.80001-2.4-2.4 0-2.6856 1.2407-3.0793 3.2793-1.0407 1.5211 1.5211 5.1207.59206 5.1207-1.3217 0-.68071-.972-1.2376-2.16-1.2376-2.4029 0-5.0615-2.2013-5.0001-4.14.07208-2.2751 5.0658-7.3805 5.6341-5.76.2893.825 1.291 1.5 2.226 1.5.935 0 1.7 1.08 1.7 2.4s-.54 2.4-1.2 2.4-1.2-.54-1.2-1.2-1.08-1.2-2.4-1.2c-3.5921 0-2.8926 1.9935 1.2 3.4202 3.9696 1.3838 4.8207 4.8729 1.8 7.3798-.99.82163-1.8 2.2378-1.8 3.1469 0 .90919-.54 1.6531-1.2 1.6531s-1.2-.81-1.2-1.8zm82.8-3v-32.4h-58.8v64.8h58.8zm60 0v-32.4h-58.8v64.8h58.8zm-32.851 6.5778c-4.4238-4.4238-.55381-10.178 6.8452-10.178 3.5609 0 4.4055.44657 4.4055 2.3292 0 2.9596-1.9296 4.2275-2.8366 1.8639-.8853-2.3071-4.8389-2.312-6.7507-.008-2.8009 3.3749-.47831 5.7937 4.874 5.0758 3.3787-.45318 4.7046-.22794 4.3854.74493-.74219 2.2618-8.7077 2.3875-10.923.17233zm92.851-6.5778v-32.4h-58.8v64.8h58.8zm-33.3 7.579c-3.9984-1.5435.26258-6.379 5.6211-6.379 1.3634 0 2.4789-.61066 2.4789-1.357 0-.88548-1.4869-1.1157-4.2791-.6626-3.0305.49177-4.1415.27496-3.8075-.743 1.5908-4.848 10.487-1.3619 10.487 4.1095 0 1.8992.57187 3.4531 1.2708 3.4531s.97954.4713.62352 1.0473c-.68757 1.1125-9.8693 1.5064-12.394.5317zm7.5-2.779c.41888-.67777-.56393-1.2-2.2584-1.2-1.65 0-3.3337.54-3.7416 1.2-.41889.67777.56393 1.2 2.2584 1.2 1.65 0 3.3337-.54 3.7416-1.2zm85.8-4.8v-32.4h-58.8v64.8h58.8zm-36 7.0848c0-.59665.54-1.0848 1.2-1.0848s1.2-2.7 1.2-6-.54-6-1.2-6-1.2-.54-1.2-1.2 1.08-1.2 2.4-1.2c1.7124 0 2.4.8 2.4 2.7922 0 2.3846.49727 2.7192 3.4065 2.2922 6.006-.88149 9.7194 5.6183 5.5766 9.7611-1.9814 1.9814-13.783 2.5288-13.783.63937zm12.6-4.6848c0-2.3822-.68098-3.0783-3.3068-3.3804-3.5466-.40794-5.3166 1.9036-4.0284 5.2607 1.261 3.2863 7.3352 1.7292 7.3352-1.8804zm89.4-2.4v-32.4h-64.8v64.8h64.8zm-44.851 6.5778c-4.4238-4.4238-.55381-10.178 6.8452-10.178 3.5609 0 4.4055.44657 4.4055 2.3292 0 2.9596-1.9296 4.2275-2.8366 1.8639-.8853-2.3071-4.8389-2.312-6.7507-.008-2.801 3.3749-.47831 5.7937 4.874 5.0758 3.3787-.45318 4.7046-.22794 4.3854.74493-.74219 2.2618-8.7077 2.3875-10.923.17233zm104.85-6.5778v-32.4h-58.8v64.8h58.8zm-32.851 6.5778c-4.4238-4.4238-.55381-10.178 6.8452-10.178 3.5609 0 4.4055.44657 4.4055 2.3292 0 2.9596-1.9296 4.2275-2.8366 1.8639-.8853-2.3071-4.8389-2.312-6.7507-.008-2.801 3.3749-.47831 5.7937 4.874 5.0758 3.3787-.45318 4.7046-.22794 4.3854.74493-.74219 2.2618-8.7077 2.3875-10.923.17233zm92.851-6.5778v-32.4h-58.8v64.8h58.8zm-36 7.0848c0-.59665.54-1.0848 1.2-1.0848s1.2-2.7 1.2-6-.54-6-1.2-6-1.2-.54-1.2-1.2 1.08-1.2 2.4-1.2c1.7124 0 2.4.8 2.4 2.7922 0 2.3846.49726 2.7192 3.4065 2.2922 6.006-.88149 9.7194 5.6183 5.5766 9.7611-1.9814 1.9814-13.783 2.5288-13.783.63937zm12.6-4.6848c0-2.3822-.68098-3.0783-3.3068-3.3804-3.5466-.40794-5.3166 1.9036-4.0284 5.2607 1.2611 3.2863 7.3352 1.7292 7.3352-1.8804zm77.4-2.4v-32.4h-52.8v64.8h52.8zm-28.8 3c0-1-1.0667-1.8-2.4-1.8-1.6 0-2.4-.80001-2.4-2.4 0-2.6856 1.2407-3.0793 3.2793-1.0407 1.5211 1.5211 5.1207.59206 5.1207-1.3217 0-.68071-.972-1.2376-2.16-1.2376-2.4029 0-5.0615-2.2013-5.0001-4.14.0721-2.2751 5.0658-7.3805 5.6341-5.76.28929.825 1.291 1.5 2.226 1.5.93501 0 1.7 1.08 1.7 2.4s-.54 2.4-1.2 2.4-1.2-.54-1.2-1.2-1.08-1.2-2.4-1.2c-3.5921 0-2.8926 1.9935 1.2 3.4202 3.9696 1.3838 4.8207 4.8729 1.8 7.3798-.99.82163-1.8 2.2378-1.8 3.1469 0 .90919-.54 1.6531-1.2 1.6531s-1.2-.81-1.2-1.8zm-243.8-46.2c-1.7972-8.3706-1.5778-9.6929 1.1551-6.96 1.12 1.12 1.44-3.8667 1.44-22.44 0-18.573-.32-23.56-1.44-22.44-2.7113 2.7113-3.0436 1.4345-1.4212-5.46.89304-3.795 1.6322-7.575 1.6425-8.4.0144-1.1494-5.4513-1.5-23.381-1.5h-23.4v-67.2h103.2v67.2h-27c-20.81 0-26.996.34389-26.981 1.5.0108.825.75723 4.6386 1.6598 8.4746 1.3957 5.9317 1.3929 6.8793-.0187 6.3377-1.3761-.52805-1.6598 3.145-1.6598 21.488 0 18.022.29879 22.01 1.6114 21.506 1.3193-.50627 1.2823.91413-.20423 7.8377-2.2654 10.551-2.9473 10.558-5.2022.056zm56.595-100.8v-32.4h-100.8v64.8h100.8zm-93.061 21.039c-2.2869-5.4733-2.1974-10.395.28349-15.598 2.8546-5.9862 5.6948-5.7712 3.1827.24095-1.8175 4.3498-1.7074 12.396.2382 17.418 1.5776 4.0719-1.9655 2.1002-3.7044-2.0615zm80.68 1.4615c1.2572-3.4607 1.2111-13.73-.0808-18-1.4445-4.7739.82916-4.1137 3.2394.94071 2.4809 5.2025 2.5704 10.125.28349 15.598-1.9345 4.6299-5.078 5.9646-3.4421 1.4615zm-72.819-11.7c0-12.012 2.1989-12.911 8.0703-3.3l3.8487 6.3.0404-6.3c.0307-4.782.47422-6.3 1.8405-6.3 1.45 0 1.8 1.8667 1.8 9.6 0 11.801-1.7804 12.584-7.5111 3.3l-3.8889-6.3-.36271 6.3c-.64071 11.128-3.8373 8.3794-3.8373-3.3zm19.2 0v-9.6h6.6c5.0667 0 6.6.41818 6.6 1.8 0 1.3-1.3333 1.8-4.8 1.8s-4.8.5-4.8 1.8c0 1.2571 1.2667 1.8 4.2 1.8s4.2.54286 4.2 1.8-1.2667 1.8-4.2 1.8c-4 0-4.2.2-4.2 4.2 0 2.9333-.54286 4.2-1.8 4.2-1.45 0-1.8-1.8667-1.8-9.6zm17.7 8.3039c-2.445-1.4241-2.8216-4.7039-.54-4.7039.858 0 2.1457.58572 2.8616 1.3016 1.7816 1.7815 6.9784.89288 6.9784-1.1933 0-.94138-2.0715-2.2729-4.6706-3.0021-5.1172-1.4357-7.5198-4.1157-6.3718-7.1073 1.5084-3.9308 12.143-4.0176 13.642-.11136 1.0608 2.7643-.47803 3.4902-3.7205 1.7548-3.0259-1.6194-6.6791-1.0193-6.6791 1.0971 0 .66814 1.485 1.5325 3.3 1.9207 8.6285 1.8457 11.055 5.2129 6.8143 9.4541-2.1214 2.1214-8.4342 2.4419-11.614.5896zm15.9.58496c0-14.88 9.9226-21.655 13.995-9.5551 3.1477 9.3519 2.0397 16.984-1.229 8.4663-.39608-1.0322-2.1876-1.8-4.2-1.8-2.0124 0-3.8039.7678-4.2 1.8-.65053 1.6953-4.366 2.6219-4.366 1.0888zm10.132-9.1888c-.94059-3.06-1.5299-3.9239-2.1827-3.2-2.1545 2.3889-1.8861 5.9.45092 5.9 2.1025 0 2.413-.484 1.7318-2.7zm-59.332-29.7v-9.6h6.6c5.0667 0 6.6.41818 6.6 1.8 0 1.3-1.3333 1.8-4.8 1.8s-4.8.5-4.8 1.8c0 1.2571 1.2667 1.8 4.2 1.8s4.2.54286 4.2 1.8c0 1.2571-1.2667 1.8-4.2 1.8-4 0-4.2.2-4.2 4.2 0 2.9333-.54286 4.2-1.8 4.2-1.45 0-1.8-1.8667-1.8-9.6zm17.7 8.3039c-2.445-1.4241-2.8216-4.7039-.54-4.7039.858 0 2.1457.58572 2.8616 1.3016 1.7816 1.7815 6.9784.89288 6.9784-1.1933 0-.94138-2.0715-2.2729-4.6706-3.0021-5.1172-1.4357-7.5198-4.1157-6.3718-7.1073 1.5084-3.9308 12.143-4.0176 13.642-.11135 1.0608 2.7643-.47803 3.4902-3.7205 1.7548-3.0259-1.6194-6.6791-1.0194-6.6791 1.0971 0 .66814 1.485 1.5325 3.3 1.9207 8.6285 1.8457 11.055 5.2129 6.8143 9.4541-2.1214 2.1214-8.4342 2.4419-11.614.5896zm14.7.58496c0-14.88 9.9226-21.655 13.995-9.5551 3.1477 9.3519 2.0397 16.984-1.229 8.4663-.39608-1.0322-2.1876-1.8-4.2-1.8-2.0124 0-3.8039.7678-4.2 1.8-.65053 1.6953-4.366 2.6219-4.366 1.0888zm10.132-9.1888c-.94059-3.06-1.5299-3.9239-2.1827-3.2-2.1545 2.3889-1.8861 5.9.45092 5.9 2.1025 0 2.413-.484 1.7318-2.7zm-137.63 114.57c-10.181-2.2974-10.14-3.0209.3-5.2624 8.3706-1.7972 9.6929-1.5778 6.96 1.1551-1.12 1.12 4.9467 1.5015 27.3 1.7168l28.74.27678-27.854.34521c-24.02.29771-27.76.58997-27.172 2.1232.37525.9779.4895 1.7094.25389 1.6256-.23562-.0839-4.0734-.97494-8.5284-1.9802zm249.2.16821c.4904-1.278-4.2323-1.6553-24.244-1.9371l-24.853-.34992 25.74-.27428c20.02-.21334 25.42-.59429 24.3-1.7143-2.7329-2.7329-1.4106-2.9523 6.96-1.1551 10.502 2.2549 10.495 2.9368-.056 5.2022-6.8388 1.4683-8.3395 1.512-7.847.22843zm-154.1-18.436v-9.6h6.4531c7.7817 0 10.248 2.052 8.4086 6.9962-.65553 1.7621-.79892 5.0901-.31864 7.3957.99172 4.7606.71846 5.3955-1.8913 4.394-1.0185-.39082-1.8518-2.0775-1.8518-3.7482 0-2.5752-.5481-3.0377-3.6-3.0377-3.2 0-3.6.4-3.6 3.6 0 2.4-.6 3.6-1.8 3.6-1.45 0-1.8-1.8667-1.8-9.6zm11.4-3.6c0-1.1536-1.4005-1.935-3.9-2.176-3.2953-.31773-3.9.0196-3.9 2.176 0 2.1564.60467 2.4938 3.9 2.176 2.4995-.241 3.9-1.0224 3.9-2.176zm33.631 11.7c-4.509-13.703-5.1864-17.7-2.9995-17.7 1.7022 0 2.537 1.5572 3.699 6.9.87123 4.0057 1.7002 5.8933 1.9762 4.5 1.536-7.7542 2.973-11.4 4.4933-11.4s2.9572 3.6458 4.4933 11.4c.276 1.3933 1.1049-.49434 1.9762-4.5 1.153-5.3013 2.0032-6.9 3.6696-6.9 2.0477 0 2.019.51976-.51349 9.3-3.4427 11.936-5.8641 12.889-7.8022 3.0689-1.6387-8.3031-2.2012-10.073-2.3286-7.3279-.44345 9.5533-4.8999 18.019-6.6636 12.659zm175.74-.32899c-2.1593-2.6018-.49012-3.6518 2.9115-1.8313 3.0752 1.6458 5.5126.9188 5.5126-1.6441 0-.9918-1.0269-1.3665-2.8106-1.0255-3.621.69221-6.7894-2.467-6.7894-6.7698 0-4.4604 3.2315-7.0874 8.7-7.0725l4.5.0122v8.8378c0 7.5095-.34886 9.0245-2.3211 10.08-3.365 1.8009-7.9516 1.5235-9.703-.58677zm7.8241-11.371c0-3.4208-3.7875-4.8712-4.932-1.8887-1.0918 2.8451.453 5.7184 2.8284 5.2609 1.3284-.25583 2.1036-1.4985 2.1036-3.3723zm-391.8.1332v-7.0668l8.7.16681c10.337.19819 20.097 13.967 9.9 13.967-1.3376 0-1.8-1.4098-1.8-5.488 0-7.6703-4.0094-7.3208-4.569.39834-.53648 7.3998-3.831 7.0573-3.831-.39834 0-7.6703-4.0094-7.3208-4.569.39834-.6118 8.4386-3.831 6.7772-3.831-1.9772zm25.986 4.8723c-2.6228-2.8982-2.5239-7.7467.2085-10.22 4.7573-4.3053 12.206-.99629 12.206 5.4225 0 6.1456-8.2934 9.3503-12.414 4.797zm8.214-5.0055c0-2.1993-.72208-3.1025-2.7054-3.3842-2.9485-.41869-4.6232 2.1547-3.4284 5.2683 1.216 3.1687 6.1338 1.658 6.1338-1.8842zm7.0766 0c-2.303-6.574-2.3456-7.2-.48939-7.2 1.3394 0 2.5814 1.7397 3.6409 5.1l1.608 5.1 1.1525-5.1c.83032-3.6744 1.7537-5.1 3.3033-5.1 2.0366 0 2.0217.38245-.28067 7.2-1.6645 4.9288-3.0593 7.2-4.4219 7.2-1.3524 0-2.7988-2.3077-4.5127-7.2zm15.363 5.76c-5.7438-5.7438 2.0939-16.425 8.4095-11.46 4.5514 3.5778 3.8925 6.9-1.3686 6.9-2.6845 0-4.8809.54-4.8809 1.2s1.9561 1.2 4.3469 1.2c3.7279 0 4.1342.25634 2.8531 1.8-1.7908 2.1578-7.3485 2.3715-9.36.36zm6.96-8.16c0-.66-1.08-1.2-2.4-1.2s-2.4.54-2.4 1.2 1.08 1.2 2.4 1.2 2.4-.54 2.4-1.2zm14.4 0c0-7.7333.35-9.6 1.8-9.6 1.45 0 1.8 1.8667 1.8 9.6 0 7.7333-.35001 9.6-1.8 9.6-1.45 0-1.8-1.8667-1.8-9.6zm7.44 8.16c-5.7438-5.7438 2.0939-16.425 8.4095-11.46 4.5514 3.5778 3.8925 6.9-1.3686 6.9-2.6845 0-4.8809.54-4.8809 1.2s1.9561 1.2 4.3469 1.2c3.7279 0 4.1342.25634 2.8531 1.8-1.7908 2.1578-7.3485 2.3715-9.36.36zm6.96-8.16c0-.66-1.08-1.2-2.4-1.2s-2.4.54-2.4 1.2 1.08 1.2 2.4 1.2 2.4-.54 2.4-1.2zm8.4 3.7c0-3.5954-.58592-6.1377-1.5-6.5086-1.0422-.42286-1.107-.91123-.21248-1.6.70815-.54525 1.6362-1.9364 2.0624-3.0914.92357-2.5032 5.6501-2.8378 5.6501-.4 0 .935-.675 1.9724-1.5 2.3053-.825.33289-.285.64789 1.2.7 1.6421.0576 2.7-.61053 2.7-1.7053 0-.99.81-1.8 1.8-1.8s1.8.765 1.8 1.7.675 2.015 1.5 2.4c1.2.56 1.2.84 0 1.4-1.7827.83194-2.0228 8.4352-.3 9.5 2.2065 1.3637 1.2322 3.1715-1.5 2.7835-2.3041-.32724-2.7536-1.2193-3.0658-6.0835-.55842-8.7027-5.0342-8.436-5.0342.3 0 4.5333-.44001 6-1.8 6-1.3559 0-1.8-1.4556-1.8-5.9zm187.2-1.1668v-7.0668l8.7.16681c10.337.19819 20.097 13.967 9.9 13.967-1.3376 0-1.8-1.4098-1.8-5.488 0-7.6703-4.0094-7.3208-4.569.39834-.53648 7.3998-3.831 7.0573-3.831-.39834 0-7.6703-4.0094-7.3208-4.569.39834-.61179 8.4386-3.831 6.7772-3.831-1.9772zm25.986 4.8723c-2.6228-2.8982-2.5239-7.7467.2085-10.22 4.7573-4.3053 12.206-.99629 12.206 5.4225 0 6.1456-8.2934 9.3503-12.414 4.797zm8.214-5.0055c0-2.1993-.72208-3.1025-2.7054-3.3842-2.9485-.41869-4.6232 2.1547-3.4284 5.2683 1.216 3.1687 6.1338 1.658 6.1338-1.8842zm7.0766 0c-2.303-6.574-2.3456-7.2-.48939-7.2 1.3394 0 2.5814 1.7397 3.6409 5.1l1.608 5.1 1.1525-5.1c.83033-3.6744 1.7537-5.1 3.3033-5.1 2.0366 0 2.0217.38245-.28067 7.2-1.6645 4.9288-3.0593 7.2-4.4219 7.2-1.3524 0-2.7988-2.3077-4.5127-7.2zm15.363 5.76c-5.7438-5.7438 2.0939-16.425 8.4095-11.46 4.5514 3.5778 3.8925 6.9-1.3686 6.9-2.6845 0-4.8809.54-4.8809 1.2s1.9561 1.2 4.3469 1.2c3.7279 0 4.1342.25634 2.8531 1.8-1.7908 2.1578-7.3485 2.3715-9.36.36zm6.96-8.16c0-.66-1.08-1.2-2.4-1.2-1.32 0-2.4.54-2.4 1.2s1.08 1.2 2.4 1.2c1.32 0 2.4-.54 2.4-1.2zm13.2 2.4c0-5.6.39999-7.2 1.8-7.2.99 0 1.8.648 1.8 1.44 0 1.12.32 1.12 1.44 0 1.9169-1.9169 3.36-1.8224 3.36.22005 0 .91302-1.08 1.9425-2.4 2.2876-1.9069.49868-2.4 1.6368-2.4 5.54 0 3.5665-.49314 4.9123-1.8 4.9123-1.4 0-1.8-1.6-1.8-7.2zm12 0c0-5.6.39999-7.2 1.8-7.2 1.4 0 1.8 1.6 1.8 7.2s-.4 7.2-1.8 7.2c-1.4 0-1.8-1.6-1.8-7.2zm24-2.4c0-7.7333.35-9.6 1.8-9.6 1.1013 0 1.8 1.1208 1.8 2.8877 0 2.2994.4902 2.7595 2.4064 2.2584 3.9564-1.0346 5.9936 1.7528 5.9936 8.2009 0 7.7622-3.2773 8.4064-3.831.75306-.25826-3.5693-.90924-5.1-2.169-5.1s-1.9108 1.5307-2.169 5.1c-.72458 10.014-3.831 6.3656-3.831-4.5zm16.4 8.8c-.44-.44-.8-3.095-.8-5.9 0-2.9067-.6451-5.401-1.5-5.8-1.2-.56-1.2-.84 0-1.4.825-.385 1.5-1.465 1.5-2.4s.81-1.7 1.8-1.7 1.8.765 1.8 1.7.675 2.015 1.5 2.4c1.2.56 1.2.84 0 1.4-1.7827.83194-2.0228 8.4352-.3 9.5.66.40791 1.2 1.2498 1.2 1.8708 0 1.287-3.9896 1.5396-5.2.32918zm-40.4-16.6c0-.99.81-1.8 1.8-1.8s1.8.81 1.8 1.8-.81 1.8-1.8 1.8-1.8-.81-1.8-1.8z" style="stroke-width:1.2"/></svg>
