<?xml version="1.0" encoding="UTF-8" standalone="no"?>
<svg
   xmlns:dc="http://purl.org/dc/elements/1.1/"
   xmlns:cc="http://creativecommons.org/ns#"
   xmlns:rdf="http://www.w3.org/1999/02/22-rdf-syntax-ns#"
   xmlns:svg="http://www.w3.org/2000/svg"
   xmlns="http://www.w3.org/2000/svg"
   xmlns:sodipodi="http://sodipodi.sourceforge.net/DTD/sodipodi-0.dtd"
   xmlns:inkscape="http://www.inkscape.org/namespaces/inkscape"
   width="541.60406pt"
   height="481pt"
   viewBox="0 0 541.60406 481"
   version="1.1"
   id="svg448"
   sodipodi:docname="merge-sort.svg"
   inkscape:version="1.0.1 (3bc2e813f5, 2020-09-07)">
  <metadata
     id="metadata454">
    <rdf:RDF>
      <cc:Work
         rdf:about="">
        <dc:format>image/svg+xml</dc:format>
        <dc:type
           rdf:resource="http://purl.org/dc/dcmitype/StillImage" />
        <dc:title />
      </cc:Work>
    </rdf:RDF>
  </metadata>
  <defs
     id="defs452" />
  <sodipodi:namedview
     pagecolor="#ffffff"
     bordercolor="#666666"
     borderopacity="1"
     objecttolerance="10"
     gridtolerance="10"
     guidetolerance="10"
     inkscape:pageopacity="0.6"
     inkscape:pageshadow="2"
     inkscape:window-width="1848"
     inkscape:window-height="1016"
     id="namedview450"
     showgrid="false"
     fit-margin-top="0"
     fit-margin-left="0"
     fit-margin-right="0"
     fit-margin-bottom="0"
     inkscape:zoom="1.2857796"
     inkscape:cx="290.69307"
     inkscape:cy="320.82563"
     inkscape:window-x="72"
     inkscape:window-y="27"
     inkscape:window-maximized="1"
     inkscape:current-layer="svg448"
     inkscape:document-rotation="0"
     inkscape:pagecheckerboard="false" />
  <g
     id="node1"
     class="node"
     style="font-size:14px;font-family:Times-Roman"
     transform="translate(2.5,2.5)">
    <title
       id="title6">s00</title>
    <polygon
       style="fill:#fff0f0;stroke:#000000"
       points="167,40 370,40 370,4 167,4 "
       id="polygon8" />
    <text
       text-anchor="middle"
       x="182"
       y="27"
       id="text10">38</text>
    <polyline
       style="fill:none;stroke:#000000"
       points="198,40 198,4 "
       id="polyline12" />
    <text
       text-anchor="middle"
       x="213"
       y="27"
       id="text14">27</text>
    <polyline
       style="fill:none;stroke:#000000"
       points="229,40 229,4 "
       id="polyline16" />
    <text
       text-anchor="middle"
       x="244"
       y="27"
       id="text18">43</text>
    <polyline
       style="fill:none;stroke:#000000"
       points="260,40 260,4 "
       id="polyline20" />
    <text
       text-anchor="middle"
       x="272"
       y="27"
       id="text22">3</text>
    <polyline
       style="fill:none;stroke:#000000"
       points="284,40 284,4 "
       id="polyline24" />
    <text
       text-anchor="middle"
       x="296"
       y="27"
       id="text26">9</text>
    <polyline
       style="fill:none;stroke:#000000"
       points="308,40 308,4 "
       id="polyline28" />
    <text
       text-anchor="middle"
       x="323"
       y="27"
       id="text30">82</text>
    <polyline
       style="fill:none;stroke:#000000"
       points="339,40 339,4 "
       id="polyline32" />
    <text
       text-anchor="middle"
       x="354"
       y="27"
       id="text34">10</text>
  </g>
  <g
     id="node3"
     class="node"
     style="font-size:14px;font-family:Times-Roman"
     transform="translate(2.5,2.5)">
    <title
       id="title37">s10</title>
    <polygon
       style="fill:#fff0f0;stroke:#000000"
       points="141,112 258,112 258,76 141,76 "
       id="polygon39" />
    <text
       text-anchor="middle"
       x="156"
       y="99"
       id="text41">38</text>
    <polyline
       style="fill:none;stroke:#000000"
       points="172,112 172,76 "
       id="polyline43" />
    <text
       text-anchor="middle"
       x="187"
       y="99"
       id="text45">27</text>
    <polyline
       style="fill:none;stroke:#000000"
       points="203,112 203,76 "
       id="polyline47" />
    <text
       text-anchor="middle"
       x="218"
       y="99"
       id="text49">43</text>
    <polyline
       style="fill:none;stroke:#000000"
       points="234,112 234,76 "
       id="polyline51" />
    <text
       text-anchor="middle"
       x="246"
       y="99"
       id="text53">3</text>
  </g>
  <g
     id="edge2"
     class="edge"
     style="font-size:14px;font-family:Times-Roman"
     transform="translate(2.5,2.5)">
    <title
       id="title56">s00-&gt;s10</title>
    <path
       style="fill:none;stroke:#ff0000"
       d="m 251,40 c -9,9 -19,19 -28,29"
       id="path58" />
    <polygon
       style="fill:#ff0000;stroke:#ff0000"
       points="216,76 221,66 226,71 "
       id="polygon60" />
  </g>
  <g
     id="node5"
     class="node"
     style="font-size:14px;font-family:Times-Roman"
     transform="translate(2.5,2.5)">
    <title
       id="title63">s11</title>
    <polygon
       style="fill:#fff0f0;stroke:#000000"
       points="294,112 380,112 380,76 294,76 "
       id="polygon65" />
    <text
       text-anchor="middle"
       x="306"
       y="99"
       id="text67">9</text>
    <polyline
       style="fill:none;stroke:#000000"
       points="318,112 318,76 "
       id="polyline69" />
    <text
       text-anchor="middle"
       x="333"
       y="99"
       id="text71">82</text>
    <polyline
       style="fill:none;stroke:#000000"
       points="349,112 349,76 "
       id="polyline73" />
    <text
       text-anchor="middle"
       x="364"
       y="99"
       id="text75">10</text>
  </g>
  <g
     id="edge4"
     class="edge"
     style="font-size:14px;font-family:Times-Roman"
     transform="translate(2.5,2.5)">
    <title
       id="title78">s00-&gt;s11</title>
    <path
       style="fill:none;stroke:#ff0000"
       d="m 285,40 c 9,9 19,19 28,29"
       id="path80" />
    <polygon
       style="fill:#ff0000;stroke:#ff0000"
       points="320,76 310,71 315,66 "
       id="polygon82" />
  </g>
  <g
     id="node7"
     class="node"
     style="font-size:14px;font-family:Times-Roman"
     transform="translate(2.5,2.5)">
    <title
       id="title85">s20</title>
    <polygon
       style="fill:#fff0f0;stroke:#000000"
       points="72,184 134,184 134,148 72,148 "
       id="polygon87" />
    <text
       text-anchor="middle"
       x="87"
       y="171"
       id="text89">38</text>
    <polyline
       style="fill:none;stroke:#000000"
       points="103,184 103,148 "
       id="polyline91" />
    <text
       text-anchor="middle"
       x="118"
       y="171"
       id="text93">27</text>
  </g>
  <g
     id="edge6"
     class="edge"
     style="font-size:14px;font-family:Times-Roman"
     transform="translate(2.5,2.5)">
    <title
       id="title96">s10-&gt;s20</title>
    <path
       style="fill:none;stroke:#ff0000"
       d="m 175,112 c -12,9 -27,20 -40,30"
       id="path98" />
    <polygon
       style="fill:#ff0000;stroke:#ff0000"
       points="127,148 133,139 137,145 "
       id="polygon100" />
  </g>
  <g
     id="node9"
     class="node"
     style="font-size:14px;font-family:Times-Roman"
     transform="translate(2.5,2.5)">
    <title
       id="title103">s21</title>
    <polygon
       style="fill:#fff0f0;stroke:#000000"
       points="172,184 227,184 227,148 172,148 "
       id="polygon105" />
    <text
       text-anchor="middle"
       x="187"
       y="171"
       id="text107">43</text>
    <polyline
       style="fill:none;stroke:#000000"
       points="203,184 203,148 "
       id="polyline109" />
    <text
       text-anchor="middle"
       x="215"
       y="171"
       id="text111">3</text>
  </g>
  <g
     id="edge8"
     class="edge"
     style="font-size:14px;font-family:Times-Roman"
     transform="translate(2.5,2.5)">
    <title
       id="title114">s10-&gt;s21</title>
    <path
       style="fill:none;stroke:#ff0000"
       d="m 199,112 c 0,8 0,17 0,26"
       id="path116" />
    <polygon
       style="fill:#ff0000;stroke:#ff0000"
       points="199,148 196,138 203,138 "
       id="polygon118" />
  </g>
  <g
     id="node11"
     class="node"
     style="font-size:14px;font-family:Times-Roman"
     transform="translate(2.5,2.5)">
    <title
       id="title121">s22</title>
    <polygon
       style="fill:#fff0f0;stroke:#000000"
       points="310,184 365,184 365,148 310,148 "
       id="polygon123" />
    <text
       text-anchor="middle"
       x="322"
       y="171"
       id="text125">9</text>
    <polyline
       style="fill:none;stroke:#000000"
       points="334,184 334,148 "
       id="polyline127" />
    <text
       text-anchor="middle"
       x="349"
       y="171"
       id="text129">82</text>
  </g>
  <g
     id="edge10"
     class="edge"
     style="font-size:14px;font-family:Times-Roman"
     transform="translate(2.5,2.5)">
    <title
       id="title132">s11-&gt;s22</title>
    <path
       style="fill:none;stroke:#ff0000"
       d="m 337,112 c 0,8 0,17 0,26"
       id="path134" />
    <polygon
       style="fill:#ff0000;stroke:#ff0000"
       points="337,148 334,138 341,138 "
       id="polygon136" />
  </g>
  <g
     id="node25"
     class="node"
     style="font-size:14px;font-family:Times-Roman"
     transform="translate(2.5,2.5)">
    <title
       id="title139">s23</title>
    <polygon
       style="fill:#fff0f0;stroke:#000000"
       points="418,184 472,184 472,148 418,148 "
       id="polygon141" />
    <text
       text-anchor="middle"
       x="445"
       y="171"
       id="text143">10</text>
  </g>
  <g
     id="edge24"
     class="edge"
     style="font-size:14px;font-family:Times-Roman"
     transform="translate(2.5,2.5)">
    <title
       id="title146">s11-&gt;s23</title>
    <path
       style="fill:none;stroke:#ff0000"
       d="m 364,112 c 14,9 31,20 45,30"
       id="path148" />
    <polygon
       style="fill:#ff0000;stroke:#ff0000"
       points="418,148 408,145 412,140 "
       id="polygon150" />
  </g>
  <g
     id="node13"
     class="node"
     style="font-size:14px;font-family:Times-Roman"
     transform="translate(2.5,2.5)">
    <title
       id="title153">s30</title>
    <polygon
       style="fill:#f0f0f0;stroke:#000000"
       points="4,256 58,256 58,220 4,220 "
       id="polygon155" />
    <text
       text-anchor="middle"
       x="31"
       y="243"
       id="text157">38</text>
  </g>
  <g
     id="edge12"
     class="edge"
     style="font-size:14px;font-family:Times-Roman"
     transform="translate(2.5,2.5)">
    <title
       id="title160">s20-&gt;s30</title>
    <path
       style="fill:none;stroke:#ff0000"
       d="m 85,184 c -9,9 -19,19 -29,29"
       id="path162" />
    <polygon
       style="fill:#ff0000;stroke:#ff0000"
       points="49,220 54,210 59,215 "
       id="polygon164" />
  </g>
  <g
     id="node15"
     class="node"
     style="font-size:14px;font-family:Times-Roman"
     transform="translate(2.5,2.5)">
    <title
       id="title167">s31</title>
    <polygon
       style="fill:#f0f0f0;stroke:#000000"
       points="76,256 130,256 130,220 76,220 "
       id="polygon169" />
    <text
       text-anchor="middle"
       x="103"
       y="243"
       id="text171">27</text>
  </g>
  <g
     id="edge14"
     class="edge"
     style="font-size:14px;font-family:Times-Roman"
     transform="translate(2.5,2.5)">
    <title
       id="title174">s20-&gt;s31</title>
    <path
       style="fill:none;stroke:#ff0000"
       d="m 103,184 c 0,8 0,17 0,26"
       id="path176" />
    <polygon
       style="fill:#ff0000;stroke:#ff0000"
       points="103,220 100,210 107,210 "
       id="polygon178" />
  </g>
  <g
     id="node17"
     class="node"
     style="font-size:14px;font-family:Times-Roman"
     transform="translate(2.5,2.5)">
    <title
       id="title181">s32</title>
    <polygon
       style="fill:#f0f0f0;stroke:#000000"
       points="148,256 202,256 202,220 148,220 "
       id="polygon183" />
    <text
       text-anchor="middle"
       x="175"
       y="243"
       id="text185">43</text>
  </g>
  <g
     id="edge16"
     class="edge"
     style="font-size:14px;font-family:Times-Roman"
     transform="translate(2.5,2.5)">
    <title
       id="title188">s21-&gt;s32</title>
    <path
       style="fill:none;stroke:#ff0000"
       d="m 193,184 c -3,8 -6,18 -9,26"
       id="path190" />
    <polygon
       style="fill:#ff0000;stroke:#ff0000"
       points="181,220 181,209 187,211 "
       id="polygon192" />
  </g>
  <g
     id="node19"
     class="node"
     style="font-size:14px;font-family:Times-Roman"
     transform="translate(2.5,2.5)">
    <title
       id="title195">s33</title>
    <polygon
       style="fill:#f0f0f0;stroke:#000000"
       points="220,256 274,256 274,220 220,220 "
       id="polygon197" />
    <text
       text-anchor="middle"
       x="247"
       y="243"
       id="text199">3</text>
  </g>
  <g
     id="edge18"
     class="edge"
     style="font-size:14px;font-family:Times-Roman"
     transform="translate(2.5,2.5)">
    <title
       id="title202">s21-&gt;s33</title>
    <path
       style="fill:none;stroke:#ff0000"
       d="m 211,184 c 5,8 12,18 18,28"
       id="path204" />
    <polygon
       style="fill:#ff0000;stroke:#ff0000"
       points="235,220 226,214 232,210 "
       id="polygon206" />
  </g>
  <g
     id="node21"
     class="node"
     style="font-size:14px;font-family:Times-Roman"
     transform="translate(2.5,2.5)">
    <title
       id="title209">s34</title>
    <polygon
       style="fill:#f0f0f0;stroke:#000000"
       points="292,256 346,256 346,220 292,220 "
       id="polygon211" />
    <text
       text-anchor="middle"
       x="319"
       y="243"
       id="text213">9</text>
  </g>
  <g
     id="edge20"
     class="edge"
     style="font-size:14px;font-family:Times-Roman"
     transform="translate(2.5,2.5)">
    <title
       id="title216">s22-&gt;s34</title>
    <path
       style="fill:none;stroke:#ff0000"
       d="m 332,184 c -2,8 -4,17 -6,26"
       id="path218" />
    <polygon
       style="fill:#ff0000;stroke:#ff0000"
       points="323,220 323,209 329,211 "
       id="polygon220" />
  </g>
  <g
     id="node23"
     class="node"
     style="font-size:14px;font-family:Times-Roman"
     transform="translate(2.5,2.5)">
    <title
       id="title223">s35</title>
    <polygon
       style="fill:#f0f0f0;stroke:#000000"
       points="364,256 418,256 418,220 364,220 "
       id="polygon225" />
    <text
       text-anchor="middle"
       x="391"
       y="243"
       id="text227">82</text>
  </g>
  <g
     id="edge22"
     class="edge"
     style="font-size:14px;font-family:Times-Roman"
     transform="translate(2.5,2.5)">
    <title
       id="title230">s22-&gt;s35</title>
    <path
       style="fill:none;stroke:#ff0000"
       d="m 351,184 c 6,8 14,19 21,28"
       id="path232" />
    <polygon
       style="fill:#ff0000;stroke:#ff0000"
       points="378,220 369,214 375,210 "
       id="polygon234" />
  </g>
  <g
     id="node29"
     class="node"
     style="font-size:14px;font-family:Times-Roman"
     transform="translate(2.5,2.5)">
    <title
       id="title237">s40</title>
    <polygon
       style="fill:#f0fff0;stroke:#000000"
       points="72,328 134,328 134,292 72,292 "
       id="polygon239" />
    <text
       text-anchor="middle"
       x="87"
       y="315"
       id="text241">27</text>
    <polyline
       style="fill:none;stroke:#000000"
       points="103,328 103,292 "
       id="polyline243" />
    <text
       text-anchor="middle"
       x="118"
       y="315"
       id="text245">38</text>
  </g>
  <g
     id="edge28"
     class="edge"
     style="font-size:14px;font-family:Times-Roman"
     transform="translate(2.5,2.5)">
    <title
       id="title248">s30-&gt;s40</title>
    <path
       style="fill:none;stroke:#008000"
       d="m 49,256 c 9,9 19,19 29,29"
       id="path250" />
    <polygon
       style="fill:#008000;stroke:#008000"
       points="85,292 75,287 80,282 "
       id="polygon252" />
  </g>
  <g
     id="edge30"
     class="edge"
     style="font-size:14px;font-family:Times-Roman"
     transform="translate(2.5,2.5)">
    <title
       id="title255">s31-&gt;s40</title>
    <path
       style="fill:none;stroke:#008000"
       d="m 103,256 c 0,8 0,17 0,26"
       id="path257" />
    <polygon
       style="fill:#008000;stroke:#008000"
       points="103,292 100,282 107,282 "
       id="polygon259" />
  </g>
  <g
     id="node32"
     class="node"
     style="font-size:14px;font-family:Times-Roman"
     transform="translate(2.5,2.5)">
    <title
       id="title262">s41</title>
    <polygon
       style="fill:#f0fff0;stroke:#000000"
       points="172,328 227,328 227,292 172,292 "
       id="polygon264" />
    <text
       text-anchor="middle"
       x="184"
       y="315"
       id="text266">3</text>
    <polyline
       style="fill:none;stroke:#000000"
       points="196,328 196,292 "
       id="polyline268" />
    <text
       text-anchor="middle"
       x="211"
       y="315"
       id="text270">43</text>
  </g>
  <g
     id="edge32"
     class="edge"
     style="font-size:14px;font-family:Times-Roman"
     transform="translate(2.5,2.5)">
    <title
       id="title273">s32-&gt;s41</title>
    <path
       style="fill:none;stroke:#008000"
       d="m 181,256 c 3,8 6,18 9,26"
       id="path275" />
    <polygon
       style="fill:#008000;stroke:#008000"
       points="193,292 187,283 193,281 "
       id="polygon277" />
  </g>
  <g
     id="edge34"
     class="edge"
     style="font-size:14px;font-family:Times-Roman"
     transform="translate(2.5,2.5)">
    <title
       id="title280">s33-&gt;s41</title>
    <path
       style="fill:none;stroke:#008000"
       d="m 235,256 c -5,8 -12,18 -18,28"
       id="path282" />
    <polygon
       style="fill:#008000;stroke:#008000"
       points="211,292 214,282 220,286 "
       id="polygon284" />
  </g>
  <g
     id="node35"
     class="node"
     style="font-size:14px;font-family:Times-Roman"
     transform="translate(2.5,2.5)">
    <title
       id="title287">s42</title>
    <polygon
       style="fill:#f0fff0;stroke:#000000"
       points="310,328 365,328 365,292 310,292 "
       id="polygon289" />
    <text
       text-anchor="middle"
       x="322"
       y="315"
       id="text291">9</text>
    <polyline
       style="fill:none;stroke:#000000"
       points="334,328 334,292 "
       id="polyline293" />
    <text
       text-anchor="middle"
       x="349"
       y="315"
       id="text295">82</text>
  </g>
  <g
     id="edge36"
     class="edge"
     style="font-size:14px;font-family:Times-Roman"
     transform="translate(2.5,2.5)">
    <title
       id="title298">s34-&gt;s42</title>
    <path
       style="fill:none;stroke:#008000"
       d="m 324,256 c 2,8 4,17 6,26"
       id="path300" />
    <polygon
       style="fill:#008000;stroke:#008000"
       points="333,292 327,283 333,281 "
       id="polygon302" />
  </g>
  <g
     id="edge38"
     class="edge"
     style="font-size:14px;font-family:Times-Roman"
     transform="translate(2.5,2.5)">
    <title
       id="title305">s35-&gt;s42</title>
    <path
       style="fill:none;stroke:#008000"
       d="m 377,256 c -6,8 -14,19 -21,28"
       id="path307" />
    <polygon
       style="fill:#008000;stroke:#008000"
       points="350,292 353,282 359,286 "
       id="polygon309" />
  </g>
  <g
     id="node27"
     class="node"
     style="font-size:14px;font-family:Times-Roman"
     transform="translate(2.5,2.5)">
    <title
       id="title312">s36</title>
    <polygon
       style="fill:#f0f0f0;stroke:#000000"
       points="436,256 490,256 490,220 436,220 "
       id="polygon314" />
    <text
       text-anchor="middle"
       x="463"
       y="243"
       id="text316">10</text>
  </g>
  <g
     id="edge26"
     class="edge"
     style="font-size:14px;font-family:Times-Roman"
     transform="translate(2.5,2.5)">
    <title
       id="title319">s23-&gt;s36</title>
    <path
       style="fill:none;stroke:#ff0000"
       d="m 450,184 c 2,8 4,17 6,26"
       id="path321" />
    <polygon
       style="fill:#ff0000;stroke:#ff0000"
       points="459,220 453,211 459,209 "
       id="polygon323" />
  </g>
  <g
     id="node38"
     class="node"
     style="font-size:14px;font-family:Times-Roman"
     transform="translate(2.5,2.5)">
    <title
       id="title326">s43</title>
    <polygon
       style="fill:#f0fff0;stroke:#000000"
       points="418,328 472,328 472,292 418,292 "
       id="polygon328" />
    <text
       text-anchor="middle"
       x="445"
       y="315"
       id="text330">10</text>
  </g>
  <g
     id="edge40"
     class="edge"
     style="font-size:14px;font-family:Times-Roman"
     transform="translate(2.5,2.5)">
    <title
       id="title333">s36-&gt;s43</title>
    <path
       style="fill:none;stroke:#008000"
       d="m 458,256 c -2,8 -4,17 -6,26"
       id="path335" />
    <polygon
       style="fill:#008000;stroke:#008000"
       points="449,292 449,281 455,283 "
       id="polygon337" />
  </g>
  <g
     id="node40"
     class="node"
     style="font-size:14px;font-family:Times-Roman"
     transform="translate(2.5,2.5)">
    <title
       id="title340">s50</title>
    <polygon
       style="fill:#f0fff0;stroke:#000000"
       points="141,400 258,400 258,364 141,364 "
       id="polygon342" />
    <text
       text-anchor="middle"
       x="153"
       y="387"
       id="text344">3</text>
    <polyline
       style="fill:none;stroke:#000000"
       points="165,400 165,364 "
       id="polyline346" />
    <text
       text-anchor="middle"
       x="180"
       y="387"
       id="text348">27</text>
    <polyline
       style="fill:none;stroke:#000000"
       points="196,400 196,364 "
       id="polyline350" />
    <text
       text-anchor="middle"
       x="211"
       y="387"
       id="text352">38</text>
    <polyline
       style="fill:none;stroke:#000000"
       points="227,400 227,364 "
       id="polyline354" />
    <text
       text-anchor="middle"
       x="242"
       y="387"
       id="text356">43</text>
  </g>
  <g
     id="edge42"
     class="edge"
     style="font-size:14px;font-family:Times-Roman"
     transform="translate(2.5,2.5)">
    <title
       id="title359">s40-&gt;s50</title>
    <path
       style="fill:none;stroke:#008000"
       d="m 127,328 c 12,9 27,20 40,30"
       id="path361" />
    <polygon
       style="fill:#008000;stroke:#008000"
       points="175,364 165,361 169,355 "
       id="polygon363" />
  </g>
  <g
     id="edge44"
     class="edge"
     style="font-size:14px;font-family:Times-Roman"
     transform="translate(2.5,2.5)">
    <title
       id="title366">s41-&gt;s50</title>
    <path
       style="fill:none;stroke:#008000"
       d="m 199,328 c 0,8 0,17 0,26"
       id="path368" />
    <polygon
       style="fill:#008000;stroke:#008000"
       points="199,364 196,354 203,354 "
       id="polygon370" />
  </g>
  <g
     id="node43"
     class="node"
     style="font-size:14px;font-family:Times-Roman"
     transform="translate(2.5,2.5)">
    <title
       id="title373">s51</title>
    <polygon
       style="fill:#f0fff0;stroke:#000000"
       points="294,400 380,400 380,364 294,364 "
       id="polygon375" />
    <text
       text-anchor="middle"
       x="306"
       y="387"
       id="text377">9</text>
    <polyline
       style="fill:none;stroke:#000000"
       points="318,400 318,364 "
       id="polyline379" />
    <text
       text-anchor="middle"
       x="333"
       y="387"
       id="text381">10</text>
    <polyline
       style="fill:none;stroke:#000000"
       points="349,400 349,364 "
       id="polyline383" />
    <text
       text-anchor="middle"
       x="364"
       y="387"
       id="text385">82</text>
  </g>
  <g
     id="edge46"
     class="edge"
     style="font-size:14px;font-family:Times-Roman"
     transform="translate(2.5,2.5)">
    <title
       id="title388">s42-&gt;s51</title>
    <path
       style="fill:none;stroke:#008000"
       d="m 337,328 c 0,8 0,17 0,26"
       id="path390" />
    <polygon
       style="fill:#008000;stroke:#008000"
       points="337,364 334,354 341,354 "
       id="polygon392" />
  </g>
  <g
     id="edge48"
     class="edge"
     style="font-size:14px;font-family:Times-Roman"
     transform="translate(2.5,2.5)">
    <title
       id="title395">s43-&gt;s51</title>
    <path
       style="fill:none;stroke:#008000"
       d="m 418,328 c -13,9 -31,20 -46,30"
       id="path397" />
    <polygon
       style="fill:#008000;stroke:#008000"
       points="364,364 370,355 374,361 "
       id="polygon399" />
  </g>
  <g
     id="node46"
     class="node"
     style="font-size:14px;font-family:Times-Roman"
     transform="translate(2.5,2.5)">
    <title
       id="title402">s60</title>
    <polygon
       style="fill:#f0fff0;stroke:#000000"
       points="167,472 370,472 370,436 167,436 "
       id="polygon404" />
    <text
       text-anchor="middle"
       x="179"
       y="459"
       id="text406">3</text>
    <polyline
       style="fill:none;stroke:#000000"
       points="191,472 191,436 "
       id="polyline408" />
    <text
       text-anchor="middle"
       x="203"
       y="459"
       id="text410">9</text>
    <polyline
       style="fill:none;stroke:#000000"
       points="215,472 215,436 "
       id="polyline412" />
    <text
       text-anchor="middle"
       x="230"
       y="459"
       id="text414">10</text>
    <polyline
       style="fill:none;stroke:#000000"
       points="246,472 246,436 "
       id="polyline416" />
    <text
       text-anchor="middle"
       x="261"
       y="459"
       id="text418">27</text>
    <polyline
       style="fill:none;stroke:#000000"
       points="277,472 277,436 "
       id="polyline420" />
    <text
       text-anchor="middle"
       x="292"
       y="459"
       id="text422">38</text>
    <polyline
       style="fill:none;stroke:#000000"
       points="308,472 308,436 "
       id="polyline424" />
    <text
       text-anchor="middle"
       x="323"
       y="459"
       id="text426">43</text>
    <polyline
       style="fill:none;stroke:#000000"
       points="339,472 339,436 "
       id="polyline428" />
    <text
       text-anchor="middle"
       x="354"
       y="459"
       id="text430">82</text>
  </g>
  <g
     id="edge50"
     class="edge"
     style="font-size:14px;font-family:Times-Roman"
     transform="translate(2.5,2.5)">
    <title
       id="title433">s50-&gt;s60</title>
    <path
       style="fill:none;stroke:#008000"
       d="m 216,400 c 9,9 19,19 28,29"
       id="path435" />
    <polygon
       style="fill:#008000;stroke:#008000"
       points="251,436 241,431 246,426 "
       id="polygon437" />
  </g>
  <g
     id="edge52"
     class="edge"
     style="font-size:14px;font-family:Times-Roman"
     transform="translate(2.5,2.5)">
    <title
       id="title440">s51-&gt;s60</title>
    <path
       style="fill:none;stroke:#008000"
       d="m 320,400 c -9,9 -19,19 -28,29"
       id="path442" />
    <polygon
       style="fill:#008000;stroke:#008000"
       points="285,436 290,426 295,431 "
       id="polygon444" />
  </g>
  <text
     xml:space="preserve"
     style="font-style:normal;font-weight:normal;font-size:16px;line-height:1.25;font-family:sans-serif;letter-spacing:0px;word-spacing:0px;fill:#000000;fill-opacity:1;stroke:#ffffff;stroke-width:0.75;stroke-opacity:0"
     x="16.854702"
     y="327.93033"
     id="text458"><tspan
       sodipodi:role="line"
       id="tspan456"
       x="16.854702"
       y="327.93033"
       style="font-size:16px;stroke:#ffffff;stroke-width:0.75;stroke-opacity:0">4·n/4</tspan></text>
  <text
     xml:space="preserve"
     style="font-style:normal;font-weight:normal;font-size:16px;line-height:1.25;font-family:sans-serif;letter-spacing:0px;word-spacing:0px;fill:#000000;fill-opacity:1;stroke:#ffffff;stroke-width:0.75;stroke-opacity:0;"
     x="15.320484"
     y="399.23547"
     id="text458-3"><tspan
       sodipodi:role="line"
       id="tspan456-6"
       x="15.320484"
       y="399.23547"
       style="font-size:16px;stroke-width:0.75;stroke:#ffffff;stroke-opacity:0;">2·n/2<tspan
   style="font-size:16px;baseline-shift:super;stroke-width:0.75;stroke:#ffffff;stroke-opacity:0;"
   id="tspan460-5" /></tspan></text>
  <text
     xml:space="preserve"
     style="font-style:normal;font-weight:normal;font-size:30px;line-height:1.25;font-family:sans-serif;letter-spacing:0px;word-spacing:0px;fill:#000000;fill-opacity:1;stroke:none;stroke-width:0.75"
     x="21.596441"
     y="464.24542"
     id="text490"><tspan
       sodipodi:role="line"
       id="tspan488"
       x="21.596441"
       y="464.24542"
       style="stroke-width:0.75" /></text>
  <text
     xml:space="preserve"
     style="font-style:normal;font-weight:normal;font-size:16px;line-height:1.25;font-family:sans-serif;letter-spacing:0px;word-spacing:0px;fill:#000000;fill-opacity:1;stroke:#ffffff;stroke-width:0.75;stroke-opacity:0;"
     x="30.520082"
     y="471.33188"
     id="text458-3-3"><tspan
       sodipodi:role="line"
       id="tspan456-6-5"
       x="30.520082"
       y="471.33188"
       style="font-size:16px;stroke-width:0.75;stroke:#ffffff;stroke-opacity:0;">n</tspan></text>
  <text
     xml:space="preserve"
     style="font-style:normal;font-weight:normal;font-size:79.4023px;line-height:1.25;font-family:sans-serif;letter-spacing:0px;word-spacing:0px;fill:#666666;fill-opacity:1;stroke:none;stroke-width:1.98507"
     x="1270.7983"
     y="166.88638"
     id="text515"
     transform="scale(0.37782267,2.6467443)"><tspan
       sodipodi:role="line"
       id="tspan513"
       x="1270.7983"
       y="166.88638"
       style="fill:#666666;stroke-width:1.98507">}</tspan></text>
  <text
     xml:space="preserve"
     style="font-style:normal;font-weight:normal;font-size:16px;line-height:1.25;font-family:sans-serif;letter-spacing:0px;word-spacing:0px;fill:#000000;fill-opacity:1;stroke:#ffffff;stroke-width:0.75;stroke-opacity:0;"
     x="501.81537"
     y="383.57571"
     id="text458-3-2"><tspan
       sodipodi:role="line"
       id="tspan456-6-9"
       x="501.81537"
       y="383.57571"
       style="font-size:16px;stroke-width:0.75;stroke:#ffffff;stroke-opacity:0;">log₂n</tspan></text>
</svg>
