<?xml version="1.0" encoding="UTF-8" standalone="no"?>
<!DOCTYPE svg PUBLIC "-//W3C//DTD SVG 1.0//EN" "http://www.w3.org/TR/2001/PR-SVG-20010719/DTD/svg10.dtd">
<svg width="32cm" height="35cm" viewBox="-171 60 636 685" xmlns="http://www.w3.org/2000/svg" xmlns:xlink="http://www.w3.org/1999/xlink">
  <defs/>
  <g id="Background">
    <ellipse style="fill: #ffffff; fill-opacity: 1; stroke-opacity: 1; stroke-width: 2; stroke: #000000" cx="330" cy="110" rx="30" ry="30"/>
    <text font-size="33.8667" style="fill: #000000; fill-opacity: 1; stroke: none;text-anchor:middle;font-family:sans-serif;font-style:normal;font-weight:normal" x="330" y="121.724">
      <tspan x="330" y="121.724">q₁</tspan>
    </text>
    <text font-size="33.8667" style="fill: #000000; fill-opacity: 1; stroke: none;text-anchor:middle;font-family:sans-serif;font-style:normal;font-weight:normal" x="-160" y="171.724">
      <tspan x="-160" y="171.724">0</tspan>
    </text>
    <text font-size="33.8667" style="fill: #000000; fill-opacity: 1; stroke: none;text-anchor:middle;font-family:sans-serif;font-style:normal;font-weight:normal" x="-160" y="271.724">
      <tspan x="-160" y="271.724">1</tspan>
    </text>
    <ellipse style="fill: #ffffff; fill-opacity: 1; stroke-opacity: 1; stroke-width: 2; stroke: #000000" cx="330" cy="210" rx="30" ry="30"/>
    <text font-size="33.8667" style="fill: #000000; fill-opacity: 1; stroke: none;text-anchor:middle;font-family:sans-serif;font-style:normal;font-weight:normal" x="330" y="221.724">
      <tspan x="330" y="221.724">q₁</tspan>
    </text>
    <ellipse style="fill: #ffffff; fill-opacity: 1; stroke-opacity: 1; stroke-width: 2; stroke: #000000" cx="230" cy="310" rx="30" ry="30"/>
    <text font-size="33.8667" style="fill: #000000; fill-opacity: 1; stroke: none;text-anchor:middle;font-family:sans-serif;font-style:normal;font-weight:normal" x="230" y="321.724">
      <tspan x="230" y="321.724">q₁</tspan>
    </text>
    <ellipse style="fill: #ffffff; fill-opacity: 1; stroke-opacity: 1; stroke-width: 2; stroke: #000000" cx="330" cy="310" rx="30" ry="30"/>
    <text font-size="33.8667" style="fill: #000000; fill-opacity: 1; stroke: none;text-anchor:middle;font-family:sans-serif;font-style:normal;font-weight:normal" x="330" y="321.724">
      <tspan x="330" y="321.724">q₂</tspan>
    </text>
    <ellipse style="fill: #ffffff; fill-opacity: 1; stroke-opacity: 1; stroke-width: 2; stroke: #000000" cx="430" cy="310" rx="30" ry="30"/>
    <text font-size="33.8667" style="fill: #000000; fill-opacity: 1; stroke: none;text-anchor:middle;font-family:sans-serif;font-style:normal;font-weight:normal" x="430" y="321.724">
      <tspan x="430" y="321.724">q₃</tspan>
    </text>
    <ellipse style="fill: #ffffff; fill-opacity: 1; stroke-opacity: 1; stroke-width: 2; stroke: #000000" cx="230" cy="410" rx="30" ry="30"/>
    <text font-size="33.8667" style="fill: #000000; fill-opacity: 1; stroke: none;text-anchor:middle;font-family:sans-serif;font-style:normal;font-weight:normal" x="230" y="421.724">
      <tspan x="230" y="421.724">q₁</tspan>
    </text>
    <ellipse style="fill: #ffffff; fill-opacity: 1; stroke-opacity: 1; stroke-width: 2; stroke: #000000" cx="430" cy="510" rx="30" ry="30"/>
    <text font-size="33.8667" style="fill: #000000; fill-opacity: 1; stroke: none;text-anchor:middle;font-family:sans-serif;font-style:normal;font-weight:normal" x="430" y="521.724">
      <tspan x="430" y="521.724">q₄</tspan>
    </text>
    <ellipse style="fill: #ffffff; fill-opacity: 1; stroke-opacity: 1; stroke-width: 2; stroke: #000000" cx="330" cy="410" rx="30" ry="30"/>
    <text font-size="33.8667" style="fill: #000000; fill-opacity: 1; stroke: none;text-anchor:middle;font-family:sans-serif;font-style:normal;font-weight:normal" x="330" y="421.724">
      <tspan x="330" y="421.724">q₃</tspan>
    </text>
    <ellipse style="fill: #ffffff; fill-opacity: 1; stroke-opacity: 1; stroke-width: 2; stroke: #000000" cx="130" cy="510" rx="30" ry="30"/>
    <text font-size="33.8667" style="fill: #000000; fill-opacity: 1; stroke: none;text-anchor:middle;font-family:sans-serif;font-style:normal;font-weight:normal" x="130" y="521.724">
      <tspan x="130" y="521.724">q₁</tspan>
    </text>
    <ellipse style="fill: #ffffff; fill-opacity: 1; stroke-opacity: 1; stroke-width: 2; stroke: #000000" cx="230" cy="510" rx="30" ry="30"/>
    <text font-size="33.8667" style="fill: #000000; fill-opacity: 1; stroke: none;text-anchor:middle;font-family:sans-serif;font-style:normal;font-weight:normal" x="230" y="521.724">
      <tspan x="230" y="521.724">q₂</tspan>
    </text>
    <ellipse style="fill: #ffffff; fill-opacity: 1; stroke-opacity: 1; stroke-width: 2; stroke: #000000" cx="330" cy="510" rx="30" ry="30"/>
    <text font-size="33.8667" style="fill: #000000; fill-opacity: 1; stroke: none;text-anchor:middle;font-family:sans-serif;font-style:normal;font-weight:normal" x="330" y="521.724">
      <tspan x="330" y="521.724">q₃</tspan>
    </text>
    <ellipse style="fill: #ffffff; fill-opacity: 1; stroke-opacity: 1; stroke-width: 2; stroke: #000000" cx="330" cy="610" rx="30" ry="30"/>
    <text font-size="33.8667" style="fill: #000000; fill-opacity: 1; stroke: none;text-anchor:middle;font-family:sans-serif;font-style:normal;font-weight:normal" x="330" y="621.724">
      <tspan x="330" y="621.724">q₄</tspan>
    </text>
    <ellipse style="fill: #ffffff; fill-opacity: 1; stroke-opacity: 1; stroke-width: 2; stroke: #000000" cx="30" cy="610" rx="30" ry="30"/>
    <text font-size="33.8667" style="fill: #000000; fill-opacity: 1; stroke: none;text-anchor:middle;font-family:sans-serif;font-style:normal;font-weight:normal" x="30" y="621.724">
      <tspan x="30" y="621.724">q₁</tspan>
    </text>
    <ellipse style="fill: #ffffff; fill-opacity: 1; stroke-opacity: 1; stroke-width: 2; stroke: #000000" cx="130" cy="610" rx="30" ry="30"/>
    <text font-size="33.8667" style="fill: #000000; fill-opacity: 1; stroke: none;text-anchor:middle;font-family:sans-serif;font-style:normal;font-weight:normal" x="130" y="621.724">
      <tspan x="130" y="621.724">q₂</tspan>
    </text>
    <ellipse style="fill: #ffffff; fill-opacity: 1; stroke-opacity: 1; stroke-width: 2; stroke: #000000" cx="230" cy="610" rx="30" ry="30"/>
    <text font-size="33.8667" style="fill: #000000; fill-opacity: 1; stroke: none;text-anchor:middle;font-family:sans-serif;font-style:normal;font-weight:normal" x="230" y="621.724">
      <tspan x="230" y="621.724">q₃</tspan>
    </text>
    <ellipse style="fill: #ffffff; fill-opacity: 1; stroke-opacity: 1; stroke-width: 2; stroke: #000000" cx="430" cy="610" rx="30" ry="30"/>
    <text font-size="33.8667" style="fill: #000000; fill-opacity: 1; stroke: none;text-anchor:middle;font-family:sans-serif;font-style:normal;font-weight:normal" x="430" y="621.724">
      <tspan x="430" y="621.724">q₄</tspan>
    </text>
    <ellipse style="fill: #ffffff; fill-opacity: 1; stroke-opacity: 1; stroke-width: 10; stroke: #000000" cx="330" cy="710" rx="30" ry="30"/>
    <text font-size="33.8667" style="fill: #000000; fill-opacity: 1; stroke: none;text-anchor:middle;font-family:sans-serif;font-style:normal;font-weight:normal" x="330" y="721.724">
      <tspan x="330" y="721.724">q₄</tspan>
    </text>
    <ellipse style="fill: #ffffff; fill-opacity: 1; stroke-opacity: 1; stroke-width: 2; stroke: #000000" cx="30" cy="710" rx="30" ry="30"/>
    <text font-size="33.8667" style="fill: #000000; fill-opacity: 1; stroke: none;text-anchor:middle;font-family:sans-serif;font-style:normal;font-weight:normal" x="30" y="721.724">
      <tspan x="30" y="721.724">q₁</tspan>
    </text>
    <ellipse style="fill: #ffffff; fill-opacity: 1; stroke-opacity: 1; stroke-width: 2; stroke: #000000" cx="130" cy="710" rx="30" ry="30"/>
    <text font-size="33.8667" style="fill: #000000; fill-opacity: 1; stroke: none;text-anchor:middle;font-family:sans-serif;font-style:normal;font-weight:normal" x="130" y="721.724">
      <tspan x="130" y="721.724">q₃</tspan>
    </text>
    <ellipse style="fill: #ffffff; fill-opacity: 1; stroke-opacity: 1; stroke-width: 10; stroke: #000000" cx="430" cy="710" rx="30" ry="30"/>
    <text font-size="33.8667" style="fill: #000000; fill-opacity: 1; stroke: none;text-anchor:middle;font-family:sans-serif;font-style:normal;font-weight:normal" x="430" y="721.724">
      <tspan x="430" y="721.724">q₄</tspan>
    </text>
    <g>
      <line style="fill: none; stroke-opacity: 1; stroke-width: 2; stroke: #000000" x1="330" y1="140.981" x2="330" y2="169.282"/>
      <polygon style="fill: #000000; fill-opacity: 1; stroke-opacity: 1; stroke-width: 2; stroke: #000000" fill-rule="evenodd" points="330,176.782 325,166.782 330,169.282 335,166.782 "/>
    </g>
    <g>
      <line style="fill: none; stroke-opacity: 1; stroke-width: 2; stroke: #000000" x1="308.101" y1="231.899" x2="258.784" y2="281.216"/>
      <polygon style="fill: #000000; fill-opacity: 1; stroke-opacity: 1; stroke-width: 2; stroke: #000000" fill-rule="evenodd" points="253.481,286.519 257.016,275.913 258.784,281.216 264.087,282.984 "/>
    </g>
    <g>
      <line style="fill: none; stroke-opacity: 1; stroke-width: 2; stroke: #000000" x1="330" y1="240.981" x2="330" y2="269.282"/>
      <polygon style="fill: #000000; fill-opacity: 1; stroke-opacity: 1; stroke-width: 2; stroke: #000000" fill-rule="evenodd" points="330,276.782 325,266.782 330,269.282 335,266.782 "/>
    </g>
    <g>
      <line style="fill: none; stroke-opacity: 1; stroke-width: 2; stroke: #000000" x1="351.899" y1="231.899" x2="401.216" y2="281.216"/>
      <polygon style="fill: #000000; fill-opacity: 1; stroke-opacity: 1; stroke-width: 2; stroke: #000000" fill-rule="evenodd" points="406.519,286.519 395.913,282.984 401.216,281.216 402.984,275.913 "/>
    </g>
    <g>
      <line style="fill: none; stroke-opacity: 1; stroke-width: 2; stroke: #000000" x1="230" y1="340.981" x2="230" y2="369.282"/>
      <polygon style="fill: #000000; fill-opacity: 1; stroke-opacity: 1; stroke-width: 2; stroke: #000000" fill-rule="evenodd" points="230,376.782 225,366.782 230,369.282 235,366.782 "/>
    </g>
    <g>
      <line style="fill: none; stroke-opacity: 1; stroke-width: 2; stroke: #000000" x1="330" y1="340.981" x2="330" y2="369.282"/>
      <polygon style="fill: #000000; fill-opacity: 1; stroke-opacity: 1; stroke-width: 2; stroke: #000000" fill-rule="evenodd" points="330,376.782 325,366.782 330,369.282 335,366.782 "/>
    </g>
    <g>
      <line style="fill: none; stroke-opacity: 1; stroke-width: 2; stroke: #000000" x1="208.101" y1="431.899" x2="158.784" y2="481.216"/>
      <polygon style="fill: #000000; fill-opacity: 1; stroke-opacity: 1; stroke-width: 2; stroke: #000000" fill-rule="evenodd" points="153.481,486.519 157.016,475.913 158.784,481.216 164.087,482.984 "/>
    </g>
    <g>
      <line style="fill: none; stroke-opacity: 1; stroke-width: 2; stroke: #000000" x1="230" y1="440.981" x2="230" y2="469.282"/>
      <polygon style="fill: #000000; fill-opacity: 1; stroke-opacity: 1; stroke-width: 2; stroke: #000000" fill-rule="evenodd" points="230,476.782 225,466.782 230,469.282 235,466.782 "/>
    </g>
    <g>
      <line style="fill: none; stroke-opacity: 1; stroke-width: 2; stroke: #000000" x1="251.899" y1="431.899" x2="301.216" y2="481.216"/>
      <polygon style="fill: #000000; fill-opacity: 1; stroke-opacity: 1; stroke-width: 2; stroke: #000000" fill-rule="evenodd" points="306.519,486.519 295.913,482.984 301.216,481.216 302.984,475.913 "/>
    </g>
    <g>
      <line style="fill: none; stroke-opacity: 1; stroke-width: 2; stroke: #000000" x1="351.899" y1="431.899" x2="401.216" y2="481.216"/>
      <polygon style="fill: #000000; fill-opacity: 1; stroke-opacity: 1; stroke-width: 2; stroke: #000000" fill-rule="evenodd" points="406.519,486.519 395.913,482.984 401.216,481.216 402.984,475.913 "/>
    </g>
    <g>
      <line style="fill: none; stroke-opacity: 1; stroke-width: 2; stroke: #000000" x1="430" y1="540.981" x2="430" y2="569.282"/>
      <polygon style="fill: #000000; fill-opacity: 1; stroke-opacity: 1; stroke-width: 2; stroke: #000000" fill-rule="evenodd" points="430,576.782 425,566.782 430,569.282 435,566.782 "/>
    </g>
    <g>
      <line style="fill: none; stroke-opacity: 1; stroke-width: 2; stroke: #000000" x1="430" y1="640.981" x2="430" y2="665.279"/>
      <polygon style="fill: #000000; fill-opacity: 1; stroke-opacity: 1; stroke-width: 2; stroke: #000000" fill-rule="evenodd" points="430,672.779 425,662.779 430,665.279 435,662.779 "/>
    </g>
    <g>
      <line style="fill: none; stroke-opacity: 1; stroke-width: 2; stroke: #000000" x1="330" y1="640.981" x2="330" y2="665.279"/>
      <polygon style="fill: #000000; fill-opacity: 1; stroke-opacity: 1; stroke-width: 2; stroke: #000000" fill-rule="evenodd" points="330,672.779 325,662.779 330,665.279 335,662.779 "/>
    </g>
    <g>
      <line style="fill: none; stroke-opacity: 1; stroke-width: 2; stroke: #000000" x1="130" y1="640.981" x2="130" y2="669.282"/>
      <polygon style="fill: #000000; fill-opacity: 1; stroke-opacity: 1; stroke-width: 2; stroke: #000000" fill-rule="evenodd" points="130,676.782 125,666.782 130,669.282 135,666.782 "/>
    </g>
    <g>
      <line style="fill: none; stroke-opacity: 1; stroke-width: 2; stroke: #000000" x1="30" y1="640.981" x2="30" y2="669.282"/>
      <polygon style="fill: #000000; fill-opacity: 1; stroke-opacity: 1; stroke-width: 2; stroke: #000000" fill-rule="evenodd" points="30,676.782 25,666.782 30,669.282 35,666.782 "/>
    </g>
    <g>
      <line style="fill: none; stroke-opacity: 1; stroke-width: 2; stroke: #000000" x1="108.101" y1="531.899" x2="58.7839" y2="581.216"/>
      <polygon style="fill: #000000; fill-opacity: 1; stroke-opacity: 1; stroke-width: 2; stroke: #000000" fill-rule="evenodd" points="53.4806,586.519 57.0161,575.913 58.7839,581.216 64.0872,582.984 "/>
    </g>
    <g>
      <line style="fill: none; stroke-opacity: 1; stroke-width: 2; stroke: #000000" x1="130" y1="540.981" x2="130" y2="569.282"/>
      <polygon style="fill: #000000; fill-opacity: 1; stroke-opacity: 1; stroke-width: 2; stroke: #000000" fill-rule="evenodd" points="130,576.782 125,566.782 130,569.282 135,566.782 "/>
    </g>
    <g>
      <line style="fill: none; stroke-opacity: 1; stroke-width: 2; stroke: #000000" x1="151.899" y1="531.899" x2="201.216" y2="581.216"/>
      <polygon style="fill: #000000; fill-opacity: 1; stroke-opacity: 1; stroke-width: 2; stroke: #000000" fill-rule="evenodd" points="206.519,586.519 195.913,582.984 201.216,581.216 202.984,575.913 "/>
    </g>
    <g>
      <line style="fill: none; stroke-opacity: 1; stroke-width: 2; stroke: #000000" x1="330" y1="540.981" x2="330" y2="569.282"/>
      <polygon style="fill: #000000; fill-opacity: 1; stroke-opacity: 1; stroke-width: 2; stroke: #000000" fill-rule="evenodd" points="330,576.782 325,566.782 330,569.282 335,566.782 "/>
    </g>
    <text font-size="33.8667" style="fill: #000000; fill-opacity: 1; stroke: none;text-anchor:middle;font-family:sans-serif;font-style:normal;font-weight:normal" x="-160" y="371.724">
      <tspan x="-160" y="371.724">0</tspan>
    </text>
    <text font-size="33.8667" style="fill: #000000; fill-opacity: 1; stroke: none;text-anchor:middle;font-family:sans-serif;font-style:normal;font-weight:normal" x="-160" y="471.724">
      <tspan x="-160" y="471.724">1</tspan>
    </text>
    <text font-size="33.8667" style="fill: #000000; fill-opacity: 1; stroke: none;text-anchor:middle;font-family:sans-serif;font-style:normal;font-weight:normal" x="-160" y="571.724">
      <tspan x="-160" y="571.724">1</tspan>
    </text>
    <text font-size="33.8667" style="fill: #000000; fill-opacity: 1; stroke: none;text-anchor:middle;font-family:sans-serif;font-style:normal;font-weight:normal" x="-160" y="671.724">
      <tspan x="-160" y="671.724">0</tspan>
    </text>
    <line style="fill: none; stroke-opacity: 1; stroke-width: 2; stroke-dasharray: 6; stroke: #006600" x1="-140" y1="160" x2="280" y2="160"/>
    <line style="fill: none; stroke-opacity: 1; stroke-width: 2; stroke-dasharray: 6; stroke: #006600" x1="-140" y1="260" x2="220" y2="260"/>
    <line style="fill: none; stroke-opacity: 1; stroke-width: 2; stroke-dasharray: 6; stroke: #006600" x1="-140" y1="360" x2="140" y2="360"/>
    <line style="fill: none; stroke-opacity: 1; stroke-width: 2; stroke-dasharray: 6; stroke: #006600" x1="-140" y1="460" x2="120" y2="460"/>
    <line style="fill: none; stroke-opacity: 1; stroke-width: 2; stroke-dasharray: 6; stroke: #006600" x1="-140" y1="560" x2="-20" y2="560"/>
    <line style="fill: none; stroke-opacity: 1; stroke-width: 2; stroke-dasharray: 6; stroke: #006600" x1="-140" y1="660" x2="-20" y2="660"/>
    <text font-size="33.8667" style="fill: #0000ff; fill-opacity: 1; stroke: none;text-anchor:middle;font-family:sans-serif;font-style:normal;font-weight:normal" x="-60" y="91.7243">
      <tspan x="-60" y="91.7243">Symbol read</tspan>
    </text>
    <text font-size="33.8667" style="fill: #0000ff; fill-opacity: 1; stroke: none;text-anchor:middle;font-family:sans-serif;font-style:normal;font-weight:normal" x="420" y="91.7243">
      <tspan x="420" y="91.7243">Start</tspan>
    </text>
  </g>
</svg>
