<?xml version="1.0" encoding="UTF-8"?>
<svg width="648" height="663" version="1.0" xmlns="http://www.w3.org/2000/svg" xmlns:xlink="http://www.w3.org/1999/xlink">
 <defs>
  <linearGradient id="linearGradient4207">
   <stop stop-color="#ece63c" offset="0"/>
   <stop stop-color="#f5d518" stop-opacity=".973" offset="1"/>
  </linearGradient>
  <radialGradient id="radialGradient3978" cx="421" cy="631" r="274" gradientTransform="matrix(.87 -.761 .838 .957 -467 348)" gradientUnits="userSpaceOnUse">
   <stop stop-color="#ebdd46" offset="0"/>
   <stop stop-color="#f5ed9e" offset=".343"/>
   <stop stop-color="#edda37" offset=".623"/>
   <stop stop-color="#fffef7" offset=".686"/>
   <stop stop-color="#f1d945" offset=".857"/>
   <stop stop-color="#eccc09" offset="1"/>
  </radialGradient>
  <filter id="filter4002" x="-.006" y="-.006" width="1.01" height="1.01">
   <feGaussianBlur stdDeviation="1.3686751"/>
  </filter>
  <radialGradient id="radialGradient4012" cx="373" cy="595" r="274" gradientTransform="matrix(1.61 8.23e-8 -8.37e-8 1.63 -226 -378)" gradientUnits="userSpaceOnUse">
   <stop stop-color="#fff" offset="0"/>
   <stop stop-color="#f3f1c3" offset="1"/>
  </radialGradient>
  <linearGradient id="linearGradient4213" x1="561" x2="595" y1="139" y2="139" gradientUnits="userSpaceOnUse" xlink:href="#linearGradient4207"/>
  <linearGradient id="linearGradient4237" x1="-865" x2="-771" y1="499" y2="499" gradientUnits="userSpaceOnUse" xlink:href="#linearGradient4207"/>
  <radialGradient id="radialGradient4247" cx="387" cy="581" r="20.7" gradientUnits="userSpaceOnUse" xlink:href="#linearGradient4207"/>
  <filter id="filter4259" x="-.117" y="-.014" width="1.23" height="1.03">
   <feGaussianBlur stdDeviation="1.3826896"/>
  </filter>
  <filter id="filter4265" x="-.0876" y="-.0179" width="1.18" height="1.04">
   <feGaussianBlur stdDeviation="2.8603046"/>
  </filter>
 </defs>
 <g transform="translate(-51.3 -240)">
  <g fill-rule="evenodd">
   <path transform="translate(-52 -67.6)" d="m428 358c152 0 274 122 274 274 0 152-122 274-274 274s-274-122-274-274c0-152 122-274 274-274z" fill="url(#radialGradient3978)" stroke="#000" stroke-linecap="round" stroke-width="2"/>
   <path d="m376 290c-135 0-247 97.4-270 226 55.8 64.1 151 106 260 106 119 0 223-50.7 275-126-29.7-119-137-207-266-207z" fill="#fff" opacity=".457"/>
   <path transform="matrix(.918 0 0 .918 -16.8 -15.6)" d="m428 358c152 0 274 122 274 274 0 152-122 274-274 274s-274-122-274-274c0-152 122-274 274-274z" fill="#1a1a1a" filter="url(#filter4002)"/>
   <path transform="matrix(.918 0 0 .918 -16.8 -15.6)" d="m428 358c152 0 274 122 274 274 0 152-122 274-274 274s-274-122-274-274c0-152 122-274 274-274z" fill="url(#radialGradient4012)"/>
  </g>
  <g>
   <path transform="matrix(1.18 0 0 1.18 -13.6 580)" d="m310 56.9c-1.49 1.1e-5 -2.69 0.547-3.61 1.64-0.938 1.1-1.41 2.56-1.41 4.38 0 1.85 0.469 3.32 1.41 4.41 0.906 1.07 2.11 1.61 3.61 1.61 1.32-1e-6 2.38-0.365 3.17-1.09 0.667-0.604 1.12-1.43 1.38-2.47 0.0417-0.187 0.0208-0.344-0.0625-0.469-0.0729-0.115-0.182-0.187-0.328-0.219-0.135-0.0312-0.26-0.0156-0.375 0.0469-0.125 0.0729-0.203 0.193-0.234 0.359-0.229 1.06-0.667 1.84-1.31 2.33-0.573 0.427-1.32 0.641-2.23 0.641-1.21 0-2.17-0.422-2.89-1.27-0.771-0.906-1.16-2.2-1.16-3.88 0-1.64 0.385-2.92 1.16-3.84 0.74-0.865 1.7-1.3 2.89-1.3 0.906 1.1e-5 1.66 0.208 2.25 0.625 0.656 0.458 1.07 1.14 1.25 2.05 0.0312 0.188 0.109 0.323 0.234 0.406 0.104 0.0729 0.219 0.0938 0.344 0.0625 0.135-0.0312 0.24-0.099 0.312-0.203 0.0833-0.125 0.115-0.26 0.0938-0.406-0.188-1-0.62-1.8-1.3-2.39-0.792-0.677-1.85-1.02-3.19-1.02zm7 0.516v9.75c-1e-5 0.406 0.12 0.75 0.359 1.03 0.271 0.312 0.646 0.469 1.12 0.469h4.98c0.156 0 0.281-0.0469 0.375-0.141 0.0833-0.0833 0.125-0.182 0.125-0.297-1e-5 -0.125-0.0417-0.229-0.125-0.312-0.0938-0.0833-0.219-0.125-0.375-0.125h-4.81c-0.229 1e-6 -0.406-0.0729-0.531-0.219-0.104-0.125-0.156-0.281-0.156-0.469v-9.69c-1e-5 -0.167-0.0521-0.297-0.156-0.391-0.0938-0.0833-0.203-0.125-0.328-0.125-0.135 1.1e-5 -0.25 0.0417-0.344 0.125-0.0938 0.0938-0.141 0.224-0.141 0.391zm13.3-0.516c-1.72 1.1e-5 -3.05 0.615-3.98 1.84-0.812 1.09-1.22 2.48-1.22 4.17 0 1.69 0.406 3.07 1.22 4.16 0.938 1.24 2.27 1.86 3.98 1.86 1.71-1e-6 3.03-0.62 3.97-1.86 0.833-1.08 1.25-2.47 1.25-4.16-2e-5 -1.69-0.417-3.08-1.25-4.17-0.938-1.23-2.26-1.84-3.97-1.84zm0 0.859c1.42 1.1e-5 2.5 0.516 3.25 1.55 0.667 0.917 1 2.12 1 3.61-1e-5 1.48-0.333 2.68-1 3.61-0.75 1.03-1.83 1.55-3.25 1.55-1.43 0-2.51-0.516-3.25-1.55-0.656-0.917-0.984-2.12-0.984-3.61 0-1.5 0.328-2.7 0.984-3.61 0.74-1.03 1.82-1.55 3.25-1.55zm12.2-0.859c-1.49 1.1e-5 -2.69 0.547-3.61 1.64-0.938 1.1-1.41 2.56-1.41 4.38 0 1.85 0.469 3.32 1.41 4.41 0.906 1.07 2.11 1.61 3.61 1.61 1.32-1e-6 2.38-0.365 3.17-1.09 0.667-0.604 1.12-1.43 1.38-2.47 0.0417-0.187 0.0208-0.344-0.0625-0.469-0.0729-0.115-0.182-0.187-0.328-0.219-0.135-0.0312-0.26-0.0156-0.375 0.0469-0.125 0.0729-0.203 0.193-0.234 0.359-0.229 1.06-0.667 1.84-1.31 2.33-0.573 0.427-1.32 0.641-2.23 0.641-1.21 0-2.17-0.422-2.89-1.27-0.771-0.906-1.16-2.2-1.16-3.88 0-1.64 0.385-2.92 1.16-3.84 0.74-0.865 1.7-1.3 2.89-1.3 0.906 1.1e-5 1.66 0.208 2.25 0.625 0.656 0.458 1.07 1.14 1.25 2.05 0.0312 0.188 0.109 0.323 0.234 0.406 0.104 0.0729 0.219 0.0938 0.344 0.0625 0.135-0.0312 0.24-0.099 0.312-0.203 0.0833-0.125 0.115-0.26 0.0938-0.406-0.188-1-0.62-1.8-1.3-2.39-0.792-0.677-1.85-1.02-3.19-1.02zm6.98 0.469v11c0 0.156 0.0469 0.281 0.141 0.375 0.0937 0.0833 0.208 0.125 0.344 0.125 0.125-1e-6 0.234-0.0417 0.328-0.125 0.104-0.0938 0.156-0.219 0.156-0.375v-3.81l2-2.03 4.58 6.12c0.0833 0.125 0.198 0.198 0.344 0.219 0.125 0.0208 0.245-1e-6 0.359-0.0625 0.115-0.0729 0.182-0.167 0.203-0.281 0.0208-0.135-0.0156-0.271-0.109-0.406l-4.67-6.25 4.14-4.2c0.125-0.135 0.187-0.266 0.188-0.391-1e-5 -0.125-0.0469-0.229-0.141-0.312-0.104-0.0833-0.224-0.12-0.359-0.109-0.146 1.1e-5 -0.276 0.0625-0.391 0.188l-6.14 6.22v-5.94c0-0.146-0.0521-0.26-0.156-0.344-0.0938-0.0729-0.203-0.109-0.328-0.109-0.135 1.1e-5 -0.25 0.0365-0.344 0.109-0.0938 0.0833-0.141 0.198-0.141 0.344z"/>
   <path transform="matrix(1.93 0 0 1.93 556 -22.9)" d="m-30.7 212v0.506h-7.94v-0.506h0.656c0.766 0 1.32-0.223 1.67-0.67 0.219-0.292 0.328-0.993 0.328-2.11v-12c-4e-6 -0.939-0.0592-1.56-0.178-1.86-0.0911-0.228-0.278-0.424-0.561-0.588-0.401-0.219-0.82-0.328-1.26-0.328h-0.656v-0.506h7.94v0.506h-0.67c-0.757 1e-5 -1.31 0.223-1.65 0.67-0.228 0.292-0.342 0.994-0.342 2.11v12c-6e-6 0.939 0.0592 1.56 0.178 1.86 0.0911 0.228 0.283 0.424 0.574 0.588 0.392 0.219 0.807 0.328 1.24 0.328h0.67z"/>
   <path transform="matrix(1.93 0 0 1.93 634 60.8)" d="m-35.4 212v0.506h-7.94v-0.506h0.656c0.766 0 1.32-0.223 1.67-0.67 0.219-0.292 0.328-0.993 0.328-2.11v-12c-3e-6 -0.939-0.0592-1.56-0.178-1.86-0.0911-0.228-0.278-0.424-0.561-0.588-0.401-0.219-0.82-0.328-1.26-0.328h-0.656v-0.506h7.94v0.506h-0.67c-0.757 1e-5 -1.31 0.223-1.65 0.67-0.228 0.292-0.342 0.994-0.342 2.11v12c-6e-6 0.939 0.0592 1.56 0.178 1.86 0.0911 0.228 0.283 0.424 0.574 0.588 0.392 0.219 0.807 0.328 1.24 0.328h0.67zm9.35 0v0.506h-7.94v-0.506h0.656c0.766 0 1.32-0.223 1.67-0.67 0.219-0.292 0.328-0.993 0.328-2.11v-12c-4e-6 -0.939-0.0592-1.56-0.178-1.86-0.0911-0.228-0.278-0.424-0.561-0.588-0.401-0.219-0.82-0.328-1.26-0.328h-0.656v-0.506h7.94v0.506h-0.67c-0.757 1e-5 -1.31 0.223-1.65 0.67-0.228 0.292-0.342 0.994-0.342 2.11v12c-6e-6 0.939 0.0592 1.56 0.178 1.86 0.0911 0.228 0.283 0.424 0.574 0.588 0.392 0.219 0.807 0.328 1.24 0.328h0.67z"/>
   <path transform="matrix(1.93 0 0 1.93 664 172)" d="m-40 212v0.506h-7.94v-0.506h0.656c0.766 0 1.32-0.223 1.67-0.67 0.219-0.292 0.328-0.993 0.328-2.11v-12c-3e-6 -0.939-0.0592-1.56-0.178-1.86-0.0911-0.228-0.278-0.424-0.561-0.588-0.401-0.219-0.82-0.328-1.26-0.328h-0.656v-0.506h7.94v0.506h-0.67c-0.757 1e-5 -1.31 0.223-1.65 0.67-0.228 0.292-0.342 0.994-0.342 2.11v12c-6e-6 0.939 0.0592 1.56 0.178 1.86 0.0911 0.228 0.283 0.424 0.574 0.588 0.392 0.219 0.807 0.328 1.24 0.328h0.67zm9.35 0v0.506h-7.94v-0.506h0.656c0.766 0 1.32-0.223 1.67-0.67 0.219-0.292 0.328-0.993 0.328-2.11v-12c-4e-6 -0.939-0.0592-1.56-0.178-1.86-0.0911-0.228-0.278-0.424-0.561-0.588-0.401-0.219-0.82-0.328-1.26-0.328h-0.656v-0.506h7.94v0.506h-0.67c-0.757 1e-5 -1.31 0.223-1.65 0.67-0.228 0.292-0.342 0.994-0.342 2.11v12c-6e-6 0.939 0.0592 1.56 0.178 1.86 0.0911 0.228 0.283 0.424 0.574 0.588 0.392 0.219 0.807 0.328 1.24 0.328h0.67zm9.35 0v0.506h-7.94v-0.506h0.656c0.766 0 1.32-0.223 1.67-0.67 0.219-0.292 0.328-0.993 0.328-2.11v-12c-3e-6 -0.939-0.0592-1.56-0.178-1.86-0.0911-0.228-0.278-0.424-0.561-0.588-0.401-0.219-0.82-0.328-1.26-0.328h-0.656v-0.506h7.94v0.506h-0.67c-0.757 1e-5 -1.31 0.223-1.65 0.67-0.228 0.292-0.342 0.994-0.342 2.11v12c-6e-6 0.939 0.0592 1.56 0.178 1.86 0.0911 0.228 0.283 0.424 0.574 0.588 0.392 0.219 0.807 0.328 1.24 0.328h0.67z"/>
   <path transform="matrix(1.93 0 0 1.93 633 289)" d="m-40.8 212v0.506h-7.94v-0.506h0.656c0.766 0 1.32-0.223 1.67-0.67 0.219-0.292 0.328-0.993 0.328-2.11v-12c-3e-6 -0.939-0.0592-1.56-0.178-1.86-0.0911-0.228-0.278-0.424-0.561-0.588-0.401-0.219-0.82-0.328-1.26-0.328h-0.656v-0.506h7.94v0.506h-0.67c-0.757 1e-5 -1.31 0.223-1.65 0.67-0.228 0.292-0.342 0.994-0.342 2.11v12c-6e-6 0.939 0.0592 1.56 0.178 1.86 0.0911 0.228 0.283 0.424 0.574 0.588 0.392 0.219 0.807 0.328 1.24 0.328h0.67zm20.6-18v0.506c-0.656 0.118-1.15 0.328-1.49 0.629-0.483 0.447-0.911 1.13-1.29 2.05l-6.47 15.8h-0.506l-6.95-16c-0.355-0.82-0.606-1.32-0.752-1.5-0.228-0.283-0.508-0.504-0.841-0.663-0.333-0.159-0.782-0.262-1.35-0.308v-0.506h7.57v0.506c-0.857 0.082-1.41 0.228-1.67 0.438-0.255 0.21-0.383 0.479-0.383 0.807-5e-6 0.456 0.21 1.17 0.629 2.13l4.72 10.9 4.38-10.7c0.428-1.06 0.643-1.79 0.643-2.2-1.6e-5 -0.264-0.132-0.517-0.396-0.759-0.264-0.242-0.711-0.412-1.34-0.513-0.0456-0.00909-0.123-0.0228-0.232-0.041v-0.506h5.71z"/>
   <path transform="matrix(1.93 0 0 1.93 555 365)" d="m-24.9 194v0.506c-0.656 0.118-1.15 0.328-1.49 0.629-0.483 0.447-0.911 1.13-1.29 2.05l-6.47 15.8h-0.506l-6.95-16c-0.355-0.82-0.606-1.32-0.752-1.5-0.228-0.283-0.508-0.504-0.841-0.663-0.333-0.159-0.782-0.262-1.35-0.308v-0.506h7.57v0.506c-0.857 0.082-1.41 0.228-1.67 0.438-0.255 0.21-0.383 0.479-0.383 0.807-6e-6 0.456 0.21 1.17 0.629 2.13l4.72 10.9 4.38-10.7c0.428-1.06 0.643-1.79 0.643-2.2-1.6e-5 -0.264-0.132-0.517-0.396-0.759-0.264-0.242-0.711-0.412-1.34-0.513-0.0456-0.00909-0.123-0.0228-0.232-0.041v-0.506h5.71z"/>
   <path transform="matrix(1.93 0 0 1.93 443 395)" d="m-29.6 194v0.506c-0.656 0.118-1.15 0.328-1.49 0.629-0.483 0.447-0.911 1.13-1.29 2.05l-6.47 15.8h-0.506l-6.95-16c-0.355-0.82-0.606-1.32-0.752-1.5-0.228-0.283-0.508-0.504-0.841-0.663-0.333-0.159-0.782-0.262-1.35-0.308v-0.506h7.57v0.506c-0.857 0.082-1.41 0.228-1.67 0.438-0.255 0.21-0.383 0.479-0.383 0.807-6e-6 0.456 0.21 1.17 0.629 2.13l4.72 10.9 4.38-10.7c0.428-1.06 0.643-1.79 0.643-2.2-1.6e-5 -0.264-0.132-0.517-0.396-0.759-0.264-0.242-0.711-0.412-1.34-0.513-0.0456-0.00909-0.123-0.0228-0.232-0.041v-0.506h5.71zm9 18v0.506h-7.94v-0.506h0.656c0.766 0 1.32-0.223 1.67-0.67 0.219-0.292 0.328-0.993 0.328-2.11v-12c-3e-6 -0.939-0.0592-1.56-0.178-1.86-0.0911-0.228-0.278-0.424-0.561-0.588-0.401-0.219-0.82-0.328-1.26-0.328h-0.656v-0.506h7.94v0.506h-0.67c-0.757 1e-5 -1.31 0.223-1.65 0.67-0.228 0.292-0.342 0.994-0.342 2.11v12c-6e-6 0.939 0.0592 1.56 0.178 1.86 0.0911 0.228 0.283 0.424 0.574 0.588 0.392 0.219 0.807 0.328 1.24 0.328h0.67z"/>
   <path transform="matrix(1.93 0 0 1.93 338 361)" d="m-34.2 194v0.506c-0.656 0.118-1.15 0.328-1.49 0.629-0.483 0.447-0.911 1.13-1.29 2.05l-6.47 15.8h-0.506l-6.95-16c-0.355-0.82-0.606-1.32-0.752-1.5-0.228-0.283-0.508-0.504-0.841-0.663-0.333-0.159-0.782-0.262-1.35-0.308v-0.506h7.57v0.506c-0.857 0.082-1.41 0.228-1.67 0.438-0.255 0.21-0.383 0.479-0.383 0.807-6e-6 0.456 0.21 1.17 0.629 2.13l4.72 10.9 4.38-10.7c0.428-1.06 0.643-1.79 0.643-2.2-1.6e-5 -0.264-0.132-0.517-0.396-0.759-0.264-0.242-0.711-0.412-1.34-0.513-0.0456-0.00909-0.123-0.0228-0.232-0.041v-0.506h5.71zm9 18v0.506h-7.94v-0.506h0.656c0.766 0 1.32-0.223 1.67-0.67 0.219-0.292 0.328-0.993 0.328-2.11v-12c-4e-6 -0.939-0.0592-1.56-0.178-1.86-0.0911-0.228-0.278-0.424-0.561-0.588-0.401-0.219-0.82-0.328-1.26-0.328h-0.656v-0.506h7.94v0.506h-0.67c-0.757 1e-5 -1.31 0.223-1.65 0.67-0.228 0.292-0.342 0.994-0.342 2.11v12c-6e-6 0.939 0.0592 1.56 0.178 1.86 0.0911 0.228 0.283 0.424 0.574 0.588 0.392 0.219 0.807 0.328 1.24 0.328h0.67zm9.35 0v0.506h-7.94v-0.506h0.656c0.766 0 1.32-0.223 1.67-0.67 0.219-0.292 0.328-0.993 0.328-2.11v-12c-3e-6 -0.939-0.0592-1.56-0.178-1.86-0.0911-0.228-0.278-0.424-0.561-0.588-0.401-0.219-0.82-0.328-1.26-0.328h-0.656v-0.506h7.94v0.506h-0.67c-0.757 1e-5 -1.31 0.223-1.65 0.67-0.228 0.292-0.342 0.994-0.342 2.11v12c-6e-6 0.939 0.0592 1.56 0.178 1.86 0.0911 0.228 0.283 0.424 0.574 0.588 0.392 0.219 0.807 0.328 1.24 0.328h0.67z"/>
   <path transform="matrix(1.93 0 0 1.93 272 290)" d="m-38.9 194v0.506c-0.656 0.118-1.15 0.328-1.49 0.629-0.483 0.447-0.911 1.13-1.29 2.05l-6.47 15.8h-0.506l-6.95-16c-0.355-0.82-0.606-1.32-0.752-1.5-0.228-0.283-0.508-0.504-0.841-0.663-0.333-0.159-0.782-0.262-1.35-0.308v-0.506h7.57v0.506c-0.857 0.082-1.41 0.228-1.67 0.438-0.255 0.21-0.383 0.479-0.383 0.807-5e-6 0.456 0.21 1.17 0.629 2.13l4.72 10.9 4.38-10.7c0.428-1.06 0.643-1.79 0.643-2.2-1.6e-5 -0.264-0.132-0.517-0.396-0.759-0.264-0.242-0.711-0.412-1.34-0.513-0.0456-0.00909-0.123-0.0228-0.232-0.041v-0.506h5.71zm9 18v0.506h-7.94v-0.506h0.656c0.766 0 1.32-0.223 1.67-0.67 0.219-0.292 0.328-0.993 0.328-2.11v-12c-4e-6 -0.939-0.0592-1.56-0.178-1.86-0.0911-0.228-0.278-0.424-0.561-0.588-0.401-0.219-0.82-0.328-1.26-0.328h-0.656v-0.506h7.94v0.506h-0.67c-0.757 1e-5 -1.31 0.223-1.65 0.67-0.228 0.292-0.342 0.994-0.342 2.11v12c-6e-6 0.939 0.0592 1.56 0.178 1.86 0.0911 0.228 0.283 0.424 0.574 0.588 0.392 0.219 0.807 0.328 1.24 0.328h0.67zm9.35 0v0.506h-7.94v-0.506h0.656c0.766 0 1.32-0.223 1.67-0.67 0.219-0.292 0.328-0.993 0.328-2.11v-12c-3e-6 -0.939-0.0592-1.56-0.178-1.86-0.0911-0.228-0.278-0.424-0.561-0.588-0.401-0.219-0.82-0.328-1.26-0.328h-0.656v-0.506h7.94v0.506h-0.67c-0.757 1e-5 -1.31 0.223-1.65 0.67-0.228 0.292-0.342 0.994-0.342 2.11v12c-6e-6 0.939 0.0592 1.56 0.178 1.86 0.0911 0.228 0.283 0.424 0.574 0.588 0.392 0.219 0.807 0.328 1.24 0.328h0.67zm9.35 0v0.506h-7.94v-0.506h0.656c0.766 0 1.32-0.223 1.67-0.67 0.219-0.292 0.328-0.993 0.328-2.11v-12c-4e-6 -0.939-0.0592-1.56-0.178-1.86-0.0911-0.228-0.278-0.424-0.561-0.588-0.401-0.219-0.82-0.328-1.26-0.328h-0.656v-0.506h7.94v0.506h-0.67c-0.757 1e-5 -1.31 0.223-1.65 0.67-0.228 0.292-0.342 0.994-0.342 2.11v12c-6e-6 0.939 0.0592 1.56 0.178 1.86 0.0911 0.228 0.283 0.424 0.574 0.588 0.392 0.219 0.807 0.328 1.24 0.328h0.67z"/>
   <path transform="matrix(1.93 0 0 1.93 224 175)" d="m-40.8 212v0.506h-7.94v-0.506h0.656c0.766 0 1.32-0.223 1.67-0.67 0.219-0.292 0.328-0.993 0.328-2.11v-12c-3e-6 -0.939-0.0592-1.56-0.178-1.86-0.0911-0.228-0.278-0.424-0.561-0.588-0.401-0.219-0.82-0.328-1.26-0.328h-0.656v-0.506h7.94v0.506h-0.67c-0.757 1e-5 -1.31 0.223-1.65 0.67-0.228 0.292-0.342 0.994-0.342 2.11v12c-6e-6 0.939 0.0592 1.56 0.178 1.86 0.0911 0.228 0.283 0.424 0.574 0.588 0.392 0.219 0.807 0.328 1.24 0.328h0.67zm12.1-9.76 3.98 5.93c1.1 1.64 1.92 2.68 2.45 3.11 0.533 0.433 1.21 0.672 2.03 0.718v0.506h-7.96v-0.506c0.529-0.00911 0.921-0.0638 1.18-0.164 0.191-0.082 0.349-0.207 0.472-0.376 0.123-0.169 0.185-0.34 0.185-0.513-1.3e-5 -0.21-0.041-0.419-0.123-0.629-0.0638-0.155-0.314-0.556-0.752-1.2l-3.14-4.76-3.88 4.98c-0.41 0.529-0.656 0.882-0.738 1.06-0.082 0.178-0.123 0.362-0.123 0.554-5e-6 0.292 0.123 0.533 0.369 0.725 0.246 0.191 0.715 0.301 1.41 0.328v0.506h-6.58v-0.506c0.465-0.0456 0.866-0.141 1.2-0.287 0.565-0.237 1.1-0.556 1.61-0.957 0.51-0.401 1.09-1.02 1.75-1.85l4.38-5.52-3.65-5.35c-0.993-1.45-1.84-2.4-2.53-2.85-0.693-0.451-1.49-0.69-2.39-0.718v-0.506h8.57v0.506c-0.729 0.0274-1.23 0.146-1.5 0.355-0.269 0.21-0.403 0.442-0.403 0.697-7e-6 0.337 0.219 0.829 0.656 1.48l2.84 4.25 3.29-4.17c0.383-0.492 0.617-0.829 0.704-1.01 0.0866-0.182 0.13-0.369 0.13-0.561-1.5e-5 -0.191-0.0547-0.36-0.164-0.506-0.137-0.191-0.31-0.326-0.52-0.403-0.21-0.0775-0.643-0.121-1.3-0.13v-0.506h6.58v0.506c-0.52 0.0274-0.943 0.109-1.27 0.246-0.492 0.21-0.943 0.492-1.35 0.848-0.41 0.355-0.989 1.01-1.74 1.97l-3.68 4.7z"/>
   <path transform="matrix(1.93 0 0 1.93 249 64.4)" d="m-33.3 202 3.98 5.93c1.1 1.64 1.92 2.68 2.45 3.11 0.533 0.433 1.21 0.672 2.03 0.718v0.506h-7.96v-0.506c0.529-0.00911 0.921-0.0638 1.18-0.164 0.191-0.082 0.349-0.207 0.472-0.376 0.123-0.169 0.185-0.34 0.185-0.513-1.4e-5 -0.21-0.041-0.419-0.123-0.629-0.0638-0.155-0.314-0.556-0.752-1.2l-3.14-4.76-3.88 4.98c-0.41 0.529-0.656 0.882-0.738 1.06-0.082 0.178-0.123 0.362-0.123 0.554-5e-6 0.292 0.123 0.533 0.369 0.725 0.246 0.191 0.715 0.301 1.41 0.328v0.506h-6.58v-0.506c0.465-0.0456 0.866-0.141 1.2-0.287 0.565-0.237 1.1-0.556 1.61-0.957 0.51-0.401 1.09-1.02 1.75-1.85l4.38-5.52-3.65-5.35c-0.993-1.45-1.84-2.4-2.53-2.85-0.693-0.451-1.49-0.69-2.39-0.718v-0.506h8.57v0.506c-0.729 0.0274-1.23 0.146-1.5 0.355-0.269 0.21-0.403 0.442-0.403 0.697-8e-6 0.337 0.219 0.829 0.656 1.48l2.84 4.25 3.29-4.17c0.383-0.492 0.617-0.829 0.704-1.01 0.0866-0.182 0.13-0.369 0.13-0.561-1.5e-5 -0.191-0.0547-0.36-0.164-0.506-0.137-0.191-0.31-0.326-0.52-0.403-0.21-0.0775-0.643-0.121-1.3-0.13v-0.506h6.58v0.506c-0.52 0.0274-0.943 0.109-1.27 0.246-0.492 0.21-0.943 0.492-1.35 0.848-0.41 0.355-0.989 1.01-1.74 1.97l-3.68 4.7z"/>
   <path transform="matrix(1.93 0 0 1.93 332 -16.5)" d="m-38 202 3.98 5.93c1.1 1.64 1.92 2.68 2.45 3.11 0.533 0.433 1.21 0.672 2.03 0.718v0.506h-7.96v-0.506c0.529-0.00911 0.921-0.0638 1.18-0.164 0.191-0.082 0.349-0.207 0.472-0.376 0.123-0.169 0.185-0.34 0.185-0.513-1.4e-5 -0.21-0.041-0.419-0.123-0.629-0.0638-0.155-0.314-0.556-0.752-1.2l-3.14-4.76-3.88 4.98c-0.41 0.529-0.656 0.882-0.738 1.06-0.082 0.178-0.123 0.362-0.123 0.554-5e-6 0.292 0.123 0.533 0.369 0.725 0.246 0.191 0.715 0.301 1.41 0.328v0.506h-6.58v-0.506c0.465-0.0456 0.866-0.141 1.2-0.287 0.565-0.237 1.1-0.556 1.61-0.957 0.51-0.401 1.09-1.02 1.75-1.85l4.38-5.52-3.65-5.35c-0.993-1.45-1.84-2.4-2.53-2.85-0.693-0.451-1.49-0.69-2.39-0.718v-0.506h8.57v0.506c-0.729 0.0274-1.23 0.146-1.5 0.355-0.269 0.21-0.403 0.442-0.403 0.697-7e-6 0.337 0.219 0.829 0.656 1.48l2.84 4.25 3.29-4.17c0.383-0.492 0.617-0.829 0.704-1.01 0.0866-0.182 0.13-0.369 0.13-0.561-1.5e-5 -0.191-0.0547-0.36-0.164-0.506-0.137-0.191-0.31-0.326-0.52-0.403-0.21-0.0775-0.643-0.121-1.3-0.13v-0.506h6.58v0.506c-0.52 0.0274-0.943 0.109-1.27 0.246-0.492 0.21-0.943 0.492-1.35 0.848-0.41 0.355-0.989 1.01-1.74 1.97l-3.68 4.7zm17.4 9.76v0.506h-7.94v-0.506h0.656c0.766 0 1.32-0.223 1.67-0.67 0.219-0.292 0.328-0.993 0.328-2.11v-12c-3e-6 -0.939-0.0592-1.56-0.178-1.86-0.0911-0.228-0.278-0.424-0.561-0.588-0.401-0.219-0.82-0.328-1.26-0.328h-0.656v-0.506h7.94v0.506h-0.67c-0.757 1e-5 -1.31 0.223-1.65 0.67-0.228 0.292-0.342 0.994-0.342 2.11v12c-6e-6 0.939 0.0592 1.56 0.178 1.86 0.0911 0.228 0.283 0.424 0.574 0.588 0.392 0.219 0.807 0.328 1.24 0.328h0.67z"/>
   <path transform="matrix(1.93 0 0 1.93 442 -50.5)" d="m-42.7 202 3.98 5.93c1.1 1.64 1.92 2.68 2.45 3.11 0.533 0.433 1.21 0.672 2.03 0.718v0.506h-7.96v-0.506c0.529-0.00911 0.921-0.0638 1.18-0.164 0.191-0.082 0.349-0.207 0.472-0.376 0.123-0.169 0.185-0.34 0.185-0.513-1.4e-5 -0.21-0.041-0.419-0.123-0.629-0.0638-0.155-0.314-0.556-0.752-1.2l-3.14-4.76-3.88 4.98c-0.41 0.529-0.656 0.882-0.738 1.06-0.082 0.178-0.123 0.362-0.123 0.554-5e-6 0.292 0.123 0.533 0.369 0.725 0.246 0.191 0.715 0.301 1.41 0.328v0.506h-6.58v-0.506c0.465-0.0456 0.866-0.141 1.2-0.287 0.565-0.237 1.1-0.556 1.61-0.957 0.51-0.401 1.09-1.02 1.75-1.85l4.38-5.52-3.65-5.35c-0.993-1.45-1.84-2.4-2.53-2.85-0.693-0.451-1.49-0.69-2.39-0.718v-0.506h8.57v0.506c-0.729 0.0274-1.23 0.146-1.5 0.355-0.269 0.21-0.403 0.442-0.403 0.697-7e-6 0.337 0.219 0.829 0.656 1.48l2.84 4.25 3.29-4.17c0.383-0.492 0.617-0.829 0.704-1.01 0.0866-0.182 0.13-0.369 0.13-0.561-1.4e-5 -0.191-0.0547-0.36-0.164-0.506-0.137-0.191-0.31-0.326-0.52-0.403-0.21-0.0775-0.643-0.121-1.3-0.13v-0.506h6.58v0.506c-0.52 0.0274-0.943 0.109-1.27 0.246-0.492 0.21-0.943 0.492-1.35 0.848-0.41 0.355-0.989 1.01-1.74 1.97l-3.68 4.7zm17.4 9.76v0.506h-7.94v-0.506h0.656c0.766 0 1.32-0.223 1.67-0.67 0.219-0.292 0.328-0.993 0.328-2.11v-12c-4e-6 -0.939-0.0592-1.56-0.178-1.86-0.0911-0.228-0.278-0.424-0.561-0.588-0.401-0.219-0.82-0.328-1.26-0.328h-0.656v-0.506h7.94v0.506h-0.67c-0.757 1e-5 -1.31 0.223-1.65 0.67-0.228 0.292-0.342 0.994-0.342 2.11v12c-6e-6 0.939 0.0592 1.56 0.178 1.86 0.0911 0.228 0.283 0.424 0.574 0.588 0.392 0.219 0.807 0.328 1.24 0.328h0.67zm9.35 0v0.506h-7.94v-0.506h0.656c0.766 0 1.32-0.223 1.67-0.67 0.219-0.292 0.328-0.993 0.328-2.11v-12c-3e-6 -0.939-0.0592-1.56-0.178-1.86-0.0911-0.228-0.278-0.424-0.561-0.588-0.401-0.219-0.82-0.328-1.26-0.328h-0.656v-0.506h7.94v0.506h-0.67c-0.757 1e-5 -1.31 0.223-1.65 0.67-0.228 0.292-0.342 0.994-0.342 2.11v12c-6e-6 0.939 0.0592 1.56 0.178 1.86 0.0911 0.228 0.283 0.424 0.574 0.588 0.392 0.219 0.807 0.328 1.24 0.328h0.67z"/>
  </g>
  <g fill-rule="evenodd">
   <path d="m376 313c-123 0-225 87.9-247 205 55.5 51.1 151 84.6 259 84.6 95.3 0 180-25.8 237-66.7-14.1-126-120-223-250-223z" fill="#fff" opacity=".467"/>
   <g stroke="#000">
    <path transform="matrix(.707 .707 -.707 .707 138 -13.2)" d="m578 18.3-4.62 29.4c-0.482-1.81-0.986-3.63-1.47-5.44-0.777-1.27-0.0397 5.79-0.156 7.91 1.2 8.55-4.45 15.6-8.25 22.7-3.26 5.83 3.11-0.327 4.66-2.34 1.26-0.686-4.13 4.85-5.25 6.94-0.878 1.17-1.22 1.88-1.22 2.25 0.0155 1.21 3.85-1.11 5.66-2.09 5.49-5.25 7.41 7.21 1.69 7.06-7.18-1.44-4.11 7.8 1.34 6.16 3.03-3.49 2.68 1.23 2.5 3.62 1.02-2.76 2.02-5.52 3.03-8.28v130c-2.38 6.64-6.44 14.8-9.91 18.4-6.12 11.2 2.83 29.1 11.8 25.5 0.0772-2.75 0.145-5.5 0.188-8.25 0.0425 2.75 0.11 5.5 0.188 8.25 9.01 3.6 17.9-14.3 11.8-25.5-3.46-3.57-7.46-11.7-9.84-18.3v-129c0.947 2.57 1.9 5.15 2.84 7.72-0.178-2.39-0.53-7.12 2.5-3.62 5.45 1.64 8.53-7.6 1.34-6.16-5.73 0.151-3.81-12.3 1.69-7.06 2.35 1.29 8.18 4.82 4.44-0.156-1.12-2.09-6.51-7.62-5.25-6.94 1.54 2.02 7.92 8.17 4.66 2.34-3.8-7.08-9.45-14.2-8.25-22.7-0.117-2.12 0.621-9.17-0.156-7.91-0.462 1.73-0.944 3.45-1.41 5.19l-4.59-29.2z" fill-opacity=".596" filter="url(#filter4259)" stroke-width="1px"/>
    <path transform="matrix(.707 .707 -.707 .707 137 -13.2)" d="m578 18.3-4.62 29.4c-0.482-1.81-0.986-3.63-1.47-5.44-0.777-1.27-0.0397 5.79-0.156 7.91 1.2 8.55-4.45 15.6-8.25 22.7-3.26 5.83 3.11-0.327 4.66-2.34 1.26-0.686-4.13 4.85-5.25 6.94-0.878 1.17-1.22 1.88-1.22 2.25 0.0155 1.21 3.85-1.11 5.66-2.09 5.49-5.25 7.41 7.21 1.69 7.06-7.18-1.44-4.11 7.8 1.34 6.16 3.03-3.49 2.68 1.23 2.5 3.62 1.02-2.76 2.02-5.52 3.03-8.28v130c-2.38 6.64-6.44 14.8-9.91 18.4-6.12 11.2 2.83 29.1 11.8 25.5 0.0772-2.75 0.145-5.5 0.188-8.25 0.0425 2.75 0.11 5.5 0.188 8.25 9.01 3.6 17.9-14.3 11.8-25.5-3.46-3.57-7.46-11.7-9.84-18.3v-129c0.947 2.57 1.9 5.15 2.84 7.72-0.178-2.39-0.53-7.12 2.5-3.62 5.45 1.64 8.53-7.6 1.34-6.16-5.73 0.151-3.81-12.3 1.69-7.06 2.35 1.29 8.18 4.82 4.44-0.156-1.12-2.09-6.51-7.62-5.25-6.94 1.54 2.02 7.92 8.17 4.66 2.34-3.8-7.08-9.45-14.2-8.25-22.7-0.117-2.12 0.621-9.17-0.156-7.91-0.462 1.73-0.944 3.45-1.41 5.19l-4.59-29.2z" fill="url(#linearGradient4213)" stroke-width=".5"/>
    <path transform="matrix(7.57e-8 .379 -.384 8.15e-8 627 877)" d="m-818 302-13.3 84.4c-1.38-5.19-2.77-10.4-4.16-15.6-2.23-3.64-0.103 16.5-0.438 22.6 3.44 24.5-12.8 45-23.7 65.3-9.36 16.7 8.94-0.962 13.4-6.75 3.62-1.97-11.9 13.9-15.1 19.9-2.52 3.34-3.51 5.37-3.5 6.44 0.0446 3.47 11-3.13 16.2-5.97 15.8-15.1 21.3 20.7 4.84 20.2-20.6-4.13-11.8 22.4 3.84 17.7 8.69-10 7.67 3.51 7.16 10.4 2.92-7.91 5.83-15.8 8.75-23.8v72.2c-6.84 19.1-18.4 42.5-28.4 52.8-17.6 32.2 8.13 83.4 34 73.1 0.221-7.88 0.378-15.8 0.5-23.7 0.122 7.88 0.279 15.8 0.5 23.7 25.9 10.3 51.5-40.9 34-73.1-9.93-10.3-21.5-33.6-28.3-52.6v-70.9c2.73 7.4 5.46 14.8 8.19 22.2-0.511-6.86-1.48-20.4 7.22-10.4 15.6 4.72 24.4-21.8 3.81-17.7-16.4 0.433-10.9-35.3 4.88-20.2 6.76 3.7 23.4 13.8 12.7-0.469-3.21-5.98-18.7-21.9-15-19.9 4.43 5.79 22.7 23.5 13.4 6.75-10.9-20.3-27.2-40.7-23.7-65.3-0.335-6.08 1.79-26.3-0.438-22.6-1.33 4.97-2.64 9.93-3.97 14.9l-13.2-83.8z" fill-opacity=".596" filter="url(#filter4265)" stroke-width="2.62px"/>
   </g>
  </g>
  <g fill-rule="evenodd">
   <path transform="matrix(7.57e-8 .379 -.384 8.15e-8 628 877)" d="m-818 302-13.3 84.4c-1.38-5.19-2.77-10.4-4.16-15.6-2.23-3.64-0.103 16.5-0.438 22.6 3.44 24.5-12.8 45-23.7 65.3-9.36 16.7 8.94-0.962 13.4-6.75 3.62-1.97-11.9 13.9-15.1 19.9-2.52 3.34-3.51 5.37-3.5 6.44 0.0446 3.47 11-3.13 16.2-5.97 15.8-15.1 21.3 20.7 4.84 20.2-20.6-4.13-11.8 22.4 3.84 17.7 8.69-10 7.67 3.51 7.16 10.4 2.92-7.91 5.83-15.8 8.75-23.8v72.2c-6.84 19.1-18.4 42.5-28.4 52.8-17.6 32.2 8.13 83.4 34 73.1 0.221-7.88 0.378-15.8 0.5-23.7 0.122 7.88 0.279 15.8 0.5 23.7 25.9 10.3 51.5-40.9 34-73.1-9.93-10.3-21.5-33.6-28.3-52.6v-70.9c2.73 7.4 5.46 14.8 8.19 22.2-0.511-6.86-1.48-20.4 7.22-10.4 15.6 4.72 24.4-21.8 3.81-17.7-16.4 0.433-10.9-35.3 4.88-20.2 6.76 3.7 23.4 13.8 12.7-0.469-3.21-5.98-18.7-21.9-15-19.9 4.43 5.79 22.7 23.5 13.4 6.75-10.9-20.3-27.2-40.7-23.7-65.3-0.335-6.08 1.79-26.3-0.438-22.6-1.33 4.97-2.64 9.93-3.97 14.9l-13.2-83.8z" fill="url(#linearGradient4237)" stroke="#000" stroke-width="1.31"/>
   <path transform="translate(-12.4 -14.4)" d="m387 561c10.9 0 19.7 8.77 19.7 19.7 0 10.9-8.77 19.7-19.7 19.7s-19.7-8.77-19.7-19.7c0-10.9 8.77-19.7 19.7-19.7z" fill="url(#radialGradient4247)" stroke="#000" stroke-linecap="round"/>
   <path transform="matrix(1.53 0 0 1.53 -197 -297)" d="m374 555c-5.32 0-9.75 3.6-11.1 8.5 1.32 4.88 5.75 8.44 11.1 8.44 5.31 0 9.74-3.55 11.1-8.44-1.31-4.9-5.74-8.5-11.1-8.5z" fill="#fff" opacity=".378"/>
   <path transform="matrix(.583 0 0 .583 149 228)" d="m387 561c10.9 0 19.7 8.77 19.7 19.7 0 10.9-8.77 19.7-19.7 19.7s-19.7-8.77-19.7-19.7c0-10.9 8.77-19.7 19.7-19.7z" fill="url(#radialGradient4247)" stroke="#000" stroke-linecap="round" stroke-width="1.71"/>
   <path d="m374 555c-5.32 0-9.75 3.6-11.1 8.5 1.32 4.88 5.75 8.44 11.1 8.44 5.31 0 9.74-3.55 11.1-8.44-1.31-4.9-5.74-8.5-11.1-8.5z" fill="#fff" opacity=".378"/>
  </g>
 </g>
</svg>
