<?xml version="1.0" encoding="UTF-8" standalone="no"?>
<!DOCTYPE svg PUBLIC "-//W3C//DTD SVG 1.0//EN" "http://www.w3.org/TR/2001/PR-SVG-20010719/DTD/svg10.dtd">
<svg width="18cm" height="13cm" viewBox="117 127 345 255" xmlns="http://www.w3.org/2000/svg" xmlns:xlink="http://www.w3.org/1999/xlink">
  <defs/>
  <g id="Background">
    <g>
      <rect style="fill: #ffff00; fill-opacity: 1; stroke-opacity: 1; stroke-width: 2; stroke: #000000" x="260" y="240" width="40" height="40" rx="4" ry="4"/>
      <text font-size="28.2218" style="fill: #000000; fill-opacity: 1; stroke: none;text-anchor:middle;font-family:sans-serif;font-style:normal;font-weight:normal" x="280" y="272.561">
        <tspan x="280" y="272.561">E</tspan>
      </text>
    </g>
    <g>
      <rect style="fill: #ffff00; fill-opacity: 1; stroke-opacity: 1; stroke-width: 2; stroke: #000000" x="380" y="240" width="40" height="40" rx="4" ry="4"/>
      <text font-size="28.2218" style="fill: #000000; fill-opacity: 1; stroke: none;text-anchor:middle;font-family:sans-serif;font-style:normal;font-weight:normal" x="400" y="272.561">
        <tspan x="400" y="272.561">F</tspan>
      </text>
    </g>
    <g>
      <rect style="fill: #00ff00; fill-opacity: 1; stroke-opacity: 1; stroke-width: 2; stroke: #000000" x="120" y="240" width="40" height="40" rx="4" ry="4"/>
      <text font-size="28.2218" style="fill: #000000; fill-opacity: 1; stroke: none;text-anchor:middle;font-family:sans-serif;font-style:normal;font-weight:normal" x="140" y="272.561">
        <tspan x="140" y="272.561">A</tspan>
      </text>
    </g>
    <g>
      <rect style="fill: #00ff00; fill-opacity: 1; stroke-opacity: 1; stroke-width: 2; stroke: #000000" x="160" y="240" width="40" height="40" rx="4" ry="4"/>
      <text font-size="28.2218" style="fill: #000000; fill-opacity: 1; stroke: none;text-anchor:middle;font-family:sans-serif;font-style:normal;font-weight:normal" x="180" y="272.561">
        <tspan x="180" y="272.561">B</tspan>
      </text>
    </g>
    <g>
      <rect style="fill: #00ff00; fill-opacity: 1; stroke-opacity: 1; stroke-width: 2; stroke: #000000" x="200" y="240" width="40" height="40" rx="4" ry="4"/>
      <text font-size="28.2218" style="fill: #000000; fill-opacity: 1; stroke: none;text-anchor:middle;font-family:sans-serif;font-style:normal;font-weight:normal" x="220" y="272.561">
        <tspan x="220" y="272.561">C</tspan>
      </text>
    </g>
    <g>
      <rect style="fill: #ffff00; fill-opacity: 1; stroke-opacity: 1; stroke-width: 2; stroke: #000000" x="340" y="240" width="40" height="40" rx="4" ry="4"/>
      <text font-size="28.2218" style="fill: #000000; fill-opacity: 1; stroke: none;text-anchor:middle;font-family:sans-serif;font-style:normal;font-weight:normal" x="360" y="272.561">
        <tspan x="360" y="272.561">G</tspan>
      </text>
    </g>
    <polygon style="fill: #ffff00; fill-opacity: 1; stroke-opacity: 1; stroke-width: 2; stroke-linejoin: round; stroke: #000000" fill-rule="evenodd" points="305.858,215.505 344.495,225.858 334.142,264.495 295.505,254.142 "/>
    <g>
      <polygon style="fill: #ffff00; fill-opacity: 1; stroke: none" fill-rule="evenodd" points="315.033,218.74 334.931,224.072 324.967,261.26 305.069,255.928 "/>
      <text font-size="28.2218" style="fill: #000000; fill-opacity: 1; stroke: none;text-anchor:middle;font-family:sans-serif;font-style:normal;font-weight:normal" transform="translate(320,240) rotate(15) translate(-320,-240)">
        <tspan x="320" y="250.95">D</tspan>
      </text>
    </g>
    <line style="fill: none; stroke-opacity: 1; stroke-width: 4; stroke-linejoin: round; stroke: #000000" x1="250" y1="230" x2="250" y2="290"/>
    <g>
      <rect style="fill: #ffff00; fill-opacity: 1; stroke-opacity: 1; stroke-width: 2; stroke: #000000" x="420" y="240" width="40" height="40" rx="4" ry="4"/>
      <text font-size="28.2218" style="fill: #000000; fill-opacity: 1; stroke: none;text-anchor:middle;font-family:sans-serif;font-style:normal;font-weight:normal" x="440" y="272.561">
        <tspan x="440" y="272.561">H</tspan>
      </text>
    </g>
    <g>
      <path style="fill: #add8e6; fill-opacity: 1; stroke-opacity: 1; stroke-width: 2; stroke-dasharray: 4; stroke: #000000" fill-rule="evenodd" d="M 141.667 320 L 228.333,320 C 240.3,320 250,333.431 250,350 C 250,366.569 240.3,380 228.333,380 L 141.667,380 C 129.7,380 120,366.569 120,350 C 120,333.431 129.7,320 141.667,320z"/>
      <text font-size="20.3197" style="fill: #000000; fill-opacity: 1; stroke: none;text-anchor:middle;font-family:sans-serif;font-style:normal;font-weight:normal" x="185" y="346.825">
        <tspan x="185" y="346.825">Left side:</tspan>
        <tspan x="185" y="372.225">sorted</tspan>
      </text>
    </g>
    <line style="fill: none; stroke-opacity: 1; stroke-width: 2; stroke-dasharray: 4; stroke: #000000" x1="197.918" y1="318.997" x2="210" y2="290"/>
    <g>
      <path style="fill: #add8e6; fill-opacity: 1; stroke-opacity: 1; stroke-width: 2; stroke-dasharray: 4; stroke: #000000" fill-rule="evenodd" d="M 310 130 L 430,130 C 446.569,130 460,143.257 460,159.611 C 460,175.965 446.569,189.222 430,189.222 L 310,189.222 C 293.431,189.222 280,175.965 280,159.611 C 280,143.257 293.431,130 310,130z"/>
      <text font-size="20.3197" style="fill: #000000; fill-opacity: 1; stroke: none;text-anchor:middle;font-family:sans-serif;font-style:normal;font-weight:normal" x="370" y="156.436">
        <tspan x="370" y="156.436">Search the min</tspan>
        <tspan x="370" y="181.836">in the right side</tspan>
      </text>
    </g>
    <line style="fill: none; stroke-opacity: 1; stroke-width: 2; stroke-dasharray: 4; stroke: #000000" x1="330" y1="210" x2="345.698" y2="190.225"/>
    <g>
      <path style="fill: #add8e6; fill-opacity: 1; stroke-opacity: 1; stroke-width: 2; stroke-dasharray: 4; stroke: #000000" fill-rule="evenodd" d="M 351.667 320 L 438.333,320 C 450.3,320 460,333.431 460,350 C 460,366.569 450.3,380 438.333,380 L 351.667,380 C 339.7,380 330,366.569 330,350 C 330,333.431 339.7,320 351.667,320z"/>
      <text font-size="20.3197" style="fill: #000000; fill-opacity: 1; stroke: none;text-anchor:middle;font-family:sans-serif;font-style:normal;font-weight:normal" x="395" y="346.825">
        <tspan x="395" y="346.825">Right side:</tspan>
        <tspan x="395" y="372.225">to sort</tspan>
      </text>
    </g>
    <line style="fill: none; stroke-opacity: 1; stroke-width: 2; stroke-dasharray: 4; stroke: #000000" x1="382.082" y1="318.997" x2="370" y2="290"/>
  </g>
</svg>
