<svg xmlns="http://www.w3.org/2000/svg" width="550.95" height="609.55" xmlns:v="https://vecta.io/nano"><defs><filter id="A" color-interpolation-filters="sRGB"><feFlood flood-color="#000" flood-opacity=".498"/><feComposite in2="SourceGraphic" operator="in"/><feGaussianBlur stdDeviation="5"/><feOffset/><feComposite in="SourceGraphic"/></filter></defs><g transform="translate(-190.17 -56.309)" filter="url(#A)"><path d="M273.16 658.24c-25.626-2.596-38.351-10.059-39.948-23.429-.328-2.743-.337-4.436-.022-3.762s.522 1.48.46 1.791c-.264 1.309 8.617 8.781 13.196 11.102 21.005 10.644 63.466 9.855 167.77-3.12 208.81-25.975 272.25-27.284 277.66-5.73.722 2.876-2.225 9.421-4.431 9.84-.701.133-.879.036-.395-.217 3.547-1.855-2.263-9.725-8.723-11.815-16.22-5.248-71.082-7.112-110.61-3.758-38.45 3.263-112.24 11.618-160 18.118-73.925 10.06-112.81 13.224-134.95 10.982zm263.45-6.275c0-2.926 6.251-13.641 7.958-13.641 1.123 0 2.042.477 2.042 1.059s-.52.738-1.154.345c-.708-.437-.883-.275-.454.42.385.624.165 2.156-.49 3.404-1.133 2.162-7.902 9.367-7.902 8.412zm13.791-4.618c11.842-9.874 41.202-12.245 80.709-6.518 28.934 4.194 33.025 4.282 49.246 1.058 2.149-.427 2.184-.328.825 2.301-3.102 5.998-16.423 6.806-43.071 2.614-30.109-4.737-52.002-5.006-74.5-.915-5.225.95-10.288 1.759-11.25 1.797s-1.75.423-1.75.855-.562.771-1.25.752-.219-.893 1.041-1.943zm-271.79-9.822c0-.44 1.688-.639 3.75-.442 6.431.612 6.955 1.005 1.5 1.126-2.887.064-5.25-.244-5.25-.683zm32.643-.969c-.261-.423 1.287-.6 3.441-.395s3.916.551 3.916.768c0 .745-6.882.396-7.357-.373zm-59.259-1.673c-.304-.793-.342-2.255-.085-3.25.314-1.21.507-.92.585.878.097 2.251.643 2.752 3.366 3.09l3.25.403-3.281.16c-2.053.1-3.488-.38-3.835-1.282zm78.866.752c.962-.252 2.538-.252 3.5 0s.175.457-1.75.457-2.712-.206-1.75-.457zm28.512-2.018c1.244-.239 3.044-.23 4 .02s-.062.446-2.262.435-2.982-.216-1.738-.455zm-96.53-4.293c0-1.925.206-2.712.457-1.75s.252 2.538 0 3.5-.457.175-.457-1.75zm118.02 2.311c.962-.252 2.538-.252 3.5 0s.175.457-1.75.457-2.712-.206-1.75-.457zm-18.788-7.561l-4.962-5.25 5.25 4.962c4.878 4.611 5.709 5.538 4.962 5.538-.158 0-2.521-2.362-5.25-5.25zm330.19-2.441c-2.082-12.601 2.226-38.971 8.725-53.402.558-1.24-.621-2.193-5.32-4.302-21.633-9.708-77.052-8.761-169.56 2.899-195.53 24.645-257.15 28.299-288.06 17.081-14.549-5.281-20.764-14.78-12.474-19.067 3.958-2.047 4.035-2.01 4.035 1.893 0 6.106 7.9 10.401 26.029 14.15 7.233 1.496 56.186 3.334 54.924 2.063-.301-.303-4.978-2.395-10.392-4.649-21.161-8.807-38.135-18.554-52.061-29.893-6.337-5.16-7.258-5.606-9.723-4.707-4.48 1.634-15.735-6.48-16.314-11.762-.293-2.67-.231-2.712 1.593-1.062 1.044.944 1.679 2.071 1.412 2.503-1.021 1.653 6.941 7.025 9.976 6.732 2.859-.277 3.217-.968 12.562-24.285 5.29-13.2 11.954-28.987 14.807-35.082 5.896-12.594 6.162-14.52 2.709-19.602l-2.479-3.649 7.729-.617c17.639-1.407 16.17-1.513 14.989 1.078-.579 1.27-1.453 2.061-1.943 1.758s-4.223-.238-8.296.143l-7.405.694 1.942 3.623c2.534 4.728 3.034 2.78-5.89 22.951-4.307 9.736-10.464 24.421-13.682 32.634l-5.851 14.932 7.775 7.335c13.906 13.118 32.601 24.062 59.515 34.839l14.427 5.777 18.595-1.156c45.777-2.846 85.998-7.397 204.05-23.09 49.602-6.594 81.407-9.25 106.5-8.896l17 .24 9.602-9.495c5.281-5.222 10.142-10.602 10.803-11.956s-1.635.524-5.102 4.174-7.059 6.886-7.983 7.192c-2.937.973-14.475-9.005-12.591-10.89.275-.275 1.246.639 2.159 2.031s2.153 2.531 2.758 2.531c.695 0 .595-.643-.273-1.75-1.248-1.591-1.212-1.624.402-.357.976.766 1.542 1.625 1.259 1.908-.876.876 1.616 3.199 3.431 3.199.945 0 4.603-3.016 8.128-6.703s8.046-8.194 10.047-10.016l3.639-3.313v6.53c0 3.664.535 7.174 1.219 7.998 1.012 1.22-.368 3.055-8.144 10.831l-9.363 9.363 5.424 1.138c4.206.882 5.779.861 7.005-.095 1.366-1.065 1.41-1.014.324.379s-.687 1.835 3 3.277c10.298 4.028 16.521 13.821 12.183 19.171-.866 1.068-1.363 1.491-1.105.941s-.113-1.538-.825-2.195c-2.277-2.103-7.592 15.66-12.027 40.195-2.069 11.446-2.927 13.202-3.818 7.809zm-458.09-3.502c-.652-5.763-6.387-29.922-8.121-34.214-.599-1.482-.089-1.3 2.293.823 6.423 5.723 11.291 22.437 9.853 33.834-.999 7.914-3.105 7.683-4.024-.442zm42.942 5.461c1.1-.275 2.331-1.01 2.735-1.634.466-.72.74-.495.75.616.011 1.274-.733 1.718-2.735 1.634-2.108-.089-2.283-.233-.75-.616zm-4.25-7.958c.962-.252 2.538-.252 3.5 0s.175.457-1.75.457-2.712-.206-1.75-.457zm278.13-4.752c-.304-.793-.342-2.255-.085-3.25.313-1.209.507-.917.585.881.101 2.345.596 2.74 3.866 3.082l3.75.392-3.781.168c-2.492.111-3.97-.323-4.335-1.274zm-286.37-.808c-.012-1.338.749-1.718 3.235-1.614 2.752.115 2.867.207.75.601-1.375.256-2.831.982-3.235 1.614-.472.738-.74.523-.75-.601zm306.25.532c1.52-.23 3.77-.224 5 .014s-.014.425-2.764.418-3.756-.202-2.236-.432zm8.968-3.282c0-1.925.206-2.712.457-1.75s.252 2.538 0 3.5-.457.175-.457-1.75zm-238.91-3.022c-2.847-2.738-4.853-4.978-4.458-4.978s2.693 2.013 5.107 4.472c3.676 3.746 4.644 4.274 5.958 3.25 1.383-1.077 1.406-1.015.197.528-1.67 2.13-.706 2.593-6.803-3.272zm295.45 2.288c2.352-.211 5.952-.208 8 .007s.124.388-4.276.384-6.076-.179-3.724-.391zm-50.544-3.266c0-1.925.206-2.712.457-1.75s.252 2.538 0 3.5-.457.175-.457-1.75zm-62.83-.49c.06-1.216.876-2.069 2.098-2.193 1.439-.146 1.527-.062.311.301-.929.277-1.873 1.264-2.098 2.193-.289 1.189-.381 1.1-.311-.301zm37.988.063c-1.257-3.275.039-6.07 2.873-6.194 2.53-.112 2.551-.085.25.316-3.831.668-3.639 6.002.238 6.589l2.75.417-2.781.15c-1.6.086-3.014-.456-3.329-1.277zm91.277.761c-.367-.367-.667-2.617-.667-5 0-4.189 1.122-5.563 2.596-3.179.464.751.272.881-.552.372-.969-.599-1.179.303-.897 3.846.202 2.545.327 4.628.278 4.628s-.391-.3-.757-.667zm-356.91-2.041c1.244-.239 3.044-.23 4 .02s-.062.446-2.262.435-2.982-.216-1.738-.455zm-33-1c1.244-.239 3.044-.23 4 .02s-.062.446-2.262.435-2.982-.216-1.738-.455zm103.04-.459c1.104-1.412 1.028-1.738-.5-2.134-1.422-.369-1.327-.492.447-.584 2.693-.139 2.903 1.127.5 3.012-1.567 1.229-1.614 1.198-.447-.294zm146.43-1.833c0-1.925.206-2.712.457-1.75s.252 2.538 0 3.5-.457.175-.457-1.75zm152.02 1.311c.962-.252 2.538-.252 3.5 0s.175.457-1.75.457-2.712-.206-1.75-.457zm-34.998-3.811c.011-2.2.216-2.982.455-1.738s.23 3.044-.02 4-.446-.062-.435-2.262zm51.98.5c0-1.925.206-2.712.457-1.75s.252 2.538 0 3.5-.457.175-.457-1.75zm-130.92-5.5c.006-3.3.192-4.529.415-2.732s.218 4.497-.01 6-.41.032-.405-3.268zm-59.548.793c1.244-.239 3.044-.23 4 .02s-.062.446-2.262.435-2.982-.216-1.738-.455zm94.524-3.793c.008-2.75.202-3.756.432-2.236s.224 3.77-.014 5-.425-.014-.418-2.764zm-18.036.784c1.513-.229 3.987-.229 5.5 0s.275.417-2.75.417-4.263-.187-2.75-.417zm51.06-4.784c.006-3.3.192-4.529.415-2.732s.218 4.497-.01 6-.41.032-.405-3.268zm-94.548 2.793c1.244-.239 3.044-.23 4 .02s-.062.446-2.262.435-2.982-.216-1.738-.455zm111.99-1.999c1.237-.238 3.263-.238 4.5 0s.225.433-2.25.433-3.487-.195-2.25-.433zm16.482-3.294c0-1.925.206-2.712.457-1.75s.252 2.538 0 3.5-.457.175-.457-1.75zm-80.47 1.293c1.244-.239 3.044-.23 4 .02s-.062.446-2.262.435-2.982-.216-1.738-.455zm-45.012-3.999c1.237-.238 3.263-.238 4.5 0s.225.433-2.25.433-3.487-.195-2.25-.433zm111-.018c1.788-.222 4.712-.222 6.5 0s.325.403-3.25.403-5.038-.182-3.25-.403zm28.5.034c.962-.252 2.538-.252 3.5 0s.175.457-1.75.457-2.712-.206-1.75-.457zm-105.99-3.028c1.52-.23 3.77-.224 5 .014s-.014.425-2.764.418-3.756-.202-2.236-.432zm29-2c1.52-.23 3.77-.224 5 .014s-.014.425-2.764.418-3.756-.202-2.236-.432zm32.486-2.006c1.788-.222 4.712-.222 6.5 0s.325.403-3.25.403-5.038-.182-3.25-.403zm-178.25-16.389c-27.55-1.134-55.061-4.816-78.158-10.462-8.173-1.998-11.202-2.322-15.5-1.659-9.794 1.511-19.002-2.703-18.779-8.594.044-1.169.341-.982.984.621 5.063 12.616 24.428 5.356 36.868-13.822 4.629-7.136 8.504-12.861 8.611-12.723s.489 2.276.848 4.751c.375 2.58.29 3.947-.198 3.205-.899-1.367-6.161 5.452-6.192 8.024-.012.986-.204.974-.856-.055-.861-1.358-5.102 4.516-5.151 7.134-.033 1.774-3.162 5.518-6.372 7.623l-2.829 1.856 5.258 1.128c52.093 11.172 129.51 12.819 185.74 3.951 6.702-1.057 7.113-1.258 5.244-2.567-2.2-1.541-5.479-7.169-4.656-7.992.766-.766 2.746.713 2.18 1.629-.271.438.284 1.492 1.234 2.341 5.069 4.532 13.373 1.005 17.871-7.59 1.38-2.637 3.493-3.335 3.515-1.161.016 1.512 1.972 3.511 2.884 2.948.45-.278 1.143.022 1.541.666.452.731.29.903-.431.457-.635-.392-1.154-.334-1.154.13 0 15.236 33.397-.395 40.095-18.767 1.114-3.054 2.878-6.086 3.921-6.737 1.843-1.151 1.841-1.055-.06 3.38-1.076 2.51-1.956 5.582-1.956 6.826 0 11.898-22.967 26.957-34.452 22.59-1.997-.759-5.809-.188-16.815 2.519-34.142 8.398-79.039 12.169-123.23 10.351zm129-13.433c6.572-1.403 6.48-1.267 3.221-4.732-2.093-2.225-3.173-2.806-3.491-1.875-.253.741-1.86 2.941-3.571 4.889-2.505 2.853-2.726 3.427-1.134 2.951 1.087-.325 3.326-.88 4.976-1.232zm-345.03 1.295l-5.969-6.25 6.25 5.969c5.806 5.544 6.708 6.531 5.969 6.531-.155 0-2.967-2.812-6.25-6.25zm475.22 2.25l3.185-3.5-2.935-3.266c-3.66-4.073-3.894-6.466-.279-2.85 5.551 5.551 9.357 4.89 15.205-2.641 4.632-5.965 5.008-8.848.617-4.722-2.747 2.581-6.031 3.511-6.98 1.977-.341-.551.072-.716.95-.379 1.187.455 1.552-.099 1.552-2.355 0-4.117 3.234-13.078 7.605-21.07l3.697-6.76-2.401-3.704c-2.165-3.34-5.037-5.498-3.3-2.479.396.688.334.899-.137.471-1.232-1.121-1.46-3.721-.327-3.721 1.58 0 7.543 6.322 8.32 8.82.769 2.473-1.375 11.349-2.563 10.615-.99-.612-7.113 14.402-6.366 15.611.336.543 1.033.726 1.55.406 5.633-3.482 5.834 2.945.324 10.36-4.574 6.156-5.302 6.575-10.764 6.207-2.022-.136-3.931.787-6.5 3.144l-3.638 3.337zm-440.95-3.536c-2.053-1.395-3.79-2.857-3.86-3.25-.508-2.841-.502-5.176.013-4.662.338.338.615 1.122.615 1.742 0 5.803 9.534 5.702 10.99-.117.368-1.472 2.45-6.951 4.627-12.176l3.957-9.5 10.574-4.102-1.397 2.8c-.768 1.54-2.449 3.064-3.736 3.387-2.256.566-8.957 14.324-11.05 22.688-1.418 5.665-5.365 6.838-10.733 3.191zm114.27 1.396c-3.658-1.076-10-5.373-10-6.775 0-.447 2.101.251 4.67 1.551 8.814 4.462 22.005 2.657 29.081-3.98 3.155-2.96 4.79-8.699 2-7.023-.719.432-.612-.035.25-1.098 1.391-1.715 1.545-1.486 2.119 3.129 1.492 12 9.426 15.403 21.659 9.29 8.13-4.063 12.544-9.071 12.012-13.629-.31-2.658-.059-3.331 1.157-3.1 3.962.752 2.541 10.197-2.149 14.277-11.002 9.571-22.439 11.304-29.011 4.396-3.593-3.777-4.04-3.979-5.632-2.538-5.093 4.609-19.142 7.564-26.156 5.501zm81-.36c0-.825.659-1.5 1.464-1.5 1.931 0 8.762-8.308 22.516-27.384 11.45-15.88 12.674-17.359 11.062-13.366-4.142 10.257-6.841 15.63-7.536 14.998-.453-.412-.544.034-.201.99s.252 1.631-.202 1.5-3.648 3.558-7.097 8.197c-11.511 15.482-20.005 22.516-20.005 16.565zm-161.65-.592c-1.732-.502-4.544-2.502-6.25-4.445-3.35-3.815-3.991-5.742-1.607-4.827.822.315 1.282.916 1.024 1.335-2.294 3.711 10.314 6.461 12.728 2.776 3.425-5.227 4.769-6.044 6.849-4.161 1.022.925 1.629 2.051 1.349 2.504-.99 1.602 4.298 4.157 6.252 3.02.992-.577 1.438-1.063.99-1.08s.085-1.718 1.184-3.78c2.781-5.219 10.13-22.05 10.13-23.2 0-.521 1.688-2.18 3.75-3.687s5.653-4.539 7.979-6.738 4.377-3.803 4.557-3.562c.463.618-7.986 12.904-8.512 12.378-1.556-1.556-6.921 8.731-15.543 29.81-1.887 4.614-4.789 4.951-9.788 1.138l-3.424-2.612-3.544 3.112c-1.949 1.711-3.866 3.071-4.259 3.021s-2.132-.501-3.864-1.002zm195.42.198c-2.117-.757-8.912-11.063-8.129-12.33.309-.5.854-.617 1.212-.26.615.615.724.992 1.025 3.542.069.582.645.738 1.279.345.648-.4.885-.278.542.278-.992 1.606 2.229 5.318 4.611 5.313 1.749-.003 3.793-2.689 10.085-13.25 8.501-14.268 21.587-34.746 22.204-34.746.208 0-.771 2.587-2.176 5.75l-4.694 10.75c-1.176 2.75-2.471 5.142-2.876 5.315s-.483.979-.171 1.791.087 1.345-.5 1.185-4.579 5.517-8.873 12.616c-7.647 12.643-9.957 14.981-13.539 13.699zm139.26-.689c-4.57-1.982-6.838-4.123-9.136-8.627-2.216-4.342-2.522-7.031-.482-4.242.776 1.062 1.223 2.235.993 2.607s.953 2.049 2.63 3.725c10.895 10.895 30.196 2.4 39-17.164 3.197-7.104 3.775-7.786 8.15-9.604l4.709-1.957-1.612 3.38c-.886 1.859-1.896 3.204-2.245 2.989-1.26-.779-2.645 1.114-6.311 8.621-8.067 16.525-23.773 25.444-35.697 20.272zm-106.75-.125c-2.929-1.052-10.549-17.291-8.113-17.291.642 0 .888.279.548.619s.039 1.277.843 2.081 1.206 1.875.893 2.381-.065.919.55.919.84.45.5 1-.141 1 .441 1 .947.563.809 1.25.26 1.155.882 1.039 1.073.511 1 1.392c-.152 1.843 1.351 2.625 2.986 1.552.615-.404 3.917-5.684 7.338-11.734 6.788-12.005 20.111-33.642 23.12-37.548 1.632-2.118 1.564-1.565-.492 4.048-2.919 7.969-3.54 9.855-3.49 10.602.022.319-.626 1.102-1.439 1.74-1.221.957-13.426 20.982-19.808 32.501-1.79 3.23-4.621 5.148-6.567 4.449zm108.48-4.999c1.244-.239 3.044-.23 4 .02s-.062.446-2.262.435-2.982-.216-1.738-.455zm-255.56-4.493c-.66-.66-1.2-2.04-1.2-3.066s-.466-2.736-1.035-3.8c-1.291-2.412.204-2.535 2.243-.184 3.101 3.576 3.094 10.152-.008 7.05zm-76.456-.389c-1.087-1.087 3.367-14.94 7.409-23.043 2.691-5.394 3.839-8.817 3.411-10.168-.931-2.935-4.576-7.311-5.574-6.693-.468.289-1.095.131-1.394-.353-2.192-3.547 5.523.467 7.857 4.087.972 1.508 2.144 2.508 2.605 2.223s-.879 3.206-2.979 7.759c-4.748 10.295-8.928 21.919-8.406 23.377.451 1.26-2.065 3.675-2.929 2.811zm119.26-1.293c0-1.153 3.415-9.864 7.589-19.357l9.577-21.876 1.988-4.616 6.069-.634c3.338-.349 12.941-.634 21.341-.634 19.311 0 21.59-1.05 16.878-7.777-1.857-2.651.401-3.321 2.533-.751 5.705 6.874 2.558 11.527-7.798 11.532-4.223.002-14.065.296-21.871.653l-14.193.649-2.005 4.66c-1.103 2.563-3.632 8.183-5.621 12.489-6.391 13.835-10.581 24.588-9.968 25.58.328.531.157.966-.381.966s-1.689.273-2.559.607c-1.132.435-1.582.011-1.582-1.489zm-73.493-.106c-.35-.567.051-.735.941-.393 1.156.444 1.552-.064 1.552-1.993 0-1.424 3.375-9.268 7.5-17.431s7.5-15.57 7.5-16.459c0-2.012-1.686-3.177-2.231-1.542-.26.779-.623.629-1.028-.425-.813-2.12 2.728-1.558 5.396.856 2.5 2.262 2.405 2.854-1.654 10.376-5.411 10.025-11.256 22.346-11.638 24.53-.558 3.19-4.859 4.874-6.337 2.481zm-48.275-4.011c0-1.925.206-2.712.457-1.75s.252 2.538 0 3.5-.457.175-.457-1.75zm136.69-1.751c.478-3.451.548-3.521.877-.877.197 1.58-.037 3.267-.519 3.749-.503.503-.656-.722-.358-2.872zm152.73 1.922c-.91-1.006-1.655-2.181-1.655-2.611s.788.191 1.75 1.38c1.716 2.12 1.743 2.066 1.412-2.757-.367-5.352 1.617-10.194 6.428-15.683 1.446-1.65 2.395-2.545 2.108-1.989-1.137 2.206 6.082 8.171 8.681 7.174.981-.377 1.245.035.891 1.39-.654 2.5-1.241 2.434-5.778-.645-4.178-2.836-3.982-2.938-7.639 3.993-1.467 2.781-1.92 5.037-1.557 7.75.587 4.373-1.629 5.327-4.641 1.998zm49.824 1.016c.216-.216-.034-1.516-.555-2.888-1.249-3.286.201-8.528 4.029-14.565 3.012-4.75 5.047-6.048 5.047-3.22 0 1.906 5.952 5.67 8.123 5.137 1.172-.288 1.487.122 1.133 1.475-.658 2.516-1.928 2.362-5.978-.728-3.282-2.503-3.465-2.532-4.861-.75-2.751 3.51-4.553 8.861-4.217 12.522.273 2.977.011 3.646-1.389 3.54-.949-.072-1.549-.307-1.333-.523zm-256.31-4.631c-.613-2.169-.962-4.096-.776-4.282.661-.661 2.8 5.646 2.349 6.925-.253.715-.961-.474-1.573-2.643zm189.18.914c-.358-.934-1.287-1.308-2.385-.959-.989.314-2.084.107-2.433-.459-.365-.591-.034-.798.778-.487 1.106.424 1.522-.939 1.913-6.261.6-8.168 5.397-22.907 13.282-40.804l7.361-17.271 1.633-4.272-3.387-6.533c-2.189-4.223-3.858-6.352-4.718-6.022-.732.281-1.555.148-1.829-.296s.718-.762 2.205-.706c2.979.111 8.809 7.661 9.893 12.812.424 2.014 1.505 3.02 4.203 3.913 1.998.661 3.144 1.367 2.547 1.567s-2.15-.029-3.452-.51c-2.217-.82-2.578-.395-5.718 6.721-12.844 29.11-17.585 41.965-17.623 47.782-.011 1.752-.289 3.02-.616 2.817s-.57 2.077-.538 5.065c.06 5.7-.148 6.426-1.116 3.903zm-173.1-6.968c-2.768-9.034-2.785-10.532-.18-15.639l2.07-4.057-2.82-5.64c-3.869-7.738-3.916-7.935-1.358-5.665 4.581 4.065 8.533 14.458 6.075 15.977-3.2 1.978-2.349 16.437 1.096 18.596.503.316.117 1.293-.859 2.173-1.67 1.505-1.905 1.17-4.024-5.744zm166.98-.502c0-1.925.206-2.712.457-1.75s.252 2.538 0 3.5-.457.175-.457-1.75zm-340.81-3.25c-4.124-13.085-2.656-28.618 3.891-41.17l3.429-6.58c.365-.708-12.393-.335-13.578.398-.538.333-.466-.482.162-1.811s1.462-2.217 1.856-1.974c1.125.695 32.122-2.621 34.002-3.638 1.567-.847 1.573-.715.084 1.878-1.345 2.344-2.334 2.825-6.185 3.013-5.275.257-6.247 1.215-11.075 10.916-4.314 8.668-6.481 19.639-5.339 27.023 1.714 11.073-4.365 21.09-7.248 11.944zm463.33 2.586c.691-.279.956-1.03.59-1.671s-.298-.831.152-.423 1.535.19 2.41-.483c.975-.75.854-.359-.313 1.009-1.048 1.228-2.398 2.197-3 2.154-.626-.045-.557-.296.161-.585zm13.175-5.573c1.887-2.053 3.65-3.515 3.917-3.248s.295.598.063.735-1.994 1.599-3.917 3.248l-3.495 2.998 3.432-3.733zm-3.525-5.579c3.173-6.261 2.379-12.049-1.49-10.863-.321.098-2.249-1.284-4.285-3.071s-3.262-3.25-2.726-3.25 1.242.43 1.567.956 1.278.693 2.118.37c1.882-.722 9.983 7.668 10.62 10.998.334 1.746-.613 3.205-3.98 6.134l-4.418 3.843zm-409.75-8.031l10.8-22.97c9.585-20.829 7.875-19.18 19.912-19.199 12.747-.019 16.869-4.974 10.511-12.634-1.675-2.018.552-1.644 2.376.399 2.042 2.288 4.021 9.815 3.233 12.297-.738 2.327-2.132 2.654-14.439 3.393-5.199.312-9.783.903-10.185 1.314-1.057 1.079-19.104 39.542-19.154 40.82-.023.591-1.667 2.009-3.654 3.153l-3.613 2.079zm333.34 4.066c-.006-2.707-3.876-8.411-5.166-7.614-.656.405-.866.262-.496-.337.68-1.1-1.652-3.617-2.534-2.735-.284.284-1.085-.17-1.78-1.009-.923-1.113-.948-1.524-.093-1.524 5.865 0 16.052 12.643 11.573 14.362-.974.374-1.501-.027-1.504-1.143zm48 0c-.005-2.497-3.763-8.271-5.189-7.973-.669.14-1.258-.421-1.308-1.246s-.531-1.421-1.07-1.325-2.093-.681-3.455-1.728l-2.476-1.902 3.246.907c7.733 2.16 16.323 12.657 11.784 14.399-1.007.386-1.531-.001-1.534-1.132zm36.267-6.762c-3.045-82.892-219.12-131.42-372.26-83.605-27.383 8.55-68.694 28.599-66.441 32.245.307.497-1.437.904-3.875.904s-5.953.289-7.809.642l-3.375.642 4-3.234c112.17-90.676 429.21-61.172 458.07 42.628 1.327 4.773 2.071 6.042 3.32 5.662.908-.277.738.034-.39.712-1.1.662-4.025 3.147-6.5 5.524l-4.5 4.321zm22.969-1.456c0-1.925.206-2.712.457-1.75s.252 2.538 0 3.5-.457.175-.457-1.75zm-397.11-2.041c-2.408-2.177-3.853-3.959-3.211-3.959s3.062 1.789 5.379 3.975c5.477 5.17 3.553 5.156-2.167-.016zm9.291.291c.5-.885-.216-1.25-2.453-1.25-3.635 0-10.001-5.565-9.896-8.65.054-1.567.199-1.514.948.348 2.175 5.401 10.989 6.424 16.747 1.943 2.543-1.979 2.494-1.808-.687 2.363-3.842 5.04-5.766 7.206-4.66 5.246zm14.28-2.217c-1.015-1.306-.958-1.35.389-.3 1.61 1.255 1.949-7.256.39-9.779-1.242-2.01 1.494-.842 2.972 1.269 3.983 5.687.388 14.131-3.751 8.81zm58.837-.647c-2.445-2.445-1.858-2.886 3.836-2.886 5.002 0 5.303.135 4.451 2-1.134 2.484-6.153 3.021-8.287.886zm27.239-7.111c1.797-.223 4.497-.218 6 .01s.032.41-3.268.405-4.529-.192-2.732-.415zm79.674-.875c.328-1.155 3.513-8.555 7.077-16.444 7.605-16.835 7.37-15.151 3.038-21.729-3.657-5.553-3.241-6.956.777-2.622 2.043 2.204 3.339 2.627 8.41 2.75 5.755.139 5.94.224 4.624 2.12-.996 1.434-2.295 1.895-4.744 1.684-3.13-.27-3.337-.107-2.884 2.262.268 1.404-.214 4.307-1.073 6.452s-1.285 4.176-.947 4.514.088.613-.553.613-1.073.337-.959.75-1.983 4.125-4.66 8.25l-6.785 10.5c-1.286 2.012-1.721 2.309-1.32.9zm29.126-.65c.387-1.238 3.117-7.717 6.067-14.398 6.316-14.304 6.213-13.192 1.95-21.102-3.899-7.234-2.981-8.288 1.582-1.815 2.586 3.668 3.965 4.637 7.977 5.599 5.348 1.283 5.641 3.517.349 2.658-3.41-.553-3.846.405-4.769 10.484-.084.922-.584 1.411-1.109 1.086-.55-.34-.676.138-.297 1.125.391 1.019.257 1.468-.33 1.105-.544-.336-1.045-.134-1.114.448a25.93 25.93 0 0 1-.281 1.809c-.224 1.076-9.804 15.25-10.308 15.25-.231 0-.104-1.012.283-2.25zm-79.288.514c2.629-.207 6.679-.204 9 .006s.17.379-4.78.376-6.849-.175-4.22-.381zm-121.28-4.094c0-3.919-2.008-8.38-3.511-7.803-.635.244-1.155-.189-1.155-.961 0-3.028 7.561 2.604 7.743 5.768.042.73.233 2.156.425 3.169s.086 1.579-.235 1.259-1.187-.082-1.925.531c-1.073.891-1.342.498-1.342-1.962zm97-1.636c0-.256.753-2.044 1.673-3.974 1.729-3.625.573-9.448-1.608-8.101-.51.315-1.252.046-1.65-.598-.452-.731-.29-.903.431-.457 2.397 1.482 1.035-1.327-1.596-3.289-1.512-1.128-2.128-2.066-1.368-2.083 3.847-.088 10.397 8.806 9.878 13.413-.472 4.187-.348 4.471 2.12 4.851 1.442.222.259.472-2.629.554s-5.25-.06-5.25-.316zm-109-16.581c32.068-14.969 171.89-28.4 182.73-17.553 2.456 2.456-1.569 3.603-10.101 2.877-17.337-1.475-76.704-.804-95.133 1.075-32.14 3.278-52.533 7.135-80.108 15.152-1.04.302.133-.395 2.608-1.551zm-69.238-3.661c1.244-.239 3.044-.23 4 .02s-.062.446-2.262.435-2.982-.216-1.738-.455zm15.488-.982c.962-.252 2.538-.252 3.5 0s.175.457-1.75.457-2.712-.206-1.75-.457zm-8-11c.962-.252 2.538-.252 3.5 0s.175.457-1.75.457-2.712-.206-1.75-.457zm43.25-1.311l-8-.633 7.691-.183c4.259-.102 7.967.263 8.309.817s.479.917.309.817-3.909-.468-8.309-.817zm47.639-12.75c-2.385-9.53-2.478-8.967 1.62-9.694 2.058-.365 4.529-.894 5.491-1.177s1.75-.039 1.75.541-1.821 1.347-4.047 1.703c-5.859.937-5.153 3.989.835 3.608 5.341-.34 5.524 1.303.239 2.148-3.786.605-3.945.776-3.375 3.628.886 4.43-1.386 3.745-2.513-.758zm192.61 2.061c-3.676-.961-1.544-2.244 2.75-1.656 5.703.782 6.198-1.456 1-4.523-6.071-3.582-4.004-7.88 3.145-6.539 4.977.934 5.532 2.781.584 1.945-5.382-.909-6.215.802-1.789 3.677 7.558 4.91 3.814 9.578-5.69 7.095zm-176.75-6.83c-1.036-4.989-.748-9.567.52-8.298.258.258.926 2.876 1.483 5.817 1.232 6.496.781 6.064 5.283 5.049 2.05-.462 3.946-.487 4.213-.054s-1.198 1.085-3.255 1.449-4.493.883-5.412 1.152c-1.336.391-1.903-.634-2.834-5.114zm162.25 3.796c-3.625-.45-3.741-.889-2.167-8.227.777-3.622 1.554-5.046 2.75-5.038 3.758.025 9.167 1.312 9.167 2.181 0 .539-1.934.64-4.598.241-4.147-.622-4.563-.505-4.241 1.189.236 1.24 1.372 1.989 3.348 2.205 1.645.18 3.441.795 3.991 1.367.69.718-.496.826-3.829.35-6.145-.878-6.947 3.318-.87 4.553 7.081 1.44 4.76 2.211-3.551 1.18zm-145.99-2.527c.259-.687 1.22-3.837 2.135-7 2.101-7.26 3.283-7.225 8.527.25 2.926 4.172 3.747 6 2.695 6-.833 0-1.911-.71-2.397-1.577-1.24-2.217-7.921-.933-8.75 1.682-.331 1.042-1.069 1.895-1.641 1.895s-.828-.562-.568-1.25zm8.711-5.5c-.047-1.115-2.886-4.672-3.334-4.177-2.012 2.225-1.574 4.927.798 4.927 1.412 0 2.553-.337 2.536-.75zm126.48 5.946c-.547-.383-1.782-1.933-2.744-3.446-2.215-3.481-4.704-3.613-4.704-.25 0 1.636-.559 2.5-1.617 2.5-1.188 0-1.457-.596-1.014-2.25.332-1.238.609-4.163.617-6.5.015-4.767 1.087-5.19 8.164-3.225 4.587 1.274 5.571 3.578 2.792 6.536-1.771 1.885-1.925 2.604-.947 4.43 1.266 2.365 1.031 3.309-.547 2.204zm.207-8.739c.752-1.96.379-2.3-3.336-3.043-2.899-.58-5.357 2.214-3.544 4.028 1.218 1.218 6.314.488 6.88-.985zm-113.35 5.577c6.598-1.277 7.438-4.972 1.14-5.019-3.493-.026-6.131-2.589-4.837-4.699 1.372-2.237 6.671-3.848 9.09-2.763 1.401.629.912.938-2.184 1.379-5.77.821-5.791 3.31-.041 4.848 7.539 2.016 5.736 7.311-2.418 7.105l-4.55-.115 3.801-.736zm94.409-1.034c-.654-2.502-7.425-2.907-8.349-.5-.522 1.36-3.362 2.2-3.362.995 0-1.512 7.689-12.495 8.747-12.495.689 0 1.253.171 1.253.381s1.121 3.36 2.491 7c1.91 5.074 2.17 6.619 1.117 6.619-.756 0-1.61-.9-1.898-2zm-2.172-6.702c-.674-2.686-.757-2.719-2.12-.855-1.858 2.541-1.789 3.329.331 3.8 2.416.537 2.591.25 1.789-2.945zm-78.705 2.786l-.25-6.583c-.154-2.774 1.913-2.031 2.238.804.302 2.631.579 2.785 4.5 2.5 3.9-.284 4.159-.487 3.89-3.054-.202-1.933.169-2.75 1.25-2.75 1.226 0 1.538 1.318 1.538 6.5 0 3.667-.436 6.5-1 6.5-.55 0-1-1.35-1-3 0-2.721-.302-2.999-3.25-2.985-4.298.02-5.848 1.128-5.52 3.946.148 1.275-.293 2.518-.98 2.762-.882.313-1.299-1.055-1.417-4.64zm24.162.667c-.003-2.24-.951-4.26-3.051-6.5-1.828-1.95-2.496-3.25-1.67-3.25.757 0 2.458 1.151 3.779 2.558l2.403 2.558 2.695-3.301c1.482-1.816 3.01-2.986 3.396-2.6s-.48 2.105-1.923 3.82c-1.714 2.037-2.624 4.306-2.624 6.542 0 2.376-.459 3.423-1.5 3.423-1.025 0-1.502-1.03-1.505-3.25zm23.714-3.164c-2.072-7.775-2.088-8.145-.287-6.651.782.649 1.722 2.954 2.088 5.122.856 5.066 1.568 4.962 3.839-.561 1.403-3.411 4.651-6.35 4.651-4.208 0 .159.816 2.606 1.814 5.439l1.814 5.15 1.849-5.439c1.731-5.093 3.524-7.165 3.524-4.072 0 8.83-6.223 13.488-8.572 6.416l-1.733-5.217-2.554 5.217c-3.316 6.772-4.36 6.578-6.432-1.197zm-60.947-30.293c1.244-.239 3.044-.23 4 .02s-.062.446-2.262.435-2.982-.216-1.738-.455zm92 0c1.244-.239 3.044-.23 4 .02s-.062.446-2.262.435-2.982-.216-1.738-.455zm-76.512-1.009c1.512-.229 3.988-.229 5.5 0s.275.417-2.75.417-4.262-.187-2.75-.417zm58.5-.007c1.788-.222 4.712-.222 6.5 0s.325.403-3.25.403-5.038-.182-3.25-.403zm-30.022-.998c1.775-.221 4.925-.225 7-.008s.622.397-3.228.402-5.548-.173-3.772-.394zm-189.73-43.367c-25.451-2.813-37.818-10.165-39.402-23.425-.328-2.743-.337-4.436-.022-3.762s.522 1.48.46 1.791c-.264 1.31 8.617 8.781 13.196 11.102 21.005 10.644 63.466 9.854 167.77-3.12 208.74-25.966 272.25-27.277 277.66-5.73.722 2.876-2.225 9.421-4.431 9.84-.701.133-.879.036-.395-.217 3.547-1.855-2.263-9.725-8.723-11.815-16.22-5.248-71.082-7.113-110.61-3.758-38.45 3.263-112.24 11.618-160 18.118-74.239 10.103-114.15 13.336-135.5 10.977zm264-6.27c0-2.925 6.251-13.641 7.958-13.641 1.123 0 2.042.477 2.042 1.059s-.52.738-1.154.345c-.708-.437-.883-.275-.454.42.385.624.165 2.156-.49 3.404-1.133 2.162-7.902 9.367-7.902 8.412zm13.791-4.618c11.842-9.874 41.202-12.245 80.709-6.518 28.934 4.194 33.025 4.282 49.246 1.058 2.149-.427 2.184-.328.825 2.301-3.102 5.998-16.423 6.806-43.071 2.614-30.109-4.737-52.002-5.006-74.5-.915-5.225.95-10.288 1.759-11.25 1.796s-1.75.423-1.75.855-.562.771-1.25.752-.219-.893 1.041-1.943zm-258.04-17.523c-.263-1.375-.09-2.5.383-2.5s.861 1.125.861 2.5-.173 2.5-.383 2.5-.598-1.125-.861-2.5zm-14.492.782c1.52-.23 3.77-.224 5 .014s-.014.425-2.764.418-3.756-.202-2.236-.432zm34.736-5.109c0-.455 1.35-.629 3-.387s3 .614 3 .827-1.35.387-3 .387-3-.372-3-.827zm40.402-1.673c.066-1.339.846-2.044 2.364-2.133 1.761-.103 1.83-.034.311.311-1.075.245-2.138 1.204-2.364 2.133-.286 1.178-.38 1.084-.311-.311zm339.25-2.19c-2.082-12.601 2.226-38.971 8.725-53.402.558-1.239-.621-2.193-5.32-4.302-21.633-9.708-77.048-8.761-169.56 2.899l-152.5 17.924c-68.506 7.054-114.6 6.767-135.56-.843-14.549-5.281-20.764-14.78-12.474-19.067 3.958-2.047 4.035-2.011 4.035 1.893 0 6.106 7.9 10.401 26.029 14.15 8.655 1.79 56.917 3.093 53.471 1.444-1.1-.527-6.95-3.029-13-5.561-19.248-8.056-36.475-18.302-49.232-29.282-3.937-3.389-7.548-6.161-8.023-6.161s-3.312-2.276-6.304-5.057l-5.44-5.057 6.195 4.216c8.724 5.936 8.745 5.914 18.266-19.112 7.395-19.439 11.385-29.135 17.394-42.268 3.279-7.166 1.686-17.718-2.302-15.254-.504.311-1.241.039-1.639-.605-.431-.698-.292-.904.345-.51.588.363 1.22.257 1.404-.237.415-1.11 21.447-2.859 45.172-3.756 20.99-.794 21.141-.86 19.152-8.402-1.787-6.774.384-6.26 2.598.615 3.135 9.739 3.773 9.463-25.493 11.029l-30.861 1.947-6.768.658 2.018 3.265c2.832 4.583 2.839 4.551-5.365 23.751-4.06 9.503-10.222 24.895-13.692 34.205l-6.31 16.927 6.635 6.163c13.187 12.25 36.689 25.633 60.674 34.55l11.424 4.247 18.598-1.156c45.442-2.825 87.649-7.6 204.05-23.088 49.371-6.569 81.288-9.243 106.5-8.923l17 .215 8.961-8.671c7.015-6.788 8.698-8.934 7.75-9.882-2.537-2.537-1.035-2.572 3.423-.08 16.18 9.043 32.088-3.777 25.459-20.518-2.552-6.446-2.678-12.411-.343-16.381 1.727-2.938 1.708-3.055-1.473-8.904-3.846-7.072-2.747-7.927 1.512-1.177 4.284 6.79 4.52 8.297 2.143 13.673l-2.1 4.748 2.252 6.87c1.239 3.779 2.563 6.678 2.943 6.443 1.078-.666-1.03 9.623-2.59 12.639-3.037 5.873-11.198 9.546-18.865 8.489-3.955-.545-4.288-.353-11.704 6.731l-7.633 7.292 5.552 1.164c4.333.909 5.899.894 7.133-.068 1.366-1.065 1.41-1.013.324.379s-.687 1.834 3 3.277c10.298 4.028 16.521 13.821 12.183 19.171-.866 1.068-1.363 1.491-1.105.941s-.113-1.538-.825-2.195c-2.277-2.103-7.592 15.66-12.027 40.195-2.069 11.446-2.927 13.202-3.818 7.81zm-458.09-3.502c-.652-5.762-6.387-29.922-8.121-34.214-.599-1.483-.089-1.3 2.293.823 6.423 5.723 11.291 22.437 9.853 33.834-.999 7.914-3.105 7.683-4.024-.442zm263.44.809c0-.211 1.125-.598 2.5-.861s2.5-.09 2.5.383-1.125.861-2.5.861-2.5-.173-2.5-.383zm-46-1.617l-2.5-.801 2.75-.1c1.512-.055 2.75.35 2.75.9s-.113.955-.25.9-1.375-.46-2.75-.9zm88.116-5.25c.082-1.594.246-1.758.561-.561.245.929 1.43 1.88 2.634 2.114 1.802.35 1.702.449-.561.562-2.256.112-2.729-.268-2.634-2.114zm-262.85-.468c1.52-.23 3.77-.224 5 .014s-.014.425-2.764.418-3.756-.202-2.236-.432zm379 0c1.52-.23 3.77-.224 5 .014s-.014.425-2.764.418-3.756-.202-2.236-.432zm-64.514-1.988c1.237-.238 3.263-.238 4.5 0s.225.433-2.25.433-3.487-.195-2.25-.433zm-228.5-2.984c.962-.252 2.538-.252 3.5 0s.175.457-1.75.457-2.712-.206-1.75-.457zm186.98-2.311c0-1.925.206-2.712.457-1.75s.252 2.538 0 3.5-.457.175-.457-1.75zm-210.23-.5c0-1.375.388-2.5.861-2.5s.646 1.125.383 2.5-.65 2.5-.861 2.5-.383-1.125-.383-2.5zm256.26-2.218c1.52-.23 3.77-.224 5 .014s-.014.425-2.764.418-3.756-.202-2.236-.432zm13.968-2.282c0-1.925.206-2.712.457-1.75s.252 2.538 0 3.5-.457.175-.457-1.75zm-33.98-1.5c.011-2.2.216-2.982.455-1.738s.23 3.044-.02 4-.446-.062-.435-2.262zm-127.56-1.148c1.204-.261 2.415-1.235 2.693-2.164.363-1.215.447-1.128.301.311-.138 1.358-1.002 2.053-2.693 2.164-2.087.137-2.135.087-.301-.311zm150.56-2.042c.962-.252 2.538-.252 3.5 0s.175.457-1.75.457-2.712-.206-1.75-.457zm-43.838-4.551c3.212-2.469 1.344-5.042-3.337-4.595-2.149.205-3.694.027-3.432-.396.865-1.399 7.089-.797 8.426.815 1.464 1.764.349 4.482-2.141 5.221-.786.233-.568-.237.484-1.046zm-40.162-1.449c.962-.252 2.538-.252 3.5 0s.175.457-1.75.457-2.712-.206-1.75-.457zm71.134-1.752c-.304-.793-.342-2.255-.085-3.25.313-1.208.507-.914.585.884.104 2.418.549 2.731 4.366 3.075l4.25.383-4.281.175c-2.93.12-4.456-.28-4.835-1.267zm85.537-4.808c-.298-2.15-.145-3.375.358-2.872.482.483.716 2.17.519 3.749-.33 2.644-.399 2.574-.877-.877zm-96.649-1.751c0-2.475.195-3.488.433-2.25s.238 3.262 0 4.5-.433.225-.433-2.25zm15.978 1.284c1.513-.229 3.987-.229 5.5 0s.275.417-2.75.417-4.263-.187-2.75-.417zm-72.986-1.001c1.52-.23 3.77-.224 5 .014s-.014.425-2.764.418-3.756-.202-2.236-.432zm105.5.01c1.244-.239 3.044-.23 4 .02s-.062.446-2.262.435-2.982-.216-1.738-.455zm-70-4c1.244-.239 3.044-.23 4 .02s-.062.446-2.262.435-2.982-.216-1.738-.455zm25.488-1.982c.962-.252 2.538-.252 3.5 0s.175.457-1.75.457-2.712-.206-1.75-.457zm17-1.027c1.513-.229 3.987-.229 5.5 0s.275.417-2.75.417-4.263-.187-2.75-.417zm26.512-.991c1.244-.239 3.044-.23 4 .02s-.062.446-2.262.435-2.982-.216-1.738-.455zm-176.26-16.326c-30.052-1.556-56.138-5.573-85.5-13.169-10.725-2.774-21.064-5.275-22.977-5.557-3.59-.53-14.023-7.492-14.023-9.358 0-.579 2.198.56 4.884 2.531 6.159 4.521 7.925 4.473 11.46-.309 1.564-2.116 5.957-6.936 9.762-10.711l6.917-6.864-1.623 4.131c-.892 2.272-4.702 7.438-8.466 11.481-8.021 8.614-8.377 7.898 5.565 11.193 70.285 16.611 160.65 16.842 226 .579 11.662-2.902 11.408-2.736 7.726-5.067-1.774-1.124-3.241-2.336-3.258-2.695-.159-3.261-2.919-4.323-5.836-2.246-10.93 7.783-25.184 7.806-27.648.044-.781-2.461-1.582-2.448-4.791.076-8.961 7.049-22.979 7.073-28.412.048-1.7-2.198-1.569-2.94.468-2.641.962.141 1.75.889 1.75 1.661 0 6.5 21.535 2.761 27.457-4.768l1.774-2.255.967 3.214c.532 1.768 1.526 3.09 2.209 2.939s.976.156.651.682c-3.897 6.305 14.338 4.799 23.211-1.917l4.953-3.749 1.741 3.947c1.18 2.674 2.209 3.768 3.191 3.391.797-.306 1.187-.131.866.388-1.139 1.842 4.471 4.318 9.782 4.318 11.552 0 23.405-10.266 28.242-24.46 1.322-3.881 2.148-4.721 6.412-6.522l4.894-2.068-1.085 2.382c-.597 1.31-1.49 2.382-1.984 2.382s-.652.399-.35.887-.213.825-1.143.75c-1.175-.095-2.955 2.395-5.827 8.155-7.097 14.23-16.771 21.563-28.262 21.426-3.134-.038-9.523.98-14.198 2.262-36.393 9.976-101.68 18.831-120.5 16.345-.55-.073-7.3-.458-15-.857zm257.46-12.217c2.452-2.613 4.59-4.75 4.75-4.75.751 0-.043.898-4.458 5.042l-4.75 4.458zm-476.01-.5l-3.446-3.75 3.75 3.446c3.49 3.208 4.21 4.054 3.446 4.054-.167 0-1.855-1.687-3.75-3.75zm131.41-5.113c-1.728-1.086-3.44-2.459-3.807-3.052-1.146-1.853-1.499-5.17-.484-4.542.53.328.742.955.471 1.393-1.028 1.663 3.632 4.375 8.288 4.822 5.21.501 12.172-3.832 12.172-7.575 0-1.456.149-1.462 1.552-.058 5.833 5.833-10.434 13.891-18.193 9.013zm42.028-2.195c-4.284-3.37-7.348-6.898-7.334-8.442.005-.55.691-.1 1.524 1s2.281 2.021 3.218 2.047 1.609.535 1.493 1.131c-.41 2.112 3.677 4.833 5.519 3.675.93-.585 5.006-9.341 9.057-19.458 8.286-20.695 7.757-19.672 9.351-18.078 1.565 1.565 3.094 1.519 2.182-.067-.418-.726-.338-.901.191-.417.501.458.949 1.133.997 1.5.272 2.101 1.769 4.065 2.673 3.506.613-.379.753-.168.336.506-.392.635-.309 1.155.185 1.155.801 0 3.219 4.24 3.219 5.644 0 .302-1.981-1.631-4.402-4.297s-4.613-4.622-4.87-4.347-3.512 8.15-7.231 17.5c-8.894 22.36-9.3 22.799-16.11 17.442zm37.945-.276c-2.988-2.739-3.345-3.447-1.997-3.964.962-.369 1.543-.166 1.403.492-1.567 7.386 7.947 3.656 10.702-4.196 3.113-8.87 7.031-18.729 11.823-29.748l4.023-9.25h5.48c4.757 0 5.315.198 4.235 1.5-.685.825-2.666 1.5-4.403 1.5-3.351 0-7.917 9.314-17.686 36.081-4.548 12.461-6.853 13.748-13.579 7.584zm37.813 1.264c-6.117-2.45-9.903-6.687-11.552-12.93-.363-1.375.367-.495 1.623 1.955 9.779 19.076 40.127 5.268 43.488-19.787.453-3.379 1.235-4.524 4.619-6.763 2.24-1.483 6.287-4.766 8.993-7.297l4.919-4.602-4.301 6.747c-2.366 3.711-4.695 6.747-5.177 6.747s-.6.445-.264.989.025.781-.691.528c-2.24-.792-4.409 1.799-5.645 6.74-5.05 20.194-22.056 33.263-36.012 27.673zm190.19.004c-3.414-1.022-8.333-6.118-8.333-8.633 0-1.256.28-1.314 1.489-.31.819.68 1.255 1.615.968 2.078-1.102 1.783 4.781 4.309 9.856 4.232 6.299-.095 8.459-2.28 20.187-20.425 6.805-10.528 8.046-11.983 8.306-9.736.279 2.405-3.593 9.394-7.579 13.679-2.3 2.473-4.322 7.214-3.607 8.459.386.671.344.898-.092.504s-2.075 1.052-3.64 3.214c-4.762 6.573-10.798 8.958-17.554 6.936zm-363.83-2.097c-4.488-2.328-7.5-4.731-7.5-5.983 0-.46 2.187.51 4.861 2.155 6.202 3.816 6.334 3.801 10.849-1.244 2.085-2.329 6.634-7.167 10.109-10.75l6.319-6.515-2.183 4.5c-2.089 4.306-10.076 14.561-14.214 18.25-2.461 2.194-3.295 2.152-8.241-.413zm-35.75-3.186c-4.203-3.769-7.024-7.783-3.294-4.687.801.665 1.875.95 2.387.633s1.487.095 2.166.914.901 1.489.491 1.489-.185.675.5 1.5c3.125 3.765 9.098.747 21.788-11.007 4.008-3.713 7.45-6.58 7.649-6.372 1.213 1.273-3.378 8.053-8.037 11.869-14.006 11.47-16.504 12.068-23.65 5.661zm363.84-.785c-2.583-2.274-4.481-4.694-4.219-5.378s-.05-1.85-.694-2.589-.17-.51 1.055.512 2.004 2.218 1.731 2.658c-.555.898 5.638 5.932 7.298 5.932.587 0 5.219-4.5 10.294-10 10.583-11.469 10.999-11.671 10.815-5.25-.076 2.644-.339 3.673-.593 2.321-.418-2.22-1.202-1.639-9.114 6.754-9.91 10.512-10.242 10.613-16.572 5.041zm-260.54-2.815c-.799-.505-1.78-.716-2.181-.468s-1.054-.077-1.452-.72c-.453-.734-.29-.903.438-.453.639.395 1.312.127 1.497-.595 1.655-6.486 4.513-13.163 8.314-19.424 4.365-7.19 4.839-11.926.973-9.718-.625.357-.803.281-.395-.169.888-.98-1.134-3.687-2.241-3.002-.425.263-1.314-.174-1.976-.971-2.226-2.682 3.063-.818 6.231 2.196 5.244 4.989 5.284 5.704.727 12.92-5.035 7.972-8.101 14.923-8.207 18.604-.044 1.512-.123 2.743-.177 2.735s-.751-.429-1.55-.934zm122.95-.364c0-.172 1.462-1.635 3.25-3.25l3.25-2.937-2.937 3.25c-2.738 3.03-3.563 3.71-3.563 2.937zm204.32-1.345c.362-.362.275-1.149-.193-1.75-1.981-2.543-2.296-8.051-.361-6.299.982.889 1.888 2.849 2.012 4.356s.787 3.096 1.472 3.53c.81.514.4.796-1.172.806-1.329.008-2.121-.281-1.759-.643zm-25.325-3.159c0-4.203 3.352-14.141 7.236-21.454 2.983-5.616 2.874-12.151-.171-10.269-.51.315-1.252.046-1.65-.598-.452-.731-.29-.903.431-.457.635.392 1.154.264 1.154-.286 0-1.001-1.913-2.574-3.167-2.603-.367-.008-.99-.339-1.385-.734s.355-.515 1.667-.266c2.639.501 7.56 5.798 8.461 9.107.366 1.344-.69 4.646-2.877 9-1.9 3.782-4.266 9.577-5.258 12.877-2.3 7.653-4.441 10.392-4.441 5.683zm-133 1.504c0-.172 1.462-1.635 3.25-3.25l3.25-2.937-2.937 3.25c-2.738 3.03-3.563 3.71-3.563 2.937zm22.766-1.255c-1.008-1.008 1.133-6.939 9.609-26.628l8.312-19.305 8.907-.644c4.899-.354 14.607-.692 21.575-.75 16.797-.14 17.859-.694 14.326-7.47-1.994-3.824-1.883-4.298.501-2.141 2.633 2.383 4.235 8.207 2.929 10.648-.878 1.64-2.307 1.858-12.209 1.862-6.168.002-16.244.294-22.39.649l-11.175.644-5.654 12.973c-7.446 17.087-11.795 27.938-11.813 29.48-.016 1.273-1.887 1.712-2.916.683zm33.691-.363c.316-.512.118-1.214-.441-1.559-1.742-1.077-1.099-6.792 1.352-12.01 2.598-5.53 6.632-9.957 6.632-7.277 0 1.977 2.135 3.716 6.335 5.16 2.48.852 3.199 1.586 2.76 2.813-.516 1.441-1.179 1.261-5.019-1.362l-4.424-3.022-1.805 2.345c-2.689 3.494-4.143 8.631-3.523 12.453.42 2.59.197 3.392-.946 3.392-.823 0-1.237-.419-.921-.931zm-64.168-4.191c.304-2.267 3.75-10.42 7.657-18.117 5.568-10.969 6.856-14.294 5.956-15.378-1.406-1.694.229-1.851 1.897-.183 2.179 2.179 1.273 5.174-5.8 19.158-3.85 7.612-7 14.921-7 16.241 0 1.553-.576 2.4-1.632 2.4-1.334 0-1.531-.751-1.079-4.122zm-308.06-1.597c-6.507-15.204-5.04-34.315 3.72-48.479l2.906-4.698-4.598-.302c-5.777-.379-7.135-2.793-1.588-2.822 2.108-.011 9.425-.682 16.259-1.491s12.636-1.261 12.892-1.004c1.436 1.436-2.53 3.516-6.706 3.516-10.207 0-21.59 31.283-16.357 44.952.709 1.852.369 3.906-1.393 8.402-2.982 7.609-2.742 7.519-5.135 1.927zm256.92 1.261c-2.315-6.401 6.161-22.493 9.921-18.835.981.954.502 2.024-2.295 5.119-4.527 5.011-6.318 10.184-4.916 14.205.788 2.259.737 2.97-.212 2.97-.686 0-1.81-1.556-2.498-3.458zm160.85 3.146c0-.172 1.462-1.635 3.25-3.25l3.25-2.937-2.937 3.25c-2.738 3.03-3.563 3.71-3.563 2.937zm-361.75-2.289c.962-1.131 1.75-2.333 1.75-2.672s2.5-6.082 5.557-12.761c5.365-11.725 6.082-19.332 1.558-16.536-.439.271-2.297-1.054-4.129-2.944-5.188-5.353.133-3.767 5.704 1.701 5.936 5.826 5.957 6.279.789 17.436l-4.575 9.878 6.287-6c3.458-3.3 4.717-4.272 2.798-2.161-3.831 4.216-18.56 17.372-15.739 14.059zm59.75-3.173c0-.674.477-1.225 1.059-1.225s.735-.562.34-1.25-.339-.905.125-.482c.843.766 7.476-4.955 7.476-6.449 0-.434 1.376-3.026 3.059-5.76 2.408-3.913 2.842-5.376 2.041-6.873-1.06-1.981-6.115-5.772-7.253-5.44-.36.105-1.187-.452-1.839-1.237-2.357-2.84 2.884-.731 7.42 2.985 5.328 4.366 5.981 5.835 4.14 9.32-1.811 3.427-16.566 18.045-16.566 16.412zm304.02-3.975c-.009-.687.461-1.25 1.043-1.25s.738-.52.345-1.155c-.403-.652-.278-.885.288-.536 2.165 1.338 10.308-10.359 10.308-14.808 0-2.646-1.605-4.239-2.281-2.264-.238.694-.318.491-.178-.453s-.825-2.879-2.144-4.302c-4.384-4.73-2.475-3.984 2.603 1.016 3.336 3.286 5 5.751 5 7.409 0 2.474.015 2.47 3.75-.962l3.75-3.446-3.432 3.735c-1.887 2.054-3.584 3.583-3.77 3.397s-3.697 3.083-7.803 7.265-7.471 7.041-7.48 6.353zm-328.62-1.5c-.396-.687-.341-.906.122-.486s2.222-.48 3.91-2l3.069-2.764-2.937 3.25c-3.365 3.723-3.214 3.651-4.164 2zm343.04-5.495c2.164-2.32 4.189-3.964 4.498-3.655s-.216 1.134-1.169 1.831-1.515 1.56-1.248 1.918.18.422-.191.142-1.834.501-3.25 1.736-.803.347 1.361-1.972zm-161.94 1.177c-3.666-1.902-5.059-3.205-4.27-3.995.328-.328 1.761.167 3.185 1.1s3.431 1.476 4.46 1.207c1.439-.376 1.758-.056 1.382 1.384-.593 2.266-.933 2.288-4.757.305zm115.5-.431l-2.5-.801 2.75-.1c1.513-.055 2.75.35 2.75.9s-.112.955-.25.9-1.375-.46-2.75-.9zm-288.46-4.75c.861-2.062 2.217-4.747 3.013-5.965 1.619-2.475 1.942-6.285.532-6.285-.504 0-1.105.338-1.336.75s-.295.22-.143-.427c.321-1.365-2.01-3.584-2.865-2.729-.317.317-1.108-.416-1.758-1.629-1.368-2.555-.985-2.398 5.769 2.372 5.724 4.043 5.623 6.15-.688 14.455-3.272 4.306-4.442 4.055-2.524-.542zm117.52.857c-.637-1.19-1.554-1.918-2.038-1.619s-1.206.017-1.604-.626c-.478-.773-.288-.901.561-.377.861.532 1.118.336.78-.595-.278-.764-1.044-1.266-1.704-1.114s-.902-.206-.539-.794c.766-1.24-1.363-4.191-2.512-3.481-.425.263-1.254-.101-1.842-.81-.835-1.007-.26-1.33 2.637-1.484 2.038-.108 5.811-.461 8.384-.785 4.29-.54 4.636-.427 4.166 1.37-.282 1.077-1.037 1.944-1.678 1.926-8.108-.226-8.723.715-3.847 5.884 1.208 1.28 1.673 2.603 1.189 3.385-.59.955-1.09.73-1.951-.88zm-79.557-6.107c2.148-2.2 4.131-4 4.406-4s-1.258 1.8-3.406 4-4.131 4-4.406 4 1.258-1.8 3.406-4zm263.85.357c-.183-3.013-3.134-7.612-4.387-6.837-.52.321-.702-.048-.406-.819.34-.887-.676-2.001-2.761-3.029-1.916-.944-2.581-1.636-1.585-1.649 3.344-.044 11.785 9.138 11.785 12.821 0 2.215-2.509 1.754-2.645-.486zm-223.11-2.343c-1.623-2.598-1.578-3.539.101-2.145.738.613 1.608.848 1.932.524s.343.354.041 1.509c-.666 2.548-.558 2.542-2.075.112zm108.9-1.514c.418-1.472-2.105-5.64-3.058-5.052-.937.579-4.663-3.202-3.903-3.962.697-.697 6.899 3.639 8.203 5.736.789 1.269.729 2.059-.228 3-.714.703-1.171.828-1.015.278zm-83.141-3.673c0-.455 1.35-.827 3-.827s3 .174 3 .387-1.35.585-3 .827-3 .068-3-.387zm13.762-1.534c1.244-.239 3.044-.23 4 .02s-.062.446-2.262.435-2.982-.216-1.738-.455zm34.238-1.293l-3.5-.737 3.75-.132c2.063-.072 3.75.318 3.75.868s-.113.941-.25.868-1.825-.463-3.75-.868zm225.45-2.559c-31.307-96.462-309.71-126.65-430.2-46.644-4.784 3.176-16.177 6.112-18.061 4.654-4.098-3.172 47.528-27.631 77.312-36.627 142.42-43.022 359.79-2.248 378.15 70.937.845 3.365-6.172 10.849-7.201 7.68zm-411.56-.938c-1.434-.779-3.346-2.545-4.25-3.925-2.313-3.53-2.047-4.361.4-1.25 5.763 7.327 18.957 2.288 18.957-7.24 0-3.731-2.488-8.522-3.955-7.615-.45.278-1.359-.146-2.021-.943-2.159-2.602 3.113-.846 5.936 1.977 9.07 9.07-3.703 25.174-15.067 18.997zm137.79-.288c1.312-.834 2.913-4.373 10.897-24.087 6.248-15.428 5.719-21.628-1.846-21.628-.589 0-1.259-.562-1.488-1.25-.546-1.637.785-1.538 3.123.232 1.519 1.15 5.016 1.308 18.5.835 33.061-1.159 76.598 3.511 109.38 11.733 8.465 2.123 12.723 4.629 4.866 2.864-17.646-3.965-52.996-8.498-73.616-9.441-7.15-.327-14.125-.824-15.5-1.104-2.294-.468-2.19-.225 1.25 2.945 4.828 4.448 4.924 3.802-3.192 21.257l-6.942 14.929 4.192.6c3.511.502 3.055.622-2.808.735-3.85.074-6.532-.196-5.961-.6s2.309-3.603 3.861-7.108l7.26-15.807c4.945-10.512 4.924-11.572-.321-15.747-2.022-1.61-3.299-2.285-2.836-1.5s-.12.585-1.294-.444c-1.987-1.742-5.21-1.686-5.209.09 0 .43-2.308.621-5.13.426-8.075-.559-20.3.826-18.975 2.15 1.896 1.896 1.302 4.042-5.895 21.276-3.85 9.219-7 17.362-7 18.096 0 .841-1.2 1.328-3.25 1.318-1.849-.009-2.738-.341-2.063-.77zm108.01-1.182c-1.036-1.332-.97-1.359.508-.202 1.717 1.345 1.798-.62.331-8.081-.401-2.037.777-2.3 2.239-.5 2.012 2.477 1.952 10.605-.077 10.452-.995-.075-2.345-.826-3.001-1.669zm-90.692.577c0-.215 1.543-.571 3.43-.791s3.21-.044 2.941.391c-.484.783-6.371 1.153-6.371.4zm108.13-1.359c-.837-1.563-.378-1.75 4.303-1.75 4.497 0 5.175.248 4.785 1.75-.334 1.285-1.478 1.75-4.303 1.75-2.641 0-4.142-.549-4.785-1.75zm-18.881-5.75c.011-2.2.216-2.982.455-1.738s.23 3.044-.02 4-.446-.062-.435-2.262zm26.748 1.5l-2.5-.801 2.75-.1c1.513-.055 2.75.35 2.75.9s-.112.955-.25.9-1.375-.46-2.75-.9zm34.728-2.722c1.775-.221 4.925-.225 7-.008s.622.397-3.228.402-5.548-.173-3.772-.394zm-33.728-4.665c0-.213 1.326-.581 2.947-.819s2.719-.064 2.441.387c-.496.802-5.388 1.195-5.388.433zm23.151-2.284c3.901-1.036 4.838-12.408.952-11.555-.689.151-1.008-.121-.709-.605.642-1.039-3.778-5.453-4.619-4.613-.317.317-.858.119-1.202-.439-1.227-1.986 3.781-.154 6.376 2.333 1.436 1.375 4.397 3.193 6.581 4.04 2.562.993 2.986 1.347 1.195.998-2.56-.499-2.726-.343-2.137 2.004 1.11 4.424-1.314 8.525-4.959 8.39-1.721-.064-2.386-.313-1.477-.554zm30.61-2.037c1.244-.239 3.044-.23 4 .02s-.062.446-2.262.435-2.982-.216-1.738-.455zm-397.33-4.029c0-1.395.771-1.896 3.036-1.969 1.875-.06 2.281.1 1.061.42-1.086.285-2.452 1.171-3.036 1.969-.886 1.212-1.061 1.143-1.061-.42zm120.74-4.194c5.271-3.409 43.102-12.018 69.903-15.907l18.575-2.695-.957 2.516c-.883 2.319-1.515 2.539-8.075 2.809-17.157.706-63.927 8.812-79.117 13.713-1.727.557-1.772.497-.328-.436zm-64.922-3.759c.962-.252 2.538-.252 3.5 0s.175.457-1.75.457-2.712-.206-1.75-.457zm15.512-1.018c1.244-.239 3.044-.23 4 .02s-.062.446-2.262.435-2.982-.216-1.738-.455zm17.502-1.01c1.52-.23 3.77-.224 5 .014s-.014.425-2.764.418-3.756-.202-2.236-.432zm-11.514-10.988c1.238-.238 3.262-.238 4.5 0s.225.433-2.25.433-3.488-.195-2.25-.433zm22.5-1.01c1.512-.229 3.988-.229 5.5 0s.275.417-2.75.417-4.262-.187-2.75-.417zm46.53-6.838c-.731-.731 2.18-12.771 3.371-13.946.68-.67 2.006.154 4.023 2.5 4.486 5.218 6.181 7.979 5.387 8.773-.391.391-1.123-.026-1.627-.927-1.118-1.998-8.934-.496-8.934 1.717 0 1.454-1.434 2.67-2.221 1.884zm8.221-7.408c0-2.013-3.743-4.151-4.376-2.5-1.218 3.175-.7 4.199 1.876 3.706 1.375-.263 2.5-.806 2.5-1.206zm192.98 4.022c.787-2.745.633-2.982-2.32-3.575-1.74-.349-3.892-.838-4.783-1.086-1.163-.324-1.794.42-2.238 2.641-.34 1.701-1.024 2.841-1.521 2.535-1.115-.689 1.758-12.575 3.04-12.575.503 0 .785 1.21.627 2.688-.251 2.341.163 2.788 3.212 3.466 4.44.987 6 .435 6-2.122 0-1.117.506-2.031 1.125-2.031.744 0 .891 1.101.436 3.25a219.63 219.63 0 0 0-1.256 6.5c-.311 1.787-1.151 3.25-1.866 3.25-.962 0-1.081-.762-.456-2.94zm-183.39-4.701l-1.211-6.609c-.313-1.579-.105-2.75.489-2.75.569 0 1.319 1.688 1.667 3.75 1.24 7.35 1.152 7.254 6.017 6.587 3.006-.412 4.441-.242 4.441.527 0 .625-.788 1.141-1.75 1.147s-3.378.28-5.368.609c-3.557.588-3.629.533-4.284-3.261zm158.9 2.811c-3.25-1.089-6.03-2.973-5.365-3.638.34-.34 2.273.171 4.296 1.136 2.614 1.246 4.135 1.465 5.259.757 2.494-1.573 1.776-2.67-2.871-4.387-5.564-2.055-6.354-6.339-1.261-6.837 3.632-.355 8.444 1.287 8.444 2.881 0 .7-.667.842-1.75.372-.962-.418-3.269-.972-5.125-1.231-4.55-.636-3.787 1.849.943 3.07 5.398 1.394 7.037 3.421 5.157 6.376-.973 1.529-5.191 2.348-7.725 1.499zm-143.01-7.794c-2.841-6.425-2.83-6.376-1.479-6.376.554 0 1.728 1.8 2.609 4 2.059 5.146 3.191 5.07 3.576-.241.438-6.042 2.787-6.054 5.278-.027 1.084 2.622 2.066 4.093 2.183 3.268.958-6.748 1.584-9 2.503-9 1.008 0 .853 2.063-.77 10.25-.814 4.105-2.764 3.334-5.065-2l-2.048-4.75-.766 5.25c-1.007 6.906-2.852 6.791-6.021-.374zm123.66 4.894c-2.879-.353-3.266-.716-2.764-2.59.321-1.199.598-3.529.613-5.179.048-4.999 1.001-5.635 7.325-4.891 3.12.367 5.673 1.118 5.673 1.668 0 .613-1.927.773-4.972.413-3.059-.362-5.225-.18-5.628.473-.831 1.344 1.418 2.802 4.35 2.823 1.237.008 2.25.524 2.25 1.146 0 .734-1.229.931-3.5.563-2.926-.475-3.5-.27-3.5 1.252 0 1.926 2.603 3.017 7.25 3.04 1.513.008 2.75.464 2.75 1.014 0 .985-3.28 1.075-9.848.269zm-100.71-7.519c3.037-8.089 4.476-8.259 8.894-1.052 3.161 5.157 3.422 8.861.355 5.028-1.519-1.898-8.687-1.169-8.687.883 0 .765-.654 1.391-1.454 1.391-1.177 0-1.007-1.191.892-6.25zm6.562-.059c0-3.765-2.674-5.065-3.797-1.844-1.038 2.978-.963 3.153 1.349 3.153 1.35 0 2.448-.587 2.448-1.309zm82 3.809c-.736-1.375-1.9-2.5-2.587-2.5s-1.942-.266-2.789-.591c-1.07-.411-1.738.2-2.19 2-.358 1.425-1.104 2.591-1.659 2.591s-.739-1.006-.405-2.25c.332-1.237.609-4.205.617-6.594l.014-4.344 5.715.668c7.621.89 10.027 3.999 5.806 7.502-1.074.892-1.211 1.728-.5 3.057 1.197 2.236 1.233 2.961.148 2.961-.457 0-1.433-1.125-2.169-2.5zm1.655-6.043c.768-2.001.618-2.101-4.405-2.93-3.826-.632-4.25-.501-4.25 1.312 0 3.031 7.57 4.446 8.655 1.618zm-67.905 6.972c-.413-.419-.75-1.797-.75-3.061s-1.41-3.904-3.133-5.867c-3.96-4.51-3.01-5.876 1.019-1.465l2.986 3.269 2.653-3.153c3.909-4.645 5.04-3.834 1.608 1.154-1.63 2.369-3.114 5.562-3.298 7.096s-.673 2.446-1.085 2.027zm13.5-1.091c-2.847-1.149-.913-2.104 4-1.975 5.949.156 7.938-2.617 2.25-3.137-6.237-.57-7.5-1.183-7.5-3.638 0-3.27 9.69-5.517 11.457-2.657.835 1.352-.655 1.928-2.889 1.117-2.604-.946-6.743-.072-6.279 1.326.205.619 2.137 1.366 4.292 1.66 4.947.675 6.419 1.59 6.419 3.989 0 3.198-7.086 5.196-11.75 3.314zm26.108-3.088c.341-2.062.625-4.987.631-6.5.012-2.986 2.092-3.484 8.886-2.125 5.129 1.026 3.574 2.503-1.875 1.781-4.642-.616-5-.511-5 1.466 0 1.699.606 2.129 3 2.129 1.65 0 3 .484 3 1.075 0 .613-1.396.936-3.25.75-2.897-.29-3.284-.027-3.566 2.425-.174 1.513-.795 2.75-1.381 2.75-.674 0-.837-1.377-.445-3.75zm-64.596-32.957c1.244-.239 3.044-.23 4 .02s-.062.446-2.262.435-2.982-.216-1.738-.455zm92.488.018c.962-.252 2.538-.252 3.5 0s.175.457-1.75.457-2.712-.206-1.75-.457zm-77-1.027c1.512-.229 3.988-.229 5.5 0s.275.417-2.75.417-4.262-.187-2.75-.417zm60 0c1.512-.229 3.988-.229 5.5 0s.275.417-2.75.417-4.262-.187-2.75-.417zm-32.466-1.022c2.906-.203 7.406-.201 10 .005s.216.371-5.284.368-7.622-.171-4.716-.373z" fill="#c6a274"/><path d="M408.94 536.92c-3.836-1.726-5.329-4.268-5.329-9.072v-3.613l-5.028 5.028c-12.27 12.27-38.293 10.2-30.828-2.452 2.234-3.787 3.808-3.331 3.841 1.114.038 5.137 7.372 7.107 9.619 2.582 1.227-2.472.764-5.343-2.127-13.178-1.6-4.338-1.566-8.52.13-15.749.856-3.649-6.233 5.28-15.723 19.803-7.385 11.302-10.999 14.141-19.785 15.546-16.761 2.68-18.405-12.246-3.742-33.983 5.024-7.447 5.029-7.46 3.742-9.491-.673-1.063-2.348-.119-7.409 4.174-3.596 3.051-7.398 6.007-8.448 6.569s-3.825 5.434-6.167 10.826l-7.027 15.561-2.769 5.757-10.198-8.12 2.56-7.197c3.995-11.231 15.043-33.639 16.946-34.369 2.651-1.017 9.762 6.993 8.83 9.947-1.451 4.6 11.213-8.547 16.911-17.557 2.292-3.625 3.671-2.641 3.671 2.618 0 5.17 2.253 8.664 5.588 8.664 4.148 0 3.699 1.95-3.924 17.024-7.78 15.384-8.806 18.36-7.527 21.817 2.126 5.747 8.045 1.386 18.348-13.519 13.063-18.897 19.328-27.053 22.538-29.338l2.862-2.038 2.558 4.365c2.963 5.056 3.103 6.415 1.064 10.325-2.055 3.941-1.88 8.979.555 15.958 1.43 4.096 1.874 7.128 1.451 9.891l-.61 3.984 3.149-2.984c4.916-4.659 8.235-9.984 16.387-26.294 9.234-18.475 9.203-18.216 2.063-17.479-9.834 1.015-6.949-4.222 3.02-5.483 3.481-.44 6.089-1.324 6.582-2.229.449-.825 2.7-5.663 5.002-10.75 4.647-10.267 4.589-10.221 8.599-6.847 5.372 4.52 5.836 6.601 2.804 12.583l-2.675 5.279 14.334-.856c24.717-1.475 25.997-1.385 27.1 1.903 1.283 3.827 2.697 3.55-22.018 4.314l-22.144.685-3.186 6.594c-6.618 13.698-16.148 36.733-16.637 40.214-.94 6.68 4.783 6.325 12.693-.787 4.865-4.374 5.026-4.437 5.026-1.977 0 7.217-17.041 15.667-24.671 12.233zm140.31-1.84c-6.162-8.132-3.159-24.864 9.832-54.794 2.377-5.476 4.031-9.948 3.675-9.937-1.71.05-24.449 35.202-35.723 55.225-5.946 10.559-5.971 10.563-10.695 1.496-5.049-9.691-5.395-8.223 9.443-40.142 4.322-9.296 7.658-17.102 7.413-17.346-.634-.634-23.679 34.523-34.086 51.999-9.827 16.502-10.062 16.664-14.394 9.912-3.733-5.817-3.766-6.445-.697-13.292 9.206-20.542 17.557-40.24 17.209-40.588-.228-.228-3.92 4.903-8.205 11.402-17.011 25.799-35.38 49.68-36.981 48.079-.667-.667 6.444-15.121 7.669-15.588 2.933-1.119 28.315-38.364 44.074-64.675 14.815-24.735 12.882-22.734 16.656-17.248 3.846 5.59 3.895 6.876.551 14.374-8.999 20.178-18.423 42.746-18.168 43.509.164.493 5.381-7.098 11.593-16.869 20.56-32.34 25.816-40.331 27.888-42.404l2.052-2.051 3.128 5.466c3.896 6.81 3.899 8.837.022 17.38-5.331 11.747-16.834 39.738-16.477 40.094.187.187 9.263-13.006 20.168-29.317 23.356-34.931 22.96-34.639 28.938-21.381l1.67 3.704-5.976 13.371c-16.022 35.847-21.593 60.029-13.217 57.371 4.062-1.289.241 7.325-5.477 12.345-4.843 4.252-8.614 4.222-11.885-.095zm-323.07-1.898c-3.856-3.394-4.603-4.583-4.11-6.545.902-3.595 16.837-39.8 24.723-56.173 8.292-17.216 9.886-15.499-12.255-13.207-10.134 1.049-18.55 1.783-18.701 1.632-.553-.553 3.541-9.119 4.888-10.23 3.251-2.681 69.769-8.628 90.884-8.126l12.497.297.899 4.27c1.165 5.53 1.582 5.31-11.533 6.073l-11.286.657-3.92 8c-23.44 47.833-24.051 53.67-3.739 35.75 7.064-6.232 7.216-6.256 10.704-1.683l2.721 3.567-4.065 8.183c-7.786 15.674-9.716 30.168-3.249 24.409.757-.674.202.349-1.234 2.274-9.809 13.148-19.284-6.993-10.886-23.14l2.788-5.36-6.596 3.235c-3.628 1.779-7.332 3.242-8.232 3.25-1.167.01-3.154 3.882-6.938 13.515-5.576 14.196-6.212 14.879-10.465 11.221l-2.649-2.279 3.187-10.971c4.159-14.316 11.12-32.238 19.991-51.471l7.719-16.836c.569-1.334-7.691-1.178-23.46.441-6.184.635-6.056.301-2.175 5.654 3.863 5.329 3.791 5.715-4.333 23.241-3.569 7.7-9.477 21.65-13.129 31-10.649 27.267-9.929 26.495-18.043 19.352zm355.91 3.126c-15.447-3.234-15.206-24.374.48-42.195 11.684-13.273 32.761-9.143 32.999 6.466.023 1.512.285 2.75.582 2.75 1.96 0 9.631-4.994 13.96-9.089 13.776-13.029 33.5-9.217 33.5 6.475 0 1.438.243 2.614.54 2.614 1.769 0 8.858-4.612 14.46-9.408 7.752-6.637 7.596-6.615 12.372-1.723l3.778 3.869-5.084 10.131c-2.796 5.572-4.815 10.131-4.487 10.131s6.835-5.85 14.459-13c15.416-14.458 15.656-14.572 19.245-9.15l2.548 3.85-2.524 4.4c-7.574 13.204-10.834 28.654-5.96 28.245 1.541-.129 1.386.325-.937 2.75-3.077 3.212-4.127 3.446-7.848 1.751-6.102-2.78-7.794-13.618-3.629-23.237 3.1-7.158 2.655-6.862-11.864 7.897-7.301 7.422-13.484 13.495-13.739 13.495-1.279 0-7.327-5.416-7.835-7.016-.363-1.144 1.7-6.394 5.461-13.896 7.115-14.194 6.992-13.671 2.504-10.625-1.947 1.321-5.523 3.16-7.945 4.085-3.816 1.457-4.611 2.288-5.948 6.212-7.817 22.94-33.308 32.799-41.43 16.022-3.181-6.571-2.311-13.086 2.962-22.177.947-1.633.844-1.792-.75-1.148a167.19 167.19 0 0 1-4.599 1.743c-1.513.548-2.75 1.514-2.751 2.148-.008 12.408-20.81 30.082-32.52 27.631zm16.545-11.729c2.171-2.062 5.073-6.337 6.449-9.5l2.502-5.75h-2.44c-3.849 0-7.553-2.135-9.187-5.296l-1.503-2.906-2.517 2.351c-10.084 9.418-10.477 24.851-.633 24.851 2.542 0 4.366-.933 7.33-3.75zm47.6.507c6.042-5.305 10.239-15.757 6.327-15.757-3.352 0-7.966-2.911-9.024-5.694l-.988-2.598-2.565 2.396c-13.565 12.671-7.491 33.717 6.249 21.653zm-315.35-42.534c-5.985-.957-8.448-11.136-3.815-15.768 2.738-2.738 9.745-3.389 12.632-1.173 8.213 6.306 1.795 18.639-8.817 16.941zm-94.917-267.98c-3.623-2.044-7.652-5.258-8.654-6.904-1.207-1.981 18.348-48.511 30.086-71.589.582-1.144-4.825-.913-21.53.921-8.385.92-15.502 1.416-15.817 1.101-.573-.573 4.2-10.772 5.04-10.772.245 0 7.325-.874 15.733-1.943 26.584-3.378 49.493-5.185 68.138-5.374l18.064-.183 1.163 4c1.676 5.765.665 6.5-8.932 6.5-9.023 0-55.902 2.925-56.503 3.526-.21.21 1.022 2.291 2.739 4.625 4.106 5.584 4.229 4.877-4.24 24.391-4.048 9.327-10.193 24.609-13.655 33.959-7.422 20.046-7.456 20.098-11.631 17.743zm119.44-3.291c-3.927-3.927-3.503-8.196 1.896-19.059 4.901-9.861 3.738-9.195-11.537 6.608-13.385 13.847-13.039 13.702-19.529 8.2l-3.873-3.283 2.759-5.459c1.518-3.002 4.299-7.87 6.18-10.818 5.53-8.663 3.409-7.09-12.024 8.92l-14.589 15.134-4.28-2.361c-5.721-3.156-5.716-3.991.096-16.313l5.015-10.633-11.529 11.009c-18.889 18.038-21.421 19.222-28.345 13.251l-4.46-3.846 3.833-10.402c10.761-29.205 13.865-33.251 20.397-26.595l4.227 4.307-6.397 14.443c-3.518 7.944-6.728 15.523-7.134 16.843l-.737 2.4 3.365-2.385c5.094-3.611 21.628-20.37 29.266-29.665 7.615-9.268 7.559-9.243 12.796-5.614 4.138 2.867 4.568 4.264 2.358 7.649-.795 1.218-3.512 6.715-6.036 12.215l-4.59 10 14.13-14.75c15.891-16.589 14.907-16.068 20.794-10.992l4.351 3.752-6.101 10.972c-3.356 6.035-6.101 11.353-6.101 11.818s6.076-4.924 13.503-11.977c16.211-15.395 16.339-15.468 20.697-11.83 4.938 4.122 4.947 4.446.364 12.006-7.844 12.937-9.84 22.606-4.814 23.32 2.949.419 2.842 1.57-.385 4.108-4.077 3.207-9.796 2.796-13.567-.976zm41.87-2.244c-5.813-5.414-5.915-4.139 1.835-23.111 7.393-18.098 6.96-16.712 4.984-15.953-.832.319-2.188.02-3.012-.664-1.916-1.59-.188-3.972 2.897-3.994 3.531-.025 3.901-.68 13.553-23.985 13.33-32.185 11.495-29.75 18.431-24.454 5.897 4.502 6.068 3.214-3.467 26.099-4.461 10.707-7.925 19.653-7.697 19.881s6.171.09 13.207-.306l12.793-.72 6.725-15.5c12.994-29.949 13.095-30.075 19.565-24.602l3.982 3.369-7.817 16.867-8.402 18.279c-.494 1.193 1.345 1.309 11.82.746 19.65-1.057 31.935 3.269 31.935 11.243 0 4.69 14.811-8.421 20.227-17.906 2.9-5.078 4.768-5.173 4.788-.246.02 5.085 1.997 8.675 5.01 9.096 5.297.74 5.177 1.621-2.211 16.175-11.444 22.545-9.337 32.216 4.086 18.756 5.901-5.917 23.099-37.407 23.099-42.294 0-.32-2.7-.276-6 .097-4.866.551-6 .407-6-.759 0-3.534 2.766-5.307 9.074-5.816l6.241-.504 4.259-10c4.827-11.333 5.749-11.946 10.801-7.181 4.171 3.934 4.454 6.134 1.525 11.874l-2.098 4.113 6.348-.673c3.491-.37 12.523-.958 20.07-1.307 14.782-.683 14.444-.788 15.016 4.675l.262 2.5-17.5.628-22.598.75c-4.906.117-5.157.263-6.661 3.872l-8.03 18.75c-10.468 24.279-11.177 27.5-6.054 27.5 5.671 0 14.24-7.614 16.827-14.952 9.953-28.226 39.323-37.501 43.195-13.641.866 5.339 4.054 4.066 16.457-6.573 6.696-5.743 6.604-5.73 10.668-1.537 4.122 4.252 4.057 5.028-1.304 15.702-2.475 4.928-4.5 9.242-4.5 9.587s6.466-5.496 14.369-12.98c16-15.151 15.54-14.904 19.08-10.262 3.173 4.161 3.174 4.14-.364 10.728-6.153 11.457-8.873 24.304-5.425 25.627 2.077.797 3.392-.826 16.779-20.7 10.661-15.827 20.082-27.414 21.551-26.506 3.51 2.169 6.212 9.857 4.63 13.174-2.197 4.608-2.038 10.206.472 16.544 5.039 12.727-1.122 22.308-14.201 22.082-10.28-.177-14.062-3.443-10.77-9.3 2.644-4.705 3.878-5.077 3.878-1.17 0 5.685 6.531 9.11 9.443 4.952 2.114-3.019 1.972-4.687-.934-10.928-2.85-6.121-3.116-10.459-1.073-17.44l1.437-4.909-2.687 3.303c-1.478 1.817-7.412 10.367-13.187 19-17.674 26.421-40.438 20.128-26.534-7.335 3.693-7.295 2.939-6.745-11.758 8.57-14.893 15.519-14.256 15.234-20.167 9.024l-2.96-3.11 12.984-25.703-3.896 2.459c-2.143 1.353-5.791 3.272-8.108 4.265-3.72 1.595-4.464 2.49-6.37 7.666-7.975 21.657-32.644 30.649-39.95 14.561l-1.884-4.041c-.112-.187-2.6 1.469-5.53 3.68-13.13 9.911-29.384 6.405-25.21-5.438.392-1.112-1.364.027-4.223 2.74-23.957 22.728-38.106 3.451-19.068-25.979 6.182-9.556 4.606-12.539-2.914-5.518-2.701 2.522-6.762 5.862-9.024 7.423-3.366 2.323-4.209 3.56-4.646 6.818-1.906 14.214-15.014 28.137-26.452 28.098-19.136-.066-23.325-23.296-7.248-40.191 7.04-7.399 7.254-6.98-3.156-6.18l-8.413.647-5.758 13.621c-3.167 7.491-7.274 17.896-9.127 23.121-3.58 10.095-4.772 11.236-8.907 8.526-2.211-1.448-2.478-2.413-2.863-10.312-.488-10.029-3.373-17.616-8.74-22.983-6.628-6.628-5.95-7.295-14.739 14.486-9.035 22.391-8.465 21.769-14.67 15.99zm207.95-7.226c2.699-2.058 9.386-13.369 9.386-15.874 0-.334-1.38-.607-3.066-.607-4.072 0-6.655-1.492-8.861-5.12l-1.82-2.993-3.43 4.806c-10.389 14.559-4.608 29.244 7.79 19.788zm-114.73-.922c3.57-1.846 7.787-7.381 9.653-12.669 1.948-5.521 1.88-5.89-1.088-5.89-3.548 0-8.184-2.585-8.947-4.989-1.945-6.129-12.718 6.936-12.911 15.658-.17 7.682 6.286 11.514 13.294 7.89zm-41.886-33.338c0-.429-20.311.864-20.839 1.327-.186.163 1.389 1.863 3.5 3.778s5.185 5.983 6.829 9.041l2.99 5.56 3.76-9.662 3.76-10.044zm-162.33-11.264c-4.974-3.912-4.409-13.389.943-15.827 11.529-5.253 20.62 10.56 9.405 16.36-3.99 2.063-7.261 1.895-10.348-.533z" fill="#e3322c"/><path d="M271.61 665.34c-35.583-2.812-44.585-10.717-46.057-40.449-.828-16.722-3.583-31.599-7.84-42.331-4.891-12.331-3.231-20.615 4.82-24.053l3.841-1.64-9-8.473c-106.42-100.18 117.58-202.43 355.74-162.39 138.32 23.257 207.02 100.38 143.33 160.89l-7.423 7.051 2.93 2.888c8.71 8.584 8.976 14.838 1.073 25.192-5.026 6.585-10.735 29.708-12.384 50.16-1.916 23.764-18.828 29.044-67.023 20.925-20.029-3.374-56.736-3.308-72 .131-9.762 2.199-30.039 7.891-34.409 9.659-2.644 1.07-1.769-2.962 3.05-14.059 4.763-10.967 9.306-10.272-36.054-5.523-27.479 2.876-77.245 9.21-114.09 14.519-44.736 6.447-85.894 9.295-108.5 7.508zm38-7.035c21.975-1.355 47.578-4.151 87.5-9.555 193.87-26.246 293.52-28.459 290.29-6.447-.587 3.998 1.116 3.481 3.615-1.098 14.991-27.467-52.362-27.938-264.41-1.848-140.11 17.239-178.22 16.171-191.58-5.368l-2.577-4.156.673 4.987c2.56 18.96 27.193 26.525 76.48 23.487zm235.09-15.184c2.375-4.617 2.37-4.79-.133-4.79-1.751 0-7.958 10.748-7.958 13.78 0 1.438 6.365-5.634 8.092-8.99zm17.408 3.074c21.966-4.32 44.89-4.145 75.687.577 27.708 4.249 40.268 3.446 43.487-2.779 1.499-2.899 1.486-2.937-.825-2.259-11.03 3.236-21.349 3.079-48.123-.735-41.237-5.874-70.034-3.718-81.443 6.097-2.124 1.827-2.309 2.236-.783 1.729 1.1-.366 6.5-1.55 12-2.632zm-272.81-8.649c.653-.415 1.63-1.92 2.172-3.344 2.044-5.376 15.92-5.654 18.439-.37 1.767 3.706 2.864 4.03 9.775 2.887l3.574-.591-18.147-34.849-12 .553-7.168 17.5-7.25 18.25c-.107.978 9.06.947 10.605-.036zm7.83-18.263c2.246-6.367 2.591-6.468 5.111-1.496 1.305 2.573 2.372 4.801 2.372 4.95s-2.006.346-4.458.439l-4.458.169zm-34.092 12.799l.812-6.75c.157-1.491.869-2.463 1.763-2.408.825.05 4.537.4 8.25.778l6.75.686v-3.911c0-4.509-1.132-5.108-9.691-5.131-5.623-.015-6.807-.869-5.764-4.157.636-2.005 1.116-2.089 8.454-1.477l7.779.649.469-3.764c.258-2.07.398-3.862.311-3.981-.337-.462-18.301-2.268-22.638-2.275l-4.579-.008-1.627 17.167c-1.873 19.764-2.084 18.833 4.283 18.833h4.88zm73.2 3.664c2.479-.505 6.794-4.908 10.589-10.804.45-.699 2.727.877 6.154 4.262l5.44 5.371 6.314-.673c3.473-.37 6.454-.813 6.625-.984s-3.527-3.944-8.219-8.385c-10.172-9.629-9.945-7.557-1.964-17.896 7.66-9.923 7.713-9.265-.697-8.585-6.582.532-6.659.573-10.351 5.518l-3.719 4.982-8.866-8.701-6.716.339c-3.694.186-6.837.453-6.985.593s3.378 3.829 7.836 8.197l8.104 7.943-15.174 19.411h4.376c2.407 0 5.67-.264 7.251-.586zm57.21-4.841c13.197-1.64 12.269-1.159 11.49-5.96-.582-3.587-.774-3.754-3.719-3.25-12.35 2.113-14.476 2.001-15.179-.8-.886-3.53-.786-3.588 8.216-4.705 9.235-1.147 8.655-.753 7.804-5.292l-.683-3.639-6.132.595c-3.373.327-7.144.802-8.382 1.055-1.919.393-2.25.037-2.25-2.419 0-3.025 3.637-4.123 13.75-4.15 3.001-.008 3.249-.257 3.235-3.259-.017-3.649-1.304-6.289-2.658-5.452-.777.48-15.443 2.301-23.577 2.927-2.13.164-2.75.723-2.75 2.482 0 3.049 3.023 30.463 3.533 32.043.514 1.591 3.312 1.562 17.301-.177zm-154.95-17.073c.169-10.398-4.777-24.36-10.45-29.5-2.417-2.19-2.668-2.252-2.023-.5 2.724 7.404 8.702 34.436 9.703 43.88.287 2.705 2.697-9.37 2.77-13.88zm192.73 11.586c13.214-6 7.311-22.086-8.104-22.086-1.172 0-2.973-.616-4.002-1.368-3.229-2.361 1.458-4.014 9.151-3.225l6.339.649-.015-2.778c-.025-4.466-1.363-5.562-7.409-6.063-23.13-1.918-29.048 18.305-6.707 22.919 6.324 1.306 8.701 3.259 6.027 4.952-2.119 1.342-8.158 1.086-12.77-.541-4.568-1.612-4.665-1.49-3.484 4.415 1.058 5.289 12.468 6.99 20.976 3.126zm265.28-13.586c4.967-25.951 9.645-41.159 11.561-37.58 1.515 2.831 3.543.836 3.543-3.485 0-5.066-5.282-10.984-13.261-14.859l-4.761-2.312 6.491-5.699c4.946-4.342 7.151-5.647 9.261-5.481 5.222.41 6.083-.096 10.672-6.272 6.112-8.224 4.906-14.861-1.663-9.152l-2.117 1.84 1.988-3c25.926-39.128-6.559-86.281-79.116-114.84-124.97-49.188-324.81-33.614-402.52 31.367-3.319 2.775-5.852 3.977-9.5 4.505-7.145 1.036-12.016 7.187-10.786 13.62.308 1.609-.557 4.233-2.455 7.453-24.502 41.556.317 78.988 75.767 114.27 1.994.932-.336 1.071-11.5.687-29.089-1.002-48.5-7.466-48.5-16.15 0-3.903-.077-3.94-4.035-1.893-8.863 4.583-1.18 14.806 14.945 19.888 22.238 7.008 70.005 6.834 138.09-.503l147.5-17.384c98.25-12.719 160.33-12.737 175.26-.049.145.123-.809 2.655-2.12 5.627-4.739 10.749-8.625 36.198-7.217 47.268.987 7.761 1.729 6.455 4.47-7.864zm-194.9 5.543c2.475-1.259 4.646-2.417 4.825-2.574s.029-2.263-.334-4.68l-.659-4.395-5.666 2.885c-10.509 5.35-21.166 2.195-21.166-6.266 0-7.879 10.555-12.009 22.309-8.729 4.014 1.12 3.74-6.918-.309-9.059-7.046-3.725-25.138.939-29.96 7.724-12.34 17.364 10.214 35.645 30.96 25.094zm19.692-2.029l3.192-.014-.587-7c-.875-10.431 2.663-9.788 10.076 1.831 1.873 2.935 3.251 4.144 4.277 3.75.833-.32 3.277-.581 5.432-.581 4.942 0 4.921-.207-.941-9.187-4.828-7.395-4.847-7.458-3-9.739 7.537-9.307-2.214-17.113-18.915-15.144-11.825 1.395-10.731-.455-9.347 15.799 1.776 20.87 1.924 21.558 4.474 20.873 1.181-.317 3.583-.582 5.339-.59zm1.11-24.914c-.442-3.009-.342-3.099 3.403-3.099 6.428 0 6.537 4.302.142 5.581-2.861.572-3.124.388-3.546-2.481zm54.949 20.302c2.615-.396 3.25-.956 3.25-2.865 0-5.099-.458-5.316-10.058-4.769l-8.942.51v-3.008c0-3.355 2.533-4.236 12.25-4.259 5.073-.012 5.496-.621 4.085-5.893-.622-2.323-.841-2.369-8.986-1.861l-8.349.521v-5.779l7.75-.015c9.543-.019 10.724-.644 9.864-5.227-.644-3.432-.689-3.458-5.382-3.127l-14.233.925-9.5.591.798 16.676c.439 9.172.984 17.229 1.211 17.905.401 1.196 17.597.982 26.241-.327zm19.539-8.49l-.579-6.911h4.177c12.841 0 19.697-11.621 11.289-19.134-3.023-2.701-23.576-4.472-27.189-2.343-.551.324.643 25.346 1.525 31.977l.532 4 10.824-.677zm-1.289-17.911c0-2.82.234-3 3.893-3 4.381 0 5.952 2.012 3.493 4.471-2.884 2.884-7.386 1.987-7.386-1.471zm52 18.692v-4.308l-18 .861v-6.963l8.224-.198c9.637-.232 9.203.009 8.331-4.644l-.685-3.654-16.369.714-.633-5.5h18.248l-.615-8.232-13.429.167c-16.815.21-15.455-1.172-14.732 14.957l.635 17.357.025 3.75h29zm28.775 2.304c9.159-5.585 6.217-15.224-6.266-20.529-3.58-1.521-6.509-3.374-6.509-4.116 0-1.859 7.063-1.768 11.654.15 5.061 2.115 5.346 1.981 5.346-2.525 0-4.428-.828-5.032-9.598-6.997-18.101-4.057-26.755 13.112-10.41 20.653 8.263 3.812 8.482 3.955 8.831 5.726.528 2.683-7.414 2.139-12.675-.869-5.495-3.141-5.148-3.281-5.148 2.061 0 7.677 15.95 11.827 24.775 6.447zm48.225-50.103c0-2.351-.365-2.967-1.5-2.531-.825.317-1.5.14-1.5-.393s1.913-.954 4.25-.937c4.013.03 4.138.116 2.25 1.548-1.1.834-1.859 2.394-1.687 3.468s-.165 1.952-.75 1.952-1.063-1.398-1.063-3.107zm6.015-.143c-.017-4.226.85-4.661 3.485-1.75l1.811 2 1.401-2c2.137-3.051 3.304-2.401 3.138 1.75-.134 3.348-.197 3.432-.587.789l-.437-2.961-3.659 4.85-2.168-2.464c-1.243-1.413-1.958-1.786-1.677-.874.27.875.09 2.225-.401 3-.616.973-.897.248-.907-2.341zm-459.52-209.74c-35.232-2.976-44.091-10.842-45.557-40.45-.828-16.722-3.583-31.599-7.84-42.331-4.91-12.379-3.364-20.095 4.78-23.853 4.987-2.301 4.987-2.201-.009-5.876-36.778-27.052-40.782-69.433-9.694-102.61 56.201-59.978 227.74-90.773 358.82-64.417l10.5 2.091c136.9 27.178 198.63 102.41 132.14 161.04l-5.414 4.774 3.045 3.046c8.798 8.798 9.072 14.874 1.139 25.268-5.026 6.585-10.735 29.708-12.384 50.16-1.916 23.764-18.828 29.044-67.023 20.925-20.029-3.374-56.736-3.308-72 .131-9.762 2.199-30.039 7.891-34.409 9.659-2.644 1.07-1.769-2.962 3.05-14.059 4.763-10.967 9.306-10.272-36.054-5.523-27.479 2.877-77.245 9.21-114.09 14.519-44.995 6.484-86.938 9.374-109 7.51zm38.5-7.037c21.975-1.355 47.578-4.151 87.5-9.555 193.87-26.246 293.52-28.459 290.29-6.447-.587 3.998 1.116 3.481 3.615-1.098 14.991-27.467-52.362-27.938-264.41-1.848-140.11 17.239-178.22 16.171-191.58-5.368l-2.577-4.156.673 4.987c2.56 18.96 27.193 26.525 76.48 23.487zm235.09-15.184c2.375-4.617 2.37-4.79-.133-4.79-1.751 0-7.958 10.748-7.958 13.78 0 1.438 6.365-5.634 8.092-8.99zm17.408 3.074c21.966-4.32 44.89-4.145 75.687.577 27.708 4.249 40.268 3.446 43.487-2.779 1.499-2.899 1.486-2.937-.825-2.259-11.03 3.236-21.349 3.079-48.123-.735-41.237-5.873-70.034-3.718-81.443 6.097-2.124 1.827-2.309 2.236-.783 1.729 1.1-.366 6.5-1.55 12-2.632zm-252.9-8.444c1.498-3.586 2.314-3.939 11.103-4.803 5.063-.498 5.258-.419 7.331 2.935 1.895 3.066 10.48 4.364 13.619 2.059.083-.061-4.282-7.536-9.701-16.611l-10.155-17.26c-.166-.418-3.019-.477-6.339-.129l-6.037.631-5.96 17.614-6.236 18.629c-.878 3.227 10.972.292 12.375-3.064zm4.478-13.67c.042-.687.626-2.771 1.299-4.631l1.223-3.381 1.545 2.381c4.306 6.635 4.302 6.881-.108 6.881-2.602 0-4.008-.444-3.959-1.25zm-24.33 14.189c2.613-.911 3.141-1.704 3.724-5.592.838-5.588.696-5.732-3.785-3.86-14.366 6.002-29.409-5.192-19.131-14.237 3.45-3.036 13.228-3.165 18.945-.25 2.158 1.1 4.053 2 4.211 2s.289-2.201.289-4.891c0-11.389-26.059-11.765-34.651-.5-11.968 15.691 9.197 34.72 30.397 27.33zm61.498-1.58l3.745-.619-1.262-13.577 4.886-.626c12.357-1.582 11.664-1.242 10.896-5.352-.379-2.027-.781-3.781-.894-3.897s-3.56.154-7.661.601c-7.671.835-8.908.419-8.94-3.004-.016-1.662 5.338-2.886 12.624-2.886 3.258 0 5.379-6.748 2.61-8.303-.696-.391-26.436 2.231-27.007 2.751-.243.221 2.065 22.051 3.309 31.302.617 4.593.911 4.73 7.694 3.609zm38.255-4.275c16.123-1.656 16.503-1.769 16.485-4.913-.028-4.863-.878-5.258-9.042-4.198-10.099 1.311-9.662 1.394-10.15-1.932-.484-3.301-.355-3.357 10.457-4.55l5.75-.634v-8.115l-15.5 1.561c-1.473.145-2.079-.486-2.301-2.396-.297-2.56-.187-2.605 8.5-3.5l8.801-.907-.349-3.5c-.192-1.925-.503-3.751-.69-4.058-.434-.709-27.09 2.34-27.938 3.196-.347.351.07 6.876.926 14.5 2.016 17.94 2.585 21.457 3.389 20.973.364-.219 5.611-.906 11.661-1.527zM238.49 293.83c.169-10.398-4.777-24.36-10.45-29.5-2.417-2.19-2.668-2.252-2.023-.5 2.724 7.404 8.702 34.436 9.703 43.88.287 2.705 2.697-9.37 2.77-13.88zm229.61 9.013c1.1-.247 3.251-2.445 4.78-4.884 4.602-7.34 4.965-7.415 10.547-2.194l4.92 4.602 7.126-.662c8.765-.815 8.865-.318-1.893-9.375-10.623-8.943-10.31-7.089-2.977-17.667 6.975-10.062 7.024-9.709-1.221-8.826l-6.375.683-6.851 10.676-10.057-8.588-13.869 1.997 3.446 3.113c1.895 1.712 5.821 5.139 8.723 7.614l5.277 4.501-6.572 9.499c-7.507 10.85-8.505 11.608-8.505 6.455v-3.711l-3.75.595c-2.062.327-6.337.897-9.5 1.265l-5.75.671v-3.05c0-3.311-.569-3.086 12.171-4.8l4.671-.628-.562-3.648c-.727-4.72.052-4.428-8.934-3.353-9.042 1.082-8.226 1.258-8.574-1.851-.261-2.341.051-2.471 8.228-3.438l8.5-1.005-.323-3.99c-.178-2.194-.403-4.05-.5-4.122-.367-.275-27.821 3.423-28.196 3.798-.387.387 3.302 32.301 3.976 34.389.301.932 34.549-2.377 42.044-4.062zm228.4-11.013c4.967-25.951 9.645-41.159 11.561-37.58 1.515 2.831 3.543.836 3.543-3.485 0-5.016-5.28-10.98-13.076-14.773l-4.577-2.226 9.934-9.468 13.237-12.528c1.963-1.819 3.683-4.658 4.241-7l2.213-8.94c6.759-26.502 1.555-43.894-19.472-65.072-84.98-85.591-356.25-92.781-462.21-12.251-5.402 4.106-8.023 5.386-12.794 6.251-6.664 1.208-12.08 7.816-11.108 13.555.278 1.643-.892 4.692-3.457 9.01-24.912 41.934 0 80.064 75.065 114.89 1.983.92-.394 1.06-11.5.677-29.089-1.002-48.5-7.466-48.5-16.15 0-3.903-.077-3.94-4.035-1.893-8.863 4.583-1.18 14.806 14.945 19.888 22.238 7.008 70.005 6.834 138.09-.503l147.5-17.384c98.25-12.719 160.33-12.737 175.26-.049.145.123-.809 2.655-2.12 5.627-4.739 10.749-8.625 36.198-7.217 47.268.987 7.761 1.729 6.455 4.47-7.864zM514 297.341c1.736-.01 1.84-.584 1.254-6.898l-.64-6.887 4.733-.71c14.57-2.185 18.698-16.364 6.264-21.515-2.566-1.063-23.398.059-24.668 1.329-.103.103.669 7.384 1.717 16.179l1.926 17.872c.018 1.615.551 1.793 3.771 1.261 2.063-.341 4.602-.625 5.644-.631zm-.394-23.429c0-.78-.273-2.13-.607-3-.493-1.285.169-1.582 3.531-1.582 4.796 0 6.624 2.394 3.547 4.645-2.447 1.789-6.471 1.75-6.471-.063zm35.363 19.429c1.677-.01 1.823-.711 1.467-7.011-.557-9.866 2.335-10.041 8.315-.504l4.073 6.496 5.641-.635c3.102-.349 5.796-.765 5.986-.924.491-.412-8.434-14.061-9.711-14.85-.676-.418-.359-1.358.877-2.594 4.41-4.41 3.489-10.072-2.341-14.392-3.061-2.268-9.477-2.628-20.961-1.175l-5.791.732.609 6.173.982 9.173c.205 1.65.69 6.986 1.078 11.857l.705 8.857 3.604-.596c1.982-.328 4.442-.601 5.467-.607zm-.363-25.011c0-2.767.274-3 3.531-3 4.208 0 5.817 2.541 2.94 4.645-3.441 2.516-6.471 1.746-6.471-1.645zm116.28 22.638c11.499-4.867 9.552-15.347-4.068-21.9-9.739-4.686-5.743-7.83 4.84-3.809 5.914 2.247 6.903 1.786 6.93-3.23.029-5.363-15.71-8.821-23.446-5.151-10.053 4.771-7.434 14.789 5.481 20.961 3.289 1.572 5.98 3.42 5.98 4.107 0 3.156-7.005 2.348-13.653-1.574-4.527-2.671-4.347-2.79-4.347 2.875 0 5.287-.167 5.146 10 8.439 2.999.971 9.139.612 12.282-.718zm-68.032-1.208l8.75-.609v-8.12l-18 1.278v-5.728c0-.928.347-.971 9.058-1.125l7.058-.125-.615-8.319-8.25.223c-8.246.223-8.25.222-8.25-2.34 0-2.39.321-2.564 4.75-2.575 10.469-.024 12.25-.781 12.25-5.204v-3.953l-11.25.626c-6.187.344-12.763.862-14.613 1.151l-3.363.525.591 8.183 1.234 17.969.643 9.786 5.628-.516 14.378-1.126zm38.965-4.183c6.959-6.959 3.413-14.554-9.14-19.576-9.973-3.99-3.745-6.935 6.799-3.215l4.126 1.456v-4.378c0-4.058-.238-4.455-3.25-5.426-23.476-7.572-35.93 11.791-13.446 20.905 6.952 2.818 8.201 5.295 2.927 5.803-1.956.188-5.47-.693-8.75-2.195l-5.481-2.509v4.838c0 8.683 18.755 11.758 26.215 4.298zm88.785-50.354c0-2.351-.365-2.967-1.5-2.531-.825.317-1.5.14-1.5-.393s1.913-.954 4.25-.937c4.013.03 4.138.116 2.25 1.548-1.1.834-1.859 2.394-1.687 3.468s-.165 1.952-.75 1.952-1.063-1.398-1.063-3.107zm6.015-.143c-.017-4.226.85-4.661 3.485-1.75l1.811 2 1.401-2c2.137-3.051 3.304-2.401 3.138 1.75-.134 3.348-.197 3.432-.587.789l-.437-2.961-3.659 4.85-2.168-2.464c-1.243-1.413-1.958-1.786-1.677-.874.27.875.09 2.225-.401 3-.616.973-.897.248-.907-2.341z" fill="#4f1706"/></g></svg>