<?xml version="1.0" encoding="UTF-8" standalone="no"?>
<!DOCTYPE svg PUBLIC "-//W3C//DTD SVG 1.0//EN" "http://www.w3.org/TR/2001/PR-SVG-20010719/DTD/svg10.dtd">
<svg width="13cm" height="8cm" viewBox="39 19 244 156" xmlns="http://www.w3.org/2000/svg" xmlns:xlink="http://www.w3.org/1999/xlink">
  <defs/>
  <g id="Background"/>
  <g id="Background">
    <ellipse style="fill: #90ee90; fill-opacity: 1; stroke-opacity: 1; stroke-width: 8; stroke: #000000" cx="90" cy="70" rx="30" ry="30"/>
    <ellipse style="fill: #ffc0cb; fill-opacity: 1; stroke-opacity: 1; stroke-width: 2; stroke: #000000" cx="250" cy="70" rx="30" ry="30"/>
    <g>
      <path style="fill: none; stroke-opacity: 1; stroke-width: 2; stroke: #000000" d="M 122.25 59.2501 C 152.25,49.2501 190.613,50.2044 211.377,57.1255"/>
      <polygon style="fill: #000000; fill-opacity: 1; stroke-opacity: 1; stroke-width: 2; stroke: #000000" fill-rule="evenodd" points="218.492,59.4972 207.424,61.0784 211.377,57.1255 210.586,51.5915 "/>
    </g>
    <g>
      <path style="fill: none; stroke-opacity: 1; stroke-width: 2; stroke: #000000" d="M 220.613 79.7956 C 190.613,89.7956 152.25,90.7499 131.486,83.8287"/>
      <polygon style="fill: #000000; fill-opacity: 1; stroke-opacity: 1; stroke-width: 2; stroke: #000000" fill-rule="evenodd" points="124.371,81.457 135.439,79.8759 131.486,83.8287 132.277,89.3627 "/>
    </g>
    <g>
      <path style="fill: none; stroke-opacity: 1; stroke-width: 2; stroke: #000000" d="M 111.213 91.2132 C 160,180 20,180 60.4861,102.626"/>
      <polygon style="fill: #000000; fill-opacity: 1; stroke-opacity: 1; stroke-width: 2; stroke: #000000" fill-rule="evenodd" points="63.9633,95.9812 63.7573,107.16 60.4861,102.626 54.8969,102.523 "/>
    </g>
    <text font-size="22.5778" style="fill: #0000ff; fill-opacity: 1; stroke: none;text-anchor:middle;font-family:sans-serif;font-style:normal;font-weight:normal" x="160" y="47.825">
      <tspan x="160" y="47.825">&lt;</tspan>
    </text>
    <text font-size="22.5778" style="fill: #0000ff; fill-opacity: 1; stroke: none;text-anchor:middle;font-family:sans-serif;font-style:normal;font-weight:normal" x="180" y="107.825">
      <tspan x="180" y="107.825">&gt;</tspan>
    </text>
    <text font-size="22.5778" style="fill: #000000; fill-opacity: 1; stroke: none;text-anchor:middle;font-family:sans-serif;font-style:normal;font-weight:normal" x="120" y="167.496">
      <tspan x="120" y="167.496"></tspan>
    </text>
    <text font-size="22.5778" style="fill: #000000; fill-opacity: 1; stroke: none;text-anchor:middle;font-family:sans-serif;font-style:normal;font-weight:normal" x="60" y="147.496">
      <tspan x="60" y="147.496"></tspan>
    </text>
    <text font-size="22.5778" style="fill: #000000; fill-opacity: 1; stroke: none;text-anchor:middle;font-family:sans-serif;font-style:normal;font-weight:normal" x="90" y="77.825">
      <tspan x="90" y="77.825">Out</tspan>
    </text>
    <text font-size="22.5778" style="fill: #000000; fill-opacity: 1; stroke: none;text-anchor:middle;font-family:sans-serif;font-style:normal;font-weight:normal" x="250" y="77.4956">
      <tspan x="250" y="77.4956">In</tspan>
    </text>
    <g>
      <path style="fill: none; stroke-opacity: 1; stroke-width: 2; stroke: #000000" d="M 40 20 C 100,20 20,40 59.2049,47.061"/>
      <polygon style="fill: #000000; fill-opacity: 1; stroke-opacity: 1; stroke-width: 2; stroke: #000000" fill-rule="evenodd" points="66.5861,48.3904 55.8582,51.5387 59.2049,47.061 57.6308,41.6971 "/>
    </g>
    <g>
      <path style="fill: none; stroke-opacity: 1; stroke-width: 2; stroke: #000000" d="M 271.213 91.2132 C 320,180 180,180 224.098,99.746"/>
      <polygon style="fill: #000000; fill-opacity: 1; stroke-opacity: 1; stroke-width: 2; stroke: #000000" fill-rule="evenodd" points="227.71,93.1729 227.276,104.345 224.098,99.746 218.512,99.5291 "/>
    </g>
    <text font-size="22.5778" style="fill: #0000ff; fill-opacity: 1; stroke: none;text-anchor:middle;font-family:sans-serif;font-style:normal;font-weight:normal" x="260" y="147.825">
      <tspan x="260" y="147.825">*</tspan>
    </text>
    <text font-size="22.5778" style="fill: #0000ff; fill-opacity: 1; stroke: none;text-anchor:middle;font-family:sans-serif;font-style:normal;font-weight:normal" x="100" y="147.496">
      <tspan x="100" y="147.496">*</tspan>
    </text>
  </g>
</svg>
