<?xml version="1.0" encoding="UTF-8" standalone="no"?>
<!DOCTYPE svg PUBLIC "-//W3C//DTD SVG 1.0//EN" "http://www.w3.org/TR/2001/PR-SVG-20010719/DTD/svg10.dtd">
<svg width="11cm" height="11cm" viewBox="-260 20 210 210" xmlns="http://www.w3.org/2000/svg" xmlns:xlink="http://www.w3.org/1999/xlink">
  <g id="Background"/>
  <g id="Background">
    <image x="-260" y="20" width="210" height="210" xlink:href="locked.svg"/>
    <g>
      <rect style="fill: #86a7b2; fill-opacity: 1; stroke-opacity: 1; stroke-width: 2; stroke: #7f7f7f" x="-144" y="168" width="8" height="24" rx="0" ry="0"/>
      <text font-size="20.32" style="fill: #000000; fill-opacity: 1; stroke: none;text-anchor:middle;font-family:sans-serif;font-style:normal;font-weight:normal" x="-140" y="189.05">
        <tspan x="-140" y="189.05"></tspan>
      </text>
    </g>
    <g>
      <rect style="fill: #add8e6; fill-opacity: 1; stroke-opacity: 1; stroke-width: 2; stroke: #7f7f7f" x="-160" y="150" width="20" height="20" rx="0" ry="0"/>
      <text font-size="18.0622" style="fill: #000000; fill-opacity: 1; stroke: none;text-anchor:middle;font-family:sans-serif;font-style:normal;font-weight:normal" x="-150" y="168.061">
        <tspan x="-150" y="168.061">2</tspan>
      </text>
    </g>
    <g>
      <rect style="fill: #add8e6; fill-opacity: 1; stroke-opacity: 1; stroke-width: 2; stroke: #7f7f7f" x="-164" y="170" width="20" height="20" rx="0" ry="0"/>
      <text font-size="18.0622" style="fill: #000000; fill-opacity: 1; stroke: none;text-anchor:middle;font-family:sans-serif;font-style:normal;font-weight:normal" x="-154" y="188.061">
        <tspan x="-154" y="188.061">6</tspan>
      </text>
    </g>
    <g>
      <rect style="fill: #99bfcc; fill-opacity: 1; stroke-opacity: 1; stroke-width: 2; stroke: #7f7f7f" x="-168" y="168" width="4" height="24" rx="0" ry="0"/>
      <text font-size="20.32" style="fill: #000000; fill-opacity: 1; stroke: none;text-anchor:middle;font-family:sans-serif;font-style:normal;font-weight:normal" x="-166" y="189.05">
        <tspan x="-166" y="189.05"></tspan>
      </text>
    </g>
    <g>
      <rect style="fill: #add8e6; fill-opacity: 1; stroke-opacity: 1; stroke-width: 2; stroke: #7f7f7f" x="-160" y="190" width="20" height="20" rx="0" ry="0"/>
      <text font-size="18.0622" style="fill: #000000; fill-opacity: 1; stroke: none;text-anchor:middle;font-family:sans-serif;font-style:normal;font-weight:normal" x="-150" y="208.061">
        <tspan x="-150" y="208.061">5</tspan>
      </text>
    </g>
    <polygon style="fill: #ffa500; fill-opacity: 1; stroke-opacity: 1; stroke-width: 2; stroke: #cc8400" fill-rule="evenodd" points="-152,146 -148,142 -156,142 "/>
    <polygon style="fill: #ffa500; fill-opacity: 1; stroke-opacity: 1; stroke-width: 2; stroke: #cc8400" fill-rule="evenodd" points="-152,214 -148,218 -156,218 "/>
    <polygon style="fill: #86a7b2; fill-opacity: 1; stroke-opacity: 1; stroke-width: 2; stroke-linejoin: round; stroke: #7f7f7f" fill-rule="evenodd" points="-140,150 -136,149.6 -136,169.6 -140,170 "/>
    <polygon style="fill: #86a7b2; fill-opacity: 1; stroke-opacity: 1; stroke-width: 2; stroke: #7f7f7f" fill-rule="evenodd" points="-140,190 -136,189.6 -136,209.6 -140,210 "/>
    <polygon style="fill: #86a7b2; fill-opacity: 1; stroke-opacity: 1; stroke-width: 2; stroke: #7f7f7f" fill-rule="evenodd" points="-164,150 -168,149.6 -168,169.6 -164,170 -160,170 -160,150 "/>
    <polygon style="fill: #86a7b2; fill-opacity: 1; stroke-opacity: 1; stroke-width: 2; stroke: #7f7f7f" fill-rule="evenodd" points="-164,190 -168,189.6 -168,209.6 -164,210 -160,210 -160,190 "/>
  </g>
</svg>
