<?xml version="1.0" encoding="UTF-8"?>
<!-- Created with Inkscape (http://www.inkscape.org/) -->
<svg width="95.033mm" height="103.6mm" version="1.1" viewBox="0 0 95.033 103.6" xml:space="preserve" xmlns="http://www.w3.org/2000/svg"><g transform="translate(-85.395 -165.89)"><path d="m139.2 268.78c0.0696-0.59511 0.32262-0.80748 1.4975-1.2568 1.1397-0.43585 1.5078-0.73434 1.8987-1.5399 0.4759-0.98065 0.7778-3.2008 0.47627-3.5023-0.0842-0.0842-1.3284 0.0396-2.7647 0.27516-2.5426 0.41701-7.5067 0.35939-8.2207-0.0954-0.15205-0.0968-0.2217-0.54178-0.15479-0.98874 0.11502-0.76828 0.22984-0.83961 2.1024-1.3059 1.308-0.32573 2.1348-0.68909 2.4344-1.0699 0.24949-0.31718 0.74676-0.66753 1.105-0.77855 0.81765-0.25336 1.9945-1.59 2.3761-2.6987 0.32585-0.94669 0.0925-1.8322-1.2764-4.8436-0.42996-0.94589-0.86931-2.1365-0.97633-2.6458-0.10702-0.50932-0.28609-1.0451-0.39793-1.1906-0.11183-0.14552-0.50821-1.1166-0.88083-2.158-0.57025-1.5936-2.4228-5.2542-5.3648-10.6-0.33798-0.61419-0.71524-1.5054-0.83834-1.9805-0.17846-0.68871-0.91781-1.4037-3.6476-3.5276-11.698-9.1012-16.273-12.558-16.622-12.558-0.21801 0-0.47017 0.11938-0.56035 0.2653-0.33891 0.54837-1.1896-0.25189-1.206-1.1345-0.0145-0.78253-0.37294-1.1258-4.4792-4.2902-3.3804-2.605-4.6445-3.4354-5.2097-3.4224-0.58183 0.0134-1.182-0.40947-2.7228-1.9182-2.0079-1.9662-2.5932-2.249-3.1829-1.5385-0.18116 0.21828-0.62748 0.39687-0.99183 0.39687-1.0735 0-5.301-1.0668-5.5758-1.407-0.13894-0.17204-0.33609-1.0482-0.43811-1.947l-0.18548-1.6342 2.1953-1.4528 2.5641 0.61508c2.9428 0.70592 3.2256 0.86693 3.2256 1.8366 0 0.38964 0.14288 0.85132 0.3175 1.0259 0.24694 0.24694 0.24694 0.3175 0 0.3175-0.17462 0-0.3175 0.15654-0.3175 0.34787 0 0.45882 1.726 1.2714 2.2629 1.0654 0.26907-0.10325 0.77039 0.17893 1.3937 0.7845 0.53544 0.52017 1.3009 1.069 1.7011 1.2196 0.43046 0.16198 0.7276 0.47235 0.7276 0.76 0 0.26742 0.32742 0.78885 0.7276 1.1587 1.2464 1.152 8.032 6.3056 8.3024 6.3056 0.99807 0 4.1593-2.2577 4.3686-3.12 0.16097-0.66304 2.809-3.4946 3.2682-3.4946 0.11163 0 0.69563-0.65253 1.2978-1.4501 1.449-1.9192 2.9481-3.5904 5.1203-5.7083 0.98227-0.95769 1.7859-1.9505 1.7859-2.2063s0.54659-1.1754 1.2146-2.0436c2.1528-2.7978 2.976-5.9764 1.8944-7.3154-0.41771-0.51709-0.3208-2.2329 0.18092-3.2031 0.24841-0.48038 0.81347-1.0714 1.2557-1.3134 1.5249-0.83445 1.8843-1.2267 1.6887-1.8428-0.27109-0.85414-2.017-2.6982-2.5545-2.6982-0.3667 0-0.50528-0.3086-0.64665-1.4401-0.11215-0.89762-0.36848-1.6107-0.6805-1.8931-0.27531-0.24915-0.50123-0.58338-0.50204-0.74273-8e-4 -0.15934-0.12251-0.72548-0.27044-1.2581-0.32621-1.1745-1.4792-1.7471-2.2863-1.1355-1.0274 0.77862-1.1647 0.25786-0.35222-1.3358 0.29104-0.57086 0.52916-1.1775 0.52916-1.3481 0-0.47735 1.8781-2.0642 2.9124-2.4607 0.50826-0.19486 1.2813-0.5071 1.7178-0.69386 2.9453-1.26 4.303-1.3707 6.35-0.5178 2.2364 0.93183 3.0558 2.2504 3.2819 5.2816l0.15771 2.1143 1.4552 0.19779c0.80037 0.10878 1.7882 0.38802 2.1952 0.62052 0.64744 0.36984 0.81295 0.37543 1.3229 0.0447 0.32059-0.20793 1.2748-0.44825 2.1205-0.53403 0.8457-0.0858 2.3376-0.36205 3.3154-0.61393l1.7778-0.45798 1.156 0.83741c0.63581 0.46058 1.2953 0.83742 1.4655 0.83742 0.17021 0 0.56828 0.29765 0.8846 0.66146 0.31632 0.3638 0.74776 0.66145 0.95875 0.66145s0.54934 0.2366 0.75189 0.52577c0.20254 0.28917 1.0725 0.90049 1.9332 1.3585 5.2781 2.8084 10.41 7.7103 13.807 13.188 1.458 2.351 2.2216 3.3389 2.6592 3.4403 0.33765 0.0782 1.1916 0.84289 1.8977 1.6993 1.051 1.2748 1.232 1.6401 0.998 2.0148-0.40849 0.65409-0.11844 1.1873 1.1429 2.101 1.0419 0.75473 2.359 2.9194 2.359 3.877 0 0.65397-0.98976 0.39619-1.6945-0.44131-0.49442-0.58758-1.1721-0.95173-2.4527-1.318-0.97325-0.27833-1.8908-0.62734-2.0391-0.77559s-0.70353-0.26955-1.234-0.26955c-1.1961 0-1.3254-0.14868-3.4801-4.0017-2.0564-3.6771-4.4839-6.9802-5.5259-7.5191-0.41576-0.215-0.87947-0.62176-1.0305-0.90391-0.151-0.28216-0.56553-0.66788-0.92118-0.85716-0.35564-0.18928-1.5489-0.96923-2.6516-1.7332-1.1027-0.76398-2.0673-1.3891-2.1434-1.3891-0.0762 0-0.57649-0.29766-1.1119-0.66146-1.6291-1.107-1.742-0.98614-1.545 1.6536 0.29735 3.9843 0.57303 5.134 2.0143 8.4005 0.7705 1.7462 1.6547 3.7785 1.9649 4.5161s1.3555 2.8807 2.323 4.7625 2.0525 4.1953 2.4112 5.1412c0.35873 0.94588 0.96197 2.2556 1.3405 2.9104 0.37856 0.65485 0.68973 1.3483 0.69148 1.541 7e-3 0.78909-3.0464 3.5478-5.0239 4.5387-3.1287 1.5678-2.9683 1.5781-3.9446-0.25362-0.46691-0.87601-0.93124-1.5933-1.0318-1.594-0.48412-4e-3 -3.0812 0.97482-5.3423 2.0124-2.3074 1.0588-2.584 1.2677-3.3723 2.5477-0.47234 0.76689-0.8602 1.6325-0.86192 1.9235-2e-3 0.29104-0.24899 1.3031-0.54952 2.249-0.30053 0.94588-0.6613 2.4937-0.80172 3.4396-0.14042 0.94588-0.32153 2.1523-0.40245 2.681-0.0869 0.56763-0.0286 1.0345 0.14228 1.1401 0.15919 0.0984 0.28942 0.64107 0.28942 1.206 0 0.5649 0.10557 1.0923 0.23459 1.1721 0.12903 0.0797 0.31077 0.55104 0.40387 1.0473s0.33757 1.2417 0.54326 1.6566 0.56349 1.9372 0.79512 3.383c0.23162 1.4458 0.5662 2.8038 0.7435 3.0176 0.17731 0.21384 2.1678 1.8142 4.4234 3.5564 2.2556 1.7422 4.5773 3.614 5.1594 4.1595 0.58208 0.54557 1.6027 1.3936 2.268 1.8846 0.66535 0.49096 2.1927 1.636 3.394 2.5446 1.8518 1.4005 2.2643 1.6091 2.7098 1.3707 0.38038-0.20357 0.62946-0.19494 0.90201 0.0313 0.5339 0.44309 1.5632 0.12571 3.4905-1.0763 1.6031-0.99977 3.6747-1.7663 3.9715-1.4695 0.0803 0.0803-1.4396 2.261-3.3774 4.846-1.9379 2.585-4.0694 5.4387-4.7368 6.3416-1.2486 1.6894-1.6999 1.9738-1.9788 1.2472-0.32242-0.8402-0.14126-1.8841 0.76876-4.43 0.85434-2.3901 0.89863-2.6566 0.54984-3.3073-0.20865-0.38927-0.4371-0.89685-0.50767-1.128-0.0706-0.23112-1.3598-1.3021-2.865-2.38-1.5052-1.0779-5.1396-3.8356-8.0764-6.1282-2.9368-2.2926-5.4074-4.1684-5.4901-4.1684-0.0827 0-0.14901 0.32742-0.14732 0.7276 3e-3 0.77347 1.1498 7.1152 1.5054 8.3266 0.11622 0.39591 1.1249 1.6475 2.2416 2.7814l2.0303 2.0615-1.2242 1.9242c-1.105 1.7367-1.2913 1.9095-1.9124 1.773-0.58588-0.12868-0.81311 0.0229-1.5291 1.0199-0.46252 0.64406-0.96256 1.4908-1.1112 1.8818s-0.62924 1.2326-1.068 1.8703c-0.97323 1.4145-1.8474 1.7072-5.1046 1.7093l-2.3327 2e-3 0.0837-0.71612zm-8.6172-38.905c0.37263-1.1814 2.061-5.2893 2.3953-5.8278 0.4533-0.73025 0.33675-1.5323-0.79681-5.4831-0.77482-2.7005-0.83426-3.1977-0.82416-6.8926 0.01-3.5519 0.0765-4.1347 0.61805-5.3936 0.64245-1.4934 0.62967-2.14-0.0893-4.5148-0.19823-0.65485-0.43279-1.518-0.52124-1.9182-0.0884-0.40018-0.31859-0.72761-0.51142-0.72761-0.51714 0-2.4908 2.0702-3.2793 3.4396-0.62551 1.0864-1.6746 2.3102-5.3839 6.2809-0.71217 0.76234-1.2949 1.4984-1.2949 1.6356s-0.34879 0.49792-0.7751 0.80147c-0.4263 0.30356-1.0313 0.96651-1.3445 1.4732-0.49885 0.80715-0.70246 0.92131-1.6432 0.92131-0.96683 0-1.2283 0.15983-2.6242 1.6043-0.85275 0.88237-1.5504 1.6516-1.5504 1.7095 0 0.2311 1.3799 1.3646 5.4092 4.4432 10.41 7.954 11.668 8.8983 11.863 8.9048 0.11371 4e-3 0.27246-0.2014 0.35279-0.45607z" stroke-width=".26458"/></g></svg>
