<?xml version="1.0" encoding="UTF-8"?>
<svg width="152mm" height="271mm" version="1.1" viewBox="0 0 152 271" xml:space="preserve" xmlns="http://www.w3.org/2000/svg"><g transform="translate(30.1 -4.25)"><path d="m87 275c7.16-2.38 6.66-8.92-1.7-22.3-1.79-2.86-1.79-2.86-1.26-4.51 1.12-3.44-2.88-10.4-5.97-10.4-0.691 0-7.33 1.95-8.17 2.4-0.975 0.522-1.73 0.0237-3.96-2.6-1.21-1.42-3.34-3.77-4.73-5.23-1.4-1.46-5.78-6.42-9.74-11-3.96-4.61-7.93-9.04-8.82-9.85-2.64-2.39-2.23-5.96 1.17-10.1 0.761-0.926 1.65-1.76 1.97-1.85 0.411-0.119 0.714-0.57 1.03-1.53 0.786-2.41 2.51-5.08 5.22-8.1 2.34-2.61 8.59-12.4 10.7-16.8 1.29-2.7 7.44-5.99 20-10.7 7.33-2.75 12.5-5.67 26.5-15.1 6.77-4.55 5.94-4.2 6.91-2.88 0.774 1.05 0.774 1.05 3.02-1.26 3.92-4.03 3.99-3.39-0.953-8.51-1.77-1.83-3.74-4.04-4.38-4.92-0.642-0.873-1.72-2.18-2.39-2.91-0.675-0.728-1.92-2.28-2.77-3.44-0.848-1.16-2.57-3.37-3.84-4.89s-3.23-4.15-4.37-5.82c-2.29-3.36-3.4-4.82-5.05-6.64-2.58-2.84-2.77-11.8-0.3-14.1 2.88-2.71 4.65-6.57 6-13.1 0.466-2.26 1.51-6.66 2.33-9.79 2.43-9.33 2.36-18.5-0.199-26.2-3.37-10.1-4.62-16.3-4.76-23.6-7e-3 -0.353-0.223-0.406-1.2-0.296-1.9 0.214-1.16-2.49 1.53-5.64 1.55-1.81 3.1-6.85 2.64-8.6-0.139-0.53-3.13-0.657-4.39-0.186-0.536 0.201-0.826 0.194-1.05-0.0248-0.419-0.419-1.32-0.379-1.93 0.0857-0.282 0.214-1.08 0.392-1.77 0.397-1.21 0.0081-2.58 1.26-2.58 2.35 0 0.131-0.367 1.41-0.816 2.85-0.937 3-0.944 5.05-0.0274 7.96 0.434 1.38 0.46 1.69 0.159 1.94-0.611 0.507-0.663 1.51-0.883 17-0.203 14.3-0.243 15.2-0.778 16.9-0.964 3.16-2.42 6.72-4.49 11-1.99 4.1-1.99 4.1-2.14 8.1-0.174 4.62-2.2 9.93-3.92 10.2-1.92 0.36-3.06-0.129-3.79-1.62-0.374-0.766-0.769-1.3-0.878-1.19-0.227 0.227-1.21-0.944-1.21-1.45-3e-3 -0.185 0.454-0.84 1.02-1.46 3.73-4.08 5.35-15.8 2.72-19.6-3.28-4.77-8.09-8.17-10.6-7.52-1.93 0.497-2.58 0.504-3.47 0.0356-2.05-1.08-6.7-0.37-9.77 1.48-6.42 3.88-7.11 6.76-2.51 10.5 0.73 0.598 0.74 0.645 0.604 2.82-0.109 1.75-0.0553 2.29 0.261 2.61 0.219 0.219 0.382 0.707 0.36 1.08-0.0476 0.845-0.0599 0.477 0.191 5.72 0.209 4.37 0.209 4.37 2.41 8.56 2.2 4.19 2.2 4.19 1.48 4.77-0.51 0.407-0.787 0.953-0.958 1.89-0.297 1.62-0.71 1.98-3.49 3.03-7.18 2.71-7.44 2.92-14.3 11.5-6.9 8.6-11.6 12.5-13 10.8-1.06-1.33-3.04-0.909-5.35 1.14-1.84 1.63-1.84 1.63-4.83 1.63-2.97 0-2.99 3e-3 -3.67 0.777-0.849 0.969-2.19 1.18-4.54 0.705-3.42-0.688-21.8-0.173-21.7 0.607 0.122 0.865-2.28 0.673-4.59-0.367-3.1-1.4-6.44-1.16-6.12 0.443 0.112 0.558 0.038 0.973-0.224 1.26-0.503 0.556-1.23 6.55-0.876 7.24 0.617 1.21 4.6 1.51 9.27 0.698 2.28-0.4 2.45-0.321 3.01 1.45 0.817 2.59-0.599 2.38 16.6 2.47 19.7 0.103 19.4 0.144 29.6-3.68 6-2.25 5.58-2.73 4.85 5.59-0.785 8.89-0.513 7.83-2.36 9.14-3.3 2.35-3.15 2.17-2.96 3.57 0.358 2.7-6.9 8.3-16.8 13-6.57 3.09-11.4 5.86-15.2 8.67-1.32 0.976-6.2 4.57-10.8 7.99-11.7 8.6-11.9 8.85-12.6 14.3-0.463 3.73-0.0721 44.5 0.436 45.5 1.07 2.06 2.98 2.89 6.69 2.89 3.17 0 4.94 4.76 2.55 6.84-0.89 0.774-0.86 0.856 2.32 6.18 2.89 4.85 3.09 5.47 3.11 9.99 0.0326 5.48 3.56 10.5 5.86 8.4 3.29-3.06 5.65-13.2 3.97-17.1-0.878-2-1.01-3.43-0.589-6.39 0.217-1.52 0.418-1.75 1.97-2.18 1.65-0.456 3.08-4.92 3.08-9.64 4e-3 -3.66-0.967-4.49-5.56-4.76-5.87-0.352-6.16-0.816-4.66-7.41 2.04-8.95 2.04-17 3e-3 -20.8-0.864-1.59-0.771-2.01 0.694-3.12 1.57-1.19 1.68-1.44 1.04-2.26-0.541-0.688-0.541-0.688 0.599-2.13 1.42-1.79 1.64-1.89 2.78-1.18 1.93 1.19 2.97 0.841 14.1-4.76 10.1-5.08 12-5.85 14.8-5.85 2.47 0 2.45 0.379-0.231 5.42-6.62 12.4-8.99 18.1-8.99 21.6 0 1.82 5.64 11.1 11 18.2 27.9 36.5 26.7 35.6 35.6 27.1 3.44-3.27 4.2-2.94 5.35 2.35 0.0897 0.41 0.818 1.21 1.87 2.05 3.71 2.97 5.11 4.51 7.09 7.78 3.58 5.9 5.93 7.43 9.6 6.21z" stroke-width=".265"/></g></svg>
