<?xml version="1.0" encoding="UTF-8" standalone="no"?>
<!DOCTYPE svg PUBLIC "-//W3C//DTD SVG 1.0//EN" "http://www.w3.org/TR/2001/PR-SVG-20010719/DTD/svg10.dtd">
<svg width="21cm" height="16cm" viewBox="179 219 405 302" xmlns="http://www.w3.org/2000/svg" xmlns:xlink="http://www.w3.org/1999/xlink">
  <defs/>
  <g id="Background"/>
  <g id="Background">
    <rect style="fill: #ffffff; fill-opacity: 1; stroke-opacity: 1; stroke-width: 2; stroke: #add8e6" x="180" y="260" width="240" height="100" rx="0" ry="0"/>
    <rect style="fill: #ffffff; fill-opacity: 1; stroke-opacity: 1; stroke-width: 2; stroke: #000000" x="180" y="420" width="240" height="100" rx="0" ry="0"/>
    <rect style="fill: #ffffff; fill-opacity: 1; stroke-opacity: 1; stroke-width: 2; stroke: #000000" x="180" y="380" width="80" height="40" rx="0" ry="0"/>
    <rect style="fill: #ffffff; fill-opacity: 1; stroke-opacity: 1; stroke-width: 2; stroke: #add8e6" x="180" y="220" width="80" height="40" rx="0" ry="0"/>
    <text font-size="25.4" style="fill: #000000; fill-opacity: 1; stroke: none;text-anchor:start;font-family:sans-serif;font-style:normal;font-weight:normal" x="290" y="460">
      <tspan x="290" y="460"></tspan>
    </text>
    <text font-size="25.4" style="fill: #000000; fill-opacity: 1; stroke: none;text-anchor:middle;font-family:sans-serif;font-style:normal;font-weight:normal" x="220" y="409.875">
      <tspan x="220" y="409.875">main</tspan>
    </text>
    <text font-size="25.4" style="fill: #000000; fill-opacity: 1; stroke: none;text-anchor:middle;font-family:sans-serif;font-style:normal;font-weight:normal" x="540" y="409.875">
      <tspan x="540" y="409.875">[1, 2, 3]</tspan>
    </text>
    <text font-size="25.4" style="fill: #add8e6; fill-opacity: 1; stroke: none;text-anchor:start;font-family:sans-serif;font-style:normal;font-weight:normal" x="290" y="300">
      <tspan x="290" y="300"></tspan>
    </text>
    <text font-size="25.4" style="fill: #add8e6; fill-opacity: 1; stroke: none;text-anchor:middle;font-family:sans-serif;font-style:normal;font-weight:normal" x="220" y="249.875">
      <tspan x="220" y="249.875">reset</tspan>
    </text>
    <text font-size="25.4" style="fill: #000000; fill-opacity: 1; stroke: none;text-anchor:middle;font-family:sans-serif;font-style:normal;font-weight:normal" x="540" y="349.875">
      <tspan x="540" y="349.875">[]</tspan>
    </text>
    <g>
      <path style="fill: #ffffff; fill-opacity: 1; stroke-opacity: 1; stroke-width: 2; stroke: #000000" fill-rule="evenodd" d="M 260 440 L 353.333,440 C 379.107,440 400,448.954 400,460 C 400,471.046 379.107,480 353.333,480 L 260,480 L 260,440z"/>
      <text font-size="25.4" style="fill: #000000; fill-opacity: 1; stroke: none;text-anchor:start;font-family:sans-serif;font-style:normal;font-weight:normal" x="270" y="472.7">
        <tspan x="270" y="472.7">nums</tspan>
      </text>
    </g>
    <g>
      <path style="fill: none; stroke-opacity: 1; stroke-width: 2; stroke: #ff0000" d="M 380 460 C 439.76,460 420.24,400 470.264,400"/>
      <path style="fill: #ff0000; fill-opacity: 1; stroke-opacity: 1; stroke-width: 2; stroke: #ff0000" fill-rule="evenodd" d="M 380 460 C 380,457.5 382.5,455 385,455 C 387.5,455 390,457.5 390,460 C 390,462.5 387.5,465 385,465 C 382.5,465 380,462.5 380,460z"/>
      <polygon style="fill: #ff0000; fill-opacity: 1; stroke-opacity: 1; stroke-width: 2; stroke: #ff0000" fill-rule="evenodd" points="477.764,400 467.764,405 470.264,400 467.764,395 "/>
    </g>
    <g>
      <path style="fill: none; stroke-opacity: 1; stroke-width: 2; stroke: #add8e6" d="M 260 280 L 353.333,280 C 379.107,280 400,288.954 400,300 C 400,311.046 379.107,320 353.333,320 L 260,320 L 260,280"/>
      <text font-size="25.4" style="fill: #add8e6; fill-opacity: 1; stroke: none;text-anchor:start;font-family:sans-serif;font-style:normal;font-weight:normal" x="270" y="312.7">
        <tspan x="270" y="312.7">data</tspan>
      </text>
    </g>
    <g>
      <path style="fill: none; stroke-opacity: 1; stroke-width: 2; stroke: #add8e6" d="M 380 300 C 439.76,300 420.24,280 480,280"/>
      <path style="fill: #add8e6; fill-opacity: 1; stroke-opacity: 1; stroke-width: 2; stroke: #add8e6" fill-rule="evenodd" d="M 380 300 C 380,297.5 382.5,295 385,295 C 387.5,295 390,297.5 390,300 C 390,302.5 387.5,305 385,305 C 382.5,305 380,302.5 380,300z"/>
    </g>
  </g>
</svg>
