<?xml version="1.0" encoding="UTF-8" standalone="no"?>
<!-- Created with Inkscape (http://www.inkscape.org/) -->
<svg xmlns:dc="http://purl.org/dc/elements/1.1/" xmlns:cc="http://creativecommons.org/ns#" xmlns:rdf="http://www.w3.org/1999/02/22-rdf-syntax-ns#" xmlns:svg="http://www.w3.org/2000/svg" xmlns="http://www.w3.org/2000/svg" xmlns:sodipodi="http://sodipodi.sourceforge.net/DTD/sodipodi-0.dtd" xmlns:inkscape="http://www.inkscape.org/namespaces/inkscape" width="227.50713" height="233.5" id="svg2" version="1.1" inkscape:version="0.48.4 r9939" sodipodi:docname="koch-curve.svg">
  <defs id="defs4"/>
  <sodipodi:namedview id="base" pagecolor="#ffffff" bordercolor="#666666" borderopacity="1.0" inkscape:pageopacity="0.0" inkscape:pageshadow="2" inkscape:zoom="1.86" inkscape:cx="98.402057" inkscape:cy="98.045717" inkscape:document-units="px" inkscape:current-layer="layer1" showgrid="false" inkscape:window-width="1314" inkscape:window-height="766" inkscape:window-x="52" inkscape:window-y="0" inkscape:window-maximized="1" fit-margin-top="5" fit-margin-left="5" fit-margin-right="5" fit-margin-bottom="5">
    <inkscape:grid type="xygrid" id="grid2984" empspacing="5" visible="true" enabled="true" snapvisiblegridlinesonly="true" originx="-5px" originy="-815px"/>
  </sodipodi:namedview>
  <metadata id="metadata7">
    <rdf:RDF>
      <cc:Work rdf:about="">
        <dc:format>image/svg+xml</dc:format>
        <dc:type rdf:resource="http://purl.org/dc/dcmitype/StillImage"/>
        <dc:title/>
      </cc:Work>
    </rdf:RDF>
  </metadata>
  <g inkscape:label="Layer 1" inkscape:groupmode="layer" id="layer1" transform="translate(-5,-3.8621826)">
    <path inkscape:connector-curvature="0" id="path36" style="fill:none;stroke:#000000;stroke-width:1;stroke-linecap:square;stroke-linejoin:miter;stroke-miterlimit:10;stroke-opacity:1;stroke-dasharray:none" d="m 118.75237,9.3621826 36.08496,62.5000004 72.16867,0 m -216.506,0 72.167415,0 36.084955,-62.5000004" sodipodi:nodetypes="cccccc"/>
    <path inkscape:connector-curvature="0" id="path44" style="fill:none;stroke:#000000;stroke-width:1;stroke-linecap:square;stroke-linejoin:miter;stroke-miterlimit:10;stroke-opacity:1;stroke-dasharray:none" d="m 118.75338,89.36218 12.02875,20.83375 24.05624,0 -12.02875,20.8325 12.02875,20.83375 24.055,0 12.02875,-20.83375 12.0275,20.83375 24.0575,0 m -216.50712,0 24.05712,0 12.0275,-20.83375 12.02875,20.83375 24.055,0 12.02875,-20.83375 -12.02875,-20.8325 24.05625,0 12.02876,-20.83375" sodipodi:nodetypes="cccccccccccccccccc"/>
    <path inkscape:connector-curvature="0" id="path60" style="fill:none;stroke:#000000;stroke-width:1;stroke-linecap:square;stroke-linejoin:miter;stroke-miterlimit:10;stroke-opacity:1;stroke-dasharray:none" d="m 118.75338,169.36218 1.33625,2.315 2.6725,0 -1.33625,2.315 1.33625,2.31375 2.67375,0 1.33625,-2.31375 1.33625,2.31375 2.67375,0 -1.33625,2.315 1.33625,2.315 -2.67375,0 -1.33625,2.315 1.33625,2.315 2.67375,0 -1.33625,2.315 1.33625,2.315 2.6725,0 1.33625,-2.315 1.33625,2.315 2.67375,0 1.33625,-2.315 -1.33625,-2.315 2.6725,0 1.33625,-2.315 1.33625,2.315 2.6725,0 -1.33625,2.315 1.33625,2.315 2.67375,0 1.33625,-2.315 1.33625,2.315 2.67375,0 -1.3375,2.31375 1.3375,2.315 -2.67375,0 -1.33625,2.315 1.33625,2.315 2.67375,0 -1.3375,2.315 1.3375,2.315 -2.67375,0 -1.33625,2.315 -1.33625,-2.315 -2.67375,0 -1.33625,2.315 1.33625,2.315 -2.6725,0 -1.33625,2.31375 1.33625,2.315 2.6725,0 -1.33625,2.315 1.33625,2.315 2.67375,0 1.33625,-2.315 1.33625,2.315 2.67375,0 -1.3375,2.315 1.3375,2.315 -2.67375,0 -1.33625,2.315 1.33625,2.31375 2.67375,0 -1.3375,2.315 1.3375,2.315 2.6725,0 1.33625,-2.315 1.33625,2.315 2.6725,0 1.3375,-2.315 -1.3375,-2.315 2.67375,0 1.33625,-2.31375 1.33625,2.31375 2.67375,0 -1.33625,2.315 1.33625,2.315 2.6725,0 1.33625,-2.315 1.33625,2.315 2.6725,0 1.3375,-2.315 -1.3375,-2.315 2.67375,0 1.33625,-2.31375 -1.33625,-2.315 -2.67375,0 1.3375,-2.315 -1.3375,-2.315 2.67375,0 1.33625,-2.315 1.33625,2.315 2.67375,0 1.33625,-2.315 -1.33625,-2.315 2.6725,0 1.33625,-2.315 1.33625,2.315 2.67375,0 -1.3375,2.315 1.3375,2.315 2.6725,0 1.33625,-2.315 1.33625,2.315 2.6725,0 -1.33625,2.315 1.33625,2.315 -2.6725,0 -1.33625,2.315 1.33625,2.31375 2.6725,0 -1.33625,2.315 1.33625,2.315 2.67375,0 1.33625,-2.315 1.33625,2.315 2.67375,0 1.33625,-2.315 -1.33625,-2.315 2.6725,0 1.33625,-2.31375 1.33625,2.31375 2.67375,0 -1.3375,2.315 1.3375,2.315 2.6725,0 1.33625,-2.315 1.33625,2.315 2.67375,0 m -216.50713,0 2.67325,0 1.3365,-2.315 1.336375,2.315 2.672875,0 1.336875,-2.315 -1.336875,-2.315 2.673125,0 1.33625,-2.31375 1.33625,2.31375 2.6725,0 -1.33625,2.315 1.33625,2.315 2.67375,0 1.33625,-2.315 1.33625,2.315 2.67375,0 1.33625,-2.315 -1.33625,-2.315 2.6725,0 1.33625,-2.31375 -1.33625,-2.315 -2.6725,0 1.33625,-2.315 -1.33625,-2.315 2.6725,0 1.33625,-2.315 1.33625,2.315 2.6725,0 1.3375,-2.315 -1.3375,-2.315 2.67375,0 1.33625,-2.315 1.33625,2.315 2.67375,0 -1.3375,2.315 1.3375,2.315 2.6725,0 1.33625,-2.315 1.33625,2.315 2.67375,0 -1.3375,2.315 1.3375,2.315 -2.67375,0 -1.33625,2.315 1.33625,2.31375 2.67375,0 -1.3375,2.315 1.3375,2.315 2.6725,0 1.33625,-2.315 1.33625,2.315 2.6725,0 1.33625,-2.315 -1.33625,-2.315 2.67375,0 1.33625,-2.31375 1.33625,2.31375 2.67375,0 -1.3375,2.315 1.3375,2.315 2.6725,0 1.33625,-2.315 1.33625,2.315 2.6725,0 1.3375,-2.315 -1.3375,-2.315 2.67375,0 1.33625,-2.31375 -1.33625,-2.315 -2.67375,0 1.3375,-2.315 -1.3375,-2.315 2.67375,0 1.33625,-2.315 1.33625,2.315 2.67375,0 1.336251,-2.315 -1.336251,-2.315 2.6725,0 1.336251,-2.315 -1.336251,-2.31375 -2.6725,0 1.336251,-2.315 -1.336251,-2.315 -2.67375,0 -1.33625,2.315 -1.33625,-2.315 -2.67375,0 1.3375,-2.315 -1.3375,-2.315 2.67375,0 1.33625,-2.315 -1.33625,-2.315 -2.67375,0 1.3375,-2.315 -1.3375,-2.31375 2.67375,0 1.33625,-2.315 1.33625,2.315 2.67375,0 1.336251,-2.315 -1.336251,-2.315 2.6725,0 1.336251,-2.315 1.33625,2.315 2.672499,0 -1.336249,2.315 1.336249,2.315 2.673755,0 1.33625,-2.315 1.33626,2.315 2.6725,0 1.33625,-2.315 -1.33625,-2.315 2.67375,0 1.33624,-2.315 -1.33624,-2.315 -2.67375,0 1.33625,-2.315 -1.33625,-2.315 2.67375,0 1.33624,-2.31375 1.33625,2.31375 2.67375,0 1.33625,-2.31375 -1.33625,-2.315 2.6725,0 1.33625,-2.315" sodipodi:nodetypes="cccccccccccccccccccccccccccccccccccccccccccccccccccccccccccccccccccccccccccccccccccccccccccccccccccccccccccccccccccccccccccccccccccccccccccccccccccccccccccccccccccccccccccccccccccccccccccccccccccccccccccccccccccccccccccccccccccccccccccccccccccccccccccccccccc"/>
    <text xml:space="preserve" style="font-size:24px;font-style:normal;font-variant:normal;font-weight:normal;font-stretch:normal;line-height:125%;letter-spacing:0px;word-spacing:0px;fill:#000000;fill-opacity:1;stroke:none;font-family:DejaVu Sans;-inkscape-font-specification:Sans" x="180" y="32.362183" id="text3775" sodipodi:linespacing="125%"><tspan sodipodi:role="line" id="tspan3777" x="180" y="32.362183" style="font-size:14px">n=1</tspan></text>
    <text xml:space="preserve" style="font-size:24px;font-style:normal;font-variant:normal;font-weight:normal;font-stretch:normal;line-height:125%;letter-spacing:0px;word-spacing:0px;fill:#000000;fill-opacity:1;stroke:none;font-family:DejaVu Sans;-inkscape-font-specification:Sans" x="180" y="112.36218" id="text3775-9" sodipodi:linespacing="125%"><tspan sodipodi:role="line" id="tspan3777-7" x="180" y="112.36218" style="font-size:14px">n=2</tspan></text>
    <text xml:space="preserve" style="font-size:24px;font-style:normal;font-variant:normal;font-weight:normal;font-stretch:normal;line-height:125%;letter-spacing:0px;word-spacing:0px;fill:#000000;fill-opacity:1;stroke:none;font-family:DejaVu Sans;-inkscape-font-specification:Sans" x="180" y="192.36218" id="text3775-3" sodipodi:linespacing="125%"><tspan sodipodi:role="line" id="tspan3777-8" x="180" y="192.36218" style="font-size:14px">n=4</tspan></text>
  </g>
</svg>