<?xml version="1.0" encoding="UTF-8"?>
<svg shape-rendering="geometricPrecision" text-rendering="geometricPrecision" style="white-space:pre" version="1.1" viewBox="0 0 1050 1150" xmlns="http://www.w3.org/2000/svg">
 <g transform="translate(321 419) rotate(180) scale(-1 1) translate(-300 -300)" fill="#0f0" stroke="#000" stroke-linecap="square" stroke-width="2">
  <rect width="100" height="100"/>
  <rect transform="translate(100)" width="100" height="100"/>
  <rect transform="translate(200)" width="100" height="100"/>
  <rect transform="translate(0 100)" width="100" height="100"/>
  <rect transform="translate(100 100)" width="100" height="100"/>
  <rect transform="translate(200 100)" width="100" height="100"/>
  <rect transform="translate(0 200)" width="100" height="100"/>
  <rect transform="translate(100 200)" width="100" height="100"/>
  <rect transform="translate(200 200)" width="100" height="100"/>
 </g>
 <g transform="translate(720 720) rotate(90.2) scale(-1 1) translate(-400)" fill="#ff0" stroke="#000" stroke-linecap="square" stroke-width="2">
  <rect width="100" height="100"/>
  <rect transform="translate(100)" width="100" height="100"/>
  <rect transform="translate(200)" width="100" height="100"/>
  <rect transform="translate(0 100)" width="100" height="100"/>
  <rect transform="translate(100 100)" width="100" height="100"/>
  <rect transform="translate(200 100)" width="100" height="100"/>
  <rect transform="translate(0 200)" width="100" height="100"/>
  <rect transform="translate(100 200)" width="100" height="100"/>
  <rect transform="translate(200 200)" width="100" height="100"/>
  <rect transform="translate(300)" width="100" height="100"/>
  <rect transform="translate(300 100)" width="100" height="100"/>
  <rect transform="translate(300 200)" width="100" height="100"/>
  <rect transform="translate(0 300)" width="100" height="100"/>
  <rect transform="translate(100 300)" width="100" height="100"/>
  <rect transform="translate(200 300)" width="100" height="100"/>
  <rect transform="translate(300 300)" width="100" height="100"/>
 </g>
 <g fill="#0f0" stroke="#000" stroke-linecap="square" stroke-width="2">
  <rect transform="matrix(.60182 -.79864 -.79864 -.60182 0 0)" x="-141.68" y="-1008.6" width="100" height="100"/>
  <rect transform="matrix(.60182 -.79864 -.79864 -.60182 0 0)" x="-41.677" y="-1008.6" width="100" height="100"/>
  <rect transform="matrix(.60182 -.79864 -.79864 -.60182 0 0)" x="58.323" y="-1008.6" width="100" height="100"/>
 </g>
 <g fill="#ff0" stroke="#000" stroke-linecap="square" stroke-width="2">
  <rect transform="matrix(.60182 -.79864 -.79864 -.60182 0 0)" x="-141.68" y="-908.56" width="100" height="100"/>
  <rect transform="matrix(.60182 -.79864 -.79864 -.60182 0 0)" x="-41.677" y="-908.56" width="100" height="100"/>
  <rect transform="matrix(.60182 -.79864 -.79864 -.60182 0 0)" x="58.323" y="-908.56" width="100" height="100"/>
  <rect transform="matrix(.60182 -.79864 -.79864 -.60182 0 0)" x="-141.68" y="-808.56" width="100" height="100"/>
  <rect transform="matrix(.60182 -.79864 -.79864 -.60182 0 0)" x="-41.677" y="-808.56" width="100" height="100"/>
  <rect transform="matrix(.60182 -.79864 -.79864 -.60182 0 0)" x="58.323" y="-808.56" width="100" height="100"/>
 </g>
 <rect transform="matrix(.60182 -.79864 -.79864 -.60182 0 0)" x="158.32" y="-1008.6" width="100" height="100" fill="#0f0" stroke="#000" stroke-linecap="square" stroke-width="2"/>
 <g fill="#ff0" stroke="#000" stroke-linecap="square" stroke-width="2">
  <rect transform="matrix(.60182 -.79864 -.79864 -.60182 0 0)" x="158.32" y="-908.56" width="100" height="100"/>
  <rect transform="matrix(.60182 -.79864 -.79864 -.60182 0 0)" x="158.32" y="-808.56" width="100" height="100"/>
  <rect transform="matrix(.60182 -.79864 -.79864 -.60182 0 0)" x="-141.68" y="-708.56" width="100" height="100"/>
  <rect transform="matrix(.60182 -.79864 -.79864 -.60182 0 0)" x="-41.677" y="-708.56" width="100" height="100"/>
  <rect transform="matrix(.60182 -.79864 -.79864 -.60182 0 0)" x="58.323" y="-708.56" width="100" height="100"/>
  <rect transform="matrix(.60182 -.79864 -.79864 -.60182 0 0)" x="158.32" y="-708.56" width="100" height="100"/>
 </g>
 <g fill="#0f0" stroke="#000" stroke-linecap="square" stroke-width="2">
  <rect transform="matrix(.60182 -.79864 -.79864 -.60182 0 0)" x="258.32" y="-1008.6" width="100" height="100"/>
  <rect transform="matrix(.60182 -.79864 -.79864 -.60182 0 0)" x="258.32" y="-908.56" width="100" height="100"/>
  <rect transform="matrix(.60182 -.79864 -.79864 -.60182 0 0)" x="258.32" y="-808.56" width="100" height="100"/>
  <rect transform="matrix(.60182 -.79864 -.79864 -.60182 0 0)" x="258.32" y="-708.56" width="100" height="100"/>
 </g>
 <g fill="#ff0" stroke="#000" stroke-linecap="square" stroke-width="2">
  <rect transform="matrix(.60182 -.79864 -.79864 -.60182 0 0)" x="-141.68" y="-608.56" width="100" height="100"/>
  <rect transform="matrix(.60182 -.79864 -.79864 -.60182 0 0)" x="-41.677" y="-608.56" width="100" height="100"/>
  <rect transform="matrix(.60182 -.79864 -.79864 -.60182 0 0)" x="58.323" y="-608.56" width="100" height="100"/>
  <rect transform="matrix(.60182 -.79864 -.79864 -.60182 0 0)" x="158.32" y="-608.56" width="100" height="100"/>
 </g>
 <g stroke="#000" stroke-linecap="square" stroke-width="2">
  <rect transform="matrix(.60182 -.79864 -.79864 -.60182 0 0)" x="258.32" y="-608.56" width="100" height="100" fill="#0f0"/>
  <path transform="translate(321 419) rotate(210) scale(-1 1)" d="m0 0 496-61.2-348-199-148 260z" fill="#ecffef"/>
  <rect transform="translate(320 719) rotate(.175) scale(-1 1) translate(-24 -24)" width="24" height="24" fill="none"/>
 </g>
 <g fill="#000000" font-family="Arial" font-size="74.667px" font-weight="400" letter-spacing="0" word-spacing="0">
  <text x="332.45386" y="605.44678" style="line-height:33.1851px">a</text>
  <text x="435.31348" y="703.15558" style="line-height:33.1852px">b</text>
  <text x="444.09146" y="595.42303" style="line-height:33.1852px">c</text>
 </g>
</svg>
