<?xml version="1.0" encoding="UTF-8"?>
<svg shape-rendering="geometricPrecision" text-rendering="geometricPrecision" style="white-space:pre" version="1.1" viewBox="0 0 1050 1150" xmlns="http://www.w3.org/2000/svg">
 <g transform="translate(321 419) rotate(180) scale(-1 1) translate(-300 -300)" fill="#ffe0cb" stroke="#000" stroke-linecap="square" stroke-width="2">
  <rect width="100" height="100"/>
  <rect transform="translate(100 0)" width="100" height="100"/>
  <rect transform="translate(200 0)" width="100" height="100"/>
  <rect transform="translate(0 100)" width="100" height="100"/>
  <rect transform="translate(100 100)" width="100" height="100"/>
  <rect transform="translate(200 100)" width="100" height="100"/>
  <rect transform="translate(0 200)" width="100" height="100"/>
  <rect transform="translate(100 200)" width="100" height="100"/>
  <rect transform="translate(200 200)" width="100" height="100"/>
 </g>
 <g transform="translate(720 720) rotate(90.2) scale(-1 1) translate(-400)" fill="#f9cbff" stroke="#000" stroke-linecap="square" stroke-width="2">
  <rect width="100" height="100"/>
  <rect transform="translate(100 0)" width="100" height="100"/>
  <rect transform="translate(200 0)" width="100" height="100"/>
  <rect transform="translate(0 100)" width="100" height="100"/>
  <rect transform="translate(100 100)" width="100" height="100"/>
  <rect transform="translate(200 100)" width="100" height="100"/>
  <rect transform="translate(0 200)" width="100" height="100"/>
  <rect transform="translate(100 200)" width="100" height="100"/>
  <rect transform="translate(200 200)" width="100" height="100"/>
  <rect transform="translate(300 0)" width="100" height="100"/>
  <rect transform="translate(300 100)" width="100" height="100"/>
  <rect transform="translate(300 200)" width="100" height="100"/>
  <rect transform="translate(0 300)" width="100" height="100"/>
  <rect transform="translate(100 300)" width="100" height="100"/>
  <rect transform="translate(200 300)" width="100" height="100"/>
  <rect transform="translate(300 300)" width="100" height="100"/>
 </g>
 <g transform="translate(671 370) rotate(127) scale(-1 1) translate(-250 -250)" fill="#ffcbcb" stroke="#000" stroke-linecap="square" stroke-width="2">
  <rect width="100" height="100"/>
  <rect transform="translate(100 0)" width="100" height="100"/>
  <rect transform="translate(200 0)" width="100" height="100"/>
  <rect transform="translate(0 100)" width="100" height="100"/>
  <rect transform="translate(100 100)" width="100" height="100"/>
  <rect transform="translate(200 100)" width="100" height="100"/>
  <rect transform="translate(0 200)" width="100" height="100"/>
  <rect transform="translate(100 200)" width="100" height="100"/>
  <rect transform="translate(200 200)" width="100" height="100"/>
  <rect transform="translate(300 0)" width="100" height="100"/>
  <rect transform="translate(300 100)" width="100" height="100"/>
  <rect transform="translate(300 200)" width="100" height="100"/>
  <rect transform="translate(0 300)" width="100" height="100"/>
  <rect transform="translate(100 300)" width="100" height="100"/>
  <rect transform="translate(200 300)" width="100" height="100"/>
  <rect transform="translate(300 300)" width="100" height="100"/>
  <rect transform="translate(400 0)" width="100" height="100"/>
  <rect transform="translate(400 100)" width="100" height="100"/>
  <rect transform="translate(400 200)" width="100" height="100"/>
  <rect transform="translate(400 300)" width="100" height="100"/>
  <rect transform="translate(0 400)" width="100" height="100"/>
  <rect transform="translate(100 400)" width="100" height="100"/>
  <rect transform="translate(200 400)" width="100" height="100"/>
  <rect transform="translate(300 400)" width="100" height="100"/>
  <rect transform="translate(400 400)" width="100" height="100"/>
 </g>
 <path transform="translate(321 419) rotate(210) scale(-1 1)" d="m0 0 496-61.2-348-199-148 260z" fill="#ecffef" stroke="#000" stroke-linecap="square" stroke-width="2"/>
 <rect transform="translate(320 719) rotate(.175) scale(-1 1) translate(-24 -24)" width="24" height="24" fill="none" stroke="#000" stroke-linecap="square" stroke-width="2"/>
 <g fill="#000000" font-family="Arial" font-size="36" font-weight="400" letter-spacing="0" word-spacing="0">
  <text transform="translate(330 581)" style="line-height:16px">a</text>
  <text transform="translate(470 712)" style="line-height:16px">b</text>
  <text transform="translate(502 601)" style="line-height:16px">c</text>
 </g>
</svg>
