<svg xmlns="http://www.w3.org/2000/svg" width="380" height="354.667" xmlns:v="https://vecta.io/nano"><path d="M11.333 278v-66.667h33.333v33.333H78V278h33.333v33.333h33.333v33.333H11.333zM78 294.667V278H44.667v33.333H78zM235.333 278v-66.667h17.333v16h16v17.333H286v16h16V278h17.333v16h16v17.333h17.333v16h16v17.333H235.333zm33.333 41.333v-8H286v16h16V278h-49.333v16h16v17.333h-16v16h16zm66.667 0v-8h-16v16h16zm-66.667-66.667v-8h-16v16h16zm-65.373 38.741l1.387-2.592 2.652-1.639v-2.509h-52.157l1.648-2.667h50.703l-5.718-7.27 2.545-.848 24.313 9.731v.774L204.648 294h-2.742zm-39.96-82.894v-1.385l9.637-22.432 2.363 1.461v6.352l2.181 1.348 34.447-34.524h2.668l-35.296 35.369v1.964h6.509l1.534 2.482-2.414 1.492-21.629 9.258zM10 76.667V10h133.333v133.333H10zm226.667 0V10h66.667v66.667H370v66.667H236.667zm-32.04 13.408l1.387-2.592 2.652-1.639v-2.509h-52.157l1.648-2.667h50.703l-5.718-7.27 2.545-.848L230 82.28v.774l-24.018 9.613h-2.742z"/></svg>