<?xml version="1.0" encoding="UTF-8"?>
<svg width="366" height="543" version="1.1" xmlns="http://www.w3.org/2000/svg" xmlns:xlink="http://www.w3.org/1999/xlink">
 <defs>
  <linearGradient id="linearGradient4468" x1="212" x2="909" y1="399" y2="2686" gradientTransform="matrix(.604 0 0 .604 30.4 56.5)" gradientUnits="userSpaceOnUse">
   <stop stop-color="#b3b3b3" offset="0"/>
   <stop stop-color="#b3b3b3" stop-opacity="0" offset="1"/>
  </linearGradient>
 </defs>
 <g transform="translate(-76.6 -143)">
  <g transform="matrix(.604 0 0 .604 30.4 56.5)">
   <path d="m230 293h294v17.3h-294v-17.3z" fill="#1a1a1a" stroke-width="0"/>
   <path d="m267 143v176h226v-151c-26.8-19.9-54.9-34-91.2-11.1-25.7 6.79-13.7 55.4-97.8-2.72-13.2-6-25.6-9.59-37.2-10.8z" fill="#500" stroke-width="0"/>
   <path d="m287 251h192" fill="#f9f9f9" stroke="#e8e5dd" stroke-dasharray="25.72862477, 25.72862477" stroke-width="6.43"/>
  </g>
  <g transform="matrix(.604 0 0 -.604 30.4 772)">
   <path d="m230 293h294v17.3h-294v-17.3z" fill="#1a1a1a" stroke-width="0"/>
   <path d="m267 143v176h226v-151c-26.8-19.9-54.9-34-91.2-11.1-25.7 6.79-13.7 55.4-97.8-2.72-13.2-6-25.6-9.59-37.2-10.8z" fill="#500" stroke-width="0"/>
   <path d="m287 251h192" fill="#f9f9f9" stroke="#e8e5dd" stroke-dasharray="25.72862477, 25.72862477" stroke-width="6.43"/>
  </g>
  <g transform="matrix(.604 0 0 .604 30.4 56.5)">
   <path d="m230 293h294v17.3h-294v-17.3z" fill="#1a1a1a" stroke-width="0"/>
   <path d="m267 143v176h226v-151c-26.8-19.9-54.9-34-91.2-11.1-25.7 6.79-13.7 55.4-97.8-2.72-13.2-6-25.6-9.59-37.2-10.8z" fill="#500" stroke-width="0"/>
   <path d="m287 251h192" fill="#f9f9f9" stroke="#e8e5dd" stroke-dasharray="25.72862477, 25.72862477" stroke-width="6.43"/>
  </g>
  <g stroke-width="0">
   <path d="m247 375 185-45.6c2.57-0.632 5.14 0.926 5.77 3.49 0.632 2.57-0.926 5.14-3.49 5.77l-185 45.6c-2.57 0.632-5.14-0.926-5.77-3.49-0.632-2.57 0.926-5.14 3.49-5.77z" fill="#501616"/>
   <path d="m247 448 185 45.6c2.57 0.632 5.14-0.926 5.77-3.49 0.632-2.57-0.926-5.14-3.49-5.77l-185-45.6c-2.57-0.632-5.14 0.926-5.77 3.49-0.632 2.57 0.926 5.14 3.49 5.77z" fill="#501616"/>
   <path d="m185 217c-52.5 36.4-88.4 110-88.4 196s35.9 159 88.4 196v-36.7h147v36.7c27.3-18.9 50.1-48 65.7-83.6l-0.528-0.132c-1.78-25-6.83-50 19.4-75l1.43 0.377c1.54-12.2 2.36-24.7 2.36-37.4 0-12.8-0.816-25.3-2.36-37.5l-1.43 0.377c-26.3-25-21.2-50-19.4-75l0.509-0.132c-15.6-35.6-38.4-64.7-65.7-83.6v36.7h-147v-36.7z" fill="#ffd400"/>
   <path d="m412 413c0 84.6-68.6 153-153 153-84.6 0-153-68.6-153-153 0-84.6 68.6-153 153-153 84.6 0 153 68.6 153 153z" fill="url(#linearGradient4468)"/>
  </g>
  <path d="m390 413c0 72.4-58.7 131-131 131-72.4 0-131-58.7-131-131 0-72.4 58.7-131 131-131 72.4 0 131 58.7 131 131z" fill="#f9f9f9" stroke="#001200" stroke-width=".604"/>
  <g fill="none" stroke="#001200" stroke-width=".604">
   <path d="m254 286h10.3v46.6h-10.3v-46.6z"/>
   <path d="m254 286h10.3v46.6h-10.3v-46.6z"/>
   <path d="m366 345 5.17 8.96-40.3 23.3-5.17-8.96 40.3-23.3z"/>
   <path d="m318 301 8.96 5.17-23.3 40.3-8.96-5.17 23.3-40.3z"/>
   <path d="m385 408v10.3h-46.6v-10.3h46.6z"/>
   <path d="m371 472-5.17 8.96-40.3-23.3 5.17-8.96 40.3 23.3z"/>
   <path d="m327 520-8.96 5.17-23.3-40.3 8.96-5.17 23.3 40.3z"/>
   <path d="m264 539h-10.3v-46.6h10.3v46.6z"/>
   <path d="m200 525-8.96-5.17 23.3-40.3 8.96 5.17-23.3 40.3z"/>
   <path d="m152 481-5.17-8.96 40.3-23.3 5.17 8.96-40.3 23.3z"/>
   <path d="m133 418v-10.3h46.6v10.3h-46.6z"/>
   <path d="m147 354 5.17-8.96 40.3 23.3-5.17 8.96-40.3-23.3z"/>
   <path d="m191 306 8.96-5.17 23.3 40.3-8.96 5.17-23.3-40.3z"/>
  </g>
  <g fill="#3a1a1c" stroke="#001200" stroke-width=".604">
   <path d="m254 286h10.3v46.6h-10.3v-46.6z"/>
   <path d="m366 345 5.17 8.96-40.3 23.3-5.17-8.96 40.3-23.3z"/>
   <path d="m318 301 8.96 5.17-23.3 40.3-8.96-5.17 23.3-40.3z"/>
   <path d="m385 408v10.3h-46.6v-10.3h46.6z"/>
   <path d="m371 472-5.17 8.96-40.3-23.3 5.17-8.96 40.3 23.3z"/>
   <path d="m327 520-8.96 5.17-23.3-40.3 8.96-5.17 23.3 40.3z"/>
   <path d="m264 539h-10.3v-46.6h10.3v46.6z"/>
   <path d="m200 525-8.96-5.17 23.3-40.3 8.96 5.17-23.3 40.3z"/>
   <path d="m152 481-5.17-8.96 40.3-23.3 5.17 8.96-40.3 23.3z"/>
   <path d="m133 418v-10.3h46.6v10.3h-46.6z"/>
   <path d="m147 354 5.17-8.96 40.3 23.3-5.17 8.96-40.3-23.3z"/>
   <path d="m191 306 8.96-5.17 23.3 40.3-8.96 5.17-23.3-40.3z"/>
  </g>
  <rect transform="matrix(.956 -.292 .292 .956 0 0)" x="294" y="415" width="27.3" height="54.5" ry="12.5" fill="#ffd400" stroke="#ff0" stroke-width=".604"/>
  <g fill="none" stroke="#000" stroke-width="2.41">
   <path d="m411 333 23.1-7.06"/>
   <path d="m412 338 23.1-7.06"/>
   <path d="m414 342 23.1-7.06"/>
   <path d="m415 347 23.1-7.06"/>
   <path d="m418 356 23.1-7.06"/>
   <path d="m416 351 23.1-7.06"/>
   <path d="m407 319 23.1-7.06"/>
   <path d="m408 324 23.1-7.06"/>
   <path d="m410 328 23.1-7.06"/>
  </g>
  <g>
   <g transform="matrix(-.604 0 0 .604 817 213)" fill="#ffd400">
    <rect transform="matrix(.956 -.292 .292 .956 0 0)" x="466" y="583" width="45.2" height="90.4" ry="20.8" stroke="#ff0"/>
    <g stroke="#000" stroke-width="4">
     <path d="m630 458 38.3-11.7"/>
     <path d="m633 466 38.3-11.7"/>
     <path d="m635 473 38.3-11.7"/>
     <path d="m637 481 38.3-11.7"/>
     <path d="m642 496 38.3-11.7"/>
     <path d="m640 488 38.3-11.7"/>
     <path d="m624 435 38.3-11.7"/>
     <path d="m626 443 38.3-11.7"/>
     <path d="m628 451 38.3-11.7"/>
    </g>
   </g>
   <g stroke-width="0">
    <path d="m364 413c0 58-47 105-105 105s-105-47-105-105 47-105 105-105 105 47 105 105z" fill="#eeeee9"/>
    <path d="m255 421c4.09 2.36 9.31 0.961 11.7-3.13 2.36-4.09 0.961-9.31-3.13-11.7-2.73-1.58-5.97-1.48-8.53-0.0216l-96.5-55.7c-2.07-1.19-4.68-0.492-5.87 1.57s-0.492 4.68 1.57 5.87l96.5 55.7c0.0127 2.94 1.55 5.8 4.28 7.37z" fill="#999"/>
    <path d="m254 405c-4.35 2.51-5.84 8.07-3.33 12.4 2.51 4.35 8.07 5.84 12.4 3.33 2.39-1.38 3.92-3.69 4.39-6.2l77.6-44.8c1.15-0.664 1.54-2.12 0.877-3.27l-3.62-6.27c-0.664-1.15-2.12-1.54-3.27-0.877l-77.7 44.9c-2.36-0.753-5.01-0.548-7.32 0.786z" fill="#4d4d4d"/>
   </g>
  </g>
  <path d="m259 222v371" fill="none" stroke="#000" stroke-width=".604px"/>
  <path d="m76.9 413h362" fill="none" stroke="#000" stroke-width=".604px"/>
  <g>
   <path d="m267 413c0 4.2-3.41 7.61-7.61 7.61s-7.61-3.41-7.61-7.61c0-4.2 3.41-7.61 7.61-7.61s7.61 3.41 7.61 7.61z" fill="#1a1a1a" stroke-width="0"/>
   <g transform="matrix(1 0 -.457 1 0 0)" fill="#4d4d4d">
    <path d="m396 342v2.79c-1.08-0.519-2.11-0.905-3.07-1.16-0.962-0.255-1.89-0.382-2.79-0.382-1.56 2e-5 -2.76 0.302-3.61 0.905-0.839 0.604-1.26 1.46-1.26 2.57-1e-5 0.934 0.278 1.64 0.835 2.12 0.566 0.472 1.63 0.854 3.2 1.15l1.73 0.354c2.13 0.406 3.7 1.12 4.71 2.15 1.02 1.02 1.53 2.39 1.53 4.1-2e-5 2.05-0.688 3.6-2.07 4.65-1.37 1.06-3.38 1.58-6.03 1.58-1 0-2.07-0.113-3.2-0.34-1.12-0.226-2.29-0.561-3.49-1v-2.94c1.16 0.651 2.3 1.14 3.41 1.47s2.21 0.495 3.28 0.495c1.63 0 2.89-0.321 3.78-0.962 0.887-0.641 1.33-1.56 1.33-2.74-1e-5 -1.04-0.321-1.85-0.962-2.43-0.632-0.585-1.67-1.02-3.13-1.32l-1.74-0.34c-2.13-0.424-3.67-1.09-4.63-1.99-0.953-0.905-1.43-2.16-1.43-3.78 0-1.87 0.655-3.34 1.97-4.41 1.32-1.08 3.14-1.61 5.45-1.61 0.99 2e-5 2 0.0896 3.03 0.269 1.03 0.179 2.08 0.448 3.15 0.806" style=""/>
    <path d="m401 347h2.6l3.25 12.4 3.24-12.4h3.07l3.25 12.4 3.24-12.4h2.6l-4.14 15.8h-3.07l-3.41-13-3.42 13h-3.07l-4.14-15.8" style=""/>
    <path d="m426 347h2.6v15.8h-2.6v-15.8m0-6.17h2.6v3.3h-2.6v-3.3" style=""/>
    <path d="m444 347v2.46c-0.736-0.377-1.5-0.66-2.29-0.849-0.792-0.189-1.61-0.283-2.46-0.283-1.29 2e-5 -2.26 0.198-2.91 0.594-0.641 0.396-0.962 0.99-0.962 1.78 0 0.604 0.231 1.08 0.693 1.43 0.462 0.34 1.39 0.665 2.79 0.976l0.891 0.198c1.85 0.396 3.16 0.957 3.93 1.68 0.783 0.717 1.17 1.72 1.17 3.01-2e-5 1.47-0.585 2.64-1.75 3.49-1.16 0.858-2.76 1.29-4.8 1.29-0.849 0-1.74-0.0849-2.66-0.255-0.915-0.16-1.88-0.406-2.9-0.736v-2.69c0.962 0.5 1.91 0.877 2.84 1.13 0.934 0.245 1.86 0.368 2.77 0.368 1.23 0 2.17-0.207 2.83-0.622 0.66-0.424 0.99-1.02 0.99-1.78-1e-5 -0.707-0.241-1.25-0.721-1.63-0.472-0.377-1.51-0.74-3.13-1.09l-0.905-0.212c-1.61-0.34-2.78-0.858-3.49-1.56-0.717-0.707-1.08-1.67-1.08-2.9 0-1.49 0.528-2.64 1.58-3.45 1.06-0.811 2.56-1.22 4.5-1.22 0.962 2e-5 1.87 0.0707 2.72 0.212 0.849 0.141 1.63 0.354 2.35 0.637" style=""/>
    <path d="m459 347v2.46c-0.736-0.377-1.5-0.66-2.29-0.849-0.792-0.189-1.61-0.283-2.46-0.283-1.29 2e-5 -2.26 0.198-2.91 0.594-0.641 0.396-0.962 0.99-0.962 1.78-1e-5 0.604 0.231 1.08 0.693 1.43 0.462 0.34 1.39 0.665 2.79 0.976l0.891 0.198c1.85 0.396 3.16 0.957 3.93 1.68 0.783 0.717 1.17 1.72 1.17 3.01-1e-5 1.47-0.585 2.64-1.75 3.49-1.16 0.858-2.76 1.29-4.8 1.29-0.849 0-1.74-0.0849-2.66-0.255-0.915-0.16-1.88-0.406-2.9-0.736v-2.69c0.962 0.5 1.91 0.877 2.84 1.13 0.934 0.245 1.86 0.368 2.77 0.368 1.23 0 2.17-0.207 2.83-0.622 0.66-0.424 0.99-1.02 0.99-1.78-1e-5 -0.707-0.24-1.25-0.721-1.63-0.472-0.377-1.51-0.74-3.13-1.09l-0.905-0.212c-1.61-0.34-2.78-0.858-3.49-1.56-0.717-0.707-1.08-1.67-1.08-2.9 0-1.49 0.528-2.64 1.58-3.45 1.06-0.811 2.56-1.22 4.5-1.22 0.962 2e-5 1.87 0.0707 2.72 0.212 0.849 0.141 1.63 0.354 2.35 0.637" style=""/>
   </g>
   <path d="m250 388 53.4 120-4.87 2.17-53.4-120 4.87-2.17z" stroke-width="0"/>
  </g>
 </g>
</svg>
