<?xml version="1.0" encoding="UTF-8" standalone="no"?>
<!DOCTYPE svg PUBLIC "-//W3C//DTD SVG 1.0//EN" "http://www.w3.org/TR/2001/PR-SVG-20010719/DTD/svg10.dtd">
<svg width="15cm" height="12cm" viewBox="198 110 299 232" xmlns="http://www.w3.org/2000/svg" xmlns:xlink="http://www.w3.org/1999/xlink">
  <g id="Background"/>
  <g id="Background"/>
  <g id="Background"/>
  <g id="Background"/>
  <g id="Background"/>
  <g id="Background"/>
  <g id="Background"/>
  <g id="Background"/>
  <g id="Background"/>
  <g id="Background"/>
  <g id="Background"/>
  <g id="Background"/>
  <g id="Background">
    <g>
      <rect style="fill: #90ee90; fill-opacity: 1; stroke-opacity: 1; stroke-width: 4; stroke: #ffffff" x="200" y="180" width="40" height="40" rx="6" ry="6"/>
      <text font-size="22.5778" style="fill: #ffffff; fill-opacity: 1; stroke: none;text-anchor:middle;font-family:sans-serif;font-style:normal;font-weight:normal" x="220" y="210.039">
        <tspan x="220" y="210.039">0</tspan>
      </text>
    </g>
    <g>
      <rect style="fill: #90ee90; fill-opacity: 1; stroke-opacity: 1; stroke-width: 4; stroke: #ffffff" x="240" y="180" width="40" height="40" rx="6" ry="6"/>
      <text font-size="22.5778" style="fill: #ffffff; fill-opacity: 1; stroke: none;text-anchor:middle;font-family:sans-serif;font-style:normal;font-weight:normal" x="260" y="210.039">
        <tspan x="260" y="210.039">1</tspan>
      </text>
    </g>
    <g>
      <rect style="fill: #90ee90; fill-opacity: 1; stroke-opacity: 1; stroke-width: 4; stroke: #ffffff" x="280" y="180" width="40" height="40" rx="6" ry="6"/>
      <text font-size="22.5778" style="fill: #ffffff; fill-opacity: 1; stroke: none;text-anchor:middle;font-family:sans-serif;font-style:normal;font-weight:normal" x="300" y="210.039">
        <tspan x="300" y="210.039">2</tspan>
      </text>
    </g>
    <g>
      <rect style="fill: #90ee90; fill-opacity: 1; stroke-opacity: 1; stroke-width: 4; stroke: #ffffff" x="200" y="300" width="40" height="40" rx="6" ry="6"/>
      <text font-size="22.5778" style="fill: #ffffff; fill-opacity: 1; stroke: none;text-anchor:middle;font-family:sans-serif;font-style:normal;font-weight:normal" x="220" y="330.039">
        <tspan x="220" y="330.039">9</tspan>
      </text>
    </g>
    <g>
      <rect style="fill: #90ee90; fill-opacity: 1; stroke-opacity: 1; stroke-width: 4; stroke: #ffffff" x="200" y="220" width="40" height="40" rx="6" ry="6"/>
      <text font-size="22.5778" style="fill: #ffffff; fill-opacity: 1; stroke: none;text-anchor:middle;font-family:sans-serif;font-style:normal;font-weight:normal" x="220" y="250.039">
        <tspan x="220" y="250.039">3</tspan>
      </text>
    </g>
    <g>
      <rect style="fill: #90ee90; fill-opacity: 1; stroke-opacity: 1; stroke-width: 4; stroke: #ffffff" x="240" y="220" width="40" height="40" rx="6" ry="6"/>
      <text font-size="22.5778" style="fill: #ffffff; fill-opacity: 1; stroke: none;text-anchor:middle;font-family:sans-serif;font-style:normal;font-weight:normal" x="260" y="250.039">
        <tspan x="260" y="250.039">4</tspan>
      </text>
    </g>
    <g>
      <rect style="fill: #90ee90; fill-opacity: 1; stroke-opacity: 1; stroke-width: 4; stroke: #ffffff" x="280" y="220" width="40" height="40" rx="6" ry="6"/>
      <text font-size="22.5778" style="fill: #ffffff; fill-opacity: 1; stroke: none;text-anchor:middle;font-family:sans-serif;font-style:normal;font-weight:normal" x="300" y="250.039">
        <tspan x="300" y="250.039">5</tspan>
      </text>
    </g>
    <g>
      <rect style="fill: #90ee90; fill-opacity: 1; stroke-opacity: 1; stroke-width: 4; stroke: #ffffff" x="240" y="300" width="40" height="40" rx="6" ry="6"/>
      <text font-size="22.5778" style="fill: #ffffff; fill-opacity: 1; stroke: none;text-anchor:middle;font-family:sans-serif;font-style:normal;font-weight:normal" x="260" y="330.039">
        <tspan x="260" y="330.039">10</tspan>
      </text>
    </g>
    <g>
      <rect style="fill: #90ee90; fill-opacity: 1; stroke-opacity: 1; stroke-width: 4; stroke: #ffffff" x="200" y="260" width="40" height="40" rx="6" ry="6"/>
      <text font-size="22.5778" style="fill: #ffffff; fill-opacity: 1; stroke: none;text-anchor:middle;font-family:sans-serif;font-style:normal;font-weight:normal" x="220" y="290.039">
        <tspan x="220" y="290.039">6</tspan>
      </text>
    </g>
    <g>
      <rect style="fill: #90ee90; fill-opacity: 1; stroke-opacity: 1; stroke-width: 4; stroke: #ffffff" x="240" y="260" width="40" height="40" rx="6" ry="6"/>
      <text font-size="22.5778" style="fill: #ffffff; fill-opacity: 1; stroke: none;text-anchor:middle;font-family:sans-serif;font-style:normal;font-weight:normal" x="260" y="290.039">
        <tspan x="260" y="290.039">7</tspan>
      </text>
    </g>
    <g>
      <rect style="fill: #90ee90; fill-opacity: 1; stroke-opacity: 1; stroke-width: 4; stroke: #ffffff" x="280" y="260" width="40" height="40" rx="6" ry="6"/>
      <text font-size="22.5778" style="fill: #ffffff; fill-opacity: 1; stroke: none;text-anchor:middle;font-family:sans-serif;font-style:normal;font-weight:normal" x="300" y="290.039">
        <tspan x="300" y="290.039">8</tspan>
      </text>
    </g>
    <g>
      <rect style="fill: #90ee90; fill-opacity: 1; stroke-opacity: 1; stroke-width: 4; stroke: #ffffff" x="280" y="300" width="40" height="40" rx="6" ry="6"/>
      <text font-size="22.5778" style="fill: #ffffff; fill-opacity: 1; stroke: none;text-anchor:middle;font-family:sans-serif;font-style:normal;font-weight:normal" x="300" y="330.039">
        <tspan x="300" y="330.039">11</tspan>
      </text>
    </g>
    <g>
      <line style="fill: none; stroke-opacity: 0.392157; stroke-width: 6; stroke: #000000" x1="220" y1="200" x2="285.792" y2="200"/>
      <polygon style="fill: #000000; fill-opacity: 0.392157; stroke-opacity: 0.392157; stroke-width: 6; stroke: #000000" fill-rule="evenodd" points="293.292,200 283.292,205 285.792,200 283.292,195 "/>
    </g>
    <g>
      <line style="fill: none; stroke-opacity: 0.27451; stroke-width: 4; stroke: #000000" x1="300" y1="200" x2="230.708" y2="234.646"/>
      <polygon style="fill: #000000; fill-opacity: 0.27451; stroke-opacity: 0.27451; stroke-width: 4; stroke: #000000" fill-rule="evenodd" points="224,238 230.708,229.056 230.708,234.646 235.18,238 "/>
    </g>
    <g>
      <line style="fill: none; stroke-opacity: 0.392157; stroke-width: 6; stroke: #000000" x1="220" y1="240" x2="285.792" y2="240"/>
      <polygon style="fill: #000000; fill-opacity: 0.392157; stroke-opacity: 0.392157; stroke-width: 6; stroke: #000000" fill-rule="evenodd" points="293.292,240 283.292,245 285.792,240 283.292,235 "/>
    </g>
    <g>
      <line style="fill: none; stroke-opacity: 0.27451; stroke-width: 4; stroke: #000000" x1="300" y1="240" x2="230.708" y2="274.646"/>
      <polygon style="fill: #000000; fill-opacity: 0.27451; stroke-opacity: 0.27451; stroke-width: 4; stroke: #000000" fill-rule="evenodd" points="224,278 230.708,269.056 230.708,274.646 235.18,278 "/>
    </g>
    <g>
      <line style="fill: none; stroke-opacity: 0.392157; stroke-width: 6; stroke: #000000" x1="220" y1="280" x2="285.792" y2="280"/>
      <polygon style="fill: #000000; fill-opacity: 0.392157; stroke-opacity: 0.392157; stroke-width: 6; stroke: #000000" fill-rule="evenodd" points="293.292,280 283.292,285 285.792,280 283.292,275 "/>
    </g>
    <g>
      <line style="fill: none; stroke-opacity: 0.27451; stroke-width: 4; stroke: #000000" x1="300" y1="280" x2="230.708" y2="314.646"/>
      <polygon style="fill: #000000; fill-opacity: 0.27451; stroke-opacity: 0.27451; stroke-width: 4; stroke: #000000" fill-rule="evenodd" points="224,318 230.708,309.056 230.708,314.646 235.18,318 "/>
    </g>
    <g>
      <line style="fill: none; stroke-opacity: 0.392157; stroke-width: 6; stroke: #000000" x1="220" y1="320" x2="285.792" y2="320"/>
      <polygon style="fill: #000000; fill-opacity: 0.392157; stroke-opacity: 0.392157; stroke-width: 6; stroke: #000000" fill-rule="evenodd" points="293.292,320 283.292,325 285.792,320 283.292,315 "/>
    </g>
    <g>
      <rect style="fill: #90ee90; fill-opacity: 1; stroke-opacity: 1; stroke-width: 4; stroke: #ffffff" x="360" y="180" width="40" height="40" rx="6" ry="6"/>
      <text font-size="22.5778" style="fill: #ffffff; fill-opacity: 1; stroke: none;text-anchor:middle;font-family:sans-serif;font-style:normal;font-weight:normal" x="380" y="210.039">
        <tspan x="380" y="210.039">0</tspan>
      </text>
    </g>
    <g>
      <rect style="fill: #90ee90; fill-opacity: 1; stroke-opacity: 1; stroke-width: 4; stroke: #ffffff" x="400" y="180" width="40" height="40" rx="6" ry="6"/>
      <text font-size="22.5778" style="fill: #ffffff; fill-opacity: 1; stroke: none;text-anchor:middle;font-family:sans-serif;font-style:normal;font-weight:normal" x="420" y="210.039">
        <tspan x="420" y="210.039">1</tspan>
      </text>
    </g>
    <g>
      <rect style="fill: #90ee90; fill-opacity: 1; stroke-opacity: 1; stroke-width: 4; stroke: #ffffff" x="440" y="180" width="40" height="40" rx="6" ry="6"/>
      <text font-size="22.5778" style="fill: #ffffff; fill-opacity: 1; stroke: none;text-anchor:middle;font-family:sans-serif;font-style:normal;font-weight:normal" x="460" y="210.039">
        <tspan x="460" y="210.039">2</tspan>
      </text>
    </g>
    <g>
      <rect style="fill: #90ee90; fill-opacity: 1; stroke-opacity: 1; stroke-width: 4; stroke: #ffffff" x="360" y="300" width="40" height="40" rx="6" ry="6"/>
      <text font-size="22.5778" style="fill: #ffffff; fill-opacity: 1; stroke: none;text-anchor:middle;font-family:sans-serif;font-style:normal;font-weight:normal" x="380" y="330.039">
        <tspan x="380" y="330.039">9</tspan>
      </text>
    </g>
    <g>
      <rect style="fill: #90ee90; fill-opacity: 1; stroke-opacity: 1; stroke-width: 4; stroke: #ffffff" x="360" y="220" width="40" height="40" rx="6" ry="6"/>
      <text font-size="22.5778" style="fill: #ffffff; fill-opacity: 1; stroke: none;text-anchor:middle;font-family:sans-serif;font-style:normal;font-weight:normal" x="380" y="250.039">
        <tspan x="380" y="250.039">3</tspan>
      </text>
    </g>
    <g>
      <rect style="fill: #90ee90; fill-opacity: 1; stroke-opacity: 1; stroke-width: 4; stroke: #ffffff" x="400" y="220" width="40" height="40" rx="6" ry="6"/>
      <text font-size="22.5778" style="fill: #ffffff; fill-opacity: 1; stroke: none;text-anchor:middle;font-family:sans-serif;font-style:normal;font-weight:normal" x="420" y="250.039">
        <tspan x="420" y="250.039">4</tspan>
      </text>
    </g>
    <g>
      <rect style="fill: #90ee90; fill-opacity: 1; stroke-opacity: 1; stroke-width: 4; stroke: #ffffff" x="440" y="220" width="40" height="40" rx="6" ry="6"/>
      <text font-size="22.5778" style="fill: #ffffff; fill-opacity: 1; stroke: none;text-anchor:middle;font-family:sans-serif;font-style:normal;font-weight:normal" x="460" y="250.039">
        <tspan x="460" y="250.039">5</tspan>
      </text>
    </g>
    <g>
      <rect style="fill: #90ee90; fill-opacity: 1; stroke-opacity: 1; stroke-width: 4; stroke: #ffffff" x="400" y="300" width="40" height="40" rx="6" ry="6"/>
      <text font-size="22.5778" style="fill: #ffffff; fill-opacity: 1; stroke: none;text-anchor:middle;font-family:sans-serif;font-style:normal;font-weight:normal" x="420" y="330.039">
        <tspan x="420" y="330.039">10</tspan>
      </text>
    </g>
    <g>
      <rect style="fill: #90ee90; fill-opacity: 1; stroke-opacity: 1; stroke-width: 4; stroke: #ffffff" x="360" y="260" width="40" height="40" rx="6" ry="6"/>
      <text font-size="22.5778" style="fill: #ffffff; fill-opacity: 1; stroke: none;text-anchor:middle;font-family:sans-serif;font-style:normal;font-weight:normal" x="380" y="290.039">
        <tspan x="380" y="290.039">6</tspan>
      </text>
    </g>
    <g>
      <rect style="fill: #90ee90; fill-opacity: 1; stroke-opacity: 1; stroke-width: 4; stroke: #ffffff" x="400" y="260" width="40" height="40" rx="6" ry="6"/>
      <text font-size="22.5778" style="fill: #ffffff; fill-opacity: 1; stroke: none;text-anchor:middle;font-family:sans-serif;font-style:normal;font-weight:normal" x="420" y="290.039">
        <tspan x="420" y="290.039">7</tspan>
      </text>
    </g>
    <g>
      <rect style="fill: #90ee90; fill-opacity: 1; stroke-opacity: 1; stroke-width: 4; stroke: #ffffff" x="440" y="260" width="40" height="40" rx="6" ry="6"/>
      <text font-size="22.5778" style="fill: #ffffff; fill-opacity: 1; stroke: none;text-anchor:middle;font-family:sans-serif;font-style:normal;font-weight:normal" x="460" y="290.039">
        <tspan x="460" y="290.039">8</tspan>
      </text>
    </g>
    <g>
      <rect style="fill: #90ee90; fill-opacity: 1; stroke-opacity: 1; stroke-width: 4; stroke: #ffffff" x="440" y="300" width="40" height="40" rx="6" ry="6"/>
      <text font-size="22.5778" style="fill: #ffffff; fill-opacity: 1; stroke: none;text-anchor:middle;font-family:sans-serif;font-style:normal;font-weight:normal" x="460" y="330.039">
        <tspan x="460" y="330.039">11</tspan>
      </text>
    </g>
    <text font-size="22.5778" style="fill: #000000; fill-opacity: 1; stroke: none;text-anchor:middle;font-family:sans-serif;font-style:normal;font-weight:normal" x="260" y="134.639">
      <tspan x="260" y="134.639">Row-major</tspan>
      <tspan x="260" y="162.861">order</tspan>
    </text>
    <text font-size="22.5778" style="fill: #000000; fill-opacity: 1; stroke: none;text-anchor:middle;font-family:sans-serif;font-style:normal;font-weight:normal" x="420" y="134.639">
      <tspan x="420" y="134.639">Column-major</tspan>
      <tspan x="420" y="162.861">order</tspan>
    </text>
    <g>
      <line style="fill: none; stroke-opacity: 0.392157; stroke-width: 6; stroke: #000000" x1="380" y1="200" x2="380" y2="305.792"/>
      <polygon style="fill: #000000; fill-opacity: 0.392157; stroke-opacity: 0.392157; stroke-width: 6; stroke: #000000" fill-rule="evenodd" points="380,313.292 375,303.292 380,305.792 385,303.292 "/>
    </g>
    <g>
      <line style="fill: none; stroke-opacity: 0.27451; stroke-width: 4; stroke: #000000" x1="380" y1="320" x2="416.214" y2="211.358"/>
      <polygon style="fill: #000000; fill-opacity: 0.27451; stroke-opacity: 0.27451; stroke-width: 4; stroke: #000000" fill-rule="evenodd" points="418.586,204.243 420.167,215.311 416.214,211.358 410.68,212.148 "/>
    </g>
    <g>
      <line style="fill: none; stroke-opacity: 0.392157; stroke-width: 6; stroke: #000000" x1="420" y1="200" x2="420" y2="305.792"/>
      <polygon style="fill: #000000; fill-opacity: 0.392157; stroke-opacity: 0.392157; stroke-width: 6; stroke: #000000" fill-rule="evenodd" points="420,313.292 415,303.292 420,305.792 425,303.292 "/>
    </g>
    <g>
      <line style="fill: none; stroke-opacity: 0.27451; stroke-width: 4; stroke: #000000" x1="420" y1="320" x2="456.214" y2="211.358"/>
      <polygon style="fill: #000000; fill-opacity: 0.27451; stroke-opacity: 0.27451; stroke-width: 4; stroke: #000000" fill-rule="evenodd" points="458.586,204.243 460.167,215.311 456.214,211.358 450.68,212.148 "/>
    </g>
    <g>
      <line style="fill: none; stroke-opacity: 0.392157; stroke-width: 6; stroke: #000000" x1="460" y1="200" x2="460" y2="305.792"/>
      <polygon style="fill: #000000; fill-opacity: 0.392157; stroke-opacity: 0.392157; stroke-width: 6; stroke: #000000" fill-rule="evenodd" points="460,313.292 455,303.292 460,305.792 465,303.292 "/>
    </g>
  </g>
</svg>
