<svg xmlns="http://www.w3.org/2000/svg" width="252.374" height="252.252" xmlns:v="https://vecta.io/nano"><path d="M61.536 249.816l-3.5-2.05-19-11.074-17-11.406-3.305-3.755-3.151-10.714 1.766-3.3 49.69-9.798 2.815-1.022-10.315-4.552v-3.062l6.186-3.199-.695-.695-53.769 7.764-3.438-1.84-1.271-12.582-3.96-52-2.052-57-.002-27.25 1.198-5.991 16.302-1.311 84-5.807 93.206-5.468 3.59 1.378-1.347 48.449-1.96 52-2.072 33.553-1.081 2.818-21.336 4.991-48 9.363-.488.43 8.573 8.947 46.481-7.74 21.434 11.294 25.625 15.344 9.225 7 .784 2.399-9.934 5.034-23.699 7.199-36 8.928-59 11.869-35 5.062-6-.158-3.5-2.05z" fill="#798a94"/><path d="M61.536 249.816l-3.5-2.05-19-11.074-17-11.406-3.305-3.755-3.151-10.714 1.766-3.3 49.69-9.798 2.815-1.022-10.315-4.552v-3.062l6.186-3.199-.695-.695-53.769 7.764-3.438-1.84-1.271-12.582-3.96-52-2.052-57-.002-27.25 1.198-5.991 16.302-1.311 84-5.807 93.206-5.468 3.59 1.378-1.347 48.449-1.96 52-2.072 33.553-1.081 2.818-21.336 4.991-48 9.363-.488.43 8.573 8.947 46.481-7.74 21.434 11.294 25.625 15.344 9.225 7 .784 2.399-9.934 5.034-23.699 7.199-36 8.928-59 11.869-35 5.062-6-.158-3.5-2.05zm14.957-9.614l8.457-1.738-9.27-5.432h-2.899l-14.397 3.251 8.652 5.74 1-.083 8.457-1.738zm21.043-4.203l4.5-.984 4.882-1.118-9.267-6.028-15.182 3.378 7.567 5.729 3 .006 4.5-.984zm-28.158-5.526l2.342-.526-7.807-5.655-16.377 3.121.051 1.118 7.244 5.164 12.204-2.697 2.342-.526zm80.575-5.448l32.917-6.994.702-.702-7.644-5.297h-2.724l-67.168 14.09-1.617.448 8.617 6.242 4-.792zm-62.891 1.778l6.474-1.228-.015-1.044-8.089-4.62-11.395 2.258-3.669 1.051 6.669 4.714 3.553.098 6.474-1.228zm-34.037-3.615l6.989-1.68-6.766-4.818-15.212 2.54-1 .981 6 4.811 3-.153 6.989-1.68zm53.856-.519l5.845-1.234-8.082-5.601-12.609 2.775 8 5.304 1-.01 5.845-1.234zm-33.144-3.704l5.299-1.066 2.856-.941-7.224-4.909-15.631 3.204-.584.529 6.584 4.216 3.402.034 5.299-1.066zm51 0l5.299-1.066 2.856-.942-7.645-5.195-13.896 2.483 1.685 1.443 5.77 4.342h.632zm-82.951-4.921l5.75-1.155v-.662l-6.121-3.875-13.379 2.948-.97.868 4.97 3.872 4-.841zm54.251.332l4.499-.617-.025-1.228-6.713-4.346-8.762 1.863-4.784 1.093 6.784 4.842 4.501-.99 4.499-.617zm50.487.062l5.012-.665-.025-1.242-6.947-4.5h-2.875l-10.019 2.313 7.366 5.552 2.476-.792 5.012-.665zm53.706-.12l1.438-.552-8.632-5.78-8 1.27-2.58 1.399 7.58 5.473 8.756-1.258zm-138.736-4.117l8.458-1.738-6.384-4.546-18.457 3.681 6.926 4.267 1 .074 8.458-1.738zm53.18.23l7.033-1.6-7.055-4.794-13.228 2.773-.971.971 6.584 4.216.303.017.303.017 7.033-1.6zm49.063.533l5.299-1.066 2.737-.896-7.326-4.972h-2.813l-10.473 2.246 6.874 5.7.402.054zm52.109-.22l4.81-1.247.381-1.384-6.495-4.792-14.94 2.973 7.434 5.6 4 .098 4.809-1.247zm-77.208-6.03l.002-.815-4.926-3.875-10.677 2.234-2.894.86 7.607 4.591 10.887-2.181.002-.815zm47.283 1.541l3.885-.766-8.124-5.63-11.303 2.347 1.065 1.065 6.593 4.608 4-.856zm-101.888-.577l4.997-1.16-6.024-4.289-15.567 3.098 5.598 3.691 6-.179 4.997-1.16zm20.463-4.111l5.459-1.103-6.139-4.371-17.194 3.315 7.414 4.509 5-1.247zm49.425.928l4.64-.696.988-1.598-6.567-4.058-8.946 1.904-4.837 1.106 7.837 4.822 2.244-.784zm49.199.394l5.917-1.141 1.462-1.28-8.672-4.737-14.791 2.891 8 5.291 2.166.118 5.917-1.141zm-80.192-4.9l5.891-1.159-5.623-4.484-13.158 2.722-1.844.577 6.844 4.069 2-.566zm60.057-1.291l15.947-3.237-7.895-4.707-23 4.425-9.696 2.06 7.696 4.73 1-.033 15.947-3.237zm-40.016-2.707l5.932-1.177-4.863-3.738-4 .079-12.898 2.46 6.898 4.229 3-.674 5.932-1.178zm18.318-3.54l4.25-.676v-1.514l-4.5-2.854-9 1.569-4.838 1.177 5.838 3.777 4-.804zm-138.75-5.983v-1.319l-2.192-1.355-3.136 3.136 2.594 3.125 2.735-2.27zm157.5 2.121l5-1.25-7-3.082-12.735 2.089 4.735 3.642 5-.148 5-1.25z" fill="#39454b"/><path d="M61.536 249.816l-3.5-2.05-19-11.074-17-11.406-3.305-3.755-3.188-10.84.547-.547 7.947 7.508 23.109 18.103 17.891 12.492 22.992-1.252 21.008-3.082 27-4.915 20-4.124 36.699-8.83 28.299-8.3 13.502-5.495v1.748l-9.801 4.967-23.699 7.199-36 8.928-59 11.869-35 5.062-6-.158-3.5-2.05zm1.173-8.409l-4.311-2.571.954-.954 7.684 5.043 15-2.891 3 .219-10 2.448-8.016 1.277zm23.024-5.462l-4.197-3.087v-.945l2.5 1.476 6.524 4.897 12.476-2.37 4-1.111-2 1.943-11.834 2.282H89.93zm-34.995-2.997l-4.202-3.09v-.897l3.5 2.013 4.738 3.745 15.262-3.62 2.833-.068-1.221 1.221-13.613 2.829-3.097.957zm58.415-.885l-3.883-2.965-1.234-1.388 3 1.616 6.005 4.429 68.995-14.684 3 .567-15 3.341-52.15 10.926-4.85 1.123zm-35.179-4.281l-4.438-2.94v-.93l2.5 1.446 5.734 3.975 12.266-2.309 4.5-1.227v1.851l-16.124 3.073zm-34.707-3.409l-3.769-2.638.983-.983 6.904 5.266 15.188-3.141 2.462.852L50.582 226l-7.546 1.012zm56.269-1.316l-4.5-3.018 2.036-.008 7.104 4.827 12.392-2.586.948 1.535-9.48 1.368-4 .9-4.5-3.018zm-34.5-3.438l-4-2.526 1.764-.062 6.885 4.255 16.192-3.248.847.847-7.688 2.156-10 1.104-4-2.526zm53.101-.657l-3.899-2.932h2.144l6.137 5.164 14.268-3.245 1.034 1.034-2.786.915-10.598 2.132-2.402-.137-3.899-2.932zm-85.601-3.432l-2.349-2.5h1.72l4.129 3.864 13-2.794 3.833-.07-.963.963-15.871 3.037h-1.151zm55.203.071l-3.297-2.331-1.407-1.533 9 5.165 12-2.841 1.9-.031-1.9 1.718-11.834 2.282-1.166-.098-3.297-2.331zm51.398-.615l-3.899-2.956h2.144l5.82 4.897 11.834-2.826 1.618-.071-1.074 1.737-8.544 1.358-4 .816-3.899-2.956zm50.656.322l-4.243-2.778-.014-1.596 9.173 6.311 5.593-1.119 5.733-1.223-3 1.936-9 1.246-4.243-2.778zm-138.007-3.844l-4.25-2.547v-.824l3.5 1.263 5.083 3.514 12.917-2.769 5 .133-17 3.705-1 .073zm55.51.263l-3.74-2.197-.02-1.525 7.675 4.845 12.825-2.75 3-.04-2.904 1.837-10.096 1.277-3 .749-3.74-2.197zm50.842-.765l-3.899-2.932h2.144l5.748 4.837 12.905-2.766 1.833-.07-1.134 1.134-11.699 2.795-2-.066-3.899-2.932zm49.13.419l-3.769-2.647.983-.983 7.299 5.567 14.256-3.082.688.648-7.688 2.189-8 .954zm-132.051-3.51l-3.551-1.822-1.484-2.401 7.643 4.723 14.885-2.501.874.874-14.816 2.948zm52.528-.514l-4.291-2.578.893-.893 7.689 4.781 12-2.549 2-.026-3 1.683-8 1.363-3 .798-4.291-2.578zm49.791-.328l-4.5-2.99 2.036-.008 7.245 4.923 6.706-1.923 5.013.172-5 1.516-7 1.301-4.5-2.99zm-83.349-3.174l-3.839-1.97 1.105-1.105 6.261 3.964 12.322-2.645 5 .151-10 2.444-7.01 1.129zm52.531-.407l-4.319-2.614.954-.954 7.685 5.085 11.999-2.864 1.618-.071-1.074 1.737-8.544 1.358-4 .936-4.319-2.614zm47.819-.418l-4.5-2.991 2.036-.008 7.548 5.129 15.229-3.149.838.838-3.651 1.071-11.867 2.112-.566-.004-.566-.005zm-79.809-3.819l-4.309-2.396 1.013-1.013 7.302 4.513 13.931-2.49.919.919-14.547 2.864zm51.018.154l-4.291-2.587.898-.898 7.684 5.02 28-5.785 5 .115-32 6.704-1 .018-4.291-2.587zm-31.516-3.589l-3.807-1.966.866-.866 7.21 3.438 13.277-2.446.919.919-11.659 2.312-3 .575zm-65.443-1.209l-5.25-2.425v-2.916l7.489-4.419 18.011-2.782 13-1.958 23.921-3.942 8.845 8.971-.93.93-59.835 10.964zm85-2.49l-3.25-2.018v-1.227l6.774 3.997 12.726-2.671 1.692 1.663-8.692 1.34-6 .934zm-141.584-.798l-.452-.75-2.257-25-2.871-38-2.283-66 .697-23.339 1.35-1.345 2.65 1.683.037 35 1.524 51 .895 11 1.083 31 1.056 19 .996 6.5H8.654zm159.362-2.774l-3.472-2.476h2.786l3.667 3.319 14.119-2.523 1.009 1.009-14.638 3.147zm-150.362-.142l-.667-.667.031-2.167 1.469 2.269 4 .999-4.167.232-.667-.667zm-.991-12.564l-.551-2.269-1.187-34-.857-14-1.378-78.198 2.253-1.393 30.374-2.91 76.169-5.898 66.41-4.35 3.407 1.307-1.351 57.441-2.158 48-1.307 12-80 13.438-52 7.951-27 3.904-10.273 1.246zm166.337-55.019l.012-.25 1.295-80.5h-11.526l-29.293 2.051-40 2.999-40.8 3.917-.883.883 7.684 4.957 54 31.489 22.742 13.203 35.258 21.301 1.5.199.012-.25z" fill="#282f35"/><path d="M97.317 145.267v-8h-16v-18c0-11.333-.37-18-1-18-.598 0-1 3.924-1 9.773v9.773l-15.544 15.453H47.317V84.72l7.772-7.727c4.275-4.25 8.019-7.727 8.32-7.727s7.923-7.425 16.938-16.5 16.971-16.5 17.68-16.5 1.29-.675 1.29-1.5c0-1.222-1.667-1.5-9-1.5h-9V15.72L96.861.267h18.456v17h17v19h36v-2.262c0-1.588 4.698-6.953 15.761-18L199.84.267h18.477v16.547l-7.772 7.727c-4.275 4.25-8.325 7.727-9 7.727s-1.228.9-1.228 2c0 1.852.667 2 9 2h9v16h15v17h19v50.547l-15.544 15.453h-16.456v-17c0-10.667-.373-17-1-17-.6 0-1.012 4.103-1.029 10.25l-.029 10.25-30.442 31.581-36.5-.081V136.72l15.544-15.453h10.228c8.425 0 10.228-.264 10.228-1.5 0-1.306-4.778-1.5-37-1.5s-37 .194-37 1.5c0 1.276 2.611 1.5 17.5 1.5h17.5v16.547l-15.544 15.453H97.317zm19-77c0-.55-.9-1-2-1s-2 .45-2 1 .9 1 2 1 2-.45 2-1zm71 0c0-.55-.9-1-2-1s-2 .45-2 1 .9 1 2 1 2-.45 2-1z" fill="#fefe00"/><path d="M97.317 145.267v-8h-16v-18c0-11.333-.37-18-1-18-.598 0-1 3.924-1 9.773v9.773l-15.544 15.453H47.317V84.72l7.772-7.727c4.275-4.25 8.019-7.727 8.32-7.727s7.923-7.425 16.938-16.5 16.971-16.5 17.68-16.5 1.29-.675 1.29-1.5c0-1.222-1.667-1.5-9-1.5h-9V15.72L96.861.267h18.456v17h17v19h36v-2.262c0-1.588 4.698-6.953 15.761-18L199.84.267h18.477v16.547l-7.772 7.727c-4.275 4.25-8.325 7.727-9 7.727s-1.228.9-1.228 2c0 1.852.667 2 9 2h9v16h15v17h19v50.547l-15.544 15.453h-16.456v-17c0-10.667-.373-17-1-17-.6 0-1.012 4.103-1.029 10.25l-.029 10.25-30.442 31.581-36.5-.081V136.72l15.544-15.453h10.228c8.425 0 10.228-.264 10.228-1.5 0-1.306-4.778-1.5-37-1.5s-37 .194-37 1.5c0 1.276 2.611 1.5 17.5 1.5h17.5v16.547l-15.544 15.453H97.317zm50-16v-7h-33v14h33zm55 0v-7h-34v14h34zm-90-18.5v-9.5h92v19h13v-36h20v34h14v-48h-19v-17h-15v-16h-18v-20h-14v20h-54v-19h-15v19h-18v16h-16v17h-18v49h14v-35h20v36h14zm-1-50.5v-10h22v20h-22zm5 8c0-.55-.9-1-2-1s-2 .45-2 1 .9 1 2 1 2-.45 2-1zm66-8v-10h22v20h-22zm5 8c0-.55-.9-1-2-1s-2 .45-2 1 .9 1 2 1 2-.45 2-1zm-73-59.5v-7.5h-16v15h16zm103-.5v-7h-16v14h16z" fill="red"/></svg>