<?xml version="1.0" encoding="UTF-8"?>
<svg class="iconify iconify--noto" width="931" height="884" aria-hidden="true" preserveAspectRatio="xMidYMid" role="img" version="1.1" viewBox="0 0 149 141" xml:space="preserve" xmlns="http://www.w3.org/2000/svg"><g transform="translate(-4.34 -16.4)"><path d="m68 37.4-54.8 11.2s-8.4 7.57-8.88 20.2c-0.23 6.11 0.79 18.3 11.9 28.6 8.63 8.06 23.1 14.6 47.1 15.1 22.3 0.48 37.2-6.66 46.1-14.2 12-10.1 13.8-22.2 13.6-30.2-0.4-12.7-10.4-19.8-11.3-20.9s-43.7-9.69-43.7-9.69z" fill="#d4d4d3"/><path d="m63.1 107c39.8 0 58.4-21.9 58-42.1-0.45-20.5-28.7-35.1-57.2-34.6-49.7 0.9-56.6 24.1-56.9 36.7-0.35 14.8 13.2 40 56.2 40z" fill="#f7f6f5"/><path d="m12 63c-2.84 11.8 5.99 38.6 51.7 38.6 42.4 0 53.3-24.4 53.3-36.2 0-12.1-11.4-33.4-55-31-41.6 2.29-48.5 22.2-50 28.6z" fill="#df7f14"/><path d="m92.8 47.4c0.45 0.89 3.71 1.74 6.17 2.34s5.81 1.26 6.53-0.12-1.62-4.91-4.43-6.41c-2.82-1.5-5.48 0.09-6.11 0.6-0.96 0.78-2.82 2.28-2.16 3.59z" fill="#ff5119"/><path d="m16 63.3c-1.52 0-3.28 3.6-1.77 7.13s3.53 4.79 4.23 6.62c0.69 1.83 1.45 6.24 4.6 9.34 3.15 3.09 7.7 3.53 9.59 4.16s6.94 4.74 15.1 5.99c9.02 1.39 21.5-1.01 21.3-2.9-0.19-1.88-13.4-3.6-15.9-4.16s-11.4-2.02-17.9-5.42c-5.37-2.82-9.71-5.93-14.3-12.8-3.3-4.93-4.04-7.95-4.92-7.95z" fill="#f5b03e"/><g fill="#fefefe"><path d="m44.3 22.5-5.5 4.7-8.37 3.17-2.43 7.19s-4 2.77-4.17 3.82c-0.16 1.05-2.54 9.77-2.54 9.77s-0.62 3.39-0.57 4.92 5.67 13.1 24.4 16.4 30.7-0.77 38.8-5.37c7.75-4.37 9.16-9.05 9.16-9.05l-0.4-8.22s-2.52-9.64-3.49-11.8-8.27-10.1-8.73-10.3-9.86-5.96-9.86-5.96l-13.8-2.83z"/><path d="m15.8 67.6c-0.96 0.46-0.38 2.51 0.88 4.34s2.34 2.63 3.26 5.43 2.84 7.64 6.35 9.65 5.6 0.33 5.68-0.75c0.12-1.62-1.92-1.75-5.56-5.39-3.66-3.66-6.31-8.19-7.69-10.4-0.83-1.32-1.96-3.38-2.92-2.92z"/><path d="m39.1 87.3c-1.25-0.75-3.13 1.25-1.55 4.13 1.59 2.88 4.3 2.21 4.47 1.21 0.27-1.63-1.29-1.96-1.8-2.97-0.49-0.99 0.23-1.56-1.12-2.37z"/></g><path d="m29.4 38.6s-3.03 1.02-4.1 4.06c-1.08 3.04-1.09 7.07-1.09 7.07s-1.86 1.37-2.65 3.44c-0.83 2.18-0.52 3.86-0.86 3.79-0.76-0.16-1.29-3.51-1.03-5.18 0.34-2.14 1.26-2.98 1.26-2.98s-0.64-4.69 1.09-8.12c1.72-3.43 4.59-5.15 4.59-5.15s1.09-4.67 3.92-7 6.04-2.72 6.04-2.72 1.15-3.46 4.74-5.45c3.6-1.99 7.53-1.03 7.53-1.03s3.58-2.93 8.51-2.93c4.92 0 7.27 2.57 7.27 2.57s4.22-0.65 7.34 0.95 4.89 4.35 4.89 4.35 3.35 0.6 5.84 3.03c2.62 2.55 3.63 5.71 3.63 5.71s4.5 2.48 6.02 6.2c1.85 4.54 0.65 9.02 0.65 9.02s1.89 2.33 1.58 5.72c-0.3 3.39-1.98 6.45-2.68 6.22-0.15-0.05 0.61-4.58-0.02-6.86-0.51-1.85-2.47-4.66-2.47-4.66s0.28-5.22-1.37-8.18c-1.65-2.95-4.7-3.92-4.7-3.92s-1.19-3.88-3.46-5.91c-2.27-2.04-4.88-2.2-4.88-2.2s-2.31-3.5-4.99-4.51-5.47-0.55-5.47-0.55-3.66-2.33-7.28-2.31c-3.99 0.02-6.92 2.63-6.92 2.63s-3.41-1.14-6.65 1.07c-3.24 2.22-4.14 4.8-4.14 4.8s-3.78 0.31-6.23 2.45-3.91 6.58-3.91 6.58z" fill="#b0b0b0"/><g fill="#d4d4d3"><path d="m73.2 34.2c-1.76 0.03-1.87 2.46-2.71 3.93-0.75 1.31-3.57 1.96-2.45 3.83 1 1.67 4.7 0.78 6.11-2.17 0.99-2.06 1.29-5.62-0.95-5.59z"/><path d="m80.5 43c-1.7 0.18-1.03 2.44-1.61 4.18s-2.75 3.33-1.54 4.52 4.03-0.75 4.88-3.91-0.34-4.94-1.73-4.79z"/><path d="m71.2 49.4c-1.93-0.04-1.56 1.99-2.73 3.71-1.17 1.71-2.75 2.32-2 3.53s3.55 1.42 5.25-1.75c1.62-3.04 0.95-5.46-0.52-5.49z"/><path d="m72.9 61.2c-1.34 2.17-3.62 1.94-2.9 3.78 0.74 1.89 4.11 1.1 5.74-1.39 1.37-2.11 2.44-5.65 0.08-5.76-1.97-0.08-1.83 1.61-2.92 3.37z"/><path d="m60.1 59.8c-1.4 0.14-1.41 1.88-2.41 3.17-1.16 1.51-3.36 1.79-2.59 3.59s4.18 1.57 6.01-1c1.54-2.15 1.65-6.02-1.01-5.76z"/></g><path d="m22 62.8c-0.93 0.28-2.03 3.11-1.8 4.13 0.3 1.32 3.23 4.01 4.91 3.95s5.21-2.28 5.57-3.17c0.36-0.9 0.06-2.82-0.36-3.35-0.42-0.54-1.86-2.04-2.7-2.04s-4.42 0.12-5.62 0.48z" fill="#ff8e00"/><path d="m25.9 71.4c-0.94 1.41 0.24 3.23 1.2 4.37s3.23 4.11 7.61 3.65c5.21-0.54 7.01-5.87 7.01-8.15s-0.72-3.71-2.46-3.35c-2.27 0.47-2.28 2.04-4.79 2.64-2.52 0.6-7.25-1.13-8.57 0.84z" fill="#fcc219"/><path d="m41.1 77.6c-0.16 1.43-0.18 4.55 1.14 5.03s6.83 0.06 7.79-0.24 1.32-2.4 0.72-3.23c-0.6-0.84-4.73-4.13-6.41-4.07s-3.18 1.97-3.24 2.51z" fill="#ff8e00"/><path d="m52.7 84.3c1.08 0.54 2.04 4.61 1.74 5.57s-1.38 2.82-1.92 2.99c-0.54 0.18-5.33 0.24-7.31-0.06-1.72-0.26-3.65-2.28-3.47-4.91 0.18-2.64 2.1-3.59 4.91-3.83s6.05 0.24 6.05 0.24z" fill="#ff5319"/><path d="m59.2 74.6c-1.72 0.27-5.21 3.05-5.33 5.39s1.68 4.07 3.11 4.07c1.44 0 7.07-5.81 6.71-6.89s-2.22-2.93-4.49-2.57z" fill="#ff5319"/><path d="m63.3 80.3c0.89 1.09 4.55 3.29 6.59 2.94s7.01-2.4 6.53-5.33c-0.48-2.94-4.73-6.53-6.41-7.13s-4.43-0.18-5.63 0.9c-1.2 1.07-2.16 7.3-1.08 8.62z" fill="#f8c977"/><path d="m82 73.6c-1.45 0.04-2.28 1.8-2.52 2.4s-0.78 2.64-1.44 3.95c-0.66 1.32-3.71 4.67-2.58 6.47 1.14 1.8 3.53 1.44 6.59 0.96 3.05-0.48 5.39-1.8 5.75-4.55 0.36-2.76 0.6-4.97-0.12-5.81-0.71-0.85-3.41-3.48-5.68-3.42z" fill="#fcc219"/><path d="m75.1 91.5c1.26-0.72 6.11-4.49 7.91-4.43s3.47 1.38 3.95 2.46 0.66 4.13-0.36 4.97-4.37 1.32-5.81 1.44-6.54 0.71-6.89-1.68c-0.3-2.04 1.2-2.76 1.2-2.76z" fill="#ff8e00"/><path d="m92.6 82.9c-0.06 2.82 4.67 4.67 6.11 4.73s4.61-0.72 6.29-2.94c1.1-1.46 2.1-3.77 1.5-5.21s-1.38-2.7-3.47-2.88c-2.1-0.18-6.65-0.36-7.85 0.48-1.2 0.85-2.56 4.81-2.58 5.82z" fill="#ff5119"/><path d="m91.2 68c-0.55 0.95 0.44 4.09 1.74 5.45 1.08 1.14 2.7 2.4 6.05 2.04s6.53-2.58 7.25-3.65c0.72-1.08 1.74-3.29 1.14-4.37s-5.99-0.42-8.45-0.42-7.07-0.19-7.73 0.95z" fill="#f8c977"/><path d="m103 52.9c-0.11 1.08 1.92 2.88 2.76 3.47 0.84 0.6 3.29 1.26 4.13 0.72s0.97-3.87 0.6-4.79c-0.48-1.2-2.64-2.46-4.01-2.16-1.38 0.31-3.36 1.63-3.48 2.76z" fill="#f9ca76"/><path d="m102 53.7c-1.62 1.02-3.95 4.55-4.55 5.63s-1.86 3.59 0.3 4.43 6.29 0.12 7.79-0.6 4.37-2.22 4.43-4.13-1.32-3.29-2.99-4.37-3.27-2.03-4.98-0.96z" fill="#ff8e00"/><path d="m108 65.9c0.94 1.09 2.22 0.96 4.13 0.6 1.92-0.36 4.43-1.2 4.19-2.94s-2.22-2.99-3.17-3.41c-0.96-0.42-4.25-0.24-5.21 0.96-0.95 1.2-0.71 3.89 0.06 4.79z" fill="#fcc219"/></g><g transform="rotate(243 95.2 59.7)"><path d="m103 106-4.93 2.7 1.69 2.5s1.35-1.15 2.77-0.14 4.19 4.39 4.66 5.54-0.07 3.38-0.07 3.38l4.39 1.08 1.76-3.24z" fill="#6c6d6f"/><path d="m112 112c-4.07-5.49-23.6-32-23.6-32s25.2-21.4 8.46-53.3c-5.87-11.2-15.2-17.3-24.5-20-12.9-3.79-24.6-1.57-33.9 3.81-8.02 4.69-14.5 9.92-19.3 21-4.23 9.78-6.55 21.7 0.28 36.1 7.19 15.2 18.4 21.7 29.2 23.7 16.3 3.06 26.9-2.38 28.5-3.24 0 0 15.2 19.7 23.4 30.2 4.1 5.23 8.25 6.71 11.4 4.59 3.44-2.29 3.55-6.06-0.01-10.8zc-4.07-5.49-23.6-32-23.6-32s25.2-21.4 8.46-53.3c-5.87-11.2-15.2-17.3-24.5-20-12.9-3.79-24.6-1.57-33.9 3.81-8.02 4.69-14.5 9.92-19.3 21-4.23 9.78-6.55 21.7 0.28 36.1 7.19 15.2 18.4 21.7 29.2 23.7 16.3 3.06 26.9-2.38 28.5-3.24m31.8 29.6c-1.59 1.23-3.43-0.81-6.22-4.27-2.63-3.27-2.74-4.66-1.72-5.58 1.26-1.13 2.7 0.18 4.91 2.82s4.49 5.91 3.03 7.03z" fill="#2f2f2f"/><path d="m109 126c-2.79 0.28-5.17-0.12-9.48-5.07-7.76-8.9-20.1-26.3-23-30.5-3.56 1.7-13.8 5.59-28.3 2.85-9.31-1.75-22.1-7.42-30.1-24.4-7.67-16.2-3.91-29-0.3-37.2 4.86-11 11.4-16.7 19.9-21.6 10.4-6.09 22.8-7.48 34.9-3.93 7.81 2.3 18.6 7.75 25.3 20.7 17 32.5-8.5 54.9-8.76 55.1l-1.51-1.87c0.06-0.05 5.99-5.64 10-14.6 5.37-12 4.67-24.6-2.06-37.4-6.35-12.1-16.4-17.2-23.8-19.4-14.6-4.29-25.9-0.36-32.8 3.68-8.23 4.81-14.5 10.6-18.8 20.4-3.12 7.07-6.95 19.8 0.26 35 7.57 16 19.6 21.3 28.3 23 15.6 2.93 25.5-1.7 27.4-2.73l1.03-0.56 0.67 0.97c0.14 0.21 14.7 20.9 23.2 30.9 3.71 4.39 5.86 5.1 8.36 4.82 2.98-0.34 5.3-2.96 5.13-5.71 0.85 2.25-0.81 7.13-5.34 7.59z" fill="#6c6d6f"/><path d="m39 18.9c-13.2 8.59-22.7 30.1-9.7 50.4 12.4 19.4 37.9 16.6 50.1 8.54 12.7-8.44 21.3-31.3 7.95-50.2-10.5-15-30.7-20.2-48.3-8.7z" fill="#6c6d6f"/><path d="m40 63.3-3.8 7.76s2.94 5.17 11.6 5.37c2.63 0.06 5.45-0.29 7.87 0.56 5.53 1.94 11.8 1.83 16.1-0.56 6.28-3.47 14.3-12.6 15.1-25.7 0.99-16.7-8.01-24.4-8.01-24.4z" fill="#54585b"/><path d="m33.5 67.7c6.02 9.63 16.2 6.68 20.4 6.79s3.91 1.54 10 1.42c7.46-0.14 18.2-9.92 20.3-25.1 2.39-17.2-6.38-32.7-20.6-33.1-5.54-0.17-10.7 1.21-14.7 6.48-4.24 5.58-4.51 12.8-6.88 15.6-4 4.71-16.6 14.9-8.45 27.9z" fill="#fff"/><path d="m49.9 55.5c4.13 6.01 14.4 7.59 20 2.15 5.56-5.44 5.34-13.8 0.45-18.8-5.95-6.08-15.1-5.1-20 0.79-4.61 5.58-3.2 11.9-0.45 15.9z" fill="#ff8e00"/><path d="m52.7 52.7c4.07 0.74 3.55-5.32 5.43-7.65s5.87-2.33 5.65-5.21-6.54-3.44-10.5 1.33c-3.88 4.65-4.2 10.9-0.55 11.5z" fill="#ffb502"/></g></svg>
