<?xml version="1.0" encoding="UTF-8"?>
<svg width="359.69" height="259.04" version="1.0" xmlns="http://www.w3.org/2000/svg"><defs><marker id="b" style="overflow:visible" orient="auto"><path transform="matrix(.8 0 0 .8 -4.8 0)" d="m5.77 0-8.65 5v-10z" style="fill-rule:evenodd;fill:#fff;stroke-width:1pt;stroke:#000"/></marker><marker id="a" style="overflow:visible" orient="auto"><path transform="matrix(-1.1,0,0,-1.1,-1.1,0)" d="m8.7186 4.0337-10.926-4.0177 10.926-4.0177c-1.7455 2.3721-1.7354 5.6175-6e-7 8.0354z" style="fill-rule:evenodd;stroke-linejoin:round;stroke-width:.625"/></marker></defs><path d="m212.03 239.28-20.546-13.913 6.925-20.964z" style="fill-rule:evenodd;fill:#ffffc9;stroke-width:.5;stroke:#000"/><path d="m212.03 239.28 6.3793-28.877 8.5457 27.913z" style="fill-rule:evenodd;fill:#ffffc9;stroke-width:.5;stroke:#000"/><path d="m60.398 239.97 8.0911-8 8.0911 8-4 .19597c-.74526 6.0653.69039 12.131 2 18.196-2.3198-2.7545-4.4729-3.8423-6.0911-8-.86342 4.1113-3.1139 5.2979-6.0911 8 1.084-6.0653 2.2825-12.131 2-18.196z" style="fill:#fff;stroke-linecap:square;stroke-width:.5;stroke:#000"/><path d="m311.18 129.42-19.729-11.965" style="fill:none;marker-end:url(#a);stroke-width:.5;stroke:#000"/><path d="m309.7 135.28 8.0911-8 8.0911 8-4 .19597c-.74526 6.0653.69039 12.131 2 18.196-2.3198-2.7545-4.4729-3.8423-6.0911-8-.86342 4.1113-3.1139 5.2979-6.0911 8 1.084-6.0653 2.2825-12.131 2-18.196z" style="fill:#fff;stroke-linecap:square;stroke-width:.5;stroke:#000"/><path d="m296.2 138.96 16.502-37.508 25.197 26.708z" style="fill-rule:evenodd;fill:#ffffc9;stroke-width:.5;stroke:#000"/><path d="m207.88 158.83-19.197-24.708 18.502-35.508 23.197 24.708z" style="fill-rule:evenodd;fill:#ffffc9;stroke-width:.5;stroke:#000"/><path d="m66.62 139 8.0911-8 8.0911 8-4 .19597c-.74526 6.0653.69039 12.131 2 18.196-2.3198-2.7545-4.4729-3.8423-6.0911-8-.86342 4.1113-3.1139 5.2979-6.0911 8 1.084-6.0653 2.2825-12.131 2-18.196z" style="fill:#fff;stroke-linecap:square;stroke-width:.5;stroke:#000"/><path d="m86.898 125.46 14.963-6.6683" style="fill:none;marker-end:url(#a);stroke-width:.5;stroke:#000"/><path d="m252.35 74.115-59.744-28.415-.49126-12.336-9.4738-33.007 37.872 10.208 21.872 18.208 9.4738 33.007z" style="fill-rule:evenodd;fill:#ffffc9;stroke-width:.5;stroke:#000"/><path d="m248.35 74.115-59.744-28.415.50874-12.336-6.4738-33.007 37.872 10.208 21.872 18.208 6.4738 33.007z" style="fill-rule:evenodd;fill:#79b6ff;stroke-width:.5;stroke:#000"/><path d="m60.311 74.864-59.744-28.415 50.035-25.343 50.035-13.343 59.744 28.415-50.035 13.343z" style="fill-rule:evenodd;fill:#79b6ff;stroke-width:.5;stroke:#000"/><path d="m109.98 49.772-59.233-28.829" style="fill:none;stroke-dasharray:2, 1, 0.5, 1;stroke-width:.5;stroke:#000"/><path d="m71.687 37.355c-11.673-9.8677-48.794 6.5756-51.459 26.533" style="fill:none;marker-end:url(#b);stroke-width:.5;stroke:#000"/><path d="m85.545 33.235c2.1841-15.486 41.842-27.881 51.91-11.669" style="fill:none;marker-end:url(#b);stroke-width:.5;stroke:#000"/><path d="m248.83 63.554-29.672-53.489" style="fill:none;stroke-dasharray:4, 2;stroke-width:.5;stroke:#000"/><path d="m188.72 37.15 30.44-27.085" style="fill:none;stroke-dasharray:4, 2;stroke-width:.5;stroke:#000"/><path d="m186 3.6217c-12.313 20.228.75885 36.575 27.989 42.902" style="fill:none;marker-end:url(#a);stroke-width:.5;stroke:#000"/><path d="m240.82 29.31c-19.993-5.4603-49.559 1.8826-24.448 19.067" style="fill:none;marker-end:url(#a);stroke-width:.5;stroke:#000"/><path d="m352.86 75.293-59.744-28.415-5.4916-10.336 31.398-22.8 28.346 51.216z" style="fill-rule:evenodd;fill:#ffffc9;stroke-width:.5;stroke:#000"/><path d="m342.86 75.293-59.744-28.415 4.5084-10.336 31.398-22.8 28.346 51.215z" style="fill-rule:evenodd;fill:#79b6ff;stroke-width:.5;stroke:#000"/><path d="m287.63 36.542 31.398-22.8c-1.319 12.292-2.2278 24.584-2.0559 36.875-9.9565-3.6371-19.876-7.4938-29.342-14.075z" style="fill-rule:evenodd;fill:#79b6ff;stroke-width:.5;stroke:#000"/><path d="m319.03 13.742 28.346 51.216c-9.9573-3.4918-19.915-7.9573-29.872-13.943-.62285-12.424.15961-24.848 1.5262-37.273z" style="fill-rule:evenodd;fill:#79b6ff;stroke-width:.5;stroke:#000"/><path d="m311.26 59.501c-12.313-1.7527-10.099-20.363.4464-20.393" style="fill:none;marker-end:url(#a);stroke-width:.5;stroke:#000"/><path d="m353.1 73.802c12.846-7.0493 3.9368-28.043-6.9688-22.511" style="fill:none;marker-end:url(#a);stroke-width:.5;stroke:#000"/><path d="m107.64 137.6-25.872-14.208-33.872-14.208-1.4916 11.664 33.872 14.208 25.872 14.208z" style="fill-rule:evenodd;fill:#79b6ff;stroke-width:.5;stroke:#000"/><path d="m46.407 120.85 31.398-22.8 28.346 51.215z" style="fill-rule:evenodd;fill:#79b6ff;stroke-width:.5;stroke:#000"/><path d="m46.408 120.85 31.398-22.8c-1.319 12.292-6.2278 24.584-6.0559 36.875z" style="fill-rule:evenodd;fill:#79b6ff;stroke-width:.5;stroke:#000"/><path d="m77.806 98.049 28.346 51.216-33.872-13.943c-.62285-12.424 4.1596-24.848 5.5262-37.273z" style="fill-rule:evenodd;fill:#79b6ff;stroke-width:.5;stroke:#000"/><path d="m105.64 139.6-33.872-14.208-25.872-14.208.50836 9.6641 25.872 14.208 33.872 14.208z" style="fill-rule:evenodd;fill:#ffffc9;stroke-width:.5;stroke:#000"/><path d="m68.625 135.26-17.081 4.4546" style="fill:none;marker-end:url(#a);stroke-width:.5;stroke:#000"/><path d="m70.824 134.18 1.3058-8.1457" style="fill:none;stroke-dasharray:2, 1, 0.5, 1;stroke-width:.5;stroke:#000"/><path d="m215.88 158.83c-6.0333-10.784-18.758-17.532-27.197-24.708l18.502-35.508 23.197 24.708z" style="fill-rule:evenodd;fill:#79b6ff;stroke-width:.5;stroke:#000"/><path d="m215.88 158.83-5.7993-6.1769c5.8148-8.2939 6.8297-16.962 10.713-25.795 1.3707-3.1302 2.6386-6.3632 3.7889-9.7137l5.7993 6.1769c-4.157 12.238-6.8295 23.973-14.502 35.508z" style="fill-rule:evenodd;fill:#ffffc9;stroke-width:.5;stroke:#000"/><path d="m215.88 158.83c-6.796-9.1837-18.636-17.31-27.197-24.708l4.6255-8.8771c2.0257 1.8738 4.026 3.7982 6.0027 5.7701 6.164 6.161 15.882 12.548 21.194 18.938z" style="fill-rule:evenodd;fill:#ffffc9;stroke-width:.5;stroke:#000"/><path d="m207.63 100.56 1.9048 27.848 4.8105 15.055" style="fill:none;stroke-width:.5;stroke:#808080"/><path d="m188.72 134.06 41.657-10.782" style="fill:none;stroke-dasharray:4, 2;stroke-width:.5;stroke:#000"/><path d="m216 156.27c30.194-3.5877 30.215-46.057-7.2194-55.089" style="fill:none;marker-end:url(#a);stroke-width:.5;stroke:#000"/><path d="m206.27 156.27c-35.348-20.067-39.821-68.154-1.227-56.213" style="fill:none;marker-end:url(#a);stroke-width:.5;stroke:#000"/><path d="m296.2 138.96 18.502-35.508 23.197 24.708z" style="fill-rule:evenodd;fill:#79b6ff;stroke-width:.5;stroke:#000"/><path d="m296.2 138.96 20.502-33.508 21.197 22.708-18.85 7.4004z" style="fill-rule:evenodd;fill:#ffffc9;stroke-width:.5;stroke:#000"/><path d="m319.01 135.52-2.3053-29.983" style="fill:none;stroke-dasharray:2, 1, 0.5, 1;stroke-width:.5;stroke:#000"/><path d="m319.65 135.78 16.817 8.1622" style="fill:none;marker-end:url(#a);stroke-width:.5;stroke:#000"/><path d="m67.142 247.33-16.546-29.913 16.925-16.964 18.546 29.913z" style="fill-rule:evenodd;fill:#79b6ff;stroke-width:.5;stroke:#000"/><path d="m67.142 247.33 2.3793-46.877 16.546 29.913c-4.3068 6.9894-12.682 11.91-18.925 16.964z" style="fill-rule:evenodd;fill:#ffffc9;stroke-width:.5;stroke:#000"/><path d="m67.142 247.33c-7.1151-9.349-12.344-18.622-16.546-29.913l14.925-18.964z" style="fill-rule:evenodd;fill:#ffffc9;stroke-width:.5;stroke:#000"/><path d="m66.364 223.31 2.1972 1.6654" style="fill:none;stroke-dasharray:4, 2;stroke-width:.5;stroke:#000"/><path d="m68.146 245.15c-7.0162-7.0493-1.095-22.217.97606-32.31" style="fill:none;marker-end:url(#a);stroke-width:.5;stroke:#000"/><path d="m65.498 244.62c-7.0162-7.0493-6.6565-21.423-5.9095-32.31" style="fill:none;marker-end:url(#a);stroke-width:.5;stroke:#000"/><path d="m62.451 205.42-13.42-4.6294-1.4897 3.7174-3.6856-7.7148 7.6584-3.8014-1.1192 3.8452 13.42 4.6294" style="fill:#fff;stroke-linecap:square;stroke-width:.5;stroke:#000"/><path d="m71.961 204.92 13.424 4.6166 1.4861-3.7188 3.693 7.7112-7.6547 3.8088 1.1155-3.8463-13.424-4.6166" style="fill:#fff;stroke-linecap:square;stroke-width:.5;stroke:#000"/><path d="m204.03 239.28-12.546-13.913 4.2312-4.241 14.046 17.913z" style="fill-rule:evenodd;fill:#ffffc9;stroke-width:.5;stroke:#000"/><path d="m204.03 239.28-12.546-13.913 16.925-16.964 18.546 29.913z" style="fill-rule:evenodd;fill:#79b6ff;stroke-width:.5;stroke:#000"/><path d="m204.03 239.28-3.1364-3.4783 21.425-4.9639 4.6364 7.4783z" style="fill-rule:evenodd;fill:#ffffc9;stroke-width:.5;stroke:#000"/><path d="m204.03 239.28 14.379-28.877 8.5457 27.913z" style="fill-rule:evenodd;fill:#ffffc9;stroke-width:.5;stroke:#000"/><path d="m204.03 239.28-12.546-13.913 6.925-20.964z" style="fill-rule:evenodd;fill:#ffffc9;stroke-width:.5;stroke:#000"/><path d="m201.96 225.69 7.8911 1.9302" style="fill:none;stroke-dasharray:4, 2;stroke-width:.5;stroke:#000"/><path d="m318.49 225.87-20.546 10.087-7.075-22.964z" style="fill-rule:evenodd;fill:#ffffc9;stroke-width:.5;stroke:#000"/><path d="m318.49 225.87 20.379 5.1228-5.4543 17.913z" style="fill-rule:evenodd;fill:#ffffc9;stroke-width:.5;stroke:#000"/><path d="m297.95 235.96 16.925-16.964 18.546 29.913z" style="fill-rule:evenodd;fill:#79b6ff;stroke-width:.5;stroke:#000"/><path d="m310.49 225.87 28.379 5.1228-5.4543 17.913z" style="fill-rule:evenodd;fill:#ffffc9;stroke-width:.5;stroke:#000"/><path d="m310.49 225.87-12.546 10.087-7.075-22.964z" style="fill-rule:evenodd;fill:#ffffc9;stroke-width:.5;stroke:#000"/><path d="m310.49 225.87-12.546 10.087 35.471 12.949z" style="fill-rule:evenodd;fill:#ffffc9;stroke-width:.5;stroke:#000"/><text x="19.307833" y="77.205292" style="fill:#000000;font-family:'DejaVu Serif';letter-spacing:0px;line-height:0%;word-spacing:0px" xml:space="preserve"><tspan x="19.307833" y="77.205292" style="font-size:10px;line-height:1.25">1.</tspan></text><text x="155.30783" y="77.205292" style="fill:#000000;font-family:'DejaVu Serif';letter-spacing:0px;line-height:0%;word-spacing:0px" xml:space="preserve"><tspan x="155.30783" y="77.205292" style="font-size:10px;line-height:1.25">2.</tspan></text><text x="275.30783" y="77.205292" style="fill:#000000;font-family:'DejaVu Serif';letter-spacing:0px;line-height:0%;word-spacing:0px" xml:space="preserve"><tspan x="275.30783" y="77.205292" style="font-size:10px;line-height:1.25">3.</tspan></text><text x="19.307833" y="169.20529" style="fill:#000000;font-family:'DejaVu Serif';letter-spacing:0px;line-height:0%;word-spacing:0px" xml:space="preserve"><tspan x="19.307833" y="169.20529" style="font-size:10px;line-height:1.25">4.</tspan></text><text x="155.30783" y="169.20529" style="fill:#000000;font-family:'DejaVu Serif';letter-spacing:0px;line-height:0%;word-spacing:0px" xml:space="preserve"><tspan x="155.30783" y="169.20529" style="font-size:10px;line-height:1.25">5.</tspan></text><text x="275.30783" y="169.20529" style="fill:#000000;font-family:'DejaVu Serif';letter-spacing:0px;line-height:0%;word-spacing:0px" xml:space="preserve"><tspan x="275.30783" y="169.20529" style="font-size:10px;line-height:1.25">6.</tspan></text><text x="19.307833" y="255.20529" style="fill:#000000;font-family:'DejaVu Serif';letter-spacing:0px;line-height:0%;word-spacing:0px" xml:space="preserve"><tspan x="19.307833" y="255.20529" style="font-size:10px;line-height:1.25">7.</tspan></text><text x="155.30783" y="255.20529" style="fill:#000000;font-family:'DejaVu Serif';letter-spacing:0px;line-height:0%;word-spacing:0px" xml:space="preserve"><tspan x="155.30783" y="255.20529" style="font-size:10px;line-height:1.25">8.</tspan></text><text x="275.30783" y="255.20529" style="fill:#000000;font-family:'DejaVu Serif';letter-spacing:0px;line-height:0%;word-spacing:0px" xml:space="preserve"><tspan x="275.30783" y="255.20529" style="font-size:10px;line-height:1.25">9.</tspan></text></svg>
