<?xml version="1.0" encoding="UTF-8" standalone="no"?>
<!DOCTYPE svg PUBLIC "-//W3C//DTD SVG 1.0//EN" "http://www.w3.org/TR/2001/PR-SVG-20010719/DTD/svg10.dtd">
<svg width="12cm" height="24cm" viewBox="275 57 228 465" xmlns="http://www.w3.org/2000/svg" xmlns:xlink="http://www.w3.org/1999/xlink">
  <defs/>
  <g id="Background"/>
  <g id="Background">
    <rect style="fill: #ffffff; fill-opacity: 0; stroke-opacity: 1; stroke-width: 2; stroke-dasharray: 4; stroke: #1e90ff" x="276" y="328" width="208" height="136" rx="0" ry="0"/>
    <g>
      <path style="fill: #90ee90; fill-opacity: 1; stroke-opacity: 1; stroke-width: 2; stroke: #000000" fill-rule="evenodd" d="M 306.667 60 L 333.333,60 C 337.015,60 340,68.9543 340,80 C 340,91.0457 337.015,100 333.333,100 L 306.667,100 C 302.985,100 300,91.0457 300,80 C 300,68.9543 302.985,60 306.667,60z"/>
      <text font-size="9.41493" style="fill: #000000; fill-opacity: 1; stroke: none;text-anchor:middle;font-family:sans-serif;font-style:normal;font-weight:normal" x="320" y="84.7075">
        <tspan x="320" y="84.7075"></tspan>
      </text>
    </g>
    <g>
      <polygon style="fill: #add8e6; fill-opacity: 1; stroke-opacity: 1; stroke-width: 2; stroke-dasharray: 10; stroke: #000000" fill-rule="evenodd" points="294.559,180 360,180 345.441,220 280,220 "/>
      <text font-size="12.8" style="fill: #000000; fill-opacity: 1; stroke: none;text-anchor:middle;font-family:sans-serif;font-style:normal;font-weight:normal" x="320" y="205.7">
        <tspan x="320" y="205.7">b ?</tspan>
      </text>
    </g>
    <g>
      <line style="fill: none; stroke-opacity: 1; stroke-width: 2; stroke: #000000" x1="320" y1="160.991" x2="320" y2="169.273"/>
      <polygon style="fill: #000000; fill-opacity: 1; stroke-opacity: 1; stroke-width: 2; stroke: #000000" fill-rule="evenodd" points="320,176.773 315,166.773 320,169.273 325,166.773 "/>
    </g>
    <g>
      <line style="fill: none; stroke-opacity: 1; stroke-width: 2; stroke: #000000" x1="320" y1="220.977" x2="320" y2="239.264"/>
      <polygon style="fill: #000000; fill-opacity: 1; stroke-opacity: 1; stroke-width: 2; stroke: #000000" fill-rule="evenodd" points="320,246.764 315,236.764 320,239.264 325,236.764 "/>
    </g>
    <g>
      <polygon style="fill: #ffff00; fill-opacity: 1; stroke-opacity: 1; stroke-width: 2; stroke: #000000" fill-rule="evenodd" points="320,250 360,280 320,310 280,280 "/>
      <text font-size="12.8" style="fill: #000000; fill-opacity: 1; stroke: none;text-anchor:middle;font-family:sans-serif;font-style:normal;font-weight:normal" x="320" y="285.7">
        <tspan x="320" y="285.7">a &lt; b</tspan>
      </text>
    </g>
    <g>
      <polygon style="fill: #ffc0cb; fill-opacity: 1; stroke-opacity: 1; stroke-width: 2; stroke: #000000" fill-rule="evenodd" points="394.559,420 462.832,420 448.274,460 380,460 "/>
      <text font-size="12.8" style="fill: #000000; fill-opacity: 1; stroke: none;text-anchor:middle;font-family:sans-serif;font-style:normal;font-weight:normal" x="421.416" y="445.7">
        <tspan x="421.416" y="445.7">'equal'</tspan>
      </text>
    </g>
    <g>
      <path style="fill: #a52a2a; fill-opacity: 1; stroke-opacity: 1; stroke-width: 2; stroke: #000000" fill-rule="evenodd" d="M 466.667 480 L 493.333,480 C 497.015,480 500,488.954 500,500 C 500,511.046 497.015,520 493.333,520 L 466.667,520 C 462.985,520 460,511.046 460,500 C 460,488.954 462.985,480 466.667,480z"/>
      <text font-size="9.41493" style="fill: #000000; fill-opacity: 1; stroke: none;text-anchor:middle;font-family:sans-serif;font-style:normal;font-weight:normal" x="480" y="504.707">
        <tspan x="480" y="504.707"></tspan>
      </text>
    </g>
    <text font-size="12.8" style="fill: #000000; fill-opacity: 1; stroke: none;text-anchor:middle;font-family:sans-serif;font-style:normal;font-weight:normal" x="300" y="324.95">
      <tspan x="300" y="324.95">False</tspan>
    </text>
    <text font-size="12.8" style="fill: #000000; fill-opacity: 1; stroke: none;text-anchor:middle;font-family:sans-serif;font-style:normal;font-weight:normal" x="360" y="264.95">
      <tspan x="360" y="264.95">True</tspan>
    </text>
    <g>
      <polygon style="fill: #ffc0cb; fill-opacity: 1; stroke-opacity: 1; stroke-width: 2; stroke: #000000" fill-rule="evenodd" points="389.193,340 465.366,340 450.808,380 374.634,380 "/>
      <text font-size="12.8" style="fill: #000000; fill-opacity: 1; stroke: none;text-anchor:middle;font-family:sans-serif;font-style:normal;font-weight:normal" x="420" y="365.7">
        <tspan x="420" y="365.7">'inverted'</tspan>
      </text>
    </g>
    <g>
      <line style="fill: none; stroke-opacity: 1; stroke-width: 2; stroke: #000000" x1="361" y1="360" x2="371.537" y2="360"/>
      <polygon style="fill: #000000; fill-opacity: 1; stroke-opacity: 1; stroke-width: 2; stroke: #000000" fill-rule="evenodd" points="379.037,360 369.037,365 371.537,360 369.037,355 "/>
    </g>
    <path style="fill: none; stroke-opacity: 1; stroke-width: 2; stroke: #000000" d="M 453.353 280 C 473.353,280 480,290 480,310"/>
    <g>
      <polygon style="fill: #ffc0cb; fill-opacity: 1; stroke-opacity: 1; stroke-width: 2; stroke: #000000" fill-rule="evenodd" points="394.559,260 460,260 445.441,300 380,300 "/>
      <text font-size="12.8" style="fill: #000000; fill-opacity: 1; stroke: none;text-anchor:middle;font-family:sans-serif;font-style:normal;font-weight:normal" x="420" y="285.7">
        <tspan x="420" y="285.7">'ordered'</tspan>
      </text>
    </g>
    <g>
      <line style="fill: none; stroke-opacity: 1; stroke-width: 2; stroke: #000000" x1="361" y1="280" x2="376.902" y2="280"/>
      <polygon style="fill: #000000; fill-opacity: 1; stroke-opacity: 1; stroke-width: 2; stroke: #000000" fill-rule="evenodd" points="384.402,280 374.402,285 376.902,280 374.402,275 "/>
    </g>
    <g>
      <line style="fill: none; stroke-opacity: 1; stroke-width: 2; stroke: #000000" x1="320" y1="311" x2="320" y2="319.264"/>
      <polygon style="fill: #000000; fill-opacity: 1; stroke-opacity: 1; stroke-width: 2; stroke: #000000" fill-rule="evenodd" points="320,326.764 315,316.764 320,319.264 325,316.764 "/>
    </g>
    <g>
      <polygon style="fill: #add8e6; fill-opacity: 1; stroke-opacity: 1; stroke-width: 2; stroke-dasharray: 10; stroke: #000000" fill-rule="evenodd" points="294.559,120 360,120 345.441,160 280,160 "/>
      <text font-size="12.8" style="fill: #000000; fill-opacity: 1; stroke: none;text-anchor:middle;font-family:sans-serif;font-style:normal;font-weight:normal" x="320" y="145.7">
        <tspan x="320" y="145.7">a ?</tspan>
      </text>
    </g>
    <g>
      <line style="fill: none; stroke-opacity: 1; stroke-width: 2; stroke: #000000" x1="320" y1="100.991" x2="320" y2="109.273"/>
      <polygon style="fill: #000000; fill-opacity: 1; stroke-opacity: 1; stroke-width: 2; stroke: #000000" fill-rule="evenodd" points="320,116.773 315,106.773 320,109.273 325,106.773 "/>
    </g>
    <g>
      <polygon style="fill: #ffff00; fill-opacity: 1; stroke-opacity: 1; stroke-width: 2; stroke: #000000" fill-rule="evenodd" points="320,330 360,360 320,390 280,360 "/>
      <text font-size="12.8" style="fill: #000000; fill-opacity: 1; stroke: none;text-anchor:middle;font-family:sans-serif;font-style:normal;font-weight:normal" x="320" y="365.7">
        <tspan x="320" y="365.7">a &gt; b</tspan>
      </text>
    </g>
    <g>
      <path style="fill: none; stroke-opacity: 1; stroke-width: 2; stroke: #000000" d="M 320 391 C 320,431 347.244,440 376.912,440"/>
      <polygon style="fill: #000000; fill-opacity: 1; stroke-opacity: 1; stroke-width: 2; stroke: #000000" fill-rule="evenodd" points="384.412,440 374.412,445 376.912,440 374.412,435 "/>
    </g>
    <text font-size="12.8" style="fill: #000000; fill-opacity: 1; stroke: none;text-anchor:middle;font-family:sans-serif;font-style:normal;font-weight:normal" x="300" y="404.95">
      <tspan x="300" y="404.95">False</tspan>
    </text>
    <text font-size="12.8" style="fill: #000000; fill-opacity: 1; stroke: none;text-anchor:middle;font-family:sans-serif;font-style:normal;font-weight:normal" x="360" y="344.95">
      <tspan x="360" y="344.95">True</tspan>
    </text>
    <g>
      <line style="fill: none; stroke-opacity: 1; stroke-width: 2; stroke: #000000" x1="480" y1="310" x2="480" y2="469.274"/>
      <polygon style="fill: #000000; fill-opacity: 1; stroke-opacity: 1; stroke-width: 2; stroke: #000000" fill-rule="evenodd" points="480,476.774 475,466.774 480,469.274 485,466.774 "/>
    </g>
    <text font-size="12.8" style="fill: #000000; fill-opacity: 1; stroke: none;text-anchor:middle;font-family:sans-serif;font-style:normal;font-weight:normal" x="320" y="84.95">
      <tspan x="320" y="84.95">Start</tspan>
    </text>
    <text font-size="12.8" style="fill: #000000; fill-opacity: 1; stroke: none;text-anchor:middle;font-family:sans-serif;font-style:normal;font-weight:normal" x="480" y="504.95">
      <tspan x="480" y="504.95">Stop</tspan>
    </text>
    <path style="fill: none; stroke-opacity: 1; stroke-width: 2; stroke: #000000" d="M 458.696 360 C 478.696,360 480,374.505 480,394.505"/>
    <path style="fill: none; stroke-opacity: 1; stroke-width: 2; stroke: #000000" d="M 456.157 440 C 476.157,440 480,450 480,470"/>
  </g>
</svg>
