<?xml version="1.0" encoding="UTF-8"?>
<svg version="1.1" viewBox="0 0 800.6 844.59" xmlns="http://www.w3.org/2000/svg"><path d="m400.24 403.74v120" style="fill:none;stroke-dasharray:15, 15;stroke-width:5;stroke:#000"/><path d="m680.24 523.74v-80h-280" style="fill:none;stroke-dasharray:15, 15;stroke-width:5;stroke:#000"/><path d="m120.24 523.74v-80h280" style="fill:none;stroke-dasharray:15, 15;stroke-width:5;stroke:#000"/><text x="400.23526" y="43.740231" style="fill:#000000;font-family:sans-serif;font-size:60px;font-style:italic;letter-spacing:0px;line-height:0%;text-align:center;text-anchor:middle;word-spacing:0px" xml:space="preserve"><tspan x="400.23526" y="43.740231" style="font-family:sans-serif">Actor</tspan></text><text x="120.23524" y="843.74023" style="fill:#000000;font-family:sans-serif;font-size:60px;letter-spacing:0px;line-height:0%;text-align:center;text-anchor:middle;word-spacing:0px" xml:space="preserve"><tspan x="120.23524" y="843.74023" style="font-family:sans-serif">Ball</tspan></text><text x="400.23526" y="843.74023" style="fill:#000000;font-family:sans-serif;font-size:60px;letter-spacing:0px;line-height:0%;text-align:center;text-anchor:middle;word-spacing:0px" xml:space="preserve"><tspan x="400.23526" y="843.74023" style="font-family:sans-serif">Ghost</tspan></text><text x="680.23523" y="843.74023" style="fill:#000000;font-family:sans-serif;font-size:60px;letter-spacing:0px;line-height:0%;text-align:center;text-anchor:middle;word-spacing:0px" xml:space="preserve"><tspan x="680.23523" y="843.74023" style="font-family:sans-serif">...</tspan></text><path d="m340.24 403.74h120l-60-80z" style="fill:none;stroke-width:5;stroke:#000"/><g transform="matrix(4.3654 0 0 4.3654 -36.676 -376.32)"><path d="m95.849 157.47c-6.7367-1.2191-13.45-5.5716-17.096-11.084-1.0607-1.6035-1.5257-1.1533 5.1669-5.0022 5.3608-3.083 5.3608-3.083 7.1207-1.2174 1.0659 1.13 1.9048 1.81 2.1274 1.7246.20528-.0788.29474-.0233.20267.12565-.2253.36453 3.2002 1.935 3.85 1.7651.28678-.075.46161-.0396.38851.0787-.0731.11828.46252.29694 1.1903.39703 1.3232.18198 1.3232.18198 1.3232 6.904 0 7.6103.31904 7.1393-4.2732 6.3082zm4.7448-6.3992c-.0747-6.813-.0747-6.813 1.3954-6.8637 1.7046-.0588 4.5788-1.0354 4.313-1.4656-.10364-.16769-.0527-.20886.12368-.0999.3828.23658 1.4346-.31303 1.2306-.64306-.0844-.13655.003-.18812.19493-.1146.41716.16009 3.5138-2.8895 3.2945-3.2444-.49201-.79608 10.524 5.0382 11.793 6.2454 2.2205 2.1135-10.97 11.382-17.924 12.595-4.7141.82207-4.3358 1.3705-4.4211-6.4091zm-23.948-8.4554c-3.2857-7.2821-3.2874-14.829-.0052-22.104.98384-2.1808.13494-2.3566 6.5969 1.3662 3.0093 1.7337 5.6879 3.2081 5.9525 3.2766.45451.1176.4538.12617-.01279.15517-.35838.0223-.45589.17597-.3554.56023.07616.29124.03507.46562-.09132.38751-.44632-.27585-1.1393 2.8816-1.1344 5.1684.0048 2.2039.46219 4.6265.83054 4.3989.10235-.0633.20211.1415.22168.45503.01958.31353.11274.80817.20704 1.0992.15096.46594-8.6823 5.9917-11 6.8809-.29326.11253-.61395-.32323-1.2099-1.6441zm40.857-1.4815c-4.0528-2.3656-5.4696-3.3198-5.3701-3.6166.0744-.22178.39638-1.1176.71559-1.9907.86724-2.3721.80505-8.4515-.0809-7.904-.17701.10939-.21714.0592-.10185-.12731.21946-.35509-.0575-1.4242-.32598-1.2582-.0987.061-.17938-.16837-.17938-.50966 0-.54795 9.6333-6.5603 11.133-6.948.16688-.0432.7368.93034 1.2665 2.1633 2.9319 6.8247 2.9338 14.401.005 21.218-1.168 2.719-.47085 2.8203-7.0618-1.0267zm-18.94-1.5863c-.99389-1.8194-.11713-3.3596 1.9125-3.3596 2.0638 0 2.9592 1.4969 1.9892 3.3254-.93625 1.7648-2.9466 1.7824-3.9016.0341zm6.586-4.5502c0-1.9844 0-1.9844 1.9844-1.9844 1.9844 0 1.9844 0 1.9844 1.9844 0 1.9844 0 1.9844-1.9844 1.9844-1.9844 0-1.9844 0-1.9844-1.9844zm-13.397-1.0583c.000688-1.4552.04512-2.0168.09874-1.2479s.05305 1.9595-.0012 2.6458c-.05431.68635-.09818.0573-.09749-1.3979zm5.0258.13229c0-1.3824.04459-1.948.0991-1.2568.0545.69123.0545 1.8223 0 2.5135-.0545.69123-.0991.12568-.0991-1.2568zm-4.3287-.13229c0-1.9844 0-1.9844 1.8521-1.9844 1.8521 0 1.8521 0 1.8521 1.9844 0 1.9844 0 1.9844-1.8521 1.9844-1.8521 0-1.8521 0-1.8521-1.9844zm6.52-1.1138c.13086-1.1234.06948-1.3402-.54037-1.9088-.91764-.85554-.87026-1.0313.30419-1.1285.83992-.0695 1.0734-.23427 1.5214-1.0736.29104-.54531.58869-.99148.66145-.99148.0728 0 .37042.44617.66146.99148.44796.83932.68143 1.0041 1.5214 1.0736 1.1744.0972 1.2218.27299.30419 1.1285-.60985.56858-.67123.78538-.54038 1.9088.14763 1.2674.14763 1.2674-.8995.67889s-1.0471-.58852-2.0943 0c-1.0471.58852-1.0471.58852-.8995-.67889zm-3.345-4.7624c-2.7202-1.0002-1.9798-4.8394.93326-4.8394 2.4382 0 2.9541 3.9211.6228 4.7338-.91337.3184-.96726.32206-1.5561.10557zm7.4054-1.466c-1.0574-1.7343-.0671-3.638 1.8926-3.638 1.9113 0 2.9672 1.7807 2.0294 3.4227-.86037 1.5064-3.0611 1.6273-3.922.21531zm5.8237-3.0698c-4.6947-4.8247-11.597-4.9804-16.445-.37103-1.0842 1.0308-1.551 1.3269-1.6961 1.0756-.11011-.19068-.10147-.25714.01919-.14768.12066.10946.43741.002.70388-.23944.54748-.49546.65869-1.0187.15376-.72346-.1819.10636-.10392-.0652.1733-.38126.52188-.595.84058-.77327.55431-.31006-.08994.14552-.05589.26458.07567.26458.33814 0 1.1472-.93794.9656-1.1195-.08278-.0828.06579-.13265.33015-.11082.26436.0218.4594-.0836.43341-.23435-.02599-.15072.15261-.29116.39688-.31209.77706-.0666 4.0728-1.3352 3.749-1.4431-.17088-.057.67552-.0654 1.8809-.0187 1.4995.0581 2.7813.29616 4.0591.75397 1.0272.368 2.0674.68638 2.3117.70751.24427.0211.42286.16173.39688.31245-.026.15072.15983.25771.41292.23776.2531-.0199.40324.0559.33365.16846-.17398.28149.5811.8747.87902.69058.29413-.18178 1.1751.73905.93587.97825-.22774.22774.43413 1.0082.71028.83759.11898-.0735.30247.006.40777.17608.11957.19347.0768.2389-.11401.121-.40219-.24857-.39339.17784.012.58327.17463.17463.26393.30723.19844.29467-.0655-.0126-.89297-.81817-1.8388-1.7902zm-25.104-1.9068c-6.5181-3.7751-6.0426-3.3091-4.9962-4.8953 4.0708-6.1713 11.943-10.761 19.544-11.395 2.0898-.17428 2.0898-.17428 2.0898 6.4243 0 6.5985 0 6.5985-.99219 6.656-2.02.11687-4.6866.96139-4.4163 1.3987.07937.12844-.05999.15511-.3097.0593-.33242-.12756-.39601-.0804-.23744.1762.14216.23003.11419.28715-.08141.16626-.39257-.24262-1.6808.60945-1.4604.96598.10392.16815.04183.19675-.15845.073-.42248-.26111-2.4614 1.6922-2.2746 2.1791.07417.19329.02754.28512-.10363.20405-.13117-.0811-.45723.1357-.72457.4817-.48608.6291-.48608.6291-5.8788-2.4941zm27.586 2.7056c.0176-.23552-.14658-.4365-.36486-.44663-.21828-.0101-.36096-.18027-.31706-.37811.10948-.49345-1.8338-2.4379-2.2694-2.2707-.1933.0742-.28194.0224-.19698-.11507.21496-.34782-1.0905-1.1568-1.4792-.91656-.21514.13297-.24746.0833-.10052-.15445.15857-.25657.095-.30376-.23745-.1762-.30596.11741-.39224.0743-.26458-.13229.12766-.20656.0414-.2497-.26458-.13229-.25974.0997-.38752.0666-.29862-.0772.19222-.31102-2.2443-1.0288-3.7659-1.1093-1.1245-.0595-1.1245-.0595-1.1245-6.6566 0-7.4963 1.8099-8.2047 10.683-4.1816 5.1955 2.3557 12.901 9.6881 11.366 10.816-2.8902 2.1253-11.413 6.5728-11.365 5.9306z" style="fill:#b9cbe5;stroke-width:.26458"/><path d="m97.347 158.93c-18.502-2.0509-29.746-22.173-21.833-39.07 9.058-19.339 35.737-21.547 47.845-3.9589 13.34 19.378-2.5309 45.632-26.012 43.029zm7.8334-.63652c17.609-3.0839 27.604-22.085 20.077-38.169-9.0191-19.273-35.524-21.35-47.305-3.7063-1.2633 1.892-1.612 2.5478-2.6826 5.0456-8.1618 19.041 9.2271 40.452 29.911 36.829zm-8.1675-.15835c-20.549-2.6716-30.368-27.262-17.322-43.379 15.806-19.526 47.414-8.3394 47.477 16.803.0407 16.149-14.151 28.657-30.155 26.576zm3.1089-6.9939c0-4.3215.0951-6.7469.26459-6.7469.16947 0 .26458 2.4254.26458 6.7469 0 7.702-.3674 7.168 4.3635 6.343 7.2414-1.2628 20.449-10.727 17.743-12.714-.21424-.15732-2.8304-1.6944-5.8136-3.4156-2.9832-1.7213-5.3598-3.2336-5.2813-3.3606.0785-.12706.52031.00053.98173.28349 2.3844 1.4623 10.564 6.1173 10.749 6.1173.11767 0 .64495-1.0033 1.1717-2.2295 2.9263-6.8117 2.9263-14.394 0-21.206-1.1642-2.7101-.3158-2.8274-6.8372.94552-3.0183 1.7462-5.602 3.175-5.7416 3.175-.62612 0 .36423-.6551 5.1312-3.3942 2.8036-1.6109 5.3158-3.0896 5.5829-3.286 1.5344-1.1283-6.1708-8.4606-11.366-10.816-8.9032-4.0369-10.674-3.3281-10.744 4.2994l-.0614 6.7149-.0755-6.7184c-.0755-6.7184-.0755-6.7184-2.1607-6.5445-7.5886.63286-15.47 5.2256-19.53 11.38-1.0667 1.6172-1.5429 1.1438 4.8263 4.798 2.993 1.7172 5.5037 3.2222 5.5793 3.3445.34475.55782-.74896.01-5.8908-2.9526-6.5077-3.7491-5.6526-3.5702-6.6366-1.3891-2.7713 6.1429-3.204 12.814-1.231 18.978.53282 1.6646 1.9832 4.9007 2.1959 4.8997.0876-.00053 2.7172-1.4785 5.8436-3.2846 3.1264-1.8061 5.7854-3.2214 5.909-3.145.26267.16234.18341.2119-6.037 3.7755-6.009 3.4425-5.626 3.0526-4.5686 4.6511 3.6461 5.5121 10.36 9.8646 17.096 11.084 4.5931.83122 4.2732 1.3053 4.2732-6.333zm-1.7874-7.305c-11.493-1.915-14.204-18.366-3.8869-23.591 13.189-6.6791 25.349 10.105 14.688 20.274-2.9611 2.8244-6.7584 3.9906-10.801 3.317zm5.0436-.63029c7.0707-1.8417 10.996-9.0574 8.6455-15.891-3.4517-10.033-17.642-10.909-22.342-1.3794-4.5828 9.2913 3.7911 19.85 13.697 17.27zm-5.5161-.23897c-14.457-3.5123-9.8796-26.043 4.6567-22.92 3.0746.66063 9.2198 4.8811 8.3596 5.7413-.0827.0827.0798.60161.36117 1.1531 4.1383 8.1117-4.3073 18.229-13.377 16.025zm7.432-1.3312c8.6049-4.2528 8.5201-16.092-.14494-20.237-5.9655-2.8535-13.38.42142-15.343 6.7768-2.8993 9.3868 6.7543 17.777 15.488 13.46zm-7.0299-1.6588c-.95975-1.5134-.96477-1.6689-.10132-3.1422 1.0719-1.8291 3.6793-1.8002 4.7147.0523 1.2283 2.1976.0661 4.3323-2.3586 4.3323-1.4593 0-1.4709-.006-2.2548-1.2424zm4.2006-.45921c.97003-1.8285.0746-3.3254-1.9892-3.3254-2.0296 0-2.9063 1.5402-1.9125 3.3596.95504 1.7483 2.9654 1.7307 3.9016-.0341zm2.1552-4.5062c0-2.5235 0-2.5235 2.5235-2.5235s2.5235 0 2.4474 2.4474c-.12221 3.9314-4.9709 4.0056-4.9709.0761zm4.4979-.01c0-1.9844 0-1.9844-1.9844-1.9844-1.9844 0-1.9844 0-1.9844 1.9844 0 1.9844 0 1.9844 1.9844 1.9844 1.9844 0 1.9844 0 1.9844-1.9844zm-17.198-1.0583c0-2.5135 0-2.5135 2.3812-2.5135s2.3812 0 2.3812 2.5135 0 2.5135-2.3812 2.5135-2.3812 0-2.3812-2.5135zm4.2333 0c0-1.9844 0-1.9844-1.8521-1.9844-1.8521 0-1.8521 0-1.8521 1.9844 0 1.9844 0 1.9844 1.8521 1.9844 1.8521 0 1.8521 0 1.8521-1.9844zm2.2389-.5405c.18854-1.509.18854-1.509-.93088-2.6496-1.1194-1.1406-1.1194-1.1406.4752-1.321 1.5946-.18042 1.5946-.18042 2.1999-1.4726.33288-.71073.6836-1.2922.77937-1.2922.0958 0 .4465.5815.77938 1.2922.60525 1.2922.60525 1.2922 2.1999 1.4726 1.5946.18041 1.5946.18041.4752 1.321-1.1194 1.1406-1.1194 1.1406-.93087 2.6496.18854 1.509.18854 1.509-1.1675.82188s-1.3561-.68717-2.7121 0c-1.3561.68717-1.3561.68717-1.1675-.82188zm3.5707.10554c1.0471.58852 1.0471.58852.8995-.67889-.13085-1.1234-.0695-1.3402.54038-1.9088.91764-.85554.87026-1.0313-.30419-1.1285-.83993-.0695-1.0734-.23427-1.5214-1.0736-.29104-.54531-.5887-.99148-.66146-.99148-.0728 0-.37041.44617-.66145.99148-.44796.83932-.68143 1.0041-1.5214 1.0736-1.1745.0972-1.2218.27299-.30419 1.1285.60985.56858.67123.78538.54037 1.9088-.14762 1.2674-.14762 1.2674.8995.67889 1.0471-.58852 1.0471-.58852 2.0943 0zm-6.868-5.1878c-2.6027-1.3002-2.0262-5.0618.84715-5.5281 3.4762-.56412 4.6237 4.2431 1.3442 5.6312-1.0715.45352-1.0777.45323-2.1913-.10308zm2.0852-.359c2.3313-.8127 1.8154-4.7338-.6228-4.7338-2.9131 0-3.6534 3.8392-.93326 4.8394.58879.21649.64269.21283 1.5561-.10557zm5.7261-.63277c-1.3175-2.1626-1.2825-1.8404-.3751-3.4482 1.2196-2.1611 3.5528-2.1291 4.7908.0657 1.5788 2.7991-2.7506 6.1156-4.4157 3.3826zm4.0452-.94292c.61175-1.0711.61175-1.0711-.0773-2.2469-1.2445-2.1236-4.3767-1.2338-4.3699 1.2415.006 2.2271 3.3214 2.9766 4.4472 1.0054z" style="fill:#0b0b0b;stroke-width:.26458"/></g><g transform="matrix(4.3654 0 0 4.3654 -317.21 73.211)"><path d="m95.849 157.47c-6.7367-1.2191-13.45-5.5716-17.096-11.084-1.0607-1.6035-1.5257-1.1533 5.1669-5.0022 5.3608-3.083 5.3608-3.083 7.1207-1.2174 1.0659 1.13 1.9048 1.81 2.1274 1.7246.20528-.0788.29474-.0233.20267.12565-.2253.36453 3.2002 1.935 3.85 1.7651.28678-.075.46161-.0396.38851.0787-.0731.11828.46252.29694 1.1903.39703 1.3232.18198 1.3232.18198 1.3232 6.904 0 7.6103.31904 7.1393-4.2732 6.3082zm4.7448-6.3992c-.0747-6.813-.0747-6.813 1.3954-6.8637 1.7046-.0588 4.5788-1.0354 4.313-1.4656-.10364-.16769-.0527-.20886.12368-.0999.3828.23658 1.4346-.31303 1.2306-.64306-.0844-.13655.003-.18812.19493-.1146.41716.16009 3.5138-2.8895 3.2945-3.2444-.49201-.79608 10.524 5.0382 11.793 6.2454 2.2205 2.1135-10.97 11.382-17.924 12.595-4.7141.82207-4.3358 1.3705-4.4211-6.4091zm-23.948-8.4554c-3.2857-7.2821-3.2874-14.829-.0052-22.104.98384-2.1808.13494-2.3566 6.5969 1.3662 3.0093 1.7337 5.6879 3.2081 5.9525 3.2766.45451.1176.4538.12617-.01279.15517-.35838.0223-.45589.17597-.3554.56023.07616.29124.03507.46562-.09132.38751-.44632-.27585-1.1393 2.8816-1.1344 5.1684.0048 2.2039.46219 4.6265.83054 4.3989.10235-.0633.20211.1415.22168.45503.01958.31353.11274.80817.20704 1.0992.15096.46594-8.6823 5.9917-11 6.8809-.29326.11253-.61395-.32323-1.2099-1.6441zm40.857-1.4815c-4.0528-2.3656-5.4696-3.3198-5.3701-3.6166.0744-.22178.39638-1.1176.71559-1.9907.86724-2.3721.80505-8.4515-.0809-7.904-.17701.10939-.21714.0592-.10185-.12731.21946-.35509-.0575-1.4242-.32598-1.2582-.0987.061-.17938-.16837-.17938-.50966 0-.54795 9.6333-6.5603 11.133-6.948.16688-.0432.7368.93034 1.2665 2.1633 2.9319 6.8247 2.9338 14.401.005 21.218-1.168 2.719-.47085 2.8203-7.0618-1.0267zm-18.94-1.5863c-.99389-1.8194-.11713-3.3596 1.9125-3.3596 2.0638 0 2.9592 1.4969 1.9892 3.3254-.93625 1.7648-2.9466 1.7824-3.9016.0341zm6.586-4.5502c0-1.9844 0-1.9844 1.9844-1.9844 1.9844 0 1.9844 0 1.9844 1.9844 0 1.9844 0 1.9844-1.9844 1.9844-1.9844 0-1.9844 0-1.9844-1.9844zm-13.397-1.0583c.000688-1.4552.04512-2.0168.09874-1.2479s.05305 1.9595-.0012 2.6458c-.05431.68635-.09818.0573-.09749-1.3979zm5.0258.13229c0-1.3824.04459-1.948.0991-1.2568.0545.69123.0545 1.8223 0 2.5135-.0545.69123-.0991.12568-.0991-1.2568zm-4.3287-.13229c0-1.9844 0-1.9844 1.8521-1.9844 1.8521 0 1.8521 0 1.8521 1.9844 0 1.9844 0 1.9844-1.8521 1.9844-1.8521 0-1.8521 0-1.8521-1.9844zm6.52-1.1138c.13086-1.1234.06948-1.3402-.54037-1.9088-.91764-.85554-.87026-1.0313.30419-1.1285.83992-.0695 1.0734-.23427 1.5214-1.0736.29104-.54531.58869-.99148.66145-.99148.0728 0 .37042.44617.66146.99148.44796.83932.68143 1.0041 1.5214 1.0736 1.1744.0972 1.2218.27299.30419 1.1285-.60985.56858-.67123.78538-.54038 1.9088.14763 1.2674.14763 1.2674-.8995.67889s-1.0471-.58852-2.0943 0c-1.0471.58852-1.0471.58852-.8995-.67889zm-3.345-4.7624c-2.7202-1.0002-1.9798-4.8394.93326-4.8394 2.4382 0 2.9541 3.9211.6228 4.7338-.91337.3184-.96726.32206-1.5561.10557zm7.4054-1.466c-1.0574-1.7343-.0671-3.638 1.8926-3.638 1.9113 0 2.9672 1.7807 2.0294 3.4227-.86037 1.5064-3.0611 1.6273-3.922.21531zm5.8237-3.0698c-4.6947-4.8247-11.597-4.9804-16.445-.37103-1.0842 1.0308-1.551 1.3269-1.6961 1.0756-.11011-.19068-.10147-.25714.01919-.14768.12066.10946.43741.002.70388-.23944.54748-.49546.65869-1.0187.15376-.72346-.1819.10636-.10392-.0652.1733-.38126.52188-.595.84058-.77327.55431-.31006-.08994.14552-.05589.26458.07567.26458.33814 0 1.1472-.93794.9656-1.1195-.08278-.0828.06579-.13265.33015-.11082.26436.0218.4594-.0836.43341-.23435-.02599-.15072.15261-.29116.39688-.31209.77706-.0666 4.0728-1.3352 3.749-1.4431-.17088-.057.67552-.0654 1.8809-.0187 1.4995.0581 2.7813.29616 4.0591.75397 1.0272.368 2.0674.68638 2.3117.70751.24427.0211.42286.16173.39688.31245-.026.15072.15983.25771.41292.23776.2531-.0199.40324.0559.33365.16846-.17398.28149.5811.8747.87902.69058.29413-.18178 1.1751.73905.93587.97825-.22774.22774.43413 1.0082.71028.83759.11898-.0735.30247.006.40777.17608.11957.19347.0768.2389-.11401.121-.40219-.24857-.39339.17784.012.58327.17463.17463.26393.30723.19844.29467-.0655-.0126-.89297-.81817-1.8388-1.7902zm-25.104-1.9068c-6.5181-3.7751-6.0426-3.3091-4.9962-4.8953 4.0708-6.1713 11.943-10.761 19.544-11.395 2.0898-.17428 2.0898-.17428 2.0898 6.4243 0 6.5985 0 6.5985-.99219 6.656-2.02.11687-4.6866.96139-4.4163 1.3987.07937.12844-.05999.15511-.3097.0593-.33242-.12756-.39601-.0804-.23744.1762.14216.23003.11419.28715-.08141.16626-.39257-.24262-1.6808.60945-1.4604.96598.10392.16815.04183.19675-.15845.073-.42248-.26111-2.4614 1.6922-2.2746 2.1791.07417.19329.02754.28512-.10363.20405-.13117-.0811-.45723.1357-.72457.4817-.48608.6291-.48608.6291-5.8788-2.4941zm27.586 2.7056c.0176-.23552-.14658-.4365-.36486-.44663-.21828-.0101-.36096-.18027-.31706-.37811.10948-.49345-1.8338-2.4379-2.2694-2.2707-.1933.0742-.28194.0224-.19698-.11507.21496-.34782-1.0905-1.1568-1.4792-.91656-.21514.13297-.24746.0833-.10052-.15445.15857-.25657.095-.30376-.23745-.1762-.30596.11741-.39224.0743-.26458-.13229.12766-.20656.0414-.2497-.26458-.13229-.25974.0997-.38752.0666-.29862-.0772.19222-.31102-2.2443-1.0288-3.7659-1.1093-1.1245-.0595-1.1245-.0595-1.1245-6.6566 0-7.4963 1.8099-8.2047 10.683-4.1816 5.1955 2.3557 12.901 9.6881 11.366 10.816-2.8902 2.1253-11.413 6.5728-11.365 5.9306z" style="fill:#b9cbe5;stroke-width:.26458"/><path d="m97.347 158.93c-18.502-2.0509-29.746-22.173-21.833-39.07 9.058-19.339 35.737-21.547 47.845-3.9589 13.34 19.378-2.5309 45.632-26.012 43.029zm7.8334-.63652c17.609-3.0839 27.604-22.085 20.077-38.169-9.0191-19.273-35.524-21.35-47.305-3.7063-1.2633 1.892-1.612 2.5478-2.6826 5.0456-8.1618 19.041 9.2271 40.452 29.911 36.829zm-8.1675-.15835c-20.549-2.6716-30.368-27.262-17.322-43.379 15.806-19.526 47.414-8.3394 47.477 16.803.0407 16.149-14.151 28.657-30.155 26.576zm3.1089-6.9939c0-4.3215.0951-6.7469.26459-6.7469.16947 0 .26458 2.4254.26458 6.7469 0 7.702-.3674 7.168 4.3635 6.343 7.2414-1.2628 20.449-10.727 17.743-12.714-.21424-.15732-2.8304-1.6944-5.8136-3.4156-2.9832-1.7213-5.3598-3.2336-5.2813-3.3606.0785-.12706.52031.00053.98173.28349 2.3844 1.4623 10.564 6.1173 10.749 6.1173.11767 0 .64495-1.0033 1.1717-2.2295 2.9263-6.8117 2.9263-14.394 0-21.206-1.1642-2.7101-.3158-2.8274-6.8372.94552-3.0183 1.7462-5.602 3.175-5.7416 3.175-.62612 0 .36423-.6551 5.1312-3.3942 2.8036-1.6109 5.3158-3.0896 5.5829-3.286 1.5344-1.1283-6.1708-8.4606-11.366-10.816-8.9032-4.0369-10.674-3.3281-10.744 4.2994l-.0614 6.7149-.0755-6.7184c-.0755-6.7184-.0755-6.7184-2.1607-6.5445-7.5886.63286-15.47 5.2256-19.53 11.38-1.0667 1.6172-1.5429 1.1438 4.8263 4.798 2.993 1.7172 5.5037 3.2222 5.5793 3.3445.34475.55782-.74896.01-5.8908-2.9526-6.5077-3.7491-5.6526-3.5702-6.6366-1.3891-2.7713 6.1429-3.204 12.814-1.231 18.978.53282 1.6646 1.9832 4.9007 2.1959 4.8997.0876-.00053 2.7172-1.4785 5.8436-3.2846 3.1264-1.8061 5.7854-3.2214 5.909-3.145.26267.16234.18341.2119-6.037 3.7755-6.009 3.4425-5.626 3.0526-4.5686 4.6511 3.6461 5.5121 10.36 9.8646 17.096 11.084 4.5931.83122 4.2732 1.3053 4.2732-6.333zm-1.7874-7.305c-11.493-1.915-14.204-18.366-3.8869-23.591 13.189-6.6791 25.349 10.105 14.688 20.274-2.9611 2.8244-6.7584 3.9906-10.801 3.317zm5.0436-.63029c7.0707-1.8417 10.996-9.0574 8.6455-15.891-3.4517-10.033-17.642-10.909-22.342-1.3794-4.5828 9.2913 3.7911 19.85 13.697 17.27zm-5.5161-.23897c-14.457-3.5123-9.8796-26.043 4.6567-22.92 3.0746.66063 9.2198 4.8811 8.3596 5.7413-.0827.0827.0798.60161.36117 1.1531 4.1383 8.1117-4.3073 18.229-13.377 16.025zm7.432-1.3312c8.6049-4.2528 8.5201-16.092-.14494-20.237-5.9655-2.8535-13.38.42142-15.343 6.7768-2.8993 9.3868 6.7543 17.777 15.488 13.46zm-7.0299-1.6588c-.95975-1.5134-.96477-1.6689-.10132-3.1422 1.0719-1.8291 3.6793-1.8002 4.7147.0523 1.2283 2.1976.0661 4.3323-2.3586 4.3323-1.4593 0-1.4709-.006-2.2548-1.2424zm4.2006-.45921c.97003-1.8285.0746-3.3254-1.9892-3.3254-2.0296 0-2.9063 1.5402-1.9125 3.3596.95504 1.7483 2.9654 1.7307 3.9016-.0341zm2.1552-4.5062c0-2.5235 0-2.5235 2.5235-2.5235s2.5235 0 2.4474 2.4474c-.12221 3.9314-4.9709 4.0056-4.9709.0761zm4.4979-.01c0-1.9844 0-1.9844-1.9844-1.9844-1.9844 0-1.9844 0-1.9844 1.9844 0 1.9844 0 1.9844 1.9844 1.9844 1.9844 0 1.9844 0 1.9844-1.9844zm-17.198-1.0583c0-2.5135 0-2.5135 2.3812-2.5135s2.3812 0 2.3812 2.5135 0 2.5135-2.3812 2.5135-2.3812 0-2.3812-2.5135zm4.2333 0c0-1.9844 0-1.9844-1.8521-1.9844-1.8521 0-1.8521 0-1.8521 1.9844 0 1.9844 0 1.9844 1.8521 1.9844 1.8521 0 1.8521 0 1.8521-1.9844zm2.2389-.5405c.18854-1.509.18854-1.509-.93088-2.6496-1.1194-1.1406-1.1194-1.1406.4752-1.321 1.5946-.18042 1.5946-.18042 2.1999-1.4726.33288-.71073.6836-1.2922.77937-1.2922.0958 0 .4465.5815.77938 1.2922.60525 1.2922.60525 1.2922 2.1999 1.4726 1.5946.18041 1.5946.18041.4752 1.321-1.1194 1.1406-1.1194 1.1406-.93087 2.6496.18854 1.509.18854 1.509-1.1675.82188s-1.3561-.68717-2.7121 0c-1.3561.68717-1.3561.68717-1.1675-.82188zm3.5707.10554c1.0471.58852 1.0471.58852.8995-.67889-.13085-1.1234-.0695-1.3402.54038-1.9088.91764-.85554.87026-1.0313-.30419-1.1285-.83993-.0695-1.0734-.23427-1.5214-1.0736-.29104-.54531-.5887-.99148-.66146-.99148-.0728 0-.37041.44617-.66145.99148-.44796.83932-.68143 1.0041-1.5214 1.0736-1.1745.0972-1.2218.27299-.30419 1.1285.60985.56858.67123.78538.54037 1.9088-.14762 1.2674-.14762 1.2674.8995.67889 1.0471-.58852 1.0471-.58852 2.0943 0zm-6.868-5.1878c-2.6027-1.3002-2.0262-5.0618.84715-5.5281 3.4762-.56412 4.6237 4.2431 1.3442 5.6312-1.0715.45352-1.0777.45323-2.1913-.10308zm2.0852-.359c2.3313-.8127 1.8154-4.7338-.6228-4.7338-2.9131 0-3.6534 3.8392-.93326 4.8394.58879.21649.64269.21283 1.5561-.10557zm5.7261-.63277c-1.3175-2.1626-1.2825-1.8404-.3751-3.4482 1.2196-2.1611 3.5528-2.1291 4.7908.0657 1.5788 2.7991-2.7506 6.1156-4.4157 3.3826zm4.0452-.94292c.61175-1.0711.61175-1.0711-.0773-2.2469-1.2445-2.1236-4.3767-1.2338-4.3699 1.2415.006 2.2271 3.3214 2.9766 4.4472 1.0054z" style="fill:#0b0b0b;stroke-width:.26458"/></g><g transform="matrix(4.3654 0 0 4.3654 -37.601 73.51)"><path d="m95.849 157.47c-6.7367-1.2191-13.45-5.5716-17.096-11.084-1.0607-1.6035-1.5257-1.1533 5.1669-5.0022 5.3608-3.083 5.3608-3.083 7.1207-1.2174 1.0659 1.13 1.9048 1.81 2.1274 1.7246.20528-.0788.29474-.0233.20267.12565-.2253.36453 3.2002 1.935 3.85 1.7651.28678-.075.46161-.0396.38851.0787-.0731.11828.46252.29694 1.1903.39703 1.3232.18198 1.3232.18198 1.3232 6.904 0 7.6103.31904 7.1393-4.2732 6.3082zm4.7448-6.3992c-.0747-6.813-.0747-6.813 1.3954-6.8637 1.7046-.0588 4.5788-1.0354 4.313-1.4656-.10364-.16769-.0527-.20886.12368-.0999.3828.23658 1.4346-.31303 1.2306-.64306-.0844-.13655.003-.18812.19493-.1146.41716.16009 3.5138-2.8895 3.2945-3.2444-.49201-.79608 10.524 5.0382 11.793 6.2454 2.2205 2.1135-10.97 11.382-17.924 12.595-4.7141.82207-4.3358 1.3705-4.4211-6.4091zm-23.948-8.4554c-3.2857-7.2821-3.2874-14.829-.0052-22.104.98384-2.1808.13494-2.3566 6.5969 1.3662 3.0093 1.7337 5.6879 3.2081 5.9525 3.2766.45451.1176.4538.12617-.01279.15517-.35838.0223-.45589.17597-.3554.56023.07616.29124.03507.46562-.09132.38751-.44632-.27585-1.1393 2.8816-1.1344 5.1684.0048 2.2039.46219 4.6265.83054 4.3989.10235-.0633.20211.1415.22168.45503.01958.31353.11274.80817.20704 1.0992.15096.46594-8.6823 5.9917-11 6.8809-.29326.11253-.61395-.32323-1.2099-1.6441zm40.857-1.4815c-4.0528-2.3656-5.4696-3.3198-5.3701-3.6166.0744-.22178.39638-1.1176.71559-1.9907.86724-2.3721.80505-8.4515-.0809-7.904-.17701.10939-.21714.0592-.10185-.12731.21946-.35509-.0575-1.4242-.32598-1.2582-.0987.061-.17938-.16837-.17938-.50966 0-.54795 9.6333-6.5603 11.133-6.948.16688-.0432.7368.93034 1.2665 2.1633 2.9319 6.8247 2.9338 14.401.005 21.218-1.168 2.719-.47085 2.8203-7.0618-1.0267zm-18.94-1.5863c-.99389-1.8194-.11713-3.3596 1.9125-3.3596 2.0638 0 2.9592 1.4969 1.9892 3.3254-.93625 1.7648-2.9466 1.7824-3.9016.0341zm6.586-4.5502c0-1.9844 0-1.9844 1.9844-1.9844 1.9844 0 1.9844 0 1.9844 1.9844 0 1.9844 0 1.9844-1.9844 1.9844-1.9844 0-1.9844 0-1.9844-1.9844zm-13.397-1.0583c.000688-1.4552.04512-2.0168.09874-1.2479s.05305 1.9595-.0012 2.6458c-.05431.68635-.09818.0573-.09749-1.3979zm5.0258.13229c0-1.3824.04459-1.948.0991-1.2568.0545.69123.0545 1.8223 0 2.5135-.0545.69123-.0991.12568-.0991-1.2568zm-4.3287-.13229c0-1.9844 0-1.9844 1.8521-1.9844 1.8521 0 1.8521 0 1.8521 1.9844 0 1.9844 0 1.9844-1.8521 1.9844-1.8521 0-1.8521 0-1.8521-1.9844zm6.52-1.1138c.13086-1.1234.06948-1.3402-.54037-1.9088-.91764-.85554-.87026-1.0313.30419-1.1285.83992-.0695 1.0734-.23427 1.5214-1.0736.29104-.54531.58869-.99148.66145-.99148.0728 0 .37042.44617.66146.99148.44796.83932.68143 1.0041 1.5214 1.0736 1.1744.0972 1.2218.27299.30419 1.1285-.60985.56858-.67123.78538-.54038 1.9088.14763 1.2674.14763 1.2674-.8995.67889s-1.0471-.58852-2.0943 0c-1.0471.58852-1.0471.58852-.8995-.67889zm-3.345-4.7624c-2.7202-1.0002-1.9798-4.8394.93326-4.8394 2.4382 0 2.9541 3.9211.6228 4.7338-.91337.3184-.96726.32206-1.5561.10557zm7.4054-1.466c-1.0574-1.7343-.0671-3.638 1.8926-3.638 1.9113 0 2.9672 1.7807 2.0294 3.4227-.86037 1.5064-3.0611 1.6273-3.922.21531zm5.8237-3.0698c-4.6947-4.8247-11.597-4.9804-16.445-.37103-1.0842 1.0308-1.551 1.3269-1.6961 1.0756-.11011-.19068-.10147-.25714.01919-.14768.12066.10946.43741.002.70388-.23944.54748-.49546.65869-1.0187.15376-.72346-.1819.10636-.10392-.0652.1733-.38126.52188-.595.84058-.77327.55431-.31006-.08994.14552-.05589.26458.07567.26458.33814 0 1.1472-.93794.9656-1.1195-.08278-.0828.06579-.13265.33015-.11082.26436.0218.4594-.0836.43341-.23435-.02599-.15072.15261-.29116.39688-.31209.77706-.0666 4.0728-1.3352 3.749-1.4431-.17088-.057.67552-.0654 1.8809-.0187 1.4995.0581 2.7813.29616 4.0591.75397 1.0272.368 2.0674.68638 2.3117.70751.24427.0211.42286.16173.39688.31245-.026.15072.15983.25771.41292.23776.2531-.0199.40324.0559.33365.16846-.17398.28149.5811.8747.87902.69058.29413-.18178 1.1751.73905.93587.97825-.22774.22774.43413 1.0082.71028.83759.11898-.0735.30247.006.40777.17608.11957.19347.0768.2389-.11401.121-.40219-.24857-.39339.17784.012.58327.17463.17463.26393.30723.19844.29467-.0655-.0126-.89297-.81817-1.8388-1.7902zm-25.104-1.9068c-6.5181-3.7751-6.0426-3.3091-4.9962-4.8953 4.0708-6.1713 11.943-10.761 19.544-11.395 2.0898-.17428 2.0898-.17428 2.0898 6.4243 0 6.5985 0 6.5985-.99219 6.656-2.02.11687-4.6866.96139-4.4163 1.3987.07937.12844-.05999.15511-.3097.0593-.33242-.12756-.39601-.0804-.23744.1762.14216.23003.11419.28715-.08141.16626-.39257-.24262-1.6808.60945-1.4604.96598.10392.16815.04183.19675-.15845.073-.42248-.26111-2.4614 1.6922-2.2746 2.1791.07417.19329.02754.28512-.10363.20405-.13117-.0811-.45723.1357-.72457.4817-.48608.6291-.48608.6291-5.8788-2.4941zm27.586 2.7056c.0176-.23552-.14658-.4365-.36486-.44663-.21828-.0101-.36096-.18027-.31706-.37811.10948-.49345-1.8338-2.4379-2.2694-2.2707-.1933.0742-.28194.0224-.19698-.11507.21496-.34782-1.0905-1.1568-1.4792-.91656-.21514.13297-.24746.0833-.10052-.15445.15857-.25657.095-.30376-.23745-.1762-.30596.11741-.39224.0743-.26458-.13229.12766-.20656.0414-.2497-.26458-.13229-.25974.0997-.38752.0666-.29862-.0772.19222-.31102-2.2443-1.0288-3.7659-1.1093-1.1245-.0595-1.1245-.0595-1.1245-6.6566 0-7.4963 1.8099-8.2047 10.683-4.1816 5.1955 2.3557 12.901 9.6881 11.366 10.816-2.8902 2.1253-11.413 6.5728-11.365 5.9306z" style="fill:#b9cbe5;stroke-width:.26458"/><path d="m97.347 158.93c-18.502-2.0509-29.746-22.173-21.833-39.07 9.058-19.339 35.737-21.547 47.845-3.9589 13.34 19.378-2.5309 45.632-26.012 43.029zm7.8334-.63652c17.609-3.0839 27.604-22.085 20.077-38.169-9.0191-19.273-35.524-21.35-47.305-3.7063-1.2633 1.892-1.612 2.5478-2.6826 5.0456-8.1618 19.041 9.2271 40.452 29.911 36.829zm-8.1675-.15835c-20.549-2.6716-30.368-27.262-17.322-43.379 15.806-19.526 47.414-8.3394 47.477 16.803.0407 16.149-14.151 28.657-30.155 26.576zm3.1089-6.9939c0-4.3215.0951-6.7469.26459-6.7469.16947 0 .26458 2.4254.26458 6.7469 0 7.702-.3674 7.168 4.3635 6.343 7.2414-1.2628 20.449-10.727 17.743-12.714-.21424-.15732-2.8304-1.6944-5.8136-3.4156-2.9832-1.7213-5.3598-3.2336-5.2813-3.3606.0785-.12706.52031.00053.98173.28349 2.3844 1.4623 10.564 6.1173 10.749 6.1173.11767 0 .64495-1.0033 1.1717-2.2295 2.9263-6.8117 2.9263-14.394 0-21.206-1.1642-2.7101-.3158-2.8274-6.8372.94552-3.0183 1.7462-5.602 3.175-5.7416 3.175-.62612 0 .36423-.6551 5.1312-3.3942 2.8036-1.6109 5.3158-3.0896 5.5829-3.286 1.5344-1.1283-6.1708-8.4606-11.366-10.816-8.9032-4.0369-10.674-3.3281-10.744 4.2994l-.0614 6.7149-.0755-6.7184c-.0755-6.7184-.0755-6.7184-2.1607-6.5445-7.5886.63286-15.47 5.2256-19.53 11.38-1.0667 1.6172-1.5429 1.1438 4.8263 4.798 2.993 1.7172 5.5037 3.2222 5.5793 3.3445.34475.55782-.74896.01-5.8908-2.9526-6.5077-3.7491-5.6526-3.5702-6.6366-1.3891-2.7713 6.1429-3.204 12.814-1.231 18.978.53282 1.6646 1.9832 4.9007 2.1959 4.8997.0876-.00053 2.7172-1.4785 5.8436-3.2846 3.1264-1.8061 5.7854-3.2214 5.909-3.145.26267.16234.18341.2119-6.037 3.7755-6.009 3.4425-5.626 3.0526-4.5686 4.6511 3.6461 5.5121 10.36 9.8646 17.096 11.084 4.5931.83122 4.2732 1.3053 4.2732-6.333zm-1.7874-7.305c-11.493-1.915-14.204-18.366-3.8869-23.591 13.189-6.6791 25.349 10.105 14.688 20.274-2.9611 2.8244-6.7584 3.9906-10.801 3.317zm5.0436-.63029c7.0707-1.8417 10.996-9.0574 8.6455-15.891-3.4517-10.033-17.642-10.909-22.342-1.3794-4.5828 9.2913 3.7911 19.85 13.697 17.27zm-5.5161-.23897c-14.457-3.5123-9.8796-26.043 4.6567-22.92 3.0746.66063 9.2198 4.8811 8.3596 5.7413-.0827.0827.0798.60161.36117 1.1531 4.1383 8.1117-4.3073 18.229-13.377 16.025zm7.432-1.3312c8.6049-4.2528 8.5201-16.092-.14494-20.237-5.9655-2.8535-13.38.42142-15.343 6.7768-2.8993 9.3868 6.7543 17.777 15.488 13.46zm-7.0299-1.6588c-.95975-1.5134-.96477-1.6689-.10132-3.1422 1.0719-1.8291 3.6793-1.8002 4.7147.0523 1.2283 2.1976.0661 4.3323-2.3586 4.3323-1.4593 0-1.4709-.006-2.2548-1.2424zm4.2006-.45921c.97003-1.8285.0746-3.3254-1.9892-3.3254-2.0296 0-2.9063 1.5402-1.9125 3.3596.95504 1.7483 2.9654 1.7307 3.9016-.0341zm2.1552-4.5062c0-2.5235 0-2.5235 2.5235-2.5235s2.5235 0 2.4474 2.4474c-.12221 3.9314-4.9709 4.0056-4.9709.0761zm4.4979-.01c0-1.9844 0-1.9844-1.9844-1.9844-1.9844 0-1.9844 0-1.9844 1.9844 0 1.9844 0 1.9844 1.9844 1.9844 1.9844 0 1.9844 0 1.9844-1.9844zm-17.198-1.0583c0-2.5135 0-2.5135 2.3812-2.5135s2.3812 0 2.3812 2.5135 0 2.5135-2.3812 2.5135-2.3812 0-2.3812-2.5135zm4.2333 0c0-1.9844 0-1.9844-1.8521-1.9844-1.8521 0-1.8521 0-1.8521 1.9844 0 1.9844 0 1.9844 1.8521 1.9844 1.8521 0 1.8521 0 1.8521-1.9844zm2.2389-.5405c.18854-1.509.18854-1.509-.93088-2.6496-1.1194-1.1406-1.1194-1.1406.4752-1.321 1.5946-.18042 1.5946-.18042 2.1999-1.4726.33288-.71073.6836-1.2922.77937-1.2922.0958 0 .4465.5815.77938 1.2922.60525 1.2922.60525 1.2922 2.1999 1.4726 1.5946.18041 1.5946.18041.4752 1.321-1.1194 1.1406-1.1194 1.1406-.93087 2.6496.18854 1.509.18854 1.509-1.1675.82188s-1.3561-.68717-2.7121 0c-1.3561.68717-1.3561.68717-1.1675-.82188zm3.5707.10554c1.0471.58852 1.0471.58852.8995-.67889-.13085-1.1234-.0695-1.3402.54038-1.9088.91764-.85554.87026-1.0313-.30419-1.1285-.83993-.0695-1.0734-.23427-1.5214-1.0736-.29104-.54531-.5887-.99148-.66146-.99148-.0728 0-.37041.44617-.66145.99148-.44796.83932-.68143 1.0041-1.5214 1.0736-1.1745.0972-1.2218.27299-.30419 1.1285.60985.56858.67123.78538.54037 1.9088-.14762 1.2674-.14762 1.2674.8995.67889 1.0471-.58852 1.0471-.58852 2.0943 0zm-6.868-5.1878c-2.6027-1.3002-2.0262-5.0618.84715-5.5281 3.4762-.56412 4.6237 4.2431 1.3442 5.6312-1.0715.45352-1.0777.45323-2.1913-.10308zm2.0852-.359c2.3313-.8127 1.8154-4.7338-.6228-4.7338-2.9131 0-3.6534 3.8392-.93326 4.8394.58879.21649.64269.21283 1.5561-.10557zm5.7261-.63277c-1.3175-2.1626-1.2825-1.8404-.3751-3.4482 1.2196-2.1611 3.5528-2.1291 4.7908.0657 1.5788 2.7991-2.7506 6.1156-4.4157 3.3826zm4.0452-.94292c.61175-1.0711.61175-1.0711-.0773-2.2469-1.2445-2.1236-4.3767-1.2338-4.3699 1.2415.006 2.2271 3.3214 2.9766 4.4472 1.0054z" style="fill:#0b0b0b;stroke-width:.26458"/></g><g transform="matrix(4.3654 0 0 4.3654 240.2 73.385)"><path d="m95.849 157.47c-6.7367-1.2191-13.45-5.5716-17.096-11.084-1.0607-1.6035-1.5257-1.1533 5.1669-5.0022 5.3608-3.083 5.3608-3.083 7.1207-1.2174 1.0659 1.13 1.9048 1.81 2.1274 1.7246.20528-.0788.29474-.0233.20267.12565-.2253.36453 3.2002 1.935 3.85 1.7651.28678-.075.46161-.0396.38851.0787-.0731.11828.46252.29694 1.1903.39703 1.3232.18198 1.3232.18198 1.3232 6.904 0 7.6103.31904 7.1393-4.2732 6.3082zm4.7448-6.3992c-.0747-6.813-.0747-6.813 1.3954-6.8637 1.7046-.0588 4.5788-1.0354 4.313-1.4656-.10364-.16769-.0527-.20886.12368-.0999.3828.23658 1.4346-.31303 1.2306-.64306-.0844-.13655.003-.18812.19493-.1146.41716.16009 3.5138-2.8895 3.2945-3.2444-.49201-.79608 10.524 5.0382 11.793 6.2454 2.2205 2.1135-10.97 11.382-17.924 12.595-4.7141.82207-4.3358 1.3705-4.4211-6.4091zm-23.948-8.4554c-3.2857-7.2821-3.2874-14.829-.0052-22.104.98384-2.1808.13494-2.3566 6.5969 1.3662 3.0093 1.7337 5.6879 3.2081 5.9525 3.2766.45451.1176.4538.12617-.01279.15517-.35838.0223-.45589.17597-.3554.56023.07616.29124.03507.46562-.09132.38751-.44632-.27585-1.1393 2.8816-1.1344 5.1684.0048 2.2039.46219 4.6265.83054 4.3989.10235-.0633.20211.1415.22168.45503.01958.31353.11274.80817.20704 1.0992.15096.46594-8.6823 5.9917-11 6.8809-.29326.11253-.61395-.32323-1.2099-1.6441zm40.857-1.4815c-4.0528-2.3656-5.4696-3.3198-5.3701-3.6166.0744-.22178.39638-1.1176.71559-1.9907.86724-2.3721.80505-8.4515-.0809-7.904-.17701.10939-.21714.0592-.10185-.12731.21946-.35509-.0575-1.4242-.32598-1.2582-.0987.061-.17938-.16837-.17938-.50966 0-.54795 9.6333-6.5603 11.133-6.948.16688-.0432.7368.93034 1.2665 2.1633 2.9319 6.8247 2.9338 14.401.005 21.218-1.168 2.719-.47085 2.8203-7.0618-1.0267zm-18.94-1.5863c-.99389-1.8194-.11713-3.3596 1.9125-3.3596 2.0638 0 2.9592 1.4969 1.9892 3.3254-.93625 1.7648-2.9466 1.7824-3.9016.0341zm6.586-4.5502c0-1.9844 0-1.9844 1.9844-1.9844 1.9844 0 1.9844 0 1.9844 1.9844 0 1.9844 0 1.9844-1.9844 1.9844-1.9844 0-1.9844 0-1.9844-1.9844zm-13.397-1.0583c.000688-1.4552.04512-2.0168.09874-1.2479s.05305 1.9595-.0012 2.6458c-.05431.68635-.09818.0573-.09749-1.3979zm5.0258.13229c0-1.3824.04459-1.948.0991-1.2568.0545.69123.0545 1.8223 0 2.5135-.0545.69123-.0991.12568-.0991-1.2568zm-4.3287-.13229c0-1.9844 0-1.9844 1.8521-1.9844 1.8521 0 1.8521 0 1.8521 1.9844 0 1.9844 0 1.9844-1.8521 1.9844-1.8521 0-1.8521 0-1.8521-1.9844zm6.52-1.1138c.13086-1.1234.06948-1.3402-.54037-1.9088-.91764-.85554-.87026-1.0313.30419-1.1285.83992-.0695 1.0734-.23427 1.5214-1.0736.29104-.54531.58869-.99148.66145-.99148.0728 0 .37042.44617.66146.99148.44796.83932.68143 1.0041 1.5214 1.0736 1.1744.0972 1.2218.27299.30419 1.1285-.60985.56858-.67123.78538-.54038 1.9088.14763 1.2674.14763 1.2674-.8995.67889s-1.0471-.58852-2.0943 0c-1.0471.58852-1.0471.58852-.8995-.67889zm-3.345-4.7624c-2.7202-1.0002-1.9798-4.8394.93326-4.8394 2.4382 0 2.9541 3.9211.6228 4.7338-.91337.3184-.96726.32206-1.5561.10557zm7.4054-1.466c-1.0574-1.7343-.0671-3.638 1.8926-3.638 1.9113 0 2.9672 1.7807 2.0294 3.4227-.86037 1.5064-3.0611 1.6273-3.922.21531zm5.8237-3.0698c-4.6947-4.8247-11.597-4.9804-16.445-.37103-1.0842 1.0308-1.551 1.3269-1.6961 1.0756-.11011-.19068-.10147-.25714.01919-.14768.12066.10946.43741.002.70388-.23944.54748-.49546.65869-1.0187.15376-.72346-.1819.10636-.10392-.0652.1733-.38126.52188-.595.84058-.77327.55431-.31006-.08994.14552-.05589.26458.07567.26458.33814 0 1.1472-.93794.9656-1.1195-.08278-.0828.06579-.13265.33015-.11082.26436.0218.4594-.0836.43341-.23435-.02599-.15072.15261-.29116.39688-.31209.77706-.0666 4.0728-1.3352 3.749-1.4431-.17088-.057.67552-.0654 1.8809-.0187 1.4995.0581 2.7813.29616 4.0591.75397 1.0272.368 2.0674.68638 2.3117.70751.24427.0211.42286.16173.39688.31245-.026.15072.15983.25771.41292.23776.2531-.0199.40324.0559.33365.16846-.17398.28149.5811.8747.87902.69058.29413-.18178 1.1751.73905.93587.97825-.22774.22774.43413 1.0082.71028.83759.11898-.0735.30247.006.40777.17608.11957.19347.0768.2389-.11401.121-.40219-.24857-.39339.17784.012.58327.17463.17463.26393.30723.19844.29467-.0655-.0126-.89297-.81817-1.8388-1.7902zm-25.104-1.9068c-6.5181-3.7751-6.0426-3.3091-4.9962-4.8953 4.0708-6.1713 11.943-10.761 19.544-11.395 2.0898-.17428 2.0898-.17428 2.0898 6.4243 0 6.5985 0 6.5985-.99219 6.656-2.02.11687-4.6866.96139-4.4163 1.3987.07937.12844-.05999.15511-.3097.0593-.33242-.12756-.39601-.0804-.23744.1762.14216.23003.11419.28715-.08141.16626-.39257-.24262-1.6808.60945-1.4604.96598.10392.16815.04183.19675-.15845.073-.42248-.26111-2.4614 1.6922-2.2746 2.1791.07417.19329.02754.28512-.10363.20405-.13117-.0811-.45723.1357-.72457.4817-.48608.6291-.48608.6291-5.8788-2.4941zm27.586 2.7056c.0176-.23552-.14658-.4365-.36486-.44663-.21828-.0101-.36096-.18027-.31706-.37811.10948-.49345-1.8338-2.4379-2.2694-2.2707-.1933.0742-.28194.0224-.19698-.11507.21496-.34782-1.0905-1.1568-1.4792-.91656-.21514.13297-.24746.0833-.10052-.15445.15857-.25657.095-.30376-.23745-.1762-.30596.11741-.39224.0743-.26458-.13229.12766-.20656.0414-.2497-.26458-.13229-.25974.0997-.38752.0666-.29862-.0772.19222-.31102-2.2443-1.0288-3.7659-1.1093-1.1245-.0595-1.1245-.0595-1.1245-6.6566 0-7.4963 1.8099-8.2047 10.683-4.1816 5.1955 2.3557 12.901 9.6881 11.366 10.816-2.8902 2.1253-11.413 6.5728-11.365 5.9306z" style="fill:#b9cbe5;stroke-width:.26458"/><path d="m97.347 158.93c-18.502-2.0509-29.746-22.173-21.833-39.07 9.058-19.339 35.737-21.547 47.845-3.9589 13.34 19.378-2.5309 45.632-26.012 43.029zm7.8334-.63652c17.609-3.0839 27.604-22.085 20.077-38.169-9.0191-19.273-35.524-21.35-47.305-3.7063-1.2633 1.892-1.612 2.5478-2.6826 5.0456-8.1618 19.041 9.2271 40.452 29.911 36.829zm-8.1675-.15835c-20.549-2.6716-30.368-27.262-17.322-43.379 15.806-19.526 47.414-8.3394 47.477 16.803.0407 16.149-14.151 28.657-30.155 26.576zm3.1089-6.9939c0-4.3215.0951-6.7469.26459-6.7469.16947 0 .26458 2.4254.26458 6.7469 0 7.702-.3674 7.168 4.3635 6.343 7.2414-1.2628 20.449-10.727 17.743-12.714-.21424-.15732-2.8304-1.6944-5.8136-3.4156-2.9832-1.7213-5.3598-3.2336-5.2813-3.3606.0785-.12706.52031.00053.98173.28349 2.3844 1.4623 10.564 6.1173 10.749 6.1173.11767 0 .64495-1.0033 1.1717-2.2295 2.9263-6.8117 2.9263-14.394 0-21.206-1.1642-2.7101-.3158-2.8274-6.8372.94552-3.0183 1.7462-5.602 3.175-5.7416 3.175-.62612 0 .36423-.6551 5.1312-3.3942 2.8036-1.6109 5.3158-3.0896 5.5829-3.286 1.5344-1.1283-6.1708-8.4606-11.366-10.816-8.9032-4.0369-10.674-3.3281-10.744 4.2994l-.0614 6.7149-.0755-6.7184c-.0755-6.7184-.0755-6.7184-2.1607-6.5445-7.5886.63286-15.47 5.2256-19.53 11.38-1.0667 1.6172-1.5429 1.1438 4.8263 4.798 2.993 1.7172 5.5037 3.2222 5.5793 3.3445.34475.55782-.74896.01-5.8908-2.9526-6.5077-3.7491-5.6526-3.5702-6.6366-1.3891-2.7713 6.1429-3.204 12.814-1.231 18.978.53282 1.6646 1.9832 4.9007 2.1959 4.8997.0876-.00053 2.7172-1.4785 5.8436-3.2846 3.1264-1.8061 5.7854-3.2214 5.909-3.145.26267.16234.18341.2119-6.037 3.7755-6.009 3.4425-5.626 3.0526-4.5686 4.6511 3.6461 5.5121 10.36 9.8646 17.096 11.084 4.5931.83122 4.2732 1.3053 4.2732-6.333zm-1.7874-7.305c-11.493-1.915-14.204-18.366-3.8869-23.591 13.189-6.6791 25.349 10.105 14.688 20.274-2.9611 2.8244-6.7584 3.9906-10.801 3.317zm5.0436-.63029c7.0707-1.8417 10.996-9.0574 8.6455-15.891-3.4517-10.033-17.642-10.909-22.342-1.3794-4.5828 9.2913 3.7911 19.85 13.697 17.27zm-5.5161-.23897c-14.457-3.5123-9.8796-26.043 4.6567-22.92 3.0746.66063 9.2198 4.8811 8.3596 5.7413-.0827.0827.0798.60161.36117 1.1531 4.1383 8.1117-4.3073 18.229-13.377 16.025zm7.432-1.3312c8.6049-4.2528 8.5201-16.092-.14494-20.237-5.9655-2.8535-13.38.42142-15.343 6.7768-2.8993 9.3868 6.7543 17.777 15.488 13.46zm-7.0299-1.6588c-.95975-1.5134-.96477-1.6689-.10132-3.1422 1.0719-1.8291 3.6793-1.8002 4.7147.0523 1.2283 2.1976.0661 4.3323-2.3586 4.3323-1.4593 0-1.4709-.006-2.2548-1.2424zm4.2006-.45921c.97003-1.8285.0746-3.3254-1.9892-3.3254-2.0296 0-2.9063 1.5402-1.9125 3.3596.95504 1.7483 2.9654 1.7307 3.9016-.0341zm2.1552-4.5062c0-2.5235 0-2.5235 2.5235-2.5235s2.5235 0 2.4474 2.4474c-.12221 3.9314-4.9709 4.0056-4.9709.0761zm4.4979-.01c0-1.9844 0-1.9844-1.9844-1.9844-1.9844 0-1.9844 0-1.9844 1.9844 0 1.9844 0 1.9844 1.9844 1.9844 1.9844 0 1.9844 0 1.9844-1.9844zm-17.198-1.0583c0-2.5135 0-2.5135 2.3812-2.5135s2.3812 0 2.3812 2.5135 0 2.5135-2.3812 2.5135-2.3812 0-2.3812-2.5135zm4.2333 0c0-1.9844 0-1.9844-1.8521-1.9844-1.8521 0-1.8521 0-1.8521 1.9844 0 1.9844 0 1.9844 1.8521 1.9844 1.8521 0 1.8521 0 1.8521-1.9844zm2.2389-.5405c.18854-1.509.18854-1.509-.93088-2.6496-1.1194-1.1406-1.1194-1.1406.4752-1.321 1.5946-.18042 1.5946-.18042 2.1999-1.4726.33288-.71073.6836-1.2922.77937-1.2922.0958 0 .4465.5815.77938 1.2922.60525 1.2922.60525 1.2922 2.1999 1.4726 1.5946.18041 1.5946.18041.4752 1.321-1.1194 1.1406-1.1194 1.1406-.93087 2.6496.18854 1.509.18854 1.509-1.1675.82188s-1.3561-.68717-2.7121 0c-1.3561.68717-1.3561.68717-1.1675-.82188zm3.5707.10554c1.0471.58852 1.0471.58852.8995-.67889-.13085-1.1234-.0695-1.3402.54038-1.9088.91764-.85554.87026-1.0313-.30419-1.1285-.83993-.0695-1.0734-.23427-1.5214-1.0736-.29104-.54531-.5887-.99148-.66146-.99148-.0728 0-.37041.44617-.66145.99148-.44796.83932-.68143 1.0041-1.5214 1.0736-1.1745.0972-1.2218.27299-.30419 1.1285.60985.56858.67123.78538.54037 1.9088-.14762 1.2674-.14762 1.2674.8995.67889 1.0471-.58852 1.0471-.58852 2.0943 0zm-6.868-5.1878c-2.6027-1.3002-2.0262-5.0618.84715-5.5281 3.4762-.56412 4.6237 4.2431 1.3442 5.6312-1.0715.45352-1.0777.45323-2.1913-.10308zm2.0852-.359c2.3313-.8127 1.8154-4.7338-.6228-4.7338-2.9131 0-3.6534 3.8392-.93326 4.8394.58879.21649.64269.21283 1.5561-.10557zm5.7261-.63277c-1.3175-2.1626-1.2825-1.8404-.3751-3.4482 1.2196-2.1611 3.5528-2.1291 4.7908.0657 1.5788 2.7991-2.7506 6.1156-4.4157 3.3826zm4.0452-.94292c.61175-1.0711.61175-1.0711-.0773-2.2469-1.2445-2.1236-4.3767-1.2338-4.3699 1.2415.006 2.2271 3.3214 2.9766 4.4472 1.0054z" style="fill:#0b0b0b;stroke-width:.26458"/></g></svg>
