<?xml version="1.0" encoding="UTF-8"?>
<svg width="321" height="281" version="1.0" xmlns="http://www.w3.org/2000/svg" xmlns:xlink="http://www.w3.org/1999/xlink">
 <defs>
  <linearGradient id="linearGradient3288">
   <stop stop-color="#ff1414" offset="0"/>
   <stop stop-color="#cf0000" offset=".743"/>
   <stop stop-color="#f00" offset="1"/>
  </linearGradient>
  <linearGradient id="linearGradient3380" x1="264" x2="320" y1="159" y2="159" gradientTransform="translate(42.8 -35.2)" gradientUnits="userSpaceOnUse" xlink:href="#linearGradient3288"/>
  <linearGradient id="linearGradient3388" x1="264" x2="320" y1="159" y2="159" gradientTransform="translate(-25.2 -60.6)" gradientUnits="userSpaceOnUse" xlink:href="#linearGradient3288"/>
  <linearGradient id="linearGradient3452" x1="264" x2="320" y1="159" y2="159" gradientTransform="translate(-39.5,55)" gradientUnits="userSpaceOnUse" xlink:href="#linearGradient3288"/>
  <linearGradient id="linearGradient1143" x1="264" x2="320" y1="159" y2="159" gradientTransform="translate(-46.9 44.5)" gradientUnits="userSpaceOnUse" xlink:href="#linearGradient3288"/>
  <linearGradient id="linearGradient1145" x1="264" x2="320" y1="159" y2="159" gradientTransform="translate(-115 19.2)" gradientUnits="userSpaceOnUse" xlink:href="#linearGradient3288"/>
 </defs>
 <g transform="translate(-69.3 -64.4)" stroke="#d70000" stroke-linecap="round" stroke-linejoin="round">
  <path d="m70 225 180-160 140 50.1-180 160z" fill="#d60000" fill-rule="evenodd" stroke-width="1px"/>
  <path d="m210 345v-70l180-160v70z" fill="#ad0000" fill-rule="evenodd" stroke-width="1px"/>
  <g>
   <path d="m362 107-54.5 0.5v17c-3e-3 0.0843 0 0.165 0 0.25 0 8.14 12.2 14.8 27.2 14.8s27.2-6.61 27.2-14.8c0-0.0847 3e-3 -0.166 0-0.25z" fill="url(#linearGradient3380)"/>
   <ellipse cx="335" cy="108" rx="27.2" ry="14.8" fill="#e00"/>
   <path d="m294 81.9-54.5 0.5v17c-3e-3 0.0843 0 0.165 0 0.25 0 8.14 12.2 14.8 27.2 14.8s27.2-6.61 27.2-14.8c0-0.0847 3e-3 -0.166 0-0.25z" fill="url(#linearGradient3388)"/>
   <ellipse cx="267" cy="82.4" rx="27.2" ry="14.8" fill="#e00"/>
  </g>
  <g transform="translate(35.5 -51)">
   <path d="m280 198-54.5 0.5v17c-3e-3 0.0843 0 0.165 0 0.25 0 8.14 12.2 14.8 27.2 14.8s27.2-6.61 27.2-14.8c0-0.0847 3e-3 -0.166 0-0.25z" fill="url(#linearGradient3452)"/>
   <ellipse transform="matrix(1.09 0 0 1.48 155 72.6)" cx="90" cy="85" rx="25" ry="10" fill="#e00" stroke-width=".789"/>
  </g>
  <g transform="translate(-32.5 -76.3)">
   <path d="m280 198-54.5 0.5v17c-3e-3 0.0843 0 0.165 0 0.25 0 8.14 12.2 14.8 27.2 14.8s27.2-6.61 27.2-14.8c0-0.0847 3e-3 -0.166 0-0.25z" fill="url(#linearGradient3452)"/>
   <ellipse transform="matrix(1.09 0 0 1.48 155 72.6)" cx="90" cy="85" rx="25" ry="10" fill="#e00" stroke-width=".789"/>
  </g>
  <path d="m70 225v70l-0.177-0.451 141 50.2v-70z" fill="#f00" fill-rule="evenodd" stroke-width="1px"/>
  <g>
   <path d="m273 187-54.5 0.5v17c-3e-3 0.0843 0 0.165 0 0.25 0 8.14 12.2 14.8 27.2 14.8s27.2-6.61 27.2-14.8c0-0.0847 3e-3 -0.166 0-0.25z" fill="url(#linearGradient1143)"/>
   <ellipse cx="245" cy="187" rx="27.2" ry="14.8" fill="#e00"/>
   <path d="m205 162-54.5 0.5v17c-3e-3 0.0843 0 0.165 0 0.25 0 8.14 12.2 14.8 27.2 14.8 15 0 27.2-6.61 27.2-14.8 0-0.0847 3e-3 -0.166 0-0.25z" fill="url(#linearGradient1145)"/>
   <ellipse cx="177" cy="162" rx="27.2" ry="14.8" fill="#e00"/>
  </g>
  <g transform="translate(-54.2 28.7)">
   <path d="m280 198-54.5 0.5v17c-3e-3 0.0843 0 0.165 0 0.25 0 8.14 12.2 14.8 27.2 14.8s27.2-6.61 27.2-14.8c0-0.0847 3e-3 -0.166 0-0.25z" fill="url(#linearGradient3452)"/>
   <ellipse transform="matrix(1.09 0 0 1.48 155 72.6)" cx="90" cy="85" rx="25" ry="10" fill="#e00" stroke-width=".789"/>
  </g>
  <g transform="translate(-122 3.4)">
   <path d="m280 198-54.5 0.5v17c-3e-3 0.0843 0 0.165 0 0.25 0 8.14 12.2 14.8 27.2 14.8s27.2-6.61 27.2-14.8c0-0.0847 3e-3 -0.166 0-0.25z" fill="url(#linearGradient3452)"/>
   <ellipse transform="matrix(1.09 0 0 1.48 155 72.6)" cx="90" cy="85" rx="25" ry="10" fill="#e00" stroke-width=".789"/>
  </g>
 </g>
</svg>
