<?xml version="1.0" encoding="UTF-8"?>
<svg width="978mm" height="1077mm" version="1.1" viewBox="0 0 978 1077" xml:space="preserve" xmlns="http://www.w3.org/2000/svg"><defs><linearGradient id="IconifyId17ecdb2904d178eab7809" x1="47.5" x2="51" y1="11.5" y2="45.1" gradientTransform="matrix(1.65 0 0 1.65 -230 114)" gradientUnits="userSpaceOnUse"><stop stop-color="#01ab46" offset=".171"/><stop stop-color="#089e42" offset=".345"/><stop stop-color="#1a7a37" offset=".671"/><stop stop-color="#2f502a" offset="1"/></linearGradient></defs><g transform="translate(468 594)"><ellipse cx="138" cy="101" rx="365" ry="375" fill="#d5ffe6"/><path d="m-211-589c-70.5 0.364-99.1 37.1-99.6 82.9-0.298 25.6 16.2 47.7 41.5 61.2 12.3 8.71-2.35 37.3-14.1 44.6 0 0 41.5-2.83 52.9-32.1 6.32 0.926 12.8 1.41 19.5 1.41 55 0 99.5-29.2 99.5-75 0-45.8-28.4-83.3-99.6-82.9z" fill="#fff" stroke="#000" stroke-linejoin="round" stroke-miterlimit="10" stroke-width="9.92"/><g transform="matrix(1.65 0 0 1.65 -12.6 -236)"><path d="m28.9 63.2s-2.39 6.9-0.99 14.2c1.41 7.32 3.38 14.1 3.38 14.1s0.42 14.4 0 15.9-3.66 3.52-3.66 6.34 1.03 6.38 6.24 7.23 9.43-0.89 11.2-3c2.51-3.05 2.02-5.21 2.02-7.46s0.14-15.2 0.7-17.2c0.56-1.97 1.41-3.1 2.96-2.96s3.24 2.53 3.38 7.04c0.14 4.5 0.28 12.4 0.14 13.9s-1.55 6.76-0.42 8.87 6.24 4.16 10.2 3.94c5.16-0.28 8.26-3.52 8.54-6.05s-1.41-8.31-1.41-10 1.97-13.2 2.53-13.9c0.56-0.7 2.28-0.55 6.05-2.25 3.43-1.55 5.26-3.1 5.26-3.1s0.09 10-0.05 11.1c-0.14 1.13-3.52 4.65-2.96 7.32s3.86 4.23 6.8 4.5c4.97 0.47 9.81-3.38 11.1-6.76 1.27-3.38 0.7-7.6 0.42-9.85s-0.28-10.1 0-12.2 0.74-3.39 0.92-4.5c0.28-1.83 0.21-3.87 0.21-3.87s4.86 0 7.74-1.9 5.91-5.21 7.25-9.29c1.31-3.99 0.99-5.21-0.14-5.35s-6.19 6.96-10.5 7.18c-6.83 0.35-6.15-6.97-11.4-11.4-5.87-5-15-5.63-15-5.63s1.58-5.91 1.6-10.3c0.07-19.1-9.22-25.6-9.22-25.6s-11.2-8.32-23.8-7.76-22 10.6-22 10.6l-6.97 30.8s1.76 5.91 4.58 10.2c2.96 4.5 5.35 7.04 5.35 7.04z" fill="#ffd2b1"/><path d="m20.1 8.32c-10.4 0.21-15.8 9.03-16 14.4-0.09 3.17-1.34 26.2 11.4 26.7 5.11 0.19 8.91-5.74 10.8-12.5 2.43-8.47 2.32-17 2.6-19.2 0.45-3.61 1.2-6.26 1.2-6.26s-1.26-3.35-10.1-3.17z" fill="#865b52"/><path d="m75.5 4.8c11.3 0.42 15.1 5.41 16.2 8.31 1.2 3.17 2.25 14.5 0.49 22-1.43 6.16-3.59 9.29-8.66 9.08-4.64-0.19-6.99-6.88-10.5-16-3.38-8.8-5.97-16.7-6.41-17.8-0.56-1.48-1.76-2.11-1.76-2.11s2.25-3.84 10.6-3.52z" fill="#865b52"/><path d="m62.7 27.7c-5.56 0.35-8.22 6.53-7.04 12.7 1.27 6.69 5.66 9.86 11.2 9.15 6.05-0.77 7.88-7.67 7.11-12.9-0.71-4.74-3.39-9.51-11.3-9.01z" fill="#d27856"/><g fill="#060401"><path d="m69.2 39c0 2.92-1.62 5.36-4.19 5.29-3.49-0.1-4.4-3.19-4.33-5.79 0.08-3.04 1.9-4.48 4.5-4.41 2.32 0.05 4.02 1.99 4.02 4.91z"/><path d="m39.8 40.6c0 3.04-1.62 5.58-4.19 5.5-3.49-0.1-4.4-3.32-4.33-6.03 0.08-3.17 2.25-4.52 4.29-4.37 2.31 0.17 4.23 1.86 4.23 4.9z"/><path d="m53.2 57.6s6.12-0.63 5.84-5.07c-0.28-4.43-4.43-4.72-7.67-4.65s-7.88 1.76-7.39 5.49 5.77 4.22 5.77 4.22-0.01 2.76-1.83 2.96c-1.97 0.21-4.79-2.82-5.56-3.59s-1.97-0.49-2.39 0.14-0.14 2.04 1.06 3.24 4.01 4.22 6.83 3.94 2.89-1.76 4.01-1.83c1.13-0.07 1.06 1.62 3.87 1.55 1.98-0.05 5.97-3.53 6.69-4.15 1.62-1.41 2.04-2.82 1.34-3.73s-2.67 0.42-3.73 1.2c-1.06 0.77-2.77 2.59-4.43 2.89-2.76 0.49-2.41-2.61-2.41-2.61z"/></g><g fill="#d27856"><path d="m78.2 51s-1.33 2.92-2.44 5.26c-1.34 2.82-3.26 5.28-3.26 5.28s2.17 14.8 15.1 13.6c4.62-0.46 8.12-4.08 8.45-7.92 0.56-6.48-1.9-9.51-5.72-12.5-6.19-4.78-12.1-3.71-12.1-3.71z"/><path d="m69.3 74.2c-2.29 2.1-1.06 6.05 1.97 6.48 3.03 0.42 4.66-2.1 4.43-4.01-0.34-2.96-3.79-4.86-6.4-2.47z"/><path d="m39.4 70.3s-2.02 5.54 2.25 12.5c1.82 2.95 5.87 4.61 8.73 4.5 3.02-0.11 5.75-1.16 8.09-4.08 3.73-4.65 2.67-12.4 2.67-12.4s-5.91 2.43-11.3 2.25c-5.77-0.18-10.4-2.76-10.4-2.76z"/><path d="m32 113c-1.47-0.45-2.06 1.83-2.16 3.28s-0.09 3.33 1.22 3.8 1.05-2.32 1.17-3.24c0.24-1.77 1.32-3.37-0.23-3.84z"/><path d="m37.8 114c-0.88-0.04-1.81 0.85-1.92 3.43-0.09 2.16 0 3.94 1.22 4.04 1.64 0.13 1.18-1.97 1.27-3.71 0.04-0.99 1.26-3.67-0.57-3.76z"/><path d="m60.2 116c-1.41 0-1.45 1.6-1.45 3.33 0 1.74-0.36 3.89 1.22 4.08 1.92 0.23 1.55-2.35 1.55-3.8-0.01-1.26 0.22-3.61-1.32-3.61z"/><path d="m66.5 116c-1.13 0.23-1.03 1.78-0.99 3.66 0.05 1.88-0.23 3.87 1.36 3.71 1.36-0.14 1.27-2.35 1.22-4.04-0.04-1.46 0.15-3.7-1.59-3.33z"/><path d="m85.9 104c-0.97-0.19-2.07 0.63-2.35 2.82-0.23 1.88-0.14 3.53 1.5 3.89 0.84 0.19 0.99-1.97 1.03-3.52 0.05-1.34 1.04-2.95-0.18-3.19z"/><path d="m91.2 105c-0.93-0.15-1.84 0.42-2.08 2.75-0.14 1.36-0.64 3.8 1.05 3.89 1.31 0.06 1.21-2.09 1.33-3.21 0.19-1.77 1.23-3.17-0.3-3.43z"/></g></g><g transform="matrix(1.65 0 0 1.65 -123 -44.5)"><g fill="#888071"><path d="m19.7 45.7c-0.04 0-0.08 0-0.12-0.01-0.06-0.01-1.56-0.18-4.11-0.64-2.78-0.51-4.61-0.72-4.63-0.72-0.6-0.07-1.04-0.61-0.97-1.22 0.07-0.6 0.62-1.04 1.22-0.97 0.08 0.01 1.92 0.22 4.78 0.74 2.47 0.45 3.95 0.62 3.96 0.62 0.6 0.07 1.04 0.61 0.97 1.22-0.07 0.56-0.55 0.98-1.1 0.98z"/><path d="m10.8 50.1c-0.55 0-1.03-0.41-1.09-0.97a1.1 1.1 0 0 1 0.97-1.22c0.03 0 2.81-0.33 4.22-0.56 1.46-0.23 4.74-0.75 4.74-0.75l0.34 2.17-4.73 0.75c-1.46 0.24-4.2 0.56-4.32 0.57-0.05 0-0.09 0.01-0.13 0.01z"/><path d="m12.5 54.7c-0.48 0-0.92-0.31-1.06-0.8-0.17-0.58 0.17-1.19 0.76-1.36l7.88-2.25a1.1 1.1 0 0 1 0.6 2.12l-7.88 2.25c-0.09 0.02-0.2 0.04-0.3 0.04z"/></g><path d="m53.3 84.4-10.8 8.31s0.42 17.3 0.14 18-4.08 5.07-3.66 7.6c0.33 1.97 1.83 2.67 5.91 2.82s12.4-1.69 12.4-1.69z" fill="#b85c3e"/><path d="m85.1 91-8.02 4.5s1.13 3.38 1.13 8.17-0.42 7.79-0.7 8.78-2.63 2.86-2.39 5.58c0.11 1.26 1.69 2.25 4.5 2.11s6.9-0.42 6.9-0.42l4.08-26.6z" fill="#b85c3e"/><path d="m33.3 27.8s-1.31-4.6-0.19-11.9c1.13-7.32 3-11.2 4.79-11.4 1.78-0.19 5.16 3.19 7.79 7.23s4.79 11.2 4.79 11.2z" fill="#fb8b02"/><path d="m63.8 97.3s0.09 8.45 0.28 12.2 0.01 12.1-0.75 13c-1.17 1.41-2.35 1.45-4.88 1.55-1.51 0.06 0.47-9.29 0.47-9.67s0.09-22.8 0.09-22.8z" fill="#fb8b02"/><path d="m38.8 68.1s-2.25 7.13-1.69 12.5 3.66 12.1 6.76 14.8 5.91 4.13 6.19 4.79 1.41 9.95 1.03 11.9-3.1 7.04-2.63 9.01 2.33 3.21 7.13 3.1c6.24-0.14 5.91-1.08 6.38-4.97 0.32-2.62-0.09-20.7-0.09-20.7s3.85 0.38 9.29 0 12.2-2.82 12.2-2.82 3.85 12 2.53 15.7c-1.31 3.66-3.47 5.73-3.1 8.26 0.38 2.53 3.66 3.66 7.7 3.28s7.13-3 7.32-6.48c0.19-3.47 0.09-22.7 0.66-24.2 0.56-1.5 2.63-6.66 2.44-11.8s-0.56-7.23-0.56-7.23 4.85-1.85 9.34-5.25c3.42-2.59 5.99-6 7.36-11.1 2.25-8.35-0.84-16.6-7.04-19.4-5.96-2.71-11.8-1.69-12 2.63s3.66 3.38 6.57 4.5c2.91 1.13 6.19 6.29 2.72 11.4s-9.57 6.66-11.4 6.85-5.35-2.72-12.6-2.91-17.6 5.07-17.9 4.41c-0.28-0.66 10.3-7.51 11.1-16.4 0.7-8.26-1.03-12.1-1.03-12.1s-1.31-14-3.19-20.6-4.48-11.4-6.17-11.4c-1.69 0.09-7.13 6.01-9.1 8.92s-4.13 7.6-4.13 7.6-8.4-0.31-12.1 1.03c-3.38 1.22-7.23 3.28-9.67 7.13s-3.19 6.1-4.32 6.66-6.48 1.69-6.95 2.35-1.69 9.39-1.41 10.7 0.5 4.37 2.06 6.1c1.78 1.97 6.71 5.3 10.6 7.79 3.77 2.4 7.43 4.32 7.8 6.01z" fill="#ffb800"/><path d="m73.4 77.3c3.47-0.05 3.38-4.22 3.43-9.39 0.04-4.52-0.14-7.18-0.14-7.18s-1.99 0.27-3.75 0.94c-1.74 0.66-3.24 1.27-3.24 1.27v7.27c-0.01 2.49 0.27 7.14 3.7 7.09z" fill="#ff9b31"/><path d="m79.5 60s0 4.36 0.05 8.07c0.05 3.99-0.33 8.31 3.66 8.26 3.43-0.04 3.43-4.41 3.47-9.34 0.02-2.58 0.09-6.99 0.09-6.99s-1.69-0.33-3.71-0.28c-1.59 0.04-3.56 0.28-3.56 0.28z" fill="#ff9b31"/><path d="m44.8 41c-0.73 1.77-2.3 4.3-4.89 3.64-1.66-0.42-1.78-3.99-0.81-6.11 1.15-2.5 2.68-3.63 4.47-3.42 1.97 0.24 2.16 3.62 1.23 5.89z" fill="#2c312c"/><path d="m27.7 40.5c-0.05-1.13-2.96-1.92-5.21-2.77-1.91-0.71-2.96-0.75-3.47-0.28s-1.13 1.69-1.41 3.57-0.18 5.06 0.28 7.04c0.47 2.02 1.22 4.55 4.55 5.87 2.86 1.13 4.55-0.42 5.77-1.27 1.55-1.07 0.88-3.61-1.31-2.3-1.64 0.99-2.77 1.27-4.04 0.33-1.74-1.29-2.16-5.11-2.02-5.44 0.61-1.43 3.05-1.78 4.04-2.16s2.87-1.6 2.82-2.59z" fill="#2c312c"/><g fill="#888071"><path d="m47.3 50.4h-0.08c-0.03 0-3.19-0.23-5.16-0.28l-5.63-0.14s-1.18 0.1-1.18-1.06c0-1.23 1.23-1.04 1.23-1.04l5.63 0.14c2.02 0.05 5.13 0.27 5.26 0.28 0.58 0.04 1.01 0.55 0.97 1.12-0.04 0.56-0.5 0.98-1.04 0.98z"/><path d="m45.6 57.3c-0.15 0-0.31-0.03-0.45-0.1-0.02-0.01-2.51-1.2-4.76-1.97-2.34-0.79-4.96-1.64-4.96-1.64-0.55-0.18-0.86-0.77-0.68-1.32s0.77-0.86 1.32-0.68c0 0 2.64 0.85 4.99 1.65 2.38 0.81 4.89 2.01 5 2.07 0.52 0.25 0.74 0.88 0.49 1.4-0.18 0.37-0.56 0.59-0.95 0.59z"/><path d="m40.4 61.2c-0.2 0-0.41-0.06-0.59-0.18-0.02-0.01-1.78-1.21-2.96-1.94-1.23-0.75-3.44-2.17-3.44-2.17s-0.99-0.58-0.35-1.5 1.48-0.28 1.48-0.28 2.2 1.4 3.41 2.15c1.23 0.75 2.97 1.95 3.05 2 0.48 0.33 0.6 0.98 0.27 1.46-0.21 0.3-0.54 0.46-0.87 0.46z"/></g><path d="m64.4 12.3c-0.48-0.17-3.59 3.45-5.14 7.04s-2.11 5.56-1.97 6.19c0.06 0.28 1.85 1.83 4.5 3.94 2.75 2.18 4.5 3.52 5.28 3.45 0.77-0.07 0.99-6.05 0.35-11.5s-2.25-8.87-3.02-9.15z" fill="#fed0ab"/></g><g transform="matrix(1.65 0 0 1.65 150 284)"><path d="m70.5 94c0 1.5 0.44 5.26 0.44 6.76s0.94 4.5 5.02 4.93c6.31 0.65 7.86-2.64 8.59-6.48 0.99-5.21 0.41-11.4 0.41-11.4z" fill="#ffa8a7"/><g fill="#ffd2b1"><path d="m120 19.6c1.78-0.38 4.13 0.19 4.22-1.6 0.11-2.16-2.63-3.57-5.91-2.63-3.27 0.93-4.32 3.75-4.32 3.75s-3.71-1.73-6.95 0.84c-3.66 2.91-3.94 9.01-3.94 9.01l5.16 4.97s0.13-5.76 0.94-7.88c1.03-2.72 2.82-2.25 2.82-2.25s-1.97 5.44 0.75 8.73c3.26 3.94 10.5 2.25 9.48-4.41-0.61-3.96-4.41-6.38-4.41-6.38s0.82-1.87 2.16-2.15zm-2.72 11.2c-2.99 0.34-2.06-4.88-1.5-6.38 2.44 1.03 3.94 6.09 1.5 6.38z"/><path d="m46 24.9c18.2-7.4 54-9.08 66.2 10.3 12.2 19.6 3.8 32.1 2.39 35.6-2.02 5.05-3.8 11.5-4.22 14.9-0.5 3.97-1.13 14.2-1.55 16.3s-4.08 5.21-7.88 4.93-6.9-2.67-7.18-4.93c-0.28-2.25 0.84-7.88-1.83-9.85s-10.7-0.7-15.5 1.83-27.4 14.3-52.6 3.24c-25.3-11.1-19.4-35.2-13.2-42.2s5.49-8.45 5.49-8.45-6.19 1.55-3.8-3.38 8.59-13.1 9.71-13.8c1.13-0.7 4.79-1.83 6.76-0.56s1.97 3.1 1.97 3.1 3.24-2.11 15.3-7.03z"/><path d="m20.8 93.8s0.28 9.85 0.42 12.2 0.47 6.29 0.84 8.17c0.42 2.11 2.12 3.32 5.49 3.52 4.65 0.28 6.9-1.69 7.32-3.38s0.84-16.9 0.84-16.9z"/><path d="m47.1 98.2s-0.04 4.93 0.14 9.85c0.14 3.8 0.14 8.17 0.56 9.29 0.7 1.87 4.08 2.96 7.04 3.1 3.24 0.15 5.42-1.48 6.76-2.82 0.7-0.7 0.7-4.22 0.84-9.29 0.08-2.96 0.28-11.7 0.28-11.7z"/></g><path d="m62.8 43.6c-0.75-1.63-4.58 0-5.54 2.44-1.22 3.1 0 6.1 1.78 9.48 1.22 2.31 6.76 9.48 13.1 7.98 7.42-1.75 5.35-13.3 5.07-14.6s-1.17-3.06-2.72-2.82c-1.78 0.28-0.93 3.24-0.84 5.44 0.09 2.44 0.19 6.57-2.72 7.23-3.11 0.7-5.31-1.34-7.04-4.13-1.69-2.72-3.66-4.79-3.1-7.32 0.35-1.56 2.53-2.44 1.97-3.66z" fill="#e6508f"/><path d="m24.8 40.5c-1.42-0.55-3.1 1.6-4.69 2.91s-4.5 3-5.63 1.6c-1.17-1.47 2.52-5.32 4.69-9.01 1.88-3.19 3.64-6.85 6.1-7.04 3.66-0.28 0.81-1.92-1.88-1.41-1.97 0.38-4.69 2.16-6.19 5.16s-8.64 10.6-6.29 14.1c2.7 4 8.63 2.16 11.3 0s4.32-5.63 2.63-6.29z" fill="#e6508f"/><path d="m29.5 69.2c-5.16-0.94-13.4 0.5-14 6.29-0.47 4.5 2.44 9.95 11.9 12s14.2-1.5 14.6-6.57c0.47-5.06-4.88-10.3-12.6-11.7z" fill="#ff7d86"/><g fill="#2d2d2b"><path d="m26.2 77.3c0.2 2.27-0.42 3.91-1.78 4.04-1.36 0.12-3.27-1.48-3.47-3.75s0.4-4.13 2.16-4.13c1.36 0 2.88 1.57 3.09 3.84z"/><ellipse transform="rotate(-84.6 32.4 79)" cx="32.3" cy="79" rx="3.94" ry="2.62"/><ellipse transform="rotate(-84.3 52.7 66.2)" cx="52.7" cy="66.2" rx="4.83" ry="4.1"/><ellipse transform="rotate(-84.3 22.8 60.2)" cx="22.8" cy="60.2" rx="4.78" ry="4.23"/></g></g><g transform="matrix(1.65 0 0 1.65 -473 -489)"><path d="m51.5 37.9c-26.1-0.69-56.8-29.2-46.5 1.27 5.98 17.5 26.2 26 46.5 25.8 20.3 0.26 40.5-8.26 46.5-25.8 10.4-30.4-20.3-1.96-46.5-1.27z" fill="#e59600"/><path d="m86.5 80.8c-1.04-1.98-0.2-3.94 3.07-7.26 4.06-4.11 9.41-14.8 4.1-25.6 0 0-0.84-1.62-0.83-1.66l-0.75 0.83c-0.15-0.3-0.31-0.61-0.49-0.91-1.15-0.16-79-0.16-80.1 0-0.32 0.56-0.6 1.12-0.86 1.68l-0.99-0.08c-4.9 11.8-0.45 21.2 3.87 25.7 2.72 2.81 4.18 5.01 3.06 7.31-0.56 1.15-1.43 1.82-2.67 2.07l-2.15 0.42 1.17 1.81c0.42 0.66 1 1.21 1.67 1.6 1.87 1.09 4.13 1.36 5.71 1.4 0.18 0 0.44 0.2 0.83 0.62 5.08 5.53 9.08 7.29 21.4 7.74l17.8 0.01c12.5-0.44 16.5-2.19 21.6-7.74 0.39-0.43 0.65-0.62 0.83-0.62 1.58-0.04 3.85-0.31 5.71-1.4 0.67-0.39 1.24-0.94 1.67-1.6l1.17-1.81-2.15-0.42c-1.19-0.25-2.07-0.94-2.69-2.12z" fill="#543930"/><path d="m52.3 96.4-0.05-9.33 28.2-2.37 2.02 3.53s-3.98 4.76-8.43 6.25c-3.31 1.11-6.93 1.84-13.9 2.02z" fill="url(#IconifyId17ecdb2904d178eab8516)"/><path d="m50.6 96.4 0.05-9.27-28-2.36-2.01 3.51s3.95 4.73 8.38 6.21c3.29 1.1 6.89 1.83 13.8 2.01z" fill="url(#IconifyId17ecdb2904d178eab8517)"/><path d="m51.7 90.7h-8.92v10.7c0 4.83 3.63 8.74 8.11 8.74h1.62c4.48 0 8.11-3.92 8.11-8.74v-10.7z" fill="#e59600"/><path d="m91 71.8c-1.61 2.15-4.27 4.58-4.57 6.47 2.98-16.2-10-14.2-12.7-21.6-0.54-1.49-1.04-3.02-1.1-4.61-0.05-1.19 7.31-12.4 8-13.5 0.84-1.24 12.9 8.95 12.9 8.95-0.01 0.02 6.81 11.8-2.54 24.3z" fill="url(#IconifyId17ecdb2904d178eab8518)"/><path d="m80.2 84.3c-7.11-10.4 10.7-12.3 10.7-12.3-2.33 2.28-5.43 6.1-4.36 8.54 1.27 2.88 4.94 2.65 4.94 2.65s-6.43 5.88-11.2 1.14z" fill="url(#IconifyId17ecdb2904d178eab8519)"/><path d="m78.3 51.8h-53.7c-5.79 0-10.5 5.04-10.5 11.2s4.73 11.2 10.5 11.2h53.7c5.79 0 10.5-5.04 10.5-11.2s-4.74-11.2-10.5-11.2z" fill="#e59600"/><path d="m51.5 13.1c-17.1 0-32.9 18.3-32.9 44.6 0 26.2 16.3 39.1 32.9 39.1s32.9-12.9 32.9-39.1c0-26.3-15.8-44.6-32.9-44.6z" fill="#ffca28"/><g fill="#404040"><ellipse cx="36.2" cy="60" rx="4.84" ry="5.01"/><ellipse cx="66.8" cy="60" rx="4.84" ry="5.01"/></g><path d="m59.8 77c-3.13 1.86-13.4 1.86-16.5 0-1.8-1.07-3.63 0.57-2.89 2.2 0.73 1.61 6.33 5.33 11.2 5.33s10.4-3.72 11.1-5.33c0.75-1.64-1.06-3.27-2.86-2.2z" fill="#795548"/><g fill="#6d4c41"><path d="m43.4 51.1c-0.91-1.21-3.02-2.96-7.1-2.96s-6.19 1.75-7.1 2.96c-0.4 0.53-0.3 1.15-0.02 1.52 0.26 0.35 1.02 0.67 1.87 0.38s2.49-1.14 5.26-1.16c2.76 0.02 4.41 0.87 5.26 1.16s1.61-0.03 1.87-0.38c0.26-0.37 0.36-0.99-0.04-1.52z"/><path d="m73.8 51.1c-0.91-1.21-3.02-2.96-7.1-2.96s-6.19 1.75-7.1 2.96c-0.4 0.53-0.3 1.15-0.02 1.52 0.26 0.35 1.02 0.67 1.87 0.38s2.49-1.14 5.26-1.16c2.76 0.02 4.41 0.87 5.26 1.16s1.61-0.03 1.87-0.38c0.26-0.37 0.36-0.99-0.04-1.52z"/></g><path d="m55.3 69.1c-0.1-0.04-0.21-0.07-0.32-0.08h-6.94c-0.11 0.01-0.21 0.04-0.32 0.08-0.63 0.26-0.98 0.91-0.68 1.6s1.68 2.64 4.47 2.64 4.17-1.95 4.47-2.64-0.05-1.34-0.68-1.6z" fill="#e59600"/><radialGradient id="IconifyId17ecdb2904d178eab8520" cx="107" cy="61.5" r="26.2" gradientTransform="matrix(.0746 -.997 -.831 -.0622 71.5 177)" gradientUnits="userSpaceOnUse"><stop stop-color="#6d4c41" stop-opacity="0" offset=".725"/><stop stop-color="#6d4c41" offset="1"/></radialGradient><path d="m12.2 71.9c1.61 2.13 4.25 4.55 4.54 6.43-2.96-16 9.97-14.2 12.6-21.5 0.54-1.48 1.03-3 1.1-4.58 0.05-1.18-7.27-12.4-7.94-13.4-0.83-1.23-12.8 8.9-12.8 8.9s-6.25 12.5 2.51 24.1z" fill="url(#IconifyId17ecdb2904d178eab8520)"/><radialGradient id="IconifyId17ecdb2904d178eab8521" cx="91.2" cy="49.1" r="9.1" gradientTransform="matrix(.944 .336 .246 -.711 -85.1 83)" gradientUnits="userSpaceOnUse"><stop stop-color="#6d4c41" offset=".663"/><stop stop-color="#6d4c41" stop-opacity="0" offset="1"/></radialGradient><path d="m22.9 84.4c7.06-10.3-10.6-12.2-10.6-12.2 2.32 2.27 5.4 6.07 4.33 8.48-1.26 2.86-4.91 2.63-4.91 2.63s6.39 5.85 11.2 1.14z" fill="url(#IconifyId17ecdb2904d178eab8521)"/><path d="m90.9 28.9c-0.16-0.24-0.34-0.5-0.53-0.75-0.35 0.06-0.74 0.13-1.12 0.19-0.38-0.72-0.72-1.29-0.97-1.66-0.06-0.08-4.83 0.82-11.9 1.74h-51.7c-6.01-0.81-10-1.61-10.3-1.74-0.2 0.6-0.35 1.18-0.46 1.74h-1.02c-1.42 4.01-0.57 4.92 0.03 6.61-2.48 2.1-5.84 6.67-3.45 12.4 2.41 5.78 8.03 6.38 8.03 6.38-0.61 10.6 2.72 15.7 2.72 15.7s4.13-18.1 3.75-20.9c0 0 7.62-1.51 16.3-6.46 5.85-3.35 9.84-7.27 16.4-8.75 10-2.25 12.2 4.99 12.2 4.99s9.25-1.78 12 11.1c1.15 5.29 1.64 14.1 2.27 19.5-0.05-0.47 3.44-6.28 4.05-12.2 0.17-1.64 2.07-5.04 3.43-8.32 0.57 1.07 1.22 2.36 1.41 3.01 0 0 1.1-4.46 1.18-4.77 2.2-8.78-0.55-15.1-2.28-17.8z" fill="#543930"/><radialGradient id="IconifyId17ecdb2904d178eab8522" cx="26.7" cy="83.1" r="16.9" gradientTransform="matrix(.991 .137 .192 -1.4 -15.7 158)" gradientUnits="userSpaceOnUse"><stop stop-color="#6d4c41" stop-opacity="0" offset=".598"/><stop stop-color="#6d4c41" offset="1"/></radialGradient><path d="m12.6 35.1c-2.37 2.12-5.56 6.84-3.21 12.7 1.77 4.41 8.09 6.33 8.09 6.33 0 0.02 1.26 0.4 1.91 0.4l1.48-22c-3.03 0-5.94 0.91-7.82 2.23 0.02 0.03-0.46 0.35-0.45 0.38z" fill="url(#IconifyId17ecdb2904d178eab8522)"/><radialGradient id="IconifyId17ecdb2904d178eab8523" cx="76.7" cy="80.4" r="25" gradientTransform="matrix(.308 .952 .706 -.228 -3.65 -7.09)" gradientUnits="userSpaceOnUse"><stop stop-color="#6d4c41" stop-opacity="0" offset=".699"/><stop stop-color="#6d4c41" offset="1"/></radialGradient><path d="m86.8 57.5c0.16-1.55 4.34-3.6 6.14-10.3 0.19-0.71 0.35-1.43 0.5-2.15 1.46-8.09-1.16-15.5-2.79-18-2.26-3.41-11.8 3.37-10.1 6.08 5.06 8.47 4.9 16.2 6.29 24.3z" fill="url(#IconifyId17ecdb2904d178eab8523)"/><linearGradient id="IconifyId17ecdb2904d178eab8524" x1="51.7" x2="51.7" y1="4" y2="30" gradientTransform="matrix(1,0,0,-1,0,128)" gradientUnits="userSpaceOnUse"><stop stop-color="#709e3b" offset="0"/><stop stop-color="#73a13e" offset=".328"/><stop stop-color="#7dab47" offset=".595"/><stop stop-color="#8dbc57" offset=".839"/><stop stop-color="#9ccc65" offset="1"/></linearGradient><path d="m95.7 121c0-17.8-25.6-21.9-34.7-22.8l-7.67 10.5h-3.33l-7.55-10.6c-9.85 0.93-18.2 3.27-24.3 6.78-6.98 4.05-10.5 9.44-10.5 16v3.2h88v-3.19z" fill="url(#IconifyId17ecdb2904d178eab8524)"/><linearGradient id="IconifyId17ecdb2904d178eab8525" x1="51.8" x2="51.8" y1="3.48" y2="28.1" gradientTransform="matrix(1,0,0,-1,0,128)" gradientUnits="userSpaceOnUse"><stop stop-color="#1e88e5" offset="0"/><stop stop-color="#1565c0" offset="1"/></linearGradient><path d="m83.6 120-7.17-5.52 0.25-0.39-26 0.49-23.9-0.49 0.25 0.39-7.17 5.52-0.17 3.92h64z" fill="url(#IconifyId17ecdb2904d178eab8525)"/><linearGradient id="IconifyId17ecdb2904d178eab8526" x1="28.3" x2="28.3" y1="4.01" y2="27.4" gradientTransform="matrix(1,0,0,-1,0,128)" gradientUnits="userSpaceOnUse"><stop stop-color="#1e88e5" offset="0"/><stop stop-color="#1565c0" offset="1"/></linearGradient><path d="m33.8 107-0.11-7.82s-5.79 1.2-7.87 2.1l-2.92 6.6 3.78 5.86z" fill="url(#IconifyId17ecdb2904d178eab8526)"/><linearGradient id="IconifyId17ecdb2904d178eab8527" x1="65.9" x2="65.9" y1="4.01" y2="27.4" gradientTransform="rotate(180 70.6 64)" gradientUnits="userSpaceOnUse"><stop stop-color="#1e88e5" offset="0"/><stop stop-color="#1565c0" offset="1"/></linearGradient><path d="m69.8 107 0.11-7.82s5.79 1.2 7.87 2.1l2.92 6.6-3.79 5.86z" fill="url(#IconifyId17ecdb2904d178eab8527)"/><path d="m73 116 5.17 0.98a2.56 2.56 0 0 0 2.98-2.03 2.56 2.56 0 0 0-2.03-2.98l-5.17-0.98a2.56 2.56 0 0 0-2.98 2.03c-0.26 1.39 0.64 2.72 2.03 2.98z" fill="#bdbdbd"/><path d="m30.6 116-5.17 0.98c-1.38 0.26-2.72-0.65-2.98-2.03a2.56 2.56 0 0 1 2.03-2.98l5.17-0.98a2.56 2.56 0 0 1 2.98 2.03c0.26 1.39-0.64 2.72-2.03 2.98z" fill="#bdbdbd"/><linearGradient id="IconifyId17ecdb2904d178eab8528" x1="43.2" x2="43.2" y1="27.7" y2="13" gradientTransform="matrix(1,0,0,-1,0,128)" gradientUnits="userSpaceOnUse"><stop stop-color="#aed581" offset="0"/><stop stop-color="#8bc34a" offset="1"/></linearGradient><path d="m42.4 98c-2.61 0.25-5.11 0.61-7.5 1.05l-0.25 21 17.1-11.5z" fill="url(#IconifyId17ecdb2904d178eab8528)"/><linearGradient id="IconifyId17ecdb2904d178eab8529" x1="60.3" x2="60.3" y1="29.9" y2="12.5" gradientTransform="matrix(1,0,0,-1,0,128)" gradientUnits="userSpaceOnUse"><stop stop-color="#aed581" offset="0"/><stop stop-color="#8bc34a" offset="1"/></linearGradient><path d="m68.6 99.1c-2.96-0.56-5.59-0.89-7.49-1.08l-9.34 10.5 17.1 11.5z" fill="url(#IconifyId17ecdb2904d178eab8529)"/><linearGradient id="IconifyId17ecdb2904d178eab8530" x1="51.5" x2="51.5" y1="120" y2="96.6" gradientTransform="matrix(1,0,0,-1,0,128)" gradientUnits="userSpaceOnUse"><stop stop-color="#fff59d" offset=".003"/><stop stop-color="#fee565" offset=".553"/><stop stop-color="#fdd835" offset=".996"/></linearGradient><path d="m77.5 29c-4.82-12-9.56-21.4-15.6-22.2-1.62-0.19-5.86-0.73-10.2-0.74-4.45 0-8.95 0.54-10.6 0.74-6.07 0.73-10.8 10.2-15.6 22.2-2.62 6.5 54.7 6.5 52 0.01z" fill="url(#IconifyId17ecdb2904d178eab8530)"/><linearGradient id="IconifyId17ecdb2904d178eab8531" x1="51.5" x2="51.5" y1="101" y2="72.4" gradientTransform="matrix(1,0,0,-1,0,128)" gradientUnits="userSpaceOnUse"><stop stop-color="#fff59d" offset=".003"/><stop stop-color="#fee565" offset=".553"/><stop stop-color="#fdd835" offset=".996"/></linearGradient><path d="m91.6 24.7c-9.43 1.71-25.2 3.7-39.5 3.76h-1.14c-14.4-0.06-30.1-2.05-39.5-3.76-8.14-1.48-8.43 3.84-8.43 3.84s2.58-3.19 7.11 1.23c7.03 6.86 18.5 17.8 40.8 17.8 0.22 0 0.43-0.01 0.65-0.01s0.43 0.01 0.65 0.01c22.3-0.1 33.7-11 40.8-17.8 4.53-4.42 7.11-1.23 7.11-1.23s-0.29-5.32-8.43-3.84z" fill="url(#IconifyId17ecdb2904d178eab8531)"/><path d="m51.5 20.4c-15.2 0-25 6.55-25 6.55s14.4 1.47 25 1.47 25-1.47 25-1.47-9.87-6.55-25-6.55z" fill="#78909c"/><path d="m107 109v15" fill="none" stroke="#d18100" stroke-miterlimit="10" stroke-width="5"/><path d="m109 117h-2.32c-1.39 0-2.51 0-2.51-2.51v-12h7.33v12c0.01 2.13-1.12 2.51-2.5 2.51z" fill="#636363"/><path d="m117 99.5c-1.84 0-7.74 0.06-9.07 0.06-2.12 0-7.74-0.19-10-0.19-7.48 0-7.54-26.7-7.54-26.7v24.7c0 6.69 3.42 8.83 9.42 9.05h15.4c5.42 0 7.35-3.71 7.35-8.15l-0.38-4.86c-0.02 0.01-1.47 6.07-5.13 6.07z" fill="#616161"/><linearGradient id="IconifyId17ecdb2904d178eab8532" x1="107" x2="107" y1="19.5" y2="78.2" gradientTransform="matrix(1,0,0,-1,0,128)" gradientUnits="userSpaceOnUse"><stop stop-color="#757575" offset="0"/><stop stop-color="#9e9e9e" offset=".482"/></linearGradient><path d="m123 38.4c-0.11-0.42-0.73-0.41-0.83 0.01l-1.15 4.68-2 52.2s-0.01 0.27-0.01 0.41c0 1.54-1.19 2.64-2.73 2.64s-2.81-1.12-2.81-2.66c0-0.22 0.6-52.4 0.6-52.4l-1.19-5.13c-0.11-0.42-0.72-0.42-0.83-0.01l-1.35 5.05-0.62 52.2c0 1.7-1.03 2.99-2.73 2.99s-3.08-1.38-3.08-3.08l-0.3-52.2-1.18-4.94c-0.11-0.41-0.71-0.41-0.83 0l-1.5 5.15 0.03 51.9c0 1.76-1.22 3.19-2.98 3.19-1.96 0-3.4-1.43-3.4-3.19l-2.04-52.1-1.34-4.97c-0.11-0.42-0.6-0.34-0.72 0.07l-1.37 5 1.6 53.6c0 4.52 2.88 7.94 8.88 8.17h15.4c5.42 0 7.5-3.73 7.5-8.17l2.16-53.4z" fill="url(#IconifyId17ecdb2904d178eab8532)"/></g><g transform="translate(549 17.9)" stroke-width="1.65"><path d="m-170 195s9.66-13.9 8.96-19.2c-0.695-5.36-2.56-6.52-7.92-8.38s-8.5-4.78-8.5-4.78-3.89-18.2-3.49-20.5c0.463-2.68 10.1-20.7 33.1-20.7 22.1 0 31.2 18.6 30 32.8-1.04 12.9-5.82 16.5-9.19 27.2-3.37 10.7-5.01 17.1-5.01 17.1l-19.9 4.07-16.7-3.6z" fill="url(#IconifyId17ecdb2904d178eab7809)"/><path d="m-142 274s1.24 12.6-0.0331 14.2c-1.29 1.54-20.6 6-22.8 7.64-2.36 1.77-1.36 5.74 3.67 10.3 5.03 4.58 9.24 5.37 12.1 4.18 3.41-1.39 9.31-5.9 12-7.92 2.12-1.62 5.29-5.06 5.72-7.82 0.446-2.76-0.926-19-0.926-19z" fill="#ff5d10"/><path d="m-117 278s1.82 14.8 0.926 16.5c-2.33 4.66-15.7 15.1-16.5 18.6-0.695 2.79 6.28 8.38 13.3 8.53 9.33 0.215 15.2-3.47 15.8-5.51 0.926-2.88-2.56-19.8-3.03-20.7-0.463-0.926 0.232-24.9 0.232-24.9z" fill="#ff5d10"/><path d="m-66.6 204s7.94-1.55 7.97-6.95c0.0165-5.39-2.88-3.04-2.91-6.96-0.0331-3.92 7.01-4.85 11.6-1.55 3.65 2.6 12 11 11.5 28.6-0.628 23.8-13.1 41.3-32.7 52-16 8.78-39.6 7.74-39.6 7.74z" fill="#5e6367"/><path d="m-88.1 206c3.89-0.463 20.9-5.85 27-4.3 7.33 1.87 14.6 7.03 13.1 23.4-1.92 21.2-17 34.2-23.5 37.8-11.6 6.35-22.8 6.5-22.8 6.5s2.3-62.9 6.17-63.4z" fill="#b0b0b1"/><path d="m-218 156c0 1.98 12.3 7.81 24 9.19 11.6 1.39 18.9-0.463 18.9-0.463s-1.98-5.01-1.98-8.73 1.92-13.1-1.04-15.2c-2.68-1.98-4.89 2.1-6.52 3.26-1.64 1.16-6.28 4.42-13.5 4.66s-13.5-0.926-16.1 0.463c-2.55 1.39-3.72 4.76-3.72 6.86z" fill="#ffbf18"/><path d="m-147 149c-0.695 2.89-2.66 5.16-6.52 4.55-3.6-0.579-5.36-4.3-4.3-7.92 0.827-2.86 2.96-4.8 6.56-4.18 4.13 0.695 4.91 4.76 4.25 7.56z" fill="#2d2b33"/><path d="m-146 157c4.08-1.29 7.11-1.31 6.68-4.08-0.496-3.19-5.8-2.28-9.18-0.496-3.59 1.9-8.25 5.14-6.18 7.77 2.2 2.79 6.33-2.45 8.68-3.19z" fill="#73df86"/><path d="m-175 200s3.57 15.6 21.4 13c12.7-1.89 22.2-8.22 22.2-8.22l0.149-10.4s-8.47 4.96-18.6 4.81c-10.6-0.149-19.7-5.59-19.7-5.59z" fill="#fff"/><path d="m-187 229c-1.24 33.8 24.3 49.9 64.7 50.6 44.8 0.777 62.2-25.5 64.9-42.1 2.79-17.3-8.38-21-8.38-21s11.2-4.66 6.17-15.7c-2.33-0.463-13.8 2.6-35.6 0.347-21.7-2.23-36.5 1.55-36.5 1.55s-5.42 5.9-21 5.13c-18.6-0.926-22.2-8.22-22.2-8.22s-11.3 8.28-12.1 29.3z" fill="#84574e"/><path d="m-144 235c3.77 13.1 17.2 21 37.2 20 18.2-0.843 31.4-13.5 33.5-24.7 2.36-12.1-2.56-16.8-2.56-16.8s10.5-3.8 10.5-11.2c-5.9-3.57-24.7-6.05-45.5-6.83-13.5-0.496-21.1 4.5-21.1 4.5s-19.1 10.7-12.1 34.9z" fill="#b79277"/></g><text x="-209.94691" y="-533.96039" font-family="sans-serif" font-size="50.8px" stroke-width=".265" text-anchor="middle" style="line-height:1.25" xml:space="preserve"><tspan x="-209.94691" y="-533.96039" text-align="center">Now</tspan><tspan x="-209.94691" y="-470.46039" text-align="center">speak!</tspan></text><path d="m238-387c-70.5 0.364-99.1 37.1-99.6 82.9-0.298 25.6 16.2 47.7 41.5 61.2 12.3 8.71-2.35 37.3-14.1 44.6 0 0 41.5-2.83 52.9-32.1 6.32 0.926 12.8 1.41 19.5 1.41 55 0 99.5-29.2 99.5-75 0-45.8-28.4-83.3-99.6-82.9z" fill="#fff" stroke="#000" stroke-linejoin="round" stroke-miterlimit="10" stroke-width="9.92"/><text x="233.64323" y="-293.47803" font-family="sans-serif" font-size="50.8px" stroke-width=".265" style="line-height:1.25" xml:space="preserve"><tspan x="233.64323" y="-293.47803" font-size="50.8px" stroke-width=".265" text-align="center" text-anchor="middle">Woof</tspan></text><path d="m-203-154c70.5 0.364 99.1 37.1 99.6 82.9 0.298 25.6-16.2 47.7-41.5 61.2-12.3 8.71 2.35 37.3 14.1 44.6 0 0-41.5-2.83-52.9-32.1-6.32 0.926-12.8 1.41-19.5 1.41-55 0-99.5-29.2-99.5-75 0-45.8 28.4-83.3 99.6-82.9z" fill="#fff" stroke="#000" stroke-linejoin="round" stroke-miterlimit="10" stroke-width="9.92"/><text x="-204.93706" y="-51.61404" font-family="sans-serif" font-size="50.8px" stroke-width=".265" style="line-height:1.25" xml:space="preserve"><tspan x="-204.93706" y="-51.61404" font-size="50.8px" stroke-width=".265" text-align="center" text-anchor="middle">Meow</tspan></text><path d="m252-45.5c70.5 0.364 99.1 37.1 99.6 82.9 0.298 25.6-16.2 47.7-41.5 61.2-12.3 8.71 2.35 37.3 14.1 44.6 0 0-41.5-2.83-52.9-32.1-6.32 0.926-12.8 1.41-19.5 1.41-55 0-99.5-29.2-99.5-75 0-45.8 28.4-83.3 99.6-82.9z" fill="#fff" stroke="#000" stroke-linejoin="round" stroke-miterlimit="10" stroke-width="9.92"/><path d="m82.4 178c70.5 0.364 99.1 37.1 99.6 82.9 0.298 25.6-16.2 47.7-41.5 61.2-12.3 8.71 2.35 37.3 14.1 44.6 0 0-41.5-2.83-52.9-32.1-6.32 0.926-12.8 1.41-19.5 1.41-55 0-99.5-29.2-99.5-75 0-45.8 28.4-83.3 99.6-82.9z" fill="#fff" stroke="#000" stroke-linejoin="round" stroke-miterlimit="10" stroke-width="9.92"/><text x="251.17291" y="47.495445" font-family="sans-serif" font-size="50.8px" stroke-width=".265" style="line-height:1.25" xml:space="preserve"><tspan x="251.17291" y="47.495445" font-size="50.8px" stroke-width=".265" text-align="center" text-anchor="middle">Quack</tspan></text><text x="82.599144" y="280.95038" font-family="sans-serif" font-size="50.8px" stroke-width=".265" style="line-height:1.25" xml:space="preserve"><tspan x="82.599144" y="280.95038" font-size="50.8px" stroke-width=".265" text-align="center" text-anchor="middle">Oink</tspan></text></g></svg>
