<svg xmlns="http://www.w3.org/2000/svg" width="508.913" height="701.556" viewBox="0 0 134.65 185.62" xmlns:v="https://vecta.io/nano"><path d="M20.155 184.725c.255-.066.671-.066.926 0s.046.121-.463.121-.718-.054-.463-.121zm-5.622-11.062c.342-.364.681-.661.754-.661s-.147.298-.489.661-.681.661-.754.661.147-.298.489-.661zm-1.863-1.257l1.257-1.257c.199 0-.011.238-1.18 1.334-1.257 1.18-1.257 1.18-.077-.077zm89.176-1.257c0-.291.108-.529.24-.529s.178.238.101.529-.184.529-.24.529-.101-.238-.101-.529zm-84.137-.397c.342-.364.681-.661.754-.661s-.147.298-.489.661-.681.661-.754.661.147-.298.489-.661zm87.385-.661c0-.655.052-.923.115-.595a3.77 3.77 0 0 1 0 1.191c-.063.327-.115.06-.115-.595zM69.039 169c0-.128.615-.232 1.367-.232s1.317.044 1.257.097c-.256.225-2.624.347-2.624.135zm-1.373-.413c.191-.076.419-.067.507.021s-.068.15-.347.139c-.308-.013-.371-.075-.16-.16zm35.107-.084c.09-.146.216-.265.28-.265s.117.119.117.265-.126.265-.28.265-.207-.119-.117-.265zm-82.021-.529c.263-.291.538-.529.611-.529s-.083.238-.347.529-.538.529-.611.529.083-.238.347-.529zm51.461.446c0-.046.387-.432.86-.86.86-.777.86-.777.083.083-.724.802-.943.982-.943.777zm29.156-2.96c.005-.437.065-.583.132-.326s.063.615-.01.794-.127-.031-.122-.468zm-29.968-1.547c.71-1.464 1.04-1.897 1.328-1.748.211.109.657.094.992-.033.378-.144.609-.134.609.026 0 .142.115.258.256.258s.199-.15.128-.334c-.083-.216.535-.582 1.752-1.038l1.79-.618c-.049.047-1.578 1.063-3.397 2.258l-3.855 2.673c-.43.394-.345.083.397-1.445zm1.882-.609c1.215-.804 1.223-.872.086-.698-.545.083-.928.345-1.119.762-.365.802-.267.796 1.033-.064zm2.635 1.974c.974-1.038 3.008-2.567 3.231-2.43.163.101.215.058.119-.097s.322-.722.925-1.267c1.094-.988 1.095-.991.532-1.418s-.563-.428.074-.725c2.907-1.355 2.399 1.714-.575 3.471l-4.307 2.466zm5.556-3.942c0-.15.095-.215.211-.143.428.265.901-.254.52-.571-.27-.224-.581-.076-1.335.635-1.191 1.123-1.235 1.303-.189.762.437-.226.794-.533.794-.684zm14.518 2.999c-.329-.42-.32-.429.1-.1.255.2.463.408.463.463 0 .218-.217.078-.563-.363zm5.112-1.257c.005-.437.065-.583.132-.326s.063.615-.01.794-.127-.031-.122-.468zm.742-.661c-.238-.154-.271-.258-.082-.261.173-.002.389.115.479.261.203.328.111.328-.397 0zm-31.893-2.134c-.096-.155-.118-.339-.048-.408s.197.058.283.282c.179.466.026.548-.234.126zm-.365-2.253c.013-.308.075-.371.16-.16.076.191.067.419-.021.507s-.15-.068-.139-.347zm2.381 0c.013-.308.075-.371.16-.16.076.191.067.419-.021.507s-.15-.068-.139-.347zm-39.667-1.698c0-.364.06-.513.133-.331s.073.48 0 .661-.133.033-.133-.331zm39.162.265c.013-.687.43-1.817.439-1.191.004.291-.095.767-.22 1.058-.139.324-.224.375-.22.132zm-2.141-.684c.013-.308.075-.371.16-.16.076.191.067.419-.021.507s-.15-.068-.139-.347zm1.852-1.588c.013-.308.075-.371.16-.16.076.191.067.419-.021.507s-.15-.068-.139-.347zm-2.117-.529c.013-.308.075-.371.16-.16.076.191.067.419-.021.507s-.15-.068-.139-.347zm2.402-.904c0-.364.06-.513.133-.331s.073.48 0 .661-.133.033-.133-.331zm-.55-.684c.013-.308.075-.371.16-.16.076.191.067.419-.021.507s-.15-.068-.139-.347zm-38.853-.639c0-.509.054-.718.121-.463s.067.671 0 .926-.121.046-.121-.463zm41.577.406c-.082-.213-.098-.541-.036-.728s.176-.012.253.388c.15.781.026.974-.217.339zm-3.232-4.374c0-.364.06-.513.133-.331s.073.48 0 .661-.133.033-.133-.331zm-38.65-.154c.013-.308.075-.371.16-.16.076.191.067.419-.021.507s-.15-.068-.139-.347zm36.512 0c.013-.308.075-.371.16-.16.076.191.067.419-.021.507s-.15-.068-.139-.347zM68 145.33c.013-.308.075-.371.16-.16.076.191.067.419-.021.507s-.15-.068-.139-.347zm2.117 0c.013-.308.075-.371.16-.16.076.191.067.419-.021.507s-.15-.068-.139-.347zm.529 0c.013-.308.075-.371.16-.16.076.191.067.419-.021.507s-.15-.068-.139-.347zm-39.113-2.359c.003-.582.057-.789.12-.46s.061.805-.005 1.058-.118-.016-.115-.598zm38.869-.132c0-.364.06-.513.133-.331s.073.48 0 .661-.133.033-.133-.331zm-.815-2.006c.013-.308.075-.371.16-.16.076.191.067.419-.021.507s-.15-.068-.139-.347zm.529-.794c.013-.308.075-.371.16-.16.076.191.067.419-.021.507s-.15-.068-.139-.347zm-38.863-1.565c.005-.437.065-.583.132-.326s.063.615-.01.794-.127-.031-.122-.468zm38.334-3.197c.013-.308.075-.371.16-.16.076.191.067.419-.021.507s-.15-.068-.139-.347zm-38.598-.772c.005-.437.065-.583.132-.326s.063.615-.01.794-.127-.031-.122-.468zm-.265-4.762c.005-.437.065-.583.132-.326s.063.615-.01.794-.127-.031-.122-.468zm35.159-1.609c.013-.308.075-.371.16-.16.076.191.067.419-.021.507s-.15-.068-.139-.347zm-35.423-2.359c.005-.437.065-.583.132-.326s.063.615-.01.794-.127-.031-.122-.468zm68.74-2.067c0-.046.387-.432.86-.86.86-.777.86-.777.083.083-.724.802-.943.982-.943.777zm-69.035-2.453c.013-.308.075-.371.16-.16.076.191.067.419-.021.507s-.15-.068-.139-.347zm33.073-21.167c.013-.308.075-.371.16-.16.076.191.067.419-.021.507s-.15-.068-.139-.347zm-37.266-4.344c0-.509.054-.718.121-.463s.067.671 0 .926-.121.046-.121-.463zm36.493-.265c0-.364.06-.513.133-.331s.073.48 0 .661-.133.033-.133-.331zm-36.567-1.779c-.073-.615-.031-1.017.092-.894s.183.626.132 1.118c-.09.872-.095.866-.224-.224zm36.282-.757c.013-.308.075-.371.16-.16.076.191.067.419-.021.507s-.15-.068-.139-.347zM45.69 91.863c.182-.073.48-.073.661 0s.033.133-.331.133-.513-.06-.331-.133zm-3.159-.27c.191-.076.419-.067.507.021s-.068.15-.347.139c-.308-.013-.371-.075-.16-.16zm-26.194-.265c.191-.076.419-.067.507.021s-.068.15-.347.139c-.308-.013-.371-.075-.16-.16zm23.548 0c.191-.076.419-.067.507.021s-.068.15-.347.139c-.308-.013-.371-.075-.16-.16zm-26.194-.265c.191-.076.419-.067.507.021s-.068.15-.347.139c-.308-.013-.371-.075-.16-.16zm23.002.005c.182-.073.48-.073.661 0s.033.133-.331.133-.513-.06-.331-.133zm-26.177-.27c.191-.076.419-.067.507.021s-.068.15-.347.139c-.308-.013-.371-.075-.16-.16zm14.179-.848c.435-.171.381-.246-.397-.559l-8.629-3.969c-.132 0-6.476-2.929-6.658-3.074-.127-.101-1.103-9.703-.997-9.808.08-.08 1.672 1.374 10.565 9.649 6.743 6.274 6.476 5.769-2.432-4.597l-7.591-9.034c.051-.051 3.677.056 8.057.238s7.835.411 7.676.508c-.205.127-.169 1.418.126 4.51 1.475 15.462 1.508 16.374.579 16.352-.635-.015-.698-.06-.3-.216zm-3.331-.211c.191-.076.419-.067.507.021s-.068.15-.347.139c-.308-.013-.371-.075-.16-.16zm-2.91-.265c.191-.076.419-.067.507.021s-.068.15-.347.139c-.308-.013-.371-.075-.16-.16zm-3.175-.265c.191-.076.419-.067.507.021s-.068.15-.347.139c-.308-.013-.371-.075-.16-.16zm79.731-.348c0-.364.06-.513.133-.331s.073.48 0 .661-.133.033-.133-.331zm-82.658.089c.182-.073.48-.073.661 0s.033.133-.331.133-.513-.06-.331-.133zm-2.91-.265c.182-.073.48-.073.661 0s.033.133-.331.133-.513-.06-.331-.133zm16.491-1.567c.013-.308.075-.371.16-.16.076.191.067.419-.021.507s-.15-.068-.139-.347zm13.603-2.305c5.29-2.7 5.29-2.7 5.23-4.155-.049-1.2-.012-1.342.21-.811.148.354.212.793.143.975s-.029.368.091.414c.897.343-.54 1.422-4.585 3.44-2.397 1.196-4.3 2.268-4.23 2.382s-.044.142-.255.061-.462-.02-.559.135-.436.277-.754.27 1.801-1.227 4.71-2.712zm22.116 2.305c.013-.308.075-.371.16-.16.076.191.067.419-.021.507s-.15-.068-.139-.347zM9 85.005c.013-.308.075-.371.16-.16.076.191.067.419-.021.507s-.15-.068-.139-.347zm16.669-.794c.013-.308.075-.371.16-.16.076.191.067.419-.021.507s-.15-.068-.139-.347zm35.913-.556c.191-.076.419-.067.507.021s-.068.15-.347.139c-.308-.013-.371-.075-.16-.16zM2.65 83.153c.013-.308.075-.371.16-.16.076.191.067.419-.021.507s-.15-.068-.139-.347zm1.883-1.83c.005-.437.065-.583.132-.326s.063.615-.01.794-.127-.031-.122-.468zm2.059.331c-.003-.182-.375-.509-.827-.728-.822-.397-.822-.397-.893-5.516-.039-2.816.021-5.018.133-4.895.525.574 1.054 3.192 1.328 6.574.166 2.037.365 3.972.444 4.299s.07.595-.018.595-.164-.149-.167-.331zm18.833-.463c0-.364.06-.513.133-.331s.073.48 0 .661-.133.033-.133-.331zm-23.04-.683c.013-.308.075-.371.16-.16.076.191.067.419-.021.507s-.15-.068-.139-.347zm81.735-1.433c0-.146.268-.263.595-.261.481.003.519.053.198.261-.513.332-.794.332-.794 0zm-82-.948c.013-.308.075-.371.16-.16.076.191.067.419-.021.507s-.15-.068-.139-.347zm2.117 0c.013-.308.075-.371.16-.16.076.191.067.419-.021.507s-.15-.068-.139-.347zm20.902-.265c.013-.308.075-.371.16-.16.076.191.067.419-.021.507s-.15-.068-.139-.347zM1.856 75.48c.013-.308.075-.371.16-.16.076.191.067.419-.021.507s-.15-.068-.139-.347zm23.04-.375c0-.364.06-.513.133-.331s.073.48 0 .661-.133.033-.133-.331zm-20.923-.419c.013-.308.075-.371.16-.16.076.191.067.419-.021.507s-.15-.068-.139-.347zm67.49-1.169c0-.364.06-.513.133-.331s.073.48 0 .661-.133.033-.133-.331zM1.592 72.57c.013-.308.075-.371.16-.16.076.191.067.419-.021.507s-.15-.068-.139-.347zm46.302-.529c.013-.308.075-.371.16-.16.076.191.067.419-.021.507s-.15-.068-.139-.347zm-23.283-.265c.013-.308.075-.371.16-.16.076.191.067.419-.021.507s-.15-.068-.139-.347zm47.935-.772c.003-.582.057-.789.12-.46s.061.805-.005 1.058-.118-.016-.115-.598zm-68.837.243c.013-.308.075-.371.16-.16.076.191.067.419-.021.507s-.15-.068-.139-.347zm43.921-1.058c.013-.308.075-.371.16-.16.076.191.067.419-.021.507s-.15-.068-.139-.347zm-4.029-.309c-.051-.257-.073-.504-.321-3.506-.114-1.382-.266-2.722-.338-2.977s-.016-.463.125-.463c.312 0 .728 2.903.626 4.366-.055.789-.005.957.197.661.165-.242.273-.274.275-.082.002.173-.095.376-.216.451s-.167.499-.102.942c.099.672-.124 1.223-.246.607zm27.623-1.257c.003-.582.057-.789.12-.46s.061.805-.005 1.058-.118-.016-.115-.598zm-70.16-1.08c.013-.308.075-.371.16-.16.076.191.067.419-.021.507s-.15-.068-.139-.347zm2.402-.11c0-.364.06-.513.133-.331s.073.48 0 .661-.133.033-.133-.331zm68.811-1.588c0-.509.054-.718.121-.463s.067.671 0 .926-.121.046-.121-.463zM.82 64.787c0-.364.06-.513.133-.331s.073.48 0 .661-.133.033-.133-.331zm4.056-1.669c-.229-2.748-.167-2.961.86-2.961.447 0 .745.11.662.243s.052.166.304.069.387-.065.304.068c-.194.314.817.637 1.219.389.206-.127.236-.074.091.16-.159.257-.095.304.237.176.306-.117.392-.074.265.132s-.041.25.265.132c.25-.096.392-.073.315.05-.2.323 1.854 1.191 2.246.949.204-.126.261-.094.151.083-.214.347.759.7 1.192.433.206-.127.236-.074.091.16-.159.257-.095.304.237.176.306-.117.392-.074.265.132-.125.201-.046.251.229.146.241-.092.48.001.564.22.18.469.259.47-3.895-.037-3.418-.418-3.418-.418-4.416.557s-.999.975-1.186-1.28zm-1.675.876c0-.364.06-.513.133-.331s.073.48 0 .661-.133.033-.133-.331zm11.6.425c0-.057.185-.175.411-.262.235-.09.342-.046.249.104-.155.251-.66.372-.66.158zm56.133-.954c0-.364.06-.513.133-.331s.073.48 0 .661-.133.033-.133-.331zM2.937 60.818c0-.364.06-.513.133-.331s.073.48 0 .661-.133.033-.133-.331zm69.081-1.455c.003-.582.057-.789.12-.46s.061.805-.005 1.058-.118-.016-.115-.598zm-1.323-.794c.003-.582.057-.789.12-.46s.061.805-.005 1.058-.118-.016-.115-.598zm-70.69-1.61c.013-.308.075-.371.16-.16.076.191.067.419-.021.507s-.15-.068-.139-.347zm70.41-3.682c.005-.437.065-.583.132-.326s.063.615-.01.794-.127-.031-.122-.468zm1.603-3.175c.003-.582.057-.789.12-.46s.061.805-.005 1.058-.118-.016-.115-.598zm-1.857-1.191c0-.509.055-.718.121-.463s.067.671 0 .926-.121.046-.121-.463zm6.31-1.742c.013-.308.075-.371.16-.16.076.191.067.419-.021.507s-.15-.068-.139-.347zm-4.193-3.55c0-.509.054-.718.121-.463s.067.671 0 .926-.121.046-.121-.463zm-2.391-.132c.005-.437.065-.583.132-.326s.063.615-.01.794-.127-.031-.122-.468zm7.113-.287c.013-.308.075-.371.16-.16.076.191.067.419-.021.507s-.15-.068-.139-.347zm-7.362-4.476c.003-.582.057-.789.12-.46s.061.805-.005 1.058-.118-.016-.115-.598zm2.91-.265c.003-.582.057-.789.12-.46s.061.805-.005 1.058-.118-.016-.115-.598zm-1.439-.842c.191-.076.419-.067.507.021s-.068.15-.347.139c-.308-.013-.371-.075-.16-.16zm7.479-6.059c.013-.308.075-.371.16-.16.076.191.067.419-.021.507s-.15-.068-.139-.347zm-1.923-1.879c.191-.076.419-.067.507.021s-.068.15-.347.139c-.308-.013-.371-.075-.16-.16zm36.629-1.01c.003-.582.057-.789.12-.46s.061.805-.005 1.058-.118-.016-.115-.598zM79.34 26.224c-.641-.728-.641-.728.086-.086.68.6.849.814.641.814-.047 0-.375-.327-.728-.728zm1.674.545c.255-.067.671-.067.926 0s.046.121-.463.121-.718-.054-.463-.121zm14.817-.794c.255-.067.671-.067.926 0s.046.121-.463.121-.718-.054-.463-.121zm5.561-.266c.257-.067.615-.063.794.01s-.031.127-.468.122-.583-.065-.326-.132zm4.228-.264c.255-.067.671-.067.926 0s.046.121-.463.121-.718-.054-.463-.121zm-38.451-1.604c-.641-.728-.641-.728.086-.086.68.6.849.814.641.814-.047 0-.375-.327-.728-.728zm6.585.547c.191-.076.419-.067.507.021s-.068.15-.347.139c-.308-.013-.371-.075-.16-.16zm.843-.185c0-.056.238-.164.529-.24s.529-.03.529.101-.238.24-.529.24-.529-.046-.529-.101zm-3.253-1.456c-.82-.876-1.269-1.622-1.394-2.315-.101-.562-.504-2.273-.894-3.8-.831-3.254-.829-3.166-.158-6.136.519-2.3.519-2.3 2.183-2.478 1.622-.174 2.134-.484 1.2-.728-.255-.067-.046-.133.463-.148.703-.02.83.038.529.24-.286.192-.009.246.992.194 1.518-.079 1.911-.45.529-.5-.681-.025-.587-.077.455-.251.723-.121 1.368-.166 1.433-.101s-.08.119-.322.119-.441.119-.441.265.223.265.495.265c.412 0 .525.277.672 1.654.418 3.918.51 4.373.707 3.506.148-.653.186-.551.211.573.018.79-.092 1.408-.261 1.465-.202.067-.234.726-.102 2.135.105 1.121.296 1.973.425 1.893s.224.13.213.466-.081.462-.154.28c-.242-.599-.505-.345-.548.529-.035.701.001.762.19.331.219-.498.233-.5.251-.029.01.275-.174.641-.41.813s-.465.647-.51 1.055c-.108.985-.415 1.25-1.908 1.643-2.155.568-2.522.479-3.848-.938zm4.775 1.118c.182-.073.48-.073.661 0s.033.133-.331.133-.513-.06-.331-.133zm1.025-.3c-.072-.116-.021-.384.113-.595.19-.3.244-.254.247.211.004.612-.13.756-.36.384zm.406-1.906c0-.364.06-.513.133-.331s.073.48 0 .661-.133.033-.133-.331zm.563-5.424c.002-.728.053-.994.114-.592s.059.998-.004 1.323-.113-.004-.111-.731zm36.437.826c0-.055.208-.263.463-.463.42-.329.429-.32.1.1-.346.441-.563.581-.563.363zm14.213-2.227c-.322-.657 1.025-3.638 1.666-3.686.47-.035.483.013.141.54-.206.318-.514 1.136-.683 1.817-.277 1.11-.88 1.824-1.124 1.329zm-81.681-2.007c0-.055.208-.263.463-.463.42-.329.429-.32.1.1-.346.441-.563.581-.563.363zm79.342-.297c-.018-.073-.053-.281-.078-.463s-.189-.301-.364-.265-.289-.083-.253-.265-.091-.298-.284-.258-.28-.041-.194-.18.035-.328-.113-.419-.269-.294-.269-.451c0-.253 2.292-.126 2.56.142.174.174-.501 1.762-.749 1.762-.14 0-.181.119-.091.265s.097.265.016.265-.163-.06-.181-.132zm-83.443-.945c-.582-.28-.761-.435-.397-.344.749.187 2.124.876 1.72.862-.146-.005-.741-.238-1.323-.518zm2.249.448c0-.055.208-.263.463-.463.42-.329.429-.32.1.1-.346.441-.563.581-.563.363zm32.364-2.017c0-.946.048-1.333.107-.86a8.42 8.42 0 0 1 0 1.72c-.059.473-.107.086-.107-.86zm45.159 1.339c0-.137.118-.322.262-.411.15-.093.194.014.104.249-.176.458-.366.542-.366.162zm-79.97-.503c-.607-.366-.734-.635-.767-1.63-.04-1.191-.04-1.191-.225 0s-.185 1.191-.225.066-.04-1.124-1.296-1.166-1.257-.042.066-.198c.835-.099 1.162-.223.885-.337a1.89 1.89 0 0 0-.926-.083c-2.994.599-3.015.423-.225-1.845 2.42-1.968 7.186.845 5.539 3.269-.354.52-.643 1.036-.643 1.146 0 .99-1.15 1.4-2.182.777zm87.399-.225c-.036-.542.432-.626.809-.145.322.41.314.423-.077.118-.357-.279-.462-.279-.574 0-.094.235-.144.243-.158.027zM51.001 9.572c.191-.076.419-.067.507.021s-.068.15-.347.139c-.308-.013-.371-.075-.16-.16zm-22.242-.524c.182-.073.48-.073.661 0s.033.133-.331.133-.513-.06-.331-.133zm29.65-.27c.191-.076.419-.067.507.021s-.068.15-.347.139c-.308-.013-.371-.075-.16-.16zm62.756.081c0-.055.208-.263.463-.463.42-.329.429-.32.1.1-.346.441-.563.581-.563.363zM35.44 8.52c0-.144.327-.551.728-.904.728-.641.728-.641.066.152-.364.437-.691.843-.728.904s-.066-.008-.066-.152zm25.35-.006c.191-.076.419-.067.507.021s-.068.15-.347.139c-.308-.013-.371-.075-.16-.16zm-23.829-.271a3.77 3.77 0 0 1 1.191 0c.327.063.06.115-.595.115s-.923-.052-.595-.115zm25.946.006c.191-.076.419-.067.507.021s-.068.15-.347.139c-.308-.013-.371-.075-.16-.16zm66.804-.111c-.191-.191-.212-.567-.061-1.094.326-1.136.379-1.106.379.217l-.013 1.169c-.007 0-.144-.131-.305-.291zM44.833 6.088c-1.164-1.137-2.411-2.414-2.77-2.839s.623.476 2.183 2.002c2.599 2.541 2.965 2.926 2.77 2.91-.036-.003-1.019-.936-2.183-2.072zm3.522 1.897c.191-.076.419-.067.507.021s-.068.15-.347.139c-.308-.013-.371-.075-.16-.16zm19.558-.117c.179-.181.393-.262.474-.181s-.065.229-.326.329c-.377.144-.407.113-.148-.148zm-15.871-.142c.182-.073.48-.073.661 0s.033.133-.331.133-.513-.06-.331-.133zm3.985-.27c.191-.076.419-.067.507.021s-.068.15-.347.139c-.308-.013-.371-.075-.16-.16zm14.274-.006c.329-.063.805-.061 1.058.005s-.016.118-.598.115-.789-.057-.46-.12zm57.238-.883c-.786-.576-1.246-1.047-1.02-1.047a.66.66 0 0 0 .563-.399c.084-.22.459-.538.832-.709.389-.177.622-.459.545-.659-.074-.192-.029-.35.1-.35s.279.135.334.3c.069.208.352.169.922-.126.823-.425.823-.425.126 1.524s-.696 1.949-1.826 1.171c-.622-.428-1.13-.672-1.13-.542s.414.458.919.731.978.648 1.05.835c.17.444.233.476-1.415-.73zm-68.217.622c.257-.067.615-.063.794.01s-.031.127-.468.122-.583-.065-.326-.132zm70.845-1.536c0-.146.115-.443.256-.661s.256-.278.256-.132-.115.443-.256.661-.256.278-.256.132zm.934-2.446c.123-.483.062-.566-.329-.443-.46.144-.46.138.003-.158.643-.411.863-.14.483.597-.308.598-.308.598-.157.004zm-92.499-.928C39.698 1.11 39.936.9 39.936 1.099c0 .042-.566.608-1.257 1.257-1.257 1.18-1.257 1.18-.077-.077zm90.763.86c.218-.141.516-.256.661-.256s.086.115-.132.256-.516.256-.661.256-.086-.115.132-.256zM42.797 1.37c.191-.076.419-.067.507.021s-.068.15-.347.139c-.308-.013-.371-.075-.16-.16zm-2.117-.265c.191-.076.419-.067.507.021s-.068.15-.347.139c-.308-.013-.371-.075-.16-.16z" fill="#fad093"/><path d="M105.04 171.525c.013-.308.075-.371.16-.16.076.191.067.419-.021.507s-.15-.068-.139-.347zm-28.596-6.808c0-.046.387-.432.86-.86.86-.777.86-.777.083.083-.724.802-.943.982-.943.777zm-4.185-1.372c.166-.364.511-.661.766-.661.784 0 1.302-.3 1.306-.756.003-.367.042-.375.247-.05.185.292-.068.594-1.052 1.257-1.554 1.047-1.656 1.064-1.268.211zm7.271-1.499c.983-1.007 1.515-1.378.883-.617-.384.463.014.542.464.092.214-.214.225-.471.038-.86-.241-.501-.231-.511.101-.101.247.305.455.366.634.187s.378-.133.605.142c.331.399.127.552-.586.439-.109-.017-.198.085-.198.226s-.354.441-.787.665c-.734.379-.775.375-.617-.059.155-.425.12-.422-.398.032-.312.274-.516.582-.453.684s-.064.185-.281.185c-.248 0-.026-.379.595-1.014zm-3.086-.186c.364-.304.781-.556.926-.562s.086-.136-.132-.291c-.263-.186-.278-.249-.046-.188.585.155.404.525-.525 1.072-.884.52-.884.52-.222-.032zm1.428-1.137c-.115-.186-.07-.23.118-.114.168.104.305.077.305-.061s.238-.312.529-.388c.696-.182.668-.075-.118.44-.467.306-.7.34-.835.122zm2.011-.766c0-.154.119-.207.265-.117s.265.216.265.28-.119.117-.265.117-.265-.126-.265-.28zm20.902-37.655c0-.055.208-.263.463-.463.42-.329.429-.32.1.1-.346.441-.563.581-.563.363zM26.194 89.768c.013-.308.075-.371.16-.16.076.191.067.419-.021.507s-.15-.068-.139-.347zm1.978-1.803c-.197-2.111-.941-15.96-.941-17.526 0-1.212 0-1.212 5.199-1.017 8.817.331 8.483-.704 2.688 8.329-5.601 8.73-5.69 8.876-5.261 8.611.164-.101 3.16-3.33 6.657-7.176 5.633-6.193 6.856-7.413 6.856-6.84 0 .083.31 1.482.689 3.109 1.463 6.278 1.457 6.291-4.525 9.336-2.889 1.471-5.119 2.721-4.955 2.778s-1.177.533-2.979 1.057c-3.278.953-3.278.953-3.429-.661zm-5.979-2.467c-.649-.687-.912-1.026-.584-.753s.595.396.595.274.357.119.794.538c.78.747.998 1.191.584 1.191-.115 0-.74-.562-1.389-1.249zm.805.356c0-.055-.208-.263-.463-.463-.42-.329-.429-.32-.1.1.346.441.563.581.563.363zm-1.736-2.083c-.777-.86-.777-.86.083-.083.473.427.86.814.86.86 0 .204-.218.024-.943-.777zm-2.375-1.323c-1.313-1.389-1.313-1.389.076-.076 1.291 1.22 1.51 1.465 1.313 1.465-.042 0-.667-.625-1.389-1.389zM8.752 82.25c0-.364.06-.513.133-.331s.073.48 0 .661-.133.033-.133-.331zm10.786-.463c-.641-.728-.641-.728.086-.086.68.6.849.814.641.814-.047 0-.375-.327-.728-.728zM6.614 80.773c.013-.308.075-.371.16-.16.076.191.067.419-.021.507s-.15-.068-.139-.347zm11.336-.838c-.641-.728-.641-.728.086-.086.68.6.849.814.641.814-.047 0-.375-.327-.728-.728zm-9.453-.198c.005-.437.065-.583.132-.326s.063.615-.01.794-.127-.031-.122-.468zm6.685-.728c-1.313-1.389-1.313-1.389.076-.076 1.291 1.22 1.51 1.465 1.313 1.465-.042 0-.667-.625-1.389-1.389zm-8.792-.992c0-.509.054-.718.121-.463s.067.671 0 .926-.121.046-.121-.463zm9.973.066c-.641-.728-.641-.728.086-.086.68.6.849.814.641.814-.047 0-.375-.327-.728-.728zm-8.121-1.125c0-.509.054-.718.121-.463s.067.671 0 .926-.121.046-.121-.463zm3.236-1.389c-1.313-1.389-1.313-1.389.076-.076 1.291 1.22 1.51 1.465 1.313 1.465-.042 0-.667-.625-1.389-1.389zm3.297.661c-.641-.728-.641-.728.086-.086.68.6.849.814.641.814-.047 0-.375-.327-.728-.728zm-8.66-1.257c.005-.437.065-.583.132-.326s.063.615-.01.794-.127-.031-.122-.468zm7.072-.595c-.641-.728-.641-.728.086-.086.68.6.849.814.641.814-.047 0-.375-.327-.728-.728zm-5.23-.066c0-.364.06-.513.133-.331s.073.48 0 .661-.133.033-.133-.331zm.467-1.521c-.641-.728-.641-.728.086-.086.68.6.849.814.641.814-.047 0-.375-.327-.728-.728zm3.175-.265c-.641-.728-.641-.728.086-.086.68.6.849.814.641.814-.047 0-.375-.327-.728-.728zm60.895-.22c.013-.308.075-.371.16-.16.076.191.067.419-.021.507s-.15-.068-.139-.347zm-62.483-1.632c-.641-.728-.641-.728.086-.086.68.6.849.814.641.814-.047 0-.375-.327-.728-.728zm31.831-.981c-.701-.591-.939-.668-1.252-.407-.32.265-.434.19-.656-.435-.538-1.515-.574-1.533-3.801-1.919-3.949-.472-3.958-.459 1.73-2.376 5.534-1.865 5.101-1.997 5.39 1.65.316 3.988.317 3.884-.048 3.582-.228-.189-.346-.136-.409.184-.075.384-.214.344-.953-.279zm-33.225-.627c-.628-.694-.549-.844.422-.799.833.038.837.043.109.152s-.734.131-.29.622c.254.28.401.509.329.509s-.329-.218-.57-.484zm10.349-.237a7.03 7.03 0 0 1 1.587.003c.398.06.008.109-.865.107s-1.198-.051-.723-.11zm-5.826-.264a8.42 8.42 0 0 1 1.72 0c.473.059.086.107-.86.107s-1.333-.048-.86-.107zm-7.484-3.711c1.064-1.125 1.466-1.381 2.117-1.349.804.04.804.04.01.151-.477.067-1.321.605-2.117 1.349-1.323 1.238-1.323 1.238-.01-.151zm6.426-.771c.182-.073.48-.073.661 0s.033.133-.331.133-.513-.06-.331-.133zm-2.381-.265c.182-.073.48-.073.661 0s.033.133-.331.133-.513-.06-.331-.133zm68.614-45.752c.013-.308.075-.371.16-.16.076.191.067.419-.021.507s-.15-.068-.139-.347zm-.529-6.615c.013-.308.075-.371.16-.16.076.191.067.419-.021.507s-.15-.068-.139-.347zM37.284 6.447c.342-.364.681-.661.754-.661s-.147.298-.489.661-.681.661-.754.661.147-.298.489-.661z" fill="#f6b676"/><path d="M19.426 181.735c-.535-.591-.861.264 2.667-6.992.844-1.736 1.583-3.012 1.642-2.835s-.002.466-.135.643-.404.858-.602 1.512-.436 1.31-.529 1.455-.331.8-.529 1.455-.436 1.31-.529 1.455-.336.8-.539 1.455c-.686 2.21-.888 2.468-1.446 1.851zm17.34-9.061l-3.276-6.548c.153 0 .185.034 2.738 2.912l2.712 3.009c.976 1.036.329 2.281-1.186 2.281-.063 0-.507-.744-.987-1.654zm-12.965-1.389c0-.146.115-.443.256-.661s.256-.278.256-.132-.115.443-.256.661-.256.278-.256.132zm-4.895-5.552l4.969-6.332c2.281-2.798 2.111.32 2.465-45.332l.354-20.968c.105 0 .27 9.495.366 21.101l.345 32.626c.171 11.525.171 11.525-.564 12.103-.404.318-2.118 1.875-3.81 3.461-4.328 4.058-5.167 4.737-4.126 3.342zm97.03-41.213c-.275-.346-.595-1.052-2.285-5.027l-1.588-3.704-.926-2.114c-.308-.69-.56-1.312-.56-1.382s-.357-.908-.794-1.862-.794-1.791-.794-1.862-.252-.693-.56-1.382l-.926-2.114-.732-1.72-.926-2.114c-.308-.69-.56-1.312-.56-1.382s-.357-.908-.794-1.862-.794-1.791-.794-1.862-.252-.693-.56-1.382l-.895-2.048-1.69-3.9c-.308-.69-.56-1.311-.56-1.381s-.286-.756-.635-1.524c-1.071-2.357-1.494-3.457-1.376-3.576.062-.062.314.343.56.901l6.242 14.044c.307.691.664 1.464.794 1.716s.236.64.236.86.119.4.265.4.265.231.265.514.119.587.265.677.265.395.265.677.119.514.265.514.265.18.265.4.106.607.236.86.487 1.025.794 1.716l4.291 9.657c.307.691.664 1.464.794 1.716s.236.64.236.86.119.4.265.4.265.167.265.372.255.889.567 1.521.652 1.388.756 1.679.444 1.046.756 1.679c.688 1.395.406 2.081-.424 1.033zm-6.549-1.079c-.437-.162-1.831-.983-3.099-1.824s-2.429-1.529-2.58-1.529-.275-.119-.275-.265-.124-.265-.276-.265-.42-.12-.595-.266-.915-.652-1.643-1.125c-1.323-.859-1.323-.859-1.513-2.843l-.996-8.996-.511-4.366-1.077-8.996c-.396-3.218-.606-5.826-.459-5.689.078.073.819 1.859 1.646 3.969l1.744 4.432c.713 1.762.851 2.089 1.065 2.51.129.253.234.581.234.73s.225.776.5 1.393 1.119 2.729 1.877 4.694l1.652 4.233 1.009 2.513 3.987 10.117c.52 1.166.643 1.941.302 1.893-.109-.016-.556-.161-.992-.323zm-11.88-41.876c-.094-.245-.112-.506-.039-.578s.209.069.304.314.112.506.039.578-.209-.069-.303-.314zm-.512-1.076a.73.73 0 0 1-.176-.45c0-.166.123-.15.313.04.172.172.252.375.176.45s-.216.057-.313-.04zm-.547-1.305c-.094-.245-.112-.506-.039-.578s.209.069.304.314.112.506.039.578-.209-.069-.303-.314zm-.539-1.351c-.144-.377-.113-.407.148-.148.181.179.262.393.181.474s-.229-.065-.329-.326zm-40.693-1.4c-.321-1.089-.242-2.697.092-1.861.143.359.225 1.073.182 1.588-.073.862-.094.883-.274.274zm39.111-2.48c-.139-.291-.14-4.169-.003-9.393.128-4.893.199-11.29.157-14.216-.077-5.319-.077-5.319.667-5.609.409-.159 2.232-.775 4.051-1.369s3.514-1.195 3.767-1.337c.591-.331.996-.328.996.008 0 .146-.133.265-.295.265-.445 0-7.285 3.404-7.588 3.777-.39.479-.596 4.133-1.335 23.608-.118 3.115-.262 4.591-.417 4.267zm-39.662-.796c-.099-.259-.173-.67-.164-.913.011-.292.103-.226.272.197.14.351.214.762.164.913s-.173.062-.272-.197zm34.003-1.275c-.175-.175-.317-.42-.317-.546s-.369-1.024-.821-1.998l-1.559-3.357-1.428-3.109-1.381-3.043-1.488-3.241-2.13-4.763c-.403-.945-.365-1.506.339-5.027l1.565-8.202 1.066-5.661c.33-2.062.204-1.994 4.272-2.3l6.326-.501 6.415-.499c2-.146 3.737-.327 3.859-.403.479-.296 5.891-.241 6.195.063.168.168.556.306.861.306s.669.111.807.247c.846.832 2.367.432 2.446-.644.084-1.139.402-1.901 1.656-3.969.442-.728.871-1.531.954-1.786s.257-.463.385-.463.234-.127.234-.283.331-.781.736-1.389.91-1.463 1.124-1.9.448-.853.521-.926.293-.416.488-.764l.836-1.486c.264-.47.967-1.657 1.563-2.637s1.083-1.865 1.083-1.967c0-.82.709-.752 1.641.159 1.209 1.18 1.21 1.205.211 3.387-.437.953-.794 1.786-.794 1.851s-.31.806-.69 1.647l-1.058 2.389-3.411 7.871c-1.377 3.212-.979 3.024-4.762 2.252-3.247-.663-3.308-.662-3.303.028.004.663.496 2.222.901 2.858.188.295.13.333-.267.178-4.563-1.783-4.913-1.74-5.085.633-.135 1.868-.241 1.905-2.259.798-2.494-1.369-2.936-.968-2.121 1.918.193.683-.6.602-3.212-.328-3.118-1.11-3.297-.983-3.304 2.346-.004 1.687-.004 1.687-1.393 1.516-5.805-.718-5.862-.692-4.468 2.018 1.016 1.975 1.016 1.975-.262 3.404-1.455 1.628-1.456 1.631-.812 2.579 2.836 4.172 3.285 6.298 1.658 7.85-1.906 1.818-1.859 1.457-.548 4.23 1.273 2.692 1.264 2.564.198 3.005-3.269 1.353-3.19 1.087-1.393 4.67 1.625 3.241 1.59 4.652-.075 2.988zm-31.762-1.741c-.71-2.653-1.558-6.02-1.912-7.599-.131-.582-.367-1.535-.526-2.117s-.392-1.535-.519-2.117-.356-1.564-.509-2.183l-.556-2.249-.55-2.183c-.322-1.246-.675-4.083-.92-7.408-.27-3.649-.676-3.791-2.595-.906-2.245 3.376-2.669 3.693-2.889 2.163-.423-2.934-1.023-4.829-1.529-4.829-.37 0-.698.393-2.75 3.291-2.035 2.875-1.984 2.913-1.984-1.447 0-4.899.061-4.887-4.123-.785-1.818 1.783-3.342 3.197-3.386 3.142s.038-1.231.182-2.613.274-3.227.289-4.098c.029-1.732-.331-1.493 5.054-3.354.99-.342 2.958-.762 7.144-1.522l2.91-.552c1.627-.324 3.469-.664 5.556-1.024.873-.151 1.855-.353 2.183-.449.919-.269.74.028-1.252 2.083-2.042 2.106-2.278 2.817-1.129 3.398 1.646.833 5.887 3.189 5.887 3.27 0 .048-1.157 1.218-2.571 2.6-2.963 2.896-3.484 1.883 4.883 9.486 1.381 1.255 1.691 2.567.828 3.51-.127.138-.23.518-.23.844s-.119.667-.265.756-.265.507-.265.926-.119.836-.265.926-.265.396-.265.681a2.52 2.52 0 0 1-.239.977c-.131.253-.381.995-.555 1.65s-.424 1.397-.555 1.65-.239.752-.239 1.109-.119.723-.265.813-.265.447-.265.794-.119.704-.265.794-.265.507-.265.926-.119.836-.265.926-.266.424-.269.743c-.009 1.227-.417 1.214-.749-.023zm4.722-20.437l-1.918-2.451c-1.517-1.906-1.531-1.489.115-3.557 1.6-2.011 1.745-1.908 1.964 1.384.068 1.019.251 2.453.408 3.188.434 2.037.247 2.51-.568 1.436zM28.487 38.995c1.118-1.507 1.261-1.635 1.986-1.773.956-.182.915.053-.136.77a44.79 44.79 0 0 0-1.648 1.191c-.791.606-.791.606-.203-.188zm31.156-2.612c-2.338-1.264-2.273-1.069-.794-2.387 1.021-.91 1.37-1.094 1.531-.808.218.389.606 3.844.426 3.796-.057-.015-.581-.285-1.163-.6zM32.16 34.298c.38-.638 1.82-2.448 2.017-2.536.109-.049.198-.316.198-.595 0-.556-.95-.701-1.789-.273-.486.247-1.65.742-2.642 1.125l-1.191.477c-1.756.732-1.894.611-.587-.514 6.408-5.517 6.586-5.806 4.503-7.299-1.456-1.044-1.618-1.35-.924-1.738 4.364-2.44 4.335-2.361 2.053-5.578-.648-.913-.523-1.103 1.262-1.919 1.676-.767 1.896-1.133 1.344-2.239-.221-.442-.321-.803-.223-.803.341.002 2.429 1.496 2.288 1.637-.078.078-.268.843-.423 1.699l-.497 2.616-1.058 5.292-1.068 5.424c-.529 2.843-.74 3.461-1.344 3.941-.347.276-.917.752-1.267 1.058-.722.632-.941.708-.653.226zm6.87-3.612c-.088-.157.098-1.673.637-5.185l.559-3.704.504-3.307.412-2.853c.129-.995.331-1.478.7-1.676.584-.313.583-.261-.073 6.117-.89 8.643-1.415 8.184 8.482 7.416 8.416-.653 11.27-.641 7.106.031l-2.872.49-2.778.508-5.821 1.1-2.91.53c-3.278.603-3.861.682-3.944.534zm44.645-4.635c.097-.254.177-.511.177-.572 0-.264 3.127-.038 3.969.286.926.357.926.357.132.379-.437.012-1.618.1-2.624.195-1.67.158-1.815.132-1.654-.288z" fill="#713ed6"/><path d="M19.18 182.125c-.764-1.002.249-3.493 6.399-15.741 1.815-3.614 1.672-3.117-2.119 7.408-3.677 10.209-3.344 9.56-4.28 8.333zm1.693-2.248c.203-.655.446-1.31.539-1.455s.331-.8.529-1.455.436-1.31.529-1.455.331-.8.529-1.455.469-1.335.602-1.512.194-.466.135-.643-.798 1.099-1.642 2.835c-3.528 7.256-3.202 6.401-2.667 6.992.558.617.76.359 1.446-1.851zm3.441-9.393c0-.146-.115-.086-.256.132s-.256.516-.256.661.115.086.256-.132.256-.516.256-.661zm1.084 5.388c-.085-.797 4.358-11.551 4.652-11.258.048.048-.866 2.4-2.031 5.227-2.365 5.74-2.595 6.27-2.621 6.031zm9.039-6.651c-3.421-6.746-3.627-6.78 2.885.48 3.139 3.5 3.21 5.611.182 5.407-.047-.003-1.427-2.652-3.067-5.887zm4.331 4.672c1.09-.517 1.121-.848.172-1.854-.4-.425-1.621-1.779-2.712-3.009-2.552-2.877-2.584-2.912-2.738-2.912-.119 0 1.019 2.273 3.276 6.548.48.91.924 1.654.987 1.654s.519-.192 1.014-.427zm-20.919-7.643l5.7-7.254c2.19-2.738 2.032-.252 2.248-35.477l.259-27.384c.056-.873.105-1.974.109-2.447.007-.681.118-.86.537-.86.484 0 .529.175.525 2.05l.305 32.852c.31 30.802.31 30.802-.326 31.311-.35.28-1.35 1.184-2.224 2.008l-5.159 4.79-4.733 4.365c-.706.652.374-.897 2.758-3.954zm5.182-3.867c1.691-1.586 3.406-3.143 3.81-3.461.735-.578.735-.578.564-12.103l-.345-32.626-.366-21.101c-.105 0-.265 9.436-.354 20.968-.354 45.652-.185 42.534-2.465 45.332-6.523 8.003-6.642 8.428-.843 2.99zm7.12 1.75c0-.146.115-.443.256-.661s.256-.278.256-.132-.115.443-.256.661-.256.278-.256.132zm55.575-7.96c.013-.308.075-.371.16-.16.076.191.067.419-.021.507s-.15-.068-.139-.347zm-1.037-13.604c0-.364.06-.513.133-.331s.073.48 0 .661-.133.033-.133-.331zm31.796-17.412c-.821-.08-.882-.184-2.885-4.895L96.44 79.971c-1.075-2.489-1.332-3.337-1.156-3.815.318-.861.378-.758 2.978 5.164l6.298 14.288 9.962 22.585c3.233 7.334 3.163 7.083 1.963 6.967zm.442-.423c0-.059-.255-.625-.567-1.257s-.652-1.388-.756-1.679-.444-1.046-.756-1.679-.567-1.317-.567-1.521-.119-.372-.265-.372-.265-.18-.265-.4-.106-.607-.236-.86-.487-1.025-.794-1.716l-4.291-9.657-.794-1.716c-.13-.253-.236-.64-.236-.86s-.119-.4-.265-.4-.265-.231-.265-.514-.119-.587-.265-.677-.265-.395-.265-.677-.119-.514-.265-.514-.265-.18-.265-.4-.106-.607-.236-.86-.487-1.025-.794-1.716l-6.242-14.044c-.246-.558-.498-.963-.56-.901-.118.118.305 1.218 1.376 3.576.349.768.635 1.454.635 1.524s.252.692.56 1.381l1.69 3.9.895 2.048c.308.69.56 1.312.56 1.382s.357.908.794 1.862.794 1.791.794 1.862.252.693.56 1.382l.926 2.114.732 1.72.926 2.114c.308.69.56 1.312.56 1.382s.357.908.794 1.862.794 1.791.794 1.862.252.693.56 1.382l.926 2.114 1.588 3.704c2.233 5.253 2.29 5.358 2.911 5.358.2 0 .364-.048.364-.107zM97.77 81.293c-.094-.245-.231-.387-.304-.314s-.055.333.039.578.231.387.303.314.055-.333-.039-.578zm-.639-1.222c-.19-.19-.313-.205-.313-.04 0 .353.313.666.489.489.075-.075-.004-.278-.176-.45zm-.419-1.16c-.094-.245-.231-.387-.303-.314s-.055.333.039.578.231.387.304.314.055-.333-.039-.578zm-.655-1.235c-.261-.259-.292-.229-.148.148.099.261.247.408.329.326s0-.295-.181-.474zm15.237 46.738c-.09-.09-.7-.264-1.355-.387-.968-.181-9.309-5.164-10.53-6.292-.103-.095-.611-3.803-1.129-8.241l-2.927-25.002c-.168-1.326 2.539 5.363 12.957 32.015l3.06 7.607c.268.464.231.607-.077.299zm-.718-1.029c0-.22-.225-.904-.5-1.521-.412-.924-1.39-3.406-3.987-10.117l-1.009-2.513c-.151-.364-.895-2.269-1.652-4.233l-1.877-4.693c-.275-.617-.5-1.244-.5-1.393s-.105-.478-.234-.73c-.214-.421-.353-.748-1.065-2.51l-1.744-4.432c-.827-2.11-1.567-3.896-1.646-3.969-.147-.137.064 2.471.459 5.689l1.588 13.361.996 8.996c.191 1.984.191 1.984 1.513 2.843.728.472 1.467.978 1.643 1.125s.444.266.595.266.276.119.276.265.124.265.275.265 1.312.688 2.58 1.529c1.998 1.326 3.367 2.044 4.091 2.147.109.016.198-.152.198-.372zM95.292 97.327c0-.509.054-.718.121-.463s.066.671 0 .926-.121.046-.121-.463zm-.274-7.276c.005-.437.065-.583.132-.326s.063.615-.01.794-.127-.031-.122-.468zm-.249-6.879c.003-.582.057-.789.12-.46s.061.805-.005 1.058-.118-.016-.115-.598zm-39.584-4.366c-.206-.593-2.569-15.417-2.473-15.513.045-.045.599 1.968 1.231 4.474l1.737 6.764c.554 2.078.101 5.992-.494 4.275zm.123-4.242c-.247-.618-.261-.603-.274.274-.021 1.457.353 2.534.455 1.314.043-.514-.038-1.229-.182-1.588zm-.534-2.13c-.169-.423-.261-.49-.272-.197-.022.586.32 1.458.436 1.11.05-.151-.024-.561-.164-.913zm39.457 2.305c-.533-1.394-.542-1.671-.313-10.126l.245-14.283c.009-5.59.009-5.59.737-5.879 1.869-.742 14.219-4.803 14.411-4.739.12.04-2.761 1.558-6.402 3.374-6.243 3.114-6.626 3.347-6.736 4.099-.064.439-.246 4.37-.403 8.736l-.923 20.18c-.037.039-.315-.573-.616-1.362zm.981-16.834c.369-9.05.544-11.436.868-11.834.303-.372 7.142-3.777 7.588-3.777.162 0 .295-.119.295-.265 0-.335-.405-.338-.996-.008-.253.141-1.948.743-3.767 1.337l-4.051 1.369c-.744.29-.744.29-.667 5.609.042 2.925-.028 9.323-.157 14.216-.137 5.223-.136 9.102.003 9.393.155.324.299-1.151.417-4.267l.467-11.774zM56.506 70.123l-2.843-11.557c-1.758-7.086-2.147-9.049-2.382-12.039-.457-5.8-.276-5.674-2.857-1.984-1.069 1.528-2.039 2.778-2.157 2.778-.247 0-.262-.049-1.064-3.638-.741-3.312-.444-3.359-3.293.529-2.374 3.241-2.374 3.241-2.525-.79-.189-5.039.133-4.95-3.943-1.093-3.74 3.54-4.072 3.783-3.86 2.835.076-.342.258-1.752.403-3.135l.438-3.77c.232-1.685.131-1.651-3.338 1.124-1.637 1.31-3.032 2.381-3.101 2.381-.155 0 .778-1.235 4.821-6.382l3.263-4.254c.185-.444-.738-.159-4.44 1.369-4.423 1.825-4.619 1.82-2.505-.073 7.833-7.013 7.247-6.109 5.018-7.746-2.08-1.527-2.106-1.19.186-2.459 3.215-1.779 3.081-1.555 1.994-3.368-1.737-2.896-1.765-2.584.326-3.565 2.121-.995 2.026-.813 1.232-2.379-.872-1.719-.287-1.583 2.935.683.083.058-3.584 18.335-3.795 18.915-.079.218-1.176 1.229-2.436 2.247-2.839 2.291-2.567 2.367 2.405.673 3.734-1.273 6.514-1.891 17.383-3.864l4.035-.753c.774-.175.548.176-1.654 2.575-2.615 2.849-2.728 2.421 1.188 4.53 4.114 2.216 4.015 1.782 1.058 4.608-3.089 2.953-3.302 2.166 1.866 6.913 4.719 4.335 4.663 4.245 3.865 6.179-.17.412-.248.849-.173.97s0 .265-.166.32-.315.47-.332.923-.106.776-.197.72c-.239-.146-.526 1.477-.321 1.81.095.153.049.203-.1.11-.344-.213-.999 2.041-.723 2.488.119.193.093.259-.066.161s-.895 1.891-1.834 4.968c-1.566 5.133-1.566 5.133-2.308 2.043zm1.149.034c.002-.319.123-.653.269-.743s.265-.507.265-.926.119-.836.265-.926.265-.447.265-.794.119-.704.265-.794.265-.456.265-.813.107-.856.239-1.109.381-.995.555-1.65.424-1.397.555-1.65a2.52 2.52 0 0 0 .239-.977c0-.284.119-.591.265-.681s.265-.507.265-.926.119-.836.265-.926.265-.43.265-.756.104-.706.23-.844c.863-.942.553-2.254-.828-3.51-8.367-7.604-7.846-6.59-4.883-9.486 1.414-1.382 2.571-2.552 2.571-2.6 0-.081-4.241-2.437-5.887-3.27-1.149-.582-.913-1.292 1.129-3.398 1.992-2.054 2.171-2.352 1.252-2.083-.327.096-1.31.298-2.183.449l-5.556 1.024-2.91.552c-4.186.76-6.154 1.18-7.144 1.522-5.385 1.862-5.025 1.622-5.054 3.354-.015.871-.145 2.716-.289 4.098s-.226 2.558-.182 2.613 1.567-1.359 3.386-3.142c4.184-4.102 4.123-4.114 4.123.785 0 4.36-.051 4.323 1.984 1.447 2.051-2.898 2.38-3.291 2.75-3.291.506 0 1.106 1.895 1.529 4.829.22 1.53.644 1.213 2.889-2.163 1.918-2.885 2.325-2.743 2.595.906.246 3.325.598 6.163.92 7.408l.55 2.183.556 2.249.509 2.183a50.93 50.93 0 0 0 .519 2.117 58.56 58.56 0 0 1 .526 2.117c.355 1.579 1.202 4.946 1.912 7.599.331 1.238.74 1.251.749.024zM30.339 37.984c1.05-.717 1.092-.951.136-.77-.725.138-.868.266-1.986 1.773-.589.794-.589.794.203.188a44.61 44.61 0 0 1 1.648-1.191zm2.476-3.919a41.82 41.82 0 0 1 1.267-1.058c.604-.48.815-1.099 1.344-3.941l1.068-5.424 1.058-5.292.497-2.616c.155-.857.345-1.621.423-1.699.141-.141-1.948-1.635-2.288-1.637-.098-.001.002.361.223.803.552 1.107.332 1.473-1.344 2.239-1.785.816-1.91 1.007-1.262 1.919 2.282 3.216 2.311 3.137-2.053 5.578-.694.388-.531.694.924 1.738 2.083 1.494 1.905 1.783-4.503 7.299-1.307 1.125-1.169 1.245.587.514l1.191-.477c.993-.382 2.157-.878 2.642-1.125.84-.427 1.789-.282 1.789.273 0 .279-.089.547-.198.595s-.563.564-1.009 1.147c-1.39 1.815-1.496 2.163-.354 1.163zm56.559 38.466c-.921-.098-1.004-.194-1.959-2.271-9.279-20.19-8.79-18.859-8.146-22.154l1.118-5.812c1.589-8.404 2.179-11.254 2.372-11.447.207-.207 6.194-.762 22.254-2.062l3.704-.311c.076-.012.318.055.536.149s1.052.399 1.852.676l1.918.693c.405.164.463.018.463-1.181 0-1.3.243-1.78 4.895-9.651l4.895-8.529c0-.916.655-.716 1.87.568 1.585 1.676 1.62 1.056-.31 5.526l-6.737 15.476c-.045.052-1.541-.213-3.325-.588-3.738-.785-3.663-.806-3.03.834 1.035 2.678.941 2.694-4.125.717-.384-.15-.468.112-.628 1.946-.185 2.119-.185 2.119-2.391 1.025-2.578-1.279-2.68-1.243-2.103.742.604 2.079.946 2.024-3.895.629-2.452-.707-2.285-.83-2.491 1.837-.193 2.506.053 2.395-4.09 1.844-2.923-.389-2.965-.339-1.701 2.02 1.037 1.936 1.037 1.936-.277 3.434s-1.314 1.498.547 5.181 1.861 3.683.34 5.22c-1.791 1.81-1.775 1.702-.607 4.196 1.298 2.771 1.317 2.664-.643 3.537-2.183.972-2.167.801-.427 4.405 1.465 3.035 1.665 3.582 1.281 3.495-.109-.024-.631-.09-1.16-.146zm.829-.537c0-.109-.657-1.507-1.459-3.107-1.797-3.583-1.876-3.317 1.393-4.67 1.066-.441 1.075-.313-.198-3.005-1.311-2.772-1.358-2.412.548-4.23 1.627-1.552 1.178-3.677-1.658-7.85-.644-.948-.643-.951.812-2.579 1.277-1.429 1.277-1.429.262-3.404-1.394-2.71-1.336-2.736 4.468-2.018 1.389.172 1.389.172 1.393-1.516.007-3.329.186-3.456 3.304-2.346 2.612.93 3.405 1.011 3.212.328-.815-2.887-.373-3.287 2.121-1.918 2.018 1.108 2.124 1.07 2.259-.798.172-2.373.522-2.416 5.085-.633.397.155.455.117.267-.178-.406-.636-.897-2.194-.901-2.858-.004-.69.056-.691 3.303-.028 3.783.772 3.386.96 4.762-2.252l3.411-7.871 1.058-2.389c.38-.841.69-1.582.69-1.647s.357-.898.794-1.851c1-2.182.998-2.207-.211-3.387-.933-.911-1.641-.979-1.641-.159 0 .102-.487.987-1.083 1.967l-1.563 2.637-.836 1.486c-.196.347-.415.691-.488.764s-.307.489-.521.926-.719 1.292-1.124 1.9-.736 1.233-.736 1.389-.105.283-.234.283-.302.208-.385.463-.513 1.058-.954 1.786c-1.255 2.067-1.573 2.83-1.656 3.969-.079 1.076-1.599 1.476-2.446.644-.138-.136-.501-.247-.807-.247s-.693-.138-.861-.306c-.304-.304-5.716-.359-6.195-.063-.122.076-1.859.257-3.859.403l-6.415.499-6.326.501c-4.068.306-3.941.238-4.272 2.3-.232 1.447-.449 2.601-1.066 5.661l-1.565 8.202c-.704 3.521-.742 4.082-.339 5.027a159.76 159.76 0 0 0 2.13 4.763l1.488 3.241 1.381 3.043 1.428 3.109 1.558 3.357c.451.973.821 1.872.821 1.998 0 .425.632.863 1.243.863.335 0 .608-.089.608-.198zM61.609 50.196c-4.038-5.032-3.873-4.447-1.922-6.836 2.121-2.597 2.004-2.73 2.604 2.932.554 5.227.523 5.405-.682 3.904zm.588-1.935c-.156-.735-.34-2.17-.408-3.188-.219-3.292-.364-3.394-1.964-1.384-1.645 2.067-1.632 1.65-.115 3.557l1.918 2.451c.815 1.074 1.002.602.568-1.436zm-3.606-11.967c-2.021-1.037-2.025-1.022 1.127-3.457 1.088-.841 1.033-.924 1.307 1.985.273 2.898.307 2.878-2.434 1.472zm2.159-1.018c-.242-2.589-.355-2.665-1.9-1.289-1.252 1.116-1.295 1.196-.794 1.497.656.394 2.609 1.453 2.75 1.49.057.015.032-.749-.057-1.699zm1.714-4.094c0-.364.06-.513.133-.331s.073.48 0 .661-.133.033-.133-.331zm-24.022-.425c.086-.276.27-1.275.409-2.221l.782-5.159.976-6.35c.355-2.314.562-3.004 1.01-3.368.655-.532 1.524-.62 1.361-.138-.158.466-1.515 13.994-1.411 14.072.073.055 10.557-.693 18.407-1.313 3.513-.277 3.513.392 0 1.049l-10.782 2.012-5.573 1.055c-4.579.887-5.36.942-5.179.361zm4.534-.612l2.91-.53 5.821-1.1 2.778-.508 2.872-.49c4.165-.671 1.31-.684-7.106-.031-9.897.768-9.371 1.227-8.482-7.416.657-6.378.657-6.429.073-6.117-.369.197-.571.68-.7 1.676l-.412 2.853-.504 3.307-.559 3.704c-.945 6.154-1.399 5.517 3.307 4.651zm40.348-4.382c.121-.535.268-1.022.328-1.082s2.243.217 4.852.616c5.374.822 5.308.865-1.909 1.251-3.491.187-3.491.187-3.272-.786zm4.631.374c.794-.022.794-.022-.132-.379-.842-.324-3.969-.55-3.969-.286 0 .061-.08.318-.177.572-.161.42-.016.446 1.654.288 1.007-.095 2.188-.183 2.624-.195zm38.85-7.39c.374-1.273 1.591-3.969 1.791-3.969.374 0 .277.272-.849 2.381-.583 1.091-1.007 1.806-.942 1.587zm3.947-8.518c-.184-.222-.212-.509-.07-.739.128-.206.166-.482.085-.613s.106-.102.414.063c.653.349.687.537.216 1.181-.288.394-.394.412-.646.108z" fill="#7043cb"/><path d="M24.33 177.895c0-.146.115-.443.256-.661s.256-.278.256-.132-.115.443-.256.661-.256.278-.256.132zm.673-1.72a4.86 4.86 0 0 1 .422-1.058c.17-.276.191-.195.068.265a4.86 4.86 0 0 1-.422 1.058c-.17.276-.191.195-.068-.265zm-12.48-1.364c-.12-.195-.072-.233.133-.106.181.112.575-.014.901-.29.579-.489.579-.489.075.106-.565.668-.832.737-1.109.29zm-.107-1.884c0-.04.923-.963 2.05-2.05 2.05-1.978 2.05-1.978.073.073-1.837 1.905-2.123 2.171-2.123 1.978zm13.766-.06c0-.146.115-.443.256-.661s.256-.278.256-.132-.115.443-.256.661-.256.278-.256.132zm-10.591-.215c0-.046.387-.432.86-.86.86-.777.86-.777.083.083-.724.802-.943.982-.943.777zm23.534-.909c-.912-.992-.912-.992.08-.08l.992.992c0 .202-.224.012-1.073-.912zm61.647-1.583c-.501-.542-.67-.786-.376-.542a4.63 4.63 0 0 0 1.114.658c.37.137.506.333.376.542-.143.232-.47.039-1.114-.658zm-63.898-.931c-.777-.86-.777-.86.083-.083.802.724.982.943.777.943-.046 0-.432-.387-.86-.86zm-18.107.513c0-.046.387-.432.86-.86.86-.777.86-.777.083.083-.724.802-.943.982-.943.777zm49.94-1.151c.182-.073.48-.073.661 0s.033.133-.331.133-.513-.06-.331-.133zm3.373-.354c.263-.291.538-.529.611-.529s-.083.238-.347.529-.538.529-.611.529.083-.238.347-.529zm29.104-.304c-.437-.292-1.568-.917-2.513-1.39s-1.758-1.029-1.804-1.236-.438-.744-.87-1.194c-.785-.817-.785-.817 1.119-.196 1.047.341 1.947.577 2.001.524s.511-.679 1.017-1.391c.669-.941.921-1.15.925-.766.014 1.595.571 5.557.824 5.862.385.464.263.427-.696-.214zm-82.693-.82c1.096-1.168 1.334-1.378 1.334-1.18 0 .042-.566.608-1.257 1.257-1.257 1.18-1.257 1.18-.077-.077zm9.801.346c0-.137.118-.322.262-.411.15-.093.194.013.104.249-.176.458-.366.542-.366.162zm6.466-.611c-.777-.86-.777-.86.083-.083.802.724.982.943.777.943-.046 0-.432-.387-.86-.86zm-12.286-.595c.494-.509.957-.926 1.03-.926s-.272.417-.765.926-.957.926-1.03.926.272-.417.765-.926zm6.374.265c0-.146.287-.8.638-1.455s.638-1.072.638-.926-.287.8-.638 1.455-.638 1.072-.638.926zm45.22.032c0-.055.208-.263.463-.463.42-.329.429-.32.1.1-.346.441-.563.581-.563.363zm-3.325-.93c.189-.305 1.209-.921 1.209-.73 0 .061-.312.316-.694.566s-.613.324-.514.164zm4.913-.376c0-.046.387-.432.86-.86.86-.777.86-.777.083.083-.724.802-.943.982-.943.777zm-53.578-1.505c.568-.582 1.093-1.058 1.166-1.058s-.333.476-.901 1.058-1.093 1.058-1.166 1.058.333-.476.901-1.058zm4.653.926c.028-.501.469-1.345.484-.926.008.218-.101.575-.242.794s-.25.278-.242.132zm5.12-.992c-.777-.86-.777-.86.083-.083.802.724.982.943.777.943-.046 0-.432-.387-.86-.86zm-1.439-.712c0-.137.118-.322.262-.411.15-.093.194.013.104.249-.176.458-.366.542-.366.162zm48.419-.677c.494-.509.957-.926 1.03-.926s-.272.417-.765.926-.957.926-1.03.926.272-.417.765-.926zm23.019.514c0-.227.121-.338.269-.246s.2.277.117.412c-.227.367-.386.299-.386-.166zm-29.17-.821c.182-.073.48-.073.661 0s.033.133-.331.133-.513-.06-.331-.133zm28.875-1.03c.955-1.204-.001-17.273-1.833-30.797-.285-2.104-.506-4.009-.49-4.233s1.321 7.271 2.902 16.657c3.247 19.279 3.121 17.461 1.263 18.184l-1.938.759c-.476.19-.467.14.095-.57zm-75.773-.646c.568-.582 1.093-1.058 1.166-1.058s-.333.476-.901 1.058-1.093 1.058-1.166 1.058.333-.476.901-1.058zm67.469.146c-1.588-.61-1.588-.61-2.083-2.693l-3.78-15.842C73.001 81.672 74.9 89.007 73.662 88.925c-1.683-.11-1.756.053-1.136 2.525.547 2.179.547 2.179-.412 3.411-1.062 1.363-1.151 1.715-.556 2.208 2.846 2.362 3.126 3.394 1.44 5.296-.907 1.023-1.604 1.901-1.548 1.95s1.104.373 2.331.719c2.845.802 2.865.968.296 2.474-2.776 1.628-2.783 1.544.193 2.384 1.416.4 2.668.782 2.783.851s-.986 1.005-2.447 2.082c-3.213 2.367-3.275 1.671.528 5.877 3.528 3.902 3.383 3.453 1.852 5.747-2.068 3.098-2.101 2.736.422 4.64 2.259 1.705 2.259 1.705 2.103 3.692-.086 1.093-.34 5.916-.563 10.718-.374 8.022-.765 13.601-.964 13.744-2.129 1.526-2.547 1.441-2.998-.611-1.017-4.629-1.373-5.952-1.5-5.584-.074.214-.223-.385-.33-1.331-.252-2.23-.785-5.883-3.336-22.867l-2.103-14.265c0-.144-.064-.198-.141-.121-.137.137.359 5.333 1.499 15.689l.58 5.821c.055 1.64-.169 5.788-.271 5.027l-1.138-9.418c-.567-4.743-1.275-9.823-1.574-11.288s-.463-2.873-.365-3.127c.124-.323.081-.403-.143-.265-.232.143-.275.017-.156-.458.137-.547-.915-11.056-2.358-23.548-.215-1.864-.239-2.916-.069-3.021.853-.527 23.886-8.711 24.06-8.549.117.109-.568 1.841-1.523 3.85-2.046 4.306-2.082 4.192.977 3.102 3.069-1.093 3.071-1.184-.05 2.351-3.019 3.42-3.021 3.415.916 2.485 2.264-.535 2.914-.607 3.083-.342.329.518.351.482-1.895 3.114s-2.474 3.056-1.521 2.821c4.468-1.1 5.261-.542 3.392 2.388-1.511 2.369-1.513 2.356.313 2.601 2.643.355 2.668.905.163 3.489-1.038 1.071-1.842 1.992-1.786 2.048s.995.455 2.086.887c2.37.939 2.305.777 2.351 5.874.029 3.153.232 4.674 1.729 12.965 2.283 12.64 3.764 21.643 4.244 25.797.218 1.892.505 4.014.636 4.717.364 1.947-.772 3.313-1.23 1.478l-6.81-28.551-6.63-27.495c-.225-.225-.085.745.818 5.647l.898 5.292c-.014.155-.657-2.158-1.431-5.142s-1.417-5.264-1.431-5.068 1.235 7.578 2.774 16.404l7.136 41.033c-.007-.01-.727-.293-1.601-.629zm-7.36-58.404c-.084-.211-.147-.148-.16.16-.011.279.051.435.139.347s.097-.316.021-.507zm-5.417 58.364c-.188-.204-.224-.37-.082-.37.275 0 .672.503.516.652-.051.048-.246-.079-.434-.282zm-1.667-.42c-.295-.21-.277-.234.09-.116.255.082.463.034.463-.107s.119-.256.265-.256.265.106.265.236c0 .38-.677.532-1.082.243zm-8.951-.899c.013-.308.075-.371.16-.16.076.191.067.419-.021.507s-.15-.068-.139-.347zm1.938.113c-.112-.181-.073-.234.094-.131.156.096.343.025.417-.158.081-.201.142-.149.155.131.024.524-.38.619-.666.158zm24.256-.113c.013-.308.075-.371.16-.16.076.191.067.419-.021.507s-.15-.068-.139-.347zm-13.25-.691c.8-.302 1.491-.578 1.535-.614s-.409-5.868-1.006-12.96l-1.001-13.326c.108-.552 2.417 8.342 2.395 9.225-.016.63.816 12.185 1.146 15.924.176 1.996.367 1.862-3.069 2.169-1.455.13-1.455.13 0-.418zm-54.944-1.8c0-1.091.047-1.538.104-.992a11.52 11.52 0 0 1 0 1.984c-.057.546-.104.099-.104-.992zm4.451 1.323c0-.364.06-.513.133-.331s.073.48 0 .661-.133.033-.133-.331zm42.048.11c.013-.308.075-.371.16-.16.076.191.067.419-.021.507s-.15-.068-.139-.347zm-2.91-.529c.013-.308.075-.371.16-.16.076.191.067.419-.021.507s-.15-.068-.139-.347zm-1.831-.375c0-.364.06-.513.133-.331s.073.48 0 .661-.133.033-.133-.331zm2.381-.265c0-.364.06-.513.133-.331s.073.48 0 .661-.133.033-.133-.331zm-.794-1.588c0-.364.06-.513.133-.331s.073.48 0 .661-.133.033-.133-.331zm-1.873-.419c.013-.308.075-.371.16-.16.076.191.067.419-.021.507s-.15-.068-.139-.347zm2.412-.507c.005-.437.065-.583.132-.326s.063.615-.01.794-.127-.031-.122-.468zm2.086.243c.013-.308.075-.371.16-.16.076.191.067.419-.021.507s-.15-.068-.139-.347zm-41.753-.904c0-.655.052-.923.115-.595a3.77 3.77 0 0 1 0 1.191c-.063.327-.115.06-.115-.595zm38.843-.684c.013-.308.075-.371.16-.16.076.191.067.419-.021.507s-.15-.068-.139-.347zm-1.852-.265c.013-.308.075-.371.16-.16.076.191.067.419-.021.507s-.15-.068-.139-.347zm4.498 0c.013-.308.075-.371.16-.16.076.191.067.419-.021.507s-.15-.068-.139-.347zm-2.117-1.058c.013-.308.075-.371.16-.16.076.191.067.419-.021.507s-.15-.068-.139-.347zm-.794-.794c.013-.308.075-.371.16-.16.076.191.067.419-.021.507s-.15-.068-.139-.347zm-1.852-.265c.013-.308.075-.371.16-.16.076.191.067.419-.021.507s-.15-.068-.139-.347zm25.665-.265c.013-.308.075-.371.16-.16.076.191.067.419-.021.507s-.15-.068-.139-.347zm-62.66-1.036c.003-.582.057-.789.12-.46s.061.805-.005 1.058-.118-.016-.115-.598zm39.398-.132c0-.364.06-.513.133-.331s.073.48 0 .661-.133.033-.133-.331zm-.794-.529c0-.364.06-.513.133-.331s.073.48 0 .661-.133.033-.133-.331zm-1.873-.154c.013-.308.075-.371.16-.16.076.191.067.419-.021.507s-.15-.068-.139-.347zm25.4-1.058c.013-.308.075-.371.16-.16.076.191.067.419-.021.507s-.15-.068-.139-.347zm-22.998-.639c0-.364.06-.513.133-.331s.073.48 0 .661-.133.033-.133-.331zm-2.667-.419c.013-.308.075-.371.16-.16.076.191.067.419-.021.507s-.15-.068-.139-.347zm1.852 0c.013-.308.075-.371.16-.16.076.191.067.419-.021.507s-.15-.068-.139-.347zm-38.583-1.301c.003-.582.057-.789.12-.46s.061.805-.005 1.058-.118-.016-.115-.598zm61.867-.551c.013-.308.075-.371.16-.16.076.191.067.419-.021.507s-.15-.068-.139-.347zm-25.4-.265c.013-.308.075-.371.16-.16.076.191.067.419-.021.507s-.15-.068-.139-.347zm1.873-.11c0-.364.06-.513.133-.331s.073.48 0 .661-.133.033-.133-.331zm.794 0c0-.364.06-.513.133-.331s.073.48 0 .661-.133.033-.133-.331zm-2.91-2.117c0-.364.06-.513.133-.331s.073.48 0 .661-.133.033-.133-.331zm1.852 0c0-.364.06-.513.133-.331s.073.48 0 .661-.133.033-.133-.331zm.794-.529c0-.364.06-.513.133-.331s.073.48 0 .661-.133.033-.133-.331zm22.469.11c.013-.308.075-.371.16-.16.076.191.067.419-.021.507s-.15-.068-.139-.347zm-61.602-1.036c.003-.582.057-.789.12-.46s.061.805-.005 1.058-.118-.016-.115-.598zm36.223-.661c0-.364.06-.513.133-.331s.073.48 0 .661-.133.033-.133-.331zm2.646-.794c0-.364.06-.513.133-.331s.073.48 0 .661-.133.033-.133-.331zm22.204-.419c.013-.308.075-.371.16-.16.076.191.067.419-.021.507s-.15-.068-.139-.347zm-25.135-.794c.013-.308.075-.371.16-.16.076.191.067.419-.021.507s-.15-.068-.139-.347zm-39.592-7.651c0-4.075.037-5.704.082-3.622a204.05 204.05 0 0 1 0 7.408c-.045 1.992-.082.288-.081-3.786zm3.39 6.085c.003-.582.057-.789.12-.46s.061.805-.005 1.058-.118-.016-.115-.598zm38.879.265c.005-.437.065-.583.132-.326s.063.615-.01.794-.127-.031-.122-.468zm-2.92-.926c0-.364.06-.513.133-.331s.073.48 0 .661-.133.033-.133-.331zm24.585-1.213c.013-.308.075-.371.16-.16.076.191.067.419-.021.507s-.15-.068-.139-.347zm-24.871-1.058c.013-.308.075-.371.16-.16.076.191.067.419-.021.507s-.15-.068-.139-.347zm-35.937-1.565c.003-.582.057-.789.12-.46s.061.805-.005 1.058-.118-.016-.115-.598zm35.694-.397c0-.364.06-.513.133-.331s.073.48 0 .661-.133.033-.133-.331zm-.265-2.117c0-.364.06-.513.133-.331s.073.48 0 .661-.133.033-.133-.331zm50.908.187c.099-.261.247-.408.329-.326s0 .295-.181.474c-.261.259-.292.229-.148-.148zm-86.607-2.039c0-.509.054-.718.121-.463s.067.671 0 .926-.121.046-.121-.463zm35.435-.265c0-.364.06-.513.133-.331s.073.48 0 .661-.133.033-.133-.331zm24.056-1.477c.013-.308.075-.371.16-.16.076.191.067.419-.021.507s-.15-.068-.139-.347zm-24.342-.794c.013-.308.075-.371.16-.16.076.191.067.419-.021.507s-.15-.068-.139-.347zm33.216-.869c-.105-.781-.125-1.485-.045-1.565s.146.162.146.538.117.723.26.772c.158.054.176.4.045.882-.201.742-.227.701-.405-.626zm-68.624-.961c.003-.582.057-.789.12-.46s.061.805-.005 1.058-.118-.016-.115-.598zm68.098-1.985c-.102-.655-.529-2.559-.947-4.233-2.048-8.192-2.621-12.732-3.725-29.501-.279-4.239-.906-9.473-1.191-9.933-.071-.114.018-.257.197-.317.203-.068.708.845 1.34 2.425 1.371 3.424 1.371 3.424.995 2.93-.231-.304-.268.068-.158 1.588.079 1.091.274 5.794.432 10.451.287 8.467.287 8.467 1.861 17.836.865 5.153 1.53 9.498 1.477 9.657s-.18-.248-.282-.902zm-9.406-1.212c.013-.308.075-.371.16-.16.076.191.067.419-.021.507s-.15-.068-.139-.347zm-24.342-.794c.013-.308.075-.371.16-.16.076.191.067.419-.021.507s-.15-.068-.139-.347zm23.548-3.175c.013-.308.075-.371.16-.16.076.191.067.419-.021.507s-.15-.068-.139-.347zm-.265-1.323c.013-.308.075-.371.16-.16.076.191.067.419-.021.507s-.15-.068-.139-.347zm-22.49-2.646c.013-.308.075-.371.16-.16.076.191.067.419-.021.507s-.15-.068-.139-.347zm-38.004-8.841c0-4.147.037-5.844.081-3.77s.045 5.467 0 7.541-.081.377-.081-3.77zm37.211 4.608c.013-.308.075-.371.16-.16.076.191.067.419-.021.507s-.15-.068-.139-.347zm-1.588-8.467c.013-.308.075-.371.16-.16.076.191.067.419-.021.507s-.15-.068-.139-.347zm41.155-.782c-.255-.665-.18-.837.132-.301.154.266.225.539.157.607s-.198-.07-.289-.306zm-57.1-2.949c.191-.076.419-.067.507.021s-.068.15-.347.139c-.308-.013-.371-.075-.16-.16zm-1.852-.265c.191-.076.419-.067.507.021s-.068.15-.347.139c-.308-.013-.371-.075-.16-.16zm-1.852-.265c.191-.076.419-.067.507.021s-.068.15-.347.139c-.308-.013-.371-.075-.16-.16zm-1.852-.265c.191-.076.419-.067.507.021s-.068.15-.347.139c-.308-.013-.371-.075-.16-.16zm-1.852-.265c.191-.076.419-.067.507.021s-.068.15-.347.139c-.308-.013-.371-.075-.16-.16zm10.104.081c0-.055.208-.263.463-.463.42-.329.429-.32.1.1-.346.441-.563.581-.563.363zm12.477-.429c0-.364.06-.513.133-.331s.073.48 0 .661-.133.033-.133-.331zm-24.433.084c.191-.076.419-.067.507.021s-.068.15-.347.139c-.308-.013-.371-.075-.16-.16zm-1.852-.265c.191-.076.419-.067.507.021s-.068.15-.347.139c-.308-.013-.371-.075-.16-.16zm-1.852-.265c.191-.076.419-.067.507.021s-.068.15-.347.139c-.308-.013-.371-.075-.16-.16zm-1.852-.265c.191-.076.419-.067.507.021s-.068.15-.347.139c-.308-.013-.371-.075-.16-.16zm-1.852-.265c.191-.076.419-.067.507.021s-.068.15-.347.139c-.308-.013-.371-.075-.16-.16zm-4.233-.529c.191-.076.419-.067.507.021s-.068.15-.347.139c-.308-.013-.371-.075-.16-.16zm-1.323-.265c.191-.076.419-.067.507.021s-.068.15-.347.139c-.308-.013-.371-.075-.16-.16zm-1.852-.265c.191-.076.419-.067.507.021s-.068.15-.347.139c-.308-.013-.371-.075-.16-.16zm24.342 0c.191-.076.419-.067.507.021s-.068.15-.347.139c-.308-.013-.371-.075-.16-.16zm-26.194-.265c.191-.076.419-.067.507.021s-.068.15-.347.139c-.308-.013-.371-.075-.16-.16zm23.14-.003c.257-.067.615-.063.794.01s-.031.127-.468.122-.583-.065-.326-.132zm-24.992-.262c.191-.076.419-.067.507.021s-.068.15-.347.139c-.308-.013-.371-.075-.16-.16zm22.081-.003c.257-.067.615-.063.794.01s-.031.127-.468.122-.583-.065-.326-.132zm20.618-.478c.005-.437.065-.583.132-.326s.063.615-.01.794-.127-.031-.122-.468zm-44.816.217c.191-.076.419-.067.507.021s-.068.15-.347.139c-.308-.013-.371-.075-.16-.16zm21.287-.003c.257-.067.615-.063.794.01s-.031.127-.468.122-.583-.065-.326-.132zm-23.685-.256c.182-.073.48-.073.661 0s.033.133-.331.133-.513-.06-.331-.133zm20.51-.008c.257-.067.615-.063.794.01s-.031.127-.468.122-.583-.065-.326-.132zm-23.548-.265c.257-.067.615-.063.794.01s-.031.127-.468.122-.583-.065-.326-.132zm-2.431-1.029c.013-.308.075-.371.16-.16.076.191.067.419-.021.507s-.15-.068-.139-.347zm13.809.236c.257-.067.615-.063.794.01s-.031.127-.468.122-.583-.065-.326-.132zm-3.048-.256c.182-.073.48-.073.661 0s.033.133-.331.133-.513-.06-.331-.133zm-3.038-.273c.257-.067.615-.063.794.01s-.031.127-.468.122-.583-.065-.326-.132zm-3.048-.256c.182-.073.48-.073.661 0s.033.133-.331.133-.513-.06-.331-.133zm12.279-.354c0-.364.06-.513.133-.331s.073.48 0 .661-.133.033-.133-.331zm-15.316.081c.257-.067.615-.063.794.01s-.031.127-.468.122-.583-.065-.326-.132zm17.169-.346c0-.364.06-.513.133-.331s.073.48 0 .661-.133.033-.133-.331zm33.602-.265c0-.364.06-.513.133-.331s.073.48 0 .661-.133.033-.133-.331zM7.612 87.095c.191-.076.419-.067.507.021s-.068.15-.347.139c-.308-.013-.371-.075-.16-.16zm1.424-.745c.005-.437.065-.583.132-.326s.063.615-.01.794-.127-.031-.122-.468zm16.933-.529c.005-.437.065-.583.132-.326s.063.615-.01.794-.127-.031-.122-.468zM2.94 84.63c0-.364.06-.513.133-.331s.073.48 0 .661-.133.033-.133-.331zm92.727-.143c-.255-.665-.18-.837.132-.301.154.266.225.539.157.607s-.198-.07-.289-.306zm-50.171.038c0-.057.185-.175.411-.262.235-.09.342-.046.249.104-.155.251-.66.372-.66.158zm3.99-.315c.013-.308.075-.371.16-.16.076.191.067.419-.021.507s-.15-.068-.139-.347zm-28.894-.309c-.329-.42-.32-.429.1-.1.441.346.581.563.363.563-.055 0-.263-.208-.463-.463zM8.771 83.44c.005-.437.065-.583.132-.326s.063.615-.01.794-.127-.031-.122-.468zm16.933-.529c.005-.437.065-.583.132-.326s.063.615-.01.794-.127-.031-.122-.468zm31.19-.287c.013-.308.075-.371.16-.16.076.191.067.419-.021.507s-.15-.068-.139-.347zM4.659 82.58c-.067-.109.45-.198 1.15-.198s1.217.089 1.15.198-.585.198-1.15.198-1.082-.089-1.15-.198zm44.562-.22c.013-.308.075-.371.16-.16.076.191.067.419-.021.507s-.15-.068-.139-.347zm12.052-.176c-.29-1.081-.188-2.844.164-2.849.182-.003 5.629-.822 12.104-1.822 12.61-1.946 12.193-1.927 13.135-.583.292.417.301.518.038.417-.191-.073-3.024.469-6.296 1.206-22.066 4.966-18.945 4.374-19.144 3.631zm-58.598-.198c0-.364.06-.513.133-.331s.073.48 0 .661-.133.033-.133-.331zm14.353-1.389c-.504-.595-.504-.595.091-.091.559.474.716.687.504.687-.05 0-.318-.268-.595-.595zm31.928-.088c.013-.308.075-.371.16-.16.076.191.067.419-.021.507s-.15-.068-.139-.347zm-42.333-.529c.013-.308.075-.371.16-.16.076.191.067.419-.021.507s-.15-.068-.139-.347zm18.816-.243c.005-.437.065-.583.132-.326s.063.615-.01.794-.127-.031-.122-.468zm-21.176-.132c0-.364.06-.513.133-.331s.073.48 0 .661-.133.033-.133-.331zm76.952.265c-.238-.154-.271-.258-.082-.261.173-.002.389.115.479.261.203.328.111.328-.397 0zm-78.804-.529c0-.364.06-.513.133-.331s.073.48 0 .661-.133.033-.133-.331zm79.862.265c0-.146.268-.263.595-.261.481.003.519.053.198.261-.513.332-.794.332-.794 0zm-54.748-.684c.013-.308.075-.371.16-.16.076.191.067.419-.021.507s-.15-.068-.139-.347zm21.167-.265c.013-.308.075-.371.16-.16.076.191.067.419-.021.507s-.15-.068-.139-.347zm7.694-1.169c0-.364.06-.513.133-.331s.073.48 0 .661-.133.033-.133-.331zm-43.062-.331c-.504-.595-.504-.595.091-.091.559.474.716.687.504.687-.05 0-.318-.268-.595-.595zm-11.168-.331c.005-.437.065-.583.132-.326s.063.615-.01.794-.127-.031-.122-.468zm23.019-.265c.005-.437.065-.583.132-.326s.063.615-.01.794-.127-.031-.122-.468zm23.253.243c.013-.308.075-.371.16-.16.076.191.067.419-.021.507s-.15-.068-.139-.347zm18.45.238c.191-.076.419-.067.507.021s-.068.15-.347.139c-.308-.013-.371-.075-.16-.16zm-62.86-.878c0-.509.054-.718.121-.463s.067.671 0 .926-.121.046-.121-.463zm64.447.613c.191-.076.419-.067.507.021s-.068.15-.347.139c-.308-.013-.371-.075-.16-.16zm3.357-.872c.728-.294 3.674-1.319 6.548-2.277s5.232-1.881 5.24-2.051.248.266.533.968c.616 1.517.561 1.652-.739 1.837-.909.129-10.22 1.609-12.111 1.925-.535.089-.363-.042.529-.402zm20.505.259c-.238-.154-.271-.258-.082-.261.173-.002.389.115.479.261.203.328.111.328-.397 0zm-84.381-.948c.013-.308.075-.371.16-.16.076.191.067.419-.021.507s-.15-.068-.139-.347zm40.217-.265c.013-.308.075-.371.16-.16.076.191.067.419-.021.507s-.15-.068-.139-.347zm24.396-1.036c.002-.728.053-.994.114-.592s.059.997-.004 1.323-.113-.004-.111-.731zm-70.668.265c.005-.437.065-.583.132-.326s.063.615-.01.794-.127-.031-.122-.468zm4.203-.287c.013-.308.075-.371.16-.16.076.191.067.419-.021.507s-.15-.068-.139-.347zm3.526-.176c-.504-.595-.504-.595.091-.091.559.474.716.687.504.687-.05 0-.318-.268-.595-.595zm15.29-.066c.005-.437.065-.583.132-.326s.063.615-.01.794-.127-.031-.122-.468zm32.349.115c-.096-.155-.118-.339-.048-.408s.197.058.283.282c.179.466.026.548-.234.126zM3.752 72.724c0-.509.054-.718.121-.463s.067.671 0 .926-.121.046-.121-.463zm44.145.11c.013-.308.075-.371.16-.16.076.191.067.419-.021.507s-.15-.068-.139-.347zM7.68 72.305c.013-.308.075-.371.16-.16.076.191.067.419-.021.507s-.15-.068-.139-.347zm34.964.001c.251-.262.514-.42.583-.35s-.136.284-.457.477c-.557.335-.563.329-.127-.127zm45.912.231a3.77 3.77 0 0 1 1.191 0c.327.063.06.115-.595.115s-.923-.052-.595-.115zm-17.06-1.136c0-.655.052-.923.115-.595a3.77 3.77 0 0 1 0 1.191c-.063.327-.115.059-.115-.595zm-69.88 0c0-.364.06-.513.133-.331s.073.48 0 .661-.133.033-.133-.331zm53.16-.154c.013-.308.075-.371.16-.16.076.191.067.419-.021.507s-.15-.068-.139-.347zm-7.144-.265c.013-.308.075-.371.16-.16.076.191.067.419-.021.507s-.15-.068-.139-.347zm-22.998-.639c0-.364.06-.513.133-.331s.073.48 0 .661-.133.033-.133-.331zm69.111-2.514c.001-1.455.045-2.017.099-1.248a21.69 21.69 0 0 1-.001 2.646c-.054.686-.098.057-.097-1.398zM3.487 69.019c0-.509.054-.718.121-.463s.067.671 0 .926-.121.046-.121-.463zm23.487.545c0-.137.118-.322.262-.411.15-.093.194.013.104.249-.176.458-.366.542-.366.162zm11.327.068c.191-.076.419-.067.507.021s-.068.15-.347.139c-.308-.013-.371-.075-.16-.16zm-5.837-.259c.182-.073.48-.073.661 0s.033.133-.331.133-.513-.06-.331-.133zm14.904-.244c.013-.308.075-.371.16-.16.076.191.067.419-.021.507s-.15-.068-.139-.347zM1.35 68.755c0-.364.06-.513.133-.331s.073.48 0 .661-.133.033-.133-.331zm70.939-.529c0-.655.052-.923.115-.595a3.77 3.77 0 0 1 0 1.191c-.063.327-.115.06-.115-.595zm-50.801.61c.257-.067.615-.063.794.01s-.031.127-.468.122-.583-.065-.326-.132zm-5.694-.256c.182-.073.48-.073.661 0s.033.133-.331.133-.513-.06-.331-.133zm72.976-.276c-.144-.377-.113-.407.148-.148.181.179.262.393.181.474s-.229-.065-.329-.326zm-78.659.004c.257-.067.615-.063.794.01s-.031.127-.468.122-.583-.065-.326-.132zm43.606-1.294c.013-.308.075-.371.16-.16.076.191.067.419-.021.507s-.15-.068-.139-.347zm34.496.137c-.096-.155-.118-.339-.048-.408s.197.058.283.282c.179.466.026.548-.234.126zm-16.983-1.041c0-.655.052-.923.115-.595a3.77 3.77 0 0 1 0 1.191c-.063.327-.115.06-.115-.595zm-70.135.132c.005-.437.065-.583.132-.326s.063.615-.01.794-.127-.031-.122-.468zm31.566.132c.09-.146.216-.265.28-.265s.117.119.117.265-.126.265-.28.265-.207-.119-.117-.265zm-29.44-.794c0-.509.054-.718.121-.463s.067.671 0 .926-.121.046-.121-.463zm40.441-.154c.013-.308.075-.371.16-.16.076.191.067.419-.021.507s-.15-.068-.139-.347zm-28.067-.743c0-.251.792-.377.933-.149.086.139-.089.253-.388.253s-.545-.047-.545-.104zM.831 63.596c.005-.437.065-.583.132-.326s.063.615-.01.794-.127-.031-.122-.468zm52.092.243c.013-.308.075-.371.16-.16.076.191.067.419-.021.507s-.15-.068-.139-.347zm-6.35-.265c.013-.308.075-.371.16-.16.076.191.067.419-.021.507s-.15-.068-.139-.347zm25.461-1.301c.002-.873.051-1.198.11-.723a7.03 7.03 0 0 1-.003 1.588c-.06.398-.109.008-.107-.865zm-69.087 0c.005-.437.065-.583.132-.326s.063.615-.01.794-.127-.031-.122-.468zm68.018-.926c0-.655.052-.923.115-.595a3.77 3.77 0 0 1 0 1.191c-.063.327-.115.059-.115-.595zm-24.657.375c.013-.308.075-.371.16-.16.076.191.067.419-.021.507s-.15-.068-.139-.347zm6.085 0c.013-.308.075-.371.16-.16.076.191.067.419-.021.507s-.15-.068-.139-.347zM.556 60.818c0-.364.06-.513.133-.331s.073.48 0 .661-.133.033-.133-.331zm53.425-.419c.013-.308.075-.371.16-.16.076.191.067.419-.021.507s-.15-.068-.139-.347zm35.819-.128c-.096-.155-.118-.339-.048-.408s.197.058.283.282c.179.466.026.548-.234.126zm-43.757-.401c.013-.308.075-.371.16-.16.076.191.067.419-.021.507s-.15-.068-.139-.347zm-43.371-.904c0-.364.06-.513.133-.331s.073.48 0 .661-.133.033-.133-.331zm91.333-2.249c-.001-1.31.044-1.879.099-1.265a17.23 17.23 0 0 1 .002 2.381c-.055.696-.1.193-.101-1.117zM.29 58.172c0-.364.06-.513.133-.331s.073.48 0 .661-.133.033-.133-.331zm53.16.11c.013-.308.075-.371.16-.16.076.191.067.419-.021.507s-.15-.068-.139-.347zm37.428-1.177c.868-.95 1.631-1.69 1.697-1.644s-.644.824-1.577 1.728c-1.697 1.644-1.697 1.644-.12-.084zm-45.101.912c.013-.308.075-.371.16-.16.076.191.067.419-.021.507s-.15-.068-.139-.347zm25.984-1.301c.002-.728.053-.994.114-.592s.059.998-.004 1.323-.113-.004-.111-.731zm-1.062-.397c0-.655.052-.923.115-.595a3.77 3.77 0 0 1 0 1.191c-.063.327-.115.059-.115-.595zM.025 55.79c0-.364.06-.513.133-.331s.073.48 0 .661-.133.033-.133-.331zm71.732-2.646c0-.655.052-.923.115-.595a3.77 3.77 0 0 1 0 1.191c-.063.327-.115.06-.115-.595zm-9.611-.728c-.912-.992-.912-.992.08-.08.546.501.992.948.992.992 0 .202-.224.012-1.073-.912zm8.288-.86c0-.655.052-.923.115-.595a3.77 3.77 0 0 1 0 1.191c-.063.327-.115.06-.115-.595zm5.505.639c.013-.308.075-.371.16-.16.076.191.067.419-.021.507s-.15-.068-.139-.347zm2.402-.11c0-.364.06-.513.133-.331s.073.48 0 .661-.133.033-.133-.331zm-28.467-.452c-.144-.377-.113-.407.148-.148.181.179.262.393.181.474s-.229-.065-.329-.326zm12.393-.404c-.366-.429-.382-.497-.06-.248.389.3.458.25.556-.401.093-.619.118-.577.151.248.046 1.161.017 1.18-.647.401zm-13.915-.119c.191-.076.419-.067.507.021s-.068.15-.347.139c-.308-.013-.371-.075-.16-.16zm-4.498-.794c.191-.076.419-.067.507.021s-.068.15-.347.139c-.308-.013-.371-.075-.16-.16zm15.117-.811c-.912-.992-.912-.992.08-.08.546.501.992.948.992.992 0 .202-.224.012-1.073-.912zm17.233.573c.013-.308.075-.371.16-.16.076.191.067.419-.021.507s-.15-.068-.139-.347zm17.824-2.47c.012-2.453.089-3.041.411-3.129.284-.077.305-.043.076.12-.208.148-.353 1.25-.411 3.129-.09 2.901-.09 2.901-.076-.12zm-51.761 2.444c.191-.076.419-.067.507.021s-.068.15-.347.139c-.308-.013-.371-.075-.16-.16zm18.801-.282c-.329-.42-.32-.429.1-.1.255.2.463.408.463.463 0 .218-.217.078-.563-.363zm-20.389.018c.191-.076.419-.067.507.021s-.068.15-.347.139c-.308-.013-.371-.075-.16-.16zm10.675-.348c0-.364.06-.513.133-.331s.073.48 0 .661-.133.033-.133-.331zm-12.262.084c.191-.076.419-.067.507.021s-.068.15-.347.139c-.308-.013-.371-.075-.16-.16zm-1.588-.265c.191-.076.419-.067.507.021s-.068.15-.347.139c-.308-.013-.371-.075-.16-.16zm-4.498-.794c.191-.076.419-.067.507.021s-.068.15-.347.139c-.308-.013-.371-.075-.16-.16zm29.46-.348c0-.364.06-.513.133-.331s.073.48 0 .661-.133.033-.133-.331zm9.563-.794c0-.8.05-1.128.11-.728a5.85 5.85 0 0 1 0 1.455c-.061.4-.11.073-.11-.728zm4.439.904c.013-.308.075-.371.16-.16.076.191.067.419-.021.507s-.15-.068-.139-.347zm-45.05-.026c.191-.076.419-.067.507.021s-.068.15-.347.139c-.308-.013-.371-.075-.16-.16zm-1.587-.265c.191-.076.419-.067.507.021s-.068.15-.347.139c-.308-.013-.371-.075-.16-.16zm-1.587-.265c.191-.076.419-.067.507.021s-.068.15-.347.139c-.308-.013-.371-.075-.16-.16zm17.666-.254c-.092-.239-.104-.497-.028-.573s.139.013.139.198c0 .204.172.271.434.17.363-.139.379-.101.1.236-.417.502-.44.501-.644-.032zm10.02-.69c-1.046-1.124-1.046-1.124.079-.079 1.046.973 1.246 1.203 1.046 1.203-.043 0-.549-.506-1.124-1.124zm3.286.661c-.329-.42-.32-.429.1-.1.255.2.463.408.463.463 0 .218-.217.078-.563-.363zm-32.56.018c.191-.076.419-.067.507.021s-.068.15-.347.139c-.308-.013-.371-.075-.16-.16zm12.75.081c0-.055.208-.263.463-.463.42-.329.429-.32.1.1-.346.441-.563.581-.563.363zm11.703-.694c0-.509.054-.718.121-.463s.067.671 0 .926-.121.046-.121-.463zm19.061-.265c0-.655.052-.923.115-.595a3.77 3.77 0 0 1 0 1.191c-.063.327-.115.06-.115-.595zm9.209.11c.013-.308.075-.371.16-.16.076.191.067.419-.021.507s-.15-.068-.139-.347zm10.827-.243c.342-.364.681-.661.754-.661s-.147.298-.489.661-.681.661-.754.661.147-.298.489-.661zm-27.994-.529c.005-.437.065-.583.132-.326s.063.615-.01.794-.127-.031-.122-.468zm14.521.243c.013-.308.075-.371.16-.16.076.191.067.419-.021.507s-.15-.068-.139-.347zm-45.236-.044c.016-.109.7-.79 1.521-1.513 1.493-1.314 1.493-1.314.047.198-1.475 1.542-1.618 1.663-1.568 1.314zm14.015-.485c.013-.308.075-.371.16-.16.076.191.067.419-.021.507s-.15-.068-.139-.347zm-6.275-2.492c0-1.382.045-1.948.099-1.257a19.34 19.34 0 0 1 0 2.513c-.055.691-.099.126-.099-1.257zm-7.727 1.588c0-.364.06-.513.133-.331s.073.48 0 .661-.133.033-.133-.331zm22.977.165c0-.055.208-.263.463-.463.42-.329.429-.32.1.1-.346.441-.563.581-.563.363zm4.101-.429c.263-.291.538-.529.611-.529s-.083.238-.347.529-.538.529-.611.529.083-.238.347-.529zm18.409-.154c.013-.308.075-.371.16-.16.076.191.067.419-.021.507s-.15-.068-.139-.347zm2.91-.265c.013-.308.075-.371.16-.16.076.191.067.419-.021.507s-.15-.068-.139-.347zm-29.058-.772c.003-.582.057-.789.12-.46s.061.805-.005 1.058-.118-.016-.115-.598zm11.097 0c.005-.437.065-.583.132-.326s.063.615-.01.794-.127-.031-.122-.468zm-2.036-.397c.263-.291.538-.529.611-.529s-.083.238-.347.529-.538.529-.611.529.083-.238.347-.529zm-28.136-.265c0-.364.06-.513.133-.331s.073.48 0 .661-.133.033-.133-.331zm26.229-1.003c1.255-1.268 1.458-1.596 1.182-1.906-.286-.32-.265-.322.144-.012.428.325-2.026 3.449-2.71 3.449-.073 0 .55-.689 1.383-1.532zm22.169.848c.013-.308.075-.371.16-.16.076.191.067.419-.021.507s-.15-.068-.139-.347zm-54.568-.573c.689-.975.817-1.048.724-.414-.036.245-.35.632-.699.86-.633.414-.633.414-.025-.446zm46.685-.463c.002-.728.053-.994.114-.592s.059.998-.004 1.323-.113-.004-.111-.731zm4.972.772c.013-.308.075-.371.16-.16.076.191.067.419-.021.507s-.15-.068-.139-.347zm-7.362-.772c.003-.582.057-.789.12-.46s.061.805-.005 1.058-.118-.016-.115-.598zm-8.955.198c.604-.714.959-.764.93-.132-.014.302-.069.343-.16.116-.107-.268-.268-.238-.707.132-.568.479-.568.479-.064-.116zm33.826.016c.255-.067.671-.067.926 0s.046.121-.463.121-.718-.054-.463-.121zm-50.672-.38c.179-.181.393-.262.474-.181s-.065.229-.326.329c-.377.144-.407.113-.148-.148zm48.423.122c.182-.073.48-.073.661 0s.033.133-.331.133-.513-.06-.331-.133zm-65.551-.189c0-.055.208-.263.463-.463.42-.329.429-.32.1.1-.346.441-.563.581-.563.363zm63.698-.075c.182-.073.48-.073.661 0s.033.133-.331.133-.513-.06-.331-.133zm-13.142-.773c.013-.308.075-.371.16-.16.076.191.067.419-.021.507s-.15-.068-.139-.347zm-45.487-.375c0-.364.06-.513.133-.331s.073.48 0 .661-.133.033-.133-.331zm-3.746.165c0-.055.208-.263.463-.463.42-.329.429-.32.1.1-.346.441-.563.581-.563.363zm67.795-.694c0-.509.055-.718.121-.463s.066.671 0 .926-.121.046-.121-.463zm-74.103 0c0-.364.06-.513.133-.331s.073.48 0 .661-.133.033-.133-.331zm87.403 0c.727-.313 1.145-.313.661 0-.218.141-.575.25-.794.242-.262-.01-.217-.092.132-.242zm-81.889-.1c0-.055.208-.263.463-.463.42-.329.429-.32.1.1-.346.441-.563.581-.563.363zm2.117-.265c0-.055.208-.263.463-.463.42-.329.429-.32.1.1-.346.441-.563.581-.563.363zm48.175-.584c.013-.308.075-.371.16-.16.076.191.067.419-.021.507s-.15-.068-.139-.347zm3.175 0c.013-.308.075-.371.16-.16.076.191.067.419-.021.507s-.15-.068-.139-.347zm21.344.244c.182-.073.48-.073.661 0s.033.133-.331.133-.513-.06-.331-.133zm-70.105-.883c-.064-.437-.018-.794.102-.794s.219.357.219.794-.046.794-.102.794-.155-.357-.219-.794zm-3.648.165c0-.055.208-.263.463-.463.42-.329.429-.32.1.1-.346.441-.563.581-.563.363zm2.381 0c0-.055.208-.263.463-.463.42-.329.429-.32.1.1-.346.441-.563.581-.563.363zm39.109-.081c.191-.076.419-.067.507.021s-.068.15-.347.139c-.308-.013-.371-.075-.16-.16zm26.264-.503c.013-.308.075-.371.16-.16.076.191.067.419-.021.507s-.15-.068-.139-.347zm-35.525-.026c.191-.076.419-.067.507.021s-.068.15-.347.139c-.308-.013-.371-.075-.16-.16zm45.163-.345c-.093-.15.013-.194.249-.104.458.176.542.366.162.366-.137 0-.322-.118-.411-.262zm1-.929c.002-.728.053-.994.114-.592s.059.998-.004 1.323-.113-.004-.111-.731zm-77.202.397c.263-.291.538-.529.611-.529s-.083.238-.347.529-.538.529-.611.529.083-.238.347-.529zm31.405-.132c.005-.437.065-.583.132-.326s.063.615-.01.794-.127-.031-.122-.468zm-30.214-.265c.342-.364.681-.661.754-.661s-.147.298-.489.661-.681.661-.754.661.147-.298.489-.661zm45 .243c.013-.308.075-.371.16-.16.076.191.067.419-.021.507s-.15-.068-.139-.347zm2.117 0c.013-.308.075-.371.16-.16.076.191.067.419-.021.507s-.15-.068-.139-.347zm-4.553-.838c-.329-.42-.32-.429.1-.1.255.2.463.408.463.463 0 .218-.217.078-.563-.363zm28.63.044c.013-.308.075-.371.16-.16.076.191.067.419-.021.507s-.15-.068-.139-.347zm-71.723.054c0-.055.208-.263.463-.463.42-.329.429-.32.1.1-.346.441-.563.581-.563.363zm26.345-.135c-.08-.129.062-.397.315-.595.406-.319.422-.312.132.061-.181.232-.25.5-.154.595s.102.174.013.174-.226-.106-.306-.235zm-3.061-.956c.494-.509.957-.926 1.03-.926s-.272.417-.765.926-.957.926-1.03.926.272-.417.765-.926zm-21.034.132c.263-.291.538-.529.611-.529s-.083.238-.347.529-.538.529-.611.529.083-.238.347-.529zm43.545.11c.013-.308.075-.371.16-.16.076.191.067.419-.021.507s-.15-.068-.139-.347zm36.248 0c.013-.308.075-.371.16-.16.076.191.067.419-.021.507s-.15-.068-.139-.347zm-34.131-.265c.013-.308.075-.371.16-.16.076.191.067.419-.021.507s-.15-.068-.139-.347zm-53.316-.395c.321-.355.534-.438.602-.234.058.174-.058.419-.258.545-.66.418-.85.247-.345-.311zm56.756.131c.013-.308.075-.371.16-.16.076.191.067.419-.021.507s-.15-.068-.139-.347zm-42.668-.291c.191-.076.419-.067.507.021s-.068.15-.347.139c-.308-.013-.371-.075-.16-.16zm19.496-.348c.263-.291.538-.529.611-.529s-.083.238-.347.529-.538.529-.611.529.083-.238.347-.529zm2.291 0c0-.364.06-.513.133-.331s.073.48 0 .661-.133.033-.133-.331zm-27.029.165c0-.055.208-.263.463-.463.42-.329.429-.32.1.1-.346.441-.563.581-.563.363zm6.565-.081c.191-.076.419-.067.507.021s-.068.15-.347.139c-.308-.013-.371-.075-.16-.16zm36.054-.503c.013-.308.075-.371.16-.16.076.191.067.419-.021.507s-.15-.068-.139-.347zm-44.206.054c0-.055.208-.263.463-.463.42-.329.429-.32.1.1-.346.441-.563.581-.563.363zm49.763-.319c.013-.308.075-.371.16-.16.076.191.067.419-.021.507s-.15-.068-.139-.347zm-55.583.072c0-.046.387-.432.86-.86.86-.777.86-.777.083.083-.724.802-.943.982-.943.777zm18.207-.098c.191-.076.419-.067.507.021s-.068.15-.347.139c-.308-.013-.371-.075-.16-.16zm1.323-.265c.191-.076.419-.067.507.021s-.068.15-.347.139c-.308-.013-.371-.075-.16-.16zm14.132-.237c.251-.262.514-.42.583-.35s-.136.284-.457.477c-.557.335-.563.329-.127-.127zm18.482-.001c.013-.308.075-.371.16-.16.076.191.067.419-.021.507s-.15-.068-.139-.347zm-31.027-.026c.191-.076.419-.067.507.021s-.068.15-.347.139c-.308-.013-.371-.075-.16-.16zm14.887-.238c.013-.308.075-.371.16-.16.076.191.067.419-.021.507s-.15-.068-.139-.347zm-6.105-.507c.363-.437.69-.843.727-.904s.124-.052.196.019-.256.478-.727.904c-.856.774-.856.774-.196-.019zm-22.729-.054c.193-.321.407-.526.477-.457s-.088.332-.35.583c-.456.436-.461.431-.127-.127zm43.121.032c.013-.308.075-.371.16-.16.076.191.067.419-.021.507s-.15-.068-.139-.347zm38.559.238c.191-.076.419-.067.507.021s-.068.15-.347.139c-.308-.013-.371-.075-.16-.16zm-63.765-.265c.191-.076.419-.067.507.021s-.068.15-.347.139c-.308-.013-.371-.075-.16-.16zm-18.736-.348c.218-.141.516-.256.661-.256s.086.115-.132.256-.516.256-.661.256-.086-.115.132-.256zm5.755.089c.182-.073.48-.073.661 0s.033.133-.331.133-.513-.06-.331-.133zm14.569-.005c.191-.076.419-.067.507.021s-.068.15-.347.139c-.308-.013-.371-.075-.16-.16zm-12.965-.265c.191-.076.419-.067.507.021s-.068.15-.347.139c-.308-.013-.371-.075-.16-.16zm14.287 0c.191-.076.419-.067.507.021s-.068.15-.347.139c-.308-.013-.371-.075-.16-.16zm14.536.005c.182-.073.48-.073.661 0s.033.133-.331.133-.513-.06-.331-.133zm42.614-.005c.191-.076.419-.067.507.021s-.068.15-.347.139c-.308-.013-.371-.075-.16-.16zm-76.13-.503c.013-.308.075-.371.16-.16.076.191.067.419-.021.507s-.15-.068-.139-.347zm6.279.238c.191-.076.419-.067.507.021s-.068.15-.347.139c-.308-.013-.371-.075-.16-.16zm14.287 0c.191-.076.419-.067.507.021s-.068.15-.347.139c-.308-.013-.371-.075-.16-.16zm14.817 0c.191-.076.419-.067.507.021s-.068.15-.347.139c-.308-.013-.371-.075-.16-.16zm11.917-.151c.133-.133.524-.198.868-.144.53.083.492.121-.242.242-.526.087-.773.048-.626-.098zm-53.142-.594c.342-.364.681-.661.754-.661s-.147.298-.489.661-.681.661-.754.661.147-.298.489-.661zm8.752.243c.013-.308.075-.371.16-.16.076.191.067.419-.021.507s-.15-.068-.139-.347zm4.692.238c.191-.076.419-.067.507.021s-.068.15-.347.139c-.308-.013-.371-.075-.16-.16zm24.622-.282c-.329-.42-.32-.429.1-.1.255.2.463.408.463.463 0 .218-.217.078-.563-.363zm4.747.282c.191-.076.419-.067.507.021s-.068.15-.347.139c-.308-.013-.371-.075-.16-.16zm6.451-.481c.005-.437.065-.583.132-.326s.063.615-.01.794-.127-.031-.122-.468zm-4.864.216c.191-.076.419-.067.507.021s-.068.15-.347.139c-.308-.013-.371-.075-.16-.16zm12.287-.002c.255-.067.671-.067.926 0s.046.121-.463.121-.718-.054-.463-.121zm-40.597-.263c.191-.076.419-.067.507.021s-.068.15-.347.139c-.308-.013-.371-.075-.16-.16zm29.898 0c.191-.076.419-.067.507.021s-.068.15-.347.139c-.308-.013-.371-.075-.16-.16zm13.61-.002c.255-.067.671-.067.926 0s.046.121-.463.121-.718-.054-.463-.121zm3.44-.265c.255-.067.671-.067.926 0s.046.121-.463.121-.718-.054-.463-.121zm-44.037-.263c.191-.076.419-.067.507.021s-.068.15-.347.139c-.308-.013-.371-.075-.16-.16zm46.952-.003c.257-.067.615-.063.794.01s-.031.127-.468.122-.583-.065-.326-.132zm-56.915-.611c0-.364.06-.513.133-.331s.073.48 0 .661-.133.033-.133-.331zm11.55.348c.191-.076.419-.067.507.021s-.068.15-.347.139c-.308-.013-.371-.075-.16-.16zm15.808-.225c-.282-.214-.386-.388-.231-.388s.431.179.612.397c.412.496.282.494-.381-.008zm32.991.223c.255-.067.671-.067.926 0s.046.121-.463.121-.718-.054-.463-.121zm-47.476-.263c.191-.076.419-.067.507.021s-.068.15-.347.139c-.308-.013-.371-.075-.16-.16zm50.392-.003c.257-.067.615-.063.794.01s-.031.127-.468.122-.583-.065-.326-.132zm-69.921-1.007c.494-.509.957-.926 1.03-.926s-.272.417-.765.926-.957.926-1.03.926.272-.417.765-.926zm21.117.745c.191-.076.419-.067.507.021s-.068.15-.347.139c-.308-.013-.371-.075-.16-.16zm52.239-.002c.255-.067.671-.067.926 0s.046.121-.463.121-.718-.054-.463-.121zm-50.916-.263c.191-.076.419-.067.507.021s-.068.15-.347.139c-.308-.013-.371-.075-.16-.16zm53.71 0c.191-.076.419-.067.507.021s-.068.15-.347.139c-.308-.013-.371-.075-.16-.16zm-72.161-.503c.013-.308.075-.371.16-.16.076.191.067.419-.021.507s-.15-.068-.139-.347zm42.598 0c.013-.308.075-.371.16-.16.076.191.067.419-.021.507s-.15-.068-.139-.347zm32.126.227a3.01 3.01 0 0 0 .926-.432c.345-.263.35-.242.034.161-.2.255-.616.449-.926.432-.535-.029-.536-.037-.034-.161zm-53.628-.254c.191-.076.419-.067.507.021s-.068.15-.347.139c-.308-.013-.371-.075-.16-.16zm2.91-.529c.191-.076.419-.067.507.021s-.068.15-.347.139c-.308-.013-.371-.075-.16-.16zm-21.096-.503c.013-.308.075-.371.16-.16.076.191.067.419-.021.507s-.15-.068-.139-.347zm22.684.238c.191-.076.419-.067.507.021s-.068.15-.347.139c-.308-.013-.371-.075-.16-.16zm12.556-.003c.257-.067.615-.063.794.01s-.031.127-.468.122-.583-.065-.326-.132zm-9.332-.346c-.342-.221-.335-.257.051-.261.246-.002.521.115.611.261.207.335-.143.335-.661 0zm17.942.084c.191-.076.419-.067.507.021s-.068.15-.347.139c-.308-.013-.371-.075-.16-.16zm4.353-.274c.402-.061.997-.059 1.323.004s-.004.113-.731.111-.994-.053-.592-.114zm4.233-.265c.402-.061.998-.059 1.323.004s-.004.113-.731.111-.994-.053-.592-.114zm-58.047-.538c-.329-.42-.32-.429.1-.1.441.346.581.563.363.563-.055 0-.263-.208-.463-.463zm44.464-.134c.353-.399.654-.726.67-.726s.041.327.057.728c.016.407-.027.515-.098.245-.122-.467-.145-.467-.698-.002-.465.391-.453.346.069-.245zm20.198.407c.402-.061.997-.059 1.323.004s-.004.113-.731.111-.994-.053-.592-.114zm-58.766-.604c0-.364.06-.513.133-.331s.073.48 0 .661-.133.033-.133-.331zm29.209.288c-.098-.158-.033-.288.143-.288.201 0 .136-.223-.173-.595-.494-.595-.494-.595.147-.003.466.43.562.672.351.883s-.341.21-.468.003zm34.715.054c.329-.063.805-.061 1.058.005s-.016.118-.598.115-.789-.057-.46-.12zm-66.591-.496c.013-.308.075-.371.16-.16.076.191.067.419-.021.507s-.15-.068-.139-.347zm71.102.238c.191-.076.419-.067.507.021s-.068.15-.347.139c-.308-.013-.371-.075-.16-.16zm-75.39-.547c-.329-.42-.32-.429.1-.1.255.2.463.408.463.463 0 .218-.217.078-.563-.363zm39.936.018c.191-.076.419-.067.507.021s-.068.15-.347.139c-.308-.013-.371-.075-.16-.16zm-40.995-.811c-.329-.42-.32-.429.1-.1.441.346.581.563.363.563-.055 0-.263-.208-.463-.463zm77.557.363c0-.055.208-.263.463-.463.42-.329.429-.32.1.1-.346.441-.563.581-.563.363zm-69.279-.958c0-.364.06-.513.133-.331s.073.48 0 .661-.133.033-.133-.331zm70.337-.364c0-.055.208-.263.463-.463.42-.329.429-.32.1.1-.346.441-.563.581-.563.363zm-72.74-.584c.013-.308.075-.371.16-.16.076.191.067.419-.021.507s-.15-.068-.139-.347zm2.667-.639c0-.364.06-.513.133-.331s.073.48 0 .661-.133.033-.133-.331zm-4.92-1.4c.099-.261.247-.408.329-.326s0 .295-.181.474c-.261.259-.292.229-.148-.148zm77.109-.022c0-.055.208-.263.463-.463.42-.329.429-.32.1.1-.346.441-.563.581-.563.363zm-74.327-.584c.013-.308.075-.371.16-.16.076.191.067.419-.021.507s-.15-.068-.139-.347zm43.148-.639c0-.364.06-.513.133-.331s.073.48 0 .661-.133.033-.133-.331zm45.475.397c0-.146.115-.443.256-.661s.256-.278.256-.132-.115.443-.256.661-.256.278-.256.132zm-85.977-1.08c.013-.308.075-.371.16-.16.076.191.067.419-.021.507s-.15-.068-.139-.347zm24.871-.265c.013-.308.075-.371.16-.16.076.191.067.419-.021.507s-.15-.068-.139-.347zm61.635.022c0-.146.115-.443.256-.661s.256-.278.256-.132-.115.443-.256.661-.256.278-.256.132zm-88.623-1.08c.013-.308.075-.371.16-.16.076.191.067.419-.021.507s-.15-.068-.139-.347zm40.247-.243c.005-.437.065-.583.132-.326s.063.615-.01.794-.127-.031-.122-.468zm35.932.562c0-.055.208-.263.463-.463.42-.329.429-.32.1.1-.346.441-.563.581-.563.363zm-73.798-.848c.013-.308.075-.371.16-.16.076.191.067.419-.021.507s-.15-.068-.139-.347zm40.247-.507c.005-.437.065-.583.132-.326s.063.615-.01.794-.127-.031-.122-.468zm-48.065.146c-.085-.138.116-.383.447-.544.539-.262.555-.253.144.079-.252.204-.381.449-.287.544s.1.172.012.172-.231-.113-.316-.251zm32.19-.41c.005-.437.065-.583.132-.326s.063.615-.01.794-.127-.031-.122-.468zm50.484.297c0-.055.208-.263.463-.463.42-.329.429-.32.1.1-.346.441-.563.581-.563.363zm-74.592-1.113c.013-.308.075-.371.16-.16.076.191.067.419-.021.507s-.15-.068-.139-.347zm75.65-.21c0-.055.208-.263.463-.463.42-.329.429-.32.1.1-.346.441-.563.581-.563.363zm-38.313-1.091c.005-.437.065-.583.132-.326s.063.615-.01.794-.127-.031-.122-.468zm-36.899-.165c.179-.181.393-.262.474-.181s-.065.229-.326.329c-.377.144-.407.113-.148-.148zm4.833.198c0-.055.208-.263.463-.463.42-.329.429-.32.1.1-.346.441-.563.581-.563.363zm71.438-.265c0-.055.208-.263.463-.463.42-.329.429-.32.1.1-.346.441-.563.581-.563.363zm-75.456-.61c.191-.076.419-.067.507.021s-.068.15-.347.139c-.308-.013-.371-.075-.16-.16zm22.846-.613c0-.364.06-.513.133-.331s.073.48 0 .661-.133.033-.133-.331zm-20.2-.181c.191-.076.419-.067.507.021s-.068.15-.347.139c-.308-.013-.371-.075-.16-.16zm3.357-.613c.263-.291.538-.529.611-.529s-.083.238-.347.529-.538.529-.611.529.083-.238.347-.529zm-21.737-.937c-.086-.225-.098-.467-.025-.54s.195.111.273.408c.165.63-.018.728-.247.131zm51.554-.253c.005-.437.065-.583.132-.326s.063.615-.01.794-.127-.031-.122-.468zm-47.677.132c-1.455-.178-1.455-.178.066-.221.867-.025 1.521.071 1.521.221 0 .146-.03.245-.066.221s-.721-.123-1.521-.221zm89.694.165c0-.055.208-.263.463-.463.42-.329.429-.32.1.1-.346.441-.563.581-.563.363zm-79.177-.605c.182-.073.48-.073.661 0s.033.133-.331.133-.513-.06-.331-.133zm8.996-.529c.182-.073.48-.073.661 0s.033.133-.331.133-.513-.06-.331-.133zm-22.352-.273c.257-.067.615-.063.794.01s-.031.127-.468.122-.583-.065-.326-.132zm24.734.008c.182-.073.48-.073.661 0s.033.133-.331.133-.513-.06-.331-.133zm68.858.075c0-.055.208-.263.463-.463.42-.329.429-.32.1.1-.346.441-.563.581-.563.363zM30.21 9.041c.255-.067.671-.067.926 0s.046.121-.463.121-.718-.054-.463-.121zm24.209.007c.182-.073.48-.073.661 0s.033.133-.331.133-.513-.06-.331-.133zm76.021-.198c-.239-.288-.231-.419.034-.572.189-.109.255-.101.147.018s-.064.376.099.572.235.355.162.355-.272-.168-.442-.373zm-73.503-.075c.257-.067.615-.063.794.01s-.031.127-.468.122-.583-.065-.326-.132zm-20.638-.265c.257-.067.615-.063.794.01s-.031.127-.468.122-.583-.065-.326-.132zm23.146.008c.182-.073.48-.073.661 0s.033.133-.331.133-.513-.06-.331-.133zm-19.971-.273c.257-.067.615-.063.794.01s-.031.127-.468.122-.583-.065-.326-.132zm22.369.003c.191-.076.419-.067.507.021s-.068.15-.347.139c-.308-.013-.371-.075-.16-.16zm-12.32-.266c.255-.067.671-.067.926 0s.046.121-.463.121-.718-.054-.463-.121zm72.43.082c0-.055.208-.263.463-.463.42-.329.429-.32.1.1-.346.441-.563.581-.563.363zM44.821 5.718c-2.111-2.183-2.111-2.183.072-.072 2.027 1.96 2.303 2.255 2.111 2.255-.04 0-1.022-.982-2.183-2.183zm8.671 2c.255-.067.671-.067.926 0s.046.121-.463.121-.718-.054-.463-.121zm3.704-.265c.255-.067.671-.067.926 0s.046.121-.463.121-.718-.054-.463-.121zm11.79.002c.191-.076.419-.067.507.021s-.068.15-.347.139c-.308-.013-.371-.075-.16-.16zm-7.951-.271c.329-.063.805-.061 1.058.005s-.016.118-.598.115-.789-.057-.46-.12zm9.803.006c.191-.076.419-.067.507.021s-.068.15-.347.139c-.308-.013-.371-.075-.16-.16zm2.117-.265c.191-.076.419-.067.507.021s-.068.15-.347.139c-.308-.013-.371-.075-.16-.16zm50.056-.184c0-.055.208-.263.463-.463.42-.329.429-.32.1.1-.346.441-.563.581-.563.363zM36.229 4.858c.937-.946 1.764-1.72 1.837-1.72s-.635.774-1.572 1.72-1.764 1.72-1.837 1.72.635-.774 1.572-1.72zm40.614 1.455c.09-.146.216-.265.28-.265s.117.119.117.265-.126.265-.28.265-.207-.119-.117-.265zM39.669 4.064c.937-.946 1.764-1.72 1.837-1.72s-.635.774-1.572 1.72-1.764 1.72-1.837 1.72.635-.774 1.572-1.72zm84.935.816c.171-.171.35-.171.522 0s.082.261-.261.261-.432-.089-.261-.261zm.857-2.669c.003-.582.057-.789.12-.46s.061.805-.005 1.058-.118-.016-.115-.598zm8.631-.595c-.329-.42-.32-.429.1-.1.441.346.581.563.363.563-.055 0-.263-.208-.463-.463zm-90.239.018c.191-.076.419-.067.507.021s-.068.15-.347.139c-.308-.013-.371-.075-.16-.16zm-2.117-.265c.191-.076.419-.067.507.021s-.068.15-.347.139c-.308-.013-.371-.075-.16-.16z" fill="#4661b6"/><path d="M19.824 184.545c0-.208.746-2.325 3.974-11.284 3.98-11.046 3.873-10.717 3.397-10.443-1.697.976-4.52 3.271-8.434 6.857-6.414 5.878-5.712 5.349-6.345 4.777-.865-.783-.983-.655 10.143-10.984 5.513-5.118 5.513-5.118 5.359-8.973-.119-2.981-.578-53.554-.547-60.271.006-1.383.006-1.383-1.323-1.647-2.198-.438-9.115-1.341-12.86-1.679-3.377-.305-4.791-1.017-3.864-1.945.037-.037 3.813.264 8.392.669s8.419.656 8.533.56c.215-.181-1.472-20.797-1.722-21.047-.151-.151-16.355-.99-16.491-.855-.045.045 3.095 3.782 6.977 8.306l7.444 8.728c.459.6.381.529-8.041-7.269L7.76 71.997c-.033.034.159 2.264.427 4.956.982 9.897.983 10.054.031 10.054-.543 0-.83-.131-.83-.378 0-.342-1.091-.764-3.506-1.354-.4-.098-.731-.195-.736-.215A6116.84 6116.84 0 0 1 .081 54.556c.017-.021 5.478 2.383 12.136 5.343 12.105 5.382 12.105 5.382 22.707 1.403l10.724-3.857c.067.067 1.002 6.357 2.078 13.979 1.96 13.882 1.971 14.029 1.078 14.341-.141.049.348 1.629 1.085 3.51 1.501 3.829 1.527 3.414-.347 5.625-.695.819-10.575-.082-18.672-1.704-1.472-.295-.126 57.382 1.519 65.116.112.527 2.462 3.888 7.915 11.323 2.715 3.7 2.844 3.935 2.374 4.291-.831.63-.949.536-4.933-3.906-7.336-8.18-6.984-7.838-7.289-7.078-.146.364-.852 1.912-1.57 3.44s-2.603 6.261-4.188 10.517c-2.673 7.176-4.875 10.629-4.875 7.646zm28.047-92.578c.004-.838-1.174-5.49-1.391-5.49-1.362 0-14.146 4.481-12.885 4.516.513.014 5.297.451 13.944 1.273.182.017.331-.117.332-.299zm-11.908-4.582c10.181-2.938 10.189-2.94 10.158-3.191-.146-1.176-2.902-12.259-3.035-12.206-.096.038-3.114 3.314-6.707 7.28-5.648 6.235-7.225 7.892-6.673 7.012l5.291-8.263c2.841-4.435 5.113-8.117 5.048-8.182-.169-.169-12.853-.713-12.921-.554-.38.881 1.065 20.391 1.499 20.242.18-.062 3.483-1.023 7.34-2.136zM6.885 82.659c.448-.448-.821-9.776-1.709-12.564-1.194-3.746-1.231-3.347.474-5.031 1.443-1.425 4.111-1.519 10.318-.364.561.104.731.066.548-.125-.33-.345-13.608-6.252-13.741-6.113-.122.127 1.663 23.529 1.829 23.98.112.304 2.013.485 2.281.217zm36.766-12.534c.895.662.57-6.435-.337-7.342-.108-.108-10.429 3.401-10.649 3.62-.086.085 1.35.309 3.191.497 3.347.341 3.347.341 3.863 1.508.434.982.579 1.115.909.841.324-.269.542-.177 1.237.522.77.773.852.801.928.315.083-.527.092-.527.857.039zm59.053 100.65c-4.36-2.166-10.632-5.849-10.637-6.244-.012-1.127.421-1.022 4.758 1.152 2.397 1.202 4.804 2.458 5.35 2.791 1.204.736 1.207.718.454-2.662-.717-3.217-.596-3.327.945-.859 1.188 1.902 1.314 2.259 1.402 3.951.165 3.201.255 3.126-2.272 1.87zm-34.507-2.25c-.825-.089-1.552-.22-1.614-.292-.201-.232 2.838-6.316 3.337-6.681.431-.315.453-.52.208-1.928-.151-.866-1.241-9.434-2.422-19.038-2.147-17.462-2.147-17.462-6.778-39.291l-4.586-22.49c.025-.364.056-.959.07-1.323s-.825-3.995-1.864-8.07l-3.123-12.568c-.678-2.838-1.311-5.244-1.405-5.347s-5.917-1.169-12.939-2.368c-14.036-2.396-12.86-1.713-14.657-8.506-.299-1.131 5.435-19.748 9.257-30.056.14-.377-2.606-.293-4.514.137-.642.145-.728.087-.728-.491 0-.694 1.114-.985 3.788-.991 1.362-.003 1.956-.37 2.168-1.339.159-.724.257-.794.913-.65.669.147.999-.118 3.66-2.934 4.12-4.359 7.547-4.162 9.64.555.71 1.601 1.391 3.011 1.513 3.134.194.195 10.384-.358 14.234-.773 1.354-.146 1.585-.032 1.187.588-.116.18-2.876.585-6.809 1-7.744.817-7.805.827-7.805 1.385 0 1.318-2.88 3.752-4.035 3.409-1.767-.524-3.181-.739-3.006-.455.085.138-.067.309-.338.38-.558.146-.475-.26-2.175 10.585-.611 3.895-1.047 7.145-.969 7.223.127.127 5.097-.762 19.518-3.492 2.692-.51 5.628-.97 6.524-1.023.973-.058 2.076-.324 2.738-.662 1.876-.957 1.439-.44-1.316 1.556-3.404 2.467-3.715 2.859-3.431 4.327l2.505 12.373c2.286 11.245 2.286 11.245-1.68 22.49-2.181 6.185-3.857 11.285-3.724 11.334.272.1 5.502-.722 10.687-1.681a433.61 433.61 0 0 1 8.731-1.474c2.91-.461 5.384-.921 5.496-1.022.273-.246-.426-2.034-4.79-12.246-3.701-8.66-3.701-8.66-2.145-20.241C78.862 31.576 79.04 29.77 78.82 28.4c-.451-2.804-.401-3.013.508-2.142.767.735.767.735 6.548.437l8.03-.412 14.288-.908c1.109-1.531 16.526-20.39 16.669-20.39.493 0 5.847 4.043 5.722 4.321a783.13 783.13 0 0 0-1.708 4.014l-3.077 7.144-4.139 9.534c-2.631 6.095-2.631 6.095-5.999 7.225-23.152 7.769-21.622 6.81-21.64 13.568l-.23 14.471c-.189 7.307-.165 8.402.206 9.26l8.58 20.156 14.506 34.816c-.121.315-2.322 1.167-3.014 1.167-.65 0-14.608-6.448-14.608-6.749 0-2.687 2.38-2.496 7.699.618 2.969 1.738 5.437 3.058 5.484 2.933s-.81-2.463-1.905-5.196L92.758 76.355c-.164-.482-.703-.648-.703-.216 0 .136.121.565.268.953.442 1.163.998 5.527 1.312 10.309 1.103 16.769 1.676 21.307 3.724 29.501 2.068 8.272 3.888 23.722 4.636 39.355.162 3.377-1.572 8.27-2.931 8.27-.558 0-8.783-2.966-8.921-3.217-.154-.279-6.173-23.834-7.427-29.062-.569-2.374-.46-.098.606 12.567l1.006 12.954c-.044.033-2.551.986-5.573 2.118-5.48 2.054-5.695 2.099-7.503 1.582-.546-.156-2.061 4.362-1.612 4.81.078.078 1.729-.915 3.671-2.206 5.804-3.859 6.232-4.104 6.841-3.911.809.257.794.273-4.102 4.613-4.951 4.389-4.383 4.118-7.854 3.745zm28.356-7.262c0-.196-1.314-7.548-2.92-16.338l-6.472-35.031c-1.149-6.145-1.316-7.224-1.08-6.988.061.061 3.045 12.434 6.63 27.495l6.81 28.551c.458 1.835 1.595.469 1.23-1.478-.131-.702-.418-2.825-.636-4.717-.48-4.154-1.961-13.157-4.244-25.797-1.497-8.291-1.7-9.812-1.729-12.965-.047-5.097.018-4.935-2.351-5.874-1.091-.432-2.03-.832-2.086-.887s.748-.977 1.786-2.048c2.506-2.584 2.48-3.134-.163-3.489-1.826-.245-1.824-.232-.313-2.601 1.869-2.93 1.076-3.488-3.392-2.388-.953.235-.724-.189 1.521-2.821s2.224-2.596 1.895-3.114c-.168-.265-.819-.193-3.083.342-3.936.93-3.934.935-.916-2.485 3.121-3.536 3.119-3.444.05-2.351-3.056 1.089-3.02 1.198-1.002-3.049 1.71-3.6 1.71-3.6 1.297-4.812-.524-1.539-1.771-2.833-2.562-2.659-.832.183-23.118 3.577-23.49 3.577-.304 0-.14 4.153.176 4.469.069.07 4.726-.85 10.348-2.043l10.305-2.086c.046.046-4.467 1.494-10.028 3.219l-10.352 3.349c-.757.672 1.402 15.052 4.613 30.723.74 3.609 2.047 13.455 3.033 22.849 1.421 13.534 2.395 20.192 2.877 19.671.093-.101-1.991-20.294-3.112-30.145-.93-8.179-1.755-16.75-1.624-16.881.077-.077.14-.022.14.122s.947 6.564 2.103 14.265l2.65 17.84 2.15 14.063c.128.207 2.282-.761 3.362-1.512.198-.138.59-5.718.964-13.742l.563-10.718c.156-1.987.156-1.987-2.103-3.692-2.522-1.904-2.489-1.543-.422-4.64 1.531-2.294 1.676-1.845-1.852-5.747-3.803-4.206-3.74-3.51-.528-5.877 1.461-1.077 2.563-2.013 2.447-2.082s-1.368-.451-2.783-.851c-2.975-.84-2.969-.756-.193-2.384 2.569-1.506 2.549-1.672-.296-2.474-1.226-.346-2.275-.669-2.331-.719s.641-.927 1.548-1.95c1.686-1.902 1.406-2.934-1.44-5.296-.595-.494-.506-.845.556-2.208.959-1.232.959-1.232.412-3.411-.621-2.472-.547-2.636 1.136-2.525 1.192.078.472-2.5 7.373 26.395l10.13 42.425c.495 2.076.495 2.076 2.744 2.959 2.608 1.024 2.646 1.032 2.646.561zm-10.827-59.064c.013-.308.075-.371.16-.16.076.191.067.419-.021.507s-.15-.068-.139-.347zM60.53 64.11c3.337-11.377 3.341-10.281-.053-13.365-6.696-6.083-6.387-5.32-3.318-8.189 2.135-1.996 2.641-2.6 2.341-2.794-.211-.136-1.798-1.022-3.528-1.968-3.732-2.043-3.65-1.581-.827-4.649 2.595-2.821 2.651-2.745-1.469-1.979-13.269 2.466-15.298 2.917-19.008 4.232-4.59 1.627-4.61 1.618-1.788-.757 1.998-1.683 2.272-2.023 2.526-3.136.573-2.512 3.468-17.219 3.468-17.62 0-.345-3.632-3.075-4.092-3.075-.081 0 .211.672.65 1.492 1.069 2.004 1.063 2.022-1.051 2.967-2.002.895-2.004.85.143 4.126.627.957.439 1.199-1.963 2.53-2.582 1.43-2.558 1.258-.408 2.948 1.746 1.372 1.746 1.372.804 2.187-3.195 2.765-8.34 7.416-8.275 7.481.042.042 2.121-.746 4.621-1.752s4.543-1.748 4.54-1.651-1.918 2.618-4.257 5.601l-4.402 5.663c-.263.42.508-.143 3.711-2.708 3.734-2.991 3.549-3.099 3.008 1.756l-.437 4.432c0 .348 1.143-.634 3.641-3.128 4.367-4.359 4.026-4.303 4.055-.658.047 6.07.035 6.059 2.719 2.366 2.831-3.894 2.56-3.874 3.322-.25.875 4.158.693 4.124 3.186.609 1.203-1.696 2.221-3.048 2.262-3.004s.211 1.806.378 3.916c.26 3.28 4.683 23.072 6.261 28.018.207.648.334.27 3.241-9.641zm30.467 8.513c0-.054-.705-1.572-1.567-3.373-1.766-3.691-1.787-3.524.575-4.478 1.813-.732 1.8-.633.446-3.565-1.075-2.328-1.075-2.328.55-3.968s1.625-1.64-.178-5.184l-1.887-3.718c-.046-.096.459-.784 1.121-1.53 1.451-1.634 1.457-1.727.248-3.889-1.185-2.119-1.334-2.024 2.377-1.516 3.656.5 3.23.736 3.555-1.971.328-2.733-.03-2.573 3.373-1.499 3.656 1.154 3.559 1.156 3.258-.069-.734-2.983-.807-2.902 1.526-1.688 2.795 1.454 2.743 1.471 2.743-.892 0-2.309-.2-2.239 3.03-1.07 2.813 1.018 2.786 1.036 1.866-1.229-.832-2.047-.972-1.979 2.61-1.269 3.808.755 3.459.975 5.305-3.349l6.845-15.739c1.085-2.372 1.072-2.428-.605-2.678-2.567-.383-2.087-.877-8.658 8.914-4.985 7.429-6.156 9.015-6.778 9.178-.413.108-6.843.699-14.288 1.311-15.152 1.247-13.947.947-14.424 3.599l-3.357 17.425c-.356 1.668 7.061 19.42 9.197 22.014.238.288 3.118.503 3.118.233zM62.434 46.442l-.541-5.189c0-.736-3.389 2.821-3.861 4.052-.072.189.968 1.753 2.312 3.476s2.486 3.006 2.538 2.85-.149-2.491-.447-5.19zm-1.073-9.374c-.004-.932-.516-4.906-.65-5.039-.112-.112-2.058 1.424-3.816 3.013-.302.273-.001.518 1.72 1.397 2.348 1.2 2.748 1.292 2.746.63zM45.749 11.809c.3-.322.722-1.178.936-1.9 1.407-4.739-4.707-8.149-8.26-4.607-3.587 3.577-3.561 3.451-.677 3.23 3.908-.299 3.628-.346 3.721.621.069.719-.007.86-.463.86-1.311 0 .082 1.064 2.615 1.998 1.309.482 1.507.463 2.127-.202zm-7.008-1.266c.091-.148-.107-.263-.447-.261-.492.003-.533.054-.214.261.492.318.465.318.661 0zm32.841 60.656l-.967-18.432-.667-14.649c1.314-1.314 2.571-.23 2.419 2.087-.63 9.605-.701 15.105-.301 23.215.513 10.409.519 11.682.052 11.682-.275 0-.398-.894-.537-3.903zm1.468-36.18c-2.269-1.799-2.525-1.935-3.175-1.68-1.177.462-5.622 2.075-5.716 2.075s1.463-6.416 1.597-6.58c.078-.096.435.157 2.293 1.629.932.738.932.738 4.848.074 4.682-.793 4.249-1.138 3.576 2.85l-.557 3.456c0 .366-.524.033-2.865-1.824zm-1.119-8.455c-6.155-2.267-8.44-8.513-6.298-17.211 1.092-4.434.846-4.006 2.909-5.045 1.867-.94 1.867-.94 5.145.456 3.886 1.655 3.898 1.624-.815 2.2-5.695.695-5.007.262-5.842 3.685-.634 2.598.478 11.209 1.54 11.932a1013.64 1013.64 0 0 1 1.828 1.286c1.584 1.115 5.67 1.149 7.031.058.727-.583 1.126-6.141.757-10.542-.221-2.637-.364-4.832-.318-4.878.356-.356 2.64 5.594 2.846 7.415.814 7.185-3.613 12.552-8.783 10.647zm58.124-18.806c-.085-.223.27-1.541.79-2.929 1.166-3.113 1.299-3.022-2.296-1.577-3.48 1.399-3.204 1.453-2.991-.583.25-2.389 4.813-3.563 7.295-1.877 1.851 1.257 1.898.69-.361 4.324-1.929 3.103-2.163 3.357-2.438 2.643z" fill="#08070d"/></svg>