<?xml version="1.0" encoding="UTF-8" standalone="no"?>
<!DOCTYPE svg PUBLIC "-//W3C//DTD SVG 1.0//EN" "http://www.w3.org/TR/2001/PR-SVG-20010719/DTD/svg10.dtd">
<svg width="68cm" height="25cm" viewBox="138 -56 1343 497" xmlns="http://www.w3.org/2000/svg" xmlns:xlink="http://www.w3.org/1999/xlink">
  <g id="Background"/>
  <g id="Background"/>
  <g id="Background"/>
  <g id="Background"/>
  <g id="Background"/>
  <g id="Background">
    <line style="fill: none; stroke-opacity: 1; stroke-width: 2; stroke: #7f7f7f" x1="160" y1="160" x2="160" y2="80"/>
    <line style="fill: none; stroke-opacity: 1; stroke-width: 2; stroke: #7f7f7f" x1="180" y1="160" x2="180" y2="80"/>
    <line style="fill: none; stroke-opacity: 1; stroke-width: 2; stroke: #7f7f7f" x1="200" y1="160" x2="200" y2="80"/>
    <line style="fill: none; stroke-opacity: 1; stroke-width: 2; stroke: #7f7f7f" x1="220" y1="160" x2="220" y2="80"/>
    <line style="fill: none; stroke-opacity: 1; stroke-width: 2; stroke: #7f7f7f" x1="1120" y1="320" x2="1120" y2="240"/>
    <line style="fill: none; stroke-opacity: 1; stroke-width: 2; stroke: #7f7f7f" x1="1140" y1="320" x2="1140" y2="240"/>
    <line style="fill: none; stroke-opacity: 1; stroke-width: 2; stroke: #7f7f7f" x1="1160" y1="320" x2="1160" y2="240"/>
    <line style="fill: none; stroke-opacity: 1; stroke-width: 2; stroke: #7f7f7f" x1="1180" y1="320" x2="1180" y2="240"/>
    <line style="fill: none; stroke-opacity: 1; stroke-width: 2; stroke: #7f7f7f" x1="1200" y1="320" x2="1200" y2="240"/>
    <line style="fill: none; stroke-opacity: 1; stroke-width: 2; stroke: #7f7f7f" x1="1220" y1="320" x2="1220" y2="240"/>
    <line style="fill: none; stroke-opacity: 1; stroke-width: 2; stroke: #7f7f7f" x1="1240" y1="320" x2="1240" y2="240"/>
    <line style="fill: none; stroke-opacity: 1; stroke-width: 2; stroke: #7f7f7f" x1="1260" y1="320" x2="1260" y2="240"/>
    <line style="fill: none; stroke-opacity: 1; stroke-width: 2; stroke: #7f7f7f" x1="1280" y1="320" x2="1280" y2="240"/>
    <line style="fill: none; stroke-opacity: 1; stroke-width: 2; stroke: #7f7f7f" x1="1300" y1="320" x2="1300" y2="240"/>
    <line style="fill: none; stroke-opacity: 1; stroke-width: 2; stroke: #7f7f7f" x1="1320" y1="320" x2="1320" y2="240"/>
    <line style="fill: none; stroke-opacity: 1; stroke-width: 2; stroke: #7f7f7f" x1="1340" y1="320" x2="1340" y2="240"/>
    <line style="fill: none; stroke-opacity: 1; stroke-width: 2; stroke: #7f7f7f" x1="1360" y1="320" x2="1360" y2="240"/>
    <line style="fill: none; stroke-opacity: 1; stroke-width: 2; stroke: #7f7f7f" x1="1380" y1="320" x2="1380" y2="240"/>
    <line style="fill: none; stroke-opacity: 1; stroke-width: 2; stroke: #7f7f7f" x1="1400" y1="320" x2="1400" y2="240"/>
    <line style="fill: none; stroke-opacity: 1; stroke-width: 2; stroke: #7f7f7f" x1="240" y1="320" x2="240" y2="240"/>
    <line style="fill: none; stroke-opacity: 1; stroke-width: 2; stroke: #7f7f7f" x1="260" y1="320" x2="260" y2="240"/>
    <line style="fill: none; stroke-opacity: 1; stroke-width: 2; stroke: #7f7f7f" x1="280" y1="320" x2="280" y2="240"/>
    <line style="fill: none; stroke-opacity: 1; stroke-width: 2; stroke: #7f7f7f" x1="300" y1="320" x2="300" y2="240"/>
    <line style="fill: none; stroke-opacity: 1; stroke-width: 2; stroke: #7f7f7f" x1="320" y1="320" x2="320" y2="240"/>
    <line style="fill: none; stroke-opacity: 1; stroke-width: 2; stroke: #7f7f7f" x1="340" y1="320" x2="340" y2="240"/>
    <line style="fill: none; stroke-opacity: 1; stroke-width: 2; stroke: #7f7f7f" x1="360" y1="320" x2="360" y2="240"/>
    <line style="fill: none; stroke-opacity: 1; stroke-width: 2; stroke: #7f7f7f" x1="380" y1="320" x2="380" y2="240"/>
    <line style="fill: none; stroke-opacity: 1; stroke-width: 2; stroke: #7f7f7f" x1="400" y1="320" x2="400" y2="240"/>
    <line style="fill: none; stroke-opacity: 1; stroke-width: 2; stroke: #7f7f7f" x1="420" y1="320" x2="420" y2="240"/>
    <line style="fill: none; stroke-opacity: 1; stroke-width: 2; stroke: #7f7f7f" x1="440" y1="320" x2="440" y2="240"/>
    <g>
      <rect style="fill: #000099; fill-opacity: 1; stroke-opacity: 1; stroke-width: 2; stroke: #7f7f7f" x="220" y="260" width="240" height="42.2222" rx="4" ry="4"/>
      <text font-size="22.5778" style="fill: #ffffff; fill-opacity: 1; stroke: none;text-anchor:middle;font-family:sans-serif;font-style:normal;font-weight:normal" x="340" y="291.15">
        <tspan x="340" y="291.15">AR</tspan>
      </text>
    </g>
    <g>
      <rect style="fill: #ffff55; fill-opacity: 1; stroke-opacity: 1; stroke-width: 1; stroke: #000000" x="660" y="20" width="320" height="41.2222" rx="0" ry="0"/>
      <text font-size="22.5778" style="fill: #000000; fill-opacity: 1; stroke: none;text-anchor:middle;font-family:sans-serif;font-style:normal;font-weight:normal" x="820" y="50.65">
        <tspan x="820" y="50.65"></tspan>
      </text>
    </g>
    <g>
      <rect style="fill: #ffff55; fill-opacity: 1; stroke-opacity: 1; stroke-width: 1; stroke: #000000" x="660" y="60" width="320" height="41.2222" rx="0" ry="0"/>
      <text font-size="22.5778" style="fill: #000000; fill-opacity: 1; stroke: none;text-anchor:middle;font-family:sans-serif;font-style:normal;font-weight:normal" x="820" y="90.65">
        <tspan x="820" y="90.65"></tspan>
      </text>
    </g>
    <g>
      <rect style="fill: #ffff55; fill-opacity: 1; stroke-opacity: 1; stroke-width: 1; stroke: #000000" x="660" y="100" width="320" height="41.2222" rx="0" ry="0"/>
      <text font-size="22.5778" style="fill: #000000; fill-opacity: 1; stroke: none;text-anchor:middle;font-family:sans-serif;font-style:normal;font-weight:normal" x="820" y="130.65">
        <tspan x="820" y="130.65"></tspan>
      </text>
    </g>
    <g>
      <rect style="fill: #ffff55; fill-opacity: 1; stroke-opacity: 1; stroke-width: 1; stroke: #000000" x="660" y="140" width="320" height="41.2222" rx="0" ry="0"/>
      <text font-size="22.5778" style="fill: #000000; fill-opacity: 1; stroke: none;text-anchor:middle;font-family:sans-serif;font-style:normal;font-weight:normal" x="820" y="170.65">
        <tspan x="820" y="170.65"></tspan>
      </text>
    </g>
    <g>
      <rect style="fill: #ffff55; fill-opacity: 1; stroke-opacity: 1; stroke-width: 1; stroke: #000000" x="660" y="180" width="320" height="41.2222" rx="0" ry="0"/>
      <text font-size="22.5778" style="fill: #000000; fill-opacity: 1; stroke: none;text-anchor:middle;font-family:sans-serif;font-style:normal;font-weight:normal" x="820" y="210.65">
        <tspan x="820" y="210.65"></tspan>
      </text>
    </g>
    <g>
      <rect style="fill: #ffff55; fill-opacity: 1; stroke-opacity: 1; stroke-width: 1; stroke: #000000" x="660" y="260" width="320" height="41.2222" rx="0" ry="0"/>
      <text font-size="22.5778" style="fill: #000000; fill-opacity: 1; stroke: none;text-anchor:middle;font-family:sans-serif;font-style:normal;font-weight:normal" x="820" y="290.65">
        <tspan x="820" y="290.65"></tspan>
      </text>
    </g>
    <g>
      <rect style="fill: #ffff55; fill-opacity: 1; stroke-opacity: 1; stroke-width: 1; stroke: #000000" x="660" y="340" width="320" height="41.2222" rx="0" ry="0"/>
      <text font-size="22.5778" style="fill: #000000; fill-opacity: 1; stroke: none;text-anchor:middle;font-family:sans-serif;font-style:normal;font-weight:normal" x="820" y="370.65">
        <tspan x="820" y="370.65"></tspan>
      </text>
    </g>
    <g>
      <rect style="fill: #000099; fill-opacity: 1; stroke-opacity: 1; stroke-width: 2; stroke: #7f7f7f" x="1100" y="260" width="320" height="42.2222" rx="4" ry="4"/>
      <text font-size="22.5778" style="fill: #ffffff; fill-opacity: 1; stroke: none;text-anchor:middle;font-family:sans-serif;font-style:normal;font-weight:normal" x="1260" y="291.15">
        <tspan x="1260" y="291.15">DR</tspan>
      </text>
    </g>
    <g>
      <line style="fill: none; stroke-opacity: 1; stroke-width: 2; stroke: #000000" x1="664.472" y1="-20" x2="975.528" y2="-20"/>
      <polyline style="fill: none; stroke-opacity: 1; stroke-width: 2; stroke: #000000" points="672.236,-25 662.236,-20 672.236,-15 "/>
      <polyline style="fill: none; stroke-opacity: 1; stroke-width: 2; stroke: #000000" points="967.764,-15 977.764,-20 967.764,-25 "/>
    </g>
    <text font-size="22.5778" style="fill: #000000; fill-opacity: 1; stroke: none;text-anchor:middle;font-family:sans-serif;font-style:normal;font-weight:normal" x="820" y="-31.25">
      <tspan x="820" y="-31.25">h = 16 bit</tspan>
    </text>
    <g>
      <line style="fill: none; stroke-opacity: 1; stroke-width: 2; stroke: #000000" x1="1104.47" y1="220" x2="1415.53" y2="220"/>
      <polyline style="fill: none; stroke-opacity: 1; stroke-width: 2; stroke: #000000" points="1112.24,215 1102.24,220 1112.24,225 "/>
      <polyline style="fill: none; stroke-opacity: 1; stroke-width: 2; stroke: #000000" points="1407.76,225 1417.76,220 1407.76,215 "/>
    </g>
    <text font-size="22.5778" style="fill: #000000; fill-opacity: 1; stroke: none;text-anchor:middle;font-family:sans-serif;font-style:normal;font-weight:normal" x="1260" y="208.75">
      <tspan x="1260" y="208.75">h = 16 bit</tspan>
    </text>
    <g>
      <line style="fill: none; stroke-opacity: 1; stroke-width: 2; stroke: #000000" x1="144.472" y1="60" x2="455.528" y2="60"/>
      <polyline style="fill: none; stroke-opacity: 1; stroke-width: 2; stroke: #000000" points="152.236,55 142.236,60 152.236,65 "/>
      <polyline style="fill: none; stroke-opacity: 1; stroke-width: 2; stroke: #000000" points="447.764,65 457.764,60 447.764,55 "/>
    </g>
    <text font-size="22.5778" style="fill: #000000; fill-opacity: 1; stroke: none;text-anchor:middle;font-family:sans-serif;font-style:normal;font-weight:normal" x="340" y="48.75">
      <tspan x="340" y="48.75">k = 16 bit</tspan>
    </text>
    <g>
      <rect style="fill: #7f7f7f; fill-opacity: 1; stroke-opacity: 1; stroke-width: 1; stroke: #ffffff" x="540" y="20" width="80" height="41.2222" rx="0" ry="0"/>
      <text font-size="22.5778" style="fill: #000000; fill-opacity: 1; stroke: none;text-anchor:end;font-family:sans-serif;font-style:normal;font-weight:normal" x="614.5" y="50.65">
        <tspan x="614.5" y="50.65">0</tspan>
      </text>
    </g>
    <g>
      <rect style="fill: #7f7f7f; fill-opacity: 1; stroke-opacity: 1; stroke-width: 1; stroke: #ffffff" x="540" y="60" width="80" height="41.2222" rx="0" ry="0"/>
      <text font-size="22.5778" style="fill: #000000; fill-opacity: 1; stroke: none;text-anchor:end;font-family:sans-serif;font-style:normal;font-weight:normal" x="614.5" y="90.65">
        <tspan x="614.5" y="90.65">2</tspan>
      </text>
    </g>
    <g>
      <rect style="fill: #7f7f7f; fill-opacity: 1; stroke-opacity: 1; stroke-width: 1; stroke: #ffffff" x="540" y="100" width="80" height="41.2222" rx="0" ry="0"/>
      <text font-size="22.5778" style="fill: #000000; fill-opacity: 1; stroke: none;text-anchor:end;font-family:sans-serif;font-style:normal;font-weight:normal" x="614.5" y="130.65">
        <tspan x="614.5" y="130.65">4</tspan>
      </text>
    </g>
    <g>
      <rect style="fill: #7f7f7f; fill-opacity: 1; stroke-opacity: 1; stroke-width: 1; stroke: #ffffff" x="540" y="140" width="80" height="41.2222" rx="0" ry="0"/>
      <text font-size="22.5778" style="fill: #000000; fill-opacity: 1; stroke: none;text-anchor:end;font-family:sans-serif;font-style:normal;font-weight:normal" x="614.5" y="170.65">
        <tspan x="614.5" y="170.65">6</tspan>
      </text>
    </g>
    <g>
      <rect style="fill: #7f7f7f; fill-opacity: 1; stroke-opacity: 1; stroke-width: 1; stroke: #ffffff" x="540" y="180" width="80" height="41.2222" rx="0" ry="0"/>
      <text font-size="22.5778" style="fill: #000000; fill-opacity: 1; stroke: none;text-anchor:end;font-family:sans-serif;font-style:normal;font-weight:normal" x="614.5" y="210.65">
        <tspan x="614.5" y="210.65">...</tspan>
      </text>
    </g>
    <g>
      <rect style="fill: #7f7f7f; fill-opacity: 1; stroke-opacity: 1; stroke-width: 1; stroke: #ffffff" x="540" y="260" width="80" height="41.2222" rx="0" ry="0"/>
      <text font-size="22.5778" style="fill: #000000; fill-opacity: 1; stroke: none;text-anchor:end;font-family:sans-serif;font-style:normal;font-weight:normal" x="614.5" y="290.65">
        <tspan x="614.5" y="290.65"></tspan>
      </text>
    </g>
    <g>
      <rect style="fill: #7f7f7f; fill-opacity: 1; stroke-opacity: 1; stroke-width: 1; stroke: #ffffff" x="540" y="340" width="80" height="41.2222" rx="0" ry="0"/>
      <text font-size="22.5778" style="fill: #000000; fill-opacity: 1; stroke: none;text-anchor:end;font-family:sans-serif;font-style:normal;font-weight:normal" x="614.5" y="370.65">
        <tspan x="614.5" y="370.65">...</tspan>
      </text>
    </g>
    <g>
      <rect style="fill: #ffff55; fill-opacity: 1; stroke-opacity: 1; stroke-width: 1; stroke: #000000" x="660" y="380" width="320" height="41.2222" rx="0" ry="0"/>
      <text font-size="22.5778" style="fill: #000000; fill-opacity: 1; stroke: none;text-anchor:middle;font-family:sans-serif;font-style:normal;font-weight:normal" x="820" y="410.65">
        <tspan x="820" y="410.65"></tspan>
      </text>
    </g>
    <g>
      <rect style="fill: #7f7f7f; fill-opacity: 1; stroke-opacity: 1; stroke-width: 1; stroke: #ffffff" x="540" y="380" width="80" height="41.2222" rx="0" ry="0"/>
      <text font-size="22.5778" style="fill: #000000; fill-opacity: 1; stroke: none;text-anchor:end;font-family:sans-serif;font-style:normal;font-weight:normal" x="614.5" y="410.65">
        <tspan x="614.5" y="410.65">4094</tspan>
      </text>
    </g>
    <text font-size="22.5778" style="fill: #000000; fill-opacity: 1; stroke: none;text-anchor:middle;font-family:sans-serif;font-style:normal;font-weight:normal" x="1040" y="268.75">
      <tspan x="1040" y="268.75">Store</tspan>
    </text>
    <g>
      <rect style="fill: #ffff55; fill-opacity: 1; stroke-opacity: 1; stroke-width: 1; stroke: #000000" x="660" y="300" width="320" height="41.2222" rx="0" ry="0"/>
      <text font-size="22.5778" style="fill: #000000; fill-opacity: 1; stroke: none;text-anchor:middle;font-family:sans-serif;font-style:normal;font-weight:normal" x="820" y="330.65">
        <tspan x="820" y="330.65"></tspan>
      </text>
    </g>
    <g>
      <rect style="fill: #7f7f7f; fill-opacity: 1; stroke-opacity: 1; stroke-width: 1; stroke: #ffffff" x="540" y="300" width="80" height="41.2222" rx="0" ry="0"/>
      <text font-size="22.5778" style="fill: #000000; fill-opacity: 1; stroke: none;text-anchor:end;font-family:sans-serif;font-style:normal;font-weight:normal" x="614.5" y="330.65">
        <tspan x="614.5" y="330.65"></tspan>
      </text>
    </g>
    <g>
      <rect style="fill: #ffff55; fill-opacity: 1; stroke-opacity: 1; stroke-width: 1; stroke: #000000" x="660" y="220" width="320" height="41.2222" rx="0" ry="0"/>
      <text font-size="22.5778" style="fill: #000000; fill-opacity: 1; stroke: none;text-anchor:middle;font-family:sans-serif;font-style:normal;font-weight:normal" x="820" y="250.65">
        <tspan x="820" y="250.65"></tspan>
      </text>
    </g>
    <g>
      <rect style="fill: #7f7f7f; fill-opacity: 1; stroke-opacity: 1; stroke-width: 1; stroke: #ffffff" x="540" y="220" width="80" height="41.2222" rx="0" ry="0"/>
      <text font-size="22.5778" style="fill: #000000; fill-opacity: 1; stroke: none;text-anchor:end;font-family:sans-serif;font-style:normal;font-weight:normal" x="614.5" y="250.65">
        <tspan x="614.5" y="250.65"></tspan>
      </text>
    </g>
    <line style="fill: none; stroke-opacity: 1; stroke-width: 2; stroke: #7f7f7f" x1="680" y1="440" x2="680" y2="0"/>
    <line style="fill: none; stroke-opacity: 1; stroke-width: 2; stroke: #7f7f7f" x1="700" y1="440" x2="700" y2="0"/>
    <line style="fill: none; stroke-opacity: 1; stroke-width: 2; stroke: #7f7f7f" x1="720" y1="440" x2="720" y2="0"/>
    <line style="fill: none; stroke-opacity: 1; stroke-width: 2; stroke: #7f7f7f" x1="740" y1="440" x2="740" y2="0"/>
    <line style="fill: none; stroke-opacity: 1; stroke-width: 2; stroke: #7f7f7f" x1="760" y1="440" x2="760" y2="0"/>
    <line style="fill: none; stroke-opacity: 1; stroke-width: 2; stroke: #7f7f7f" x1="780" y1="440" x2="780" y2="0"/>
    <line style="fill: none; stroke-opacity: 1; stroke-width: 2; stroke: #7f7f7f" x1="800" y1="440" x2="800" y2="0"/>
    <line style="fill: none; stroke-opacity: 1; stroke-width: 2; stroke: #7f7f7f" x1="820" y1="440" x2="820" y2="0"/>
    <line style="fill: none; stroke-opacity: 1; stroke-width: 2; stroke: #7f7f7f" x1="840" y1="440" x2="840" y2="0"/>
    <line style="fill: none; stroke-opacity: 1; stroke-width: 2; stroke: #7f7f7f" x1="860" y1="440" x2="860" y2="0"/>
    <line style="fill: none; stroke-opacity: 1; stroke-width: 2; stroke: #7f7f7f" x1="880" y1="440" x2="880" y2="0"/>
    <line style="fill: none; stroke-opacity: 1; stroke-width: 2; stroke: #7f7f7f" x1="900" y1="440" x2="900" y2="0"/>
    <line style="fill: none; stroke-opacity: 1; stroke-width: 2; stroke: #7f7f7f" x1="920" y1="440" x2="920" y2="0"/>
    <line style="fill: none; stroke-opacity: 1; stroke-width: 2; stroke: #7f7f7f" x1="940" y1="440" x2="940" y2="0"/>
    <line style="fill: none; stroke-opacity: 1; stroke-width: 2; stroke: #7f7f7f" x1="960" y1="440" x2="960" y2="0"/>
    <line style="fill: none; stroke-opacity: 1; stroke-width: 2; stroke: #7f7f7f" x1="240" y1="160" x2="240" y2="80"/>
    <line style="fill: none; stroke-opacity: 1; stroke-width: 2; stroke: #7f7f7f" x1="260" y1="160" x2="260" y2="80"/>
    <line style="fill: none; stroke-opacity: 1; stroke-width: 2; stroke: #7f7f7f" x1="280" y1="160" x2="280" y2="80"/>
    <line style="fill: none; stroke-opacity: 1; stroke-width: 2; stroke: #7f7f7f" x1="300" y1="160" x2="300" y2="80"/>
    <line style="fill: none; stroke-opacity: 1; stroke-width: 2; stroke: #7f7f7f" x1="320" y1="160" x2="320" y2="80"/>
    <line style="fill: none; stroke-opacity: 1; stroke-width: 2; stroke: #7f7f7f" x1="340" y1="160" x2="340" y2="80"/>
    <line style="fill: none; stroke-opacity: 1; stroke-width: 2; stroke: #7f7f7f" x1="360" y1="160" x2="360" y2="80"/>
    <line style="fill: none; stroke-opacity: 1; stroke-width: 2; stroke: #7f7f7f" x1="380" y1="160" x2="380" y2="80"/>
    <line style="fill: none; stroke-opacity: 1; stroke-width: 2; stroke: #7f7f7f" x1="400" y1="160" x2="400" y2="80"/>
    <line style="fill: none; stroke-opacity: 1; stroke-width: 2; stroke: #7f7f7f" x1="420" y1="160" x2="420" y2="80"/>
    <line style="fill: none; stroke-opacity: 1; stroke-width: 2; stroke: #7f7f7f" x1="440" y1="160" x2="440" y2="80"/>
    <g>
      <rect style="fill: #000099; fill-opacity: 1; stroke-opacity: 1; stroke-width: 2; stroke: #7f7f7f" x="140" y="100" width="320" height="42.2222" rx="4" ry="4"/>
      <text font-size="22.5778" style="fill: #ffffff; fill-opacity: 1; stroke: none;text-anchor:middle;font-family:sans-serif;font-style:normal;font-weight:normal" x="300" y="131.15">
        <tspan x="300" y="131.15">IR (Instruction Reg)</tspan>
      </text>
    </g>
    <g>
      <rect style="fill: #ffffff; fill-opacity: 1; stroke-opacity: 1; stroke-width: 1; stroke-dasharray: 4; stroke: #000000" x="270" y="300" width="210" height="41.2222" rx="0" ry="0"/>
      <text font-size="22.5778" style="fill: #000000; fill-opacity: 1; stroke: none;text-anchor:end;font-family:sans-serif;font-style:normal;font-weight:normal" x="474.5" y="330.65">
        <tspan x="474.5" y="330.65">0000 0001 0010</tspan>
      </text>
    </g>
    <g>
      <path style="fill: none; stroke-opacity: 1; stroke-width: 2; stroke: #000000" d="M 460,110.556 A 83.3336,83.3336 0 0 1 469.126,267.308"/>
      <polygon style="fill: #000000; fill-opacity: 1; stroke-opacity: 1; stroke-width: 2; stroke: #000000" fill-rule="evenodd" points="462.147,269.93 470.347,262.33 469.347,267.83 473.147,271.93 "/>
    </g>
    <g>
      <rect style="fill: #ffffff; fill-opacity: 1; stroke-opacity: 1; stroke-width: 1; stroke-dasharray: 4; stroke: #000000" x="1360" y="300" width="80" height="41.2222" rx="0" ry="0"/>
      <text font-size="22.5778" style="fill: #000000; fill-opacity: 1; stroke: none;text-anchor:end;font-family:sans-serif;font-style:normal;font-weight:normal" x="1434.5" y="330.65">
        <tspan x="1434.5" y="330.65">1274</tspan>
      </text>
    </g>
    <line style="fill: none; stroke-opacity: 1; stroke-width: 2; stroke: #7f7f7f" x1="1120" y1="160" x2="1120" y2="80"/>
    <line style="fill: none; stroke-opacity: 1; stroke-width: 2; stroke: #7f7f7f" x1="1140" y1="160" x2="1140" y2="80"/>
    <line style="fill: none; stroke-opacity: 1; stroke-width: 2; stroke: #7f7f7f" x1="1160" y1="160" x2="1160" y2="80"/>
    <line style="fill: none; stroke-opacity: 1; stroke-width: 2; stroke: #7f7f7f" x1="1180" y1="160" x2="1180" y2="80"/>
    <line style="fill: none; stroke-opacity: 1; stroke-width: 2; stroke: #7f7f7f" x1="1200" y1="160" x2="1200" y2="80"/>
    <line style="fill: none; stroke-opacity: 1; stroke-width: 2; stroke: #7f7f7f" x1="1220" y1="160" x2="1220" y2="80"/>
    <line style="fill: none; stroke-opacity: 1; stroke-width: 2; stroke: #7f7f7f" x1="1240" y1="160" x2="1240" y2="80"/>
    <line style="fill: none; stroke-opacity: 1; stroke-width: 2; stroke: #7f7f7f" x1="1260" y1="160" x2="1260" y2="80"/>
    <line style="fill: none; stroke-opacity: 1; stroke-width: 2; stroke: #7f7f7f" x1="1280" y1="160" x2="1280" y2="80"/>
    <line style="fill: none; stroke-opacity: 1; stroke-width: 2; stroke: #7f7f7f" x1="1300" y1="160" x2="1300" y2="80"/>
    <line style="fill: none; stroke-opacity: 1; stroke-width: 2; stroke: #7f7f7f" x1="1320" y1="160" x2="1320" y2="80"/>
    <line style="fill: none; stroke-opacity: 1; stroke-width: 2; stroke: #7f7f7f" x1="1340" y1="160" x2="1340" y2="80"/>
    <line style="fill: none; stroke-opacity: 1; stroke-width: 2; stroke: #7f7f7f" x1="1360" y1="160.612" x2="1360" y2="80"/>
    <line style="fill: none; stroke-opacity: 1; stroke-width: 2; stroke: #7f7f7f" x1="1380" y1="160" x2="1380" y2="80"/>
    <line style="fill: none; stroke-opacity: 1; stroke-width: 2; stroke: #7f7f7f" x1="1400" y1="139.504" x2="1400" y2="80"/>
    <g>
      <rect style="fill: #000099; fill-opacity: 1; stroke-opacity: 1; stroke-width: 2; stroke: #7f7f7f" x="1100" y="100" width="320" height="42.2222" rx="4" ry="4"/>
      <text font-size="22.5778" style="fill: #ffffff; fill-opacity: 1; stroke: none;text-anchor:middle;font-family:sans-serif;font-style:normal;font-weight:normal" x="1260" y="131.15">
        <tspan x="1260" y="131.15">ACC (Accumulator Reg)</tspan>
      </text>
    </g>
    <g>
      <rect style="fill: #ffffff; fill-opacity: 1; stroke-opacity: 1; stroke-width: 1; stroke-dasharray: 4; stroke: #000000" x="1360" y="140" width="80" height="41.2222" rx="0" ry="0"/>
      <text font-size="22.5778" style="fill: #000000; fill-opacity: 1; stroke: none;text-anchor:end;font-family:sans-serif;font-style:normal;font-weight:normal" x="1434.5" y="170.65">
        <tspan x="1434.5" y="170.65">1274</tspan>
      </text>
    </g>
    <g>
      <path style="fill: none; stroke-opacity: 1; stroke-width: 2; stroke: #000000" d="M 1429.13,277.864 A 83.3339,83.3339 0 0 0 1420,121.111"/>
      <polygon style="fill: #000000; fill-opacity: 1; stroke-opacity: 1; stroke-width: 2; stroke: #000000" fill-rule="evenodd" points="1422.15,280.486 1430.35,272.886 1429.35,278.386 1433.15,282.486 "/>
    </g>
    <g>
      <rect style="fill: #ffffff; fill-opacity: 1; stroke-opacity: 1; stroke-width: 1; stroke-dasharray: 4; stroke: #000000" x="910" y="270" width="80" height="41.2222" rx="0" ry="0"/>
      <text font-size="22.5778" style="fill: #000000; fill-opacity: 1; stroke: none;text-anchor:end;font-family:sans-serif;font-style:normal;font-weight:normal" x="984.5" y="300.65">
        <tspan x="984.5" y="300.65">1274</tspan>
      </text>
    </g>
    <g>
      <line style="fill: none; stroke-opacity: 1; stroke-width: 2; stroke: #000000" x1="224.472" y1="380" x2="455.528" y2="380"/>
      <polyline style="fill: none; stroke-opacity: 1; stroke-width: 2; stroke: #000000" points="232.236,375 222.236,380 232.236,385 "/>
      <polyline style="fill: none; stroke-opacity: 1; stroke-width: 2; stroke: #000000" points="447.764,385 457.764,380 447.764,375 "/>
    </g>
    <text font-size="22.5778" style="fill: #000000; fill-opacity: 1; stroke: none;text-anchor:middle;font-family:sans-serif;font-style:normal;font-weight:normal" x="340" y="368.75">
      <tspan x="340" y="368.75">k = 12 bit</tspan>
    </text>
    <g>
      <rect style="fill: #ffffff; fill-opacity: 1; stroke-opacity: 1; stroke-width: 1; stroke-dasharray: 4; stroke: #000000" x="203.2" y="140" width="285" height="41.2222" rx="0" ry="0"/>
      <text font-size="22.5778" style="fill: #000000; fill-opacity: 1; stroke: none;text-anchor:end;font-family:sans-serif;font-style:normal;font-weight:normal" x="482.7" y="170.65">
        <tspan x="482.7" y="170.65">0101 0000 0001 0010</tspan>
      </text>
    </g>
    <g>
      <line style="fill: none; stroke-opacity: 1; stroke-width: 2; stroke: #000000" x1="460" y1="281.112" x2="650.264" y2="280.636"/>
      <polygon style="fill: #000000; fill-opacity: 1; stroke-opacity: 1; stroke-width: 2; stroke: #000000" fill-rule="evenodd" points="657.764,280.618 647.776,285.643 650.264,280.636 647.751,275.643 "/>
    </g>
    <g>
      <line style="fill: none; stroke-opacity: 1; stroke-width: 2; stroke: #000000" x1="1100" y1="281.112" x2="989.736" y2="280.653"/>
      <polygon style="fill: #000000; fill-opacity: 1; stroke-opacity: 1; stroke-width: 2; stroke: #000000" fill-rule="evenodd" points="982.236,280.621 992.257,275.663 989.736,280.653 992.215,285.663 "/>
    </g>
    <g>
      <path style="fill: #d8e5e5; fill-opacity: 1; stroke-opacity: 1; stroke-width: 2; stroke-dasharray: 10; stroke: #000000" fill-rule="evenodd" d="M 1063.33 -20 L 1236.67,-20 C 1260.6,-20 1280,-6.56855 1280,10 C 1280,26.5686 1260.6,40 1236.67,40 L 1063.33,40 C 1039.4,40 1020,26.5686 1020,10 C 1020,-6.56855 1039.4,-20 1063.33,-20z"/>
      <text font-size="22.5778" style="fill: #000000; fill-opacity: 1; stroke: none;text-anchor:middle;font-family:sans-serif;font-style:normal;font-weight:normal" x="1150" y="7.17778">
        <tspan x="1150" y="7.17778">Result of previous</tspan>
        <tspan x="1150" y="35.4">operation</tspan>
      </text>
    </g>
    <line style="fill: none; stroke-opacity: 1; stroke-width: 2; stroke-dasharray: 10; stroke: #000000" x1="1063.33" y1="40" x2="1101.17" y2="101.172"/>
  </g>
</svg>
