<?xml version="1.0" encoding="UTF-8" standalone="no"?>
<!DOCTYPE svg PUBLIC "-//W3C//DTD SVG 1.0//EN" "http://www.w3.org/TR/2001/PR-SVG-20010719/DTD/svg10.dtd">
<svg width="53cm" height="30cm" viewBox="-3 17 1045 585" xmlns="http://www.w3.org/2000/svg" xmlns:xlink="http://www.w3.org/1999/xlink">
  <g id="Background"/>
  <g id="Background"/>
  <g id="Background"/>
  <g id="Background">
    <line style="fill: none; stroke-opacity: 1; stroke-width: 6; stroke: #000000" x1="760" y1="280" x2="760" y2="400"/>
    <g>
      <rect style="fill: #000099; fill-opacity: 1; stroke-opacity: 1; stroke-width: 2; stroke: #7f7f7f" x="220" y="99.5" width="120" height="42.2222" rx="4" ry="4"/>
      <text font-size="22.5778" style="fill: #ffffff; fill-opacity: 1; stroke: none;text-anchor:middle;font-family:sans-serif;font-style:normal;font-weight:normal" x="280" y="130.65">
        <tspan x="280" y="130.65">PC</tspan>
      </text>
    </g>
    <g>
      <rect style="fill: #000099; fill-opacity: 1; stroke-opacity: 1; stroke-width: 2; stroke: #7f7f7f" x="220" y="199.5" width="120" height="42.2222" rx="4" ry="4"/>
      <text font-size="22.5778" style="fill: #ffffff; fill-opacity: 1; stroke: none;text-anchor:middle;font-family:sans-serif;font-style:normal;font-weight:normal" x="280" y="230.65">
        <tspan x="280" y="230.65">IRR</tspan>
      </text>
    </g>
    <g>
      <rect style="fill: #000099; fill-opacity: 1; stroke-opacity: 1; stroke-width: 2; stroke: #7f7f7f" x="220" y="299.5" width="120" height="42.2222" rx="4" ry="4"/>
      <text font-size="22.5778" style="fill: #ffffff; fill-opacity: 1; stroke: none;text-anchor:middle;font-family:sans-serif;font-style:normal;font-weight:normal" x="280" y="330.65">
        <tspan x="280" y="330.65">IR</tspan>
      </text>
    </g>
    <g>
      <path style="fill: #ffa500; fill-opacity: 1; stroke-opacity: 1; stroke-width: 1; stroke: #000000" fill-rule="evenodd" d="M 206.667 400 L 313.333,400 C 328.061,400 340,408.954 340,420 C 340,431.046 328.061,440 313.333,440 L 206.667,440 C 191.939,440 180,431.046 180,420 C 180,408.954 191.939,400 206.667,400z"/>
      <text font-size="22.5778" style="fill: #000000; fill-opacity: 1; stroke: none;text-anchor:middle;font-family:sans-serif;font-style:normal;font-weight:normal" x="260" y="431.289">
        <tspan x="260" y="431.289">Clock</tspan>
      </text>
    </g>
    <g>
      <rect style="fill: #000099; fill-opacity: 1; stroke-opacity: 1; stroke-width: 2; stroke: #7f7f7f" x="220" y="479.5" width="120" height="42.2222" rx="4" ry="4"/>
      <text font-size="22.5778" style="fill: #ffffff; fill-opacity: 1; stroke: none;text-anchor:middle;font-family:sans-serif;font-style:normal;font-weight:normal" x="280" y="510.65">
        <tspan x="280" y="510.65">DR</tspan>
      </text>
    </g>
    <line style="fill: none; stroke-opacity: 1; stroke-width: 2; stroke: #000000" x1="340" y1="420" x2="420" y2="420"/>
    <line style="fill: none; stroke-opacity: 1; stroke-width: 2; stroke: #000000" x1="340" y1="120.611" x2="420" y2="120"/>
    <line style="fill: none; stroke-opacity: 1; stroke-width: 2; stroke: #000000" x1="340" y1="220.612" x2="420" y2="220"/>
    <line style="fill: none; stroke-opacity: 1; stroke-width: 2; stroke: #000000" x1="340" y1="320.612" x2="420" y2="320"/>
    <line style="fill: none; stroke-opacity: 1; stroke-width: 2; stroke: #000000" x1="340" y1="500.612" x2="420" y2="500"/>
    <g>
      <rect style="fill: #000099; fill-opacity: 1; stroke-opacity: 1; stroke-width: 2; stroke: #7f7f7f" x="500" y="139.5" width="120" height="42.2222" rx="4" ry="4"/>
      <text font-size="22.5778" style="fill: #ffffff; fill-opacity: 1; stroke: none;text-anchor:middle;font-family:sans-serif;font-style:normal;font-weight:normal" x="560" y="170.65">
        <tspan x="560" y="170.65">SR</tspan>
      </text>
    </g>
    <g>
      <rect style="fill: #000099; fill-opacity: 1; stroke-opacity: 1; stroke-width: 2; stroke: #7f7f7f" x="500" y="199.5" width="120" height="42.2222" rx="4" ry="4"/>
      <text font-size="22.5778" style="fill: #ffffff; fill-opacity: 1; stroke: none;text-anchor:middle;font-family:sans-serif;font-style:normal;font-weight:normal" x="560" y="230.65">
        <tspan x="560" y="230.65">A</tspan>
      </text>
    </g>
    <g>
      <rect style="fill: #000099; fill-opacity: 1; stroke-opacity: 1; stroke-width: 2; stroke: #7f7f7f" x="500" y="259.5" width="120" height="42.2222" rx="4" ry="4"/>
      <text font-size="22.5778" style="fill: #ffffff; fill-opacity: 1; stroke: none;text-anchor:middle;font-family:sans-serif;font-style:normal;font-weight:normal" x="560" y="290.65">
        <tspan xml:space="preserve" x="560" y="290.65">    B ...</tspan>
      </text>
    </g>
    <g>
      <rect style="fill: #000099; fill-opacity: 1; stroke-opacity: 1; stroke-width: 2; stroke: #7f7f7f" x="500" y="479.5" width="120" height="42.2222" rx="4" ry="4"/>
      <text font-size="22.5778" style="fill: #ffffff; fill-opacity: 1; stroke: none;text-anchor:middle;font-family:sans-serif;font-style:normal;font-weight:normal" x="560" y="510.65">
        <tspan x="560" y="510.65">AR</tspan>
      </text>
    </g>
    <line style="fill: none; stroke-opacity: 1; stroke-width: 2; stroke: #000000" x1="420" y1="160" x2="500" y2="160.611"/>
    <line style="fill: none; stroke-opacity: 1; stroke-width: 2; stroke: #000000" x1="420" y1="220" x2="500" y2="220.612"/>
    <line style="fill: none; stroke-opacity: 1; stroke-width: 2; stroke: #000000" x1="420" y1="280" x2="500" y2="280.612"/>
    <line style="fill: none; stroke-opacity: 1; stroke-width: 2; stroke: #000000" x1="420" y1="500" x2="500" y2="500.612"/>
    <polygon style="fill: #aa0000; fill-opacity: 1; stroke-opacity: 1; stroke-width: 1; stroke: #000000" fill-rule="evenodd" points="720,140 880,220 720,300 "/>
    <text font-size="19.7556" style="fill: #000000; fill-opacity: 1; stroke: none;text-anchor:middle;font-family:sans-serif;font-style:italic;font-weight:normal" x="280" y="167.675">
      <tspan x="280" y="167.675">Program Counter</tspan>
    </text>
    <text font-size="19.7556" style="fill: #000000; fill-opacity: 1; stroke: none;text-anchor:middle;font-family:sans-serif;font-style:italic;font-weight:normal" x="280" y="267.675">
      <tspan x="280" y="267.675">Interrupt Request Reg</tspan>
    </text>
    <text font-size="19.7556" style="fill: #000000; fill-opacity: 1; stroke: none;text-anchor:middle;font-family:sans-serif;font-style:italic;font-weight:normal" x="280" y="367.675">
      <tspan x="280" y="367.675">Instruction Reg</tspan>
    </text>
    <text font-size="19.7556" style="fill: #000000; fill-opacity: 1; stroke: none;text-anchor:middle;font-family:sans-serif;font-style:italic;font-weight:normal" x="280" y="547.675">
      <tspan x="280" y="547.675">Data Reg</tspan>
    </text>
    <text font-size="19.7556" style="fill: #000000; fill-opacity: 1; stroke: none;text-anchor:middle;font-family:sans-serif;font-style:italic;font-weight:normal" x="560" y="547.675">
      <tspan x="560" y="547.675">Addr Reg</tspan>
    </text>
    <text font-size="19.7556" style="fill: #000000; fill-opacity: 1; stroke: none;text-anchor:middle;font-family:sans-serif;font-style:italic;font-weight:normal" x="560" y="327.675">
      <tspan x="560" y="327.675">Operand Regs</tspan>
    </text>
    <text font-size="22.5778" style="fill: #ffffff; fill-opacity: 1; stroke: none;text-anchor:middle;font-family:sans-serif;font-style:normal;font-weight:normal" x="800" y="228.75">
      <tspan x="800" y="228.75">ALU</tspan>
    </text>
    <text font-size="19.7556" style="fill: #000000; fill-opacity: 1; stroke: none;text-anchor:middle;font-family:sans-serif;font-style:italic;font-weight:normal" x="560" y="127.675">
      <tspan x="560" y="127.675">Status Reg</tspan>
    </text>
    <line style="fill: none; stroke-opacity: 1; stroke-width: 6; stroke: #000000" x1="420" y1="420" x2="640" y2="420.612"/>
    <line style="fill: none; stroke-opacity: 1; stroke-width: 2; stroke: #000000" x1="620" y1="160.611" x2="720" y2="160"/>
    <line style="fill: none; stroke-opacity: 1; stroke-width: 2; stroke: #000000" x1="620" y1="220.612" x2="720" y2="220"/>
    <line style="fill: none; stroke-opacity: 1; stroke-width: 2; stroke: #000000" x1="620" y1="280.612" x2="720" y2="280"/>
    <g>
      <rect style="fill: #005500; fill-opacity: 1; stroke-opacity: 1; stroke-width: 1; stroke: #000000" x="640" y="400" width="240" height="41.2222" rx="4" ry="4"/>
      <text font-size="22.5778" style="fill: #ffffff; fill-opacity: 1; stroke: none;text-anchor:middle;font-family:sans-serif;font-style:normal;font-weight:normal" x="760" y="430.65">
        <tspan x="760" y="430.65">CU</tspan>
      </text>
    </g>
    <line style="fill: none; stroke-opacity: 1; stroke-width: 2; stroke-dasharray: 10; stroke: #000000" x1="183.755" y1="73.6662" x2="221.172" y2="100.672"/>
    <line style="fill: none; stroke-opacity: 1; stroke-width: 2; stroke-dasharray: 10; stroke: #000000" x1="178.062" y1="521.367" x2="220" y2="500.612"/>
    <line style="fill: none; stroke-opacity: 1; stroke-width: 2; stroke-dasharray: 10; stroke: #000000" x1="661.938" y1="521.367" x2="620" y2="500.612"/>
    <line style="fill: none; stroke-opacity: 1; stroke-width: 2; stroke-dasharray: 10; stroke: #000000" x1="859.411" y1="377.176" x2="820" y2="400"/>
    <line style="fill: none; stroke-opacity: 1; stroke-width: 2; stroke-dasharray: 10; stroke: #000000" x1="644.328" y1="73.7169" x2="618.828" y2="140.672"/>
    <text font-size="19.7556" style="fill: #000000; fill-opacity: 1; stroke: none;text-anchor:middle;font-family:sans-serif;font-style:italic;font-weight:normal" x="760" y="467.675">
      <tspan x="760" y="467.675">Control Unit</tspan>
    </text>
    <text font-size="19.7556" style="fill: #000000; fill-opacity: 1; stroke: none;text-anchor:middle;font-family:sans-serif;font-style:italic;font-weight:normal" x="940" y="195.328">
      <tspan x="940" y="195.328">Arithmetic</tspan>
      <tspan x="940" y="220.022">Logic Unit</tspan>
    </text>
    <line style="fill: none; stroke-opacity: 1; stroke-width: 6; stroke: #000000" x1="420" y1="120" x2="420" y2="500"/>
    <g>
      <path style="fill: #d8e5e5; fill-opacity: 1; stroke-opacity: 1; stroke-width: 2; stroke-dasharray: 10; stroke: #000000" fill-rule="evenodd" d="M 66.0749 20 L 223.925,20 C 245.719,20 263.387,31.5038 263.387,45.6944 C 263.387,59.8851 245.719,71.3889 223.925,71.3889 L 66.0749,71.3889 C 44.2804,71.3889 26.6124,59.8851 26.6124,45.6944 C 26.6124,31.5038 44.2804,20 66.0749,20z"/>
      <text font-size="19.7556" style="fill: #000000; fill-opacity: 1; stroke: none;text-anchor:middle;font-family:sans-serif;font-style:italic;font-weight:normal" x="145" y="43.225">
        <tspan x="145" y="43.225">Address of next</tspan>
        <tspan x="145" y="67.9194">instruction</tspan>
      </text>
    </g>
    <g>
      <path style="fill: #d8e5e5; fill-opacity: 1; stroke-opacity: 1; stroke-width: 2; stroke-dasharray: 10; stroke: #000000" fill-rule="evenodd" d="M 578.333 20 L 731.667,20 C 752.838,20 770,31.5038 770,45.6944 C 770,59.8851 752.838,71.3889 731.667,71.3889 L 578.333,71.3889 C 557.162,71.3889 540,59.8851 540,45.6944 C 540,31.5038 557.162,20 578.333,20z"/>
      <text font-size="19.7556" style="fill: #000000; fill-opacity: 1; stroke: none;text-anchor:middle;font-family:sans-serif;font-style:italic;font-weight:normal" x="655" y="43.225">
        <tspan x="655" y="43.225">Carry, Zero,</tspan>
        <tspan x="655" y="67.9194">Sign, Overflow</tspan>
      </text>
    </g>
    <g>
      <path style="fill: #d8e5e5; fill-opacity: 1; stroke-opacity: 1; stroke-width: 2; stroke-dasharray: 10; stroke: #000000" fill-rule="evenodd" d="M 33.3333 520 L 166.667,520 C 185.076,520 200,537.909 200,560 C 200,582.091 185.076,600 166.667,600 L 33.3333,600 C 14.9238,600 0,582.091 0,560 C 0,537.909 14.9238,520 33.3333,520z"/>
      <text font-size="19.7556" style="fill: #000000; fill-opacity: 1; stroke: none;text-anchor:middle;font-family:sans-serif;font-style:italic;font-weight:normal" x="100" y="545.183">
        <tspan x="100" y="545.183">Word to</tspan>
        <tspan x="100" y="569.878">read or write</tspan>
        <tspan x="100" y="594.572">to memory</tspan>
      </text>
    </g>
    <g>
      <path style="fill: #d8e5e5; fill-opacity: 1; stroke-opacity: 1; stroke-width: 2; stroke-dasharray: 10; stroke: #000000" fill-rule="evenodd" d="M 673.333 520 L 806.667,520 C 825.076,520 840,537.909 840,560 C 840,582.091 825.076,600 806.667,600 L 673.333,600 C 654.924,600 640,582.091 640,560 C 640,537.909 654.924,520 673.333,520z"/>
      <text font-size="19.7556" style="fill: #000000; fill-opacity: 1; stroke: none;text-anchor:middle;font-family:sans-serif;font-style:italic;font-weight:normal" x="740" y="545.183">
        <tspan x="740" y="545.183">Memory</tspan>
        <tspan x="740" y="569.878">address to</tspan>
        <tspan x="740" y="594.572">read or write</tspan>
      </text>
    </g>
    <g>
      <path style="fill: #d8e5e5; fill-opacity: 1; stroke-opacity: 1; stroke-width: 2; stroke-dasharray: 10; stroke: #000000" fill-rule="evenodd" d="M 873.4 280 L 1007,280 C 1025.45,280 1040.4,302.56 1040.4,330.389 C 1040.4,358.218 1025.45,380.778 1007,380.778 L 873.4,380.778 C 854.954,380.778 840,358.218 840,330.389 C 840,302.56 854.954,280 873.4,280z"/>
      <text font-size="19.7556" style="fill: #000000; fill-opacity: 1; stroke: none;text-anchor:middle;font-family:sans-serif;font-style:italic;font-weight:normal" x="940.2" y="303.225">
        <tspan x="940.2" y="303.225">Fetch</tspan>
        <tspan x="940.2" y="327.919">Decode</tspan>
        <tspan x="940.2" y="352.614">Manage exec</tspan>
        <tspan x="940.2" y="377.308">Store results</tspan>
      </text>
    </g>
    <image x="100" y="380" width="87.36" height="87.36" xlink:href="metronome.svg"/>
    <image x="760" y="40" width="163.75" height="163.75" xlink:href="piano.svg"/>
    <image x="880" y="400" width="160" height="160" xlink:href="maestro.svg"/>
  </g>
</svg>
