<?xml version="1.0" encoding="UTF-8" standalone="no"?>
<!DOCTYPE svg PUBLIC "-//W3C//DTD SVG 1.0//EN" "http://www.w3.org/TR/2001/PR-SVG-20010719/DTD/svg10.dtd">
<svg width="68cm" height="26cm" viewBox="139 -62 1342 504" xmlns="http://www.w3.org/2000/svg" xmlns:xlink="http://www.w3.org/1999/xlink">
  <g id="Background"/>
  <g id="Background"/>
  <g id="Background"/>
  <g id="Background"/>
  <g id="Background"/>
  <g id="Background">
    <line style="fill: none; stroke-opacity: 1; stroke-width: 2; stroke: #7f7f7f" x1="1120" y1="260" x2="1120" y2="180"/>
    <line style="fill: none; stroke-opacity: 1; stroke-width: 2; stroke: #7f7f7f" x1="1140" y1="260" x2="1140" y2="180"/>
    <line style="fill: none; stroke-opacity: 1; stroke-width: 2; stroke: #7f7f7f" x1="1160" y1="260" x2="1160" y2="180"/>
    <line style="fill: none; stroke-opacity: 1; stroke-width: 2; stroke: #7f7f7f" x1="1180" y1="260" x2="1180" y2="180"/>
    <line style="fill: none; stroke-opacity: 1; stroke-width: 2; stroke: #7f7f7f" x1="1200" y1="260" x2="1200" y2="180"/>
    <line style="fill: none; stroke-opacity: 1; stroke-width: 2; stroke: #7f7f7f" x1="1220" y1="260" x2="1220" y2="180"/>
    <line style="fill: none; stroke-opacity: 1; stroke-width: 2; stroke: #7f7f7f" x1="1240" y1="260" x2="1240" y2="180"/>
    <line style="fill: none; stroke-opacity: 1; stroke-width: 2; stroke: #7f7f7f" x1="1260" y1="260" x2="1260" y2="180"/>
    <line style="fill: none; stroke-opacity: 1; stroke-width: 2; stroke: #7f7f7f" x1="1280" y1="260" x2="1280" y2="180"/>
    <line style="fill: none; stroke-opacity: 1; stroke-width: 2; stroke: #7f7f7f" x1="1300" y1="260" x2="1300" y2="180"/>
    <line style="fill: none; stroke-opacity: 1; stroke-width: 2; stroke: #7f7f7f" x1="1320" y1="260" x2="1320" y2="180"/>
    <line style="fill: none; stroke-opacity: 1; stroke-width: 2; stroke: #7f7f7f" x1="1340" y1="260" x2="1340" y2="180"/>
    <line style="fill: none; stroke-opacity: 1; stroke-width: 2; stroke: #7f7f7f" x1="1360" y1="260.612" x2="1360" y2="180"/>
    <line style="fill: none; stroke-opacity: 1; stroke-width: 2; stroke: #7f7f7f" x1="1380" y1="260" x2="1380" y2="180"/>
    <line style="fill: none; stroke-opacity: 1; stroke-width: 2; stroke: #7f7f7f" x1="1400" y1="239.504" x2="1400" y2="180"/>
    <line style="fill: none; stroke-opacity: 1; stroke-width: 2; stroke: #7f7f7f" x1="240" y1="320" x2="240" y2="240"/>
    <line style="fill: none; stroke-opacity: 1; stroke-width: 2; stroke: #7f7f7f" x1="260" y1="320" x2="260" y2="240"/>
    <line style="fill: none; stroke-opacity: 1; stroke-width: 2; stroke: #7f7f7f" x1="280" y1="320" x2="280" y2="240"/>
    <line style="fill: none; stroke-opacity: 1; stroke-width: 2; stroke: #7f7f7f" x1="300" y1="320" x2="300" y2="240"/>
    <line style="fill: none; stroke-opacity: 1; stroke-width: 2; stroke: #7f7f7f" x1="320" y1="320" x2="320" y2="240"/>
    <line style="fill: none; stroke-opacity: 1; stroke-width: 2; stroke: #7f7f7f" x1="340" y1="320" x2="340" y2="240"/>
    <line style="fill: none; stroke-opacity: 1; stroke-width: 2; stroke: #7f7f7f" x1="360" y1="320" x2="360" y2="240"/>
    <line style="fill: none; stroke-opacity: 1; stroke-width: 2; stroke: #7f7f7f" x1="380" y1="320" x2="380" y2="240"/>
    <line style="fill: none; stroke-opacity: 1; stroke-width: 2; stroke: #7f7f7f" x1="400" y1="320" x2="400" y2="240"/>
    <line style="fill: none; stroke-opacity: 1; stroke-width: 2; stroke: #7f7f7f" x1="420" y1="320" x2="420" y2="240"/>
    <line style="fill: none; stroke-opacity: 1; stroke-width: 2; stroke: #7f7f7f" x1="440" y1="320" x2="440" y2="240"/>
    <g>
      <rect style="fill: #000099; fill-opacity: 1; stroke-opacity: 1; stroke-width: 2; stroke: #7f7f7f" x="220" y="260" width="240" height="42.2222" rx="4" ry="4"/>
      <text font-size="22.5778" style="fill: #ffffff; fill-opacity: 1; stroke: none;text-anchor:middle;font-family:sans-serif;font-style:normal;font-weight:normal" x="340" y="291.15">
        <tspan x="340" y="291.15">AR</tspan>
      </text>
    </g>
    <text font-size="22.5778" style="fill: #ffffff; fill-opacity: 1; stroke: none;text-anchor:middle;font-family:sans-serif;font-style:normal;font-weight:normal" x="220" y="28.75">
      <tspan x="220" y="28.75">ALU</tspan>
    </text>
    <g>
      <rect style="fill: #ffff55; fill-opacity: 1; stroke-opacity: 1; stroke-width: 1; stroke: #000000" x="660" y="20" width="320" height="41.2222" rx="0" ry="0"/>
      <text font-size="22.5778" style="fill: #000000; fill-opacity: 1; stroke: none;text-anchor:middle;font-family:sans-serif;font-style:normal;font-weight:normal" x="820" y="50.65">
        <tspan x="820" y="50.65"></tspan>
      </text>
    </g>
    <g>
      <rect style="fill: #ffff55; fill-opacity: 1; stroke-opacity: 1; stroke-width: 1; stroke: #000000" x="660" y="60" width="320" height="41.2222" rx="0" ry="0"/>
      <text font-size="22.5778" style="fill: #000000; fill-opacity: 1; stroke: none;text-anchor:middle;font-family:sans-serif;font-style:normal;font-weight:normal" x="820" y="90.65">
        <tspan x="820" y="90.65"></tspan>
      </text>
    </g>
    <g>
      <rect style="fill: #ffff55; fill-opacity: 1; stroke-opacity: 1; stroke-width: 1; stroke: #000000" x="660" y="100" width="320" height="41.2222" rx="0" ry="0"/>
      <text font-size="22.5778" style="fill: #000000; fill-opacity: 1; stroke: none;text-anchor:middle;font-family:sans-serif;font-style:normal;font-weight:normal" x="820" y="130.65">
        <tspan x="820" y="130.65"></tspan>
      </text>
    </g>
    <g>
      <rect style="fill: #ffff55; fill-opacity: 1; stroke-opacity: 1; stroke-width: 1; stroke: #000000" x="660" y="140" width="320" height="41.2222" rx="0" ry="0"/>
      <text font-size="22.5778" style="fill: #000000; fill-opacity: 1; stroke: none;text-anchor:middle;font-family:sans-serif;font-style:normal;font-weight:normal" x="820" y="170.65">
        <tspan x="820" y="170.65"></tspan>
      </text>
    </g>
    <g>
      <rect style="fill: #ffff55; fill-opacity: 1; stroke-opacity: 1; stroke-width: 1; stroke: #000000" x="660" y="180" width="320" height="41.2222" rx="0" ry="0"/>
      <text font-size="22.5778" style="fill: #000000; fill-opacity: 1; stroke: none;text-anchor:middle;font-family:sans-serif;font-style:normal;font-weight:normal" x="820" y="210.65">
        <tspan x="820" y="210.65"></tspan>
      </text>
    </g>
    <g>
      <rect style="fill: #ffff55; fill-opacity: 1; stroke-opacity: 1; stroke-width: 1; stroke: #000000" x="660" y="260" width="320" height="41.2222" rx="0" ry="0"/>
      <text font-size="22.5778" style="fill: #000000; fill-opacity: 1; stroke: none;text-anchor:middle;font-family:sans-serif;font-style:normal;font-weight:normal" x="820" y="290.65">
        <tspan x="820" y="290.65"></tspan>
      </text>
    </g>
    <g>
      <rect style="fill: #ffff55; fill-opacity: 1; stroke-opacity: 1; stroke-width: 1; stroke: #000000" x="660" y="340" width="320" height="41.2222" rx="0" ry="0"/>
      <text font-size="22.5778" style="fill: #000000; fill-opacity: 1; stroke: none;text-anchor:middle;font-family:sans-serif;font-style:normal;font-weight:normal" x="820" y="370.65">
        <tspan x="820" y="370.65"></tspan>
      </text>
    </g>
    <g>
      <rect style="fill: #000099; fill-opacity: 1; stroke-opacity: 1; stroke-width: 2; stroke: #7f7f7f" x="1100" y="200" width="320" height="42.2222" rx="4" ry="4"/>
      <text font-size="22.5778" style="fill: #ffffff; fill-opacity: 1; stroke: none;text-anchor:middle;font-family:sans-serif;font-style:normal;font-weight:normal" x="1260" y="231.15">
        <tspan x="1260" y="231.15">DR</tspan>
      </text>
    </g>
    <g>
      <line style="fill: none; stroke-opacity: 1; stroke-width: 2; stroke: #000000" x1="664.472" y1="-20" x2="975.528" y2="-20"/>
      <polyline style="fill: none; stroke-opacity: 1; stroke-width: 2; stroke: #000000" points="672.236,-25 662.236,-20 672.236,-15 "/>
      <polyline style="fill: none; stroke-opacity: 1; stroke-width: 2; stroke: #000000" points="967.764,-15 977.764,-20 967.764,-25 "/>
    </g>
    <text font-size="22.5778" style="fill: #000000; fill-opacity: 1; stroke: none;text-anchor:middle;font-family:sans-serif;font-style:italic;font-weight:normal" x="820" y="-31.25">
      <tspan x="820" y="-31.25">h = 16 bit</tspan>
    </text>
    <g>
      <line style="fill: none; stroke-opacity: 1; stroke-width: 2; stroke: #000000" x1="1104.47" y1="160" x2="1415.53" y2="160"/>
      <polyline style="fill: none; stroke-opacity: 1; stroke-width: 2; stroke: #000000" points="1112.24,155 1102.24,160 1112.24,165 "/>
      <polyline style="fill: none; stroke-opacity: 1; stroke-width: 2; stroke: #000000" points="1407.76,165 1417.76,160 1407.76,155 "/>
    </g>
    <text font-size="22.5778" style="fill: #000000; fill-opacity: 1; stroke: none;text-anchor:middle;font-family:sans-serif;font-style:italic;font-weight:normal" x="1260" y="148.75">
      <tspan x="1260" y="148.75">h = 16 bit</tspan>
    </text>
    <g>
      <line style="fill: none; stroke-opacity: 1; stroke-width: 2; stroke: #000000" x1="224.472" y1="60" x2="455.528" y2="60"/>
      <polyline style="fill: none; stroke-opacity: 1; stroke-width: 2; stroke: #000000" points="232.236,55 222.236,60 232.236,65 "/>
      <polyline style="fill: none; stroke-opacity: 1; stroke-width: 2; stroke: #000000" points="447.764,65 457.764,60 447.764,55 "/>
    </g>
    <text font-size="22.5778" style="fill: #000000; fill-opacity: 1; stroke: none;text-anchor:middle;font-family:sans-serif;font-style:italic;font-weight:normal" x="340" y="48.75">
      <tspan x="340" y="48.75">k = 12 bit</tspan>
    </text>
    <g>
      <rect style="fill: #7f7f7f; fill-opacity: 1; stroke-opacity: 1; stroke-width: 1; stroke: #ffffff" x="540" y="20" width="80" height="41.2222" rx="0" ry="0"/>
      <text font-size="22.5778" style="fill: #000000; fill-opacity: 1; stroke: none;text-anchor:end;font-family:monospace;font-style:normal;font-weight:normal" x="614.5" y="47.5">
        <tspan x="614.5" y="47.5">0</tspan>
      </text>
    </g>
    <g>
      <rect style="fill: #7f7f7f; fill-opacity: 1; stroke-opacity: 1; stroke-width: 1; stroke: #ffffff" x="540" y="60" width="80" height="41.2222" rx="0" ry="0"/>
      <text font-size="22.5778" style="fill: #000000; fill-opacity: 1; stroke: none;text-anchor:end;font-family:monospace;font-style:normal;font-weight:normal" x="614.5" y="87.5">
        <tspan x="614.5" y="87.5">2</tspan>
      </text>
    </g>
    <g>
      <rect style="fill: #7f7f7f; fill-opacity: 1; stroke-opacity: 1; stroke-width: 1; stroke: #ffffff" x="540" y="100" width="80" height="41.2222" rx="0" ry="0"/>
      <text font-size="22.5778" style="fill: #000000; fill-opacity: 1; stroke: none;text-anchor:end;font-family:monospace;font-style:normal;font-weight:normal" x="614.5" y="127.5">
        <tspan x="614.5" y="127.5">4</tspan>
      </text>
    </g>
    <g>
      <rect style="fill: #7f7f7f; fill-opacity: 1; stroke-opacity: 1; stroke-width: 1; stroke: #ffffff" x="540" y="140" width="80" height="41.2222" rx="0" ry="0"/>
      <text font-size="22.5778" style="fill: #000000; fill-opacity: 1; stroke: none;text-anchor:end;font-family:monospace;font-style:normal;font-weight:normal" x="614.5" y="167.5">
        <tspan x="614.5" y="167.5">6</tspan>
      </text>
    </g>
    <g>
      <rect style="fill: #7f7f7f; fill-opacity: 1; stroke-opacity: 1; stroke-width: 1; stroke: #ffffff" x="540" y="180" width="80" height="41.2222" rx="0" ry="0"/>
      <text font-size="22.5778" style="fill: #000000; fill-opacity: 1; stroke: none;text-anchor:end;font-family:monospace;font-style:normal;font-weight:normal" x="614.5" y="207.5">
        <tspan x="614.5" y="207.5">...</tspan>
      </text>
    </g>
    <g>
      <rect style="fill: #7f7f7f; fill-opacity: 1; stroke-opacity: 1; stroke-width: 1; stroke: #ffffff" x="540" y="260" width="80" height="41.2222" rx="0" ry="0"/>
      <text font-size="22.5778" style="fill: #000000; fill-opacity: 1; stroke: none;text-anchor:end;font-family:monospace;font-style:normal;font-weight:normal" x="614.5" y="287.5">
        <tspan x="614.5" y="287.5"></tspan>
      </text>
    </g>
    <g>
      <rect style="fill: #7f7f7f; fill-opacity: 1; stroke-opacity: 1; stroke-width: 1; stroke: #ffffff" x="540" y="340" width="80" height="41.2222" rx="0" ry="0"/>
      <text font-size="22.5778" style="fill: #000000; fill-opacity: 1; stroke: none;text-anchor:end;font-family:monospace;font-style:normal;font-weight:normal" x="614.5" y="367.5">
        <tspan x="614.5" y="367.5">...</tspan>
      </text>
    </g>
    <g>
      <rect style="fill: #ffff55; fill-opacity: 1; stroke-opacity: 1; stroke-width: 1; stroke: #000000" x="660" y="380" width="320" height="41.2222" rx="0" ry="0"/>
      <text font-size="22.5778" style="fill: #000000; fill-opacity: 1; stroke: none;text-anchor:middle;font-family:sans-serif;font-style:normal;font-weight:normal" x="820" y="410.65">
        <tspan x="820" y="410.65"></tspan>
      </text>
    </g>
    <g>
      <rect style="fill: #7f7f7f; fill-opacity: 1; stroke-opacity: 1; stroke-width: 1; stroke: #ffffff" x="540" y="380" width="80" height="41.2222" rx="0" ry="0"/>
      <text font-size="22.5778" style="fill: #000000; fill-opacity: 1; stroke: none;text-anchor:end;font-family:monospace;font-style:normal;font-weight:normal" x="614.5" y="407.5">
        <tspan x="614.5" y="407.5">4094</tspan>
      </text>
    </g>
    <text font-size="22.5778" style="fill: #000000; fill-opacity: 1; stroke: none;text-anchor:middle;font-family:sans-serif;font-style:italic;font-weight:normal" x="1040" y="228.75">
      <tspan x="1040" y="228.75">Load</tspan>
    </text>
    <g>
      <rect style="fill: #ffff55; fill-opacity: 1; stroke-opacity: 1; stroke-width: 1; stroke: #000000" x="660" y="300" width="320" height="41.2222" rx="0" ry="0"/>
      <text font-size="22.5778" style="fill: #000000; fill-opacity: 1; stroke: none;text-anchor:middle;font-family:sans-serif;font-style:normal;font-weight:normal" x="820" y="330.65">
        <tspan x="820" y="330.65"></tspan>
      </text>
    </g>
    <g>
      <rect style="fill: #7f7f7f; fill-opacity: 1; stroke-opacity: 1; stroke-width: 1; stroke: #ffffff" x="540" y="300" width="80" height="41.2222" rx="0" ry="0"/>
      <text font-size="22.5778" style="fill: #000000; fill-opacity: 1; stroke: none;text-anchor:end;font-family:monospace;font-style:normal;font-weight:normal" x="614.5" y="327.5">
        <tspan x="614.5" y="327.5"></tspan>
      </text>
    </g>
    <g>
      <rect style="fill: #ffff55; fill-opacity: 1; stroke-opacity: 1; stroke-width: 1; stroke: #000000" x="660" y="220" width="320" height="41.2222" rx="0" ry="0"/>
      <text font-size="22.5778" style="fill: #000000; fill-opacity: 1; stroke: none;text-anchor:middle;font-family:sans-serif;font-style:normal;font-weight:normal" x="820" y="250.65">
        <tspan x="820" y="250.65"></tspan>
      </text>
    </g>
    <g>
      <rect style="fill: #7f7f7f; fill-opacity: 1; stroke-opacity: 1; stroke-width: 1; stroke: #ffffff" x="540" y="220" width="80" height="41.2222" rx="0" ry="0"/>
      <text font-size="22.5778" style="fill: #000000; fill-opacity: 1; stroke: none;text-anchor:end;font-family:monospace;font-style:normal;font-weight:normal" x="614.5" y="247.5">
        <tspan x="614.5" y="247.5"></tspan>
      </text>
    </g>
    <line style="fill: none; stroke-opacity: 1; stroke-width: 2; stroke: #7f7f7f" x1="680" y1="440" x2="680" y2="0"/>
    <line style="fill: none; stroke-opacity: 1; stroke-width: 2; stroke: #7f7f7f" x1="700" y1="440" x2="700" y2="0"/>
    <line style="fill: none; stroke-opacity: 1; stroke-width: 2; stroke: #7f7f7f" x1="720" y1="440" x2="720" y2="0"/>
    <line style="fill: none; stroke-opacity: 1; stroke-width: 2; stroke: #7f7f7f" x1="740" y1="440" x2="740" y2="0"/>
    <line style="fill: none; stroke-opacity: 1; stroke-width: 2; stroke: #7f7f7f" x1="760" y1="440" x2="760" y2="0"/>
    <line style="fill: none; stroke-opacity: 1; stroke-width: 2; stroke: #7f7f7f" x1="780" y1="440" x2="780" y2="0"/>
    <line style="fill: none; stroke-opacity: 1; stroke-width: 2; stroke: #7f7f7f" x1="800" y1="440" x2="800" y2="0"/>
    <line style="fill: none; stroke-opacity: 1; stroke-width: 2; stroke: #7f7f7f" x1="820" y1="440" x2="820" y2="0"/>
    <line style="fill: none; stroke-opacity: 1; stroke-width: 2; stroke: #7f7f7f" x1="840" y1="440" x2="840" y2="0"/>
    <line style="fill: none; stroke-opacity: 1; stroke-width: 2; stroke: #7f7f7f" x1="860" y1="440" x2="860" y2="0"/>
    <line style="fill: none; stroke-opacity: 1; stroke-width: 2; stroke: #7f7f7f" x1="880" y1="440" x2="880" y2="0"/>
    <line style="fill: none; stroke-opacity: 1; stroke-width: 2; stroke: #7f7f7f" x1="900" y1="440" x2="900" y2="0"/>
    <line style="fill: none; stroke-opacity: 1; stroke-width: 2; stroke: #7f7f7f" x1="920" y1="440" x2="920" y2="0"/>
    <line style="fill: none; stroke-opacity: 1; stroke-width: 2; stroke: #7f7f7f" x1="940" y1="440" x2="940" y2="0"/>
    <line style="fill: none; stroke-opacity: 1; stroke-width: 2; stroke: #7f7f7f" x1="960" y1="440" x2="960" y2="0"/>
    <line style="fill: none; stroke-opacity: 1; stroke-width: 2; stroke: #7f7f7f" x1="240" y1="160" x2="240" y2="80"/>
    <line style="fill: none; stroke-opacity: 1; stroke-width: 2; stroke: #7f7f7f" x1="260" y1="160" x2="260" y2="80"/>
    <line style="fill: none; stroke-opacity: 1; stroke-width: 2; stroke: #7f7f7f" x1="280" y1="160" x2="280" y2="80"/>
    <line style="fill: none; stroke-opacity: 1; stroke-width: 2; stroke: #7f7f7f" x1="300" y1="160" x2="300" y2="80"/>
    <line style="fill: none; stroke-opacity: 1; stroke-width: 2; stroke: #7f7f7f" x1="320" y1="160" x2="320" y2="80"/>
    <line style="fill: none; stroke-opacity: 1; stroke-width: 2; stroke: #7f7f7f" x1="340" y1="160" x2="340" y2="80"/>
    <line style="fill: none; stroke-opacity: 1; stroke-width: 2; stroke: #7f7f7f" x1="360" y1="160" x2="360" y2="80"/>
    <line style="fill: none; stroke-opacity: 1; stroke-width: 2; stroke: #7f7f7f" x1="380" y1="160" x2="380" y2="80"/>
    <line style="fill: none; stroke-opacity: 1; stroke-width: 2; stroke: #7f7f7f" x1="400" y1="160" x2="400" y2="80"/>
    <line style="fill: none; stroke-opacity: 1; stroke-width: 2; stroke: #7f7f7f" x1="420" y1="160" x2="420" y2="80"/>
    <line style="fill: none; stroke-opacity: 1; stroke-width: 2; stroke: #7f7f7f" x1="440" y1="160" x2="440" y2="80"/>
    <g>
      <rect style="fill: #000099; fill-opacity: 1; stroke-opacity: 1; stroke-width: 2; stroke: #7f7f7f" x="220" y="100" width="240" height="42.2222" rx="4" ry="4"/>
      <text font-size="22.5778" style="fill: #ffffff; fill-opacity: 1; stroke: none;text-anchor:middle;font-family:sans-serif;font-style:normal;font-weight:normal" x="340" y="131.15">
        <tspan x="340" y="131.15">PC (Progr. Counter)</tspan>
      </text>
    </g>
    <g>
      <rect style="fill: #ffffff; fill-opacity: 1; stroke-opacity: 1; stroke-width: 1; stroke-dasharray: 4; stroke: #000000" x="400" y="140" width="80" height="41.2222" rx="0" ry="0"/>
      <text font-size="22.5778" style="fill: #000000; fill-opacity: 1; stroke: none;text-anchor:end;font-family:monospace;font-style:normal;font-weight:normal" x="474.5" y="167.5">
        <tspan x="474.5" y="167.5">004</tspan>
      </text>
    </g>
    <g>
      <rect style="fill: #ffffff; fill-opacity: 1; stroke-opacity: 1; stroke-width: 1; stroke-dasharray: 4; stroke: #000000" x="400" y="300" width="80" height="41.2222" rx="0" ry="0"/>
      <text font-size="22.5778" style="fill: #000000; fill-opacity: 1; stroke: none;text-anchor:end;font-family:monospace;font-style:normal;font-weight:normal" x="474.5" y="327.5">
        <tspan x="474.5" y="327.5">004</tspan>
      </text>
    </g>
    <g>
      <path style="fill: none; stroke-opacity: 1; stroke-width: 2; stroke: #000000" d="M 460,110.556 A 83.3336,83.3336 0 0 1 469.126,267.308"/>
      <polygon style="fill: #000000; fill-opacity: 1; stroke-opacity: 1; stroke-width: 2; stroke: #000000" fill-rule="evenodd" points="462.147,269.93 470.347,262.33 469.347,267.83 473.147,271.93 "/>
    </g>
    <g>
      <path style="fill: none; stroke-opacity: 1; stroke-width: 2; stroke: #000000" d="M 460 291.666 C 526.4,291.666 593.6,120.611 650.264,120.611"/>
      <polygon style="fill: #000000; fill-opacity: 1; stroke-opacity: 1; stroke-width: 2; stroke: #000000" fill-rule="evenodd" points="657.764,120.611 647.764,125.611 650.264,120.611 647.764,115.611 "/>
    </g>
    <g>
      <path style="fill: none; stroke-opacity: 1; stroke-width: 2; stroke: #000000" d="M 980 120.611 C 1019.84,120.611 1060.16,221.112 1090.26,221.112"/>
      <polygon style="fill: #000000; fill-opacity: 1; stroke-opacity: 1; stroke-width: 2; stroke: #000000" fill-rule="evenodd" points="1097.76,221.112 1087.76,226.112 1090.26,221.112 1087.76,216.112 "/>
    </g>
    <g>
      <rect style="fill: #ffffff; fill-opacity: 1; stroke-opacity: 1; stroke-width: 1; stroke-dasharray: 4; stroke: #000000" x="1360" y="240" width="80" height="41.2222" rx="0" ry="0"/>
      <text font-size="22.5778" style="fill: #000000; fill-opacity: 1; stroke: none;text-anchor:end;font-family:monospace;font-style:normal;font-weight:normal" x="1434.5" y="267.5">
        <tspan x="1434.5" y="267.5">5012</tspan>
      </text>
    </g>
    <line style="fill: none; stroke-opacity: 1; stroke-width: 2; stroke: #7f7f7f" x1="1120" y1="420" x2="1120" y2="340"/>
    <line style="fill: none; stroke-opacity: 1; stroke-width: 2; stroke: #7f7f7f" x1="1140" y1="420" x2="1140" y2="340"/>
    <line style="fill: none; stroke-opacity: 1; stroke-width: 2; stroke: #7f7f7f" x1="1160" y1="420" x2="1160" y2="340"/>
    <line style="fill: none; stroke-opacity: 1; stroke-width: 2; stroke: #7f7f7f" x1="1180" y1="420" x2="1180" y2="340"/>
    <line style="fill: none; stroke-opacity: 1; stroke-width: 2; stroke: #7f7f7f" x1="1200" y1="420" x2="1200" y2="340"/>
    <line style="fill: none; stroke-opacity: 1; stroke-width: 2; stroke: #7f7f7f" x1="1220" y1="420" x2="1220" y2="340"/>
    <line style="fill: none; stroke-opacity: 1; stroke-width: 2; stroke: #7f7f7f" x1="1240" y1="420" x2="1240" y2="340"/>
    <line style="fill: none; stroke-opacity: 1; stroke-width: 2; stroke: #7f7f7f" x1="1260" y1="420" x2="1260" y2="340"/>
    <line style="fill: none; stroke-opacity: 1; stroke-width: 2; stroke: #7f7f7f" x1="1280" y1="420" x2="1280" y2="340"/>
    <line style="fill: none; stroke-opacity: 1; stroke-width: 2; stroke: #7f7f7f" x1="1300" y1="420" x2="1300" y2="340"/>
    <line style="fill: none; stroke-opacity: 1; stroke-width: 2; stroke: #7f7f7f" x1="1320" y1="420" x2="1320" y2="340"/>
    <line style="fill: none; stroke-opacity: 1; stroke-width: 2; stroke: #7f7f7f" x1="1340" y1="420" x2="1340" y2="340"/>
    <line style="fill: none; stroke-opacity: 1; stroke-width: 2; stroke: #7f7f7f" x1="1360" y1="420.612" x2="1360" y2="340"/>
    <line style="fill: none; stroke-opacity: 1; stroke-width: 2; stroke: #7f7f7f" x1="1380" y1="420" x2="1380" y2="340"/>
    <line style="fill: none; stroke-opacity: 1; stroke-width: 2; stroke: #7f7f7f" x1="1400" y1="399.504" x2="1400" y2="340"/>
    <g>
      <rect style="fill: #000099; fill-opacity: 1; stroke-opacity: 1; stroke-width: 2; stroke: #7f7f7f" x="1100" y="360" width="320" height="42.2222" rx="4" ry="4"/>
      <text font-size="22.5778" style="fill: #ffffff; fill-opacity: 1; stroke: none;text-anchor:middle;font-family:sans-serif;font-style:normal;font-weight:normal" x="1260" y="391.15">
        <tspan x="1260" y="391.15">IR (Instruction Reg)</tspan>
      </text>
    </g>
    <g>
      <rect style="fill: #ffffff; fill-opacity: 1; stroke-opacity: 1; stroke-width: 1; stroke-dasharray: 4; stroke: #000000" x="1360" y="400" width="80" height="41.2222" rx="0" ry="0"/>
      <text font-size="22.5778" style="fill: #000000; fill-opacity: 1; stroke: none;text-anchor:end;font-family:monospace;font-style:normal;font-weight:normal" x="1434.5" y="427.5">
        <tspan x="1434.5" y="427.5">5012</tspan>
      </text>
    </g>
    <g>
      <path style="fill: none; stroke-opacity: 1; stroke-width: 2; stroke: #000000" d="M 1420,221.112 A 83.3333,83.3333 0 0 1 1429.13,377.864"/>
      <polygon style="fill: #000000; fill-opacity: 1; stroke-opacity: 1; stroke-width: 2; stroke: #000000" fill-rule="evenodd" points="1422.15,380.486 1430.35,372.886 1429.35,378.386 1433.15,382.486 "/>
    </g>
    <g>
      <rect style="fill: #ffffff; fill-opacity: 1; stroke-opacity: 1; stroke-width: 1; stroke-dasharray: 4; stroke: #000000" x="907.272" y="106.87" width="80" height="41.2222" rx="0" ry="0"/>
      <text font-size="22.5778" style="fill: #000000; fill-opacity: 1; stroke: none;text-anchor:end;font-family:monospace;font-style:normal;font-weight:normal" x="981.772" y="134.37">
        <tspan x="981.772" y="134.37">5012</tspan>
      </text>
    </g>
    <g>
      <path style="fill: #d8e5e5; fill-opacity: 1; stroke-opacity: 1; stroke-width: 2; stroke-dasharray: 10; stroke: #000000" fill-rule="evenodd" d="M 350 -60 L 550,-60 C 577.614,-60 600,-46.5686 600,-30 C 600,-13.4314 577.614,0 550,0 L 350,0 C 322.386,0 300,-13.4314 300,-30 C 300,-46.5686 322.386,-60 350,-60z"/>
      <text font-size="22.5778" style="fill: #000000; fill-opacity: 1; stroke: none;text-anchor:middle;font-family:sans-serif;font-style:normal;font-weight:normal" x="450" y="-32.8222">
        <tspan x="450" y="-32.8222">Then, increased to 006</tspan>
        <tspan x="450" y="-4.6">pointing to next instr.</tspan>
      </text>
    </g>
    <line style="fill: none; stroke-opacity: 1; stroke-width: 2; stroke-dasharray: 10; stroke: #000000" x1="458.828" y1="101.172" x2="500" y2="0"/>
    <line style="fill: none; stroke-opacity: 0; stroke-width: 2; stroke: #ffffff" x1="140" y1="200" x2="140" y2="220"/>
  </g>
</svg>
