<?xml version="1.0" encoding="UTF-8" standalone="no"?>
<!DOCTYPE svg PUBLIC "-//W3C//DTD SVG 1.0//EN" "http://www.w3.org/TR/2001/PR-SVG-20010719/DTD/svg10.dtd">
<svg width="12cm" height="12cm" viewBox="601 221 238 238" xmlns="http://www.w3.org/2000/svg" xmlns:xlink="http://www.w3.org/1999/xlink">
  <g id="Background">
    <g>
      <rect style="fill: #ff0000; fill-opacity: 1; stroke-opacity: 1; stroke-width: 2; stroke: #000000" x="617.05" y="316.3" width="45.9" height="47.4" rx="0" ry="0"/>
      <text font-size="20.3197" style="fill: #000000; fill-opacity: 1; stroke: none;text-anchor:middle;font-family:sans-serif;font-style:normal;font-weight:normal" x="640" y="349.05">
        <tspan x="640" y="349.05">P1</tspan>
      </text>
    </g>
    <g>
      <path style="fill: #1e90ff; fill-opacity: 1; stroke-opacity: 1; stroke-width: 2; stroke: #000000" fill-rule="evenodd" d="M 700 238.805 L 740,238.805 L 740,276.485 C 732,270.205 728,270.205 720,276.485 C 712,282.765 708,282.765 700,276.485 L 700,238.805z"/>
      <text font-size="20.3197" style="fill: #000000; fill-opacity: 1; stroke: none;text-anchor:middle;font-family:sans-serif;font-style:normal;font-weight:normal" x="720" y="264.03">
        <tspan x="720" y="264.03">R1</tspan>
      </text>
    </g>
    <g>
      <path style="fill: none; stroke-opacity: 1; stroke-width: 2; stroke: #000000" d="M 640 315.304 C 640,275.304 658.997,259.655 689.263,260.216"/>
      <polygon style="fill: #000000; fill-opacity: 1; stroke-opacity: 1; stroke-width: 2; stroke: #000000" fill-rule="evenodd" points="696.762,260.355 686.671,265.169 689.263,260.216 686.856,255.17 "/>
    </g>
    <text font-size="20.3197" style="fill: #000000; fill-opacity: 1; stroke: none;text-anchor:middle;font-family:sans-serif;font-style:normal;font-weight:normal" transform="translate(640,260) rotate(-45) translate(-640,-260)">
      <tspan x="640" y="267.875">requires</tspan>
    </text>
    <g>
      <rect style="fill: #ff0000; fill-opacity: 1; stroke-opacity: 1; stroke-width: 2; stroke: #000000" x="777.05" y="316.3" width="45.9" height="47.4" rx="0" ry="0"/>
      <text font-size="20.3197" style="fill: #000000; fill-opacity: 1; stroke: none;text-anchor:middle;font-family:sans-serif;font-style:normal;font-weight:normal" x="800" y="349.05">
        <tspan x="800" y="349.05">P2</tspan>
      </text>
    </g>
    <g>
      <path style="fill: none; stroke-opacity: 1; stroke-width: 2; stroke: #000000" d="M 741.003 260.396 C 781.003,259.655 800,275.304 800,305.568"/>
      <polygon style="fill: #000000; fill-opacity: 1; stroke-opacity: 1; stroke-width: 2; stroke: #000000" fill-rule="evenodd" points="800,313.068 795,303.068 800,305.568 805,303.068 "/>
    </g>
    <g>
      <path style="fill: #1e90ff; fill-opacity: 1; stroke-opacity: 1; stroke-width: 2; stroke: #000000" fill-rule="evenodd" d="M 700 398.805 L 740,398.805 L 740,436.485 C 732,430.205 728,430.205 720,436.485 C 712,442.765 708,442.765 700,436.485 L 700,398.805z"/>
      <text font-size="20.3197" style="fill: #000000; fill-opacity: 1; stroke: none;text-anchor:middle;font-family:sans-serif;font-style:normal;font-weight:normal" x="720" y="424.03">
        <tspan x="720" y="424.03">R2</tspan>
      </text>
    </g>
    <g>
      <path style="fill: none; stroke-opacity: 1; stroke-width: 2; stroke: #000000" d="M 800 364.676 C 800,404.676 780.995,419.655 750.729,420.216"/>
      <polygon style="fill: #000000; fill-opacity: 1; stroke-opacity: 1; stroke-width: 2; stroke: #000000" fill-rule="evenodd" points="743.23,420.355 753.136,415.171 750.729,420.216 753.321,425.169 "/>
    </g>
    <g>
      <path style="fill: none; stroke-opacity: 1; stroke-width: 2; stroke: #000000" d="M 699.005 420.396 C 659.005,419.655 640,404.676 640,374.412"/>
      <polygon style="fill: #000000; fill-opacity: 1; stroke-opacity: 1; stroke-width: 2; stroke: #000000" fill-rule="evenodd" points="640,366.912 645,376.912 640,374.412 635,376.912 "/>
    </g>
    <text font-size="20.3197" style="fill: #000000; fill-opacity: 1; stroke: none;text-anchor:middle;font-family:sans-serif;font-style:normal;font-weight:normal" transform="translate(800,420) rotate(135) translate(-800,-420)">
      <tspan x="800" y="427.875">requires</tspan>
    </text>
    <text font-size="20.3197" style="fill: #000000; fill-opacity: 1; stroke: none;text-anchor:middle;font-family:sans-serif;font-style:normal;font-weight:normal" transform="translate(790,270) rotate(45) translate(-790,-270)">
      <tspan x="790" y="265.175">assigned</tspan>
      <tspan x="790" y="290.575">to</tspan>
    </text>
    <text font-size="20.3197" style="fill: #000000; fill-opacity: 1; stroke: none;text-anchor:middle;font-family:sans-serif;font-style:normal;font-weight:normal" transform="translate(650,410) rotate(-135) translate(-650,-410)">
      <tspan x="650" y="405.175">assigned</tspan>
      <tspan x="650" y="430.575">to</tspan>
    </text>
  </g>
</svg>
