<?xml version="1.0" encoding="UTF-8" standalone="no"?>
<!DOCTYPE svg PUBLIC "-//W3C//DTD SVG 1.0//EN" "http://www.w3.org/TR/2001/PR-SVG-20010719/DTD/svg10.dtd">
<svg width="34cm" height="24cm" viewBox="839 159 662 462" xmlns="http://www.w3.org/2000/svg" xmlns:xlink="http://www.w3.org/1999/xlink">
  <defs/>
  <g id="Background"/>
  <g id="Background"/>
  <g id="Background"/>
  <g id="Background"/>
  <g id="Background"/>
  <g id="Background">
    <rect style="fill: #e5e5e5; fill-opacity: 1; stroke-opacity: 1; stroke-width: 2; stroke-linejoin: round; stroke: #e5e5e5" x="840" y="160" width="260" height="180" rx="6" ry="6"/>
    <rect style="fill: #e5e5e5; fill-opacity: 1; stroke-opacity: 1; stroke-width: 2; stroke-linejoin: round; stroke: #e5e5e5" x="1120" y="160" width="380" height="180" rx="6" ry="6"/>
    <rect style="fill: #e5e5e5; fill-opacity: 1; stroke-opacity: 1; stroke-width: 2; stroke-linejoin: round; stroke: #e5e5e5" x="1120" y="360" width="380" height="260" rx="6" ry="6"/>
    <rect style="fill: #e5e5e5; fill-opacity: 1; stroke-opacity: 1; stroke-width: 2; stroke-linejoin: round; stroke: #e5e5e5" x="840" y="360" width="260" height="260" rx="6" ry="6"/>
    <g>
      <rect style="fill: #006600; fill-opacity: 1; stroke-opacity: 1; stroke-width: 2; stroke: #006600" x="980" y="260" width="80" height="39.1631" rx="6" ry="6"/>
      <text font-size="22.5778" style="fill: #ffffff; fill-opacity: 1; stroke: none;text-anchor:middle;font-family:sans-serif;font-style:normal;font-weight:normal" x="1020" y="289.62">
        <tspan x="1020" y="289.62">Core</tspan>
      </text>
    </g>
    <g>
      <rect style="fill: #ff0000; fill-opacity: 1; stroke-opacity: 1; stroke-width: 2; stroke: #ff0000" x="980" y="180" width="80" height="40" rx="6" ry="6"/>
      <text font-size="22.5778" style="fill: #ffffff; fill-opacity: 1; stroke: none;text-anchor:middle;font-family:sans-serif;font-style:normal;font-weight:normal" x="1020" y="210.039">
        <tspan x="1020" y="210.039">Instr</tspan>
      </text>
    </g>
    <g>
      <rect style="fill: #ffa500; fill-opacity: 1; stroke-opacity: 1; stroke-width: 2; stroke: #ffa500" x="860" y="260" width="80" height="40" rx="6" ry="6"/>
      <text font-size="22.5778" style="fill: #ffffff; fill-opacity: 1; stroke: none;text-anchor:middle;font-family:sans-serif;font-style:normal;font-weight:normal" x="900" y="290.039">
        <tspan x="900" y="290.039">Data</tspan>
      </text>
    </g>
    <g>
      <line style="fill: none; stroke-opacity: 1; stroke-width: 4; stroke: #ff0000" x1="1020" y1="220.993" x2="1020" y2="250.053"/>
      <polygon style="fill: #ff0000; fill-opacity: 1; stroke-opacity: 1; stroke-width: 4; stroke: #ff0000" fill-rule="evenodd" points="1020,254.553 1017,248.553 1020,250.053 1023,248.553 "/>
    </g>
    <g>
      <line style="fill: none; stroke-opacity: 1; stroke-width: 4; stroke: #ffa500" x1="940.898" y1="279.857" x2="970.129" y2="279.755"/>
      <polygon style="fill: #ffa500; fill-opacity: 1; stroke-opacity: 1; stroke-width: 4; stroke: #ffa500" fill-rule="evenodd" points="974.629,279.74 968.64,282.761 970.129,279.755 968.619,276.761 "/>
    </g>
    <text font-size="28.2222" style="fill: #000000; fill-opacity: 1; stroke: none;text-anchor:middle;font-family:sans-serif;font-style:normal;font-weight:700" x="900" y="210.95">
      <tspan x="900" y="210.95">SISD</tspan>
    </text>
    <g>
      <rect style="fill: #006600; fill-opacity: 1; stroke-opacity: 1; stroke-width: 2; stroke: #006600" x="1260" y="260" width="80" height="39.1631" rx="6" ry="6"/>
      <text font-size="22.5778" style="fill: #ffffff; fill-opacity: 1; stroke: none;text-anchor:middle;font-family:sans-serif;font-style:normal;font-weight:normal" x="1300" y="289.62">
        <tspan x="1300" y="289.62">Core</tspan>
      </text>
    </g>
    <g>
      <rect style="fill: #ff0000; fill-opacity: 1; stroke-opacity: 1; stroke-width: 2; stroke: #ff0000" x="1260" y="180" width="80" height="40" rx="6" ry="6"/>
      <text font-size="22.5778" style="fill: #ffffff; fill-opacity: 1; stroke: none;text-anchor:middle;font-family:sans-serif;font-style:normal;font-weight:normal" x="1300" y="210.039">
        <tspan x="1300" y="210.039">Instr 1</tspan>
      </text>
    </g>
    <g>
      <rect style="fill: #ffa500; fill-opacity: 1; stroke-opacity: 1; stroke-width: 2; stroke: #ffa500" x="1140" y="260" width="80" height="40" rx="6" ry="6"/>
      <text font-size="22.5778" style="fill: #ffffff; fill-opacity: 1; stroke: none;text-anchor:middle;font-family:sans-serif;font-style:normal;font-weight:normal" x="1180" y="290.039">
        <tspan x="1180" y="290.039">Data</tspan>
      </text>
    </g>
    <g>
      <line style="fill: none; stroke-opacity: 1; stroke-width: 4; stroke: #ff0000" x1="1300" y1="220.993" x2="1300" y2="250.053"/>
      <polygon style="fill: #ff0000; fill-opacity: 1; stroke-opacity: 1; stroke-width: 4; stroke: #ff0000" fill-rule="evenodd" points="1300,254.553 1297,248.553 1300,250.053 1303,248.553 "/>
    </g>
    <g>
      <polyline style="fill: none; stroke-opacity: 1; stroke-width: 4; stroke: #ffa500" points="1180,300.977 1180,320 1420,320 1420,305.973 "/>
      <polygon style="fill: #ffa500; fill-opacity: 1; stroke-opacity: 1; stroke-width: 4; stroke: #ffa500" fill-rule="evenodd" points="1420,301.473 1423,307.473 1420,305.973 1417,307.473 "/>
    </g>
    <text font-size="28.2222" style="fill: #000000; fill-opacity: 1; stroke: none;text-anchor:middle;font-family:sans-serif;font-style:normal;font-weight:700" x="1180" y="210.95">
      <tspan x="1180" y="210.95">MISD</tspan>
    </text>
    <g>
      <rect style="fill: #006600; fill-opacity: 1; stroke-opacity: 1; stroke-width: 2; stroke: #006600" x="1380" y="260" width="80" height="36" rx="6" ry="6"/>
      <text font-size="22.5778" style="fill: #ffffff; fill-opacity: 1; stroke: none;text-anchor:middle;font-family:sans-serif;font-style:normal;font-weight:normal" x="1420" y="288.039">
        <tspan x="1420" y="288.039">Core</tspan>
      </text>
    </g>
    <g>
      <line style="fill: none; stroke-opacity: 1; stroke-width: 4; stroke: #ffa500" x1="1300" y1="320" x2="1300" y2="309.128"/>
      <polygon style="fill: #ffa500; fill-opacity: 1; stroke-opacity: 1; stroke-width: 4; stroke: #ffa500" fill-rule="evenodd" points="1300,304.628 1303,310.628 1300,309.128 1297,310.628 "/>
    </g>
    <g>
      <rect style="fill: #ff0000; fill-opacity: 1; stroke-opacity: 1; stroke-width: 2; stroke: #ff0000" x="1380" y="180" width="80" height="40" rx="6" ry="6"/>
      <text font-size="22.5778" style="fill: #ffffff; fill-opacity: 1; stroke: none;text-anchor:middle;font-family:sans-serif;font-style:normal;font-weight:normal" x="1420" y="210.039">
        <tspan x="1420" y="210.039">Instr 2</tspan>
      </text>
    </g>
    <g>
      <rect style="fill: #006600; fill-opacity: 1; stroke-opacity: 1; stroke-width: 2; stroke: #006600" x="980" y="460" width="80" height="39.1631" rx="6" ry="6"/>
      <text font-size="22.5778" style="fill: #ffffff; fill-opacity: 1; stroke: none;text-anchor:middle;font-family:sans-serif;font-style:normal;font-weight:normal" x="1020" y="489.62">
        <tspan x="1020" y="489.62">Core</tspan>
      </text>
    </g>
    <g>
      <rect style="fill: #ff0000; fill-opacity: 1; stroke-opacity: 1; stroke-width: 2; stroke: #ff0000" x="980" y="380" width="80" height="40" rx="6" ry="6"/>
      <text font-size="22.5778" style="fill: #ffffff; fill-opacity: 1; stroke: none;text-anchor:middle;font-family:sans-serif;font-style:normal;font-weight:normal" x="1020" y="410.039">
        <tspan x="1020" y="410.039">Instr</tspan>
      </text>
    </g>
    <g>
      <rect style="fill: #ffa500; fill-opacity: 1; stroke-opacity: 1; stroke-width: 2; stroke: #ffa500" x="860" y="460" width="80" height="40" rx="6" ry="6"/>
      <text font-size="22.5778" style="fill: #ffffff; fill-opacity: 1; stroke: none;text-anchor:middle;font-family:sans-serif;font-style:normal;font-weight:normal" x="900" y="490.039">
        <tspan x="900" y="490.039">Data 1</tspan>
      </text>
    </g>
    <g>
      <polyline style="fill: none; stroke-opacity: 1; stroke-width: 4; stroke: #ff0000" points="1060.9,400 1080,400 1080,560 1069.87,559.929 "/>
      <polygon style="fill: #ff0000; fill-opacity: 1; stroke-opacity: 1; stroke-width: 4; stroke: #ff0000" fill-rule="evenodd" points="1065.37,559.898 1071.39,556.94 1069.87,559.929 1071.35,562.94 "/>
    </g>
    <text font-size="28.2222" style="fill: #000000; fill-opacity: 1; stroke: none;text-anchor:middle;font-family:sans-serif;font-style:normal;font-weight:700" x="900" y="410.95">
      <tspan x="900" y="410.95">SIMD</tspan>
    </text>
    <g>
      <rect style="fill: #ffa500; fill-opacity: 1; stroke-opacity: 1; stroke-width: 2; stroke: #ffa500" x="860" y="540" width="80" height="40" rx="6" ry="6"/>
      <text font-size="22.5778" style="fill: #ffffff; fill-opacity: 1; stroke: none;text-anchor:middle;font-family:sans-serif;font-style:normal;font-weight:normal" x="900" y="570.039">
        <tspan x="900" y="570.039">Data 2</tspan>
      </text>
    </g>
    <g>
      <rect style="fill: #006600; fill-opacity: 1; stroke-opacity: 1; stroke-width: 2; stroke: #006600" x="980" y="540" width="80" height="39.1631" rx="6" ry="6"/>
      <text font-size="22.5778" style="fill: #ffffff; fill-opacity: 1; stroke: none;text-anchor:middle;font-family:sans-serif;font-style:normal;font-weight:normal" x="1020" y="569.62">
        <tspan x="1020" y="569.62">Core</tspan>
      </text>
    </g>
    <g>
      <line style="fill: none; stroke-opacity: 1; stroke-width: 4; stroke: #ff0000" x1="1080" y1="480" x2="1069.87" y2="479.929"/>
      <polygon style="fill: #ff0000; fill-opacity: 1; stroke-opacity: 1; stroke-width: 4; stroke: #ff0000" fill-rule="evenodd" points="1065.37,479.898 1071.39,476.94 1069.87,479.929 1071.35,482.94 "/>
    </g>
    <g>
      <line style="fill: none; stroke-opacity: 1; stroke-width: 4; stroke: #ffa500" x1="940.898" y1="479.857" x2="970.129" y2="479.755"/>
      <polygon style="fill: #ffa500; fill-opacity: 1; stroke-opacity: 1; stroke-width: 4; stroke: #ffa500" fill-rule="evenodd" points="974.629,479.74 968.64,482.761 970.129,479.755 968.619,476.761 "/>
    </g>
    <g>
      <line style="fill: none; stroke-opacity: 1; stroke-width: 4; stroke: #ffa500" x1="940.898" y1="559.857" x2="970.129" y2="559.755"/>
      <polygon style="fill: #ffa500; fill-opacity: 1; stroke-opacity: 1; stroke-width: 4; stroke: #ffa500" fill-rule="evenodd" points="974.629,559.74 968.64,562.761 970.129,559.755 968.619,556.761 "/>
    </g>
    <g>
      <rect style="fill: #006600; fill-opacity: 1; stroke-opacity: 1; stroke-width: 2; stroke: #006600" x="1260" y="460" width="80" height="39.1631" rx="6" ry="6"/>
      <text font-size="22.5778" style="fill: #ffffff; fill-opacity: 1; stroke: none;text-anchor:middle;font-family:sans-serif;font-style:normal;font-weight:normal" x="1300" y="489.62">
        <tspan x="1300" y="489.62">Core</tspan>
      </text>
    </g>
    <g>
      <rect style="fill: #ff0000; fill-opacity: 1; stroke-opacity: 1; stroke-width: 2; stroke: #ff0000" x="1260" y="380" width="80" height="40" rx="6" ry="6"/>
      <text font-size="22.5778" style="fill: #ffffff; fill-opacity: 1; stroke: none;text-anchor:middle;font-family:sans-serif;font-style:normal;font-weight:normal" x="1300" y="410.039">
        <tspan x="1300" y="410.039">Instr 1</tspan>
      </text>
    </g>
    <g>
      <rect style="fill: #ffa500; fill-opacity: 1; stroke-opacity: 1; stroke-width: 2; stroke: #ffa500" x="1140" y="460" width="80" height="40" rx="6" ry="6"/>
      <text font-size="22.5778" style="fill: #ffffff; fill-opacity: 1; stroke: none;text-anchor:middle;font-family:sans-serif;font-style:normal;font-weight:normal" x="1180" y="490.039">
        <tspan x="1180" y="490.039">Data 1</tspan>
      </text>
    </g>
    <g>
      <polyline style="fill: none; stroke-opacity: 1; stroke-width: 4; stroke: #ff0000" points="1340.9,400 1360,400 1360,560 1349.87,559.929 "/>
      <polygon style="fill: #ff0000; fill-opacity: 1; stroke-opacity: 1; stroke-width: 4; stroke: #ff0000" fill-rule="evenodd" points="1345.37,559.898 1351.39,556.94 1349.87,559.929 1351.35,562.94 "/>
    </g>
    <text font-size="28.2222" style="fill: #000000; fill-opacity: 1; stroke: none;text-anchor:middle;font-family:sans-serif;font-style:normal;font-weight:700" x="1180" y="410.95">
      <tspan x="1180" y="410.95">MIMD</tspan>
    </text>
    <g>
      <rect style="fill: #ffa500; fill-opacity: 1; stroke-opacity: 1; stroke-width: 2; stroke: #ffa500" x="1140" y="540" width="80" height="40" rx="6" ry="6"/>
      <text font-size="22.5778" style="fill: #ffffff; fill-opacity: 1; stroke: none;text-anchor:middle;font-family:sans-serif;font-style:normal;font-weight:normal" x="1180" y="570.039">
        <tspan x="1180" y="570.039">Data 2</tspan>
      </text>
    </g>
    <g>
      <rect style="fill: #006600; fill-opacity: 1; stroke-opacity: 1; stroke-width: 2; stroke: #006600" x="1260" y="540" width="80" height="39.1631" rx="6" ry="6"/>
      <text font-size="22.5778" style="fill: #ffffff; fill-opacity: 1; stroke: none;text-anchor:middle;font-family:sans-serif;font-style:normal;font-weight:normal" x="1300" y="569.62">
        <tspan x="1300" y="569.62">Core</tspan>
      </text>
    </g>
    <g>
      <line style="fill: none; stroke-opacity: 1; stroke-width: 4; stroke: #ff0000" x1="1360" y1="480" x2="1349.87" y2="479.929"/>
      <polygon style="fill: #ff0000; fill-opacity: 1; stroke-opacity: 1; stroke-width: 4; stroke: #ff0000" fill-rule="evenodd" points="1345.37,479.898 1351.39,476.94 1349.87,479.929 1351.35,482.94 "/>
    </g>
    <g>
      <rect style="fill: #ff0000; fill-opacity: 1; stroke-opacity: 1; stroke-width: 2; stroke: #ff0000" x="1380" y="380" width="80" height="40" rx="6" ry="6"/>
      <text font-size="22.5778" style="fill: #ffffff; fill-opacity: 1; stroke: none;text-anchor:middle;font-family:sans-serif;font-style:normal;font-weight:normal" x="1420" y="410.039">
        <tspan x="1420" y="410.039">Instr 2</tspan>
      </text>
    </g>
    <g>
      <line style="fill: none; stroke-opacity: 1; stroke-width: 4; stroke: #ff0000" x1="1420" y1="220.995" x2="1420" y2="250.042"/>
      <polygon style="fill: #ff0000; fill-opacity: 1; stroke-opacity: 1; stroke-width: 4; stroke: #ff0000" fill-rule="evenodd" points="1420,254.542 1417,248.542 1420,250.042 1423,248.542 "/>
    </g>
    <g>
      <polyline style="fill: none; stroke-opacity: 1; stroke-width: 4; stroke: #ffa500" points="1180,580.977 1180,600 1420,600 1420,589.128 "/>
      <polygon style="fill: #ffa500; fill-opacity: 1; stroke-opacity: 1; stroke-width: 4; stroke: #ffa500" fill-rule="evenodd" points="1420,584.628 1423,590.628 1420,589.128 1417,590.628 "/>
    </g>
    <g>
      <line style="fill: none; stroke-opacity: 1; stroke-width: 4; stroke: #ffa500" x1="1300" y1="600" x2="1300" y2="588.136"/>
      <polygon style="fill: #ffa500; fill-opacity: 1; stroke-opacity: 1; stroke-width: 4; stroke: #ffa500" fill-rule="evenodd" points="1300,583.636 1303,589.636 1300,588.136 1297,589.636 "/>
    </g>
    <g>
      <rect style="fill: #006600; fill-opacity: 1; stroke-opacity: 1; stroke-width: 2; stroke: #006600" x="1380" y="540" width="80" height="39.1631" rx="6" ry="6"/>
      <text font-size="22.5778" style="fill: #ffffff; fill-opacity: 1; stroke: none;text-anchor:middle;font-family:sans-serif;font-style:normal;font-weight:normal" x="1420" y="569.62">
        <tspan x="1420" y="569.62">Core</tspan>
      </text>
    </g>
    <g>
      <polyline style="fill: none; stroke-opacity: 1; stroke-width: 4; stroke: #ffa500" points="1180,500.977 1180,520 1420,520 1420,509.128 "/>
      <polygon style="fill: #ffa500; fill-opacity: 1; stroke-opacity: 1; stroke-width: 4; stroke: #ffa500" fill-rule="evenodd" points="1420,504.628 1423,510.628 1420,509.128 1417,510.628 "/>
    </g>
    <g>
      <line style="fill: none; stroke-opacity: 1; stroke-width: 4; stroke: #ffa500" x1="1300" y1="520" x2="1300" y2="508.136"/>
      <polygon style="fill: #ffa500; fill-opacity: 1; stroke-opacity: 1; stroke-width: 4; stroke: #ffa500" fill-rule="evenodd" points="1300,503.636 1303,509.636 1300,508.136 1297,509.636 "/>
    </g>
    <g>
      <rect style="fill: #006600; fill-opacity: 1; stroke-opacity: 1; stroke-width: 2; stroke: #006600" x="1380" y="460" width="80" height="39.1631" rx="6" ry="6"/>
      <text font-size="22.5778" style="fill: #ffffff; fill-opacity: 1; stroke: none;text-anchor:middle;font-family:sans-serif;font-style:normal;font-weight:normal" x="1420" y="489.62">
        <tspan x="1420" y="489.62">Core</tspan>
      </text>
    </g>
    <g>
      <polyline style="fill: none; stroke-opacity: 1; stroke-width: 4; stroke: #ff0000" points="1460.9,400 1480,400 1480,560 1469.87,559.929 "/>
      <polygon style="fill: #ff0000; fill-opacity: 1; stroke-opacity: 1; stroke-width: 4; stroke: #ff0000" fill-rule="evenodd" points="1465.37,559.898 1471.39,556.94 1469.87,559.929 1471.35,562.94 "/>
    </g>
    <g>
      <line style="fill: none; stroke-opacity: 1; stroke-width: 4; stroke: #ff0000" x1="1480" y1="480" x2="1468.97" y2="479.769"/>
      <polygon style="fill: #ff0000; fill-opacity: 1; stroke-opacity: 1; stroke-width: 4; stroke: #ff0000" fill-rule="evenodd" points="1464.47,479.675 1470.53,476.801 1468.97,479.769 1470.41,482.8 "/>
    </g>
  </g>
</svg>
