<?xml version="1.0" encoding="UTF-8" standalone="no"?>
<!DOCTYPE svg PUBLIC "-//W3C//DTD SVG 1.0//EN" "http://www.w3.org/TR/2001/PR-SVG-20010719/DTD/svg10.dtd">
<svg width="45cm" height="28cm" viewBox="414 97 892 546" xmlns="http://www.w3.org/2000/svg" xmlns:xlink="http://www.w3.org/1999/xlink">
  <g id="Background"/>
  <g id="Background">
    <g>
      <path style="fill: #008000; fill-opacity: 1; stroke-opacity: 1; stroke-width: 6; stroke: #000000" fill-rule="evenodd" d="M 786.077 310.451 C 761.538,309.791 713.946,323.65 720.638,353.349 C 727.331,383.047 759.307,389.646 772.692,381.067 C 786.077,372.487 751.871,422.644 817.31,435.843 C 882.748,449.042 916.212,427.923 906.544,412.744 C 896.877,397.565 963.804,448.382 995.036,419.344 C 1026.27,390.306 963.06,362.588 976.445,366.548 C 989.831,370.507 1030.73,365.228 1017.34,315.731 C 1003.96,266.234 883.492,304.512 896.877,297.252 C 910.263,289.993 876.799,253.695 835.157,260.955 C 793.514,268.214 790.56,281.388 786.098,310.426 L 786.077,310.451z"/>
      <text font-size="42.3327" style="fill: #ffffff; fill-opacity: 1; stroke: none;text-anchor:middle;font-family:sans-serif;font-style:normal;font-weight:normal" x="880.83" y="374.656">
        <tspan x="880.83" y="374.656">WAN</tspan>
      </text>
    </g>
    <g>
      <path style="fill: #add8e6; fill-opacity: 1; stroke-opacity: 1; stroke-width: 6; stroke: #000000" fill-rule="evenodd" d="M 484.052 193.634 C 467.692,193.194 435.964,202.434 440.426,222.232 C 444.887,242.031 466.205,246.431 475.128,240.711 C 484.052,234.991 461.247,268.429 504.873,277.229 C 548.499,286.028 570.808,271.949 564.363,261.83 C 557.918,251.71 602.536,285.588 623.357,266.229 C 644.179,246.871 602.04,228.392 610.964,231.032 C 619.887,233.672 647.153,230.152 638.23,197.154 C 629.306,164.156 548.995,189.674 557.918,184.835 C 566.842,179.995 544.533,155.797 516.771,160.636 C 489.009,165.476 487.04,174.258 484.065,193.617 L 484.052,193.634z"/>
      <text font-size="42.3327" style="fill: #ffffff; fill-opacity: 1; stroke: none;text-anchor:middle;font-family:sans-serif;font-style:normal;font-weight:normal" x="547.22" y="243.052">
        <tspan x="547.22" y="243.052">LAN</tspan>
      </text>
    </g>
    <g>
      <path style="fill: #add8e6; fill-opacity: 1; stroke-opacity: 1; stroke-width: 6; stroke: #000000" fill-rule="evenodd" d="M 464.052 453.634 C 447.692,453.194 415.964,462.434 420.426,482.232 C 424.887,502.031 446.205,506.431 455.128,500.711 C 464.052,494.991 441.247,528.429 484.873,537.229 C 528.499,546.028 550.808,531.949 544.363,521.83 C 537.918,511.71 582.536,545.588 603.357,526.229 C 624.179,506.871 582.04,488.392 590.964,491.032 C 599.887,493.672 627.153,490.152 618.23,457.154 C 609.306,424.156 528.995,449.674 537.918,444.835 C 546.842,439.995 524.533,415.797 496.771,420.636 C 469.009,425.476 467.04,434.258 464.065,453.617 L 464.052,453.634z"/>
      <text font-size="42.3327" style="fill: #ffffff; fill-opacity: 1; stroke: none;text-anchor:middle;font-family:sans-serif;font-style:normal;font-weight:normal" x="527.22" y="503.052">
        <tspan x="527.22" y="503.052">LAN</tspan>
      </text>
    </g>
    <g>
      <ellipse style="fill: #197ad8; fill-opacity: 1; stroke-opacity: 1; stroke-width: 6; stroke: #000000" cx="610" cy="130" rx="30" ry="30"/>
      <text font-size="42.3327" style="fill: #ffffff; fill-opacity: 1; stroke: none;text-anchor:middle;font-family:sans-serif;font-style:normal;font-weight:normal" x="610" y="148.842">
        <tspan x="610" y="148.842">H</tspan>
      </text>
    </g>
    <g>
      <ellipse style="fill: #197ad8; fill-opacity: 1; stroke-opacity: 1; stroke-width: 6; stroke: #000000" cx="450.021" cy="130" rx="30.0208" ry="30"/>
      <text font-size="42.3327" style="fill: #ffffff; fill-opacity: 1; stroke: none;text-anchor:middle;font-family:sans-serif;font-style:normal;font-weight:normal" x="450.021" y="148.842">
        <tspan x="450.021" y="148.842">H</tspan>
      </text>
    </g>
    <g>
      <ellipse style="fill: #197ad8; fill-opacity: 1; stroke-opacity: 1; stroke-width: 6; stroke: #000000" cx="450.021" cy="330" rx="30.0208" ry="30"/>
      <text font-size="42.3327" style="fill: #ffffff; fill-opacity: 1; stroke: none;text-anchor:middle;font-family:sans-serif;font-style:normal;font-weight:normal" x="450.021" y="348.842">
        <tspan x="450.021" y="348.842">H</tspan>
      </text>
    </g>
    <line style="fill: none; stroke-opacity: 1; stroke-width: 6; stroke-linecap: round; stroke: #000000" x1="572.299" y1="179.932" x2="590.12" y2="156.329"/>
    <line style="fill: none; stroke-opacity: 1; stroke-width: 6; stroke-linecap: round; stroke: #000000" x1="489.573" y1="169.008" x2="473.505" y2="153.161"/>
    <line style="fill: none; stroke-opacity: 1; stroke-width: 6; stroke-linecap: round; stroke: #000000" x1="494.207" y1="277.204" x2="471.204" y2="304.689"/>
    <g>
      <ellipse style="fill: #ffa500; fill-opacity: 1; stroke-opacity: 1; stroke-width: 6; stroke-linecap: round; stroke: #000000" cx="570.021" cy="350" rx="30.0208" ry="30"/>
      <text font-size="42.3327" style="fill: #ffffff; fill-opacity: 1; stroke: none;text-anchor:middle;font-family:sans-serif;font-style:normal;font-weight:normal" x="570.021" y="368.842">
        <tspan x="570.021" y="368.842">G</tspan>
      </text>
    </g>
    <line style="fill: none; stroke-opacity: 1; stroke-width: 6; stroke-linecap: round; stroke: #000000" x1="562.978" y1="317.759" x2="554.533" y2="279.105"/>
    <line style="fill: none; stroke-opacity: 1; stroke-width: 6; stroke-linecap: round; stroke: #000000" x1="539.268" y1="433.043" x2="558.582" y2="380.889"/>
    <g>
      <ellipse style="fill: #ffa500; fill-opacity: 1; stroke-opacity: 1; stroke-width: 6; stroke-linecap: round; stroke: #000000" cx="690.021" cy="270" rx="30.0208" ry="30"/>
      <text font-size="42.3327" style="fill: #ffffff; fill-opacity: 1; stroke: none;text-anchor:middle;font-family:sans-serif;font-style:normal;font-weight:normal" x="690.021" y="288.842">
        <tspan x="690.021" y="288.842">G</tspan>
      </text>
    </g>
    <line style="fill: none; stroke-opacity: 1; stroke-width: 6; stroke-linecap: round; stroke: #000000" x1="775.894" y1="307.94" x2="720.194" y2="283.331"/>
    <line style="fill: none; stroke-opacity: 1; stroke-width: 6; stroke-linecap: round; stroke: #000000" x1="658.72" y1="259.539" x2="631.384" y2="250.403"/>
    <g>
      <ellipse style="fill: #ffa500; fill-opacity: 1; stroke-opacity: 1; stroke-width: 6; stroke-linecap: round; stroke: #000000" cx="690.021" cy="430" rx="30.0208" ry="30"/>
      <text font-size="42.3327" style="fill: #ffffff; fill-opacity: 1; stroke: none;text-anchor:middle;font-family:sans-serif;font-style:normal;font-weight:normal" x="690.021" y="448.842">
        <tspan x="690.021" y="448.842">G</tspan>
      </text>
    </g>
    <line style="fill: none; stroke-opacity: 1; stroke-width: 6; stroke-linecap: round; stroke: #000000" x1="658.423" y1="439.469" x2="618.453" y2="451.447"/>
    <line style="fill: none; stroke-opacity: 1; stroke-width: 6; stroke-linecap: round; stroke: #000000" x1="772.357" y1="394.214" x2="720.294" y2="416.842"/>
    <g>
      <ellipse style="fill: #197ad8; fill-opacity: 1; stroke-opacity: 1; stroke-width: 6; stroke-linecap: round; stroke: #000000" cx="610" cy="610" rx="30" ry="30"/>
      <text font-size="42.3327" style="fill: #ffffff; fill-opacity: 1; stroke: none;text-anchor:middle;font-family:sans-serif;font-style:normal;font-weight:normal" x="610" y="628.842">
        <tspan x="610" y="628.842">H</tspan>
      </text>
    </g>
    <g>
      <ellipse style="fill: #197ad8; fill-opacity: 1; stroke-opacity: 1; stroke-width: 6; stroke-linecap: round; stroke: #000000" cx="470.021" cy="610" rx="30.0208" ry="30"/>
      <text font-size="42.3327" style="fill: #ffffff; fill-opacity: 1; stroke: none;text-anchor:middle;font-family:sans-serif;font-style:normal;font-weight:normal" x="470.021" y="628.842">
        <tspan x="470.021" y="628.842">H</tspan>
      </text>
    </g>
    <line style="fill: none; stroke-opacity: 1; stroke-width: 6; stroke-linecap: round; stroke: #000000" x1="497.114" y1="542.097" x2="482.254" y2="579.341"/>
    <line style="fill: none; stroke-opacity: 1; stroke-width: 6; stroke-linecap: round; stroke: #000000" x1="553.034" y1="526.397" x2="591.416" y2="582.725"/>
    <g>
      <ellipse style="fill: #197ad8; fill-opacity: 1; stroke-opacity: 1; stroke-width: 6; stroke-linecap: round; stroke: #000000" cx="810.021" cy="190" rx="30.0208" ry="30"/>
      <text font-size="42.3327" style="fill: #ffffff; fill-opacity: 1; stroke: none;text-anchor:middle;font-family:sans-serif;font-style:normal;font-weight:normal" x="810.021" y="208.842">
        <tspan x="810.021" y="208.842">H</tspan>
      </text>
    </g>
    <line style="fill: none; stroke-opacity: 1; stroke-width: 6; stroke-linecap: round; stroke: #000000" x1="836.438" y1="257.845" x2="821.998" y2="220.76"/>
    <g>
      <ellipse style="fill: #197ad8; fill-opacity: 1; stroke-opacity: 1; stroke-width: 6; stroke-linecap: round; stroke: #000000" cx="830.021" cy="510" rx="30.0208" ry="30"/>
      <text font-size="42.3327" style="fill: #ffffff; fill-opacity: 1; stroke: none;text-anchor:middle;font-family:sans-serif;font-style:normal;font-weight:normal" x="830.021" y="528.842">
        <tspan x="830.021" y="528.842">H</tspan>
      </text>
    </g>
    <line style="fill: none; stroke-opacity: 1; stroke-width: 6; stroke-linecap: round; stroke: #000000" x1="848.01" y1="442.64" x2="838.519" y2="478.178"/>
    <g>
      <path style="fill: #add8e6; fill-opacity: 1; stroke-opacity: 1; stroke-width: 6; stroke: #000000" fill-rule="evenodd" d="M 1064.05 193.634 C 1047.69,193.194 1015.96,202.434 1020.43,222.232 C 1024.89,242.031 1046.2,246.431 1055.13,240.711 C 1064.05,234.991 1041.25,268.429 1084.87,277.229 C 1128.5,286.028 1150.81,271.949 1144.36,261.83 C 1137.92,251.71 1182.54,285.588 1203.36,266.229 C 1224.18,246.871 1182.04,228.392 1190.96,231.032 C 1199.89,233.672 1227.15,230.152 1218.23,197.154 C 1209.31,164.156 1128.99,189.674 1137.92,184.835 C 1146.84,179.995 1124.53,155.797 1096.77,160.636 C 1069.01,165.476 1067.04,174.258 1064.07,193.617 L 1064.05,193.634z"/>
      <text font-size="42.3327" style="fill: #ffffff; fill-opacity: 1; stroke: none;text-anchor:middle;font-family:sans-serif;font-style:normal;font-weight:normal" x="1127.22" y="243.052">
        <tspan x="1127.22" y="243.052">LAN</tspan>
      </text>
    </g>
    <g>
      <path style="fill: #add8e6; fill-opacity: 1; stroke-opacity: 1; stroke-width: 6; stroke: #000000" fill-rule="evenodd" d="M 1144.05 453.634 C 1127.69,453.194 1095.96,462.434 1100.43,482.232 C 1104.89,502.031 1126.2,506.431 1135.13,500.711 C 1144.05,494.991 1121.25,528.429 1164.87,537.229 C 1208.5,546.028 1230.81,531.949 1224.36,521.83 C 1217.92,511.71 1262.54,545.588 1283.36,526.229 C 1304.18,506.871 1262.04,488.392 1270.96,491.032 C 1279.89,493.672 1307.15,490.152 1298.23,457.154 C 1289.31,424.156 1208.99,449.674 1217.92,444.835 C 1226.84,439.995 1204.53,415.797 1176.77,420.636 C 1149.01,425.476 1147.04,434.258 1144.07,453.617 L 1144.05,453.634z"/>
      <text font-size="42.3327" style="fill: #ffffff; fill-opacity: 1; stroke: none;text-anchor:middle;font-family:sans-serif;font-style:normal;font-weight:normal" x="1207.22" y="503.052">
        <tspan x="1207.22" y="503.052">LAN</tspan>
      </text>
    </g>
    <g>
      <ellipse style="fill: #197ad8; fill-opacity: 1; stroke-opacity: 1; stroke-width: 6; stroke: #000000" cx="1250" cy="130" rx="30" ry="30"/>
      <text font-size="42.3327" style="fill: #ffffff; fill-opacity: 1; stroke: none;text-anchor:middle;font-family:sans-serif;font-style:normal;font-weight:normal" x="1250" y="148.842">
        <tspan x="1250" y="148.842">H</tspan>
      </text>
    </g>
    <g>
      <ellipse style="fill: #197ad8; fill-opacity: 1; stroke-opacity: 1; stroke-width: 6; stroke: #000000" cx="1270.02" cy="250" rx="30.0208" ry="30"/>
      <text font-size="42.3327" style="fill: #ffffff; fill-opacity: 1; stroke: none;text-anchor:middle;font-family:sans-serif;font-style:normal;font-weight:normal" x="1270.02" y="268.842">
        <tspan x="1270.02" y="268.842">H</tspan>
      </text>
    </g>
    <line style="fill: none; stroke-opacity: 1; stroke-width: 6; stroke-linecap: round; stroke: #000000" x1="1183.38" y1="176.962" x2="1223.03" y2="149.016"/>
    <line style="fill: none; stroke-opacity: 1; stroke-width: 6; stroke-linecap: round; stroke: #000000" x1="1201.61" y1="236.362" x2="1237.64" y2="243.546"/>
    <g>
      <ellipse style="fill: #ffa500; fill-opacity: 1; stroke-opacity: 1; stroke-width: 6; stroke-linecap: round; stroke: #000000" cx="1150.02" cy="350" rx="30.0208" ry="30"/>
      <text font-size="42.3327" style="fill: #ffffff; fill-opacity: 1; stroke: none;text-anchor:middle;font-family:sans-serif;font-style:normal;font-weight:normal" x="1150.02" y="368.842">
        <tspan x="1150.02" y="368.842">G</tspan>
      </text>
    </g>
    <line style="fill: none; stroke-opacity: 1; stroke-width: 6; stroke-linecap: round; stroke: #000000" x1="1142.98" y1="317.759" x2="1134.53" y2="279.105"/>
    <line style="fill: none; stroke-opacity: 1; stroke-width: 6; stroke-linecap: round; stroke: #000000" x1="1176.82" y1="417.622" x2="1162.16" y2="380.635"/>
    <g>
      <ellipse style="fill: #ffa500; fill-opacity: 1; stroke-opacity: 1; stroke-width: 6; stroke-linecap: round; stroke: #000000" cx="1070.02" cy="410" rx="30.0208" ry="30"/>
      <text font-size="42.3327" style="fill: #ffffff; fill-opacity: 1; stroke: none;text-anchor:middle;font-family:sans-serif;font-style:normal;font-weight:normal" x="1070.02" y="428.842">
        <tspan x="1070.02" y="428.842">G</tspan>
      </text>
    </g>
    <line style="fill: none; stroke-opacity: 1; stroke-width: 6; stroke-linecap: round; stroke: #000000" x1="1099.12" y1="425.563" x2="1141.88" y2="448.434"/>
    <line style="fill: none; stroke-opacity: 1; stroke-width: 6; stroke-linecap: round; stroke: #000000" x1="1003.17" y1="389.908" x2="1038.78" y2="400.611"/>
    <g>
      <ellipse style="fill: #197ad8; fill-opacity: 1; stroke-opacity: 1; stroke-width: 6; stroke-linecap: round; stroke: #000000" cx="1270" cy="610" rx="30" ry="30"/>
      <text font-size="42.3327" style="fill: #ffffff; fill-opacity: 1; stroke: none;text-anchor:middle;font-family:sans-serif;font-style:normal;font-weight:normal" x="1270" y="628.842">
        <tspan x="1270" y="628.842">H</tspan>
      </text>
    </g>
    <g>
      <ellipse style="fill: #197ad8; fill-opacity: 1; stroke-opacity: 1; stroke-width: 6; stroke-linecap: round; stroke: #000000" cx="1130.02" cy="610" rx="30.0208" ry="30"/>
      <text font-size="42.3327" style="fill: #ffffff; fill-opacity: 1; stroke: none;text-anchor:middle;font-family:sans-serif;font-style:normal;font-weight:normal" x="1130.02" y="628.842">
        <tspan x="1130.02" y="628.842">H</tspan>
      </text>
    </g>
    <line style="fill: none; stroke-opacity: 1; stroke-width: 6; stroke-linecap: round; stroke: #000000" x1="1168.31" y1="540.805" x2="1145.99" y2="581.136"/>
    <line style="fill: none; stroke-opacity: 1; stroke-width: 6; stroke-linecap: round; stroke: #000000" x1="1227.09" y1="528.585" x2="1254.62" y2="580.82"/>
    <g>
      <ellipse style="fill: #197ad8; fill-opacity: 1; stroke-opacity: 1; stroke-width: 6; stroke-linecap: round; stroke: #000000" cx="1050.02" cy="530" rx="30.0208" ry="30"/>
      <text font-size="42.3327" style="fill: #ffffff; fill-opacity: 1; stroke: none;text-anchor:middle;font-family:sans-serif;font-style:normal;font-weight:normal" x="1050.02" y="548.842">
        <tspan x="1050.02" y="548.842">H</tspan>
      </text>
    </g>
    <line style="fill: none; stroke-opacity: 1; stroke-width: 6; stroke-linecap: round; stroke: #000000" x1="1123.78" y1="505.902" x2="1081.4" y2="519.748"/>
  </g>
</svg>
