<?xml version="1.0" encoding="UTF-8"?>
<svg width="500" height="500" version="1.1" viewBox="0 0 132 132" xmlns="http://www.w3.org/2000/svg">
 <g>
  <path d="m86.4 45.5-24.5 21.4s-8.27 3.37-13.6 3.51c-5.31 0.138-20.1-5.87-24.8-7.21-4.63-1.34-8.2 0.761-11.5 3.26-4.78 3.58-5.62 14.8-5.3 16.7 0.731 4.16 9.79 9.69 11.2 11.2 1.15 1.28 4.29 7.93 4.65 13.9 0.214 3.62-2.16 7.54-2.56 9.34-0.464 2.06-0.16 6.34-0.16 6.34 16-0.0191 33.9 0.0439 48.6 0 0 0-0.994-7.06-0.699-7.64 0.225-0.439 4.31-2.14 4.93-3.38 0.627-1.24-4.77-11.6-4.77-11.6l12.9-0.14 21.2-11.1-5.84-12.4-19.9 8.92s-9.41 0.297-11.7 0.209c-2.28-0.0883-0.92-1.83-0.92-1.83l30.9-27.6zm-40 41.6h9.15c2.45 4.88 4.62 9.65 6.44 14.3 0 0 4.58 10.4 4.46 11.2 0 0-8.16 3.42-9.66 4.57-1.1 0.84-4.1 3.34-5.24 5.51-1.47-7e-3 -3.25 6e-3 -5.44 0.0481 0.158-1.63 0.686-5.23 1.59-7.06 1.96-3.98 6.47-8.18 6.47-8.18z"/>
  <path d="m101 89 4.92-3.31-5.59-10.1-4.4 2.88z" fill="none" stroke="#000" stroke-width=".529"/>
  <path d="m101 76.7 3.73 7.39c0.306 0.606 4.14-2.35 7.84-1.85 3.68 0.493 8.66 1.09 8.66 1.09s1.04 0.286 0.911-0.672-4.59-1.36-4.59-1.36-0.586-0.251-0.62-0.481c-0.0385-0.256 0.627-0.43 0.627-0.43l5.89-1.16s1.03-0.185 1.02-0.872c-5e-3 -0.687-1.47-0.705-1.47-0.705l-5.63 0.719s-1.09 0.214-1.08-0.478c2e-3 -0.362 0.778-0.759 0.778-0.759l8.03-2.06s0.677-0.202 0.41-0.875c-0.267-0.673-0.822-0.789-1.23-0.707-0.404 0.082-7.36 1.78-8.35 2.09-0.508 0.156-1.09 0.423-1.31-0.152-0.132-0.344 0.285-0.772 0.629-0.885 1.8-0.594 6.89-2.91 6.89-2.91s0.601-0.489 0.172-1.3c-0.429-0.812-1.97 0.037-1.97 0.037l-7.06 3.24s-1.96 0.623-2.46-0.263c-0.498-0.886-0.392-1.64-0.271-1.9 0.387-0.799 1.24-2.25 1.24-2.25s0.541-0.681 0.0829-1.33c-0.458-0.653-1.49-0.0301-1.49-0.0301s-1.14 2.02-2.92 3.48c-1.58 1.3-3.79 2.05-4.11 2.41-0.692 0.781-2.35 2.98-2.35 2.98z"/>
  <path d="m86.5 47.7 4.17-4.69 9.39 8.6-7.42 5.24z" fill="none" stroke="#000" stroke-width=".529"/>
  <path d="m104 30.1 16.5-20.8 0.613-0.653s0.294-0.29 0.521-0.119c0.227 0.171-0.108 0.542-0.108 0.542l-0.741 1.06-15.4 20.6z" stroke="#000" stroke-width=".265px"/>
  <path d="m92.1 44.4s1.79-8.29 3.01-9.75c1.22-1.46 6.01-7.66 7.69-7.33 1.68 0.328 2.75 1.65 2.75 1.65s0.429 0.336 1.3-0.0868c0.872-0.423 1.73 0.0115 1.7 0.916-0.0149 0.388-0.841 1.07-0.922 1.72-0.0407 0.325 0.666-0.173 0.816 0.439 0.137 0.558-0.384 1.07-0.433 1.32 0 0 0.446-0.343 0.664 0.46 0.217 0.802-0.6 2.03-0.6 2.03s0.47 0.135 0.628 0.732c0.0975 0.363-0.856 0.792-0.58 1.35 0 0 0.459 0.105 0.39 0.719-0.0686 0.613-3.73 4.56-5.55 5.15-1.9 1.66-5.49 5.5-5.49 5.5z"/>
  <path d="m15.1 65.8 0.749-5.7 18.8 1.34 2.12 2.1 4.2-2.7 2.55 3.01c-0.892 1.91-2.27 4.13-3.86 5.71z" fill="none" stroke="#000" stroke-width=".529"/>
  <path d="m22.7 28.5c-6.49 1.11-10.3 4.33-12.1 10.6-0.638 0.423-1.02 1.1-1.02 1.83 6.56e-4 0.201 0.0306 0.401 0.0889 0.595-0.43 0.418-0.67 0.973-0.671 1.55 3.4e-5 0.686 0.339 1.33 0.921 1.76-0.561 0.428-0.885 1.06-0.886 1.73 6.1e-4 0.999 0.715 1.88 1.76 2.16 0.0248 0.0734 0.0496 0.147 0.0754 0.22-0.354 0.402-0.548 0.903-0.548 1.42 7.99e-4 1.23 1.07 2.23 2.4 2.25-0.115 0.266-0.175 0.549-0.175 0.836-1.2e-4 1.25 1.1 2.26 2.45 2.26 0.183-1.11e-4 0.366-0.0192 0.545-0.0568 0.544 0.448 1.12 0.859 1.73 1.23l-0.106 3.11 16.4 1.13 2.2-2.28s1.03-0.653 5.63-0.508c0.785 0.0247 1.02-3.95 1.06-4.6 0.0116-0.208-0.898-0.621-0.878-0.842 0.0201-0.22 0.854-0.494 0.85-0.938-0.0019-0.201-0.372-0.728-0.581-1.06-0.355-1.07-0.386-2.09-0.288-3.19 0.12-0.161 2.51-0.496 2.51-0.496 0.637-0.602-1.65-3.45-2.38-4.08-0.725-0.635-2.35-6.18-4.3-8.15-2.59-2.62-5.4-4.99-7.19-5.63-1.44-0.559-4.06-0.795-7.56-0.822zm12.7 10.4c1-0.236 2.05 1.14 2.45 2.62 0.465 1.72-0.0731 3.37-1.2 3.67-0.832 0.224-1.79-0.347-2.42-1.44-0.128 0.102-0.26 0.236-0.391 0.415-0.653 0.891-1.87 13.6-1.87 13.6-0.195-0.0843-0.385-0.0822-0.636 0.0765 0-3e-6 0.797-10.3 1.13-11.7 0.315-1.29 0.829-3 1.31-3.57-0.0017-0.0057-0.0035-0.0114-0.0052-0.017-0.465-1.72 0.0731-3.37 1.2-3.67 0.14-0.0376 0.289-0.0124 0.434-0.0465z" style="paint-order:markers stroke fill"/>
  <g fill="#fff" stroke-width=".897">
   <path transform="scale(.265)" d="m126 251c-42.4-14.6-39-13.6-47.9-13.7-6.26-0.0263-9.18 0.407-13 1.93-2.71 1.08-5.06 1.96-5.2 1.96-0.494 8.3e-4 0.927-11.2 1.5-11.8 0.31-0.334 15.8 0.485 34.4 1.82l33.9 2.43 8.83 8.69 15.8-10.3 4.22 4.81c3.51 4.01 4.07 5.11 3.32 6.61-2.1 4.25-10.2 15.7-11.1 15.7-0.538 0-11.7-3.67-24.7-8.17z"/>
   <path transform="scale(.265)" d="m119 214c0.243-2.1 1.06-10.9 1.82-19.5 1.38-15.7 3.12-25.2 5.44-29.8 0.678-1.33 1.23-4.61 1.23-7.28 0-8.79 5.81-12.6 11-7.12 2.95 3.1 4.26 6.51 4.26 11.1 0 8.64-5.61 11.6-11.4 6.01l-2.94-2.85-1.31 3.13c-1.09 2.61-3.82 21.9-6.37 45-0.313 2.84-0.936 5.16-1.39 5.16-0.449 0-0.617-1.72-0.373-3.81z"/>
   <path transform="scale(.265)" d="m342 194-11-16.2 1.66-2.12c0.915-1.16 3.48-4.14 5.71-6.62l4.05-4.5 16 14.6c8.79 8.03 16 14.9 16.1 15.3 0.107 0.679-19.8 15.5-21 15.6-0.269 0.0241-5.44-7.23-11.5-16.1z"/>
   <path transform="scale(.265)" d="m375 316c-4.63-9.86-8.54-18.2-8.69-18.6-0.153-0.392 2.74-2.75 6.44-5.24l6.71-4.53 9.72 17.7c5.34 9.72 9.72 17.8 9.72 17.9 0 0.115-3.48 2.59-7.74 5.49l-7.74 5.28z"/>
   <path transform="scale(.265)" d="m175 460c1.17-7.85 3.04-15.9 4.7-20.3 2.38-6.27 10.1-17.2 18.4-26l7.06-7.47-14.1-37c-7.78-20.4-14.3-37.5-14.6-38.1-0.329-0.872 3.3-1.12 16.3-1.12h16.8l7.04 14.6c3.87 8.02 9.66 20.8 12.9 28.5 3.2 7.65 8.29 19.7 11.3 26.8s6.47 15.7 7.7 19.1l2.23 6.18-2.01 0.786c-5.68 2.22-17.3 7.47-25 11.3-9.81 4.85-20.9 13.9-25.9 21l-3.14 4.51-8.68 0.042c-4.77 0.0232-9.33 0.292-10.1 0.597-1.24 0.478-1.37 7e-3 -0.865-3.37z"/>
  </g>
 </g>
</svg>
