<svg xmlns="http://www.w3.org/2000/svg" width="380.787" height="479.395" viewBox="0 0 100.75 126.84" xmlns:v="https://vecta.io/nano"><path d="M34.553 95.304c-.326-.326-.189-.693.154-.414a2.62 2.62 0 0 0 .86.399c.426.105.396.136-.154.161-.376.017-.763-.049-.86-.146zm2.602-.534c.437-.234.881-.556.988-.717.136-.205.196-.195.198.032.004.307-1.316 1.143-1.769 1.121-.116-.006.146-.202.582-.435zm-3.187-1.526c-.101-.675-.124-1.287-.052-1.359s.215.42.316 1.095.124 1.287.052 1.359-.215-.42-.316-1.095zm7.262-.872c-1.886-4.943-2.566-7.764-1.986-8.245 4.155-3.449 22.518-4.743 22.518-1.587 0 .418-7.245 6.399-8.599 7.1-3.932 2.034-11.535 3.775-11.932 2.733zm45.733.552c.182-.073.48-.073.661 0s.033.133-.331.133-.513-.06-.331-.133zm-50.891-5.447c-.504-.595-.504-.595.091-.091.559.474.716.687.504.687-.05 0-.318-.268-.595-.595zm-1.695-.907c0-.147.268-.494.595-.772.595-.504.595-.504.069.157l-.595.772c-.038.061-.069-.01-.069-.157zm59.288-.239c.013-.308.075-.371.16-.16.076.191.067.419-.021.507s-.15-.068-.139-.347zm-54.687-5.6c.076-.255.324-1.773.551-3.373l4.778-31.618c2.13-14.1 1.435-12.779 5.427-10.312 3.284 2.03 2.281-.759 8.058 22.401 5.502 22.058 5.451 21.777 3.961 21.777-1.057 0-1.775-1.219-1.574-2.675.185-1.343.141-1.409-1.114-1.678-.818-.175-.855-.145-1.152.961-.681 2.53-.769 2.597-3.381 2.597-3.074 0-2.956.19-2.956-4.787 0-4.586.044-4.473-1.762-4.473-.925 0-.925 0-.738 4.173.212 4.736.258 4.612-1.857 5.086-1.594.357-1.945.064-2.626-2.198-.459-1.525-.47-1.537-1.304-1.361-1.178.248-1.225.353-.824 1.841.72 2.673.566 3.003-1.719 3.677-1.804.532-1.937.529-1.768-.039zm-4.98-1.047c-.144-.377-.113-.407.148-.148.181.179.262.393.181.474s-.229-.065-.329-.326zm60.461-.761c.013-.308.075-.371.16-.16.076.191.067.419-.021.507s-.15-.068-.139-.347zm-61.173-.309c-.329-.42-.32-.429.1-.1.255.2.463.408.463.463 0 .218-.217.078-.563-.363zm-1.025-2.283c0-.055.208-.263.463-.463.42-.329.429-.32.1.1-.346.441-.563.581-.563.363zm-9.795-4.822c-.361-.396-.489-.623-.285-.504.304.176.342.004.211-.95-.16-1.165-.16-1.165.36.281.643 1.787.565 2.106-.285 1.173zm-1.351-1.627c-.329-.42-.32-.429.1-.1.255.2.463.408.463.463 0 .218-.217.078-.563-.363zm.728-1.532c-.255-.665-.18-.837.132-.301.154.266.225.539.157.607s-.198-.07-.289-.306zm-2.313-.579c-1.032-1.244-1.083-1.357-.579-1.277.263.042.461.27.441.508-.052.61.148.536.401-.15.21-.566.219-.563.348.115.187.977-.127 1.389-.612.803zm-1.855-2.387c-.329-.42-.32-.429.1-.1.255.2.463.408.463.463 0 .218-.217.078-.563-.363zm3.109.056c-.255-.665-.18-.837.132-.301.154.266.225.539.157.607s-.198-.07-.289-.306zm8.673-.453c-.504-.595-.504-.595.091-.091.327.277.595.545.595.595 0 .212-.213.055-.687-.504zm-11.446-.397c-.289-.675-.282-.69.09-.214.221.282.401.61.401.728 0 .402-.179.214-.491-.514zm-1.775-1.038c-.407-.534-.606-.888-.441-.786.339.209 1.484 1.757 1.3 1.757-.065 0-.452-.437-.86-.971zm.81-.616c-.226-.437-.351-.794-.278-.794s.317.357.543.794.351.794.278.794-.317-.357-.543-.794zm2.821-.144c-.169-.371-.303-.818-.297-.993s.186.087.401.582c.452 1.042.356 1.422-.104.412zm8.573-.463c.099-.261.247-.408.329-.326s0 .295-.181.474c-.261.259-.292.229-.148-.148zm-13.916-1.127c-.32-.517-.508-1.013-.418-1.102.195-.195.195-.196.761 1.05s.413 1.275-.343.052zm1.596-.118c-.156-.291-.224-.529-.151-.529s.26.238.415.529.224.529.151.529-.26-.238-.415-.529zm3.075-.143c-.255-.665-.18-.837.132-.301.154.266.225.539.157.607s-.198-.07-.289-.306zm-4.264-1.863c-.39-.666-.666-1.255-.613-1.308s.428.492.832 1.211c.926 1.647.738 1.73-.219.097zm2.941-1.841c-.091-.236-.157-.569-.148-.739s.131-.024.27.325.206.681.148.739-.18-.088-.27-.325zm78.966-1.07c.013-.308.075-.371.16-.16.076.191.067.419-.021.507s-.15-.068-.139-.347zm-79.882-1.577c-.169-.371-.303-.818-.297-.993s.186.087.401.582c.452 1.042.356 1.422-.104.412zm6.836.292c0-.21.108-.448.24-.53s.178.09.101.381c-.162.618-.341.696-.341.148zm-8.691-3.208c-.179-.392-.197-.609-.042-.514s.27-.148.276-.578c.009-.71.032-.696.52.315.665 1.376.66 1.665-.014.889-.543-.625-.543-.625-.379-.029.221.8.021.754-.36-.083zm-1.678-.561c.191-.076.419-.067.507.021s-.068.15-.347.139c-.308-.013-.371-.075-.16-.16zm83.943-.503c.013-.308.075-.371.16-.16.076.191.067.419-.021.507s-.15-.068-.139-.347zm-82.464-1.654c-.025-.721-.025-.721.67-.052.703.677.86 1.126.202.581-.218-.181-.452-.201-.602-.052s-.255-.036-.27-.477zm-.867-1.896c0-.972.044-1.081.239-.595a1.71 1.71 0 0 1 0 1.191c-.195.486-.239.377-.239-.595zm2.898.639c.013-.308.075-.371.16-.16.076.191.067.419-.021.507s-.15-.068-.139-.347zm-7.562-.904c.09-.146.216-.265.28-.265s.117.119.117.265-.126.265-.28.265-.207-.119-.117-.265zm6.647-1.73c-.255-.665-.18-.837.132-.301.154.266.225.539.157.607s-.198-.07-.289-.306zm82.141-1.864c.013-.308.075-.371.16-.16.076.191.067.419-.021.507s-.15-.068-.139-.347zm-83.965-2.756c-.558-.652-.911-.674-1.07-.066-.074.285-.133.183-.152-.265-.017-.4.037-.728.119-.728.386 0 1.189.593 1.441 1.064.357.668.236.665-.339-.006zm3.098-8.577c-.282-.206-.443-.445-.358-.531s.372.083.636.375c.562.621.447.686-.278.156zm7.695-4.261c-.966-.513-1.897-.846-2.068-.74s-.045-.146.28-.559.59-.928.59-1.145c0-.261.247-.138.733.366.769.798.896 1.212.193.629-.479-.398-.793-.194-.575.374.151.393 2.021 1.479 2.549 1.479.151 0 .287-.327.302-.728.026-.728.026-.728.238-.066.524 1.635.207 1.69-2.242.391zm-9.763-.269c-.255-.665-.18-.837.132-.301.154.266.225.539.157.607s-.198-.07-.289-.306zm2.853-1.511c-.504-.595-.504-.595.091-.091.559.474.716.687.504.687-.05 0-.318-.268-.595-.595zm8.645-.088c.013-.308.075-.371.16-.16.076.191.067.419-.021.507s-.15-.068-.139-.347zm-10.654-.556c.191-.076.419-.067.507.021s-.068.15-.347.139c-.308-.013-.371-.075-.16-.16zm10.389-.503c.013-.308.075-.371.16-.16.076.191.067.419-.021.507s-.15-.068-.139-.347zm-.248-1.629c-.025-.75.275-1.876.906-3.4.519-1.253.89-2.332.825-2.398-.149-.149-1.546 2.13-2.016 3.29-.194.478-.394.827-.444.776-.105-.105.488-1.84.698-2.042.076-.073.493-.687.926-1.365s.897-1.214 1.031-1.191.262-.224.286-.549c.041-.551.899-1.773 1.103-1.569.05.05-.588 1.629-1.418 3.507s-1.588 4.011-1.684 4.739c-.175 1.323-.175 1.323-.212.202zm-1.339-.598c.386-.81.508-.96.508-.624 0 .142-.185.489-.411.772-.388.484-.393.476-.096-.148zm-12.556-2.259c-.255-.665-.18-.837.132-.301.154.266.225.539.157.607s-.198-.07-.289-.306zm-.651-1.589c-.443-.973-.359-1.18.121-.296.224.413.357.8.297.861s-.248-.194-.418-.565zm4.19-1.645c0-.159-.208-.344-.463-.41-.417-.109-.419-.124-.016-.152.477-.033.902.428.637.692-.087.087-.159.029-.159-.131zm73.157-.079c-1.455-.113-4.61-.509-7.011-.882l-5.953-.848c-.873-.094-3.759-.633-6.413-1.197-6.219-1.322-5.762-1.364-7.58.694-2.155 2.439-3.695 2.158-2.569-.47 1.155-2.696 1.489-2.755 10.903-1.935l14.313 1.2c7.046.563 7.865.772 9.961 2.536 1.5 1.262.686 1.392-5.651.902zM9.506 13.268c0-.154.245-.56.545-.904.545-.625.545-.625.08.169-.612 1.045-.625 1.06-.625.735zm9.087-2.322c.001-1.164.047-1.607.103-.985a13.25 13.25 0 0 1-.002 2.117c-.057.542-.103.033-.102-1.131zm58.597.216c.191-.076.419-.067.507.021s-.068.15-.347.139c-.308-.013-.371-.075-.16-.16zm-63.583-.878c-.09-.146-.044-.265.101-.265s.338.119.428.265.044.265-.101.265-.338-.119-.428-.265zm47.691-.969c.182-.073.48-.073.661 0s.033.133-.331.133-.513-.06-.331-.133zM39.27 7.738c-1.542-.379-4.336-1.52-4.213-1.72.248-.4.935-.255 2.666.563 1.989.94 2.625 1.008 1.605.173-.404-.331-1.033-1.161-1.397-1.846-.797-1.497-.792-1.5 2.85-2.038 1.268-.187 2.254-.423 2.191-.525-.261-.423 7.318-.573 7.78-.154.745.674 1.209 2.264.781 2.676C50.189 6.163 41.316 8.24 39.27 7.738zm-2.602-3.451c-.359-.359-.158-.806.498-1.104.988-.45 1.074-.377.285.243-.385.303-.632.66-.549.794.174.282.025.325-.234.067zm15.5-3.975c.255-.067.671-.067.926 0s.046.121-.463.121-.718-.054-.463-.121zM43.967.048c.255-.067.671-.067.926 0s.046.121-.463.121-.718-.054-.463-.121z" fill="#fcecad"/><path d="M13.576 113.404c-8.681-11.261-8.303-10.729-8.303-11.7 0-.654.661-3.44 5.06-21.307 2.951-11.989 3.052-12.445 3.544-16.007l.486-3.224c.026-.027 1.057 1.269 2.292 2.88 7.261 9.475 7.274 9.484 5.318 4.015L16.03 50.764c.078 0 .481.242.897.538.703.501.822.511 1.701.143 1.51-.631 1.566-.536 3.87 6.553l3.161 9.699c.646 1.973.949 3.322.86 3.837-.115.664-7.446 37.714-8.271 41.804-1.043 5.165-.743 5.161-4.671.066zm74.776-24.193l-3.44-1.845c-2.924-1.545-2.739-1.28-3.68-5.249-1.005-4.237-2.647-12.765-8.097-42.069l-1.856-9.922c-3.011-16.006-3.314-14.023 2.148-14.023 4.039 0 5.166-.294 2.602-.678-.658-.099-1.139-.237-1.068-.308s2.07.148 4.444.486 4.101.658 3.838.712c-.579.118-.111.847.544.847.22 0 1.902.431 3.738.959l6.117 1.749c4.489 1.277 4.296.87 3.576 7.542L94.05 58.039 92.042 77.75c-1.353 13.478-1.153 12.859-3.689 11.459zM28.756 54.817c-.065-.119-.63-1.757-1.256-3.641-1.298-3.905-1.374-3.649 1.432-4.798 1.62-.663 1.648-1.108.665-10.615-.728-7.042-.327-6.285-3.697-6.987-3.143-.655-3.194-.681-2.881-1.496.229-.597.229-.597 1.979.331 1.584.84 2.499 1.136 2.499.806 0-.067-.238-1.143-.529-2.392-.758-3.249-.704-3.661.961-7.454.82-1.867 1.521-3.636 1.558-3.932.085-.677 5.054-8.326 5.409-8.326.144 0 1.069.305 2.054.679 2.822 1.069 5.476 1.14 8.174.22.451-.154.448-.133-.032.227-.291.218-1.462.521-2.602.672s-2.093.315-2.117.364l-.636 1.279c-.326.655-1.014 3.036-1.53 5.292l-1.707 7.408-3.05 13.361-1.462 6.35c-3.1 13.583-2.98 13.115-3.232 12.651zm66.012-37.58c.804-.122.892-.314.397-.869-.281-.316-.262-.319.132-.02.763.578.57 1.084-.397 1.04-.8-.037-.81-.047-.132-.15zm-3.82-.256c.191-.076.419-.067.507.021s-.068.15-.347.139c-.308-.013-.371-.075-.16-.16zm-3.969-.265c.191-.076.419-.067.507.021s-.068.15-.347.139c-.308-.013-.371-.075-.16-.16zm-2.79-.267c.257-.067.615-.063.794.01s-.031.127-.468.122-.583-.065-.326-.132zm-25.207-.478c0-.218.047-.397.104-.397s.173.179.256.397.037.397-.104.397-.256-.179-.256-.397zm.008-1.058c0-.146.115-.443.256-.661s.256-.278.256-.132-.115.443-.256.661-.256.278-.256.132zm14.494-.048c.191-.076.419-.067.507.021s-.068.15-.347.139c-.308-.013-.371-.075-.16-.16zm-2.381-.529c.191-.076.419-.067.507.021s-.068.15-.347.139c-.308-.013-.371-.075-.16-.16zm-8.152-.745c.342-.364.681-.661.754-.661s-.147.298-.489.661-.681.661-.754.661.147-.298.489-.661zm27.202.216c.191-.076.419-.067.507.021s-.068.15-.347.139c-.308-.013-.371-.075-.16-.16zm-3.175-.265c.191-.076.419-.067.507.021s-.068.15-.347.139c-.308-.013-.371-.075-.16-.16zm-3.721-.259c.182-.073.48-.073.661 0s.033.133-.331.133-.513-.06-.331-.133zm-18.504-.27c.191-.076.419-.067.507.021s-.068.15-.347.139c-.308-.013-.371-.075-.16-.16zm15.346 0c.191-.076.419-.067.507.021s-.068.15-.347.139c-.308-.013-.371-.075-.16-.16zm-3.175-.265c.191-.076.419-.067.507.021s-.068.15-.347.139c-.308-.013-.371-.075-.16-.16zm-2.91-.265c.191-.076.419-.067.507.021s-.068.15-.347.139c-.308-.013-.371-.075-.16-.16zm-3.175-.265c.191-.076.419-.067.507.021s-.068.15-.347.139c-.308-.013-.371-.075-.16-.16zm-3.175-.265c.191-.076.419-.067.507.021s-.068.15-.347.139c-.308-.013-.371-.075-.16-.16zm-2.91-.265c.191-.076.419-.067.507.021s-.068.15-.347.139c-.308-.013-.371-.075-.16-.16zM51.596 3.708c-.432-.808-.343-1.032.138-.346.233.333.362.667.286.743s-.267-.103-.424-.397zm-.961-1.602c-.138-.131-.489-.296-.781-.366-.502-.121-.5-.129.034-.158.31-.017.711.148.892.366.359.433.259.542-.146.158zM46.762 1.9c.191-.076.419-.067.507.021s-.068.15-.347.139c-.308-.013-.371-.075-.16-.16z" fill="#e38b5c"/><path d="M30.032 96.834c-.145-.234.397-5.398 1.003-9.558.327-2.249.327-2.249 1.064-.064.405 1.202.83 2.127.944 2.057s.345.613.513 1.519c.768 4.138.912 4.552 1.616 4.653.443.063-.212.347-1.984.858-2.972.857-2.957.855-3.155.535zm8.243-2.7c.094-.358.213-.478.28-.28a.68.68 0 0 1-.164.627c-.196.196-.231.093-.116-.347zm2.981-.991c0-.12.357-.166.794-.102s.794.163.794.219-.357.102-.794.102-.794-.098-.794-.219zm49.163.038c.191-.076.419-.067.507.021s-.068.15-.347.139c-.308-.013-.371-.075-.16-.16zm-2.381-.265c.191-.076.419-.067.507.021s-.068.15-.347.139c-.308-.013-.371-.075-.16-.16zm-7.408-.794c.191-.076.419-.067.507.021s-.068.15-.347.139c-.308-.013-.371-.075-.16-.16zm-27.467-2.435c4.618-2.645 9.072-7.254 7.69-7.959-.592-.302-1.076-.614-1.076-.694s.833.304 1.85.854c2.14 1.156 2.081 1.184 3.023-1.458.696-1.951.696-1.951.014-2.844-.871-1.143-.985-1.125-1.506.231-.391 1.018-.434 1.054-.452.381-.021-.787-9.642-39.609-10.052-40.56-.253-.587-5.292-3.847-6.038-3.906-.482-.038-.522.166-2.31 12.004l-4.778 31.618c-.227 1.601-.479 3.131-.56 3.4-.128.428-.034.47.74.331.662-.118.752-.096.357.087-2.159 1.001-2.346.755-4.63-6.067-2.203-6.582-2.165-5.68-.564-13.255l1.982-9.5 6.606-30.662c.433-.526 7.473-.255 8.037.309.212.212 1.317 3.943 2.455 8.292l13.075 49.711c1.415 5.41 2.217 4.5-6.529 7.413l-7.733 2.602c-.291.111-.112-.036.397-.328zm-20.352-1.243c.013-.308.075-.371.16-.16.076.191.067.419-.021.507s-.15-.068-.139-.347zm60.59-.265c.013-.308.075-.371.16-.16.076.191.067.419-.021.507s-.15-.068-.139-.347zm-57.399-.927c-.344-.279-.515-.506-.381-.506.354 0 1.293.727 1.138.882-.073.072-.413-.097-.756-.375zm-1.36-.607c0-.077.298-.579.661-1.116s.661-.826.661-.645-.298.683-.661 1.116-.661.723-.661.645zm3.936-1.794c-.119-.563-.023-.761.483-.992.896-.408 1.089-.357.42.111-.313.22-.611.666-.662.992-.086.55-.103.542-.241-.111zm10.567-3.842c.191-.076.419-.067.507.021s-.068.15-.347.139c-.308-.013-.371-.075-.16-.16zm45.05-.238c.013-.308.075-.371.16-.16.076.191.067.419-.021.507s-.15-.068-.139-.347zm-42.668-.026c.191-.076.419-.067.507.021s-.068.15-.347.139c-.308-.013-.371-.075-.16-.16zm7.061-.226c-.437-.2-.608-.369-.381-.375s.644.163.926.377c.627.474.493.474-.545-.001zm-4.696-.033c.182-.073.48-.073.661 0s.033.133-.331.133-.513-.06-.331-.133zm-11.402-.377c.168-.206.365-.671.438-1.035.092-.46.12-.386.092.244-.025.543-.2.958-.438 1.035-.313.102-.332.051-.091-.244zm14.065.107c.191-.076.419-.067.507.021s-.068.15-.347.139c-.308-.013-.371-.075-.16-.16zm4.944-.348c-.09-.146.082-.265.381-.265s.545-.139.545-.309.062-.246.139-.17.063.334-.028.573c-.185.482-.783.581-1.036.17zm-27.778-.959c-.25-.382-.324-.613-.164-.514.305.189.921 1.209.73 1.209-.061 0-.316-.312-.566-.694zm26.473-.08c-.254-.28-.421-.68-.372-.889.052-.222.268-.01.519.509.497 1.029.48 1.073-.147.379zm-15.11-.037c-.285-.461.04-.558.402-.121.209.251.229.403.053.403-.155 0-.36-.127-.456-.282zm6.493-.263c0-.154.119-.207.265-.117s.265.216.265.28-.119.117-.265.117-.265-.126-.265-.28zm5.578-.249c.386-.81.508-.96.508-.624 0 .142-.185.489-.411.772-.388.484-.393.476-.096-.148zm-8.356 0c.09-.146.216-.265.28-.265s.117.119.117.265-.126.265-.28.265-.207-.119-.117-.265zm-16.536-.265c-.218-.141-.278-.256-.132-.256s.443.115.661.256.278.256.132.256-.443-.115-.661-.256zm-.937-.547c-.096-.155-.118-.339-.048-.408s.197.058.283.282c.179.466.026.548-.234.126zm11.012-.666c.013-.308.075-.371.16-.16.076.191.067.419-.021.507s-.15-.068-.139-.347zm32.573-.975c-.569-.686-.506-2.081.105-2.315.835-.319 1.185.06 1.245 1.351.058 1.251-.677 1.776-1.35.964zm-32.727-.193c.09-.146.283-.265.428-.265s.191.119.101.265-.283.265-.428.265-.191-.119-.101-.265zm1.406-.445c.191-.076.419-.067.507.021s-.068.15-.347.139c-.308-.013-.371-.075-.16-.16zm14.817 0c.191-.076.419-.067.507.021s-.068.15-.347.139c-.308-.013-.371-.075-.16-.16zm36.614-2.068c.005-.437.065-.583.132-.326s.063.615-.01.794-.127-.031-.122-.468zm-46.013-1.058c.002-.728.053-.994.114-.592s.059.998-.004 1.323-.113-.004-.111-.731zm-17.538-.312c-.587-.621-.598-.666-.097-.4.31.165.634.482.719.704.207.54.151.513-.622-.305zm42.173-.195c-.492-1.283.455-2.486 1.364-1.732.78.647.49 2.106-.418 2.106-.448 0-.866-.166-.946-.375zm-43.441-.735c-.244-.244-.203-.438.185-.86.276-.299.559-.782.629-1.073.105-.435.133-.411.159.135.019.409-.18.796-.519 1.007-.441.276-.487.418-.232.725.382.461.221.509-.222.066zm20.269-1.188c.191-.076.419-.067.507.021s-.068.15-.347.139c-.308-.013-.371-.075-.16-.16zm45.05-1.826c.013-.308.075-.371.16-.16.076.191.067.419-.021.507s-.15-.068-.139-.347zm-22.863-.022c-.669-.669.055-2.205 1.038-2.205.593 0 1.142 1.516.767 2.121-.181.293-1.534.355-1.805.084zm-53.556-1.547c-.774-1.189-.752-1.319.08-.487.372.372.64.839.595 1.039-.047.213-.327-.016-.676-.552zm76.684-.812c.013-.308.075-.371.16-.16.076.191.067.419-.021.507s-.15-.068-.139-.347zm-66.167-.507c-.19-.229-.216-.397-.061-.397.148 0 .337.179.421.397s.111.397.061.397-.24-.179-.421-.397zm-2.117-1.135c0-.125.298-.507.661-.849s.675-.869.692-1.171c.026-.457.051-.47.153-.079.072.278-.211.85-.692 1.398-.448.51-.815.825-.815.7zm68.813-3.385c.013-.308.075-.371.16-.16.076.191.067.419-.021.507s-.15-.068-.139-.347zm.265-2.381c.013-.308.075-.371.16-.16.076.191.067.419-.021.507s-.15-.068-.139-.347zm.265-2.646c.013-.308.075-.371.16-.16.076.191.067.419-.021.507s-.15-.068-.139-.347zm-70.098-.413c-.186-.299-.281-.601-.21-.672s.268.129.437.445c.4.747.214.933-.227.227zm-3.213-.497c0-.151.184-.346.408-.432.621-.238.693.019.109.384-.327.204-.517.222-.517.048zm73.575-2c.013-.308.075-.371.16-.16.076.191.067.419-.021.507s-.15-.068-.139-.347zm-82.885-1.349c.191-.076.419-.067.507.021s-.068.15-.347.139c-.308-.013-.371-.075-.16-.16zm2.909-2.324c.059-.504-.078-1.462-.305-2.127s-.345-1.387-.262-1.603-.063-1.756-.325-3.422c-.572-3.647-.737-3.348 3.17-5.748l3.858-2.45c2.99-2.036 2.885-2.14 4.087 4.038s1.241 5.981-1.51 7.932c-5.385 3.82-7.366 4.706-7.982 3.569-.395-.728-.395-.728-.405 0-.006.4-.106.728-.222.728s-.163-.413-.104-.917zm8.381-4.551c3.532-2.792 1.784-9.223-2.174-7.994-1.546.48-1.701.911-.413 1.15 1.51.28 1.93.792 1.93 2.351 0 3.477-3.406 4.757-4.676 1.757-.248-.586-2.557-1.584-2.891-1.25-.534.534.833 4.674 1.58 4.784 2.435.358 5.674-.031 6.645-.799zm72.125 3.197c.013-.308.075-.371.16-.16.076.191.067.419-.021.507s-.15-.068-.139-.347zM9.154 46.407c-.082-.214-.035-.459.104-.545s.253.089.253.388c0 .639-.147.703-.357.156zm88.749-1.353c.013-.308.075-.371.16-.16.076.191.067.419-.021.507s-.15-.068-.139-.347zm.529-5.027c.013-.308.075-.371.16-.16.076.191.067.419-.021.507s-.15-.068-.139-.347zm-84.753-.333c-.802-.484-1.017-1.009-.243-.595.425.228 1.329 1.122 1.069 1.058-.054-.013-.426-.222-.826-.463zm85.018-2.048c.013-.308.075-.371.16-.16.076.191.067.419-.021.507s-.15-.068-.139-.347zm-34.322-1.636c-.836-.538-1.443-4.392-.735-4.664 1.417-.544 2.492 1.096 2.492 3.803 0 .682-1.156 1.248-1.757.861zm34.586-1.539c.013-.308.075-.371.16-.16.076.191.067.419-.021.507s-.15-.068-.139-.347zm-81.811-2.403c-.327-.397-.308-.411.197-.142.308.164.655.213.77.109s.124-.04.019.142c-.258.448-.553.416-.987-.109zm82.075.021c.013-.308.075-.371.16-.16.076.191.067.419-.021.507s-.15-.068-.139-.347zm-79.662-1.375c.252-.519.795-.609.795-.131 0 .088-.078.083-.172-.012s-.339.034-.544.287c-.333.411-.341.396-.079-.144zm.001-1.101c0-.137.119-.323.265-.412s.265.022.265.249-.119.412-.265.412-.265-.112-.265-.249zm1.852.149c0-.055.208-.263.463-.463.42-.329.429-.32.1.1-.346.441-.563.581-.563.363zm41.161-.41c-.597-.66-.458-1.288.433-1.952.942-.703 1.534-.262 1.534 1.143 0 1.367-1.065 1.805-1.967.809zm-47.081-.956c-.255-.665-.18-.837.132-.301.154.266.225.539.157.607s-.198-.07-.289-.306zm84.258-1.335c.013-.308.075-.371.16-.16.076.191.067.419-.021.507s-.15-.068-.139-.347zm-81.507-1.294c-.209-.251-.229-.403-.053-.403.32 0 .693.502.509.685-.067.067-.272-.06-.456-.282zm6.227-.198c-.227-.323-.408-.71-.404-.86s.131-.061.281.197.385.4.521.315.248.092.248.391c0 .695-.135.686-.646-.043zm36.716-.364c-.535-1.394-.247-2.353.731-2.435 1.594-.134 2.593 2.051 1.183 2.588-1.023.389-1.727.333-1.913-.153zm-44.337-.017c.182-.073.48-.073.661 0s.033.133-.331.133-.513-.06-.331-.133zm-.182-1.036c.5-.593.963-1.036 1.029-.983s-.344.538-.909 1.079c-1.029.983-1.029.983-.119-.095zm83.348.527c.013-.308.075-.371.16-.16.076.191.067.419-.021.507s-.15-.068-.139-.347zm-75.391-.816c-.02-.316-.105-.792-.188-1.058-.144-.459-.136-.46.15-.014.166.259.251.735.188 1.058-.114.587-.114.587-.15.014zm75.92-4.211c.013-.308.075-.371.16-.16.076.191.067.419-.021.507s-.15-.068-.139-.347zm-4.783-2.507c0-.154.119-.207.265-.117s.265.216.265.28-.119.117-.265.117-.265-.126-.265-.28zm-36.515-.384c-.266-.32-.25-.394.087-.394.494 0 .817.432.479.64-.131.081-.386-.03-.566-.246zm33.472-2.121c-.582-.359-.88-.648-.661-.644s.754.301 1.191.659c1.004.823.823.818-.529-.015zm-77.687-.448c.122-.735.159-.772.242-.242.054.344-.011.735-.144.868-.147.147-.186-.1-.098-.626zm43.952.073c0-.137.118-.322.262-.411.15-.093.194.013.104.249-.176.458-.366.542-.366.162zm7.094-.99c.191-.076.419-.067.507.021s-.068.15-.347.139c-.308-.013-.371-.075-.16-.16zm18.256 0c.191-.076.419-.067.507.021s-.068.15-.347.139c-.308-.013-.371-.075-.16-.16zm-75.092-.316c0-.128.198-.396.44-.595.399-.329.411-.308.123.232-.328.616-.563.767-.563.363zm51.794-1.025c.343-.327.825-.588 1.071-.579.298.011.228.104-.208.279-.361.144-.843.404-1.071.579s-.135.049.208-.279zm27.002.547c.191-.076.419-.067.507.021s-.068.15-.347.139c-.308-.013-.371-.075-.16-.16zm-13.758-1.588c.191-.076.419-.067.507.021s-.068.15-.347.139c-.308-.013-.371-.075-.16-.16zM13.24 9.997c.456-.288 1.033-.313 1.033-.045 0 .109-.316.217-.702.239-.502.029-.596-.026-.331-.194zm52.312-.159c.191-.076.419-.067.507.021s-.068.15-.347.139c-.308-.013-.371-.075-.16-.16zM38.923 7.14c-.288-.182-.28-.252.04-.375.409-.157.71.007.71.386 0 .28-.297.275-.75-.011zm7.232-.135c.437-.199 1.091-.434 1.455-.524.531-.13.505-.091-.132.199-.437.199-1.091.434-1.455.524-.531.13-.505.091.132-.199zm-8.465-.424c-.093-.15.014-.194.249-.104.458.176.542.366.162.366-.137 0-.322-.118-.411-.262zm-3.074-.466c.188-.359.545-.587.898-.574.389.014.453.07.189.167-.218.08-.623.339-.898.574-.478.408-.487.4-.189-.167zm2.268-1.4c-1.011-1.035-1.007-1.617.011-1.552.146.009.116.077-.066.15-.533.215-.387.667.515 1.598.465.48.787.872.715.872s-.6-.481-1.174-1.069zm14.659.038c.545-.599.718-.675.792-.348.098.433-.619 1.115-1.173 1.115-.174 0-.002-.345.381-.767zm-.371-2.21c-.419-.636-.542-.96-.282-.747.436.359 1.348 1.871 1.128 1.871-.057 0-.438-.506-.846-1.125zm-11.549-.115c.191-.076.419-.067.507.021s-.068.15-.347.139c-.308-.013-.371-.075-.16-.16zm2.646-.265c.191-.076.419-.067.507.021s-.068.15-.347.139c-.308-.013-.371-.075-.16-.16zm3.026-.266c.255-.067.671-.067.926 0s.046.121-.463.121-.718-.054-.463-.121zM50.19.306a3.77 3.77 0 0 1 1.191 0c.327.063.06.115-.595.115s-.923-.052-.595-.115zM41.988.042a3.77 3.77 0 0 1 1.191 0c.327.063.06.115-.595.115s-.923-.052-.595-.115z" fill="#b9a757"/><path d="M21.148 120.904c0-.135.304-2.189.675-4.564l5.322-34.149c1.135-7.325 1.09-7.208 1.872-4.801.568 1.748.568 1.748-.187 7.474-2.614 19.816-4.008 17.514 8.326 13.754l16.801-5.103 10.583-3.197 4.696-1.434c3.375-1.023 3.862 2.619-3.663-27.382l-9.102-36.356c-1.5-6.018-2.828-11.027-2.952-11.133-.269-.229-10.931.816-11.397 1.117-.662.429-2.297 3.764-2.484 5.066-.106.736-.923 5.625-1.818 10.863l-4.68 27.583c-1.132 6.735-1.069 6.631-2.169 3.611-1.082-2.971-1.078-3.002 3.659-24.579l1.861-8.731 1.872-8.754c.803-3.613 1.388-9.848.755-8.047-.178.506-.198.416-.084-.382.081-.574.406-1.526.722-2.117l.607-1.151c.131-.303 5.499-.824 9.215-.895 5.013-.096 4.236-1.007 7.145 8.381 2.267 7.317 2.88 9.488 4.755 16.857l9.145 35.794 3.044 11.876c.965 3.767 2.147 7.934 2.627 9.26l3.305 8.998c1.665 4.512 2.345 6.673 2.159 6.859-.15.15-2.686.89-5.636 1.646l-49.07 12.574c-5.276 1.356-5.904 1.469-5.904 1.059zm-4.758-3.525c-.505-.697-.523-.772-.095-.397.667.584 1.149.593 1.149.022 0-.243.065-.376.145-.296.191.191-.149 1.531-.389 1.531-.102 0-.467-.387-.81-.86zm-1.592-2.05c-.461-.582-.779-1.058-.706-1.058s.509.476.971 1.058.779 1.058.706 1.058-.509-.476-.971-1.058zm2.931.375c.013-.308.075-.371.16-.16.076.191.067.419-.021.507s-.15-.068-.139-.347zm.285-1.169c0-.364.06-.513.133-.331s.073.48 0 .661-.133.033-.133-.331zm-4.577-.992c-.761-.919-1.084-1.389-.953-1.389.073 0 .451.417.84.926.721.945.808 1.302.113.463zm4.82-.22c.013-.308.075-.371.16-.16.076.191.067.419-.021.507s-.15-.068-.139-.347zm.285-1.698c0-.364.06-.513.133-.331s.073.48 0 .661-.133.033-.133-.331zm-6.955-.463c-.329-.42-.32-.429.1-.1.255.2.463.408.463.463 0 .218-.217.078-.563-.363zm7.219-.86c0-.364.06-.513.133-.331s.073.48 0 .661-.133.033-.133-.331zm-8.013-.198c-.329-.42-.32-.429.1-.1.441.346.581.563.363.563-.055 0-.263-.208-.463-.463zm-.794-1.058c-.329-.42-.32-.429.1-.1.255.2.463.408.463.463 0 .218-.217.078-.563-.363zm9.071-.066c0-.364.06-.513.133-.331s.073.48 0 .661-.133.033-.133-.331zm-10.361-1.587c-.461-.582-.779-1.058-.706-1.058s.509.476.971 1.058.779 1.058.706 1.058-.509-.476-.971-1.058zm10.604.375c.013-.308.075-.371.16-.16.076.191.067.419-.021.507s-.15-.068-.139-.347zm.265-1.323c.013-.308.075-.371.16-.16.076.191.067.419-.021.507s-.15-.068-.139-.347zm-12.225-.838c-.329-.42-.32-.429.1-.1.441.346.581.563.363.563-.055 0-.263-.208-.463-.463zm12.511-.331c0-.364.06-.513.133-.331s.073.48 0 .661-.133.033-.133-.331zm-13.428-.86c-.504-.595-.504-.595.091-.091.559.474.716.687.504.687-.05 0-.318-.268-.595-.595zm13.693-.463c0-.364.06-.513.133-.331s.073.48 0 .661-.133.033-.133-.331zm-14.829-1.017c-.419-.588-.485-.919-.305-1.521.23-.769.23-.769.253.1.013.478.215 1.163.45 1.521.593.906.258.821-.398-.1zm15.093-.571c0-.364.06-.513.133-.331s.073.48 0 .661-.133.033-.133-.331zm.265-1.323c0-.364.06-.513.133-.331s.073.48 0 .661-.133.033-.133-.331zM5.314 99.983c0-.364.06-.513.133-.331s.073.48 0 .661-.133.033-.133-.331zm15.61-.265c0-.364.06-.513.133-.331s.073.48 0 .661-.133.033-.133-.331zm.244-1.213c.013-.308.075-.371.16-.16.076.191.067.419-.021.507s-.15-.068-.139-.347zm-15.346-.529c.013-.308.075-.371.16-.16.076.191.067.419-.021.507s-.15-.068-.139-.347zm15.61-.794c.013-.308.075-.371.16-.16.076.191.067.419-.021.507s-.15-.068-.139-.347zm-15.346-.265c.013-.308.075-.371.16-.16.076.191.067.419-.021.507s-.15-.068-.139-.347zm23.792.163c0-.141.179-.188.397-.104s.397.199.397.256-.179.104-.397.104-.397-.115-.397-.256zm1.273-.189c.191-.076.419-.067.507.021s-.068.15-.347.139c-.308-.013-.371-.075-.16-.16zm-24.8-1.032c.013-.308.075-.371.16-.16.076.191.067.419-.021.507s-.15-.068-.139-.347zm15.346 0c.013-.308.075-.371.16-.16.076.191.067.419-.021.507s-.15-.068-.139-.347zm8.223-.639c0-.364.06-.513.133-.331s.073.48 0 .661-.133.033-.133-.331zm-23.304-.419c.013-.308.075-.371.16-.16.076.191.067.419-.021.507s-.15-.068-.139-.347zm15.346-.265c.013-.308.075-.371.16-.16.076.191.067.419-.021.507s-.15-.068-.139-.347zm-15.081-.794c.013-.308.075-.371.16-.16.076.191.067.419-.021.507s-.15-.068-.139-.347zm15.377-.507c.005-.437.065-.583.132-.326s.063.615-.01.794-.127-.031-.122-.468zm19.197.222c.182-.073.48-.073.661 0s.033.133-.331.133-.513-.06-.331-.133zm-11.29-.773c.013-.308.075-.371.16-.16.076.191.067.419-.021.507s-.15-.068-.139-.347zm-23.019-.265c.013-.308.075-.371.16-.16.076.191.067.419-.021.507s-.15-.068-.139-.347zm15.367-.639c0-.364.06-.513.133-.331s.073.48 0 .661-.133.033-.133-.331zm-15.102-.419c.013-.308.075-.371.16-.16.076.191.067.419-.021.507s-.15-.068-.139-.347zm15.367-.904c0-.364.06-.513.133-.331s.073.48 0 .661-.133.033-.133-.331zm7.652.11c.013-.308.075-.371.16-.16.076.191.067.419-.021.507s-.15-.068-.139-.347zm-22.754-.265c.013-.308.075-.371.16-.16.076.191.067.419-.021.507s-.15-.068-.139-.347zm81.206.046c-5.352-1.998-7.996-2.399-8.881-1.345-1.009 1.202-.961 1.219-1.661-.559-1.653-4.193-2.471-8.129-1.747-8.407 1.607-.617 1.68-3.026.274-9.027l-1.348-5.887c-.526-2.392-.487-2.362-2.49-1.9-1.598.368-1.652.285-2.932-4.516l-2.02-7.541c-2.895-10.743-2.881-10.683-2.551-11.121.113-.15.772-.73 1.463-1.289 1.526-1.233 1.525-1.21.366-5.926l-1.752-7.329c-1.142-4.912-.941-4.63-3.291-4.63-2.61 0-2.706-.35-.599-2.176 2.035-1.763 3.105-2.587 3.364-2.587.226 0 .289.259 4.36 17.727l5.69 24.341c3.505 15.174 4.979 21.149 5.024 20.373.021-.364.456 1.065.966 3.175 1.054 4.36.891 4.106 3.533 5.503l3.543 1.874c1.795.95 2.144 1 2.535.362.236-.386.271-.331.212.331-.084.932-.64 1.082-2.056.553zM7.94 89.246c.013-.308.075-.371.16-.16.076.191.067.419-.021.507s-.15-.068-.139-.347zm15.102-.11c0-.364.06-.513.133-.331s.073.48 0 .661-.133.033-.133-.331zm9.092-1.769l-.828-2.354c-.065-.158.045-.287.244-.287.331 0 1.646 4.357 1.392 4.611-.053.053-.416-.834-.807-1.971zm-1.44 1.086c.013-.308.075-.371.16-.16.076.191.067.419-.021.507s-.15-.068-.139-.347zm-22.49-.265c.013-.308.075-.371.16-.16.076.191.067.419-.021.507s-.15-.068-.139-.347zm15.102-.375c0-.364.06-.513.133-.331s.073.48 0 .661-.133.033-.133-.331zm67.758-.661c.003-.582.057-.789.12-.46s.061.805-.005 1.058-.118-.016-.115-.598zm-82.596-.022c.013-.308.075-.371.16-.16.076.191.067.419-.021.507s-.15-.068-.139-.347zm27.76-.11c-.238-.154-.271-.258-.082-.261.173-.002.389.115.479.261.203.328.111.328-.397 0zm25.086.084c.191-.076.419-.067.507.021s-.068.15-.347.139c-.308-.013-.371-.075-.16-.16zM23.549 86.6c.013-.308.075-.371.16-.16.076.191.067.419-.021.507s-.15-.068-.139-.347zm7.429-.11c0-.364.06-.513.133-.331s.073.48 0 .661-.133.033-.133-.331zm31.444.265c.218-.141.575-.25.794-.242.262.01.217.092-.132.242-.727.313-1.145.313-.661 0zm-27.517-.179c0-.147.268-.494.595-.772.595-.504.595-.504.069.157l-.595.772c-.038.061-.069-.01-.069-.157zM8.732 86.07c.013-.308.075-.371.16-.16.076.191.067.419-.021.507s-.15-.068-.139-.347zm55.277.154c.218-.141.575-.25.794-.242.262.01.217.092-.132.242-.727.313-1.145.313-.661 0zm-40.196-.948c.013-.308.075-.371.16-.16.076.191.067.419-.021.507s-.15-.068-.139-.347zm-14.817-.529c.013-.308.075-.371.16-.16.076.191.067.419-.021.507s-.15-.068-.139-.347zm58.849.154c.09-.146.216-.265.28-.265s.117.119.117.265-.126.265-.28.265-.207-.119-.117-.265zm23.477-.529c0-.509.054-.718.121-.463s.067.671 0 .926-.121.046-.121-.463zm-67.214-.397c.005-.437.065-.583.132-.326s.063.615-.01.794-.127-.031-.122-.468zm-14.835 0c-.012-.146.143-.86.345-1.587s.37-1.085.371-.794c.004.563-.679 2.829-.717 2.381zm29.022-.048c.191-.076.419-.067.507.021s-.068.15-.347.139c-.308-.013-.371-.075-.16-.16zm-13.932-1.407c0-.364.06-.513.133-.331s.073.48 0 .661-.133.033-.133-.331zm38.852.088c.218-.092.495-.298.615-.458.141-.187.18-.149.11.106-.06.218-.336.425-.615.458-.356.043-.389.012-.11-.106zm28.362-.749c.005-.437.065-.583.132-.326s.063.615-.01.794-.127-.031-.122-.468zm-24.108-.022c.013-.308.075-.371.16-.16.076.191.067.419-.021.507s-.15-.068-.139-.347zm-42.842-.639c0-.364.06-.513.133-.331s.073.48 0 .661-.133.033-.133-.331zm12.835.353c-.326-.326-.189-.693.154-.414a2.62 2.62 0 0 0 .86.399c.426.105.396.136-.154.161-.376.017-.763-.049-.86-.146zm10.887-.534c.191-.076.419-.067.507.021s-.068.15-.347.139c-.308-.013-.371-.075-.16-.16zm-38.282-.216c-.012-.146.143-.86.345-1.587s.37-1.085.371-.794c.004.563-.679 2.829-.717 2.381zm14.826-.926c0-.364.06-.513.133-.331s.073.48 0 .661-.133.033-.133-.331zm30.865.348c.191-.076.419-.067.507.021s-.068.15-.347.139c-.308-.013-.371-.075-.16-.16zm-12.63-.503c.013-.308.075-.371.16-.16.076.191.067.419-.021.507s-.15-.068-.139-.347zm48.724-.375c0-.509.054-.718.121-.463s.067.671 0 .926-.121.046-.121-.463zm-55.194.122c-.255-.665-.18-.837.132-.301.154.266.225.539.157.607s-.198-.07-.289-.306zm8.458-.348c-.077-.125.154-.17.514-.101s.653.171.653.226c0 .205-1.032.094-1.167-.125zm-19.958-.567c0-.364.06-.513.133-.331s.073.48 0 .661-.133.033-.133-.331zm26.282.198c-.209-.585-.269-8.885-.064-8.757.109.068.198 2.088.198 4.49 0 4.366 0 4.366 2.886 4.284 1.587-.046 2.83.007 2.763.116-.223.359-5.652.235-5.783-.132zm13.513-.385c-.144-.377-.113-.407.148-.148.181.179.262.393.181.474s-.229-.065-.329-.326zm-15.739-.232c.013-.308.075-.371.16-.16.076.191.067.419-.021.507s-.15-.068-.139-.347zm-38.341-.772a3.1 3.1 0 0 1 .22-1.058c.29-.674.29.021 0 .926-.17.532-.213.558-.22.132zm14.528-.022c.013-.308.075-.371.16-.16.076.191.067.419-.021.507s-.15-.068-.139-.347zm6.186.137c-.096-.155-.118-.339-.048-.408s.197.058.283.282c.179.466.026.548-.234.126zm32.689-.112c-.18-.217-.433-.329-.562-.249s-.235.019-.235-.135c0-.438.402-.33.926.249.263.291.415.529.338.529s-.288-.177-.468-.394zm15.65-.135c0-.364.06-.513.133-.331s.073.48 0 .661-.133.033-.133-.331zm12.19-.265c0-.509.054-.718.121-.463s.067.671 0 .926-.121.046-.121-.463zm-42.872-.397c.005-.437.065-.583.132-.326s.063.615-.01.794-.127-.031-.122-.468zm-13.524-.022c.013-.308.075-.371.16-.16.076.191.067.419-.021.507s-.15-.068-.139-.347zm-10.054-.529c.013-.308.075-.371.16-.16.076.191.067.419-.021.507s-.15-.068-.139-.347zm16.648.187c0-.267.765-.954.888-.798.045.057-.136.312-.403.567s-.485.359-.485.231zm17.727.003c0-.174-.268-.425-.595-.556-.403-.162-.456-.245-.165-.256.489-.019 1.188.702.93.96-.093.094-.17.027-.17-.147zm14.707-.205c-.145-.378-.106-.388.302-.075l.579.434c.061.041-.075.075-.302.075s-.488-.195-.579-.434zm-41.673-.249c.013-.308.075-.371.16-.16.076.191.067.419-.021.507s-.15-.068-.139-.347zm43.3-.131c.094-.358.213-.478.28-.28a.68.68 0 0 1-.164.627c-.196.196-.231.093-.116-.347zm3.288.021c0-.364.06-.513.133-.331s.073.48 0 .661-.133.033-.133-.331zm-68.283-.419c.013-.308.075-.371.16-.16.076.191.067.419-.021.507s-.15-.068-.139-.347zm14.552-.529c.013-.308.075-.371.16-.16.076.191.067.419-.021.507s-.15-.068-.139-.347zm66.441-.243c.005-.437.065-.583.132-.326s.063.615-.01.794-.127-.031-.122-.468zm-12.974-.132c0-.364.06-.513.133-.331s.073.48 0 .661-.133.033-.133-.331zm-67.754-.154c.013-.308.075-.371.16-.16.076.191.067.419-.021.507s-.15-.068-.139-.347zm23.163-.253c-.255-.665-.18-.837.132-.301.154.266.225.539.157.607s-.198-.07-.289-.306zm39.75-.386c.675-.572 1.624-.711 1.624-.237 0 .161-.164.23-.364.153s-.706.03-1.124.237c-.761.376-.761.376-.136-.153zm-62.649-.419c.013-.308.075-.371.16-.16.076.191.067.419-.021.507s-.15-.068-.139-.347zm14.288 0c.013-.308.075-.371.16-.16.076.191.067.419-.021.507s-.15-.068-.139-.347zm52.938-.11c0-.364.06-.513.133-.331s.073.48 0 .661-.133.033-.133-.331zM34.4 72.819c-.011-.17-.089-.527-.173-.794-.145-.461-.137-.461.151-.012.167.26.245.617.173.794-.094.232-.136.235-.151.012zm58.249-.882c0-.509.054-.718.121-.463s.067.671 0 .926-.121.046-.121-.463zm-80.474.11c.013-.308.075-.371.16-.16.076.191.067.419-.021.507s-.15-.068-.139-.347zm14.332-.639c.014-.509-.057-1.283-.156-1.72-.144-.63-.103-.592.2.184.258.661.309 1.218.156 1.72-.22.725-.225.721-.2-.184zm47.192.577c-.074-.119.217-.165.646-.102s.78.16.78.217c0 .202-1.294.098-1.426-.114zm5.172-.312c0-.364.06-.513.133-.331s.073.48 0 .661-.133.033-.133-.331zm-3.43-.397c.005-.437.065-.583.132-.326s.063.615-.01.794-.127-.031-.122-.468zm-63.002-.287c.013-.308.075-.371.16-.16.076.191.067.419-.021.507s-.15-.068-.139-.347zm18.238-.055c-.565-.457-.568-.487-.095-.847.424-.323.445-.322.153.005-.279.312-.232.459.265.841.331.255.526.466.433.469s-.433-.208-.755-.468zm42.596-.584c0-.437.098-.794.219-.794s.166.357.102.794-.163.794-.219.794-.102-.357-.102-.794zm-24.323.352c-.04-.667.329-1.145.87-1.127.531.017.535.031.058.218a1.44 1.44 0 0 0-.709.709c-.11.28-.208.37-.218.2zm29.657-.352c0-.364.06-.513.133-.331s.073.48 0 .661-.133.033-.133-.331zm-65.881-.529c0-.364.06-.513.133-.331s.073.48 0 .661-.133.033-.133-.331zm80.194-.397c.003-.582.057-.789.12-.46s.061.805-.005 1.058-.118-.016-.115-.598zm-28.621.243c.013-.308.075-.371.16-.16.076.191.067.419-.021.507s-.15-.068-.139-.347zm10.298-.018c-.634-.334-.638-.349-.082-.352.319-.002.658.123.754.278.268.433.054.457-.672.074zm-43.371-.246c.013-.308.075-.371.16-.16.076.191.067.419-.021.507s-.15-.068-.139-.347zm2.147-.507c.005-.437.065-.583.132-.326s.063.615-.01.794-.127-.031-.122-.468zm44.969.132c0-.364.06-.513.133-.331s.073.48 0 .661-.133.033-.133-.331zm-65.373-.419c.013-.308.075-.371.16-.16.076.191.067.419-.021.507s-.15-.068-.139-.347zm11.514-4.501c-.844-2.552-1.488-4.686-1.431-4.742s.794 1.984 1.64 4.534 1.489 4.684 1.431 4.742-.796-1.982-1.64-4.534zm48.144 3.887c-.082-.132.09-.178.381-.101.618.162.696.341.148.341-.21 0-.448-.108-.53-.24zm5.451-.289c0-.364.06-.513.133-.331s.073.48 0 .661-.133.033-.133-.331zm-64.844-.154c.013-.308.075-.371.16-.16.076.191.067.419-.021.507s-.15-.068-.139-.347zm61.23.154c.09-.146.216-.265.28-.265s.117.119.117.265-.126.265-.28.265-.207-.119-.117-.265zm-40.857-.419c.013-.308.075-.371.16-.16.076.191.067.419-.021.507s-.15-.068-.139-.347zm38.639-.541c-.017-.31.178-.726.432-.926.403-.316.424-.311.161.034a3.01 3.01 0 0 0-.432.926c-.124.503-.132.501-.161-.034zm20.933-.363c0-.509.054-.718.121-.463s.067.671 0 .926-.121.046-.121-.463zm-15.356-.397c.005-.437.065-.583.132-.326s.063.615-.01.794-.127-.031-.122-.468zm-64.304-.132c0-.364.06-.513.133-.331s.073.48 0 .661-.133.033-.133-.331zm5.593-.06c-.551-.711-.646-1.011-.297-.939.193.04.442.298.555.574.249.612.099.825-.258.365zm54.293-.469c.09-.146.335-.265.545-.265s.381.119.381.265-.245.265-.545.265-.471-.119-.381-.265zm4.143-.794c0-.364.06-.513.133-.331s.073.48 0 .661-.133.033-.133-.331zm-63.755-.661c.005-.437.065-.583.132-.326s.063.615-.01.794-.127-.031-.122-.468zm4.182.132c-.156-.291-.224-.529-.151-.529s.26.238.415.529.224.529.151.529-.26-.238-.415-.529zm75.458-.132c.005-.437.065-.583.132-.326s.063.615-.01.794-.127-.031-.122-.468zM34.4 63.316c.013-.308.075-.371.16-.16.076.191.067.419-.021.507s-.15-.068-.139-.347zm42.883-.11c0-.364.06-.513.133-.331s.073.48 0 .661-.133.033-.133-.331zm-14.838-.419c.013-.308.075-.371.16-.16.076.191.067.419-.021.507s-.15-.068-.139-.347zm-48.501-1.019c-.068-.354-.024-.801.097-.992.141-.222.222.012.225.644.005 1.134-.141 1.292-.322.348zm63.074.115c0-.364.06-.513.133-.331s.073.48 0 .661-.133.033-.133-.331zm16.688-.529c0-.509.054-.718.121-.463s.067.671 0 .926-.121.046-.121-.463zm-31.79-.684c.013-.308.075-.371.16-.16.076.191.067.419-.021.507s-.15-.068-.139-.347zm14.817-.265c.013-.308.075-.371.16-.16.076.191.067.419-.021.507s-.15-.068-.139-.347zm-41.54-.794c.013-.308.075-.371.16-.16.076.191.067.419-.021.507s-.15-.068-.139-.347zm58.778-.639c0-.509.054-.718.121-.463s.067.671 0 .926-.121.046-.121-.463zm-17.482 0c0-.364.06-.513.133-.331s.073.48 0 .661-.133.033-.133-.331zm-53.852-.407c-.091-.236-.157-.569-.148-.739s.131-.024.27.325.206.681.148.739-.18-.088-.27-.325zm38.485-.806c.013-.308.075-.371.16-.16.076.191.067.419-.021.507s-.15-.068-.139-.347zm15.081 0c.013-.308.075-.371.16-.16.076.191.067.419-.021.507s-.15-.068-.139-.347zm-54.89-3.406c-1.088-3.279-1.281-3.488-2.672-2.907-.888.371-.983.356-1.991-.311-1.283-.849-1.417-1.159-.167-.387 1.113.688 1.491.688 2.648.006.882-.52.935-.523 1.17-.066.407.789 2.233 6.457 2.118 6.572-.059.059-.557-1.249-1.107-2.907zm14.409 2.613c.013-.308.075-.371.16-.16.076.191.067.419-.021.507s-.15-.068-.139-.347zm58.504-.507c.005-.437.065-.583.132-.326s.063.615-.01.794-.127-.031-.122-.468zm-18.256-.265c.005-.437.065-.583.132-.326s.063.615-.01.794-.127-.031-.122-.468zm-47.251-.661c-.56-1.386-2.542-7.597-2.542-7.964 0-.304.567-.67 1.786-1.152.982-.388 1.946-.907 2.14-1.153.327-.411.347-.406.264.067-.058.332-.565.706-1.434 1.058-2.804 1.138-2.729.888-1.431 4.793 1.345 4.046 1.354 4.066 1.612 3.408.127-.325.2-.367.2-.115 0 .761-.417 1.501-.595 1.058zm31.61-.948c.013-.308.075-.371.16-.16.076.191.067.419-.021.507s-.15-.068-.139-.347zm15.346 0c.013-.308.075-.371.16-.16.076.191.067.419-.021.507s-.15-.068-.139-.347zm21.167 0c.013-.308.075-.371.16-.16.076.191.067.419-.021.507s-.15-.068-.139-.347zm-60.59-.265c.013-.308.075-.371.16-.16.076.191.067.419-.021.507s-.15-.068-.139-.347zm58.249-.375c0-.509.054-.718.121-.463s.067.671 0 .926-.121.046-.121-.463zm-69.576.081c.257-.067.615-.063.794.01s-.031.127-.468.122-.583-.065-.326-.132zm4.448-.5c.013-.308.075-.371.16-.16.076.191.067.419-.021.507s-.15-.068-.139-.347zm46.058-.375c0-.364.06-.513.133-.331s.073.48 0 .661-.133.033-.133-.331zm-45.794-.684c.013-.308.075-.371.16-.16.076.191.067.419-.021.507s-.15-.068-.139-.347zm45.529-.639c0-.364.06-.513.133-.331s.073.48 0 .661-.133.033-.133-.331zm19.599-.265c0-.509.054-.718.121-.463s.067.671 0 .926-.121.046-.121-.463zm-35.23.11c.013-.308.075-.371.16-.16.076.191.067.419-.021.507s-.15-.068-.139-.347zM29.922 51.3c0-.364.06-.513.133-.331s.073.48 0 .661-.133.033-.133-.331zm7.123-.684c.013-.308.075-.371.16-.16.076.191.067.419-.021.507s-.15-.068-.139-.347zm37.856-.11c0-.364.06-.513.133-.331s.073.48 0 .661-.133.033-.133-.331zm-44.715-.529c0-.364.06-.513.133-.331s.073.48 0 .661-.133.033-.133-.331zm-13.602-.175c.182-.073.48-.073.661 0s.033.133-.331.133-.513-.06-.331-.133zm1.227-.494c-.241-.368-.374-.734-.295-.814s.225.111.324.422.437.67.752.797c.445.179.47.234.115.247-.251.009-.654-.285-.896-.653zm56.825-.124c0-.364.06-.513.133-.331s.073.48 0 .661-.133.033-.133-.331zm20.398-.661c.003-.582.057-.789.12-.46s.061.805-.005 1.058-.118-.016-.115-.598zm-64.604.243c.013-.308.075-.371.16-.16.076.191.067.419-.021.507s-.15-.068-.139-.347zm-9.811.041c0-.073.238-.26.529-.415s.529-.224.529-.151-.238.26-.529.415-.529.224-.529.151zm16.954-.834c.013-.308.075-.371.16-.16.076.191.067.419-.021.507s-.15-.068-.139-.347zm-6.879-.265c.013-.308.075-.371.16-.16.076.191.067.419-.021.507s-.15-.068-.139-.347zm43.656 0c.013-.308.075-.371.16-.16.076.191.067.419-.021.507s-.15-.068-.139-.347zM13.791 46.67c.005-.437.065-.583.132-.326s.063.615-.01.794-.127-.031-.122-.468zm17.167-.022c.013-.308.075-.371.16-.16.076.191.067.419-.021.507s-.15-.068-.139-.347zm43.127-.265c.013-.308.075-.371.16-.16.076.191.067.419-.021.507s-.15-.068-.139-.347zm21.207-.375c0-.509.054-.718.121-.463s.067.671 0 .926-.121.046-.121-.463zm-86.295-.419c.013-.308.075-.371.16-.16.076.191.067.419-.021.507s-.15-.068-.139-.347zm22.225 0c.013-.308.075-.371.16-.16.076.191.067.419-.021.507s-.15-.068-.139-.347zm26.723 0c.013-.308.075-.371.16-.16.076.191.067.419-.021.507s-.15-.068-.139-.347zm-41.62-.706c-.064-.182-.029-.628.078-.992.169-.576.197-.533.22.331.027 1.007-.087 1.261-.298.661zm3.433.155c.182-.073.48-.073.661 0s.033.133-.331.133-.513-.06-.331-.133zm2.927-.006c.191-.076.419-.067.507.021s-.068.15-.347.139c-.308-.013-.371-.075-.16-.16zm51.156-.348c0-.364.06-.513.133-.331s.073.48 0 .661-.133.033-.133-.331zm-49.519.161c0-.057.185-.175.411-.262.235-.09.342-.046.249.104-.155.251-.66.372-.66.158zm7.185-.425c0-.364.06-.513.133-.331s.073.48 0 .661-.133.033-.133-.331zm-1.298-.661c.003-.582.057-.789.12-.46s.061.805-.005 1.058-.118-.016-.115-.598zm-2.241-.177c.275-.568.49-.784.546-.546.051.216-.154.638-.454.939-.546.546-.546.546-.092-.393zm67.578-.087c.005-.437.065-.583.132-.326s.063.615-.01.794-.127-.031-.122-.468zm-69.372-.132c.156-.291.343-.529.415-.529s.005.238-.151.529-.343.529-.415.529-.005-.238.151-.529zm47.402 0c0-.364.06-.513.133-.331s.073.48 0 .661-.133.033-.133-.331zm-41.825-.154c.013-.308.075-.371.16-.16.076.191.067.419-.021.507s-.15-.068-.139-.347zm-10.075.05c0-.058.466-.149 1.036-.203s.98-.007.91.105c-.126.203-1.947.296-1.947.099zm-1.168-.594c-.139-.363-.101-.38.236-.1.459.381.507.534.167.534-.13 0-.311-.195-.403-.434zm11.508-.778c.013-.308.075-.371.16-.16.076.191.067.419-.021.507s-.15-.068-.139-.347zm41.275 0c.013-.308.075-.371.16-.16.076.191.067.419-.021.507s-.15-.068-.139-.347zm-53.599-.639c-.263-.291-.346-.529-.183-.529s.424.238.579.529.238.529.183.529-.316-.238-.579-.529zm76.129-.265c0-.509.054-.718.121-.463s.067.671 0 .926-.121.046-.121-.463zm-65.876-.397c.003-.582.057-.789.12-.46s.061.805-.005 1.058-.118-.016-.115-.598zm2.335.243c.013-.308.075-.371.16-.16.076.191.067.419-.021.507s-.15-.068-.139-.347zm-15.102-.243c0-.218.193-.397.429-.397.352 0 .37.072.1.397-.181.218-.374.397-.429.397s-.1-.179-.1-.397zm7.715-.132c0-.364.06-.513.133-.331s.073.48 0 .661-.133.033-.133-.331zm48.154 0c0-.364.06-.513.133-.331s.073.48 0 .661-.133.033-.133-.331zm-45.773-.529c0-.364.06-.513.133-.331s.073.48 0 .661-.133.033-.133-.331zm5.271-.154c.013-.308.075-.371.16-.16.076.191.067.419-.021.507s-.15-.068-.139-.347zm-19.834-.573c-.033-.633.342-.798.656-.29.112.182.073.234-.097.129-.157-.097-.34.033-.407.29-.093.355-.129.324-.152-.129zm60.051.044c.013-.308.075-.371.16-.16.076.191.067.419-.021.507s-.15-.068-.139-.347zm-57.15-.564c-.013-.353.216-.71.574-.898.567-.297.575-.288.167.189-.236.276-.494.68-.574.898-.097.264-.153.2-.167-.189zm17.219-.075c0-.364.06-.513.133-.331s.073.48 0 .661-.133.033-.133-.331zm63.245-.132c.005-.437.065-.583.132-.326s.063.615-.01.794-.127-.031-.122-.468zm-66.41-.529c.005-.437.065-.583.132-.326s.063.615-.01.794-.127-.031-.122-.468zm-5.338.006c-.209-.251-.229-.403-.053-.403.32 0 .693.502.509.685-.067.067-.272-.06-.456-.282zm48.191-.139c0-.364.06-.513.133-.331s.073.48 0 .661-.133.033-.133-.331zm-32.829-.154c.013-.308.075-.371.16-.16.076.191.067.419-.021.507s-.15-.068-.139-.347zm-6.615-.265c.013-.308.075-.371.16-.16.076.191.067.419-.021.507s-.15-.068-.139-.347zm-11.073-.424c.058-.173.249-.342.426-.377s.198-.002.048.072-.206.244-.123.377.014.242-.153.242-.255-.141-.198-.314zm4.322-.137c-.144-.377-.113-.407.148-.148.181.179.262.393.181.474s-.229-.065-.329-.326zm29.24-.232c.013-.308.075-.371.16-.16.076.191.067.419-.021.507s-.15-.068-.139-.347zm16.69-.11c0-.364.06-.513.133-.331s.073.48 0 .661-.133.033-.133-.331zm-38.891-.132a3.1 3.1 0 0 1 .22-1.058c.29-.674.29.021 0 .926-.17.532-.213.558-.22.132zm62.987-.397c0-.509.054-.718.121-.463s.067.671 0 .926-.121.046-.121-.463zm-32.341.265c0-.146.112-.265.249-.265s.323.119.412.265-.022.265-.249.265-.412-.119-.412-.265zm-39.881-.183c.257-.067.615-.063.794.01s-.031.127-.468.122-.583-.065-.326-.132zm5.282-.61c0-.509.054-.718.121-.463s.067.671 0 .926-.121.046-.121-.463zm36.645-.021c.094-.358.213-.478.28-.28a.68.68 0 0 1-.164.627c-.196.196-.231.093-.116-.347zm5.944-.64c.005-.437.065-.583.132-.326s.063.615-.01.794-.127-.031-.122-.468zm-50.587-.246c0-.073.238-.26.529-.415s.529-.224.529-.151-.238.26-.529.415-.529.224-.529.151zm12.456-.57c.013-.308.075-.371.16-.16.076.191.067.419-.021.507s-.15-.068-.139-.347zm6.615 0c.013-.308.075-.371.16-.16.076.191.067.419-.021.507s-.15-.068-.139-.347zm56.132-.375c0-.509.054-.718.121-.463s.067.671 0 .926-.121.046-.121-.463zm-67.469-.529c0-.509.054-.718.121-.463s.067.671 0 .926-.121.046-.121-.463zm42.557.375c.013-.308.075-.371.16-.16.076.191.067.419-.021.507s-.15-.068-.139-.347zm-37.55-.639c0-.364.06-.513.133-.331s.073.48 0 .661-.133.033-.133-.331zm6.594-.154c.013-.308.075-.371.16-.16.076.191.067.419-.021.507s-.15-.068-.139-.347zm-23.603-.309c-.329-.42-.32-.429.1-.1.255.2.463.408.463.463 0 .218-.217.078-.563-.363zm45.858-.198c.005-.437.065-.583.132-.326s.063.615-.01.794-.127-.031-.122-.468zm-37.887.028c.756-.464 1.323-.539 1.323-.176 0 .136-.208.24-.463.229a3.23 3.23 0 0 0-.992.167c-.347.122-.302.046.132-.22zm46.344-.16c0-.364.06-.513.133-.331s.073.48 0 .661-.133.033-.133-.331zm-37.063-.419c.013-.308.075-.371.16-.16.076.191.067.419-.021.507s-.15-.068-.139-.347zm62.493-.904c0-.655.052-.923.115-.595a3.77 3.77 0 0 1 0 1.191c-.063.327-.115.06-.115-.595zm-77.304.343c.193-.321.407-.526.477-.457s-.088.332-.35.583c-.456.436-.461.431-.127-.127zm9.185-.541c-.064-.557-.301-.807-1.01-1.067-.926-.339-.926-.339-.013-.194 1.005.16 1.326.495 1.332 1.394.006.835-.208.743-.309-.132zm35.701.552c.182-.073.48-.073.661 0s.033.133-.331.133-.513-.06-.331-.133zm6.722-.354c0-.364.06-.513.133-.331s.073.48 0 .661-.133.033-.133-.331zm-36.524 0c-.01-.218.207-1.23.481-2.249s.507-1.673.517-1.455-.207 1.23-.481 2.249-.507 1.673-.517 1.455zm19.306-.154c.013-.308.075-.371.16-.16.076.191.067.419-.021.507s-.15-.068-.139-.347zm-12.7-.265c.013-.308.075-.371.16-.16.076.191.067.419-.021.507s-.15-.068-.139-.347zm21.003-.657c-.285-.461.04-.558.402-.121.209.251.229.403.053.403-.155 0-.36-.127-.456-.282zm1.902.08c.167-.107.359-.492.427-.856.104-.56.128-.53.159.198.028.658-.073.859-.427.856-.297-.003-.354-.074-.159-.198zm6.749-.327c0-.364.06-.513.133-.331s.073.48 0 .661-.133.033-.133-.331zm-51.34-.177a4.34 4.34 0 0 0-.202-.794c-.133-.376-.098-.417.157-.182.181.166.271.524.202.794s-.14.352-.157.182zm2.754-.66c.292-.952.686-1.542.595-.891-.054.389.128.565.721.696.648.144.681.181.181.207a3.26 3.26 0 0 0-1.149.319c-.484.259-.518.227-.347-.331zm3.499.397c.182-.073.48-.073.661 0s.033.133-.331.133-.513-.06-.331-.133zm15.697-.244c.013-.308.075-.371.16-.16.076.191.067.419-.021.507s-.15-.068-.139-.347zm-16.739-.026c.191-.076.419-.067.507.021s-.068.15-.347.139c-.308-.013-.371-.075-.16-.16zm72.342-.613c0-.509.054-.718.121-.463s.067.671 0 .926-.121.046-.121-.463zm-35.251.187c0-.983 2.312-1.855 2.601-.981.11.334.065.342-.292.048-.507-.418-1.267-.095-1.898.807-.341.487-.41.509-.41.126zm8.752-.342c.013-.308.075-.371.16-.16.076.191.067.419-.021.507s-.15-.068-.139-.347zm-51.482-.639c.09-.146.216-.265.28-.265s.117.119.117.265-.126.265-.28.265-.207-.119-.117-.265zm51.218-.684c.013-.308.075-.371.16-.16.076.191.067.419-.021.507s-.15-.068-.139-.347zm-34.64-.639c0-.364.06-.513.133-.331s.073.48 0 .661-.133.033-.133-.331zm61.658-.397c.005-.437.065-.583.132-.326s.063.615-.01.794-.127-.031-.122-.468zm-36.152.157c-.082-.132.09-.178.381-.101.618.162.696.341.148.341-.21 0-.448-.108-.53-.24zm-43.142-.289c-.431-.185-.446-.231-.082-.246.246-.01.521.1.611.246.188.304.179.304-.529 0zm52.042-.397c.005-.437.065-.583.132-.326s.063.615-.01.794-.127-.031-.122-.468zm-27.812-.022c.013-.308.075-.371.16-.16.076.191.067.419-.021.507s-.15-.068-.139-.347zm21.278.154c.09-.146.216-.265.28-.265s.117.119.117.265-.126.265-.28.265-.207-.119-.117-.265zm-27.62-.265c-.01-.218.147-.992.35-1.72s.376-1.144.387-.926-.147.992-.35 1.72-.376 1.144-.387.926zm33.88-1.323c0-.364.06-.513.133-.331s.073.48 0 .661-.133.033-.133-.331zm-9.302-.265c0-.291.108-.529.24-.529s.178.238.101.529-.184.529-.24.529-.101-.238-.101-.529zm37.042-.655c0-1.41-.362-1.714-2.852-2.4-.913-.252-1.608-.511-1.543-.576.823-.823 4.659 1.411 4.659 2.714 0 .796-.06 1.447-.132 1.447s-.132-.533-.132-1.185zm-79.862.391c0-.364.06-.513.133-.331s.073.48 0 .661-.133.033-.133-.331zm45.334 0c-.09-.146-.037-.265.117-.265s.28.119.28.265-.053.265-.117.265-.19-.119-.28-.265zm-20.22-.419c.013-.308.075-.371.16-.16.076.191.067.419-.021.507s-.15-.068-.139-.347zm8.774-.371c-.206-.331-.699-.536-1.445-.603-1.132-.102-1.132-.102.115-.148 1.021-.038 1.301.054 1.543.506.378.706.201.909-.213.245zm17.97-.004c0-.364.06-.513.133-.331s.073.48 0 .661-.133.033-.133-.331zm-26.5-.501c0-.13.195-.311.434-.403.363-.139.38-.101.1.236-.381.459-.534.507-.534.167zm-6.329-.447c.013-.308.075-.371.16-.16.076.191.067.419-.021.507s-.15-.068-.139-.347zm32.544-.529c.013-.308.075-.371.16-.16.076.191.067.419-.021.507s-.15-.068-.139-.347zm-32.279-.529c.013-.308.075-.371.16-.16.076.191.067.419-.021.507s-.15-.068-.139-.347zm32.035-.904c0-.364.06-.513.133-.331s.073.48 0 .661-.133.033-.133-.331zm-31.735-.132c-.003-.291.147-1.125.334-1.852s.343-1.085.346-.794-.147 1.125-.334 1.852-.343 1.085-.346.794zm54.315.132c-.334-.143-.382-.227-.132-.227.218 0 .635.102.926.227.334.143.382.227.132.227-.218 0-.635-.102-.926-.227zm-65.463-.684c.013-.308.075-.371.16-.16.076.191.067.419-.021.507s-.15-.068-.139-.347zm62.95.022c-1.235-.476-.702-.485.794-.014.655.206.953.374.661.373s-.946-.163-1.455-.359zm-20.331-.661c0-.364.06-.513.133-.331s.073.48 0 .661-.133.033-.133-.331zm18.082 0c-.334-.143-.382-.227-.132-.227.218 0 .635.102.926.227.334.143.382.227.132.227-.218 0-.635-.102-.926-.227zm-1.852-.529c-.334-.143-.382-.227-.132-.227.218 0 .635.102.926.227.334.143.382.227.132.227-.218 0-.635-.102-.926-.227zm10.933.083c.26-.104.192-.314-.265-.818-.615-.678-.615-.678.105-.17.818.578.961 1.18.273 1.149-.307-.014-.345-.068-.113-.161zm-36.818-.259c-.332-.332-.18-.685.17-.395.266.221.83-.199 2.441-1.82 1.152-1.159 2.172-2.107 2.265-2.107s-.864 1.012-2.128 2.249c-2.357 2.307-2.447 2.374-2.749 2.073zm33.497-.007c.257-.067.615-.063.794.01s-.031.127-.468.122-.583-.065-.326-.132zm-24.084-.61c.069-.675 8.038-1.34 8.786-.733.138.112-1.603.204-3.87.204-3.97 0-4.138.022-4.553.595-.431.595-.431.595-.363-.066zm14.488.132c-.276-.332-.235-.397.248-.397.317 0 .509.11.426.245s.059.299.315.366c.374.098.355.128-.097.152-.31.017-.711-.148-.892-.366zm5.49.21a3.77 3.77 0 0 1 1.191 0c.327.063.06.115-.595.115s-.923-.052-.595-.115zm-3.302-.261c.257-.067.615-.063.794.01s-.031.127-.468.122-.583-.065-.326-.132zm-71.244-.337c0-.141.179-.188.397-.104s.397.199.397.256-.179.104-.397.104-.397-.115-.397-.256zm84.898-.207c-.329-.42-.32-.429.1-.1.441.346.581.563.363.563-.055 0-.263-.208-.463-.463zm-83.36.018c.191-.076.419-.067.507.021s-.068.15-.347.139c-.308-.013-.371-.075-.16-.16zm22.56-.767c.013-.308.075-.371.16-.16.076.191.067.419-.021.507s-.15-.068-.139-.347zm20.678-.375c0-.509.054-.718.121-.463s.067.671 0 .926-.121.046-.121-.463zm16.541.354c.182-.073.48-.073.661 0s.033.133-.331.133-.513-.06-.331-.133zm-1.042-.27c.191-.076.419-.067.507.021s-.068.15-.347.139c-.308-.013-.371-.075-.16-.16zm-1.588-.265c.191-.076.419-.067.507.021s-.068.15-.347.139c-.308-.013-.371-.075-.16-.16zm-34.325-.503c.013-.308.075-.371.16-.16.076.191.067.419-.021.507s-.15-.068-.139-.347zm54.45-.044c-.329-.42-.32-.429.1-.1.441.346.581.563.363.563-.055 0-.263-.208-.463-.463zm-61.405-3.485l2.761-4.366c.451-.757.897-1.2 1.191-1.18.446.029.446.037.003.152-.257.067-.66.496-.897.954-.6 1.161-4.808 7.595-4.967 7.595-.072 0 .788-1.42 1.909-3.155zm60.049 2.979c.182-.073.48-.073.661 0s.033.133-.331.133-.513-.06-.331-.133zm-52.83-.508c.013-.308.075-.371.16-.16.076.191.067.419-.021.507s-.15-.068-.139-.347zm21.013-.11c.263-.291.538-.529.611-.529s-.083.238-.347.529-.538.529-.611.529.083-.238.347-.529zm28.778.346c.257-.067.615-.063.794.01s-.031.127-.468.122-.583-.065-.326-.132zm-3.175-.265c.257-.067.615-.063.794.01s-.031.127-.468.122-.583-.065-.326-.132zm-3.841-.256c.182-.073.48-.073.661 0s.033.133-.331.133-.513-.06-.331-.133zm-3.038-.273c.257-.067.615-.063.794.01s-.031.127-.468.122-.583-.065-.326-.132zm-3.048-.256c.182-.073.48-.073.661 0s.033.133-.331.133-.513-.06-.331-.133zm-3.175-.265c.182-.073.48-.073.661 0s.033.133-.331.133-.513-.06-.331-.133zm-11.251-.507c.251-.262.514-.42.583-.35s-.136.284-.457.477c-.557.335-.563.329-.127-.127zm8.213.234c.257-.067.615-.063.794.01s-.031.127-.468.122-.583-.065-.326-.132zm-3.048-.256c.182-.073.48-.073.661 0s.033.133-.331.133-.513-.06-.331-.133zm-3.307-.272c.255-.067.671-.067.926 0s.046.121-.463.121-.718-.054-.463-.121zm-2.762-2.115c.191-.076.419-.067.507.021s-.068.15-.347.139c-.308-.013-.371-.075-.16-.16zm-21.911-2.73c-.288-.186-.302-.258-.051-.261.203-.002.267-.141.153-.335-.106-.182.065-.104.381.173.815.715.455 1.029-.484.422zm14.203-1.821c.072-.274-.062-.869-.296-1.323s-.367-.825-.294-.825.314.351.536.781c.447.865.535 1.865.164 1.865-.132 0-.181-.224-.11-.498zm-1.37-2.941c-.263-.291-.346-.529-.183-.529s.424.238.579.529.238.529.183.529-.316-.238-.579-.529zm-6.532.084c.191-.076.419-.067.507.021s-.068.15-.347.139c-.308-.013-.371-.075-.16-.16zm3.688-.259c.182-.073.48-.073.661 0s.033.133-.331.133-.513-.06-.331-.133zm.268-1.335c.329-.063.805-.061 1.058.005s-.016.118-.598.115-.789-.057-.46-.12zm-8.073-.26c.255-.067.671-.067.926 0s.046.121-.463.121-.718-.054-.463-.121z" fill="#ba6948"/><path d="M13.156 117.514L1.039 100.927c0-.156 1.378-4.511 3.063-9.677l9.881-29.369c.028 1.79-.902 6.49-2.855 14.42l-6.257 25.532c-.067.227 1.581 2.606 3.849 5.556l6.146 8.003c1.199 1.564 2.257 2.844 2.352 2.844.233.001.432-.954 4.987-23.944l4.346-21.812c.362-1.704.362-1.704-2.818-11.509-3.858-11.897-3.4-10.903-4.692-10.177-1.183.665-1.89.566-3.053-.429-.794-.679-.794-.679.331-.512 1.033.153 1.125.119 1.125-.415 0-.582 0-.582.513.043s.513.625 1.918-.137c1.765-.956 8.021-5.112 8.421-5.594.376-.453-1.794-12.033-2.255-12.033-.238 0-9.972 6.049-10.362 6.44-.06.06.084 1.244.32 2.631.639 3.751.42 4.224-.627 1.35-.808-2.219-2.105-3.95-2.594-3.462-.069.069.119 1.63.418 3.469.69 4.247.662 4.963-.112 2.802l-1.561-4.295c-.946-2.575-.946-2.575 1.694-4.574 1.452-1.099 2.639-2.038 2.639-2.087s-1.322-2.991-2.938-6.539c-6.67-14.646-7.111-15.665-6.897-15.949 3.674-4.891 5.243-5.509 9.488-3.739.028.012.298 1.268.601 2.793l3.157 16.453c-.015.188-.174-.134-.353-.716-.305-.991-.396-1.064-1.427-1.14-1.318-.097-1.367-.31-.279-1.225 1.248-1.05-.595-7.938-2.051-7.665-1.058.199-1.099.037-.246-.977.589-.7.012-4.963-.778-5.754-.207-.207-4.883 2.989-4.888 3.341-.002.187.186.782.418 1.323.397.923 2.306 5.612 5.787 14.213 1.986 4.907 1.672 4.732 4.515 2.515 3.346-2.609 3.14-2.539 5.807-1.98 3.168.665 2.956.312 3.564 5.947 1.213 11.246 1.307 10.459-1.377 11.521-1.193.472-1.786.85-1.786 1.141 0 .534 2.371 7.759 2.645 8.061.197.216.491-.896 2.228-8.419l7.049-30.692c1.055-4.636 1.256-5.3 1.28-4.233.034 1.502-.479 5.516-1.012 7.915l-3.733 17.485c-4.736 21.577-4.741 21.608-3.659 24.579 1.1 3.019 1.037 3.124 2.169-3.611l6.498-38.446c.187-1.303 1.822-4.637 2.484-5.066.465-.301 11.128-1.346 11.397-1.117.123.105 1.452 5.115 2.952 11.133L65.574 61.5c7.525 30.001 7.038 26.359 3.663 27.382l-4.696 1.434-16.536 5.004-10.848 3.296c-8.648 2.636-10.167 3.061-10.34 2.887-.131-.131.231-3.124 2.014-16.641.755-5.726.755-5.726.187-7.474-.783-2.407-.737-2.524-1.872 4.801l-5.343 34.287c-.382 2.451-.62 4.53-.528 4.622.159.159 1.989-.282 14.691-3.539l40.157-10.289c2.95-.756 5.487-1.496 5.636-1.646.186-.186-.494-2.348-2.159-6.859l-3.304-8.998c-.48-1.326-1.663-5.493-2.627-9.26l-3.044-11.876-9.145-35.794c-1.875-7.37-2.487-9.54-4.755-16.857-2.905-9.375-2.167-8.476-6.882-8.388-4.788.089-4.799.038-.317-1.437 3.564-1.173 3.579-1.195 2.29-3.448-.583-1.018-.945-1.396-1.257-1.308-.241.068-1.45.196-2.687.285-11.758.846-12.806 1.193-10.549 3.489 1.479 1.504 1.462 1.513-.925.495-1.304-.556-1.519-.459-2.419 1.095-.408.704-1.934 3.125-3.391 5.381l-3.398 5.271c-1.068 1.669-.969 1.291 1.13-4.336l3.097-8.343 1.279-3.4C33.226.518 38.28.027 43.902.246l7.805.248c2.796.026 4.361 1.998 5.321 6.704.981 4.809.9 4.676 1.955 3.224.843-1.161.654-1.161 10.382-.01l25.225 2.937c.836.104 1.548.525 3.166 1.87l2.562 2.068c.454.318.434.713-.442 9.037L94.03 82.388l-.919 8.996c.014 1.722-1.971 1.844-12.086.74-1.374-.15-1.374-.15 1.52 7.228 3.415 8.707 3.29 7.863 1.243 8.418-.909.247-2.725.783-4.035 1.193l-5.688 1.729-46.876 14.137-6.619 2.014c-.233.089-2.807-3.149-7.413-9.327zm21.49-21.51c4.612-1.441 4.367-1.056 3.199-5.019-1.283-4.354-1.226-4.233-2.005-4.233-.766 0-.86-.307-.248-.815 1.095-.909-1.047-7.22-2.689-7.924-1.02-.437-1.568-1.033-.974-1.06 1.785-.079 1.181-4.775-.761-5.922-.849-.502-.849-.502-.26-.979.994-.805-.434-5.174-1.877-5.741-1.164-.457-1.26-.869-.366-1.572.689-.542.665-.669-1.331-7.115-.453-1.463-.83-1.681-2.913-1.681-1.231 0-1.33-.574 1.849 10.721l1.723 6.212 2.135 7.805c1.718 6.244 1.738 6.333 1.337 6.085-.146-.09-.266-.067-.268.05s-.3 2.585-.661 5.484-.658 5.679-.658 6.18c0 1.075-.295 1.104 4.767-.477zm12.166-3.944l16.603-5.455c5.633-1.814 5.217-1.149 3.875-6.192l-5.791-21.972-9.007-34.232c-.784-2.996-.397-2.781-5.105-2.824-4.919-.044-3.901-1.875-6.783 12.185l-3.967 19.182c-3.755 18.072-3.616 15.649-1.302 22.585 2.386 7.15 2.031 6.759 5.217 5.751 3.038-.961 2.932-.842 2.442-2.737-.533-2.058-.522-2.373.096-2.704.727-.389 1.168.149 1.602 1.956.451 1.88.411 1.86 2.769 1.336 1.965-.437 1.965-.437 1.915-4.714-.08-6.917 1.731-6.709 1.935.221.132 4.498.132 4.498 2.978 4.573 3.197.084 3.019.194 3.63-2.231.538-2.135 2.255-1.706 2.002.501-.159 1.39-.159 1.39.999 2.25 1.464 1.087 1.332 1.134 2.008-.719.76-2.084 2.544-1.917 2.016.189-.942 3.753-1.194 3.892-4.128 2.288-2.57-1.404-2.151-1.376-9.044-.624-4.569.498-5.484.686-8.927 1.829l-4.261 1.371c-.489.112 2.531 9.755 3.055 9.755.154 0 2.483-.707 5.175-1.57zm44.251-3.456l2.975-28.84 3.579-38.891c-.205-.127-3.416-1.085-7.134-2.129-6.893-1.936-7.945-2.299-5.835-2.015.655.088 3.215.284 5.689.435s4.885.338 5.358.415c1.389.226 1.028-.392-1.262-2.156-2.09-1.61-2.09-1.61-6.4-1.934L73.11 12.254l-11.265-.91c-1.292 0-3.189 2.768-2.992 4.366.256 2.077.448 2.051 2.914-.403 2.247-2.236 2.247-2.236 5.089-1.629l6.27 1.319c3.428.713 3.428.713-.391.787-4.803.093-4.525-.982-2.514 9.739L74.979 50.9l1.991 10.716 2.139 11.292c2.124 10.897.832 6.122-3.985-14.731l-5.69-24.341-4.36-17.727c-.259 0-1.329.823-3.364 2.587-2.107 1.826-2.011 2.176.599 2.176 2.35 0 2.149-.282 3.291 4.63l1.752 7.329c1.159 4.716 1.161 4.693-.366 5.926-.691.558-1.35 1.138-1.463 1.289-.33.438-.344.378 2.551 11.121l2.02 7.541c1.28 4.801 1.334 4.884 2.932 4.516 2.002-.462 1.963-.491 2.49 1.9l1.348 5.887c1.406 6.002 1.333 8.411-.274 9.027-.723.278.095 4.214 1.747 8.407.7 1.777.652 1.761 1.661.559.884-1.053 3.529-.653 8.881 1.345 1.748.652 1.96.483 2.183-1.743zM76.517 75.931c.384-.374-.386-2.938-.882-2.938-1.133 0-1.557.823-1.136 2.208.388 1.278 1.167 1.56 2.019.731zm-1.168-3.968c.398-.252.195-2.281-.257-2.56-.591-.365-1.823.186-1.823.816 0 1.642.964 2.451 2.079 1.745zm-.587-4.099c.151-.126-.59-2.809-.776-2.809-.443 0-1.775 1.092-1.775 1.456 0 1.382 1.536 2.196 2.551 1.353zm-9.289-31.768c.505-.211.918-.453.918-.539 0-.809-1.195-4.634-1.448-4.634-1.944 0-2.17.535-1.426 3.373.622 2.37.612 2.361 1.956 1.799zm-.784-7.62c-.243-1.845-.474-2.034-1.681-1.377-.978.533-1.191 1.231-.736 2.418.478 1.245 2.598.333 2.417-1.041zm-1.847-2.877c.89-.224 1.153-.404 1.063-.728-.066-.236-.198-.817-.293-1.29-.17-.846-.197-.86-1.637-.86-1.571 0-1.694.362-.865 2.542.28.735.203.72 1.731.335zm-45.047 37.67l-1.677-2.977-2.676-4.895c-2.244-4.093-2.244-4.091.032-4.096 1.455-.003 1.455-.003 3.368 6.148 2.666 8.575 2.715 8.87.953 5.82zM4.19 33.549C-.463 21.921-.463 21.921.524 20.317c.543-.883 1.051-1.501 1.13-1.373 1.395 2.257 7.693 24.85 7.259 26.042-.038.105-2.164-5.041-4.723-11.436zm15.239 11.434c-1.292-.165-2.427-2.73-1.862-4.21.32-.838 2.594.461 2.893 1.651.151.6 1.014.935 2.413.935 2.101 0 2.944-5.387.921-5.882-1.712-.419-1.779-.474-1.058-.875 2.719-1.514 5.04.967 4.285 4.582-.675 3.231-2.982 4.386-7.59 3.798zm4.744-20.705c-5.708-11.038-7.15-16.625-3.605-13.973 2.004 1.5 1.734.655 3.634 11.358.644 3.628.641 3.91-.029 2.614z" fill="#0d0a08"/></svg>