<?xml version="1.0" encoding="UTF-8"?>
<svg width="800px" height="800px" version="1.1" viewBox="0 0 496 496" xml:space="preserve" xmlns="http://www.w3.org/2000/svg">

<path d="m71.6 293 4.8 0.6c18.6-1.7 83.8-8.8 88.3-9.3 9.6-0.9 10.2-3.2 10.2-3.2v-54.5l-78.9 3.9v19s0 16.4-14.8 18.3l-5.6 0.6s-4 1.2-4 5.6v19z" fill="#383838"/>
<path d="m71.6 293 4.8 0.6c18.6-1.7 83.8-8.8 88.3-9.3 9.6-0.9 10.2-3.2 10.2-3.2l-74.1-50-4.8-0.6v19s0 16.4-14.8 18.3l-5.6 0.6s-4 1.2-4 5.6v19z" fill="#2B2A2A"/>
<path d="m76.4 293s87.8-8.2 93.1-8.7c9.6-0.9 10.2-3.2 10.2-3.2v-55.7s-2.8 1.5-8.6 1.5l-70.2 3.6v19s0 16.4-14.8 18.3l-5.6 0.6s-4 1.2-4 5.6c-0.1 4.3-0.1 19-0.1 19z" fill="#424242"/>
<polygon points="209 313 76.3 277 76.3 274 214 308" fill="#C9C9C5"/>
<polygon points="201 308 76.3 277 76.3 287 201 320" fill="#191919"/>
<polygon points="238 298 101 270 76.3 274 209 307" fill="#F2F2ED"/>
<polygon points="119 302 130 374 137 377 146 374 155 311 138 307" fill="#3A3A3A"/>
<polygon points="119 302 130 374 137 377 138 307" fill="#191919"/>
<polygon points="132 393 130 374 137 377 146 374 143 394 137 395" fill="#AF9651"/>
<polygon points="132 393 130 374 137 377 137 395" fill="#99833D"/>
<polygon points="334 281 344 353 352 356 361 353 369 290 352 286" fill="#3A3A3A"/>
<polygon points="334 281 344 353 352 356 352 286" fill="#191919"/>
<polygon points="346 372 344 353 352 356 361 353 358 373 352 374" fill="#AF9651"/>
<polygon points="346 372 344 353 352 356 352 374" fill="#99833D"/>
<polygon points="170 400 196 410 218 408 218 414 195 418 170 407" fill="#3A3A3A"/>
<polygon points="218 408 192 397 170 400 196 410" fill="#424242"/>
<g fill="#262626">
	<polygon points="170 400 196 410 195 418 170 407"/>
	<polygon points="188 404 184 402 184 321 188 321"/>
</g>
<polygon points="193 404 188 404 188 321 193 321" fill="#3A3A3A"/>
<polygon points="200 407 195 405 195 325 200 324" fill="#262626"/>
<polygon points="204 407 200 407 200 324 204 324" fill="#3A3A3A"/>
<polygon points="207 322 71.6 286 71.6 293 207 328" fill="#2B2A2A"/>
<path d="m175 226 115-4.3s25.5 0.9 37.9 1.5c0 0 64.4 1.4 64.4 6.9v19.8l-174-11.4-44-12.5z" fill="#232323"/>
<path d="m172 227 115-4.3s25.5 0.9 37.8 1.5c0 0 64.4 1.4 64.4 6.9v19.8l-174-11.4-43.9-12.5z" fill="#471518"/>
<g fill="#191919">
	<polygon points="101 231 232 249 232 297 101 270"/>
	<path d="m355 81.8c-0.7-1.4-5.1-1.4-5.1-1.4l-65.3-3.2-113 134 54.9 8.1 127-134s2.2-1.9 1.5-3.5z"/>
</g>
<path d="m308 224s30.5-15 44.3-27c0 0 52.4-35.5 17-56-13.1-7.6-47-8.1-46.5-18.8 0.2-5.4 30.9-37.2 30.9-37.2l-65.7-2.3-108 126 50.7 15.8 77.8-0.3z" fill="#282828"/>
<path d="m227 236 68.4-4.5s9.4-1.4 16.8 1.4l15.5 0.6s24.4 0.6 35.1-0.3c13.9-1.2 2 16.3 2 16.3l-56.4 1.7-81.4-15.2z" fill="#C55F2E"/>
<path d="m242 242 53.6-3.7s9.4-1.4 16.8 1.4l15.5 4.7s0.2 2.2 13.9-0.4 2 13.3 2 13.3l-35.2 0.6-66.6-15.9z" fill="#F78F50"/>
<polygon points="272 123 300 199 301 205 316 245 324 246 307 203 304 198 274 122" fill="#04090D"/>
<polygon points="274 122 302 198 302 204 318 244 325 245 308 203 305 197 278 122" fill="#585858"/>
<path d="m201 327 6.1 1.6c23.6-2.2 106-11.2 112-11.7 12.2-1.2 12.9-4.1 12.9-4.1l-93.7-63.2-6.1-0.8v24.1s0 20.7-18.8 23.1l-7 0.8s-5.1 1.6-5.1 7 0.1 23.2 0.1 23.2z" fill="#2B2A2A"/>
<path d="m336 243s-0.4-1.3-1.7-2c0 0-1.4-1.9 0.7-2.4 0 0 8-2 16.2-2.5 0 0 39.4-2.5 40.2-5.5l-0.1 53.5s-0.4 3.5-28.4 6.8c0 0-22.5 2.8-26.9 5.9v-53.8z" fill="#232323"/>
<path d="m337 243s-0.4-1.3-1.7-2c0 0-1.4-1.9 0.7-2.4 0 0 8-2 16.2-2.5 0 0 39.4-2.5 40.2-5.5l-0.1 53.5s-0.4 3.5-28.4 6.8c0 0-22.5 2.8-26.9 5.9v-53.8z" fill="#3A3A3A"/>
<path d="m201 327 6.1 1.6c23.6-2.2 106-11.2 112-11.7 12.2-1.2 12.9-4.1 12.9-4.1l5.9-70.1-5.9 1.2-99.7 4.9v24.1s0 20.7-18.8 23.1l-7 0.8s-5.1 1.6-5.1 7 0 23.2 0 23.2z" fill="#383838"/>
<polygon points="238 324 252 416 262 420 272 416 287 308 262 320" fill="#3A3A3A"/>
<polygon points="238 324 252 416 262 420 262 317" fill="#191919"/>
<path d="m207 328s111-10.3 118-11c12.2-1.2 12.9-4.1 12.9-4.1v-70.4s-3.5 1.9-10.9 1.9l-88.8 4.5v24.1s0 20.7-18.8 23.1l-7 0.8s-5.1 1.6-5.1 7 0 24.1 0 24.1z" fill="#424242"/>
<polygon points="232 249 101 231 156 228 302 245" fill="#2D2D2D"/>
<path d="m160 232 12.3-26.2s41.1-8.2 73.7 9l-9 27.8-77-10.6z" fill="#191919"/>
<polygon points="254 441 252 416 262 420 272 416 268 441 261 443" fill="#AF9651"/>
<polygon points="254 441 252 416 262 420 261 443" fill="#99833D"/>
<polygon points="162 406 166 407 177 405 177 407 165 409 162 408" fill="#AF9651"/>
<polygon points="177 405 174 404 162 406 166 407" fill="#BCA15C"/>
<polygon points="162 406 166 407 165 409 162 408" fill="#99833D"/>
<polygon points="178 412 181 414 193 412 193 414 181 416 178 414" fill="#AF9651"/>
<polygon points="193 412 190 411 178 412 181 414" fill="#BCA15C"/>
<polygon points="178 412 181 414 181 416 178 414" fill="#99833D"/>
<polygon points="170 409 173 410 185 409 185 410 173 412 170 411" fill="#AF9651"/>
<polygon points="185 409 182 408 170 409 173 410" fill="#BCA15C"/>
<polygon points="170 409 173 410 173 412 170 411" fill="#99833D"/>
</svg>
