<?xml version="1.0" encoding="UTF-8"?>
<svg version="1.0" viewBox="0 0 356.94 368.63" xmlns="http://www.w3.org/2000/svg" xmlns:xlink="http://www.w3.org/1999/xlink"><defs><linearGradient id="b"><stop style="stop-color:#3f1a1c" offset="0"/><stop style="stop-color:#d88e27" offset="1"/></linearGradient><linearGradient id="a"><stop style="stop-color:#fff" offset="0"/><stop style="stop-color:#fff;stop-opacity:0" offset="1"/></linearGradient><linearGradient id="c"><stop style="stop-color:#fff" offset="0"/><stop style="stop-color:none" offset="1"/></linearGradient><linearGradient id="v" x1="-177" x2="-177" y1="454.63" y2="648.56" gradientTransform="matrix(1.3775 0 0 .49378 409.59 61.303)" gradientUnits="userSpaceOnUse" xlink:href="#a"/><linearGradient id="u" x1="-247.43" x2="-215.86" y1="411.57" y2="405.36" gradientTransform="matrix(.71229 0 0 .66532 339.96 -15.46)" gradientUnits="userSpaceOnUse" xlink:href="#a" spreadMethod="reflect"/><linearGradient id="t" x1="-98.593" x2="-332.37" y1="289.05" y2="246.84" gradientTransform="matrix(.68229 .17498 .015167 .25494 230.98 213.46)" gradientUnits="userSpaceOnUse" xlink:href="#a"/><linearGradient id="s" x1="-177" x2="-177" y1="454.63" y2="648.56" gradientTransform="matrix(.71229 0 0 .66532 452.67 -72.118)" gradientUnits="userSpaceOnUse" xlink:href="#a"/><linearGradient id="r" x1="-177" x2="-177" y1="454.63" y2="648.56" gradientTransform="matrix(.71229 0 0 .49378 220.59 31.172)" gradientUnits="userSpaceOnUse" xlink:href="#a"/><linearGradient id="q" x1="-177" x2="-177" y1="454.63" y2="648.56" gradientTransform="matrix(.71229 0 0 .66532 341.8 -15.667)" gradientUnits="userSpaceOnUse" xlink:href="#a"/><linearGradient id="p" x1="-29.718" x2="-7.9826" y1="362.42" y2="362.42" gradientTransform="matrix(.71229 0 0 .66532 341.13 -17.549)" gradientUnits="userSpaceOnUse" xlink:href="#a" spreadMethod="reflect"/><linearGradient id="o" x1="-98.593" x2="-332.37" y1="289.05" y2="246.84" gradientTransform="matrix(.71229 0 0 .66532 290.9 24.882)" gradientUnits="userSpaceOnUse" xlink:href="#a"/><linearGradient id="n" x1="53.321" x2="61.129" y1="328.71" y2="328.71" gradientTransform="matrix(.71229 0 0 .85994 272.63 -43.255)" gradientUnits="userSpaceOnUse" xlink:href="#c" spreadMethod="reflect"/><linearGradient id="m" x1="53.321" x2="61.129" y1="328.71" y2="328.71" gradientTransform="matrix(.71229 0 0 .66532 341.7 -16.289)" gradientUnits="userSpaceOnUse" xlink:href="#c" spreadMethod="reflect"/><linearGradient id="l" x1="185.75" x2="187.57" y1="318.02" y2="299.96" gradientTransform="matrix(.45507 0 0 .66532 193.28 -5.2095)" gradientUnits="userSpaceOnUse" xlink:href="#b"/><linearGradient id="k" x1="389.42" x2="665.18" y1="225.05" y2="217.48" gradientTransform="matrix(.71229 0 0 .66532 -34.819 -109.1)" gradientUnits="userSpaceOnUse"><stop style="stop-color:#fff" offset="0"/><stop style="stop-color:#fff;stop-opacity:0" offset="1"/></linearGradient><linearGradient id="j" x1="-327.64" x2="-179.93" y1="274.21" y2="266.13" gradientTransform="matrix(.71229 0 0 .66532 340.12 -15.34)" gradientUnits="userSpaceOnUse"><stop offset="0"/><stop offset=".5"/><stop style="stop-color:#fff" offset="1"/></linearGradient><linearGradient id="i" x1="305.58" x2="511.64" y1="343.24" y2="139.18" gradientTransform="matrix(.71229 0 0 .66532 -34.819 -109.1)" gradientUnits="userSpaceOnUse"><stop style="stop-color:#fff" offset="0"/><stop style="stop-color:#fff;stop-opacity:0" offset="1"/></linearGradient><linearGradient id="h" x1="-84.706" x2="-66.626" y1="290.29" y2="286" gradientTransform="matrix(.71229 0 0 .66532 341.67 -17.856)" gradientUnits="userSpaceOnUse" spreadMethod="reflect"><stop offset="0"/><stop style="stop-color:#fff" offset="1"/></linearGradient><linearGradient id="g" x1="72.357" x2="567.57" y1="335.22" y2="325.22" gradientTransform="matrix(.71229 0 0 .66532 -34.819 -109.1)" gradientUnits="userSpaceOnUse"><stop style="stop-color:#e04422" offset="0"/><stop style="stop-color:#6e1d05;stop-opacity:.28866" offset="1"/></linearGradient><linearGradient id="f" x1="185.75" x2="187.57" y1="318.02" y2="299.96" gradientTransform="matrix(.71229 0 0 .66532 195.45 -30.492)" gradientUnits="userSpaceOnUse" xlink:href="#b"/><linearGradient id="e" x1="185.75" x2="187.57" y1="318.02" y2="299.96" gradientTransform="matrix(.6077 0 0 .66532 195.96 -18.516)" gradientUnits="userSpaceOnUse" xlink:href="#b"/><linearGradient id="d" x1="332.48" x2="587.33" y1="503.81" y2="372.53" gradientTransform="matrix(.71229 0 0 .66532 -34.819 -109.1)" gradientUnits="userSpaceOnUse" xlink:href="#b"/></defs><g transform="translate(-29.091 -35.579)"><path d="m349.28 37.52-84.868 1.0918-107.53 98.261-14.026 2.1836s-6.0834-2.6994-10.894.31343c-4.811 3.0129-2.7977 3.8226-8.3498 11.738-5.5521 7.9155-4.133 16.062-16.99 15.243-12.857-.81884-45.585 4.3672-45.585 4.3672s5.5919 19.501 1.1689 26.203c-12.818 19.422-23.891 7.9934-28.097 15.87-1.208 2.262-4.4848 9.8887-4.6307 16.884-.12443 5.9656-.079661 6.7088 3.5066 8.7343 15.353 8.6717 58.443 25.111 58.443 25.111s3.7637 54.212 6.0121 74.513c.39616 3.577 9.6431 6.4305 11.521 1.9119 7.1419-17.186 3.5066-69.718 3.5066-69.718l47.045 21.757-1.4597 4.2888v60.048l-9.3509 2.1836-1.1689 8.7343 26.884 14.193s9.267 3.12 12.774-.42835c3.5066-3.5483 1.2528-13.765 1.2528-13.765s-.748 11.357-2.1252-5.8873c-3.8827-7.2977-3.9554-40.149-3.3836-63.089 9.9675-8.8975 20.704-5.2657 20.704-5.2657l6.8454 11.231s4.5513 76.813 5.011 92.253c4.9676 8.1439 17.365 3.5104 17.365 3.5104l5.8443-94.986s5.8443-10.918 14.026-14.193 14.026-4.3672 14.026-4.3672l-1.1689-2.1836 40.91-5.4589s-1.1688-6.5507 3.5066-12.01c4.6754-5.459 8.0562-4.8686 9.0153-3.0403 7.4221 14.148 7.3487 64.18 7.3487 64.18l9.1831 4.0955 8.3498-4.0955 3.5066-79.701 4.6754-7.6425 25.715-6.5507 6.219-15.013.79416-45.035-143.77-9.8261 49.635-12.945s64.914-23.084 74.264-35.094 19.871-21.836 9.3509-26.203c-10.52-4.3672-46.603-13.512-63.118-19.652 18.752-11.231 39.283-31.662 38.114-32.754z" style="fill-rule:evenodd;stroke-width:.6884px;stroke:#000"/><path d="m103.82 171.56 114.14 37.545 96.569-5.9511s5.6374-.58506 6.2638-4.6806c.62637-4.0955 5.011-9.3612 12.528-11.701 7.5165-2.3403 49.484-9.3612 50.11-11.702.62638-2.3403-1.8791-6.4358-1.8791-6.4358s-41.341-13.457-88.945-12.872c-47.605.58506-98.587 5.2656-188.79 15.797z" style="fill-rule:evenodd;fill:url(#d)"/><path d="m202.94 180.51 106.21.5459s15.457 4.913 15.457 9.2802-4.4876-2.1836-13.463-1.6377c-8.9752.54589-96.732 4.3672-100.72 4.3672-3.989 0-11.468-2.7295-11.468-2.7295l3.989-9.8261z" style="fill-rule:evenodd;fill:url(#e)"/><path d="m203.63 168.53 124.48.54588s18.117 4.913 18.117 9.2802c0 4.3671-5.2599-2.1836-15.78-1.6377-10.52.54589-113.38 4.3671-118.05 4.3671-4.6754 0-13.442-2.7295-13.442-2.7295l4.6754-9.8261z" style="fill-rule:evenodd;fill:url(#f)"/><path d="m98.423 216.61s-53.485.02407-55.747 2.3403c-1.0554 1.0806 1.8791 6.1433 1.8791 6.1433l112.75 43.881s-.93956-2.194 0-4.9731c.93956-2.7791 3.7582-4.6806 3.7582-4.6806s18.165-1.9015 25.681-4.0955c7.5165-2.194 4.3846-4.6806 4.3846-4.6806l-92.704-33.934z" style="fill-rule:evenodd;fill:#fff"/><path d="m336.59 44.544h-65.123l-115.24 97.27 61.661 11.122s64.402-4.4904 90.908-15.795c26.346-11.236 25.798-20.278 29.834-48.876 1.8525-13.125-47.825-19.96-46.807-25.662 1.0176-5.7027 41.72-15.207 44.772-18.059z" style="fill-rule:evenodd;fill:url(#g)"/><path d="m293.74 205.2-33.06-135.87 41.325 135.87h-8.2651z" style="fill-rule:evenodd;fill:url(#h);stroke-width:.6884px;stroke:#000"/><path d="m268.82 46.677-105.77 94.762-20.866-.67208s23.025-7.3928 23.025-10.081c0-2.6883 100.01-91.402 100.01-91.402l3.5976 7.3928z" style="fill-rule:evenodd;fill:url(#i);stroke-width:.6884px;stroke:#000"/><path d="m193.28 202.28-93.71-29.967s22.793-13.094 23.81-20.698c1.0176-7.6036 3.0527-20.91 9.158-18.059 6.1053 2.8514-2.3101 4.54 7.8654 3.5896 10.176-.95045 32.837-2.6391 39.959 5.915 7.1229 8.5541 13.759 7.9924 23.404 7.6036 9.158-.3691-.76316 16.378-3.4956 29.799-1.393 12.74-6.9911 21.816-6.9911 21.816z" style="fill-rule:evenodd;fill:url(#j)"/><path d="m347.96 35.923-83.464 2.6883 2.1586 6.7207 83.464-3.3604-2.1586-6.0487z" style="fill-rule:evenodd;fill:url(#k);stroke-width:.6884px;stroke:#000"/><path d="m198.51 193.82 79.531.5459s11.575 4.913 11.575 9.2802c0 4.3671-3.3605-2.1836-10.081-1.6377-6.7209.54588-72.437 4.3671-75.424 4.3671-2.9871 0-8.5879-2.7295-8.5879-2.7295l2.9871-9.8261z" style="fill-rule:evenodd;fill:url(#l)"/><g transform="matrix(.27652 0 .4402 .14729 -185.56 159.91)"><rect x="288.57" y="385.22" width="95.714" height="17.143" rx="35.607" ry="38.906" style="fill:#000001"/><rect x="288.57" y="413.22" width="95.714" height="17.143" rx="35.607" ry="38.906" style="fill:#000001"/><rect x="288.57" y="443.22" width="95.714" height="17.143" rx="35.607" ry="38.906" style="fill:#000001"/><rect x="288.57" y="473.22" width="95.714" height="17.143" rx="35.607" ry="38.906" style="fill:#000001"/><g transform="translate(0,116)"><rect x="288.57" y="385.22" width="95.714" height="17.143" rx="35.607" ry="38.906" style="fill:#000001"/><rect x="288.57" y="413.22" width="95.714" height="17.143" rx="35.607" ry="38.906" style="fill:#000001"/><rect x="288.57" y="443.22" width="95.714" height="17.143" rx="35.607" ry="38.906" style="fill:#000001"/><rect x="288.57" y="473.22" width="95.714" height="17.143" rx="35.607" ry="38.906" style="fill:#000001"/></g></g><path d="m219.36 403.59c-12.559-10.948-4.2085-33.739-8.0392-49.343-1.5034-12.853-.28387-38.156-3.4416-43.544-6.8797 16.542-14.304 33.506-20.496 49.911 4.0166 4.8907 9.7373 26.513-9.5109 22.988-8.6822 2.3972-3.2994-14.44-1.1937-2.5839 17.951 2.8328 12.722-15.324 3.9868-20.539-.00503-12.564-.18694-32.385 3.5583-40.22-2.96-3.432-8.1577-38.953 10.935-28.656 13.679-1.1794 16.628 9.0282 14.122 12.131 5.4534 4.4748 1.7754 25.318 3.9458 35.409 1.2116 19.816 1.7763 39.672 3.339 59.466 24.401 12.664 14.814-23.156 17.795-35.842 1.5816-20.104 1.1359-40.849 3.5857-60.69 8.9773-13.266 26.138-18.713 40.821-21.981 33.739-.48338 21.109-16.045 39.772-21.493 11.641 21.189 9.1606 57.231 9.6404 69.554 20.612 8.3495 12.619-20.034 15.376-31.234 1.9328-17.389-.3328-35.536 4.7418-52.406 4.1311-11.827 27.303-3.8563 26.715-16.042.11262-17.045.22529-34.091.33795-51.136 18.404-8.194-16.596-12.108-24.574-14.537-20.292-3.6324-40.952-5.4555-61.613-5.4433-3.4719 4.9632 1.1715-6.0345 9.8513-1.5908 28.916 1.1124 59.391 2.3968 85.703 14.57 1.5832 13.391.26123 28.261.85425 42.121 2.4062 8.5509-5.3689 5.024-8.5766 23.241-9.5752 4.8515-29.378 3.8426-28.049 18.298-1.581 25.64-2.547 51.332-4.9952 76.91-31.225 10.061-16.824-22.266-19.979-36.319-2.792-9.017.08887-26.456-10.046-30.239-2.9778 14.04-12.695 19.585-29.316 18.037-16.814 2.7269-42.429 8.873-44.638 27.962-2.6626 30.626-1.8567 61.624-5.6165 92.08-4.4779 1.3606-10.456 2.5399-14.998 1.1624zm-33.888-52.66c8.0434-16.659 14.427-34.145 21.423-51.248-12.621-11.476-15.546 18.453-21.902 25.782-.58733 3.2003-3.393 38.524.47891 25.466zm3.7181-.88814c5.3542-16.141-8.1304 19.175 0-1e-5v1e-5zm-3.6748-35.868c3.6359-6.3157 13.865-25.812-.55414-18.944-.04415 3.2636-1.5989 25.028.55414 18.944zm198.67-114.69c.40503-7.6464-1.6796 25.984-.41922 22.277.33354-7.4209.37926-14.85.41922-22.277zm-221.09 169.12c8.1563-1.8634-16.422-2.5368-4.5422-2.9046 5.187-2.3568 16.955 3.2878 4.5422 2.9046zm-13.89-4.0365c-3.1863-10.406 13.236-9.484 8.4449-20.05-.41084-18.164-.74807-36.333-1.6782-54.482-12.643-3.3932-31.261-16.257-40.18-13.115-1.6821 21.134-1.0036 42.741-4.1319 63.579-23.292 8.8918-18.003-18.754-19.412-31.894-4.654-14.792 5.599-38.706-8.6943-48.061-16.708-7.8095-34.9-13.39-50.906-22.13-6.2284-15.45-3.0594-35.568 19.19-32.582 24.721-4.7506-3.9728-40.975 22.735-37.491 13.529-3.291 33.471 2.4285 43.773-5.4931 5.949-12.772 7.8994-36.785 29.052-26.26 20.118-.22442 30.057-21.685 45.218-31.748 24.908-22.387 49.428-45.151 74.508-67.371 27.869-.46182 55.739-.92588 83.601-1.7033-.0292 14.539-22.251 22.899-32.38 33.49-8.3865-4.0906-6.7925-5.5399-.65757-2.8947 10.475-9.1096 22.092-17.529 31.67-27.207-14.765-2.7813-32.131.1521-47.875-.38626-9.6634 2.6392-35.656-5.494-33.609 8.025-11.697 16.23-30.111 28.087-44.407 42.602-17.996 16.139-35.78 32.501-54.285 48.132-15.888 6.2987-42.895-10.367-43.123 14.778-2.5121 24.605-32.265 15.035-50.219 18.895-13.832-2.5859-11.863 6.893-9.3975 16.663 3.6175 20.119-21.984 20.652-31.87 25.724-1.293 6.7924-4.9616 23.682 6.2869 26.069 16.888 7.5915 34.87 13.35 51.04 22.143 3.1156 24.951 2.5224 50.281 4.9385 75.336 21.343 9.8052 11.047-24.151 14.76-35.326 1.2776-8.7569.75745-34.095.46685-31.387 18.424 4.8275 34.057 16.323 52.655 20.709-1.1164-13.204 3.1537-25.885-3.8554-31.297-34.351-13.238-69.065-26.09-103.58-38.98-25.762-2.2939 8.0755 10.202 15.474 12.719 29.373 11.543 59.064 22.455 88.177 34.531 3.5775 17.954-21.446-3.2482-30.001-4.0122-12.498-7.1045 30.119 11.74 25.786 8.0286-30.131-12.265-60.714-23.66-90.616-36.354 31.324 10.668 61.529 24.218 92.533 35.662-7.9344-8.3863-30.125-12.642-43.401-19.316-23.451-9.5267-47.749-17.474-70.79-27.701-5.1969-16.771 19.701-2.7217 30.906-.27294 28.992 11.698 58.783 21.499 87.553 33.368 10.247 8.4437 3.2588 24.995 3.6644 36.374-15.359-3.4275-3.1071 27.155-6.5127 38.205-2.2557 8.7816 6.1587 23.621-6.9863 26.263-1.0213 7.3832-2.8482 10.986-3.8622 6.2197zm24.428-234c30.863-27.184 61.106-54.97 91.611-82.502-2.6838-12.566-17.649 12.107-24.684 15.123-26.357 24.354-53.627 48.508-79.785 72.676 5.5061 2.368 9.3148-2.2145 12.858-5.297zm51.787-52.085c8.3502-7.698 16.814-15.287 25.286-22.867-10.815 10.465-21.876 20.712-33.477 30.42 2.7304-2.5175 5.4608-5.0351 8.1913-7.5526zm-57.377 244.72c1.9141-8.5571-2.8449-26.755 3.7716-30.114 1.2429 18.243 1.1309 36.593.75767 54.87-8.2426 15.834-3.5547-19.43-4.5292-24.756zm3.0628-21.632c-.62382 1.6679.03954 25.301.09446 7.1522l-.02362-3.8108-.07083-3.3414-1e-5 1e-5zm3.6428-41.835c10.804-3.0564 14.417-.41024.99483.76916l-2.6762.24741 1.6813-1.0166v1e-5zm14.213-8.5756c-30.073-10.748-60.521-20.805-90.399-32.003 14.692.74529 32.035 10.496 47.794 14.698 15.069 5.2171 30.105 10.506 45.296 15.416 9.0715-4.36 5.6535-4.2004 7.2573-9.1945 4.7584 8.2502 5.5103-12.943-1.032-15.896-5.1958-5.278-8.0994-5.5583-7.6725-8.4335-32.654-11.713-66.67-20.208-98.981-32.551 33.822 9.9476 67.834 20.093 101.29 31.223 9.7328 7.269-.87235-10.161-10.666-8.1319-27.944-10.603 32.521 8.4365 6.0027-.63955-7.8625-1.8633-18.927-7.2707-3.347-2.455 18.351-1.7916 22.219 14.995 17.663 19.82 9.0556 9.9827 3.1305 30.767-13.203 28.148zm13.666-25.602c-5.3427-4.5741.31048 4.8081 0 0zm-2.6657-5.9879c.25349-7.3353.56207-6.3556-1.6198-.4225-3.7337 1.4364.28935 1.5681 1.6198.4225zm-48.263 15.013c-18-5.5549-35.52-13.054-53.709-17.619 17.077-.10271 34.513 11.209 51.726 15.584 8.3566 2.4533 20.851 8.5625 4.1434 2.7486l-2.16-.71326h-1e-5zm227.14-1.3176c-1.2668-11.109 7.231 2.1258-1e-5-1e-5l1e-5 1e-5zm-119.23-27.469c-17.126-7.298-37.61.85512-53.537-9.4988 1.0994-5.7418 28.858-2.8039 8.7741-2.0491-14.932 2.6373 17.399 7.9258 23.356 5.5389 3.6041-3.2761 42.292 10.28 21.407 6.0091zm21.891.73311c-16.734-6.6749 17.082 3.0589 5.8763-10.697-19.27-9.7027 13.075-2.4996 4.2424 9.6644-2.2335 2.7018-7.1808.8769-10.119 1.0325zm12.797-2.0958c-9.268-29.125-16.188-59.014-21.561-88.852 8.1784 20.126 9.9082 41.96 16.534 62.532-3.5056-7.0393-1.0889-24.752.52231-7.6902-.86967 8.1689 14.318 33.904 4.504 34.01zm-.18376-10.57c-2.1575-9.2447-6.7023-20.305-2.0146-4.3855 1.9503 8.4172 6.4395 20.059 2.0146 4.3855h-1e-5zm6.6285 9.7487c-4.2991-8.0402-11.639-32.951-8.2585-33.942 4.1872 12.887 5.1264 42.968 26.246 28.261-11.887-1.6465-12.113-2.2667-.33146-2.3133 3.3278-11.508 29.128-7.8089 26.866-16.633 4.8187 6.1495 29.764-3.1898 10.177 3.7476-12.621 4.9879-31.616 2.5167-36.429 17.66-2.7501 3.2576-14.029 4.7313-18.27 3.22zm-108.99-2.0651c-8.2366-2.3618-28.832-10.484-8.5412-4.9493 21.65 11.54 12.525-21.427 21.45-31.968 4.9584-5.5233.12601-20.355 5.2002-5.6382-12.739 10.024-2.5547 40.875-18.109 42.556zm21.558-11.561c-18.739-4.906 2.5589-3.5214 8.1746 1.5862-2.8222.02614-5.4994-.89326-8.1746-1.5862zm73.052.80771c-5.7541-9.1875-1.7719-28.99-11.06-33.107-7.9526-2.3318-18.174-.07682-25.844-2.3004 12.743 1.131 34.75-11.621 32.151 9.2931.71388 7.1431 9.8447 23.373 4.7532 26.114zm-85.15-5.3226c-4.7598-15.211 16.328-18.163 19.933-14.428-16.517-2.3472-16.486 6.2301-19.933 14.428zm-114.36-3.115c-13.461-4.5755 9.0874.96815 0 0zm-13.631-3.9129c-17.014-6.7963 21.579 5.9434 6e-6 0h-6e-6zm272.13-1.3922c-3.7872-3.3323-31.916-7.9968-21.904-7.2543 6.5205-1.2872 31.345 7.0606 25.39 7.6203l-3.486-.36596-1e-5-2e-5zm-130.27-18.683c8.3623-.9265 40.692-5.345 16.835-.27506-4.9372-.03304-13.739 1.2701-16.835.27506zm70.25-6.5572c-4.352-7.7936-11.094-35.381-8.3369-31.676 5.875 11.779 4.0202 38.465 24.614 25.722 28.737-8.9214 59.578-22.308 74.948-47.993-9.7142-14.334-31.958-12.764-47.137-19.296-9.5173.71421-28.546-20.984-10.917-7.506 17.921 8.8513 38.703 10.844 56.921 18.899 10.109 17.894-16.99 30.693-29.383 40.489-18.331 10.381-38.89 18.134-59.831 21.928l-.87758-.56821zm10.061-86.617c-5.028-10.487 16.15 1.022 0 0zm-5.8764-23.931c9.4507-2.1696 25.021 1.1542 6.8411.56451l-2.9074-.1129-3.9337-.45161zm29.204.0361c-15.637.387 4.5646-2.7495 8.8719.011803-2.5013 1.3014-6.1061-.48142-8.8719-.011803zm11.04-.70142c10.979-2.3196 22.184 1.4377 4.2964.62168l-2.4966-.12818-1.7998-.4935z"/><path d="m381.27 175.11-5.2568 2.3813s-1.8093 43.921.22934 54.291c4.6961-3.2822 7.9252-12.81 7.9252-12.81l-.172-46.591-2.7257 2.7291z" style="fill-rule:evenodd;fill:url(#m)"/><path d="m312.2 204.13-5.2568 3.0779s-1.8093 56.768.22934 70.172c4.6961-4.2423 7.9252-16.557 7.9252-16.557l-.172-60.22-2.7257 3.5274z" style="fill-rule:evenodd;fill:url(#n);opacity:.8"/><path d="m82.313 182.09s-2.5055 15.797-.62638 19.307c1.8791 3.5104 25.055 15.212 31.945 17.552 6.8901 2.3403 89.572 33.349 89.572 33.349s6.2638-10.531 6.2638-15.212.62638-14.627-4.3846-16.382c-5.011-1.7552-120.89-37.445-122.77-38.615z" style="fill-rule:evenodd;fill:url(#o);opacity:.69444"/><path d="m335.09 187.85s-8.7273-.62707-9.3987 3.7624c-.67132 4.3895-4.6993 8.1519-4.6993 8.1519l-.67132 59.571s2.6853-15.05 8.056-16.304c5.3706-1.2541 6.7133-.62705 6.7133-3.1353v-52.047z" style="fill-rule:evenodd;fill:url(#p);stroke-width:.6884px;stroke:#000"/><path d="m208.87 295.08s13.427 5.6436 13.427 8.1519c0 2.5083.67134 100.96.67134 100.96l-10.741-5.0165s0-76.502-2.014-86.535c-2.014-10.033-2.014-17.558-1.3427-17.558z" style="fill-rule:evenodd;fill:url(#q);opacity:.6"/><path d="m87.664 261.8s13.427 4.1885 13.427 6.05c0 1.8615.67134 74.927.67134 74.927l-6.9713-7.9644s-4.6412-48.335-2.4853-55.741c1.756-6.0325-5.3128-17.272-4.6414-17.272z" style="fill-rule:evenodd;fill:url(#r);opacity:.6"/><path d="m333.53 243.31c-1.325.5024-.35362.963-.35362 3.4713 0 2.5083 1.2977 85.746 1.2977 85.746l-9.4886-5.0166s2.302-47.72-8.2778-63.132c4.2498-10.618 6.8985-25.78 16.822-21.068z" style="fill-rule:evenodd;fill:url(#s);opacity:.4"/><path d="m34.768 222.46s-2.0399 5.4376-.15985 7.2443c1.88 1.8068 24.347 11.984 31 14.573 6.6533 2.5894 86.56 34.783 86.56 34.783s5.7599-2.4966 5.6532-4.2901c-.1067-1.7935.26655-5.4508-4.5734-7.3544-4.84-1.9035-116.65-44.046-118.48-44.956z" style="fill-rule:evenodd;fill:url(#t);opacity:.39444"/><path d="m205.93 211.41v9.8229s2.6575 3.3097 2.2146 7.0331c-.44291 3.7234-3.4297 20.501-6.5301 22.57-3.1004 2.0686-31.284 4.0151-37.042 8.1522s-4.8721 9.1016-4.8721 9.1016v14.48l5.315 3.3097v-20.272s5.315-5.7919 6.6437-6.2056c1.3288-.41371 17.396-.88779 21.703-1.6548 10.123-1.8028 20.347-10.825 20.097-16.242-.24762-5.3733 3.9862-13.652 1.3288-17.79-2.6575-4.1371-1.7717-10.343-1.7717-10.343l-7.0866-1.9624z" style="fill-rule:evenodd;fill:url(#u)"/><path d="m157.23 290.04c1.4217-9.296 21.271 5.9632 21.254 7.9351-.08431 9.8544 1.2983 75.902 1.2983 74.927l-20.774-3.7231c1.5925 5.384-1.3567-35.7-1.5388-63.281-.05314-8.0518-1.5388-15.858-.24042-15.858z" style="fill-rule:evenodd;fill:url(#v);opacity:.24444"/></g></svg>
