<?xml version="1.0" encoding="UTF-8" standalone="no"?>
<!DOCTYPE svg PUBLIC "-//W3C//DTD SVG 1.0//EN" "http://www.w3.org/TR/2001/PR-SVG-20010719/DTD/svg10.dtd">
<svg width="19cm" height="19cm" viewBox="245 119 369 363" xmlns="http://www.w3.org/2000/svg" xmlns:xlink="http://www.w3.org/1999/xlink">
  <g id="Background"/>
  <g id="Background"/>
  <g id="Background"/>
  <g id="Background"/>
  <g id="Background"/>
  <g id="Background"/>
  <g id="Background">
    <g>
      <polygon style="fill: #ffffff; fill-opacity: 1; stroke-opacity: 1; stroke-width: 2; stroke: #000000" fill-rule="evenodd" points="280,289.543 297.143,260.972 262.857,260.972 "/>
      <polygon style="fill: none; stroke-opacity: 1; stroke-width: 0.2; stroke: #000000" points="280,289.543 297.143,260.972 262.857,260.972 "/>
      <ellipse style="fill: #ffffff; fill-opacity: 1; stroke-opacity: 1; stroke-width: 2; stroke: #000000" cx="280" cy="295.257" rx="5.71429" ry="5.71429"/>
      <ellipse style="fill: none; stroke-opacity: 1; stroke-width: 0.2; stroke: #000000" cx="280" cy="295.257" rx="5.71429" ry="5.71429"/>
    </g>
    <g>
      <line style="fill: none; stroke-opacity: 1; stroke-width: 2; stroke: #000000" x1="280" y1="301.973" x2="280" y2="359.988"/>
      <path style="fill: #000000; fill-opacity: 1; stroke-opacity: 1; stroke-width: 2; stroke: #000000" fill-rule="evenodd" d="M 280 359.988 C 277.5,359.988 275,357.488 275,354.988 C 275,352.488 277.5,349.988 280,349.988 C 282.5,349.988 285,352.488 285,354.988 C 285,357.488 282.5,359.988 280,359.988z"/>
    </g>
    <g>
      <line style="fill: none; stroke-opacity: 1; stroke-width: 2; stroke: #000000" x1="280" y1="260" x2="280" y2="200.972"/>
      <path style="fill: #000000; fill-opacity: 1; stroke-opacity: 1; stroke-width: 2; stroke: #000000" fill-rule="evenodd" d="M 280 200.972 C 282.5,200.972 285,203.472 285,205.972 C 285,208.472 282.5,210.972 280,210.972 C 277.5,210.972 275,208.472 275,205.972 C 275,203.472 277.5,200.972 280,200.972z"/>
    </g>
    <g>
      <line style="fill: none; stroke-opacity: 1; stroke-width: 2; stroke: #000000" x1="360" y1="260" x2="360" y2="129.736"/>
      <polygon style="fill: #000000; fill-opacity: 1; stroke-opacity: 1; stroke-width: 2; stroke: #000000" fill-rule="evenodd" points="360,122.236 365,132.236 360,129.736 355,132.236 "/>
    </g>
    <g>
      <line style="fill: none; stroke-opacity: 1; stroke-width: 2; stroke: #000000" x1="360" y1="260" x2="590.264" y2="260"/>
      <polygon style="fill: #000000; fill-opacity: 1; stroke-opacity: 1; stroke-width: 2; stroke: #000000" fill-rule="evenodd" points="597.764,260 587.764,265 590.264,260 587.764,255 "/>
    </g>
    <g>
      <polyline style="fill: none; stroke-opacity: 1; stroke-width: 2; stroke: #0000ff" points="360,160 400,160 400,240 540,240 "/>
      <line style="fill: none; stroke-opacity: 1; stroke-width: 2; stroke: #0000ff" x1="560" y1="240" x2="556" y2="240"/>
      <line style="fill: none; stroke-opacity: 1; stroke-width: 2; stroke: #0000ff" x1="553.333" y1="240" x2="549.333" y2="240"/>
      <line style="fill: none; stroke-opacity: 1; stroke-width: 2; stroke: #0000ff" x1="546.667" y1="240" x2="542.667" y2="240"/>
    </g>
    <g>
      <line style="fill: none; stroke-opacity: 1; stroke-width: 2; stroke: #000000" x1="360" y1="440" x2="360" y2="309.736"/>
      <polygon style="fill: #000000; fill-opacity: 1; stroke-opacity: 1; stroke-width: 2; stroke: #000000" fill-rule="evenodd" points="360,302.236 365,312.236 360,309.736 355,312.236 "/>
    </g>
    <g>
      <line style="fill: none; stroke-opacity: 1; stroke-width: 2; stroke: #000000" x1="360" y1="440" x2="590.264" y2="440"/>
      <polygon style="fill: #000000; fill-opacity: 1; stroke-opacity: 1; stroke-width: 2; stroke: #000000" fill-rule="evenodd" points="597.764,440 587.764,445 590.264,440 587.764,435 "/>
    </g>
    <path style="fill: none; stroke-opacity: 1; stroke-width: 2; stroke: #0000ff" d="M 420 420 C 450,420 480,240 480,340"/>
    <path style="fill: none; stroke-opacity: 1; stroke-width: 2; stroke: #0000ff" d="M 500 340 C 500,400 520,310 520,340"/>
    <path style="fill: none; stroke-opacity: 1; stroke-width: 2; stroke: #0000ff" d="M 520 340 C 520,360 540,330 540,340"/>
    <path style="fill: none; stroke-opacity: 1; stroke-width: 2; stroke: #0000ff" d="M 480 340 C 480,440 500,260 500,340"/>
    <line style="fill: none; stroke-opacity: 1; stroke-width: 2; stroke-dasharray: 6; stroke: #ff0000" x1="360" y1="330" x2="560" y2="330"/>
    <line style="fill: none; stroke-opacity: 1; stroke-width: 2; stroke-dasharray: 6; stroke: #ff0000" x1="360" y1="350" x2="560" y2="350"/>
    <g>
      <path style="fill: none; stroke-opacity: 1; stroke-width: 2; stroke: #0000ff" d="M 540 340 C 540,350 550,340 550,340"/>
      <line style="fill: none; stroke-opacity: 1; stroke-width: 2; stroke: #0000ff" x1="560" y1="340" x2="558" y2="340"/>
      <line style="fill: none; stroke-opacity: 1; stroke-width: 2; stroke: #0000ff" x1="556.667" y1="340" x2="554.667" y2="340"/>
      <line style="fill: none; stroke-opacity: 1; stroke-width: 2; stroke: #0000ff" x1="553.333" y1="340" x2="551.333" y2="340"/>
    </g>
    <line style="fill: none; stroke-opacity: 1; stroke-width: 2; stroke: #0000ff" x1="360" y1="420" x2="420" y2="420"/>
    <g>
      <line style="fill: none; stroke-opacity: 1; stroke-width: 2; stroke: #000000" x1="401" y1="452" x2="511" y2="452"/>
      <line style="fill: none; stroke-opacity: 1; stroke-width: 2; stroke: #000000" x1="401" y1="452" x2="406" y2="452"/>
      <line style="fill: none; stroke-opacity: 1; stroke-width: 2; stroke: #000000" x1="401" y1="457" x2="401" y2="447"/>
      <line style="fill: none; stroke-opacity: 1; stroke-width: 2; stroke: #000000" x1="397" y1="456" x2="405" y2="448"/>
      <line style="fill: none; stroke-opacity: 1; stroke-width: 2; stroke: #000000" x1="511" y1="452" x2="506" y2="452"/>
      <line style="fill: none; stroke-opacity: 1; stroke-width: 2; stroke: #000000" x1="511" y1="447" x2="511" y2="457"/>
      <line style="fill: none; stroke-opacity: 1; stroke-width: 2; stroke: #000000" x1="515" y1="448" x2="507" y2="456"/>
    </g>
    <text font-size="20.32" style="fill: #000000; fill-opacity: 1; stroke: none;text-anchor:middle;font-family:sans-serif;font-style:normal;font-weight:normal" x="340" y="247.875">
      <tspan x="340" y="247.875">V₁</tspan>
    </text>
    <text font-size="20.32" style="fill: #000000; fill-opacity: 1; stroke: none;text-anchor:middle;font-family:sans-serif;font-style:normal;font-weight:normal" x="340" y="167.875">
      <tspan x="340" y="167.875">V₂</tspan>
    </text>
    <text font-size="20.32" style="fill: #000000; fill-opacity: 1; stroke: none;text-anchor:middle;font-family:sans-serif;font-style:normal;font-weight:normal" x="340" y="427.875">
      <tspan x="340" y="427.875">V₁</tspan>
    </text>
    <text font-size="20.32" style="fill: #000000; fill-opacity: 1; stroke: none;text-anchor:middle;font-family:sans-serif;font-style:normal;font-weight:normal" x="340" y="347.875">
      <tspan x="340" y="347.875">V₂</tspan>
    </text>
    <text font-size="20.32" style="fill: #0000ff; fill-opacity: 1; stroke: none;text-anchor:middle;font-family:sans-serif;font-style:normal;font-weight:normal" x="280" y="395.175">
      <tspan x="280" y="395.175">Output</tspan>
      <tspan x="280" y="420.575">signal</tspan>
    </text>
    <text font-size="20.32" style="fill: #0000ff; fill-opacity: 1; stroke: none;text-anchor:middle;font-family:sans-serif;font-style:normal;font-weight:normal" x="280" y="155.175">
      <tspan x="280" y="155.175">Input</tspan>
      <tspan x="280" y="180.575">signal</tspan>
    </text>
    <text font-size="20.32" style="fill: #ff0000; fill-opacity: 1; stroke: none;text-anchor:middle;font-family:sans-serif;font-style:normal;font-weight:normal" x="590" y="335.175">
      <tspan x="590" y="335.175">Error</tspan>
      <tspan x="590" y="360.575">band</tspan>
    </text>
    <text font-size="20.32" style="fill: #000000; fill-opacity: 1; stroke: none;text-anchor:middle;font-family:sans-serif;font-style:normal;font-weight:normal" x="610" y="287.875">
      <tspan x="610" y="287.875">t</tspan>
    </text>
    <text font-size="20.32" style="fill: #000000; fill-opacity: 1; stroke: none;text-anchor:middle;font-family:sans-serif;font-style:normal;font-weight:normal" x="610" y="467.528">
      <tspan x="610" y="467.528">t</tspan>
    </text>
    <text font-size="20.32" style="fill: #000000; fill-opacity: 1; stroke: none;text-anchor:middle;font-family:sans-serif;font-style:normal;font-weight:normal" x="456" y="475.875">
      <tspan x="456" y="475.875">Settling time</tspan>
    </text>
  </g>
</svg>
