<?xml version="1.0" encoding="UTF-8"?>
<svg clip-path="url(#a)" style="fill-rule:evenodd;stroke-linejoin:round;stroke-width:28.222" preserveAspectRatio="xMidYMid" version="1.2" viewBox="0 0 10694 13256" xml:space="preserve" xmlns="http://www.w3.org/2000/svg" xmlns:ooo="http://xml.openoffice.org/svg/export" xmlns:xlink="http://www.w3.org/1999/xlink"><defs class="ClipPathGroup"><clipPath id="a"><rect width="28000" height="21000"/></clipPath></defs><defs class="TextShapeIndex"/><defs class="EmbeddedBulletChars"/><g class="com.sun.star.drawing.CustomShape" transform="translate(-16159 -4663.7)"><path d="m20218 5060c469 0 827 358 827 827s-358 827-827 827-827-358-827-827 358-827 827-827z" style="fill-opacity:.698;fill:#808080;stroke-opacity:.698;stroke:#fff"/><path d="m20218 5060c469 0 827 358 827 827s-358 827-827 827-827-358-827-827 358-827 827-827z" style="fill:none;stroke:#808080"/><path d="m19391 5060" style="fill:none;stroke:#808080"/><path d="m21046 6715" style="fill:none;stroke:#808080"/><path d="m19948 5545c50 0 89 38 89 88s-39 89-89 89-88-39-88-89 38-88 88-88z" style="fill-opacity:.698;fill:#808080;stroke-opacity:.698;stroke:#fff"/><path d="m19948 5545c50 0 89 38 89 88s-39 89-89 89-88-39-88-89 38-88 88-88z" style="fill:none;stroke:#808080"/><path d="m19391 5060" style="fill:none;stroke:#808080"/><path d="m21046 6715" style="fill:none;stroke:#808080"/><path d="m20484 5545c50 0 89 38 89 88s-39 89-89 89-88-39-88-89 38-88 88-88z" style="fill-opacity:.698;fill:#808080;stroke-opacity:.698;stroke:#fff"/><path d="m20484 5545c50 0 89 38 89 88s-39 89-89 89-88-39-88-89 38-88 88-88z" style="fill:none;stroke:#808080"/><path d="m19391 5060" style="fill:none;stroke:#808080"/><path d="m21046 6715" style="fill:none;stroke:#808080"/><path d="m19764 6248c292 154 616 154 908 0" style="fill:none;stroke:#808080"/><path d="m19391 5060" style="fill:none;stroke:#808080"/><path d="m21046 6715" style="fill:none;stroke:#808080"/><path d="m20118 4960c469 0 827 358 827 827s-358 827-827 827-827-358-827-827 358-827 827-827z" style="fill-opacity:.698;fill:#9cf;stroke-opacity:.698;stroke:#fff"/><path d="m20118 4960c469 0 827 358 827 827s-358 827-827 827-827-358-827-827 358-827 827-827z" style="fill:none;stroke:#000"/><path d="m19291 4960" style="fill:none;stroke:#000"/><path d="m20946 6615" style="fill:none;stroke:#000"/><path d="m19848 5445c50 0 89 38 89 88s-39 89-89 89-88-39-88-89 38-88 88-88z" style="fill-opacity:.698;fill:#7aa3cc;stroke-opacity:.698;stroke:#fff"/><path d="m19848 5445c50 0 89 38 89 88s-39 89-89 89-88-39-88-89 38-88 88-88z" style="fill:none;stroke:#000"/><path d="m19291 4960" style="fill:none;stroke:#000"/><path d="m20946 6615" style="fill:none;stroke:#000"/><path d="m20384 5445c50 0 89 38 89 88s-39 89-89 89-88-39-88-89 38-88 88-88z" style="fill-opacity:.698;fill:#7aa3cc;stroke-opacity:.698;stroke:#fff"/><path d="m20384 5445c50 0 89 38 89 88s-39 89-89 89-88-39-88-89 38-88 88-88z" style="fill:none;stroke:#000"/><path d="m19291 4960" style="fill:none;stroke:#000"/><path d="m20946 6615" style="fill:none;stroke:#000"/><path d="m19664 6148c292 154 616 154 908 0" style="fill:none;stroke:#000"/><path d="m19291 4960" style="fill:none;stroke:#000"/><path d="m20946 6615" style="fill:none;stroke:#000"/></g><g class="com.sun.star.drawing.CustomShape" transform="translate(-16159 -4663.7)"><path d="m24627 5060c469 0 827 358 827 827s-358 827-827 827-827-358-827-827 358-827 827-827z" style="fill-opacity:.698;fill:#808080;stroke-opacity:.698;stroke:#fff"/><path d="m24627 5060c469 0 827 358 827 827s-358 827-827 827-827-358-827-827 358-827 827-827z" style="fill:none;stroke:#808080"/><path d="m23800 5060" style="fill:none;stroke:#808080"/><path d="m25455 6715" style="fill:none;stroke:#808080"/><path d="m24357 5545c50 0 89 38 89 88s-39 89-89 89-88-39-88-89 38-88 88-88z" style="fill-opacity:.698;fill:#808080;stroke-opacity:.698;stroke:#fff"/><path d="m24357 5545c50 0 89 38 89 88s-39 89-89 89-88-39-88-89 38-88 88-88z" style="fill:none;stroke:#808080"/><path d="m23800 5060" style="fill:none;stroke:#808080"/><path d="m25455 6715" style="fill:none;stroke:#808080"/><path d="m24893 5545c50 0 89 38 89 88s-39 89-89 89-88-39-88-89 38-88 88-88z" style="fill-opacity:.698;fill:#808080;stroke-opacity:.698;stroke:#fff"/><path d="m24893 5545c50 0 89 38 89 88s-39 89-89 89-88-39-88-89 38-88 88-88z" style="fill:none;stroke:#808080"/><path d="m23800 5060" style="fill:none;stroke:#808080"/><path d="m25455 6715" style="fill:none;stroke:#808080"/><path d="m24173 6248c292 154 616 154 908 0" style="fill:none;stroke:#808080"/><path d="m23800 5060" style="fill:none;stroke:#808080"/><path d="m25455 6715" style="fill:none;stroke:#808080"/><path d="m24527 4960c469 0 827 358 827 827s-358 827-827 827-827-358-827-827 358-827 827-827z" style="fill-opacity:.698;fill:#ff8080;stroke-opacity:.698;stroke:#fff"/><path d="m24527 4960c469 0 827 358 827 827s-358 827-827 827-827-358-827-827 358-827 827-827z" style="fill:none;stroke:#000"/><path d="m23700 4960" style="fill:none;stroke:#000"/><path d="m25355 6615" style="fill:none;stroke:#000"/><path d="m24257 5445c50 0 89 38 89 88s-39 89-89 89-88-39-88-89 38-88 88-88z" style="fill-opacity:.698;fill:#c66;stroke-opacity:.698;stroke:#fff"/><path d="m24257 5445c50 0 89 38 89 88s-39 89-89 89-88-39-88-89 38-88 88-88z" style="fill:none;stroke:#000"/><path d="m23700 4960" style="fill:none;stroke:#000"/><path d="m25355 6615" style="fill:none;stroke:#000"/><path d="m24793 5445c50 0 89 38 89 88s-39 89-89 89-88-39-88-89 38-88 88-88z" style="fill-opacity:.698;fill:#c66;stroke-opacity:.698;stroke:#fff"/><path d="m24793 5445c50 0 89 38 89 88s-39 89-89 89-88-39-88-89 38-88 88-88z" style="fill:none;stroke:#000"/><path d="m23700 4960" style="fill:none;stroke:#000"/><path d="m25355 6615" style="fill:none;stroke:#000"/><path d="m24073 6148c292 154 616 154 908 0" style="fill:none;stroke:#000"/><path d="m23700 4960" style="fill:none;stroke:#000"/><path d="m25355 6615" style="fill:none;stroke:#000"/></g><g class="com.sun.star.drawing.LineShape" transform="translate(-16159 -4663.7)"><path d="m20118 7165v51" style="fill:none;stroke:#000"/><path d="m20118 7267v51" style="fill:none;stroke:#000"/><path d="m20118 7369v51" style="fill:none;stroke:#000"/><path d="m20118 7471v51" style="fill:none;stroke:#000"/><path d="m20118 7573v51" style="fill:none;stroke:#000"/><path d="m20118 7675v51" style="fill:none;stroke:#000"/><path d="m20118 7777v51" style="fill:none;stroke:#000"/><path d="m20118 7879v51" style="fill:none;stroke:#000"/><path d="m20118 7981v51" style="fill:none;stroke:#000"/><path d="m20118 8083v51" style="fill:none;stroke:#000"/><path d="m20118 8185v51" style="fill:none;stroke:#000"/><path d="m20118 8287v51" style="fill:none;stroke:#000"/><path d="m20118 8389v51" style="fill:none;stroke:#000"/><path d="m20118 8491v51" style="fill:none;stroke:#000"/><path d="m20118 8593v51" style="fill:none;stroke:#000"/><path d="m20118 8695v51" style="fill:none;stroke:#000"/><path d="m20118 8797v51" style="fill:none;stroke:#000"/><path d="m20118 8899v51" style="fill:none;stroke:#000"/><path d="m20118 9001v51" style="fill:none;stroke:#000"/><path d="m20118 9103v51" style="fill:none;stroke:#000"/><path d="m20118 9205v51" style="fill:none;stroke:#000"/><path d="m20118 9307v51" style="fill:none;stroke:#000"/><path d="m20118 9409v51" style="fill:none;stroke:#000"/><path d="m20118 9511v51" style="fill:none;stroke:#000"/><path d="m20118 9613v51" style="fill:none;stroke:#000"/><path d="m20118 9715v51" style="fill:none;stroke:#000"/><path d="m20118 9817v51" style="fill:none;stroke:#000"/><path d="m20118 9919v51" style="fill:none;stroke:#000"/><path d="m20118 10021v51" style="fill:none;stroke:#000"/><path d="m20118 10123v51" style="fill:none;stroke:#000"/><path d="m20118 10225v51" style="fill:none;stroke:#000"/><path d="m20118 10327v51" style="fill:none;stroke:#000"/><path d="m20118 10429v51" style="fill:none;stroke:#000"/><path d="m20118 10531v51" style="fill:none;stroke:#000"/><path d="m20118 10633v51" style="fill:none;stroke:#000"/><path d="m20118 10735v51" style="fill:none;stroke:#000"/><path d="m20118 10837v51" style="fill:none;stroke:#000"/><path d="m20118 10939v51" style="fill:none;stroke:#000"/><path d="m20118 11041v51" style="fill:none;stroke:#000"/><path d="m20118 11143v51" style="fill:none;stroke:#000"/><path d="m20118 11245v51" style="fill:none;stroke:#000"/><path d="m20118 11347v51" style="fill:none;stroke:#000"/><path d="m20118 11449v51" style="fill:none;stroke:#000"/><path d="m20118 11551v51" style="fill:none;stroke:#000"/><path d="m20118 11653v51" style="fill:none;stroke:#000"/><path d="m20118 11755v51" style="fill:none;stroke:#000"/><path d="m20118 11857v51" style="fill:none;stroke:#000"/><path d="m20118 11959v51" style="fill:none;stroke:#000"/><path d="m20118 12061v51" style="fill:none;stroke:#000"/><path d="m20118 12163v51" style="fill:none;stroke:#000"/><path d="m20118 12265v51" style="fill:none;stroke:#000"/><path d="m20118 12367v51" style="fill:none;stroke:#000"/><path d="m20118 12469v51" style="fill:none;stroke:#000"/><path d="m20118 12571v51" style="fill:none;stroke:#000"/><path d="m20118 12673v51" style="fill:none;stroke:#000"/><path d="m20118 12775v51" style="fill:none;stroke:#000"/><path d="m20118 12877v51" style="fill:none;stroke:#000"/><path d="m20118 12979v51" style="fill:none;stroke:#000"/><path d="m20118 13081v51" style="fill:none;stroke:#000"/><path d="m20118 13183v51" style="fill:none;stroke:#000"/><path d="m20118 13285v51" style="fill:none;stroke:#000"/><path d="m20118 13387v51" style="fill:none;stroke:#000"/><path d="m20118 13489v51" style="fill:none;stroke:#000"/><path d="m20118 13591v51" style="fill:none;stroke:#000"/><path d="m20118 13693v51" style="fill:none;stroke:#000"/><path d="m20118 13795v51" style="fill:none;stroke:#000"/><path d="m20118 13897v51" style="fill:none;stroke:#000"/><path d="m20118 13999v51" style="fill:none;stroke:#000"/><path d="m20118 14101v51" style="fill:none;stroke:#000"/><path d="m20118 14203v51" style="fill:none;stroke:#000"/><path d="m20118 14305v51" style="fill:none;stroke:#000"/><path d="m20118 14407v51" style="fill:none;stroke:#000"/><path d="m20118 14509v51" style="fill:none;stroke:#000"/><path d="m20118 14611v51" style="fill:none;stroke:#000"/><path d="m20118 14713v51" style="fill:none;stroke:#000"/><path d="m20118 14815v51" style="fill:none;stroke:#000"/><path d="m20118 14917v51" style="fill:none;stroke:#000"/><path d="m20118 15019v51" style="fill:none;stroke:#000"/><path d="m20118 15121v51" style="fill:none;stroke:#000"/><path d="m20118 15223v51" style="fill:none;stroke:#000"/><path d="m20118 15325v51" style="fill:none;stroke:#000"/><path d="m20118 15427v51" style="fill:none;stroke:#000"/><path d="m20118 15529v51" style="fill:none;stroke:#000"/><path d="m20118 15631v51" style="fill:none;stroke:#000"/><path d="m20118 15733v51" style="fill:none;stroke:#000"/><path d="m20118 15835v51" style="fill:none;stroke:#000"/><path d="m20118 15937v51" style="fill:none;stroke:#000"/><path d="m20118 16039v51" style="fill:none;stroke:#000"/><path d="m20118 16141v51" style="fill:none;stroke:#000"/><path d="m20118 16243v51" style="fill:none;stroke:#000"/><path d="m20118 16345v51" style="fill:none;stroke:#000"/><path d="m20118 16447v51" style="fill:none;stroke:#000"/><path d="m20118 16549v51" style="fill:none;stroke:#000"/><path d="m20118 16651v51" style="fill:none;stroke:#000"/><path d="m20118 16753v51" style="fill:none;stroke:#000"/><path d="m20118 16855v51" style="fill:none;stroke:#000"/><path d="m20118 16957v51" style="fill:none;stroke:#000"/><path d="m20118 17059v51" style="fill:none;stroke:#000"/><path d="m20118 17161v51" style="fill:none;stroke:#000"/><path d="m20118 17263v51" style="fill:none;stroke:#000"/><path d="m20118 17365v51" style="fill:none;stroke:#000"/><path d="m20118 17467v51" style="fill:none;stroke:#000"/><path d="m20118 17569v51" style="fill:none;stroke:#000"/></g><g class="com.sun.star.drawing.LineShape" transform="translate(-16159 -4663.7)"><path d="m24527 7165v51" style="fill:none;stroke:#000"/><path d="m24527 7267v51" style="fill:none;stroke:#000"/><path d="m24527 7369v51" style="fill:none;stroke:#000"/><path d="m24527 7471v51" style="fill:none;stroke:#000"/><path d="m24527 7573v51" style="fill:none;stroke:#000"/><path d="m24527 7675v51" style="fill:none;stroke:#000"/><path d="m24527 7777v51" style="fill:none;stroke:#000"/><path d="m24527 7879v51" style="fill:none;stroke:#000"/><path d="m24527 7981v51" style="fill:none;stroke:#000"/><path d="m24527 8083v51" style="fill:none;stroke:#000"/><path d="m24527 8185v51" style="fill:none;stroke:#000"/><path d="m24527 8287v51" style="fill:none;stroke:#000"/><path d="m24527 8389v51" style="fill:none;stroke:#000"/><path d="m24527 8491v51" style="fill:none;stroke:#000"/><path d="m24527 8593v51" style="fill:none;stroke:#000"/><path d="m24527 8695v51" style="fill:none;stroke:#000"/><path d="m24527 8797v51" style="fill:none;stroke:#000"/><path d="m24527 8899v51" style="fill:none;stroke:#000"/><path d="m24527 9001v51" style="fill:none;stroke:#000"/><path d="m24527 9103v51" style="fill:none;stroke:#000"/><path d="m24527 9205v51" style="fill:none;stroke:#000"/><path d="m24527 9307v51" style="fill:none;stroke:#000"/><path d="m24527 9409v51" style="fill:none;stroke:#000"/><path d="m24527 9511v51" style="fill:none;stroke:#000"/><path d="m24527 9613v51" style="fill:none;stroke:#000"/><path d="m24527 9715v51" style="fill:none;stroke:#000"/><path d="m24527 9817v51" style="fill:none;stroke:#000"/><path d="m24527 9919v51" style="fill:none;stroke:#000"/><path d="m24527 10021v51" style="fill:none;stroke:#000"/><path d="m24527 10123v51" style="fill:none;stroke:#000"/><path d="m24527 10225v51" style="fill:none;stroke:#000"/><path d="m24527 10327v51" style="fill:none;stroke:#000"/><path d="m24527 10429v51" style="fill:none;stroke:#000"/><path d="m24527 10531v51" style="fill:none;stroke:#000"/><path d="m24527 10633v51" style="fill:none;stroke:#000"/><path d="m24527 10735v51" style="fill:none;stroke:#000"/><path d="m24527 10837v51" style="fill:none;stroke:#000"/><path d="m24527 10939v51" style="fill:none;stroke:#000"/><path d="m24527 11041v51" style="fill:none;stroke:#000"/><path d="m24527 11143v51" style="fill:none;stroke:#000"/><path d="m24527 11245v51" style="fill:none;stroke:#000"/><path d="m24527 11347v51" style="fill:none;stroke:#000"/><path d="m24527 11449v51" style="fill:none;stroke:#000"/><path d="m24527 11551v51" style="fill:none;stroke:#000"/><path d="m24527 11653v51" style="fill:none;stroke:#000"/><path d="m24527 11755v51" style="fill:none;stroke:#000"/><path d="m24527 11857v51" style="fill:none;stroke:#000"/><path d="m24527 11959v51" style="fill:none;stroke:#000"/><path d="m24527 12061v51" style="fill:none;stroke:#000"/><path d="m24527 12163v51" style="fill:none;stroke:#000"/><path d="m24527 12265v51" style="fill:none;stroke:#000"/><path d="m24527 12367v51" style="fill:none;stroke:#000"/><path d="m24527 12469v51" style="fill:none;stroke:#000"/><path d="m24527 12571v51" style="fill:none;stroke:#000"/><path d="m24527 12673v51" style="fill:none;stroke:#000"/><path d="m24527 12775v51" style="fill:none;stroke:#000"/><path d="m24527 12877v51" style="fill:none;stroke:#000"/><path d="m24527 12979v51" style="fill:none;stroke:#000"/><path d="m24527 13081v51" style="fill:none;stroke:#000"/><path d="m24527 13183v51" style="fill:none;stroke:#000"/><path d="m24527 13285v51" style="fill:none;stroke:#000"/><path d="m24527 13387v51" style="fill:none;stroke:#000"/><path d="m24527 13489v51" style="fill:none;stroke:#000"/><path d="m24527 13591v51" style="fill:none;stroke:#000"/><path d="m24527 13693v51" style="fill:none;stroke:#000"/><path d="m24527 13795v51" style="fill:none;stroke:#000"/><path d="m24527 13897v51" style="fill:none;stroke:#000"/><path d="m24527 13999v51" style="fill:none;stroke:#000"/><path d="m24527 14101v51" style="fill:none;stroke:#000"/><path d="m24527 14203v51" style="fill:none;stroke:#000"/><path d="m24527 14305v51" style="fill:none;stroke:#000"/><path d="m24527 14407v51" style="fill:none;stroke:#000"/><path d="m24527 14509v51" style="fill:none;stroke:#000"/><path d="m24527 14611v51" style="fill:none;stroke:#000"/><path d="m24527 14713v51" style="fill:none;stroke:#000"/><path d="m24527 14815v51" style="fill:none;stroke:#000"/><path d="m24527 14917v51" style="fill:none;stroke:#000"/><path d="m24527 15019v51" style="fill:none;stroke:#000"/><path d="m24527 15121v51" style="fill:none;stroke:#000"/><path d="m24527 15223v51" style="fill:none;stroke:#000"/><path d="m24527 15325v51" style="fill:none;stroke:#000"/><path d="m24527 15427v51" style="fill:none;stroke:#000"/><path d="m24527 15529v51" style="fill:none;stroke:#000"/><path d="m24527 15631v51" style="fill:none;stroke:#000"/><path d="m24527 15733v51" style="fill:none;stroke:#000"/><path d="m24527 15835v51" style="fill:none;stroke:#000"/><path d="m24527 15937v51" style="fill:none;stroke:#000"/><path d="m24527 16039v51" style="fill:none;stroke:#000"/><path d="m24527 16141v51" style="fill:none;stroke:#000"/><path d="m24527 16243v51" style="fill:none;stroke:#000"/><path d="m24527 16345v51" style="fill:none;stroke:#000"/><path d="m24527 16447v51" style="fill:none;stroke:#000"/><path d="m24527 16549v51" style="fill:none;stroke:#000"/><path d="m24527 16651v51" style="fill:none;stroke:#000"/><path d="m24527 16753v51" style="fill:none;stroke:#000"/><path d="m24527 16855v51" style="fill:none;stroke:#000"/><path d="m24527 16957v51" style="fill:none;stroke:#000"/><path d="m24527 17059v51" style="fill:none;stroke:#000"/><path d="m24527 17161v51" style="fill:none;stroke:#000"/><path d="m24527 17263v51" style="fill:none;stroke:#000"/><path d="m24527 17365v51" style="fill:none;stroke:#000"/><path d="m24527 17467v51" style="fill:none;stroke:#000"/><path d="m24527 17569v51" style="fill:none;stroke:#000"/></g><g class="com.sun.star.drawing.RectangleShape" transform="translate(-16159 -4663.7)"><path d="m20217 10021h-1929v-1654h3858v1654h-1929z" style="fill-opacity:.698;fill:#808080;stroke-opacity:.698;stroke:#fff"/><path d="m20217 10021h-1929v-1654h3858v1654h-1929z" style="fill:none;stroke:#808080"/><text class="TextShape" style="line-height:0%"><tspan class="TextParagraph" font-size="564px" font-style="italic" font-weight="400" style="font-family:Arial;font-size:564px;font-style:italic;font-weight:400"><tspan class="TextPosition" x="19275" y="9082"><tspan style="fill:#808080">Verifica</tspan></tspan><tspan class="TextPosition" x="18638" y="9758"><tspan style="fill:#808080">CC </tspan><tspan style="fill:#808080">≥</tspan><tspan style="fill:#808080"> 1000 ?</tspan></tspan></tspan></text>
<path d="m20117 9921h-1929v-1654h3858v1654h-1929z" style="fill-opacity:.698;fill:#fff;stroke-opacity:.698;stroke:#fff"/><path d="m20117 9921h-1929v-1654h3858v1654h-1929z" style="fill:none;stroke:#000"/><text class="TextShape" style="line-height:0%"><tspan class="TextParagraph" font-size="564px" font-style="italic" font-weight="400" style="font-family:Arial;font-size:564px;font-style:italic;font-weight:400"><tspan class="TextPosition" x="19175" y="8982"><tspan style="fill:#000000">Verifica</tspan></tspan><tspan class="TextPosition" x="18538" y="9658"><tspan style="fill:#000000">CC </tspan><tspan style="fill:#000000">≥</tspan><tspan style="fill:#000000"> 1000 ?</tspan></tspan></tspan></text>
</g><g class="com.sun.star.drawing.RectangleShape" transform="translate(-16159 -4663.7)"><path d="m24627 12226h-1929v-1654h3858v1654h-1929z" style="fill-opacity:.698;fill:#808080;stroke-opacity:.698;stroke:#fff"/><path d="m24627 12226h-1929v-1654h3858v1654h-1929z" style="fill:none;stroke:#808080"/><text class="TextShape" style="line-height:0%"><tspan class="TextParagraph" font-size="564px" font-style="italic" font-weight="400" style="font-family:Arial;font-size:564px;font-style:italic;font-weight:400"><tspan class="TextPosition" x="23685" y="11287"><tspan style="fill:#808080">Verifica</tspan></tspan><tspan class="TextPosition" x="23048" y="11963"><tspan style="fill:#808080">CC </tspan><tspan style="fill:#808080">≥</tspan><tspan style="fill:#808080"> 1000 ?</tspan></tspan></tspan></text>
<path d="m24527 12126h-1929v-1654h3858v1654h-1929z" style="fill-opacity:.698;fill:#fff;stroke-opacity:.698;stroke:#fff"/><path d="m24527 12126h-1929v-1654h3858v1654h-1929z" style="fill:none;stroke:#000"/><text class="TextShape" style="line-height:0%"><tspan class="TextParagraph" font-size="564px" font-style="italic" font-weight="400" style="font-family:Arial;font-size:564px;font-style:italic;font-weight:400"><tspan class="TextPosition" x="23585" y="11187"><tspan style="fill:#000000">Verifica</tspan></tspan><tspan class="TextPosition" x="22948" y="11863"><tspan style="fill:#000000">CC </tspan><tspan style="fill:#000000">≥</tspan><tspan style="fill:#000000"> 1000 ?</tspan></tspan></tspan></text>
</g><g class="com.sun.star.drawing.RectangleShape" transform="translate(-16159 -4663.7)"><path d="m20217 14431h-1929v-1654h3858v1654h-1929z" style="fill-opacity:.698;fill:#808080;stroke-opacity:.698;stroke:#fff"/><path d="m20217 14431h-1929v-1654h3858v1654h-1929z" style="fill:none;stroke:#808080"/><text class="TextShape" style="line-height:0%"><tspan class="TextParagraph" font-size="564px" font-style="italic" font-weight="400" style="font-family:Arial;font-size:564px;font-style:italic;font-weight:400"><tspan class="TextPosition" x="18790" y="13492"><tspan style="fill:#808080">Sottrazione</tspan></tspan><tspan class="TextPosition" x="19355" y="14168"><tspan style="fill:#808080">1000 €</tspan></tspan></tspan></text>
<path d="m20117 14331h-1929v-1654h3858v1654h-1929z" style="fill-opacity:.698;fill:#fff;stroke-opacity:.698;stroke:#fff"/><path d="m20117 14331h-1929v-1654h3858v1654h-1929z" style="fill:none;stroke:#000"/><text class="TextShape" style="line-height:0%"><tspan class="TextParagraph" font-size="564px" font-style="italic" font-weight="400" style="font-family:Arial;font-size:564px;font-style:italic;font-weight:400"><tspan class="TextPosition" x="18690" y="13392"><tspan style="fill:#000000">Sottrazione</tspan></tspan><tspan class="TextPosition" x="19255" y="14068"><tspan style="fill:#000000">1000 €</tspan></tspan></tspan></text>
</g><g class="com.sun.star.drawing.RectangleShape" transform="translate(-16159 -4663.7)"><path d="m24627 16635h-1929v-1654h3858v1654h-1929z" style="fill-opacity:.698;fill:#808080;stroke-opacity:.698;stroke:#fff"/><path d="m24627 16635h-1929v-1654h3858v1654h-1929z" style="fill:none;stroke:#808080"/><text class="TextShape" style="line-height:0%"><tspan class="TextParagraph" font-size="564px" font-style="italic" font-weight="400" style="font-family:Arial;font-size:564px;font-style:italic;font-weight:400"><tspan class="TextPosition" x="23200" y="15696"><tspan style="fill:#808080">Sottrazione</tspan></tspan><tspan class="TextPosition" x="23765" y="16372"><tspan style="fill:#808080">1000 €</tspan></tspan></tspan></text>
<path d="m24527 16535h-1929v-1654h3858v1654h-1929z" style="fill-opacity:.698;fill:#fff;stroke-opacity:.698;stroke:#fff"/><path d="m24527 16535h-1929v-1654h3858v1654h-1929z" style="fill:none;stroke:#000"/><text class="TextShape" style="line-height:0%"><tspan class="TextParagraph" font-size="564px" font-style="italic" font-weight="400" style="font-family:Arial;font-size:564px;font-style:italic;font-weight:400"><tspan class="TextPosition" x="23100" y="15596"><tspan style="fill:#000000">Sottrazione</tspan></tspan><tspan class="TextPosition" x="23665" y="16272"><tspan style="fill:#000000">1000 €</tspan></tspan></tspan></text>
</g><g class="com.sun.star.drawing.LineShape" transform="translate(-16159 -4663.7)"><path d="m17086 6062v11059" style="fill:none;stroke:#000"/><path d="m17086 17637 180-540h-360l180 540z"/></g><g class="com.sun.star.drawing.RectangleShape" transform="translate(-16159 -4663.7)"><text class="TextShape" style="line-height:0%"><tspan class="TextParagraph" font-size="706px" font-style="italic" font-weight="400" style="font-size:706px;font-style:italic;font-weight:400"><tspan class="TextPosition" x="16412" y="16818"><tspan style="fill:#000000">t</tspan></tspan></tspan></text>
</g><g class="com.sun.star.drawing.RectangleShape" transform="translate(-16159 -4663.7)"/></svg>
