<?xml version="1.0" encoding="UTF-8"?>
<svg clip-path="url(#a)" style="fill-rule:evenodd;stroke-linejoin:round;stroke-width:28.222" preserveAspectRatio="xMidYMid" version="1.2" viewBox="0 0 19058 15349" xml:space="preserve" xmlns="http://www.w3.org/2000/svg" xmlns:ooo="http://xml.openoffice.org/svg/export" xmlns:xlink="http://www.w3.org/1999/xlink"><defs class="ClipPathGroup"><clipPath id="a"><rect width="28000" height="21000"/></clipPath></defs><defs class="TextShapeIndex"/><defs class="EmbeddedBulletChars"/><path d="m6359.3 1859.8h-1929v-827h3858v827h-1929z" style="fill-opacity:.349;fill:#fff;stroke-opacity:.349;stroke:#fff"/><path d="m6359.3 1859.8h-1929v-827h3858v827h-1929z" style="fill:none;stroke:#000"/><text class="TextShape" x="-4387.6528" y="-4478.2319" style="line-height:0%"><tspan class="TextParagraph" font-size="494px" font-style="italic" font-weight="400" style="font-family:Arial;font-size:494px;font-style:italic;font-weight:400"><tspan class="TextPosition" x="5366.3472" y="1644.7681"><tspan style="fill:#000000">Studente</tspan></tspan></tspan></text>
<path d="m5808.3 2686.8h-1378v-827h2756v827h-1378z" style="fill-opacity:.349;fill:#f00;stroke-opacity:.349;stroke:#fff"/><path d="m5808.3 2686.8h-1378v-827h2756v827h-1378z" style="fill:none;stroke:#000"/><text class="TextShape" x="-4387.6528" y="-4478.2319" style="line-height:0%"><tspan class="TextParagraph" font-size="494px" font-weight="700" style="font-family:Arial;font-size:494px;font-weight:700"><tspan class="TextPosition" x="4720.3472" y="2471.7681"><tspan style="fill:#000000">Matricola</tspan></tspan></tspan></text>
<path d="m8564.3 2686.8h-1378v-827h2756v827h-1378z" style="fill-opacity:.349;fill:#f00;stroke-opacity:.349;stroke:#fff"/><path d="m8564.3 2686.8h-1378v-827h2756v827h-1378z" style="fill:none;stroke:#000"/><text class="TextShape" x="-4387.6528" y="-4478.2319" style="line-height:0%"><tspan class="TextParagraph" font-size="494px" font-weight="700" style="font-family:Arial;font-size:494px;font-weight:700"><tspan class="TextPosition" x="7425.3472" y="2471.7681"><tspan style="fill:#000000">Cognome</tspan></tspan></tspan></text>
<path d="m11320 2686.8h-1378v-827h2756v827h-1378z" style="fill-opacity:.349;fill:#f00;stroke-opacity:.349;stroke:#fff"/><path d="m11320 2686.8h-1378v-827h2756v827h-1378z" style="fill:none;stroke:#000"/><text class="TextShape" x="-4387.6528" y="-4478.2319" style="line-height:0%"><tspan class="TextParagraph" font-size="494px" font-weight="700" style="font-family:Arial;font-size:494px;font-weight:700"><tspan class="TextPosition" x="10632.348" y="2471.7681"><tspan style="fill:#000000">Nome</tspan></tspan></tspan></text>
<path d="m14076 2686.8h-1378v-827h2756v827h-1378z" style="fill-opacity:.349;fill:#f00;stroke-opacity:.349;stroke:#fff"/><path d="m14076 2686.8h-1378v-827h2756v827h-1378z" style="fill:none;stroke:#000"/><text class="TextShape" x="-4387.6528" y="-4478.2319" style="line-height:0%"><tspan class="TextParagraph" font-size="494px" font-weight="700" style="font-family:Arial;font-size:494px;font-weight:700"><tspan class="TextPosition" x="13360.348" y="2471.7681"><tspan style="fill:#000000">Corso</tspan></tspan></tspan></text>
<path d="m16832 2686.8h-1378v-827h2756v827h-1378z" style="fill-opacity:.349;fill:#f00;stroke-opacity:.349;stroke:#fff"/><path d="m16832 2686.8h-1378v-827h2756v827h-1378z" style="fill:none;stroke:#000"/><text class="TextShape" x="-4387.6528" y="-4478.2319" style="line-height:0%"><tspan class="TextParagraph" font-size="494px" font-weight="700" style="font-family:Arial;font-size:494px;font-weight:700"><tspan class="TextPosition" x="15949.348" y="2471.7681"><tspan style="fill:#000000">Nascita</tspan></tspan></tspan></text>
<path d="m5808.3 3237.8h-1378v-551h2756v551h-1378z" style="fill-opacity:.349;fill:#ff0;stroke-opacity:.349;stroke:#fff"/><path d="m5808.3 3237.8h-1378v-551h2756v551h-1378z" style="fill:none;stroke:#000"/><text class="TextShape" x="-4387.6528" y="-4478.2319" style="line-height:0%"><tspan class="TextParagraph" font-size="423px" font-weight="400" style="font-family:Arial;font-size:423px;font-weight:400"><tspan class="TextPosition" x="5215.3472" y="3131.7681"><tspan style="fill:#000000">27655</tspan></tspan></tspan></text>
<path d="m8564.3 3237.8h-1378v-551h2756v551h-1378z" style="fill-opacity:.349;fill:#ff0;stroke-opacity:.349;stroke:#fff"/><path d="m8564.3 3237.8h-1378v-551h2756v551h-1378z" style="fill:none;stroke:#000"/><text class="TextShape" x="-4387.6528" y="-4478.2319" style="line-height:0%"><tspan class="TextParagraph" font-size="423px" font-weight="400" style="font-family:Arial;font-size:423px;font-weight:400"><tspan class="TextPosition" x="8035.3472" y="3131.7681"><tspan style="fill:#000000">Rossi</tspan></tspan></tspan></text>
<path d="m11320 3237.8h-1378v-551h2756v551h-1378z" style="fill-opacity:.349;fill:#ff0;stroke-opacity:.349;stroke:#fff"/><path d="m11320 3237.8h-1378v-551h2756v551h-1378z" style="fill:none;stroke:#000"/><text class="TextShape" x="-4387.6528" y="-4478.2319" style="line-height:0%"><tspan class="TextParagraph" font-size="423px" font-weight="400" style="font-family:Arial;font-size:423px;font-weight:400"><tspan class="TextPosition" x="10791.348" y="3131.7681"><tspan style="fill:#000000">Mario</tspan></tspan></tspan></text>
<path d="m14076 3237.8h-1378v-551h2756v551h-1378z" style="fill-opacity:.349;fill:#ff0;stroke-opacity:.349;stroke:#fff"/><path d="m14076 3237.8h-1378v-551h2756v551h-1378z" style="fill:none;stroke:#000"/><text class="TextShape" x="-4387.6528" y="-4478.2319" style="line-height:0%"><tspan class="TextParagraph" font-size="423px" font-weight="400" style="font-family:Arial;font-size:423px;font-weight:400"><tspan class="TextPosition" x="13424.348" y="3131.7681"><tspan style="fill:#000000">Ing.Inf.</tspan></tspan></tspan></text>
<path d="m16832 3237.8h-1378v-551h2756v551h-1378z" style="fill-opacity:.349;fill:#ff0;stroke-opacity:.349;stroke:#fff"/><path d="m16832 3237.8h-1378v-551h2756v551h-1378z" style="fill:none;stroke:#000"/><text class="TextShape" x="-4387.6528" y="-4478.2319" style="line-height:0%"><tspan class="TextParagraph" font-size="423px" font-weight="400" style="font-family:Arial;font-size:423px;font-weight:400"><tspan class="TextPosition" x="15744.348" y="3131.7681"><tspan style="fill:#000000">1978-12-05</tspan></tspan></tspan></text>
<path d="m5808.3 3788.8h-1378v-551h2756v551h-1378z" style="fill-opacity:.349;fill:#ff0;stroke-opacity:.349;stroke:#fff"/><path d="m5808.3 3788.8h-1378v-551h2756v551h-1378z" style="fill:none;stroke:#000"/><text class="TextShape" x="-4387.6528" y="-4478.2319" style="line-height:0%"><tspan class="TextParagraph" font-size="423px" font-weight="400" style="font-family:Arial;font-size:423px;font-weight:400"><tspan class="TextPosition" x="5215.3472" y="3682.7681"><tspan style="fill:#000000">78763</tspan></tspan></tspan></text>
<path d="m8564.3 3788.8h-1378v-551h2756v551h-1378z" style="fill-opacity:.349;fill:#ff0;stroke-opacity:.349;stroke:#fff"/><path d="m8564.3 3788.8h-1378v-551h2756v551h-1378z" style="fill:none;stroke:#000"/><text class="TextShape" x="-4387.6528" y="-4478.2319" style="line-height:0%"><tspan class="TextParagraph" font-size="423px" font-weight="400" style="font-family:Arial;font-size:423px;font-weight:400"><tspan class="TextPosition" x="8035.3472" y="3682.7681"><tspan style="fill:#000000">Rossi</tspan></tspan></tspan></text>
<path d="m11320 3788.8h-1378v-551h2756v551h-1378z" style="fill-opacity:.349;fill:#ff0;stroke-opacity:.349;stroke:#fff"/><path d="m11320 3788.8h-1378v-551h2756v551h-1378z" style="fill:none;stroke:#000"/><text class="TextShape" x="-4387.6528" y="-4478.2319" style="line-height:0%"><tspan class="TextParagraph" font-size="423px" font-weight="400" style="font-family:Arial;font-size:423px;font-weight:400"><tspan class="TextPosition" x="10791.348" y="3682.7681"><tspan style="fill:#000000">Mario</tspan></tspan></tspan></text>
<path d="m14076 3788.8h-1378v-551h2756v551h-1378z" style="fill-opacity:.349;fill:#ff0;stroke-opacity:.349;stroke:#fff"/><path d="m14076 3788.8h-1378v-551h2756v551h-1378z" style="fill:none;stroke:#000"/><text class="TextShape" x="-4387.6528" y="-4478.2319" style="line-height:0%"><tspan class="TextParagraph" font-size="423px" font-weight="400" style="font-family:Arial;font-size:423px;font-weight:400"><tspan class="TextPosition" x="13424.348" y="3682.7681"><tspan style="fill:#000000">Ing.Inf.</tspan></tspan></tspan></text>
<path d="m16832 3788.8h-1378v-551h2756v551h-1378z" style="fill-opacity:.349;fill:#ff0;stroke-opacity:.349;stroke:#fff"/><path d="m16832 3788.8h-1378v-551h2756v551h-1378z" style="fill:none;stroke:#000"/><text class="TextShape" x="-4387.6528" y="-4478.2319" style="line-height:0%"><tspan class="TextParagraph" font-size="423px" font-weight="400" style="font-family:Arial;font-size:423px;font-weight:400"><tspan class="TextPosition" x="15744.348" y="3682.7681"><tspan style="fill:#000000">1976-11-03</tspan></tspan></tspan></text>
<path d="m5808.3 4339.8h-1378v-551h2756v551h-1378z" style="fill-opacity:.349;fill:#ff0;stroke-opacity:.349;stroke:#fff"/><path d="m5808.3 4339.8h-1378v-551h2756v551h-1378z" style="fill:none;stroke:#000"/><text class="TextShape" x="-4387.6528" y="-4478.2319" style="line-height:0%"><tspan class="TextParagraph" font-size="423px" font-weight="400" style="font-family:Arial;font-size:423px;font-weight:400"><tspan class="TextPosition" x="5215.3472" y="4233.7681"><tspan style="fill:#000000">65432</tspan></tspan></tspan></text>
<path d="m8564.3 4339.8h-1378v-551h2756v551h-1378z" style="fill-opacity:.349;fill:#ff0;stroke-opacity:.349;stroke:#fff"/><path d="m8564.3 4339.8h-1378v-551h2756v551h-1378z" style="fill:none;stroke:#000"/><text class="TextShape" x="-4387.6528" y="-4478.2319" style="line-height:0%"><tspan class="TextParagraph" font-size="423px" font-weight="400" style="font-family:Arial;font-size:423px;font-weight:400"><tspan class="TextPosition" x="8176.3472" y="4233.7681"><tspan style="fill:#000000">Neri</tspan></tspan></tspan></text>
<path d="m11320 4339.8h-1378v-551h2756v551h-1378z" style="fill-opacity:.349;fill:#ff0;stroke-opacity:.349;stroke:#fff"/><path d="m11320 4339.8h-1378v-551h2756v551h-1378z" style="fill:none;stroke:#000"/><text class="TextShape" x="-4387.6528" y="-4478.2319" style="line-height:0%"><tspan class="TextParagraph" font-size="423px" font-weight="400" style="font-family:Arial;font-size:423px;font-weight:400"><tspan class="TextPosition" x="10824.348" y="4233.7681"><tspan style="fill:#000000">Piero</tspan></tspan></tspan></text>
<path d="m14076 4339.8h-1378v-551h2756v551h-1378z" style="fill-opacity:.349;fill:#ff0;stroke-opacity:.349;stroke:#fff"/><path d="m14076 4339.8h-1378v-551h2756v551h-1378z" style="fill:none;stroke:#000"/><text class="TextShape" x="-4387.6528" y="-4478.2319" style="line-height:0%"><tspan class="TextParagraph" font-size="423px" font-weight="400" style="font-family:Arial;font-size:423px;font-weight:400"><tspan class="TextPosition" x="13096.348" y="4233.7681"><tspan style="fill:#000000">Ing. Mecc.</tspan></tspan></tspan></text>
<path d="m16832 4339.8h-1378v-551h2756v551h-1378z" style="fill-opacity:.349;fill:#ff0;stroke-opacity:.349;stroke:#fff"/><path d="m16832 4339.8h-1378v-551h2756v551h-1378z" style="fill:none;stroke:#000"/><text class="TextShape" x="-4387.6528" y="-4478.2319" style="line-height:0%"><tspan class="TextParagraph" font-size="423px" font-weight="400" style="font-family:Arial;font-size:423px;font-weight:400"><tspan class="TextPosition" x="15744.348" y="4233.7681"><tspan style="fill:#000000">1979-07-10</tspan></tspan></tspan></text>
<path d="m5808.3 4890.8h-1378v-551h2756v551h-1378z" style="fill-opacity:.349;fill:#ff0;stroke-opacity:.349;stroke:#fff"/><path d="m5808.3 4890.8h-1378v-551h2756v551h-1378z" style="fill:none;stroke:#000"/><text class="TextShape" x="-4387.6528" y="-4478.2319" style="line-height:0%"><tspan class="TextParagraph" font-size="423px" font-weight="400" style="font-family:Arial;font-size:423px;font-weight:400"><tspan class="TextPosition" x="5215.3472" y="4784.7681"><tspan style="fill:#000000">87654</tspan></tspan></tspan></text>
<path d="m8564.3 4890.8h-1378v-551h2756v551h-1378z" style="fill-opacity:.349;fill:#ff0;stroke-opacity:.349;stroke:#fff"/><path d="m8564.3 4890.8h-1378v-551h2756v551h-1378z" style="fill:none;stroke:#000"/><text class="TextShape" x="-4387.6528" y="-4478.2319" style="line-height:0%"><tspan class="TextParagraph" font-size="423px" font-weight="400" style="font-family:Arial;font-size:423px;font-weight:400"><tspan class="TextPosition" x="8176.3472" y="4784.7681"><tspan style="fill:#000000">Neri</tspan></tspan></tspan></text>
<path d="m11320 4890.8h-1378v-551h2756v551h-1378z" style="fill-opacity:.349;fill:#ff0;stroke-opacity:.349;stroke:#fff"/><path d="m11320 4890.8h-1378v-551h2756v551h-1378z" style="fill:none;stroke:#000"/><text class="TextShape" x="-4387.6528" y="-4478.2319" style="line-height:0%"><tspan class="TextParagraph" font-size="423px" font-weight="400" style="font-family:Arial;font-size:423px;font-weight:400"><tspan class="TextPosition" x="10791.348" y="4784.7681"><tspan style="fill:#000000">Mario</tspan></tspan></tspan></text>
<path d="m14076 4890.8h-1378v-551h2756v551h-1378z" style="fill-opacity:.349;fill:#ff0;stroke-opacity:.349;stroke:#fff"/><path d="m14076 4890.8h-1378v-551h2756v551h-1378z" style="fill:none;stroke:#000"/><text class="TextShape" x="-4387.6528" y="-4478.2319" style="line-height:0%"><tspan class="TextParagraph" font-size="423px" font-weight="400" style="font-family:Arial;font-size:423px;font-weight:400"><tspan class="TextPosition" x="13365.348" y="4784.7681"><tspan style="fill:#000000">Ing. Inf.</tspan></tspan></tspan></text>
<path d="m16832 4890.8h-1378v-551h2756v551h-1378z" style="fill-opacity:.349;fill:#ff0;stroke-opacity:.349;stroke:#fff"/><path d="m16832 4890.8h-1378v-551h2756v551h-1378z" style="fill:none;stroke:#000"/><text class="TextShape" x="-4387.6528" y="-4478.2319" style="line-height:0%"><tspan class="TextParagraph" font-size="423px" font-weight="400" style="font-family:Arial;font-size:423px;font-weight:400"><tspan class="TextPosition" x="15744.348" y="4784.7681"><tspan style="fill:#000000">1976-11-03</tspan></tspan></tspan></text>
<path d="m5808.3 5441.8h-1378v-551h2756v551h-1378z" style="fill-opacity:.349;fill:#ff0;stroke-opacity:.349;stroke:#fff"/><path d="m5808.3 5441.8h-1378v-551h2756v551h-1378z" style="fill:none;stroke:#000"/><text class="TextShape" x="-4387.6528" y="-4478.2319" style="line-height:0%"><tspan class="TextParagraph" font-size="423px" font-weight="400" style="font-family:Arial;font-size:423px;font-weight:400"><tspan class="TextPosition" x="5215.3472" y="5335.7681"><tspan style="fill:#000000">67653</tspan></tspan></tspan></text>
<path d="m8564.3 5441.8h-1378v-551h2756v551h-1378z" style="fill-opacity:.349;fill:#ff0;stroke-opacity:.349;stroke:#fff"/><path d="m8564.3 5441.8h-1378v-551h2756v551h-1378z" style="fill:none;stroke:#000"/><text class="TextShape" x="-4387.6528" y="-4478.2319" style="line-height:0%"><tspan class="TextParagraph" font-size="423px" font-weight="400" style="font-family:Arial;font-size:423px;font-weight:400"><tspan class="TextPosition" x="8035.3472" y="5335.7681"><tspan style="fill:#000000">Rossi</tspan></tspan></tspan></text>
<path d="m11320 5441.8h-1378v-551h2756v551h-1378z" style="fill-opacity:.349;fill:#ff0;stroke-opacity:.349;stroke:#fff"/><path d="m11320 5441.8h-1378v-551h2756v551h-1378z" style="fill:none;stroke:#000"/><text class="TextShape" x="-4387.6528" y="-4478.2319" style="line-height:0%"><tspan class="TextParagraph" font-size="423px" font-weight="400" style="font-family:Arial;font-size:423px;font-weight:400"><tspan class="TextPosition" x="10824.348" y="5335.7681"><tspan style="fill:#000000">Piero</tspan></tspan></tspan></text>
<path d="m14076 5441.8h-1378v-551h2756v551h-1378z" style="fill-opacity:.349;fill:#ff0;stroke-opacity:.349;stroke:#fff"/><path d="m14076 5441.8h-1378v-551h2756v551h-1378z" style="fill:none;stroke:#000"/><text class="TextShape" x="-4387.6528" y="-4478.2319" style="line-height:0%"><tspan class="TextParagraph" font-size="423px" font-weight="400" style="font-family:Arial;font-size:423px;font-weight:400"><tspan class="TextPosition" x="13096.348" y="5335.7681"><tspan style="fill:#000000">Ing. Mecc.</tspan></tspan></tspan></text>
<path d="m16832 5441.8h-1378v-551h2756v551h-1378z" style="fill-opacity:.349;fill:#ff0;stroke-opacity:.349;stroke:#fff"/><path d="m16832 5441.8h-1378v-551h2756v551h-1378z" style="fill:none;stroke:#000"/><text class="TextShape" x="-4387.6528" y="-4478.2319" style="line-height:0%"><tspan class="TextParagraph" font-size="423px" font-weight="400" style="font-family:Arial;font-size:423px;font-weight:400"><tspan class="TextPosition" x="15744.348" y="5335.7681"><tspan style="fill:#000000">1978-12-05</tspan></tspan></tspan></text>
<path d="m2501.3 9025.8h-1929v-827h3858v827h-1929z" style="fill-opacity:.349;fill:#fff;stroke-opacity:.349;stroke:#fff"/><path d="m2501.3 9025.8h-1929v-827h3858v827h-1929z" style="fill:none;stroke:#000"/><text class="TextShape" x="-4387.6528" y="-4478.2319" style="line-height:0%"><tspan class="TextParagraph" font-size="494px" font-style="italic" font-weight="400" style="font-family:Arial;font-size:494px;font-style:italic;font-weight:400"><tspan class="TextPosition" x="1730.3472" y="8810.7686"><tspan style="fill:#000000">Esame</tspan></tspan></tspan></text>
<path d="m1950.3 9851.8h-1378v-827h2756v827h-1378z" style="fill-opacity:.349;fill:#f00;stroke-opacity:.349;stroke:#fff"/><path d="m1950.3 9851.8h-1378v-827h2756v827h-1378z" style="fill:none;stroke:#000"/><text class="TextShape" x="-4387.6528" y="-4478.2319" style="line-height:0%"><tspan class="TextParagraph" font-size="494px" font-weight="700" style="font-family:Arial;font-size:494px;font-weight:700"><tspan class="TextPosition" x="894.34723" y="9636.7686"><tspan style="fill:#000000">Studente</tspan></tspan></tspan></text>
<path d="m4706.3 9851.8h-1378v-827h2756v827h-1378z" style="fill-opacity:.349;fill:#f00;stroke-opacity:.349;stroke:#fff"/><path d="m4706.3 9851.8h-1378v-827h2756v827h-1378z" style="fill:none;stroke:#000"/><text class="TextShape" x="-4387.6528" y="-4478.2319" style="line-height:0%"><tspan class="TextParagraph" font-size="494px" font-weight="700" style="font-family:Arial;font-size:494px;font-weight:700"><tspan class="TextPosition" x="3552.3472" y="9636.7686"><tspan style="fill:#000000">Insegnam</tspan></tspan></tspan></text>
<path d="m7462.3 9851.8h-1378v-827h2756v827h-1378z" style="fill-opacity:.349;fill:#f00;stroke-opacity:.349;stroke:#fff"/><path d="m7462.3 9851.8h-1378v-827h2756v827h-1378z" style="fill:none;stroke:#000"/><text class="TextShape" x="-4387.6528" y="-4478.2319" style="line-height:0%"><tspan class="TextParagraph" font-size="494px" font-weight="700" style="font-family:Arial;font-size:494px;font-weight:700"><tspan class="TextPosition" x="6914.3472" y="9636.7686"><tspan style="fill:#000000">Voto</tspan></tspan></tspan></text>
<path d="m1950.3 10403h-1378v-551h2756v551h-1378z" style="fill-opacity:.349;fill:#ff0;stroke-opacity:.349;stroke:#fff"/><path d="m1950.3 10403h-1378v-551h2756v551h-1378z" style="fill:none;stroke:#000"/><text class="TextShape" x="-4387.6528" y="-4478.2319" style="line-height:0%"><tspan class="TextParagraph" font-size="423px" font-weight="400" style="font-family:Arial;font-size:423px;font-weight:400"><tspan class="TextPosition" x="1357.3472" y="10296.769"><tspan style="fill:#000000">78763</tspan></tspan></tspan></text>
<path d="m4706.3 10403h-1378v-551h2756v551h-1378z" style="fill-opacity:.349;fill:#ff0;stroke-opacity:.349;stroke:#fff"/><path d="m4706.3 10403h-1378v-551h2756v551h-1378z" style="fill:none;stroke:#000"/><text class="TextShape" x="-4387.6528" y="-4478.2319" style="line-height:0%"><tspan class="TextParagraph" font-size="423px" font-weight="400" style="font-family:Arial;font-size:423px;font-weight:400"><tspan class="TextPosition" x="4469.3472" y="10296.769"><tspan style="fill:#000000">04</tspan></tspan></tspan></text>
<path d="m7462.3 10403h-1378v-551h2756v551h-1378z" style="fill-opacity:.349;fill:#ff0;stroke-opacity:.349;stroke:#fff"/><path d="m7462.3 10403h-1378v-551h2756v551h-1378z" style="fill:none;stroke:#000"/><text class="TextShape" x="-4387.6528" y="-4478.2319" style="line-height:0%"><tspan class="TextParagraph" font-size="423px" font-weight="400" style="font-family:Arial;font-size:423px;font-weight:400"><tspan class="TextPosition" x="7225.3472" y="10296.769"><tspan style="fill:#000000">30</tspan></tspan></tspan></text>
<path d="m1950.3 10954h-1378v-551h2756v551h-1378z" style="fill-opacity:.349;fill:#ff0;stroke-opacity:.349;stroke:#fff"/><path d="m1950.3 10954h-1378v-551h2756v551h-1378z" style="fill:none;stroke:#000"/><text class="TextShape" x="-4387.6528" y="-4478.2319" style="line-height:0%"><tspan class="TextParagraph" font-size="423px" font-weight="400" style="font-family:Arial;font-size:423px;font-weight:400"><tspan class="TextPosition" x="1357.3472" y="10847.769"><tspan style="fill:#000000">65432</tspan></tspan></tspan></text>
<path d="m4706.3 10954h-1378v-551h2756v551h-1378z" style="fill-opacity:.349;fill:#ff0;stroke-opacity:.349;stroke:#fff"/><path d="m4706.3 10954h-1378v-551h2756v551h-1378z" style="fill:none;stroke:#000"/><text class="TextShape" x="-4387.6528" y="-4478.2319" style="line-height:0%"><tspan class="TextParagraph" font-size="423px" font-weight="400" style="font-family:Arial;font-size:423px;font-weight:400"><tspan class="TextPosition" x="4469.3472" y="10847.769"><tspan style="fill:#000000">02</tspan></tspan></tspan></text>
<path d="m7462.3 10954h-1378v-551h2756v551h-1378z" style="fill-opacity:.349;fill:#ff0;stroke-opacity:.349;stroke:#fff"/><path d="m7462.3 10954h-1378v-551h2756v551h-1378z" style="fill:none;stroke:#000"/><text class="TextShape" x="-4387.6528" y="-4478.2319" style="line-height:0%"><tspan class="TextParagraph" font-size="423px" font-weight="400" style="font-family:Arial;font-size:423px;font-weight:400"><tspan class="TextPosition" x="7225.3472" y="10847.769"><tspan style="fill:#000000">24</tspan></tspan></tspan></text>
<path d="m1950.3 11505h-1378v-551h2756v551h-1378z" style="fill-opacity:.349;fill:#ff0;stroke-opacity:.349;stroke:#fff"/><path d="m1950.3 11505h-1378v-551h2756v551h-1378z" style="fill:none;stroke:#000"/><text class="TextShape" x="-4387.6528" y="-4478.2319" style="line-height:0%"><tspan class="TextParagraph" font-size="423px" font-weight="400" style="font-family:Arial;font-size:423px;font-weight:400"><tspan class="TextPosition" x="1357.3472" y="11398.769"><tspan style="fill:#000000">65432</tspan></tspan></tspan></text>
<path d="m4706.3 11505h-1378v-551h2756v551h-1378z" style="fill-opacity:.349;fill:#ff0;stroke-opacity:.349;stroke:#fff"/><path d="m4706.3 11505h-1378v-551h2756v551h-1378z" style="fill:none;stroke:#000"/><text class="TextShape" x="-4387.6528" y="-4478.2319" style="line-height:0%"><tspan class="TextParagraph" font-size="423px" font-weight="400" style="font-family:Arial;font-size:423px;font-weight:400"><tspan class="TextPosition" x="4469.3472" y="11398.769"><tspan style="fill:#000000">01</tspan></tspan></tspan></text>
<path d="m7462.3 11505h-1378v-551h2756v551h-1378z" style="fill-opacity:.349;fill:#ff0;stroke-opacity:.349;stroke:#fff"/><path d="m7462.3 11505h-1378v-551h2756v551h-1378z" style="fill:none;stroke:#000"/><text class="TextShape" x="-4387.6528" y="-4478.2319" style="line-height:0%"><tspan class="TextParagraph" font-size="423px" font-weight="400" style="font-family:Arial;font-size:423px;font-weight:400"><tspan class="TextPosition" x="7225.3472" y="11398.769"><tspan style="fill:#000000">28</tspan></tspan></tspan></text>
<path d="m1950.3 12057h-1378v-551h2756v551h-1378z" style="fill-opacity:.349;fill:#ff0;stroke-opacity:.349;stroke:#fff"/><path d="m1950.3 12057h-1378v-551h2756v551h-1378z" style="fill:none;stroke:#000"/><text class="TextShape" x="-4387.6528" y="-4478.2319" style="line-height:0%"><tspan class="TextParagraph" font-size="423px" font-weight="400" style="font-family:Arial;font-size:423px;font-weight:400"><tspan class="TextPosition" x="1357.3472" y="11950.769"><tspan style="fill:#000000">27655</tspan></tspan></tspan></text>
<path d="m4706.3 12057h-1378v-551h2756v551h-1378z" style="fill-opacity:.349;fill:#ff0;stroke-opacity:.349;stroke:#fff"/><path d="m4706.3 12057h-1378v-551h2756v551h-1378z" style="fill:none;stroke:#000"/><text class="TextShape" x="-4387.6528" y="-4478.2319" style="line-height:0%"><tspan class="TextParagraph" font-size="423px" font-weight="400" style="font-family:Arial;font-size:423px;font-weight:400"><tspan class="TextPosition" x="4469.3472" y="11950.769"><tspan style="fill:#000000">01</tspan></tspan></tspan></text>
<path d="m7462.3 12057h-1378v-551h2756v551h-1378z" style="fill-opacity:.349;fill:#ff0;stroke-opacity:.349;stroke:#fff"/><path d="m7462.3 12057h-1378v-551h2756v551h-1378z" style="fill:none;stroke:#000"/><text class="TextShape" x="-4387.6528" y="-4478.2319" style="line-height:0%"><tspan class="TextParagraph" font-size="423px" font-weight="400" style="font-family:Arial;font-size:423px;font-weight:400"><tspan class="TextPosition" x="7225.3472" y="11950.769"><tspan style="fill:#000000">26</tspan></tspan></tspan></text>
<path d="m12422 9025.8h-1929v-827h3858v827h-1929z" style="fill-opacity:.349;fill:#fff;stroke-opacity:.349;stroke:#fff"/><path d="m12422 9025.8h-1929v-827h3858v827h-1929z" style="fill:none;stroke:#000"/><text class="TextShape" x="-4387.6528" y="-4478.2319" style="line-height:0%"><tspan class="TextParagraph" font-size="494px" font-style="italic" font-weight="400" style="font-family:Arial;font-size:494px;font-style:italic;font-weight:400"><tspan class="TextPosition" x="10851.348" y="8810.7686"><tspan style="fill:#000000">Insegnamento</tspan></tspan></tspan></text>
<path d="m11871 9851.8h-1378v-827h2756v827h-1378z" style="fill-opacity:.349;fill:#f00;stroke-opacity:.349;stroke:#fff"/><path d="m11871 9851.8h-1378v-827h2756v827h-1378z" style="fill:none;stroke:#000"/><text class="TextShape" x="-4387.6528" y="-4478.2319" style="line-height:0%"><tspan class="TextParagraph" font-size="494px" font-weight="700" style="font-family:Arial;font-size:494px;font-weight:700"><tspan class="TextPosition" x="11045.348" y="9636.7686"><tspan style="fill:#000000">Codice</tspan></tspan></tspan></text>
<path d="m14627 9851.8h-1378v-827h2756v827h-1378z" style="fill-opacity:.349;fill:#f00;stroke-opacity:.349;stroke:#fff"/><path d="m14627 9851.8h-1378v-827h2756v827h-1378z" style="fill:none;stroke:#000"/><text class="TextShape" x="-4387.6528" y="-4478.2319" style="line-height:0%"><tspan class="TextParagraph" font-size="494px" font-weight="700" style="font-family:Arial;font-size:494px;font-weight:700"><tspan class="TextPosition" x="13954.348" y="9636.7686"><tspan style="fill:#000000">Titolo</tspan></tspan></tspan></text>
<path d="m17383 9851.8h-1378v-827h2756v827h-1378z" style="fill-opacity:.349;fill:#f00;stroke-opacity:.349;stroke:#fff"/><path d="m17383 9851.8h-1378v-827h2756v827h-1378z" style="fill:none;stroke:#000"/><text class="TextShape" x="-4387.6528" y="-4478.2319" style="line-height:0%"><tspan class="TextParagraph" font-size="494px" font-weight="700" style="font-family:Arial;font-size:494px;font-weight:700"><tspan class="TextPosition" x="16407.348" y="9636.7686"><tspan style="fill:#000000">Docente</tspan></tspan></tspan></text>
<path d="m11871 10403h-1378v-551h2756v551h-1378z" style="fill-opacity:.349;fill:#ff0;stroke-opacity:.349;stroke:#fff"/><path d="m11871 10403h-1378v-551h2756v551h-1378z" style="fill:none;stroke:#000"/><text class="TextShape" x="-4387.6528" y="-4478.2319" style="line-height:0%"><tspan class="TextParagraph" font-size="423px" font-weight="400" style="font-family:Arial;font-size:423px;font-weight:400"><tspan class="TextPosition" x="11634.348" y="10296.769"><tspan style="fill:#000000">01</tspan></tspan></tspan></text>
<path d="m14627 10403h-1378v-551h2756v551h-1378z" style="fill-opacity:.349;fill:#ff0;stroke-opacity:.349;stroke:#fff"/><path d="m14627 10403h-1378v-551h2756v551h-1378z" style="fill:none;stroke:#000"/><text class="TextShape" x="-4387.6528" y="-4478.2319" style="line-height:0%"><tspan class="TextParagraph" font-size="423px" font-weight="400" style="font-family:Arial;font-size:423px;font-weight:400"><tspan class="TextPosition" x="14002.348" y="10296.769"><tspan style="fill:#000000">Analisi</tspan></tspan></tspan></text>
<path d="m17383 10403h-1378v-551h2756v551h-1378z" style="fill-opacity:.349;fill:#ff0;stroke-opacity:.349;stroke:#fff"/><path d="m17383 10403h-1378v-551h2756v551h-1378z" style="fill:none;stroke:#000"/><text class="TextShape" x="-4387.6528" y="-4478.2319" style="line-height:0%"><tspan class="TextParagraph" font-size="423px" font-weight="400" style="font-family:Arial;font-size:423px;font-weight:400"><tspan class="TextPosition" x="16830.348" y="10296.769"><tspan style="fill:#000000">Chiari</tspan></tspan></tspan></text>
<path d="m11871 10954h-1378v-551h2756v551h-1378z" style="fill-opacity:.349;fill:#ff0;stroke-opacity:.349;stroke:#fff"/><path d="m11871 10954h-1378v-551h2756v551h-1378z" style="fill:none;stroke:#000"/><text class="TextShape" x="-4387.6528" y="-4478.2319" style="line-height:0%"><tspan class="TextParagraph" font-size="423px" font-weight="400" style="font-family:Arial;font-size:423px;font-weight:400"><tspan class="TextPosition" x="11634.348" y="10847.769"><tspan style="fill:#000000">02</tspan></tspan></tspan></text>
<path d="m14627 10954h-1378v-551h2756v551h-1378z" style="fill-opacity:.349;fill:#ff0;stroke-opacity:.349;stroke:#fff"/><path d="m14627 10954h-1378v-551h2756v551h-1378z" style="fill:none;stroke:#000"/><text class="TextShape" x="-4387.6528" y="-4478.2319" style="line-height:0%"><tspan class="TextParagraph" font-size="423px" font-weight="400" style="font-family:Arial;font-size:423px;font-weight:400"><tspan class="TextPosition" x="13863.348" y="10847.769"><tspan style="fill:#000000">Chimica</tspan></tspan></tspan></text>
<path d="m17383 10954h-1378v-551h2756v551h-1378z" style="fill-opacity:.349;fill:#ff0;stroke-opacity:.349;stroke:#fff"/><path d="m17383 10954h-1378v-551h2756v551h-1378z" style="fill:none;stroke:#000"/><text class="TextShape" x="-4387.6528" y="-4478.2319" style="line-height:0%"><tspan class="TextParagraph" font-size="423px" font-weight="400" style="font-family:Arial;font-size:423px;font-weight:400"><tspan class="TextPosition" x="16887.348" y="10847.769"><tspan style="fill:#000000">Bruni</tspan></tspan></tspan></text>
<path d="m11871 11505h-1378v-551h2756v551h-1378z" style="fill-opacity:.349;fill:#ff0;stroke-opacity:.349;stroke:#fff"/><path d="m11871 11505h-1378v-551h2756v551h-1378z" style="fill:none;stroke:#000"/><text class="TextShape" x="-4387.6528" y="-4478.2319" style="line-height:0%"><tspan class="TextParagraph" font-size="423px" font-weight="400" style="font-family:Arial;font-size:423px;font-weight:400"><tspan class="TextPosition" x="11634.348" y="11398.769"><tspan style="fill:#000000">04</tspan></tspan></tspan></text>
<path d="m14627 11505h-1378v-551h2756v551h-1378z" style="fill-opacity:.349;fill:#ff0;stroke-opacity:.349;stroke:#fff"/><path d="m14627 11505h-1378v-551h2756v551h-1378z" style="fill:none;stroke:#000"/><text class="TextShape" x="-4387.6528" y="-4478.2319" style="line-height:0%"><tspan class="TextParagraph" font-size="423px" font-weight="400" style="font-family:Arial;font-size:423px;font-weight:400"><tspan class="TextPosition" x="13863.348" y="11398.769"><tspan style="fill:#000000">Chimica</tspan></tspan></tspan></text>
<path d="m17383 11505h-1378v-551h2756v551h-1378z" style="fill-opacity:.349;fill:#ff0;stroke-opacity:.349;stroke:#fff"/><path d="m17383 11505h-1378v-551h2756v551h-1378z" style="fill:none;stroke:#000"/><text class="TextShape" x="-4387.6528" y="-4478.2319" style="line-height:0%"><tspan class="TextParagraph" font-size="423px" font-weight="400" style="font-family:Arial;font-size:423px;font-weight:400"><tspan class="TextPosition" x="16887.348" y="11398.769"><tspan style="fill:#000000">Verdi</tspan></tspan></tspan></text>
<path d="m1950.3 13159c-305 0-564-116-827-369-264-254-453-570-605-1009-153-439-222-871-222-1378 0-507 69-939 222-1378 152-439 341-755 605-1009 263-253 522-369 826-369 305 0 564 116 827 369 264 254 453 570 605 1009 153 439 222 871 222 1378 0 507-69 939-222 1378-152 439-341 755-605 1009-263 253-522 369-826 369z" style="fill-opacity:.251;fill:#800080;stroke-opacity:.251;stroke:#fff"/><path d="m1950.3 13159c-175 0-335-38-489-119" style="fill:none;stroke:#800080"/><path d="m1062.3 12729c-114-120-214-253-303-406" style="fill:none;stroke:#800080"/><path d="m547.35 11862c-10-26-20-53-29-81-47-135-86-269-118-405" style="fill:none;stroke:#800080"/><path d="m318.35 10875c-15-151-22-308-22-472v-36" style="fill:none;stroke:#800080"/><path d="m326.35 9859.8c20-171 50-336 91-499" style="fill:none;stroke:#800080"/><path d="m572.35 8876.8c67-170 140-320 224-455" style="fill:none;stroke:#800080"/><path d="m1112.3 8025.8c4-3 7-6 11-10 133-128 265-221 402-281" style="fill:none;stroke:#800080"/><path d="m2021.3 7648.8c170 11 327 60 479 151" style="fill:none;stroke:#800080"/><path d="m2885.3 8129.8c110 122 205 259 290 416" style="fill:none;stroke:#800080"/><path d="m3377.3 9010.8c1 5 3 9 4 14 55 158 99 315 133 475" style="fill:none;stroke:#800080"/><path d="m3587.3 10002c11 129 16 262 16 401 0 36 0 72-1 108" style="fill:none;stroke:#800080"/><path d="m3564.3 11017c-23 170-56 334-100 497" style="fill:none;stroke:#800080"/><path d="m3300.3 11995c-70 168-147 316-235 449" style="fill:none;stroke:#800080"/><path d="m2734.3 12829c-140 127-280 216-426 269" style="fill:none;stroke:#800080"/><path d="m5809.3 6544.8c-305 0-564-127-827-406-264-279-453-626-605-1110-153-483-222-957-222-1515 0-559 69-1033 222-1516 152-484 341-831 605-1110 263-279 522-406 827-406 304 0 563 127 826 406 264 279 453 626 605 1110 153 483 222 957 222 1515 0 559-69 1033-222 1516-152 484-341 831-605 1110-263 279-522 406-826 406z" style="fill-opacity:.251;fill:#800080;stroke-opacity:.251;stroke:#fff"/><path d="m5809.3 6544.8c-174 0-333-41-486-128" style="fill:none;stroke:#800080"/><path d="m4937.3 6089.8c-110-123-206-260-292-415" style="fill:none;stroke:#800080"/><path d="m4438.3 5211.8c-21-59-42-119-61-183-32-101-61-202-85-304" style="fill:none;stroke:#800080"/><path d="m4199.3 4225.8c-22-163-35-330-41-506" style="fill:none;stroke:#800080"/><path d="m4162.3 3211.8c9-175 25-342 50-505" style="fill:none;stroke:#800080"/><path d="m4315.3 2209.8c19-71 39-141 62-212 30-96 61-186 94-272" style="fill:none;stroke:#800080"/><path d="m4693.3 1269.8c85-142 181-268 289-382 6-7 13-14 20-21" style="fill:none;stroke:#800080"/><path d="m5408.3 566.77c127-57 259-85 401-85 32 0 63 1 94 4" style="fill:none;stroke:#800080"/><path d="m6374.3 660.77c88 60 174 135 261 227 37 39 73 80 107 121" style="fill:none;stroke:#800080"/><path d="m7016.3 1434.8c71 141 135 296 194 469" style="fill:none;stroke:#800080"/><path d="m7347.3 2393.8c36 164 64 330 83 501" style="fill:none;stroke:#800080"/><path d="m7461.3 3400.8c1 37 1 75 1 112 0 137-4 269-13 397" style="fill:none;stroke:#800080"/><path d="m7390.3 4413.8c-29 167-66 331-113 495" style="fill:none;stroke:#800080"/><path d="m7110.3 5388.8c-71 167-149 315-236 449" style="fill:none;stroke:#800080"/><path d="m6548.3 6225.8c-140 130-279 219-427 269" style="fill:none;stroke:#800080"/><path d="m11872 12608c-305 0-564-104-827-332-264-229-453-513-605-908-153-396-222-784-222-1240 0-457 69-845 222-1241 152-395 341-679 605-908 263-228 522-332 827-332 304 0 563 104 826 332 264 229 453 513 605 908 153 396 222 784 222 1240 0 457-69 845-222 1241-152 395-341 679-605 908-263 228-522 332-826 332z" style="fill-opacity:.251;fill:#008000;stroke-opacity:.251;stroke:#fff"/><path d="m11872 12608c-176 0-337-35-492-108" style="fill:none;stroke:#008000"/><path d="m10968 12205c-120-115-224-245-315-396" style="fill:none;stroke:#008000"/><path d="m10433 11351c-61-161-108-322-143-486" style="fill:none;stroke:#008000"/><path d="m10224 10362c-4-77-6-154-6-234 0-94 3-186 9-274" style="fill:none;stroke:#008000"/><path d="m10298 9350.8c35-156 82-309 142-464 2-7 5-14 8-21" style="fill:none;stroke:#008000"/><path d="m10674 8411.8c93-148 200-276 323-390" style="fill:none;stroke:#008000"/><path d="m11416 7738.8c144-62 293-92 456-92 13 0 26 0 40 1" style="fill:none;stroke:#008000"/><path d="m12399 7772.8c101 52 200 120 299 206 37 32 72 65 106 99" style="fill:none;stroke:#008000"/><path d="m13111 8479.8c71 122 134 256 192 407 7 18 14 36 21 54" style="fill:none;stroke:#008000"/><path d="m13461 9429.8c32 161 51 328 60 503" style="fill:none;stroke:#008000"/><path d="m13513 10442c-13 173-39 339-77 501" style="fill:none;stroke:#008000"/><path d="m13280 11427c-69 169-145 318-232 450" style="fill:none;stroke:#008000"/><path d="m12716 12260c-6 5-12 10-18 16-135 117-269 201-408 256" style="fill:none;stroke:#008000"/><path d="m4706.3 13159c-305 0-564-116-827-369-264-254-453-570-605-1009-153-439-222-871-222-1378 0-507 69-939 222-1378 152-439 341-755 605-1009 263-253 522-369 827-369 304 0 563 116 826 369 264 254 453 570 605 1009 153 439 222 871 222 1378 0 507-69 939-222 1378-152 439-341 755-605 1009-263 253-522 369-826 369z" style="fill-opacity:.251;fill:#008000;stroke-opacity:.251;stroke:#fff"/><path d="m4706.3 13159c-175 0-335-38-489-119" style="fill:none;stroke:#008000"/><path d="m3818.3 12729c-114-120-214-253-303-406" style="fill:none;stroke:#008000"/><path d="m3303.3 11862c-10-26-20-53-29-81-47-135-86-269-118-405" style="fill:none;stroke:#008000"/><path d="m3074.3 10875c-15-151-22-308-22-472v-36" style="fill:none;stroke:#008000"/><path d="m3082.3 9859.8c20-171 50-336 91-499" style="fill:none;stroke:#008000"/><path d="m3328.3 8876.8c67-170 140-320 224-455" style="fill:none;stroke:#008000"/><path d="m3868.3 8025.8c4-3 7-6 11-10 133-128 265-221 402-281" style="fill:none;stroke:#008000"/><path d="m4777.3 7648.8c170 11 327 60 479 151" style="fill:none;stroke:#008000"/><path d="m5641.3 8129.8c110 122 205 259 290 416" style="fill:none;stroke:#008000"/><path d="m6133.3 9010.8c1 5 3 9 4 14 55 158 99 315 133 475" style="fill:none;stroke:#008000"/><path d="m6343.3 10002c11 129 16 262 16 401 0 36 0 72-1 108" style="fill:none;stroke:#008000"/><path d="m6320.3 11017c-23 170-56 334-100 497" style="fill:none;stroke:#008000"/><path d="m6056.3 11995c-70 168-147 316-235 449" style="fill:none;stroke:#008000"/><path d="m5490.3 12829c-140 127-280 216-426 269" style="fill:none;stroke:#008000"/><path d="m1949.3 7646.8c0-178 3-351 9-517" style="fill:none;stroke:#800080"/><path d="m1988.3 6622.8c14-173 32-339 54-498" style="fill:none;stroke:#800080"/><path d="m2129.3 5621.8c38-176 81-340 130-493" style="fill:none;stroke:#800080"/><path d="m2445.3 4656.8c77-162 164-306 260-433" style="fill:none;stroke:#800080"/><path d="m3058.3 3862.8c135-104 283-185 443-243" style="fill:none;stroke:#800080"/><path d="m3996.3 3518.8c52-4 105-6 159-6" style="fill:none;stroke:#800080"/><path d="m4705.3 7646.8c0-113 133-210 364-292" style="fill:none;stroke:#008000"/><path d="m5577.3 7224.8c153-29 321-55 502-77" style="fill:none;stroke:#008000"/><path d="m6585.3 7094.8c166-14 339-26 516-36" style="fill:none;stroke:#008000"/><path d="m7609.3 7037.8c169-5 340-8 511-9" style="fill:none;stroke:#008000"/><path d="m8634.3 7030.8c171 2 341 7 508 13" style="fill:none;stroke:#008000"/><path d="m9658.3 7069.8c174 12 342 25 504 41" style="fill:none;stroke:#008000"/><path d="m10681 7171.8c177 26 339 55 483 87" style="fill:none;stroke:#008000"/><path d="m11649 7412.8c142 69 222 147 222 234" style="fill:none;stroke:#008000"/><text class="TextShape" x="-4387.6528" y="-4478.2319" style="line-height:0%"><tspan class="TextParagraph" font-size="635px" font-weight="400" style="font-family:Arial;font-size:635px;font-weight:400"><tspan class="TextPosition" x="6762.3472" y="736.76813"><tspan style="fill:#800080">PK</tspan></tspan></tspan></text>
<text class="TextShape" x="-4387.6528" y="-4478.2319" style="line-height:0%"><tspan class="TextParagraph" font-size="635px" font-weight="400" style="font-family:Arial;font-size:635px;font-weight:400"><tspan class="TextPosition" x="12702.348" y="7901.7681"><tspan style="fill:#008000">PK</tspan></tspan></tspan></text>
<path d="m6084.3 13158c0 276-229 552-459 552h-1838c-229 0-459 276-459 552 0-276-230-552-459-552h-1838c-230 0-460-276-460-552" style="fill:none;stroke:#800000"/><path d="m6084.3 13158" style="fill:none;stroke:#800000"/><path d="m571.35 14262" style="fill:none;stroke:#800000"/><text class="TextShape" x="-4387.6528" y="-4478.2319" style="line-height:0%"><tspan class="TextParagraph" font-size="635px" font-weight="400" style="font-family:Arial;font-size:635px;font-weight:400"><tspan class="TextPosition" x="2904.3472" y="15066.769"><tspan style="fill:#800000">PK</tspan></tspan></tspan></text>
<text class="TextShape" x="-4387.6528" y="-4478.2319" style="line-height:0%"><tspan class="TextParagraph" font-size="635px" font-weight="400" style="font-family:Arial;font-size:635px;font-weight:400"><tspan class="TextPosition" x="2921.3472" y="7901.7681"><tspan style="fill:#800080">FK</tspan></tspan></tspan></text>
<text class="TextShape" x="-4387.6528" y="-4478.2319" style="line-height:0%"><tspan class="TextParagraph" font-size="635px" font-weight="400" style="font-family:Arial;font-size:635px;font-weight:400"><tspan class="TextPosition" x="5571.3472" y="7901.7681"><tspan style="fill:#008000">FK</tspan></tspan></tspan></text>
</svg>
