<?xml version="1.0" encoding="UTF-8"?>
<svg width="340" height="85.8" fill="none" version="1.1" viewBox="0 0 340 85.8" xmlns="http://www.w3.org/2000/svg">
 <g fill="#00684a">
  <path d="m25.4 8.84c-3.33-3.95-6.19-7.96-6.78-8.79-0.062-0.061-0.154-0.061-0.216 0-0.585 0.833-3.45 4.84-6.78 8.79-28.6 36.4 4.5 61 4.5 61l0.277 0.185c0.247 3.79 0.863 9.25 0.863 9.25h2.46s0.617-5.43 0.863-9.25l0.277-0.216c0.031 0.031 33.1-24.6 4.53-61zm-6.9 60.5s-1.48-1.26-1.88-1.91v-0.062l1.79-39.7c0-0.123 0.185-0.123 0.185 0l1.79 39.7v0.062c-0.4 0.648-1.88 1.91-1.88 1.91z"/>
  <path d="m80.4 61-13.8-33.4-0.03-0.093h-10.7v2.25h1.73c0.525 0 1.02 0.215 1.39 0.585 0.371 0.369 0.556 0.861 0.556 1.38l-0.309 33.6c0 1.05-0.865 1.91-1.92 1.94l-1.76 0.03v2.22h10.4v-2.22l-1.08-0.03c-1.05-0.031-1.92-0.892-1.92-1.94v-31.7l15 35.9c0.216 0.523 0.71 0.862 1.27 0.862s1.05-0.339 1.27-0.862l14.7-35.1 0.216 30.9c0 1.08-0.864 1.94-1.95 1.97h-1.11v2.22h12.2v-2.22h-1.67c-1.05 0-1.92-0.892-1.95-1.94l-0.093-33.6c0-1.08 0.865-1.94 1.92-1.97l1.79-0.031v-2.25h-10.4z"/>
  <path d="m176 66.7c-0.341-0.338-0.527-0.799-0.527-1.35v-16.5c0-3.14-0.929-5.59-2.79-7.34-1.83-1.75-4.37-2.64-7.53-2.64-4.43 0-7.93 1.78-10.4 5.28-0.031 0.062-0.124 0.092-0.217 0.092s-0.155-0.061-0.155-0.153l-1.15-4.4h-1.92l-4.92 2.8v1.54h1.27c0.589 0 1.08 0.154 1.42 0.461s0.526 0.768 0.526 1.41v19.4c0 0.553-0.185 1.01-0.526 1.35s-0.805 0.522-1.36 0.522h-1.24v2.24h11.3v-2.24h-1.24c-0.557 0-1.02-0.184-1.36-0.522-0.34-0.338-0.526-0.799-0.526-1.35v-12.8c0-1.63 0.372-3.26 1.05-4.86 0.712-1.57 1.76-2.89 3.16-3.9s3.07-1.51 4.99-1.51c2.17 0 3.81 0.676 4.83 2.03 1.02 1.35 1.55 3.1 1.55 5.19v15.9c0 0.553-0.186 1.01-0.527 1.35-0.34 0.338-0.805 0.522-1.36 0.522h-1.24v2.24h11.3v-2.24h-1.24c-0.465 0.062-0.899-0.123-1.27-0.461z"/>
  <path d="m280 30c-3.13-1.67-6.64-2.53-10.4-2.53h-14.7v2.26h1.44c0.552 0 1.04 0.216 1.54 0.71 0.46 0.464 0.706 0.989 0.706 1.54v33.2c0 0.556-0.246 1.08-0.706 1.54-0.461 0.463-0.984 0.71-1.54 0.71h-1.44v2.26h14.7c3.78 0 7.28-0.865 10.4-2.53 3.13-1.67 5.68-4.14 7.53-7.29 1.84-3.15 2.8-6.95 2.8-11.3 0-4.32-0.953-8.1-2.8-11.3-1.87-3.21-4.39-5.69-7.53-7.35zm4.39 18.6c0 3.96-0.707 7.29-2.09 9.98s-3.23 4.7-5.5 5.99-4.79 1.95-7.5 1.95h-2.98c-0.553 0-1.04-0.217-1.54-0.711-0.461-0.464-0.707-0.989-0.707-1.54v-31.4c0-0.556 0.215-1.05 0.707-1.54 0.461-0.463 0.983-0.71 1.54-0.71h2.98c2.7 0 5.22 0.649 7.5 1.95 2.27 1.3 4.12 3.31 5.5 6s2.09 6.06 2.09 10z"/>
  <path d="m325 50.8c-1.36-1.58-4-2.9-7.09-3.62 4.27-2.13 6.47-5.13 6.47-8.99 0-2.1-0.557-3.99-1.67-5.59-1.12-1.61-2.69-2.9-4.71-3.8s-4.37-1.36-7.03-1.36h-16.7v2.26h1.33c0.558 0 1.05 0.216 1.55 0.71 0.464 0.464 0.712 0.989 0.712 1.54v33.2c0 0.556-0.248 1.08-0.712 1.54-0.465 0.463-0.991 0.71-1.55 0.71h-1.46v2.26h18.1c2.76 0 5.33-0.464 7.65-1.39s4.18-2.29 5.51-4.08c1.36-1.79 2.04-3.99 2.04-6.52-0.031-2.72-0.836-5.04-2.48-6.92zm-20.8 15c-0.464-0.464-0.712-0.989-0.712-1.54v-14.9h8.61c3.04 0 5.36 0.773 6.97 2.32 1.61 1.54 2.42 3.55 2.42 6.03 0 1.48-0.371 2.94-1.05 4.26-0.712 1.36-1.76 2.44-3.19 3.28-1.39 0.834-3.13 1.27-5.14 1.27h-6.35c-0.558 0.03-1.05-0.217-1.55-0.68zm-0.681-19.7v-13.3c0-0.556 0.217-1.05 0.712-1.54 0.465-0.463 0.991-0.71 1.55-0.71h4.09c2.94 0 5.11 0.741 6.47 2.16 1.36 1.45 2.04 3.31 2.04 5.59 0 2.35-0.651 4.23-1.92 5.66-1.27 1.39-3.19 2.1-5.73 2.1z"/>
  <path d="m133 40.8c-2.37-1.29-5.01-1.97-7.87-1.97s-5.53 0.646-7.87 1.97c-2.37 1.29-4.24 3.17-5.62 5.54s-2.09 5.14-2.09 8.22 0.707 5.85 2.09 8.22 3.26 4.25 5.62 5.54c2.37 1.29 5.01 1.97 7.87 1.97s5.53-0.647 7.87-1.97c2.37-1.29 4.24-3.17 5.62-5.54s2.09-5.14 2.09-8.22-0.706-5.85-2.09-8.22-3.26-4.22-5.62-5.54zm2.27 13.8c0 3.79-0.922 6.87-2.77 9.08-1.81 2.22-4.3 3.36-7.38 3.36s-5.56-1.14-7.38-3.36c-1.84-2.22-2.77-5.3-2.77-9.08 0-3.79 0.922-6.87 2.77-9.08 1.81-2.22 4.3-3.36 7.38-3.36s5.56 1.14 7.38 3.36c1.84 2.25 2.77 5.3 2.77 9.08z"/>
  <path d="m242 40.8c-2.37-1.29-5.01-1.97-7.87-1.97s-5.53 0.646-7.87 1.97c-2.37 1.29-4.24 3.17-5.62 5.54s-2.09 5.14-2.09 8.22 0.707 5.85 2.09 8.22 3.26 4.25 5.62 5.54c2.37 1.29 5.01 1.97 7.87 1.97s5.53-0.647 7.87-1.97c2.37-1.29 4.24-3.17 5.62-5.54s2.09-5.14 2.09-8.22-0.707-5.85-2.09-8.22-3.29-4.22-5.62-5.54zm2.27 13.8c0 3.79-0.922 6.87-2.77 9.08-1.81 2.22-4.3 3.36-7.38 3.36s-5.56-1.14-7.38-3.36c-1.84-2.22-2.77-5.3-2.77-9.08 0-3.82 0.922-6.87 2.77-9.08 1.81-2.22 4.3-3.36 7.38-3.36s5.56 1.14 7.38 3.36c1.81 2.25 2.77 5.3 2.77 9.08z"/>
  <path d="m198 38.9c-2.48 0-4.74 0.526-6.78 1.58-2.04 1.05-3.65 2.48-4.8 4.3-1.14 1.79-1.73 3.8-1.73 5.94 0 1.92 0.434 3.68 1.33 5.26 0.867 1.52 2.04 2.78 3.53 3.84l-4.43 6c-0.557 0.742-0.619 1.73-0.216 2.54 0.433 0.836 1.24 1.33 2.17 1.33h1.27c-1.24 0.836-2.23 1.83-2.91 3-0.805 1.33-1.21 2.72-1.21 4.14 0 2.66 1.18 4.86 3.5 6.5 2.29 1.64 5.51 2.47 9.56 2.47 2.82 0 5.51-0.464 7.95-1.36 2.48-0.897 4.49-2.23 5.97-3.96 1.52-1.73 2.29-3.84 2.29-6.25 0-2.54-0.928-4.33-3.1-6.06-1.86-1.45-4.77-2.23-8.39-2.23h-12.4c-0.031 0-0.062-0.031-0.062-0.031s-0.031-0.061 0-0.092l3.22-4.33c0.867 0.402 1.67 0.649 2.38 0.804 0.743 0.155 1.58 0.217 2.51 0.217 2.6 0 4.95-0.526 7-1.58 2.04-1.05 3.68-2.48 4.86-4.3 1.18-1.79 1.76-3.8 1.76-5.94 0-2.29-1.11-6.47-4.15-8.6 0-0.031 0.031-0.031 0.031-0.031l6.65 0.742v-3.06h-10.6c-1.67-0.557-3.4-0.835-5.2-0.835zm3.71 19.3c-1.18 0.618-2.44 0.959-3.71 0.959-2.07 0-3.9-0.743-5.45-2.2-1.55-1.45-2.32-3.59-2.32-6.31s0.774-4.86 2.32-6.31c1.55-1.45 3.37-2.2 5.45-2.2 1.3 0 2.54 0.309 3.71 0.959 1.18 0.618 2.14 1.58 2.91 2.85 0.743 1.27 1.14 2.85 1.14 4.7 0 1.89-0.371 3.46-1.14 4.7-0.743 1.27-1.73 2.23-2.91 2.85zm-8.39 11.4h8.39c2.32 0 3.81 0.464 4.8 1.45 0.99 0.99 1.48 2.32 1.48 3.87 0 2.26-0.897 4.12-2.69 5.51s-4.21 2.1-7.18 2.1c-2.6 0-4.77-0.588-6.34-1.7-1.58-1.11-2.38-2.82-2.38-4.98 0-1.36 0.371-2.63 1.11-3.74 0.743-1.11 1.64-1.92 2.82-2.5z"/>
  <path d="m334 69.2c-0.612-0.334-1.07-0.82-1.44-1.4-0.337-0.608-0.52-1.25-0.52-1.94s0.183-1.37 0.52-1.94c0.337-0.608 0.827-1.06 1.44-1.4s1.29-0.517 2.05-0.517c0.766 0 1.44 0.183 2.05 0.517 0.612 0.334 1.07 0.82 1.44 1.4 0.337 0.607 0.52 1.24 0.52 1.94s-0.183 1.37-0.52 1.94c-0.337 0.607-0.827 1.06-1.44 1.4-0.613 0.334-1.29 0.517-2.05 0.517-0.734 0-1.44-0.183-2.05-0.517zm3.77-0.455c0.521-0.273 0.888-0.699 1.19-1.18 0.276-0.517 0.429-1.09 0.429-1.73 0-0.638-0.153-1.22-0.429-1.73-0.275-0.516-0.673-0.911-1.19-1.18-0.52-0.273-1.07-0.425-1.72-0.425s-1.19 0.152-1.71 0.425c-0.521 0.274-0.888 0.699-1.19 1.18-0.276 0.516-0.429 1.09-0.429 1.73 0 0.637 0.153 1.21 0.429 1.73 0.275 0.516 0.673 0.911 1.19 1.18 0.52 0.273 1.07 0.425 1.71 0.425s1.22-0.152 1.72-0.425zm-3.37-1.06v-0.273l0.061-0.031h0.184c0.061 0 0.123-0.03 0.153-0.06 0.061-0.061 0.061-0.091 0.061-0.152v-2.82c0-0.061-0.03-0.122-0.061-0.152-0.061-0.061-0.092-0.061-0.153-0.061h-0.184l-0.061-0.03v-0.274l0.061-0.03h1.59c0.46 0 0.797 0.091 1.07 0.304 0.276 0.212 0.398 0.486 0.398 0.85 0 0.273-0.092 0.547-0.306 0.729-0.214 0.212-0.459 0.334-0.766 0.364l0.368 0.122 0.704 1.12c0.061 0.091 0.123 0.122 0.214 0.122h0.184l0.031 0.03v0.273l-0.031 0.031h-0.949l-0.061-0.031-0.98-1.64h-0.245v1.09c0 0.061 0.031 0.121 0.061 0.152 0.062 0.06 0.092 0.06 0.153 0.06h0.184l0.061 0.031v0.273l-0.061 0.03h-1.62zm1.56-1.97c0.245 0 0.459-0.061 0.581-0.212 0.123-0.122 0.215-0.334 0.215-0.577s-0.062-0.425-0.184-0.577c-0.123-0.152-0.306-0.213-0.521-0.213h-0.122c-0.061 0-0.122 0.03-0.153 0.061-0.061 0.061-0.061 0.091-0.061 0.152v1.37z"/>
 </g>
</svg>
