<?xml version="1.0" encoding="UTF-8"?>
<svg clip-path="url(#b)" style="fill-rule:evenodd;stroke-linejoin:round;stroke-width:28.222" version="1.2" viewBox="0 0 11717 12268" xml:space="preserve" xmlns="http://www.w3.org/2000/svg" xmlns:xlink="http://www.w3.org/1999/xlink"><defs><linearGradient id="a"><stop style="stop-color:#c8c8c8" offset="0"/><stop style="stop-color:#fff" offset="1"/></linearGradient><clipPath id="b"><rect width="28000" height="21000"/></clipPath><linearGradient id="d" x1="8267" x2="12125" y1="6475.5" y2="6475.5" gradientTransform="translate(-7970.7 -5765.7)" gradientUnits="userSpaceOnUse" xlink:href="#a"/><linearGradient id="c" x1="9906.9" x2="17652" y1="14192" y2="14192" gradientTransform="translate(-7970.7 -5765.7)" gradientUnits="userSpaceOnUse" xlink:href="#a"/></defs><defs/><defs/><path d="m2325.3 1223.3h-1929v-827h3858v827h-1929z" style="fill:#808080"/><path d="m2325.3 1223.3h-1929v-827h3858v827h-1929z" style="fill:none;stroke-width:28.222;stroke:#808080"/><text x="-7970.6528" y="-5765.6528" style="font-size:12px"><tspan style="font-family:'Arial';font-size:494px;font-style:italic;font-weight:400"><tspan x="1319.3473" y="1008.3472"><tspan style="fill:#808080">Impiegati</tspan></tspan></tspan></text>
<path d="m2225.3 1123.3h-1929v-827h3858v827h-1929z" style="fill:url(#d)"/><path d="m2225.3 1123.3h-1929v-827h3858v827h-1929z" style="fill:none;stroke-width:28.222;stroke:#fff"/><text x="-7970.6528" y="-5765.6528" style="font-size:12px"><tspan style="font-family:'Arial';font-size:494px;font-style:italic;font-weight:400"><tspan x="1219.3473" y="908.34723"><tspan style="fill:#000000">Impiegati</tspan></tspan></tspan></text>
<path d="m1774.3 2050.3h-1378v-827h2756v827h-1378z" style="fill:#808080"/><path d="m1774.3 2050.3h-1378v-827h2756v827h-1378z" style="fill:none;stroke-width:28.222;stroke:#808080"/><text x="-7970.6528" y="-5765.6528" style="font-size:12px"><tspan style="font-family:'Arial';font-size:494px;font-weight:700"><tspan x="686.34723" y="1835.3473"><tspan style="fill:#808080">Matricola</tspan></tspan></tspan></text>
<path d="m1674.3 1950.3h-1378v-827h2756v827h-1378z" style="fill:#f00"/><path d="m1674.3 1950.3h-1378v-827h2756v827h-1378z" style="fill:none;stroke-width:28.222;stroke:#fff"/><text x="-7970.6528" y="-5765.6528" style="font-size:12px"><tspan style="font-family:'Arial';font-size:494px;font-weight:700"><tspan x="586.34723" y="1735.3473"><tspan style="fill:#000000">Matricola</tspan></tspan></tspan></text>
<path d="m4530.3 2050.3h-1378v-827h2756v827h-1378z" style="fill:#808080"/><path d="m4530.3 2050.3h-1378v-827h2756v827h-1378z" style="fill:none;stroke-width:28.222;stroke:#808080"/><text x="-7970.6528" y="-5765.6528" style="font-size:12px"><tspan style="font-family:'Arial';font-size:494px;font-weight:700"><tspan x="3842.3472" y="1835.3473"><tspan style="fill:#808080">Nome</tspan></tspan></tspan></text>
<path d="m4430.3 1950.3h-1378v-827h2756v827h-1378z" style="fill:#f00"/><path d="m4430.3 1950.3h-1378v-827h2756v827h-1378z" style="fill:none;stroke-width:28.222;stroke:#fff"/><text x="-7970.6528" y="-5765.6528" style="font-size:12px"><tspan style="font-family:'Arial';font-size:494px;font-weight:700"><tspan x="3742.3472" y="1735.3473"><tspan style="fill:#000000">Nome</tspan></tspan></tspan></text>
<path d="m7286.3 2050.3h-1378v-827h2756v827h-1378z" style="fill:#808080"/><path d="m7286.3 2050.3h-1378v-827h2756v827h-1378z" style="fill:none;stroke-width:28.222;stroke:#808080"/><text x="-7970.6528" y="-5765.6528" style="font-size:12px"><tspan style="font-family:'Arial';font-size:494px;font-weight:700"><tspan x="6581.3472" y="1835.3473"><tspan style="fill:#808080">Filiale</tspan></tspan></tspan></text>
<path d="m7186.3 1950.3h-1378v-827h2756v827h-1378z" style="fill:#f00"/><path d="m7186.3 1950.3h-1378v-827h2756v827h-1378z" style="fill:none;stroke-width:28.222;stroke:#fff"/><text x="-7970.6528" y="-5765.6528" style="font-size:12px"><tspan style="font-family:'Arial';font-size:494px;font-weight:700"><tspan x="6481.3472" y="1735.3473"><tspan style="fill:#000000">Filiale</tspan></tspan></tspan></text>
<path d="m1774.3 2601.3h-1378v-551h2756v551h-1378z" style="fill:#808080"/><path d="m1774.3 2601.3h-1378v-551h2756v551h-1378z" style="fill:none;stroke-width:28.222;stroke:#808080"/><text x="-7970.6528" y="-5765.6528" style="font-size:12px"><tspan style="font-family:'Arial';font-size:423px;font-weight:400"><tspan x="1300.3473" y="2495.3472"><tspan style="fill:#808080">7309</tspan></tspan></tspan></text>
<path d="m1674.3 2501.3h-1378v-551h2756v551h-1378z" style="fill:#ff6"/><path d="m1674.3 2501.3h-1378v-551h2756v551h-1378z" style="fill:none;stroke-width:28.222;stroke:#fff"/><text x="-7970.6528" y="-5765.6528" style="font-size:12px"><tspan style="font-family:'Arial';font-size:423px;font-weight:400"><tspan x="1200.3473" y="2395.3472"><tspan style="fill:#000000">7309</tspan></tspan></tspan></text>
<path d="m4530.3 2601.3h-1378v-551h2756v551h-1378z" style="fill:#808080"/><path d="m4530.3 2601.3h-1378v-551h2756v551h-1378z" style="fill:none;stroke-width:28.222;stroke:#808080"/><text x="-7970.6528" y="-5765.6528" style="font-size:12px"><tspan style="font-family:'Arial';font-size:423px;font-weight:400"><tspan x="4001.3472" y="2495.3472"><tspan style="fill:#808080">Rossi</tspan></tspan></tspan></text>
<path d="m4430.3 2501.3h-1378v-551h2756v551h-1378z" style="fill:#ff6"/><path d="m4430.3 2501.3h-1378v-551h2756v551h-1378z" style="fill:none;stroke-width:28.222;stroke:#fff"/><text x="-7970.6528" y="-5765.6528" style="font-size:12px"><tspan style="font-family:'Arial';font-size:423px;font-weight:400"><tspan x="3901.3472" y="2395.3472"><tspan style="fill:#000000">Rossi</tspan></tspan></tspan></text>
<path d="m7286.3 2601.3h-1378v-551h2756v551h-1378z" style="fill:#808080"/><path d="m7286.3 2601.3h-1378v-551h2756v551h-1378z" style="fill:none;stroke-width:28.222;stroke:#808080"/><text x="-7970.6528" y="-5765.6528" style="font-size:12px"><tspan style="font-family:'Arial';font-size:423px;font-weight:400"><tspan x="6721.3472" y="2495.3472"><tspan style="fill:#808080">Roma</tspan></tspan></tspan></text>
<path d="m7186.3 2501.3h-1378v-551h2756v551h-1378z" style="fill:#ff6"/><path d="m7186.3 2501.3h-1378v-551h2756v551h-1378z" style="fill:none;stroke-width:28.222;stroke:#fff"/><text x="-7970.6528" y="-5765.6528" style="font-size:12px"><tspan style="font-family:'Arial';font-size:423px;font-weight:400"><tspan x="6621.3472" y="2395.3472"><tspan style="fill:#000000">Roma</tspan></tspan></tspan></text>
<path d="m1774.3 3152.3h-1378v-551h2756v551h-1378z" style="fill:#808080"/><path d="m1774.3 3152.3h-1378v-551h2756v551h-1378z" style="fill:none;stroke-width:28.222;stroke:#808080"/><text x="-7970.6528" y="-5765.6528" style="font-size:12px"><tspan style="font-family:'Arial';font-size:423px;font-weight:400"><tspan x="1300.3473" y="3046.3472"><tspan style="fill:#808080">5998</tspan></tspan></tspan></text>
<path d="m1674.3 3052.3h-1378v-551h2756v551h-1378z" style="fill:#ff6"/><path d="m1674.3 3052.3h-1378v-551h2756v551h-1378z" style="fill:none;stroke-width:28.222;stroke:#fff"/><text x="-7970.6528" y="-5765.6528" style="font-size:12px"><tspan style="font-family:'Arial';font-size:423px;font-weight:400"><tspan x="1200.3473" y="2946.3472"><tspan style="fill:#000000">5998</tspan></tspan></tspan></text>
<path d="m4530.3 3152.3h-1378v-551h2756v551h-1378z" style="fill:#808080"/><path d="m4530.3 3152.3h-1378v-551h2756v551h-1378z" style="fill:none;stroke-width:28.222;stroke:#808080"/><text x="-7970.6528" y="-5765.6528" style="font-size:12px"><tspan style="font-family:'Arial';font-size:423px;font-weight:400"><tspan x="4142.3472" y="3046.3472"><tspan style="fill:#808080">Neri</tspan></tspan></tspan></text>
<path d="m4430.3 3052.3h-1378v-551h2756v551h-1378z" style="fill:#ff6"/><path d="m4430.3 3052.3h-1378v-551h2756v551h-1378z" style="fill:none;stroke-width:28.222;stroke:#fff"/><text x="-7970.6528" y="-5765.6528" style="font-size:12px"><tspan style="font-family:'Arial';font-size:423px;font-weight:400"><tspan x="4042.3472" y="2946.3472"><tspan style="fill:#000000">Neri</tspan></tspan></tspan></text>
<path d="m7286.3 3152.3h-1378v-551h2756v551h-1378z" style="fill:#808080"/><path d="m7286.3 3152.3h-1378v-551h2756v551h-1378z" style="fill:none;stroke-width:28.222;stroke:#808080"/><text x="-7970.6528" y="-5765.6528" style="font-size:12px"><tspan style="font-family:'Arial';font-size:423px;font-weight:400"><tspan x="6661.3472" y="3046.3472"><tspan style="fill:#808080">Milano</tspan></tspan></tspan></text>
<path d="m7186.3 3052.3h-1378v-551h2756v551h-1378z" style="fill:#ff6"/><path d="m7186.3 3052.3h-1378v-551h2756v551h-1378z" style="fill:none;stroke-width:28.222;stroke:#fff"/><text x="-7970.6528" y="-5765.6528" style="font-size:12px"><tspan style="font-family:'Arial';font-size:423px;font-weight:400"><tspan x="6561.3472" y="2946.3472"><tspan style="fill:#000000">Milano</tspan></tspan></tspan></text>
<path d="m1774.3 3703.3h-1378v-551h2756v551h-1378z" style="fill:#808080"/><path d="m1774.3 3703.3h-1378v-551h2756v551h-1378z" style="fill:none;stroke-width:28.222;stroke:#808080"/><text x="-7970.6528" y="-5765.6528" style="font-size:12px"><tspan style="font-family:'Arial';font-size:423px;font-weight:400"><tspan x="1300.3473" y="3597.3472"><tspan style="fill:#808080">9553</tspan></tspan></tspan></text>
<path d="m1674.3 3603.3h-1378v-551h2756v551h-1378z" style="fill:#ff6"/><path d="m1674.3 3603.3h-1378v-551h2756v551h-1378z" style="fill:none;stroke-width:28.222;stroke:#fff"/><text x="-7970.6528" y="-5765.6528" style="font-size:12px"><tspan style="font-family:'Arial';font-size:423px;font-weight:400"><tspan x="1200.3473" y="3497.3472"><tspan style="fill:#000000">9553</tspan></tspan></tspan></text>
<path d="m4530.3 3703.3h-1378v-551h2756v551h-1378z" style="fill:#808080"/><path d="m4530.3 3703.3h-1378v-551h2756v551h-1378z" style="fill:none;stroke-width:28.222;stroke:#808080"/><text x="-7970.6528" y="-5765.6528" style="font-size:12px"><tspan style="font-family:'Arial';font-size:423px;font-weight:400"><tspan x="4034.3472" y="3597.3472"><tspan style="fill:#808080">Verdi</tspan></tspan></tspan></text>
<path d="m4430.3 3603.3h-1378v-551h2756v551h-1378z" style="fill:#ff6"/><path d="m4430.3 3603.3h-1378v-551h2756v551h-1378z" style="fill:none;stroke-width:28.222;stroke:#fff"/><text x="-7970.6528" y="-5765.6528" style="font-size:12px"><tspan style="font-family:'Arial';font-size:423px;font-weight:400"><tspan x="3934.3472" y="3497.3472"><tspan style="fill:#000000">Verdi</tspan></tspan></tspan></text>
<path d="m7286.3 3703.3h-1378v-551h2756v551h-1378z" style="fill:#808080"/><path d="m7286.3 3703.3h-1378v-551h2756v551h-1378z" style="fill:none;stroke-width:28.222;stroke:#808080"/><text x="-7970.6528" y="-5765.6528" style="font-size:12px"><tspan style="font-family:'Arial';font-size:423px;font-weight:400"><tspan x="6661.3472" y="3597.3472"><tspan style="fill:#808080">Milano</tspan></tspan></tspan></text>
<path d="m7186.3 3603.3h-1378v-551h2756v551h-1378z" style="fill:#ff6"/><path d="m7186.3 3603.3h-1378v-551h2756v551h-1378z" style="fill:none;stroke-width:28.222;stroke:#fff"/><text x="-7970.6528" y="-5765.6528" style="font-size:12px"><tspan style="font-family:'Arial';font-size:423px;font-weight:400"><tspan x="6561.3472" y="3497.3472"><tspan style="fill:#000000">Milano</tspan></tspan></tspan></text>
<path d="m10042 2050.3h-1378v-827h2756v827h-1378z" style="fill:#808080"/><path d="m10042 2050.3h-1378v-827h2756v827h-1378z" style="fill:none;stroke-width:28.222;stroke:#808080"/><text x="-7970.6528" y="-5765.6528" style="font-size:12px"><tspan style="font-family:'Arial';font-size:494px;font-weight:700"><tspan x="8916.3477" y="1835.3473"><tspan style="fill:#808080">Stipendio</tspan></tspan></tspan></text>
<path d="m9942.3 1950.3h-1378v-827h2756v827h-1378z" style="fill:#f00"/><path d="m9942.3 1950.3h-1378v-827h2756v827h-1378z" style="fill:none;stroke-width:28.222;stroke:#fff"/><text x="-7970.6528" y="-5765.6528" style="font-size:12px"><tspan style="font-family:'Arial';font-size:494px;font-weight:700"><tspan x="8816.3477" y="1735.3473"><tspan style="fill:#000000">Stipendio</tspan></tspan></tspan></text>
<path d="m10042 2601.3h-1378v-551h2756v551h-1378z" style="fill:#808080"/><path d="m10042 2601.3h-1378v-551h2756v551h-1378z" style="fill:none;stroke-width:28.222;stroke:#808080"/><text x="-7970.6528" y="-5765.6528" style="font-size:12px"><tspan style="font-family:'Arial';font-size:423px;font-weight:400"><tspan x="9805.3477" y="2495.3472"><tspan style="fill:#808080">55</tspan></tspan></tspan></text>
<path d="m9942.3 2501.3h-1378v-551h2756v551h-1378z" style="fill:#ff6"/><path d="m9942.3 2501.3h-1378v-551h2756v551h-1378z" style="fill:none;stroke-width:28.222;stroke:#fff"/><text x="-7970.6528" y="-5765.6528" style="font-size:12px"><tspan style="font-family:'Arial';font-size:423px;font-weight:400"><tspan x="9705.3477" y="2395.3472"><tspan style="fill:#000000">55</tspan></tspan></tspan></text>
<path d="m10042 3152.3h-1378v-551h2756v551h-1378z" style="fill:#808080"/><path d="m10042 3152.3h-1378v-551h2756v551h-1378z" style="fill:none;stroke-width:28.222;stroke:#808080"/><text x="-7970.6528" y="-5765.6528" style="font-size:12px"><tspan style="font-family:'Arial';font-size:423px;font-weight:400"><tspan x="9805.3477" y="3046.3472"><tspan style="fill:#808080">64</tspan></tspan></tspan></text>
<path d="m9942.3 3052.3h-1378v-551h2756v551h-1378z" style="fill:#ff6"/><path d="m9942.3 3052.3h-1378v-551h2756v551h-1378z" style="fill:none;stroke-width:28.222;stroke:#fff"/><text x="-7970.6528" y="-5765.6528" style="font-size:12px"><tspan style="font-family:'Arial';font-size:423px;font-weight:400"><tspan x="9705.3477" y="2946.3472"><tspan style="fill:#000000">64</tspan></tspan></tspan></text>
<path d="m10042 3703.3h-1378v-551h2756v551h-1378z" style="fill:#808080"/><path d="m10042 3703.3h-1378v-551h2756v551h-1378z" style="fill:none;stroke-width:28.222;stroke:#808080"/><text x="-7970.6528" y="-5765.6528" style="font-size:12px"><tspan style="font-family:'Arial';font-size:423px;font-weight:400"><tspan x="9805.3477" y="3597.3472"><tspan style="fill:#808080">44</tspan></tspan></tspan></text>
<path d="m9942.3 3603.3h-1378v-551h2756v551h-1378z" style="fill:#ff6"/><path d="m9942.3 3603.3h-1378v-551h2756v551h-1378z" style="fill:none;stroke-width:28.222;stroke:#fff"/><text x="-7970.6528" y="-5765.6528" style="font-size:12px"><tspan style="font-family:'Arial';font-size:423px;font-weight:400"><tspan x="9705.3477" y="3497.3472"><tspan style="fill:#000000">44</tspan></tspan></tspan></text>
<path d="m1774.3 4254.3h-1378v-551h2756v551h-1378z" style="fill:#808080"/><path d="m1774.3 4254.3h-1378v-551h2756v551h-1378z" style="fill:none;stroke-width:28.222;stroke:#808080"/><text x="-7970.6528" y="-5765.6528" style="font-size:12px"><tspan style="font-family:'Arial';font-size:423px;font-weight:400"><tspan x="1300.3473" y="4148.3472"><tspan style="fill:#808080">5698</tspan></tspan></tspan></text>
<path d="m1674.3 4154.3h-1378v-551h2756v551h-1378z" style="fill:#ff6"/><path d="m1674.3 4154.3h-1378v-551h2756v551h-1378z" style="fill:none;stroke-width:28.222;stroke:#fff"/><text x="-7970.6528" y="-5765.6528" style="font-size:12px"><tspan style="font-family:'Arial';font-size:423px;font-weight:400"><tspan x="1200.3473" y="4048.3472"><tspan style="fill:#000000">5698</tspan></tspan></tspan></text>
<path d="m4530.3 4254.3h-1378v-551h2756v551h-1378z" style="fill:#808080"/><path d="m4530.3 4254.3h-1378v-551h2756v551h-1378z" style="fill:none;stroke-width:28.222;stroke:#808080"/><text x="-7970.6528" y="-5765.6528" style="font-size:12px"><tspan style="font-family:'Arial';font-size:423px;font-weight:400"><tspan x="4142.3472" y="4148.3472"><tspan style="fill:#808080">Neri</tspan></tspan></tspan></text>
<path d="m4430.3 4154.3h-1378v-551h2756v551h-1378z" style="fill:#ff6"/><path d="m4430.3 4154.3h-1378v-551h2756v551h-1378z" style="fill:none;stroke-width:28.222;stroke:#fff"/><text x="-7970.6528" y="-5765.6528" style="font-size:12px"><tspan style="font-family:'Arial';font-size:423px;font-weight:400"><tspan x="4042.3472" y="4048.3472"><tspan style="fill:#000000">Neri</tspan></tspan></tspan></text>
<path d="m7286.3 4254.3h-1378v-551h2756v551h-1378z" style="fill:#808080"/><path d="m7286.3 4254.3h-1378v-551h2756v551h-1378z" style="fill:none;stroke-width:28.222;stroke:#808080"/><text x="-7970.6528" y="-5765.6528" style="font-size:12px"><tspan style="font-family:'Arial';font-size:423px;font-weight:400"><tspan x="6685.3472" y="4148.3472"><tspan style="fill:#808080">Napoli</tspan></tspan></tspan></text>
<path d="m7186.3 4154.3h-1378v-551h2756v551h-1378z" style="fill:#ff6"/><path d="m7186.3 4154.3h-1378v-551h2756v551h-1378z" style="fill:none;stroke-width:28.222;stroke:#fff"/><text x="-7970.6528" y="-5765.6528" style="font-size:12px"><tspan style="font-family:'Arial';font-size:423px;font-weight:400"><tspan x="6585.3472" y="4048.3472"><tspan style="fill:#000000">Napoli</tspan></tspan></tspan></text>
<path d="m10042 4254.3h-1378v-551h2756v551h-1378z" style="fill:#808080"/><path d="m10042 4254.3h-1378v-551h2756v551h-1378z" style="fill:none;stroke-width:28.222;stroke:#808080"/><text x="-7970.6528" y="-5765.6528" style="font-size:12px"><tspan style="font-family:'Arial';font-size:423px;font-weight:400"><tspan x="9805.3477" y="4148.3472"><tspan style="fill:#808080">64</tspan></tspan></tspan></text>
<path d="m9942.3 4154.3h-1378v-551h2756v551h-1378z" style="fill:#ff6"/><path d="m9942.3 4154.3h-1378v-551h2756v551h-1378z" style="fill:none;stroke-width:28.222;stroke:#fff"/><text x="-7970.6528" y="-5765.6528" style="font-size:12px"><tspan style="font-family:'Arial';font-size:423px;font-weight:400"><tspan x="9705.3477" y="4048.3472"><tspan style="fill:#000000">64</tspan></tspan></tspan></text>
<path d="m5909.3 8940.3h-3859v-827h7717v827h-3858z" style="fill:#808080"/><path d="m5909.3 8940.3h-3859v-827h7717v827h-3858z" style="fill:none;stroke-width:28.222;stroke:#808080"/><text x="-7970.6528" y="-5765.6528" style="font-size:12px"><tspan style="font-family:'Arial';font-size:494px;font-style:italic;font-weight:400"><tspan x="2498.3472" y="8686.3477"><tspan style="fill:#808080">PROJ </tspan></tspan><tspan x="3963.3472" y="8784.3477"><tspan style="fill:#808080;font-size:395px">Matricola, Nome</tspan></tspan><tspan y="8686.3477"><tspan style="fill:#808080"> (Impiegati)</tspan></tspan></tspan></text>
<path d="m5809.3 8840.3h-3859v-827h7717v827h-3858z" style="fill:#fff"/><path d="m5809.3 8840.3h-3859v-827h7717v827h-3858z" style="fill:url(#c);stroke-width:28.222;stroke:#fff"/><text x="-7970.6528" y="-5765.6528" style="font-size:12px"><tspan style="font-family:'Arial';font-size:494px;font-style:italic;font-weight:400"><tspan x="2398.3472" y="8586.3477"><tspan style="fill:#000000">PROJ </tspan></tspan><tspan x="3863.3472" y="8684.3477"><tspan style="fill:#000000;font-size:395px">Matricola, Nome</tspan></tspan><tspan y="8586.3477"><tspan style="fill:#000000"> (Impiegati)</tspan></tspan></tspan></text>
<path d="m3979.3 9767.3h-1929v-827h3858v827h-1929z" style="fill:#808080"/><path d="m3979.3 9767.3h-1929v-827h3858v827h-1929z" style="fill:none;stroke-width:28.222;stroke:#808080"/><text x="-7970.6528" y="-5765.6528" style="font-size:12px"><tspan style="font-family:'Arial';font-size:494px;font-weight:700"><tspan x="2891.3472" y="9552.3477"><tspan style="fill:#808080">Matricola</tspan></tspan></tspan></text>
<path d="m3879.3 9667.3h-1929v-827h3858v827h-1929z" style="fill:#f00"/><path d="m3879.3 9667.3h-1929v-827h3858v827h-1929z" style="fill:none;stroke-width:28.222;stroke:#fff"/><text x="-7970.6528" y="-5765.6528" style="font-size:12px"><tspan style="font-family:'Arial';font-size:494px;font-weight:700"><tspan x="2791.3472" y="9452.3477"><tspan style="fill:#000000">Matricola</tspan></tspan></tspan></text>
<path d="m7837.3 9767.3h-1929v-827h3858v827h-1929z" style="fill:#808080"/><path d="m7837.3 9767.3h-1929v-827h3858v827h-1929z" style="fill:none;stroke-width:28.222;stroke:#808080"/><text x="-7970.6528" y="-5765.6528" style="font-size:12px"><tspan style="font-family:'Arial';font-size:494px;font-weight:700"><tspan x="7149.3472" y="9552.3477"><tspan style="fill:#808080">Nome</tspan></tspan></tspan></text>
<path d="m7737.3 9667.3h-1929v-827h3858v827h-1929z" style="fill:#f00"/><path d="m7737.3 9667.3h-1929v-827h3858v827h-1929z" style="fill:none;stroke-width:28.222;stroke:#fff"/><text x="-7970.6528" y="-5765.6528" style="font-size:12px"><tspan style="font-family:'Arial';font-size:494px;font-weight:700"><tspan x="7049.3472" y="9452.3477"><tspan style="fill:#000000">Nome</tspan></tspan></tspan></text>
<path d="m3979.3 10317h-1929v-551h3858v551h-1929z" style="fill:#808080"/><path d="m3979.3 10317h-1929v-551h3858v551h-1929z" style="fill:none;stroke-width:28.222;stroke:#808080"/><text x="-7970.6528" y="-5765.6528" style="font-size:12px"><tspan style="font-family:'Arial';font-size:423px;font-weight:400"><tspan x="3505.3472" y="10211.348"><tspan style="fill:#808080">7309</tspan></tspan></tspan></text>
<path d="m3879.3 10217h-1929v-551h3858v551h-1929z" style="fill:#ff6"/><path d="m3879.3 10217h-1929v-551h3858v551h-1929z" style="fill:none;stroke-width:28.222;stroke:#fff"/><text x="-7970.6528" y="-5765.6528" style="font-size:12px"><tspan style="font-family:'Arial';font-size:423px;font-weight:400"><tspan x="3405.3472" y="10111.348"><tspan style="fill:#000000">7309</tspan></tspan></tspan></text>
<path d="m7837.3 10317h-1929v-551h3858v551h-1929z" style="fill:#808080"/><path d="m7837.3 10317h-1929v-551h3858v551h-1929z" style="fill:none;stroke-width:28.222;stroke:#808080"/><text x="-7970.6528" y="-5765.6528" style="font-size:12px"><tspan style="font-family:'Arial';font-size:423px;font-weight:400"><tspan x="7308.3472" y="10211.348"><tspan style="fill:#808080">Rossi</tspan></tspan></tspan></text>
<path d="m7737.3 10217h-1929v-551h3858v551h-1929z" style="fill:#ff6"/><path d="m7737.3 10217h-1929v-551h3858v551h-1929z" style="fill:none;stroke-width:28.222;stroke:#fff"/><text x="-7970.6528" y="-5765.6528" style="font-size:12px"><tspan style="font-family:'Arial';font-size:423px;font-weight:400"><tspan x="7208.3472" y="10111.348"><tspan style="fill:#000000">Rossi</tspan></tspan></tspan></text>
<path d="m3979.3 10869h-1929v-551h3858v551h-1929z" style="fill:#808080"/><path d="m3979.3 10869h-1929v-551h3858v551h-1929z" style="fill:none;stroke-width:28.222;stroke:#808080"/><text x="-7970.6528" y="-5765.6528" style="font-size:12px"><tspan style="font-family:'Arial';font-size:423px;font-weight:400"><tspan x="3505.3472" y="10763.348"><tspan style="fill:#808080">5998</tspan></tspan></tspan></text>
<path d="m3879.3 10769h-1929v-551h3858v551h-1929z" style="fill:#ff6"/><path d="m3879.3 10769h-1929v-551h3858v551h-1929z" style="fill:none;stroke-width:28.222;stroke:#fff"/><text x="-7970.6528" y="-5765.6528" style="font-size:12px"><tspan style="font-family:'Arial';font-size:423px;font-weight:400"><tspan x="3405.3472" y="10663.348"><tspan style="fill:#000000">5998</tspan></tspan></tspan></text>
<path d="m7837.3 10869h-1929v-551h3858v551h-1929z" style="fill:#808080"/><path d="m7837.3 10869h-1929v-551h3858v551h-1929z" style="fill:none;stroke-width:28.222;stroke:#808080"/><text x="-7970.6528" y="-5765.6528" style="font-size:12px"><tspan style="font-family:'Arial';font-size:423px;font-weight:400"><tspan x="7449.3472" y="10763.348"><tspan style="fill:#808080">Neri</tspan></tspan></tspan></text>
<path d="m7737.3 10769h-1929v-551h3858v551h-1929z" style="fill:#ff6"/><path d="m7737.3 10769h-1929v-551h3858v551h-1929z" style="fill:none;stroke-width:28.222;stroke:#fff"/><text x="-7970.6528" y="-5765.6528" style="font-size:12px"><tspan style="font-family:'Arial';font-size:423px;font-weight:400"><tspan x="7349.3472" y="10663.348"><tspan style="fill:#000000">Neri</tspan></tspan></tspan></text>
<path d="m3979.3 11420h-1929v-551h3858v551h-1929z" style="fill:#808080"/><path d="m3979.3 11420h-1929v-551h3858v551h-1929z" style="fill:none;stroke-width:28.222;stroke:#808080"/><text x="-7970.6528" y="-5765.6528" style="font-size:12px"><tspan style="font-family:'Arial';font-size:423px;font-weight:400"><tspan x="3505.3472" y="11314.348"><tspan style="fill:#808080">9553</tspan></tspan></tspan></text>
<path d="m3879.3 11320h-1929v-551h3858v551h-1929z" style="fill:#ff6"/><path d="m3879.3 11320h-1929v-551h3858v551h-1929z" style="fill:none;stroke-width:28.222;stroke:#fff"/><text x="-7970.6528" y="-5765.6528" style="font-size:12px"><tspan style="font-family:'Arial';font-size:423px;font-weight:400"><tspan x="3405.3472" y="11214.348"><tspan style="fill:#000000">9553</tspan></tspan></tspan></text>
<path d="m7837.3 11420h-1929v-551h3858v551h-1929z" style="fill:#808080"/><path d="m7837.3 11420h-1929v-551h3858v551h-1929z" style="fill:none;stroke-width:28.222;stroke:#808080"/><text x="-7970.6528" y="-5765.6528" style="font-size:12px"><tspan style="font-family:'Arial';font-size:423px;font-weight:400"><tspan x="7341.3472" y="11314.348"><tspan style="fill:#808080">Verdi</tspan></tspan></tspan></text>
<path d="m7737.3 11320h-1929v-551h3858v551h-1929z" style="fill:#ff6"/><path d="m7737.3 11320h-1929v-551h3858v551h-1929z" style="fill:none;stroke-width:28.222;stroke:#fff"/><text x="-7970.6528" y="-5765.6528" style="font-size:12px"><tspan style="font-family:'Arial';font-size:423px;font-weight:400"><tspan x="7241.3472" y="11214.348"><tspan style="fill:#000000">Verdi</tspan></tspan></tspan></text>
<path d="m3979.3 11971h-1929v-551h3858v551h-1929z" style="fill:#808080"/><path d="m3979.3 11971h-1929v-551h3858v551h-1929z" style="fill:none;stroke-width:28.222;stroke:#808080"/><text x="-7970.6528" y="-5765.6528" style="font-size:12px"><tspan style="font-family:'Arial';font-size:423px;font-weight:400"><tspan x="3505.3472" y="11865.348"><tspan style="fill:#808080">5698</tspan></tspan></tspan></text>
<path d="m3879.3 11871h-1929v-551h3858v551h-1929z" style="fill:#ff6"/><path d="m3879.3 11871h-1929v-551h3858v551h-1929z" style="fill:none;stroke-width:28.222;stroke:#fff"/><text x="-7970.6528" y="-5765.6528" style="font-size:12px"><tspan style="font-family:'Arial';font-size:423px;font-weight:400"><tspan x="3405.3472" y="11765.348"><tspan style="fill:#000000">5698</tspan></tspan></tspan></text>
<path d="m7837.3 11971h-1929v-551h3858v551h-1929z" style="fill:#808080"/><path d="m7837.3 11971h-1929v-551h3858v551h-1929z" style="fill:none;stroke-width:28.222;stroke:#808080"/><text x="-7970.6528" y="-5765.6528" style="font-size:12px"><tspan style="font-family:'Arial';font-size:423px;font-weight:400"><tspan x="7449.3472" y="11865.348"><tspan style="fill:#808080">Neri</tspan></tspan></tspan></text>
<path d="m7737.3 11871h-1929v-551h3858v551h-1929z" style="fill:#ff6"/><path d="m7737.3 11871h-1929v-551h3858v551h-1929z" style="fill:none;stroke-width:28.222;stroke:#fff"/><text x="-7970.6528" y="-5765.6528" style="font-size:12px"><tspan style="font-family:'Arial';font-size:423px;font-weight:400"><tspan x="7349.3472" y="11765.348"><tspan style="fill:#000000">Neri</tspan></tspan></tspan></text>
<path d="m4430.3 4154.3c0 198 5 376 15 535" style="fill:none;stroke-width:28.222;stroke:#808080"/><path d="m4497.3 5191.3c33 200 75 357 126 484" style="fill:none;stroke-width:28.222;stroke:#808080"/><path d="m4900.3 6081.3c136 117 285 176 423 273" style="fill:none;stroke-width:28.222;stroke:#808080"/><path d="m5630.3 6736.3c54 124 98 281 129 488" style="fill:none;stroke-width:28.222;stroke:#808080"/><path d="m5808.3 8013.3 191-685-450 22 259 663z" style="fill:#808080"/></svg>
