<?xml version="1.0" encoding="UTF-8"?>
<svg clip-path="url(#b)" version="1.2" viewBox="0 0 24366 11688" xml:space="preserve" xmlns="http://www.w3.org/2000/svg" xmlns:xlink="http://www.w3.org/1999/xlink"><defs><linearGradient id="a"><stop style="stop-color:#c8c8c8" offset="0"/><stop style="stop-color:#fff" offset="1"/></linearGradient><clipPath id="b"><rect width="28000" height="21000"/></clipPath><linearGradient id="e" x1="14881" x2="25905" y1="15294" y2="15294" gradientTransform="translate(-1921.3 -6882.3)" gradientUnits="userSpaceOnUse" xlink:href="#a"/><linearGradient id="d" x1="2189.9" x2="13242" y1="15294" y2="15294" gradientTransform="translate(-1921.3 -6882.3)" gradientUnits="userSpaceOnUse" xlink:href="#a"/><linearGradient id="c" x1="9921" x2="13779" y1="7578.5" y2="7578.5" gradientTransform="translate(-1921.3 -6882.3)" gradientUnits="userSpaceOnUse" xlink:href="#a"/></defs><defs/><defs/><path d="m10029 1209.7h-1929v-827h3858v827h-1929z" style="fill:#808080"/><path d="m10029 1209.7h-1929v-827h3858v827h-1929z" style="fill:none;stroke:#808080"/><text x="-1921.2744" y="-6882.2744" style="font-size:12px"><tspan style="font-family:Arial;font-size:494px;font-style:italic;font-weight:400"><tspan x="9022.7266" y="994.72559"><tspan style="fill:#808080">Impiegati</tspan></tspan></tspan></text>
<path d="m9928.7 1109.7h-1929v-827h3858v827h-1929z" style="fill:url(#c)"/><path d="m9928.7 1109.7h-1929v-827h3858v827h-1929z" style="fill:none;stroke:#fff"/><text x="-1921.2744" y="-6882.2744" style="font-size:12px"><tspan style="font-family:Arial;font-size:494px;font-style:italic;font-weight:400"><tspan x="8922.7266" y="894.72559"><tspan style="fill:#000000">Impiegati</tspan></tspan></tspan></text>
<path d="m9477.7 2036.7h-1378v-827h2756v827h-1378z" style="fill:#808080"/><path d="m9477.7 2036.7h-1378v-827h2756v827h-1378z" style="fill:none;stroke:#808080"/><text x="-1921.2744" y="-6882.2744" style="font-size:12px"><tspan style="font-family:Arial;font-size:494px;font-weight:700"><tspan x="8389.7266" y="1821.7255"><tspan style="fill:#808080">Matricola</tspan></tspan></tspan></text>
<path d="m9377.7 1936.7h-1378v-827h2756v827h-1378z" style="fill:#f00"/><path d="m9377.7 1936.7h-1378v-827h2756v827h-1378z" style="fill:none;stroke:#fff"/><text x="-1921.2744" y="-6882.2744" style="font-size:12px"><tspan style="font-family:Arial;font-size:494px;font-weight:700"><tspan x="8289.7266" y="1721.7255"><tspan style="fill:#000000">Matricola</tspan></tspan></tspan></text>
<path d="m12234 2036.7h-1378v-827h2756v827h-1378z" style="fill:#808080"/><path d="m12234 2036.7h-1378v-827h2756v827h-1378z" style="fill:none;stroke:#808080"/><text x="-1921.2744" y="-6882.2744" style="font-size:12px"><tspan style="font-family:Arial;font-size:494px;font-weight:700"><tspan x="11545.727" y="1821.7255"><tspan style="fill:#808080">Nome</tspan></tspan></tspan></text>
<path d="m12134 1936.7h-1378v-827h2756v827h-1378z" style="fill:#f00"/><path d="m12134 1936.7h-1378v-827h2756v827h-1378z" style="fill:none;stroke:#fff"/><text x="-1921.2744" y="-6882.2744" style="font-size:12px"><tspan style="font-family:Arial;font-size:494px;font-weight:700"><tspan x="11445.727" y="1721.7255"><tspan style="fill:#000000">Nome</tspan></tspan></tspan></text>
<path d="m14989 2036.7h-1378v-827h2756v827h-1378z" style="fill:#808080"/><path d="m14989 2036.7h-1378v-827h2756v827h-1378z" style="fill:none;stroke:#808080"/><text x="-1921.2744" y="-6882.2744" style="font-size:12px"><tspan style="font-family:Arial;font-size:494px;font-weight:700"><tspan x="14283.727" y="1821.7255"><tspan style="fill:#808080">Filiale</tspan></tspan></tspan></text>
<path d="m14889 1936.7h-1378v-827h2756v827h-1378z" style="fill:#f00"/><path d="m14889 1936.7h-1378v-827h2756v827h-1378z" style="fill:none;stroke:#fff"/><text x="-1921.2744" y="-6882.2744" style="font-size:12px"><tspan style="font-family:Arial;font-size:494px;font-weight:700"><tspan x="14183.727" y="1721.7255"><tspan style="fill:#000000">Filiale</tspan></tspan></tspan></text>
<path d="m9477.7 2586.7h-1378v-551h2756v551h-1378z" style="fill:#808080"/><path d="m9477.7 2586.7h-1378v-551h2756v551h-1378z" style="fill:none;stroke:#808080"/><text x="-1921.2744" y="-6882.2744" style="font-size:12px"><tspan style="font-family:Arial;font-size:423px;font-weight:400"><tspan x="9003.7266" y="2480.7256"><tspan style="fill:#808080">7309</tspan></tspan></tspan></text>
<path d="m9377.7 2486.7h-1378v-551h2756v551h-1378z" style="fill:#ff6"/><path d="m9377.7 2486.7h-1378v-551h2756v551h-1378z" style="fill:none;stroke:#fff"/><text x="-1921.2744" y="-6882.2744" style="font-size:12px"><tspan style="font-family:Arial;font-size:423px;font-weight:400"><tspan x="8903.7266" y="2380.7256"><tspan style="fill:#000000">7309</tspan></tspan></tspan></text>
<path d="m12234 2586.7h-1378v-551h2756v551h-1378z" style="fill:#808080"/><path d="m12234 2586.7h-1378v-551h2756v551h-1378z" style="fill:none;stroke:#808080"/><text x="-1921.2744" y="-6882.2744" style="font-size:12px"><tspan style="font-family:Arial;font-size:423px;font-weight:400"><tspan x="11704.727" y="2480.7256"><tspan style="fill:#808080">Rossi</tspan></tspan></tspan></text>
<path d="m12134 2486.7h-1378v-551h2756v551h-1378z" style="fill:#ff6"/><path d="m12134 2486.7h-1378v-551h2756v551h-1378z" style="fill:none;stroke:#fff"/><text x="-1921.2744" y="-6882.2744" style="font-size:12px"><tspan style="font-family:Arial;font-size:423px;font-weight:400"><tspan x="11604.727" y="2380.7256"><tspan style="fill:#000000">Rossi</tspan></tspan></tspan></text>
<path d="m14989 2586.7h-1378v-551h2756v551h-1378z" style="fill:#808080"/><path d="m14989 2586.7h-1378v-551h2756v551h-1378z" style="fill:none;stroke:#808080"/><text x="-1921.2744" y="-6882.2744" style="font-size:12px"><tspan style="font-family:Arial;font-size:423px;font-weight:400"><tspan x="14423.727" y="2480.7256"><tspan style="fill:#808080">Roma</tspan></tspan></tspan></text>
<path d="m14889 2486.7h-1378v-551h2756v551h-1378z" style="fill:#ff6"/><path d="m14889 2486.7h-1378v-551h2756v551h-1378z" style="fill:none;stroke:#fff"/><text x="-1921.2744" y="-6882.2744" style="font-size:12px"><tspan style="font-family:Arial;font-size:423px;font-weight:400"><tspan x="14323.727" y="2380.7256"><tspan style="fill:#000000">Roma</tspan></tspan></tspan></text>
<path d="m9477.7 3137.7h-1378v-551h2756v551h-1378z" style="fill:#808080"/><path d="m9477.7 3137.7h-1378v-551h2756v551h-1378z" style="fill:none;stroke:#808080"/><text x="-1921.2744" y="-6882.2744" style="font-size:12px"><tspan style="font-family:Arial;font-size:423px;font-weight:400"><tspan x="9003.7266" y="3031.7256"><tspan style="fill:#808080">5998</tspan></tspan></tspan></text>
<path d="m9377.7 3037.7h-1378v-551h2756v551h-1378z" style="fill:#ff6"/><path d="m9377.7 3037.7h-1378v-551h2756v551h-1378z" style="fill:none;stroke:#fff"/><text x="-1921.2744" y="-6882.2744" style="font-size:12px"><tspan style="font-family:Arial;font-size:423px;font-weight:400"><tspan x="8903.7266" y="2931.7256"><tspan style="fill:#000000">5998</tspan></tspan></tspan></text>
<path d="m12234 3137.7h-1378v-551h2756v551h-1378z" style="fill:#808080"/><path d="m12234 3137.7h-1378v-551h2756v551h-1378z" style="fill:none;stroke:#808080"/><text x="-1921.2744" y="-6882.2744" style="font-size:12px"><tspan style="font-family:Arial;font-size:423px;font-weight:400"><tspan x="11845.727" y="3031.7256"><tspan style="fill:#808080">Neri</tspan></tspan></tspan></text>
<path d="m12134 3037.7h-1378v-551h2756v551h-1378z" style="fill:#ff6"/><path d="m12134 3037.7h-1378v-551h2756v551h-1378z" style="fill:none;stroke:#fff"/><text x="-1921.2744" y="-6882.2744" style="font-size:12px"><tspan style="font-family:Arial;font-size:423px;font-weight:400"><tspan x="11745.727" y="2931.7256"><tspan style="fill:#000000">Neri</tspan></tspan></tspan></text>
<path d="m14989 3137.7h-1378v-551h2756v551h-1378z" style="fill:#808080"/><path d="m14989 3137.7h-1378v-551h2756v551h-1378z" style="fill:none;stroke:#808080"/><text x="-1921.2744" y="-6882.2744" style="font-size:12px"><tspan style="font-family:Arial;font-size:423px;font-weight:400"><tspan x="14363.727" y="3031.7256"><tspan style="fill:#808080">Milano</tspan></tspan></tspan></text>
<path d="m14889 3037.7h-1378v-551h2756v551h-1378z" style="fill:#ff6"/><path d="m14889 3037.7h-1378v-551h2756v551h-1378z" style="fill:none;stroke:#fff"/><text x="-1921.2744" y="-6882.2744" style="font-size:12px"><tspan style="font-family:Arial;font-size:423px;font-weight:400"><tspan x="14263.727" y="2931.7256"><tspan style="fill:#000000">Milano</tspan></tspan></tspan></text>
<path d="m9477.7 3689.7h-1378v-551h2756v551h-1378z" style="fill:#808080"/><path d="m9477.7 3689.7h-1378v-551h2756v551h-1378z" style="fill:none;stroke:#808080"/><text x="-1921.2744" y="-6882.2744" style="font-size:12px"><tspan style="font-family:Arial;font-size:423px;font-weight:400"><tspan x="9003.7266" y="3583.7256"><tspan style="fill:#808080">9553</tspan></tspan></tspan></text>
<path d="m9377.7 3589.7h-1378v-551h2756v551h-1378z" style="fill:#ff6"/><path d="m9377.7 3589.7h-1378v-551h2756v551h-1378z" style="fill:none;stroke:#fff"/><text x="-1921.2744" y="-6882.2744" style="font-size:12px"><tspan style="font-family:Arial;font-size:423px;font-weight:400"><tspan x="8903.7266" y="3483.7256"><tspan style="fill:#000000">9553</tspan></tspan></tspan></text>
<path d="m12234 3689.7h-1378v-551h2756v551h-1378z" style="fill:#808080"/><path d="m12234 3689.7h-1378v-551h2756v551h-1378z" style="fill:none;stroke:#808080"/><text x="-1921.2744" y="-6882.2744" style="font-size:12px"><tspan style="font-family:Arial;font-size:423px;font-weight:400"><tspan x="11737.727" y="3583.7256"><tspan style="fill:#808080">Verdi</tspan></tspan></tspan></text>
<path d="m12134 3589.7h-1378v-551h2756v551h-1378z" style="fill:#ff6"/><path d="m12134 3589.7h-1378v-551h2756v551h-1378z" style="fill:none;stroke:#fff"/><text x="-1921.2744" y="-6882.2744" style="font-size:12px"><tspan style="font-family:Arial;font-size:423px;font-weight:400"><tspan x="11637.727" y="3483.7256"><tspan style="fill:#000000">Verdi</tspan></tspan></tspan></text>
<path d="m14989 3689.7h-1378v-551h2756v551h-1378z" style="fill:#808080"/><path d="m14989 3689.7h-1378v-551h2756v551h-1378z" style="fill:none;stroke:#808080"/><text x="-1921.2744" y="-6882.2744" style="font-size:12px"><tspan style="font-family:Arial;font-size:423px;font-weight:400"><tspan x="14363.727" y="3583.7256"><tspan style="fill:#808080">Milano</tspan></tspan></tspan></text>
<path d="m14889 3589.7h-1378v-551h2756v551h-1378z" style="fill:#ff6"/><path d="m14889 3589.7h-1378v-551h2756v551h-1378z" style="fill:none;stroke:#fff"/><text x="-1921.2744" y="-6882.2744" style="font-size:12px"><tspan style="font-family:Arial;font-size:423px;font-weight:400"><tspan x="14263.727" y="3483.7256"><tspan style="fill:#000000">Milano</tspan></tspan></tspan></text>
<path d="m17745 2036.7h-1378v-827h2756v827h-1378z" style="fill:#808080"/><path d="m17745 2036.7h-1378v-827h2756v827h-1378z" style="fill:none;stroke:#808080"/><text x="-1921.2744" y="-6882.2744" style="font-size:12px"><tspan style="font-family:Arial;font-size:494px;font-weight:700"><tspan x="16618.727" y="1821.7255"><tspan style="fill:#808080">Stipendio</tspan></tspan></tspan></text>
<path d="m17645 1936.7h-1378v-827h2756v827h-1378z" style="fill:#f00"/><path d="m17645 1936.7h-1378v-827h2756v827h-1378z" style="fill:none;stroke:#fff"/><text x="-1921.2744" y="-6882.2744" style="font-size:12px"><tspan style="font-family:Arial;font-size:494px;font-weight:700"><tspan x="16518.727" y="1721.7255"><tspan style="fill:#000000">Stipendio</tspan></tspan></tspan></text>
<path d="m17745 2586.7h-1378v-551h2756v551h-1378z" style="fill:#808080"/><path d="m17745 2586.7h-1378v-551h2756v551h-1378z" style="fill:none;stroke:#808080"/><text x="-1921.2744" y="-6882.2744" style="font-size:12px"><tspan style="font-family:Arial;font-size:423px;font-weight:400"><tspan x="17507.727" y="2480.7256"><tspan style="fill:#808080">55</tspan></tspan></tspan></text>
<path d="m17645 2486.7h-1378v-551h2756v551h-1378z" style="fill:#ff6"/><path d="m17645 2486.7h-1378v-551h2756v551h-1378z" style="fill:none;stroke:#fff"/><text x="-1921.2744" y="-6882.2744" style="font-size:12px"><tspan style="font-family:Arial;font-size:423px;font-weight:400"><tspan x="17407.727" y="2380.7256"><tspan style="fill:#000000">55</tspan></tspan></tspan></text>
<path d="m17745 3137.7h-1378v-551h2756v551h-1378z" style="fill:#808080"/><path d="m17745 3137.7h-1378v-551h2756v551h-1378z" style="fill:none;stroke:#808080"/><text x="-1921.2744" y="-6882.2744" style="font-size:12px"><tspan style="font-family:Arial;font-size:423px;font-weight:400"><tspan x="17507.727" y="3031.7256"><tspan style="fill:#808080">64</tspan></tspan></tspan></text>
<path d="m17645 3037.7h-1378v-551h2756v551h-1378z" style="fill:#ff6"/><path d="m17645 3037.7h-1378v-551h2756v551h-1378z" style="fill:none;stroke:#fff"/><text x="-1921.2744" y="-6882.2744" style="font-size:12px"><tspan style="font-family:Arial;font-size:423px;font-weight:400"><tspan x="17407.727" y="2931.7256"><tspan style="fill:#000000">64</tspan></tspan></tspan></text>
<path d="m17745 3689.7h-1378v-551h2756v551h-1378z" style="fill:#808080"/><path d="m17745 3689.7h-1378v-551h2756v551h-1378z" style="fill:none;stroke:#808080"/><text x="-1921.2744" y="-6882.2744" style="font-size:12px"><tspan style="font-family:Arial;font-size:423px;font-weight:400"><tspan x="17507.727" y="3583.7256"><tspan style="fill:#808080">44</tspan></tspan></tspan></text>
<path d="m17645 3589.7h-1378v-551h2756v551h-1378z" style="fill:#ff6"/><path d="m17645 3589.7h-1378v-551h2756v551h-1378z" style="fill:none;stroke:#fff"/><text x="-1921.2744" y="-6882.2744" style="font-size:12px"><tspan style="font-family:Arial;font-size:423px;font-weight:400"><tspan x="17407.727" y="3483.7256"><tspan style="fill:#000000">44</tspan></tspan></tspan></text>
<path d="m9477.7 4240.7h-1378v-551h2756v551h-1378z" style="fill:#808080"/><path d="m9477.7 4240.7h-1378v-551h2756v551h-1378z" style="fill:none;stroke:#808080"/><text x="-1921.2744" y="-6882.2744" style="font-size:12px;stroke:#000000"><tspan style="font-family:Arial;font-size:423px;font-weight:400;stroke:#000000"><tspan x="9003.7266" y="4134.7256" style="stroke:#000000"><tspan style="fill:#808080;stroke:#000000">5698</tspan></tspan></tspan></text>
<path d="m9377.7 4140.7h-1378v-551h2756v551h-1378z" style="fill:#ff6"/><path d="m9377.7 4140.7h-1378v-551h2756v551h-1378z" style="fill:none;stroke:#fff"/><text x="-1921.2744" y="-6882.2744" style="font-size:12px"><tspan style="font-family:Arial;font-size:423px;font-weight:400"><tspan x="8903.7266" y="4034.7256"><tspan style="fill:#000000">5698</tspan></tspan></tspan></text>
<path d="m12234 4240.7h-1378v-551h2756v551h-1378z" style="fill:#808080"/><path d="m12234 4240.7h-1378v-551h2756v551h-1378z" style="fill:none;stroke:#808080"/><text x="-1921.2744" y="-6882.2744" style="font-size:12px;stroke:#000000"><tspan style="font-family:Arial;font-size:423px;font-weight:400;stroke:#000000"><tspan x="11845.727" y="4134.7256" style="stroke:#000000"><tspan style="fill:#808080;stroke:#000000">Neri</tspan></tspan></tspan></text>
<path d="m12134 4140.7h-1378v-551h2756v551h-1378z" style="fill:#ff6"/><path d="m12134 4140.7h-1378v-551h2756v551h-1378z" style="fill:none;stroke:#fff"/><text x="-1921.2744" y="-6882.2744" style="font-size:12px"><tspan style="font-family:Arial;font-size:423px;font-weight:400"><tspan x="11745.727" y="4034.7256"><tspan style="fill:#000000">Neri</tspan></tspan></tspan></text>
<path d="m14989 4240.7h-1378v-551h2756v551h-1378z" style="fill:#808080"/><path d="m14989 4240.7h-1378v-551h2756v551h-1378z" style="fill:none;stroke:#808080"/><text x="-1921.2744" y="-6882.2744" style="font-size:12px;stroke:#000000"><tspan style="font-family:Arial;font-size:423px;font-weight:400;stroke:#000000"><tspan x="14387.727" y="4134.7256" style="stroke:#000000"><tspan style="fill:#808080;stroke:#000000">Napoli</tspan></tspan></tspan></text>
<path d="m14889 4140.7h-1378v-551h2756v551h-1378z" style="fill:#ff6"/><path d="m14889 4140.7h-1378v-551h2756v551h-1378z" style="fill:none;stroke:#fff"/><text x="-1921.2744" y="-6882.2744" style="font-size:12px"><tspan style="font-family:Arial;font-size:423px;font-weight:400"><tspan x="14287.727" y="4034.7256"><tspan style="fill:#000000">Napoli</tspan></tspan></tspan></text>
<path d="m17745 4240.7h-1378v-551h2756v551h-1378z" style="fill:#808080"/><path d="m17745 4240.7h-1378v-551h2756v551h-1378z" style="fill:none;stroke:#808080"/><text x="-1921.2744" y="-6882.2744" style="font-size:12px;stroke:#000000"><tspan style="font-family:Arial;font-size:423px;font-weight:400;stroke:#000000"><tspan x="17507.727" y="4134.7256" style="stroke:#000000"><tspan style="fill:#808080;stroke:#000000">64</tspan></tspan></tspan></text>
<path d="m17645 4140.7h-1378v-551h2756v551h-1378z" style="fill:#ff6"/><path d="m17645 4140.7h-1378v-551h2756v551h-1378z" style="fill:none;stroke:#fff"/><text x="-1921.2744" y="-6882.2744" style="font-size:12px"><tspan style="font-family:Arial;font-size:423px;font-weight:400"><tspan x="17407.727" y="4034.7256"><tspan style="fill:#000000">64</tspan></tspan></tspan></text>
<path d="m5894.7 8925.7h-5512v-827h11024v827h-5512z" style="fill:#808080"/><path d="m5894.7 8925.7h-5512v-827h11024v827h-5512z" style="fill:none;stroke:#808080"/><text x="-1921.2744" y="-6882.2744" style="font-size:12px"><tspan style="font-family:Arial;font-size:494px;font-style:italic;font-weight:400"><tspan x="2846.7256" y="8671.7256"><tspan style="fill:#808080">SEL </tspan></tspan><tspan x="3921.7256" y="8769.7256"><tspan style="fill:#808080;font-size:395px">Stipendio &gt; 50</tspan></tspan><tspan y="8671.7256"><tspan style="fill:#808080"> (Impiegati)</tspan></tspan></tspan></text>
<path d="m5794.7 8825.7h-5512v-827h11024v827h-5512z" style="fill:#fff"/><path d="m5794.7 8825.7h-5512v-827h11024v827h-5512z" style="fill:url(#d);stroke:#fff"/><text x="-1921.2744" y="-6882.2744" style="font-size:12px"><tspan style="font-family:Arial;font-size:494px;font-style:italic;font-weight:400"><tspan x="2746.7256" y="8571.7256"><tspan style="fill:#000000">SEL </tspan></tspan><tspan x="3821.7256" y="8669.7256"><tspan style="fill:#000000;font-size:395px">Stipendio &gt; 50</tspan></tspan><tspan y="8571.7256"><tspan style="fill:#000000"> (Impiegati)</tspan></tspan></tspan></text>
<path d="m1760.7 9752.7h-1378v-827h2756v827h-1378z" style="fill:#808080"/><path d="m1760.7 9752.7h-1378v-827h2756v827h-1378z" style="fill:none;stroke:#808080"/><text x="-1921.2744" y="-6882.2744" style="font-size:12px"><tspan style="font-family:Arial;font-size:494px;font-weight:700"><tspan x="672.72571" y="9537.7256"><tspan style="fill:#808080">Matricola</tspan></tspan></tspan></text>
<path d="m1660.7 9652.7h-1378v-827h2756v827h-1378z" style="fill:#f00"/><path d="m1660.7 9652.7h-1378v-827h2756v827h-1378z" style="fill:none;stroke:#fff"/><text x="-1921.2744" y="-6882.2744" style="font-size:12px"><tspan style="font-family:Arial;font-size:494px;font-weight:700"><tspan x="572.72571" y="9437.7256"><tspan style="fill:#000000">Matricola</tspan></tspan></tspan></text>
<path d="m4516.7 9752.7h-1378v-827h2756v827h-1378z" style="fill:#808080"/><path d="m4516.7 9752.7h-1378v-827h2756v827h-1378z" style="fill:none;stroke:#808080"/><text x="-1921.2744" y="-6882.2744" style="font-size:12px"><tspan style="font-family:Arial;font-size:494px;font-weight:700"><tspan x="3828.7256" y="9537.7256"><tspan style="fill:#808080">Nome</tspan></tspan></tspan></text>
<path d="m4416.7 9652.7h-1378v-827h2756v827h-1378z" style="fill:#f00"/><path d="m4416.7 9652.7h-1378v-827h2756v827h-1378z" style="fill:none;stroke:#fff"/><text x="-1921.2744" y="-6882.2744" style="font-size:12px"><tspan style="font-family:Arial;font-size:494px;font-weight:700"><tspan x="3728.7256" y="9437.7256"><tspan style="fill:#000000">Nome</tspan></tspan></tspan></text>
<path d="m7272.7 9752.7h-1378v-827h2756v827h-1378z" style="fill:#808080"/><path d="m7272.7 9752.7h-1378v-827h2756v827h-1378z" style="fill:none;stroke:#808080"/><text x="-1921.2744" y="-6882.2744" style="font-size:12px"><tspan style="font-family:Arial;font-size:494px;font-weight:700"><tspan x="6567.7256" y="9537.7256"><tspan style="fill:#808080">Filiale</tspan></tspan></tspan></text>
<path d="m7172.7 9652.7h-1378v-827h2756v827h-1378z" style="fill:#f00"/><path d="m7172.7 9652.7h-1378v-827h2756v827h-1378z" style="fill:none;stroke:#fff"/><text x="-1921.2744" y="-6882.2744" style="font-size:12px"><tspan style="font-family:Arial;font-size:494px;font-weight:700"><tspan x="6467.7256" y="9437.7256"><tspan style="fill:#000000">Filiale</tspan></tspan></tspan></text>
<path d="m1760.7 10304h-1378v-551h2756v551h-1378z" style="fill:#808080"/><path d="m1760.7 10304h-1378v-551h2756v551h-1378z" style="fill:none;stroke:#808080"/><text x="-1921.2744" y="-6882.2744" style="font-size:12px"><tspan style="font-family:Arial;font-size:423px;font-weight:400"><tspan x="1286.7256" y="10197.726"><tspan style="fill:#808080">7309</tspan></tspan></tspan></text>
<path d="m1660.7 10204h-1378v-551h2756v551h-1378z" style="fill:#ff6"/><path d="m1660.7 10204h-1378v-551h2756v551h-1378z" style="fill:none;stroke:#fff"/><text x="-1921.2744" y="-6882.2744" style="font-size:12px"><tspan style="font-family:Arial;font-size:423px;font-weight:400"><tspan x="1186.7256" y="10097.726"><tspan style="fill:#000000">7309</tspan></tspan></tspan></text>
<path d="m4516.7 10304h-1378v-551h2756v551h-1378z" style="fill:#808080"/><path d="m4516.7 10304h-1378v-551h2756v551h-1378z" style="fill:none;stroke:#808080"/><text x="-1921.2744" y="-6882.2744" style="font-size:12px"><tspan style="font-family:Arial;font-size:423px;font-weight:400"><tspan x="3987.7256" y="10197.726"><tspan style="fill:#808080">Rossi</tspan></tspan></tspan></text>
<path d="m4416.7 10204h-1378v-551h2756v551h-1378z" style="fill:#ff6"/><path d="m4416.7 10204h-1378v-551h2756v551h-1378z" style="fill:none;stroke:#fff"/><text x="-1921.2744" y="-6882.2744" style="font-size:12px"><tspan style="font-family:Arial;font-size:423px;font-weight:400"><tspan x="3887.7256" y="10097.726"><tspan style="fill:#000000">Rossi</tspan></tspan></tspan></text>
<path d="m7272.7 10304h-1378v-551h2756v551h-1378z" style="fill:#808080"/><path d="m7272.7 10304h-1378v-551h2756v551h-1378z" style="fill:none;stroke:#808080"/><text x="-1921.2744" y="-6882.2744" style="font-size:12px"><tspan style="font-family:Arial;font-size:423px;font-weight:400"><tspan x="6707.7256" y="10197.726"><tspan style="fill:#808080">Roma</tspan></tspan></tspan></text>
<path d="m7172.7 10204h-1378v-551h2756v551h-1378z" style="fill:#ff6"/><path d="m7172.7 10204h-1378v-551h2756v551h-1378z" style="fill:none;stroke:#fff"/><text x="-1921.2744" y="-6882.2744" style="font-size:12px"><tspan style="font-family:Arial;font-size:423px;font-weight:400"><tspan x="6607.7256" y="10097.726"><tspan style="fill:#000000">Roma</tspan></tspan></tspan></text>
<path d="m1760.7 10855h-1378v-551h2756v551h-1378z" style="fill:#808080"/><path d="m1760.7 10855h-1378v-551h2756v551h-1378z" style="fill:none;stroke:#808080"/><text x="-1921.2744" y="-6882.2744" style="font-size:12px"><tspan style="font-family:Arial;font-size:423px;font-weight:400"><tspan x="1286.7256" y="10748.726"><tspan style="fill:#808080">5998</tspan></tspan></tspan></text>
<path d="m1660.7 10755h-1378v-551h2756v551h-1378z" style="fill:#ff6"/><path d="m1660.7 10755h-1378v-551h2756v551h-1378z" style="fill:none;stroke:#fff"/><text x="-1921.2744" y="-6882.2744" style="font-size:12px"><tspan style="font-family:Arial;font-size:423px;font-weight:400"><tspan x="1186.7256" y="10648.726"><tspan style="fill:#000000">5998</tspan></tspan></tspan></text>
<path d="m4516.7 10855h-1378v-551h2756v551h-1378z" style="fill:#808080"/><path d="m4516.7 10855h-1378v-551h2756v551h-1378z" style="fill:none;stroke:#808080"/><text x="-1921.2744" y="-6882.2744" style="font-size:12px"><tspan style="font-family:Arial;font-size:423px;font-weight:400"><tspan x="4128.7256" y="10748.726"><tspan style="fill:#808080">Neri</tspan></tspan></tspan></text>
<path d="m4416.7 10755h-1378v-551h2756v551h-1378z" style="fill:#ff6"/><path d="m4416.7 10755h-1378v-551h2756v551h-1378z" style="fill:none;stroke:#fff"/><text x="-1921.2744" y="-6882.2744" style="font-size:12px"><tspan style="font-family:Arial;font-size:423px;font-weight:400"><tspan x="4028.7256" y="10648.726"><tspan style="fill:#000000">Neri</tspan></tspan></tspan></text>
<path d="m7272.7 10855h-1378v-551h2756v551h-1378z" style="fill:#808080"/><path d="m7272.7 10855h-1378v-551h2756v551h-1378z" style="fill:none;stroke:#808080"/><text x="-1921.2744" y="-6882.2744" style="font-size:12px"><tspan style="font-family:Arial;font-size:423px;font-weight:400"><tspan x="6647.7256" y="10748.726"><tspan style="fill:#808080">Milano</tspan></tspan></tspan></text>
<path d="m7172.7 10755h-1378v-551h2756v551h-1378z" style="fill:#ff6"/><path d="m7172.7 10755h-1378v-551h2756v551h-1378z" style="fill:none;stroke:#fff"/><text x="-1921.2744" y="-6882.2744" style="font-size:12px"><tspan style="font-family:Arial;font-size:423px;font-weight:400"><tspan x="6547.7256" y="10648.726"><tspan style="fill:#000000">Milano</tspan></tspan></tspan></text>
<path d="m10029 9752.7h-1378v-827h2756v827h-1378z" style="fill:#808080"/><path d="m10029 9752.7h-1378v-827h2756v827h-1378z" style="fill:none;stroke:#808080"/><text x="-1921.2744" y="-6882.2744" style="font-size:12px"><tspan style="font-family:Arial;font-size:494px;font-weight:700"><tspan x="8902.7266" y="9537.7256"><tspan style="fill:#808080">Stipendio</tspan></tspan></tspan></text>
<path d="m9928.7 9652.7h-1378v-827h2756v827h-1378z" style="fill:#f00"/><path d="m9928.7 9652.7h-1378v-827h2756v827h-1378z" style="fill:none;stroke:#fff"/><text x="-1921.2744" y="-6882.2744" style="font-size:12px"><tspan style="font-family:Arial;font-size:494px;font-weight:700"><tspan x="8802.7266" y="9437.7256"><tspan style="fill:#000000">Stipendio</tspan></tspan></tspan></text>
<path d="m10029 10304h-1378v-551h2756v551h-1378z" style="fill:#808080"/><path d="m10029 10304h-1378v-551h2756v551h-1378z" style="fill:none;stroke:#808080"/><text x="-1921.2744" y="-6882.2744" style="font-size:12px"><tspan style="font-family:Arial;font-size:423px;font-weight:400"><tspan x="9791.7266" y="10197.726"><tspan style="fill:#808080">55</tspan></tspan></tspan></text>
<path d="m9928.7 10204h-1378v-551h2756v551h-1378z" style="fill:#ff6"/><path d="m9928.7 10204h-1378v-551h2756v551h-1378z" style="fill:none;stroke:#fff"/><text x="-1921.2744" y="-6882.2744" style="font-size:12px"><tspan style="font-family:Arial;font-size:423px;font-weight:400"><tspan x="9691.7266" y="10097.726"><tspan style="fill:#000000">55</tspan></tspan></tspan></text>
<path d="m10029 10855h-1378v-551h2756v551h-1378z" style="fill:#808080"/><path d="m10029 10855h-1378v-551h2756v551h-1378z" style="fill:none;stroke:#808080"/><text x="-1921.2744" y="-6882.2744" style="font-size:12px"><tspan style="font-family:Arial;font-size:423px;font-weight:400"><tspan x="9791.7266" y="10748.726"><tspan style="fill:#808080">64</tspan></tspan></tspan></text>
<path d="m9928.7 10755h-1378v-551h2756v551h-1378z" style="fill:#ff6"/><path d="m9928.7 10755h-1378v-551h2756v551h-1378z" style="fill:none;stroke:#fff"/><text x="-1921.2744" y="-6882.2744" style="font-size:12px"><tspan style="font-family:Arial;font-size:423px;font-weight:400"><tspan x="9691.7266" y="10648.726"><tspan style="fill:#000000">64</tspan></tspan></tspan></text>
<path d="m1760.7 11406h-1378v-551h2756v551h-1378z" style="fill:#808080"/><path d="m1760.7 11406h-1378v-551h2756v551h-1378z" style="fill:none;stroke:#808080"/><text x="-1921.2744" y="-6882.2744" style="font-size:12px"><tspan style="font-family:Arial;font-size:423px;font-weight:400"><tspan x="1286.7256" y="11299.726"><tspan style="fill:#808080">5698</tspan></tspan></tspan></text>
<path d="m1660.7 11306h-1378v-551h2756v551h-1378z" style="fill:#ff6"/><path d="m1660.7 11306h-1378v-551h2756v551h-1378z" style="fill:none;stroke:#fff"/><text x="-1921.2744" y="-6882.2744" style="font-size:12px"><tspan style="font-family:Arial;font-size:423px;font-weight:400"><tspan x="1186.7256" y="11199.726"><tspan style="fill:#000000">5698</tspan></tspan></tspan></text>
<path d="m4516.7 11406h-1378v-551h2756v551h-1378z" style="fill:#808080"/><path d="m4516.7 11406h-1378v-551h2756v551h-1378z" style="fill:none;stroke:#808080"/><text x="-1921.2744" y="-6882.2744" style="font-size:12px"><tspan style="font-family:Arial;font-size:423px;font-weight:400"><tspan x="4128.7256" y="11299.726"><tspan style="fill:#808080">Neri</tspan></tspan></tspan></text>
<path d="m4416.7 11306h-1378v-551h2756v551h-1378z" style="fill:#ff6"/><path d="m4416.7 11306h-1378v-551h2756v551h-1378z" style="fill:none;stroke:#fff"/><text x="-1921.2744" y="-6882.2744" style="font-size:12px"><tspan style="font-family:Arial;font-size:423px;font-weight:400"><tspan x="4028.7256" y="11199.726"><tspan style="fill:#000000">Neri</tspan></tspan></tspan></text>
<path d="m7272.7 11406h-1378v-551h2756v551h-1378z" style="fill:#808080"/><path d="m7272.7 11406h-1378v-551h2756v551h-1378z" style="fill:none;stroke:#808080"/><text x="-1921.2744" y="-6882.2744" style="font-size:12px"><tspan style="font-family:Arial;font-size:423px;font-weight:400"><tspan x="6671.7256" y="11299.726"><tspan style="fill:#808080">Napoli</tspan></tspan></tspan></text>
<path d="m7172.7 11306h-1378v-551h2756v551h-1378z" style="fill:#ff6"/><path d="m7172.7 11306h-1378v-551h2756v551h-1378z" style="fill:none;stroke:#fff"/><text x="-1921.2744" y="-6882.2744" style="font-size:12px"><tspan style="font-family:Arial;font-size:423px;font-weight:400"><tspan x="6571.7256" y="11199.726"><tspan style="fill:#000000">Napoli</tspan></tspan></tspan></text>
<path d="m10029 11406h-1378v-551h2756v551h-1378z" style="fill:#808080"/><path d="m10029 11406h-1378v-551h2756v551h-1378z" style="fill:none;stroke:#808080"/><text x="-1921.2744" y="-6882.2744" style="font-size:12px"><tspan style="font-family:Arial;font-size:423px;font-weight:400"><tspan x="9791.7266" y="11299.726"><tspan style="fill:#808080">64</tspan></tspan></tspan></text>
<path d="m9928.7 11306h-1378v-551h2756v551h-1378z" style="fill:#ff6"/><path d="m9928.7 11306h-1378v-551h2756v551h-1378z" style="fill:none;stroke:#fff"/><text x="-1921.2744" y="-6882.2744" style="font-size:12px"><tspan style="font-family:Arial;font-size:423px;font-weight:400"><tspan x="9691.7266" y="11199.726"><tspan style="fill:#000000">64</tspan></tspan></tspan></text>
<path d="m18572 8925.7h-5512v-827h11024v827h-5512z" style="fill:#808080"/><path d="m18572 8925.7h-5512v-827h11024v827h-5512z" style="fill:none;stroke:#808080"/><text x="-1921.2744" y="-6882.2744" style="font-size:12px"><tspan style="font-family:Arial;font-size:494px;font-style:italic;font-weight:400"><tspan x="13762.727" y="8671.7256"><tspan style="fill:#808080">SEL </tspan></tspan><tspan x="14837.727" y="8769.7256"><tspan style="fill:#808080;font-size:395px">Stipendio&gt;50 AND Filiale='Milano' </tspan></tspan><tspan y="8671.7256"><tspan style="fill:#808080"> (Impiegati)</tspan></tspan></tspan></text>
<path d="m18472 8825.7h-5512v-827h11024v827h-5512z" style="fill:url(#e)"/><path d="m18472 8825.7h-5512v-827h11024v827h-5512z" style="fill:none;stroke:#fff"/><text x="-1921.2744" y="-6882.2744" style="font-size:12px"><tspan style="font-family:Arial;font-size:494px;font-style:italic;font-weight:400"><tspan x="13662.727" y="8571.7256"><tspan style="fill:#000000">SEL </tspan></tspan><tspan x="14737.727" y="8669.7256"><tspan style="fill:#000000;font-size:395px">Stipendio&gt;50 AND Filiale='Milano' </tspan></tspan><tspan y="8571.7256"><tspan style="fill:#000000"> (Impiegati)</tspan></tspan></tspan></text>
<path d="m14438 9752.7h-1378v-827h2756v827h-1378z" style="fill:#808080"/><path d="m14438 9752.7h-1378v-827h2756v827h-1378z" style="fill:none;stroke:#808080"/><text x="-1921.2744" y="-6882.2744" style="font-size:12px"><tspan style="font-family:Arial;font-size:494px;font-weight:700"><tspan x="13349.727" y="9537.7256"><tspan style="fill:#808080">Matricola</tspan></tspan></tspan></text>
<path d="m14338 9652.7h-1378v-827h2756v827h-1378z" style="fill:#f00"/><path d="m14338 9652.7h-1378v-827h2756v827h-1378z" style="fill:none;stroke:#fff"/><text x="-1921.2744" y="-6882.2744" style="font-size:12px"><tspan style="font-family:Arial;font-size:494px;font-weight:700"><tspan x="13249.727" y="9437.7256"><tspan style="fill:#000000">Matricola</tspan></tspan></tspan></text>
<path d="m17194 9752.7h-1378v-827h2756v827h-1378z" style="fill:#808080"/><path d="m17194 9752.7h-1378v-827h2756v827h-1378z" style="fill:none;stroke:#808080"/><text x="-1921.2744" y="-6882.2744" style="font-size:12px"><tspan style="font-family:Arial;font-size:494px;font-weight:700"><tspan x="16505.727" y="9537.7256"><tspan style="fill:#808080">Nome</tspan></tspan></tspan></text>
<path d="m17094 9652.7h-1378v-827h2756v827h-1378z" style="fill:#f00"/><path d="m17094 9652.7h-1378v-827h2756v827h-1378z" style="fill:none;stroke:#fff"/><text x="-1921.2744" y="-6882.2744" style="font-size:12px"><tspan style="font-family:Arial;font-size:494px;font-weight:700"><tspan x="16405.727" y="9437.7256"><tspan style="fill:#000000">Nome</tspan></tspan></tspan></text>
<path d="m19950 9752.7h-1378v-827h2756v827h-1378z" style="fill:#808080"/><path d="m19950 9752.7h-1378v-827h2756v827h-1378z" style="fill:none;stroke:#808080"/><text x="-1921.2744" y="-6882.2744" style="font-size:12px"><tspan style="font-family:Arial;font-size:494px;font-weight:700"><tspan x="19244.727" y="9537.7256"><tspan style="fill:#808080">Filiale</tspan></tspan></tspan></text>
<path d="m19850 9652.7h-1378v-827h2756v827h-1378z" style="fill:#f00"/><path d="m19850 9652.7h-1378v-827h2756v827h-1378z" style="fill:none;stroke:#fff"/><text x="-1921.2744" y="-6882.2744" style="font-size:12px"><tspan style="font-family:Arial;font-size:494px;font-weight:700"><tspan x="19144.727" y="9437.7256"><tspan style="fill:#000000">Filiale</tspan></tspan></tspan></text>
<path d="m14438 10304h-1378v-551h2756v551h-1378z" style="fill:#808080"/><path d="m14438 10304h-1378v-551h2756v551h-1378z" style="fill:none;stroke:#808080"/><text x="-1921.2744" y="-6882.2744" style="font-size:12px"><tspan style="font-family:Arial;font-size:423px;font-weight:400"><tspan x="13963.727" y="10197.726"><tspan style="fill:#808080">5998</tspan></tspan></tspan></text>
<path d="m14338 10204h-1378v-551h2756v551h-1378z" style="fill:#ff6"/><path d="m14338 10204h-1378v-551h2756v551h-1378z" style="fill:none;stroke:#fff"/><text x="-1921.2744" y="-6882.2744" style="font-size:12px"><tspan style="font-family:Arial;font-size:423px;font-weight:400"><tspan x="13863.727" y="10097.726"><tspan style="fill:#000000">5998</tspan></tspan></tspan></text>
<path d="m17194 10304h-1378v-551h2756v551h-1378z" style="fill:#808080"/><path d="m17194 10304h-1378v-551h2756v551h-1378z" style="fill:none;stroke:#808080"/><text x="-1921.2744" y="-6882.2744" style="font-size:12px"><tspan style="font-family:Arial;font-size:423px;font-weight:400"><tspan x="16805.727" y="10197.726"><tspan style="fill:#808080">Neri</tspan></tspan></tspan></text>
<path d="m17094 10204h-1378v-551h2756v551h-1378z" style="fill:#ff6"/><path d="m17094 10204h-1378v-551h2756v551h-1378z" style="fill:none;stroke:#fff"/><text x="-1921.2744" y="-6882.2744" style="font-size:12px"><tspan style="font-family:Arial;font-size:423px;font-weight:400"><tspan x="16705.727" y="10097.726"><tspan style="fill:#000000">Neri</tspan></tspan></tspan></text>
<path d="m19950 10304h-1378v-551h2756v551h-1378z" style="fill:#808080"/><path d="m19950 10304h-1378v-551h2756v551h-1378z" style="fill:none;stroke:#808080"/><text x="-1921.2744" y="-6882.2744" style="font-size:12px"><tspan style="font-family:Arial;font-size:423px;font-weight:400"><tspan x="19324.727" y="10197.726"><tspan style="fill:#808080">Milano</tspan></tspan></tspan></text>
<path d="m19850 10204h-1378v-551h2756v551h-1378z" style="fill:#ff6"/><path d="m19850 10204h-1378v-551h2756v551h-1378z" style="fill:none;stroke:#fff"/><text x="-1921.2744" y="-6882.2744" style="font-size:12px"><tspan style="font-family:Arial;font-size:423px;font-weight:400"><tspan x="19224.727" y="10097.726"><tspan style="fill:#000000">Milano</tspan></tspan></tspan></text>
<path d="m22706 9752.7h-1378v-827h2756v827h-1378z" style="fill:#808080"/><path d="m22706 9752.7h-1378v-827h2756v827h-1378z" style="fill:none;stroke:#808080"/><text x="-1921.2744" y="-6882.2744" style="font-size:12px"><tspan style="font-family:Arial;font-size:494px;font-weight:700"><tspan x="21579.727" y="9537.7256"><tspan style="fill:#808080">Stipendio</tspan></tspan></tspan></text>
<path d="m22606 9652.7h-1378v-827h2756v827h-1378z" style="fill:#f00"/><path d="m22606 9652.7h-1378v-827h2756v827h-1378z" style="fill:none;stroke:#fff"/><text x="-1921.2744" y="-6882.2744" style="font-size:12px"><tspan style="font-family:Arial;font-size:494px;font-weight:700"><tspan x="21479.727" y="9437.7256"><tspan style="fill:#000000">Stipendio</tspan></tspan></tspan></text>
<path d="m22706 10304h-1378v-551h2756v551h-1378z" style="fill:#808080"/><path d="m22706 10304h-1378v-551h2756v551h-1378z" style="fill:none;stroke:#808080"/><text x="-1921.2744" y="-6882.2744" style="font-size:12px"><tspan style="font-family:Arial;font-size:423px;font-weight:400"><tspan x="22468.727" y="10197.726"><tspan style="fill:#808080">64</tspan></tspan></tspan></text>
<path d="m22606 10204h-1378v-551h2756v551h-1378z" style="fill:#ff6"/><path d="m22606 10204h-1378v-551h2756v551h-1378z" style="fill:none;stroke:#fff"/><text x="-1921.2744" y="-6882.2744" style="font-size:12px"><tspan style="font-family:Arial;font-size:423px;font-weight:400"><tspan x="22368.727" y="10097.726"><tspan style="fill:#000000">64</tspan></tspan></tspan></text>
<g style="fill:#808080;stroke-width:28.222;stroke:#808080"><path d="m12134 4140.7c0 195-23 369-66 527" style="fill:#808080;stroke-width:28.222;stroke:#808080"/><path d="m11863 5115.7c-95 139-212 260-348 364" style="fill:#808080;stroke-width:28.222;stroke:#808080"/><path d="m11079 5736.7c-148 67-306 124-474 173" style="fill:#808080;stroke-width:28.222;stroke:#808080"/><path d="m10105 6032.7c-163 33-330 62-499 88" style="fill:#808080;stroke-width:28.222;stroke:#808080"/><path d="m9098.7 6191.7c-169 22-338 43-505 65" style="fill:#808080;stroke-width:28.222;stroke:#808080"/><path d="m8084.7 6326.7c-170 26-337 54-497 87" style="fill:#808080;stroke-width:28.222;stroke:#808080"/><path d="m7088.7 6537.7c-172 52-332 113-477 185" style="fill:#808080;stroke-width:28.222;stroke:#808080"/><path d="m6199.7 7003.7c-118 110-213 238-282 387" style="fill:#808080;stroke-width:28.222;stroke:#808080"/><path d="m5794.7 7998.7 361-613-440-94 79 707z" style="fill:#808080;stroke-width:28.222;stroke:#808080"/><path d="m12134 4140.7c0 195 23 369 66 527" style="fill:#808080;stroke-width:28.222;stroke:#808080"/><path d="m12405 5115.7c94 139 212 260 348 364" style="fill:#808080;stroke-width:28.222;stroke:#808080"/><path d="m13189 5736.7c148 67 306 124 473 173" style="fill:#808080;stroke-width:28.222;stroke:#808080"/><path d="m14163 6032.7c163 33 329 62 499 88" style="fill:#808080;stroke-width:28.222;stroke:#808080"/><path d="m15169 6191.7c169 22 337 43 505 65" style="fill:#808080;stroke-width:28.222;stroke:#808080"/><path d="m16183 6326.7c170 26 337 54 497 87" style="fill:#808080;stroke-width:28.222;stroke:#808080"/><path d="m17179 6537.7c172 52 332 113 477 186" style="fill:#808080;stroke-width:28.222;stroke:#808080"/><path d="m18068 7003.7c117 110 212 238 281 387" style="fill:#808080;stroke-width:28.222;stroke:#808080"/><path d="m18472 7998.7 79-707-440 94 361 613z" style="fill:#808080;stroke-width:28.222;stroke:#808080"/></g></svg>
