<?xml version="1.0" encoding="UTF-8"?>
<svg clip-path="url(#b)" style="fill-rule:evenodd;stroke-linejoin:round;stroke-width:28.222" version="1.2" viewBox="0 0 18331 8959.7" xml:space="preserve" xmlns="http://www.w3.org/2000/svg" xmlns:xlink="http://www.w3.org/1999/xlink"><defs><linearGradient id="a"><stop style="stop-color:#c8c8c8" offset="0"/><stop style="stop-color:#fff" offset="1"/></linearGradient><clipPath id="b"><rect width="28000" height="21000"/></clipPath><linearGradient id="f" x1="6062" x2="9920" y1="7027.5" y2="7027.5" gradientTransform="translate(-5765.7 -6317.7)" gradientUnits="userSpaceOnUse"><stop style="stop-color:#fff" offset="0"/><stop style="stop-color:#fff;stop-opacity:0" offset="1"/></linearGradient><linearGradient id="e" x1="7716" x2="11574" y1="11988" y2="11988" gradientTransform="translate(-5765.7 -6317.7)" gradientUnits="userSpaceOnUse" xlink:href="#a"/><linearGradient id="d" x1="18174" x2="22060" y1="9782.5" y2="9782.5" gradientTransform="translate(-5765.7 -6317.7)" gradientUnits="userSpaceOnUse" xlink:href="#a"/><linearGradient id="c" x1="6047.9" x2="9934.1" y1="7027.5" y2="7027.5" gradientTransform="translate(-5765.7 -6317.7)" gradientUnits="userSpaceOnUse" xlink:href="#a"/></defs><defs/><defs/><path d="m2325.3 1223.3h-1929v-827h3858v827h-1929z" style="fill:#808080"/><path d="m2325.3 1223.3h-1929v-827h3858v827h-1929z" style="fill:none;stroke-width:28.222;stroke:#808080"/><text x="-5765.667" y="-6317.667" style="font-size:12px"><tspan style="font-family:'Arial';font-size:494px;font-style:italic;font-weight:400"><tspan x="1429.3333" y="1008.3333"><tspan style="fill:#808080">Laureati</tspan></tspan></tspan></text>
<path d="m2225.3 1123.3h-1929v-827h3858v827h-1929z" style="fill:url(#f)"/><path d="m2225.3 1123.3h-1929v-827h3858v827h-1929z" style="fill:url(#c);stroke-width:28.222;stroke:#fff"/><text x="-5765.667" y="-6317.667" style="font-size:12px"><tspan style="font-family:'Arial';font-size:494px;font-style:italic;font-weight:400"><tspan x="1329.3333" y="908.33325"><tspan style="fill:#000000">Laureati</tspan></tspan></tspan></text>
<path d="m1774.3 2049.3h-1378v-827h2756v827h-1378z" style="fill:#808080"/><path d="m1774.3 2049.3h-1378v-827h2756v827h-1378z" style="fill:none;stroke-width:28.222;stroke:#808080"/><text x="-5765.667" y="-6317.667" style="font-size:12px"><tspan style="font-family:'Arial';font-size:494px;font-weight:700"><tspan x="686.33325" y="1834.3333"><tspan style="fill:#808080">Matricola</tspan></tspan></tspan></text>
<path d="m1674.3 1949.3h-1378v-827h2756v827h-1378z" style="fill:#f00"/><path d="m1674.3 1949.3h-1378v-827h2756v827h-1378z" style="fill:none;stroke-width:28.222;stroke:#fff"/><text x="-5765.667" y="-6317.667" style="font-size:12px"><tspan style="font-family:'Arial';font-size:494px;font-weight:700"><tspan x="586.33325" y="1734.3333"><tspan style="fill:#000000">Matricola</tspan></tspan></tspan></text>
<path d="m4530.3 2049.3h-1378v-827h2756v827h-1378z" style="fill:#808080"/><path d="m4530.3 2049.3h-1378v-827h2756v827h-1378z" style="fill:none;stroke-width:28.222;stroke:#808080"/><text x="-5765.667" y="-6317.667" style="font-size:12px"><tspan style="font-family:'Arial';font-size:494px;font-weight:700"><tspan x="3842.3333" y="1834.3333"><tspan style="fill:#808080">Nome</tspan></tspan></tspan></text>
<path d="m4430.3 1949.3h-1378v-827h2756v827h-1378z" style="fill:#f00"/><path d="m4430.3 1949.3h-1378v-827h2756v827h-1378z" style="fill:none;stroke-width:28.222;stroke:#fff"/><text x="-5765.667" y="-6317.667" style="font-size:12px"><tspan style="font-family:'Arial';font-size:494px;font-weight:700"><tspan x="3742.3333" y="1734.3333"><tspan style="fill:#000000">Nome</tspan></tspan></tspan></text>
<path d="m7286.3 2049.3h-1378v-827h2756v827h-1378z" style="fill:#808080"/><path d="m7286.3 2049.3h-1378v-827h2756v827h-1378z" style="fill:none;stroke-width:28.222;stroke:#808080"/><text x="-5765.667" y="-6317.667" style="font-size:12px"><tspan style="font-family:'Arial';font-size:494px;font-weight:700"><tspan x="6901.333" y="1834.3333"><tspan style="fill:#808080">Età</tspan></tspan></tspan></text>
<path d="m7186.3 1949.3h-1378v-827h2756v827h-1378z" style="fill:#f00"/><path d="m7186.3 1949.3h-1378v-827h2756v827h-1378z" style="fill:none;stroke-width:28.222;stroke:#fff"/><text x="-5765.667" y="-6317.667" style="font-size:12px"><tspan style="font-family:'Arial';font-size:494px;font-weight:700"><tspan x="6801.333" y="1734.3333"><tspan style="fill:#000000">Età</tspan></tspan></tspan></text>
<path d="m1774.3 2600.3h-1378v-551h2756v551h-1378z" style="fill:#808080"/><path d="m1774.3 2600.3h-1378v-551h2756v551h-1378z" style="fill:none;stroke-width:28.222;stroke:#808080"/><text x="-5765.667" y="-6317.667" style="font-size:12px"><tspan style="font-family:'Arial';font-size:423px;font-weight:400"><tspan x="1300.3333" y="2494.3333"><tspan style="fill:#808080">7274</tspan></tspan></tspan></text>
<path d="m1674.3 2500.3h-1378v-551h2756v551h-1378z" style="fill:#ff6"/><path d="m1674.3 2500.3h-1378v-551h2756v551h-1378z" style="fill:none;stroke-width:28.222;stroke:#fff"/><text x="-5765.667" y="-6317.667" style="font-size:12px"><tspan style="font-family:'Arial';font-size:423px;font-weight:400"><tspan x="1200.3333" y="2394.3333"><tspan style="fill:#000000">7274</tspan></tspan></tspan></text>
<path d="m4530.3 2600.3h-1378v-551h2756v551h-1378z" style="fill:#808080"/><path d="m4530.3 2600.3h-1378v-551h2756v551h-1378z" style="fill:none;stroke-width:28.222;stroke:#808080"/><text x="-5765.667" y="-6317.667" style="font-size:12px"><tspan style="font-family:'Arial';font-size:423px;font-weight:400"><tspan x="4001.3333" y="2494.3333"><tspan style="fill:#808080">Rossi</tspan></tspan></tspan></text>
<path d="m4430.3 2500.3h-1378v-551h2756v551h-1378z" style="fill:#ff6"/><path d="m4430.3 2500.3h-1378v-551h2756v551h-1378z" style="fill:none;stroke-width:28.222;stroke:#fff"/><text x="-5765.667" y="-6317.667" style="font-size:12px"><tspan style="font-family:'Arial';font-size:423px;font-weight:400"><tspan x="3901.3333" y="2394.3333"><tspan style="fill:#000000">Rossi</tspan></tspan></tspan></text>
<path d="m7286.3 2600.3h-1378v-551h2756v551h-1378z" style="fill:#808080"/><path d="m7286.3 2600.3h-1378v-551h2756v551h-1378z" style="fill:none;stroke-width:28.222;stroke:#808080"/><text x="-5765.667" y="-6317.667" style="font-size:12px"><tspan style="font-family:'Arial';font-size:423px;font-weight:400"><tspan x="7049.333" y="2494.3333"><tspan style="fill:#808080">42</tspan></tspan></tspan></text>
<path d="m7186.3 2500.3h-1378v-551h2756v551h-1378z" style="fill:#ff6"/><path d="m7186.3 2500.3h-1378v-551h2756v551h-1378z" style="fill:none;stroke-width:28.222;stroke:#fff"/><text x="-5765.667" y="-6317.667" style="font-size:12px"><tspan style="font-family:'Arial';font-size:423px;font-weight:400"><tspan x="6949.333" y="2394.3333"><tspan style="fill:#000000">42</tspan></tspan></tspan></text>
<path d="m1774.3 3151.3h-1378v-551h2756v551h-1378z" style="fill:#808080"/><path d="m1774.3 3151.3h-1378v-551h2756v551h-1378z" style="fill:none;stroke-width:28.222;stroke:#808080"/><text x="-5765.667" y="-6317.667" style="font-size:12px"><tspan style="font-family:'Arial';font-size:423px;font-weight:400"><tspan x="1300.3333" y="3045.3333"><tspan style="fill:#808080">7432</tspan></tspan></tspan></text>
<path d="m1674.3 3051.3h-1378v-551h2756v551h-1378z" style="fill:#ff6"/><path d="m1674.3 3051.3h-1378v-551h2756v551h-1378z" style="fill:none;stroke-width:28.222;stroke:#fff"/><text x="-5765.667" y="-6317.667" style="font-size:12px"><tspan style="font-family:'Arial';font-size:423px;font-weight:400"><tspan x="1200.3333" y="2945.3333"><tspan style="fill:#000000">7432</tspan></tspan></tspan></text>
<path d="m4530.3 3151.3h-1378v-551h2756v551h-1378z" style="fill:#808080"/><path d="m4530.3 3151.3h-1378v-551h2756v551h-1378z" style="fill:none;stroke-width:28.222;stroke:#808080"/><text x="-5765.667" y="-6317.667" style="font-size:12px"><tspan style="font-family:'Arial';font-size:423px;font-weight:400"><tspan x="4142.333" y="3045.3333"><tspan style="fill:#808080">Neri</tspan></tspan></tspan></text>
<path d="m4430.3 3051.3h-1378v-551h2756v551h-1378z" style="fill:#ff6"/><path d="m4430.3 3051.3h-1378v-551h2756v551h-1378z" style="fill:none;stroke-width:28.222;stroke:#fff"/><text x="-5765.667" y="-6317.667" style="font-size:12px"><tspan style="font-family:'Arial';font-size:423px;font-weight:400"><tspan x="4042.3333" y="2945.3333"><tspan style="fill:#000000">Neri</tspan></tspan></tspan></text>
<path d="m7286.3 3151.3h-1378v-551h2756v551h-1378z" style="fill:#808080"/><path d="m7286.3 3151.3h-1378v-551h2756v551h-1378z" style="fill:none;stroke-width:28.222;stroke:#808080"/><text x="-5765.667" y="-6317.667" style="font-size:12px"><tspan style="font-family:'Arial';font-size:423px;font-weight:400"><tspan x="7049.333" y="3045.3333"><tspan style="fill:#808080">54</tspan></tspan></tspan></text>
<path d="m7186.3 3051.3h-1378v-551h2756v551h-1378z" style="fill:#ff6"/><path d="m7186.3 3051.3h-1378v-551h2756v551h-1378z" style="fill:none;stroke-width:28.222;stroke:#fff"/><text x="-5765.667" y="-6317.667" style="font-size:12px"><tspan style="font-family:'Arial';font-size:423px;font-weight:400"><tspan x="6949.333" y="2945.3333"><tspan style="fill:#000000">54</tspan></tspan></tspan></text>
<path d="m1774.3 3702.3h-1378v-551h2756v551h-1378z" style="fill:#808080"/><path d="m1774.3 3702.3h-1378v-551h2756v551h-1378z" style="fill:none;stroke-width:28.222;stroke:#808080"/><text x="-5765.667" y="-6317.667" style="font-size:12px"><tspan style="font-family:'Arial';font-size:423px;font-weight:400"><tspan x="1300.3333" y="3596.3333"><tspan style="fill:#808080">9824</tspan></tspan></tspan></text>
<path d="m1674.3 3602.3h-1378v-551h2756v551h-1378z" style="fill:#ff6"/><path d="m1674.3 3602.3h-1378v-551h2756v551h-1378z" style="fill:none;stroke-width:28.222;stroke:#fff"/><text x="-5765.667" y="-6317.667" style="font-size:12px"><tspan style="font-family:'Arial';font-size:423px;font-weight:400"><tspan x="1200.3333" y="3496.3333"><tspan style="fill:#000000">9824</tspan></tspan></tspan></text>
<path d="m4530.3 3702.3h-1378v-551h2756v551h-1378z" style="fill:#808080"/><path d="m4530.3 3702.3h-1378v-551h2756v551h-1378z" style="fill:none;stroke-width:28.222;stroke:#808080"/><text x="-5765.667" y="-6317.667" style="font-size:12px"><tspan style="font-family:'Arial';font-size:423px;font-weight:400"><tspan x="4034.3333" y="3596.3333"><tspan style="fill:#808080">Verdi</tspan></tspan></tspan></text>
<path d="m4430.3 3602.3h-1378v-551h2756v551h-1378z" style="fill:#ff6"/><path d="m4430.3 3602.3h-1378v-551h2756v551h-1378z" style="fill:none;stroke-width:28.222;stroke:#fff"/><text x="-5765.667" y="-6317.667" style="font-size:12px"><tspan style="font-family:'Arial';font-size:423px;font-weight:400"><tspan x="3934.3333" y="3496.3333"><tspan style="fill:#000000">Verdi</tspan></tspan></tspan></text>
<path d="m7286.3 3702.3h-1378v-551h2756v551h-1378z" style="fill:#808080"/><path d="m7286.3 3702.3h-1378v-551h2756v551h-1378z" style="fill:none;stroke-width:28.222;stroke:#808080"/><text x="-5765.667" y="-6317.667" style="font-size:12px"><tspan style="font-family:'Arial';font-size:423px;font-weight:400"><tspan x="7049.333" y="3596.3333"><tspan style="fill:#808080">45</tspan></tspan></tspan></text>
<path d="m7186.3 3602.3h-1378v-551h2756v551h-1378z" style="fill:#ff6"/><path d="m7186.3 3602.3h-1378v-551h2756v551h-1378z" style="fill:none;stroke-width:28.222;stroke:#fff"/><text x="-5765.667" y="-6317.667" style="font-size:12px"><tspan style="font-family:'Arial';font-size:423px;font-weight:400"><tspan x="6949.333" y="3496.3333"><tspan style="fill:#000000">45</tspan></tspan></tspan></text>
<path d="m3979.3 6183.3h-1929v-827h3858v827h-1929z" style="fill:#808080"/><path d="m3979.3 6183.3h-1929v-827h3858v827h-1929z" style="fill:none;stroke-width:28.222;stroke:#808080"/><text x="-5765.667" y="-6317.667" style="font-size:12px"><tspan style="font-family:'Arial';font-size:494px;font-style:italic;font-weight:400"><tspan x="3236.3333" y="5968.333"><tspan style="fill:#808080">Quadri</tspan></tspan></tspan></text>
<path d="m3879.3 6083.3h-1929v-827h3858v827h-1929z" style="fill:url(#e)"/><path d="m3879.3 6083.3h-1929v-827h3858v827h-1929z" style="fill:none;stroke-width:28.222;stroke:#fff"/><text x="-5765.667" y="-6317.667" style="font-size:12px"><tspan style="font-family:'Arial';font-size:494px;font-style:italic;font-weight:400"><tspan x="3136.3333" y="5868.333"><tspan style="fill:#000000">Quadri</tspan></tspan></tspan></text>
<path d="m3428.3 7010.3h-1378v-827h2756v827h-1378z" style="fill:#808080"/><path d="m3428.3 7010.3h-1378v-827h2756v827h-1378z" style="fill:none;stroke-width:28.222;stroke:#808080"/><text x="-5765.667" y="-6317.667" style="font-size:12px"><tspan style="font-family:'Arial';font-size:494px;font-weight:700"><tspan x="2340.3333" y="6795.333"><tspan style="fill:#808080">Matricola</tspan></tspan></tspan></text>
<path d="m3328.3 6910.3h-1378v-827h2756v827h-1378z" style="fill:#f00"/><path d="m3328.3 6910.3h-1378v-827h2756v827h-1378z" style="fill:none;stroke-width:28.222;stroke:#fff"/><text x="-5765.667" y="-6317.667" style="font-size:12px"><tspan style="font-family:'Arial';font-size:494px;font-weight:700"><tspan x="2240.3333" y="6695.333"><tspan style="fill:#000000">Matricola</tspan></tspan></tspan></text>
<path d="m6184.3 7010.3h-1378v-827h2756v827h-1378z" style="fill:#808080"/><path d="m6184.3 7010.3h-1378v-827h2756v827h-1378z" style="fill:none;stroke-width:28.222;stroke:#808080"/><text x="-5765.667" y="-6317.667" style="font-size:12px"><tspan style="font-family:'Arial';font-size:494px;font-weight:700"><tspan x="5496.333" y="6795.333"><tspan style="fill:#808080">Nome</tspan></tspan></tspan></text>
<path d="m6084.3 6910.3h-1378v-827h2756v827h-1378z" style="fill:#f00"/><path d="m6084.3 6910.3h-1378v-827h2756v827h-1378z" style="fill:none;stroke-width:28.222;stroke:#fff"/><text x="-5765.667" y="-6317.667" style="font-size:12px"><tspan style="font-family:'Arial';font-size:494px;font-weight:700"><tspan x="5396.333" y="6695.333"><tspan style="fill:#000000">Nome</tspan></tspan></tspan></text>
<path d="m8940.3 7010.3h-1378v-827h2756v827h-1378z" style="fill:#808080"/><path d="m8940.3 7010.3h-1378v-827h2756v827h-1378z" style="fill:none;stroke-width:28.222;stroke:#808080"/><text x="-5765.667" y="-6317.667" style="font-size:12px"><tspan style="font-family:'Arial';font-size:494px;font-weight:700"><tspan x="8555.333" y="6795.333"><tspan style="fill:#808080">Età</tspan></tspan></tspan></text>
<path d="m8840.3 6910.3h-1378v-827h2756v827h-1378z" style="fill:#f00"/><path d="m8840.3 6910.3h-1378v-827h2756v827h-1378z" style="fill:none;stroke-width:28.222;stroke:#fff"/><text x="-5765.667" y="-6317.667" style="font-size:12px"><tspan style="font-family:'Arial';font-size:494px;font-weight:700"><tspan x="8455.333" y="6695.333"><tspan style="fill:#000000">Età</tspan></tspan></tspan></text>
<path d="m3428.3 7561.3h-1378v-551h2756v551h-1378z" style="fill:#808080"/><path d="m3428.3 7561.3h-1378v-551h2756v551h-1378z" style="fill:none;stroke-width:28.222;stroke:#808080"/><text x="-5765.667" y="-6317.667" style="font-size:12px"><tspan style="font-family:'Arial';font-size:423px;font-weight:400"><tspan x="2954.3333" y="7455.333"><tspan style="fill:#808080">9297</tspan></tspan></tspan></text>
<path d="m3328.3 7461.3h-1378v-551h2756v551h-1378z" style="fill:#ff6"/><path d="m3328.3 7461.3h-1378v-551h2756v551h-1378z" style="fill:none;stroke-width:28.222;stroke:#fff"/><text x="-5765.667" y="-6317.667" style="font-size:12px"><tspan style="font-family:'Arial';font-size:423px;font-weight:400"><tspan x="2854.3333" y="7355.333"><tspan style="fill:#000000">9297</tspan></tspan></tspan></text>
<path d="m6184.3 7561.3h-1378v-551h2756v551h-1378z" style="fill:#808080"/><path d="m6184.3 7561.3h-1378v-551h2756v551h-1378z" style="fill:none;stroke-width:28.222;stroke:#808080"/><text x="-5765.667" y="-6317.667" style="font-size:12px"><tspan style="font-family:'Arial';font-size:423px;font-weight:400"><tspan x="5796.333" y="7455.333"><tspan style="fill:#808080">Neri</tspan></tspan></tspan></text>
<path d="m6084.3 7461.3h-1378v-551h2756v551h-1378z" style="fill:#ff6"/><path d="m6084.3 7461.3h-1378v-551h2756v551h-1378z" style="fill:none;stroke-width:28.222;stroke:#fff"/><text x="-5765.667" y="-6317.667" style="font-size:12px"><tspan style="font-family:'Arial';font-size:423px;font-weight:400"><tspan x="5696.333" y="7355.333"><tspan style="fill:#000000">Neri</tspan></tspan></tspan></text>
<path d="m8940.3 7561.3h-1378v-551h2756v551h-1378z" style="fill:#808080"/><path d="m8940.3 7561.3h-1378v-551h2756v551h-1378z" style="fill:none;stroke-width:28.222;stroke:#808080"/><text x="-5765.667" y="-6317.667" style="font-size:12px"><tspan style="font-family:'Arial';font-size:423px;font-weight:400"><tspan x="8703.333" y="7455.333"><tspan style="fill:#808080">33</tspan></tspan></tspan></text>
<path d="m8840.3 7461.3h-1378v-551h2756v551h-1378z" style="fill:#ff6"/><path d="m8840.3 7461.3h-1378v-551h2756v551h-1378z" style="fill:none;stroke-width:28.222;stroke:#fff"/><text x="-5765.667" y="-6317.667" style="font-size:12px"><tspan style="font-family:'Arial';font-size:423px;font-weight:400"><tspan x="8603.333" y="7355.333"><tspan style="fill:#000000">33</tspan></tspan></tspan></text>
<path d="m3428.3 8112.3h-1378v-551h2756v551h-1378z" style="fill:#808080"/><path d="m3428.3 8112.3h-1378v-551h2756v551h-1378z" style="fill:none;stroke-width:28.222;stroke:#808080"/><text x="-5765.667" y="-6317.667" style="font-size:12px"><tspan style="font-family:'Arial';font-size:423px;font-weight:400"><tspan x="2954.3333" y="8006.333"><tspan style="fill:#808080">7432</tspan></tspan></tspan></text>
<path d="m3328.3 8012.3h-1378v-551h2756v551h-1378z" style="fill:#ff6"/><path d="m3328.3 8012.3h-1378v-551h2756v551h-1378z" style="fill:none;stroke-width:28.222;stroke:#fff"/><text x="-5765.667" y="-6317.667" style="font-size:12px"><tspan style="font-family:'Arial';font-size:423px;font-weight:400"><tspan x="2854.3333" y="7906.333"><tspan style="fill:#000000">7432</tspan></tspan></tspan></text>
<path d="m6184.3 8112.3h-1378v-551h2756v551h-1378z" style="fill:#808080"/><path d="m6184.3 8112.3h-1378v-551h2756v551h-1378z" style="fill:none;stroke-width:28.222;stroke:#808080"/><text x="-5765.667" y="-6317.667" style="font-size:12px"><tspan style="font-family:'Arial';font-size:423px;font-weight:400"><tspan x="5796.333" y="8006.333"><tspan style="fill:#808080">Neri</tspan></tspan></tspan></text>
<path d="m6084.3 8012.3h-1378v-551h2756v551h-1378z" style="fill:#ff6"/><path d="m6084.3 8012.3h-1378v-551h2756v551h-1378z" style="fill:none;stroke-width:28.222;stroke:#fff"/><text x="-5765.667" y="-6317.667" style="font-size:12px"><tspan style="font-family:'Arial';font-size:423px;font-weight:400"><tspan x="5696.333" y="7906.333"><tspan style="fill:#000000">Neri</tspan></tspan></tspan></text>
<path d="m8940.3 8112.3h-1378v-551h2756v551h-1378z" style="fill:#808080"/><path d="m8940.3 8112.3h-1378v-551h2756v551h-1378z" style="fill:none;stroke-width:28.222;stroke:#808080"/><text x="-5765.667" y="-6317.667" style="font-size:12px"><tspan style="font-family:'Arial';font-size:423px;font-weight:400"><tspan x="8703.333" y="8006.333"><tspan style="fill:#808080">54</tspan></tspan></tspan></text>
<path d="m8840.3 8012.3h-1378v-551h2756v551h-1378z" style="fill:#ff6"/><path d="m8840.3 8012.3h-1378v-551h2756v551h-1378z" style="fill:none;stroke-width:28.222;stroke:#fff"/><text x="-5765.667" y="-6317.667" style="font-size:12px"><tspan style="font-family:'Arial';font-size:423px;font-weight:400"><tspan x="8603.333" y="7906.333"><tspan style="fill:#000000">54</tspan></tspan></tspan></text>
<path d="m3428.3 8663.3h-1378v-551h2756v551h-1378z" style="fill:#808080"/><path d="m3428.3 8663.3h-1378v-551h2756v551h-1378z" style="fill:none;stroke-width:28.222;stroke:#808080"/><text x="-5765.667" y="-6317.667" style="font-size:12px"><tspan style="font-family:'Arial';font-size:423px;font-weight:400"><tspan x="2954.3333" y="8557.333"><tspan style="fill:#808080">9824</tspan></tspan></tspan></text>
<path d="m3328.3 8563.3h-1378v-551h2756v551h-1378z" style="fill:#ff6"/><path d="m3328.3 8563.3h-1378v-551h2756v551h-1378z" style="fill:none;stroke-width:28.222;stroke:#fff"/><text x="-5765.667" y="-6317.667" style="font-size:12px"><tspan style="font-family:'Arial';font-size:423px;font-weight:400"><tspan x="2854.3333" y="8457.333"><tspan style="fill:#000000">9824</tspan></tspan></tspan></text>
<path d="m6184.3 8663.3h-1378v-551h2756v551h-1378z" style="fill:#808080"/><path d="m6184.3 8663.3h-1378v-551h2756v551h-1378z" style="fill:none;stroke-width:28.222;stroke:#808080"/><text x="-5765.667" y="-6317.667" style="font-size:12px"><tspan style="font-family:'Arial';font-size:423px;font-weight:400"><tspan x="5688.333" y="8557.333"><tspan style="fill:#808080">Verdi</tspan></tspan></tspan></text>
<path d="m6084.3 8563.3h-1378v-551h2756v551h-1378z" style="fill:#ff6"/><path d="m6084.3 8563.3h-1378v-551h2756v551h-1378z" style="fill:none;stroke-width:28.222;stroke:#fff"/><text x="-5765.667" y="-6317.667" style="font-size:12px"><tspan style="font-family:'Arial';font-size:423px;font-weight:400"><tspan x="5588.333" y="8457.333"><tspan style="fill:#000000">Verdi</tspan></tspan></tspan></text>
<path d="m8940.3 8663.3h-1378v-551h2756v551h-1378z" style="fill:#808080"/><path d="m8940.3 8663.3h-1378v-551h2756v551h-1378z" style="fill:none;stroke-width:28.222;stroke:#808080"/><text x="-5765.667" y="-6317.667" style="font-size:12px"><tspan style="font-family:'Arial';font-size:423px;font-weight:400"><tspan x="8703.333" y="8557.333"><tspan style="fill:#808080">45</tspan></tspan></tspan></text>
<path d="m8840.3 8563.3h-1378v-551h2756v551h-1378z" style="fill:#ff6"/><path d="m8840.3 8563.3h-1378v-551h2756v551h-1378z" style="fill:none;stroke-width:28.222;stroke:#fff"/><text x="-5765.667" y="-6317.667" style="font-size:12px"><tspan style="font-family:'Arial';font-size:423px;font-weight:400"><tspan x="8603.333" y="8457.333"><tspan style="fill:#000000">45</tspan></tspan></tspan></text>
<path d="m14451 3978.3h-1929v-827h3858v827h-1929z" style="fill:#808080"/><path d="m14451 3978.3h-1929v-827h3858v827h-1929z" style="fill:none;stroke-width:28.222;stroke:#808080"/><text x="-5765.667" y="-6317.667" style="font-size:12px"><tspan style="font-family:'Arial';font-size:494px;font-style:italic;font-weight:400"><tspan x="13651.333" y="3763.3333"><tspan style="fill:#808080">Reparti</tspan></tspan></tspan></text>
<path d="m14351 3878.3h-1929v-827h3858v827h-1929z" style="fill:#fff"/><path d="m14351 3878.3h-1929v-827h3858v827h-1929z" style="fill:url(#d);stroke-width:28.222;stroke:#fff"/><text x="-5765.667" y="-6317.667" style="font-size:12px"><tspan style="font-family:'Arial';font-size:494px;font-style:italic;font-weight:400"><tspan x="13551.333" y="3663.3333"><tspan style="fill:#000000">Reparti</tspan></tspan></tspan></text>
<path d="m13900 4805.3h-1378v-827h2756v827h-1378z" style="fill:#808080"/><path d="m13900 4805.3h-1378v-827h2756v827h-1378z" style="fill:none;stroke-width:28.222;stroke:#808080"/><text x="-5765.667" y="-6317.667" style="font-size:12px"><tspan style="font-family:'Arial';font-size:494px;font-weight:700"><tspan x="12964.333" y="4590.333"><tspan style="fill:#808080">Reparto</tspan></tspan></tspan></text>
<path d="m13800 4705.3h-1378v-827h2756v827h-1378z" style="fill:#f00"/><path d="m13800 4705.3h-1378v-827h2756v827h-1378z" style="fill:none;stroke-width:28.222;stroke:#fff"/><text x="-5765.667" y="-6317.667" style="font-size:12px"><tspan style="font-family:'Arial';font-size:494px;font-weight:700"><tspan x="12864.333" y="4490.333"><tspan style="fill:#000000">Reparto</tspan></tspan></tspan></text>
<path d="m16656 4805.3h-1378v-827h2756v827h-1378z" style="fill:#808080"/><path d="m16656 4805.3h-1378v-827h2756v827h-1378z" style="fill:none;stroke-width:28.222;stroke:#808080"/><text x="-5765.667" y="-6317.667" style="font-size:12px"><tspan style="font-family:'Arial';font-size:494px;font-weight:700"><tspan x="16038.333" y="4590.333"><tspan style="fill:#808080">Capo</tspan></tspan></tspan></text>
<path d="m16556 4705.3h-1378v-827h2756v827h-1378z" style="fill:#f00"/><path d="m16556 4705.3h-1378v-827h2756v827h-1378z" style="fill:none;stroke-width:28.222;stroke:#fff"/><text x="-5765.667" y="-6317.667" style="font-size:12px"><tspan style="font-family:'Arial';font-size:494px;font-weight:700"><tspan x="15938.333" y="4490.333"><tspan style="fill:#000000">Capo</tspan></tspan></tspan></text>
<path d="m13900 5356.3h-1378v-551h2756v551h-1378z" style="fill:#808080"/><path d="m13900 5356.3h-1378v-551h2756v551h-1378z" style="fill:none;stroke-width:28.222;stroke:#808080"/><text x="-5765.667" y="-6317.667" style="font-size:12px"><tspan style="font-family:'Arial';font-size:423px;font-weight:400"><tspan x="13758.333" y="5250.333"><tspan style="fill:#808080">A</tspan></tspan></tspan></text>
<path d="m13800 5256.3h-1378v-551h2756v551h-1378z" style="fill:#ff6"/><path d="m13800 5256.3h-1378v-551h2756v551h-1378z" style="fill:none;stroke-width:28.222;stroke:#fff"/><text x="-5765.667" y="-6317.667" style="font-size:12px"><tspan style="font-family:'Arial';font-size:423px;font-weight:400"><tspan x="13658.333" y="5150.333"><tspan style="fill:#000000">A</tspan></tspan></tspan></text>
<path d="m16656 5356.3h-1378v-551h2756v551h-1378z" style="fill:#808080"/><path d="m16656 5356.3h-1378v-551h2756v551h-1378z" style="fill:none;stroke-width:28.222;stroke:#808080"/><text x="-5765.667" y="-6317.667" style="font-size:12px"><tspan style="font-family:'Arial';font-size:423px;font-weight:400"><tspan x="16245.333" y="5250.333"><tspan style="fill:#808080">Mori</tspan></tspan></tspan></text>
<path d="m16556 5256.3h-1378v-551h2756v551h-1378z" style="fill:#ff6"/><path d="m16556 5256.3h-1378v-551h2756v551h-1378z" style="fill:none;stroke-width:28.222;stroke:#fff"/><text x="-5765.667" y="-6317.667" style="font-size:12px"><tspan style="font-family:'Arial';font-size:423px;font-weight:400"><tspan x="16145.333" y="5150.333"><tspan style="fill:#000000">Mori</tspan></tspan></tspan></text>
<path d="m13900 5907.3h-1378v-551h2756v551h-1378z" style="fill:#808080"/><path d="m13900 5907.3h-1378v-551h2756v551h-1378z" style="fill:none;stroke-width:28.222;stroke:#808080"/><text x="-5765.667" y="-6317.667" style="font-size:12px"><tspan style="font-family:'Arial';font-size:423px;font-weight:400"><tspan x="13758.333" y="5801.333"><tspan style="fill:#808080">B</tspan></tspan></tspan></text>
<path d="m13800 5807.3h-1378v-551h2756v551h-1378z" style="fill:#ff6"/><path d="m13800 5807.3h-1378v-551h2756v551h-1378z" style="fill:none;stroke-width:28.222;stroke:#fff"/><text x="-5765.667" y="-6317.667" style="font-size:12px"><tspan style="font-family:'Arial';font-size:423px;font-weight:400"><tspan x="13658.333" y="5701.333"><tspan style="fill:#000000">B</tspan></tspan></tspan></text>
<path d="m16656 5907.3h-1378v-551h2756v551h-1378z" style="fill:#808080"/><path d="m16656 5907.3h-1378v-551h2756v551h-1378z" style="fill:none;stroke-width:28.222;stroke:#808080"/><text x="-5765.667" y="-6317.667" style="font-size:12px"><tspan style="font-family:'Arial';font-size:423px;font-weight:400"><tspan x="16160.333" y="5801.333"><tspan style="fill:#808080">Bruni</tspan></tspan></tspan></text>
<path d="m16556 5807.3h-1378v-551h2756v551h-1378z" style="fill:#ff6"/><path d="m16556 5807.3h-1378v-551h2756v551h-1378z" style="fill:none;stroke-width:28.222;stroke:#fff"/><text x="-5765.667" y="-6317.667" style="font-size:12px"><tspan style="font-family:'Arial';font-size:423px;font-weight:400"><tspan x="16060.333" y="5701.333"><tspan style="fill:#000000">Bruni</tspan></tspan></tspan></text>
<path d="m13323 6909.3 3858-4409" style="fill:none;stroke-width:28.222;stroke:#f00"/><path d="m13249 2500.3 3858 4409" style="fill:none;stroke-width:28.222;stroke:#f00"/></svg>
