<?xml version="1.0" encoding="UTF-8"?>
<svg clip-path="url(#a)" style="fill-rule:evenodd;stroke-linejoin:round;stroke-width:28.222" preserveAspectRatio="xMidYMid" version="1.2" viewBox="0 0 22325 8869.9" xml:space="preserve" xmlns="http://www.w3.org/2000/svg" xmlns:ooo="http://xml.openoffice.org/svg/export" xmlns:xlink="http://www.w3.org/1999/xlink"><defs class="ClipPathGroup"><clipPath id="a"><rect width="28000" height="21000"/></clipPath></defs><defs class="TextShapeIndex"/><defs class="EmbeddedBulletChars"/><path d="m13484 6828.5c-172 0-342-2-509-5" style="fill:none;stroke-width:28.222;stroke:#000080"/><path d="m12467 6806.5c-171-8-340-17-507-29" style="fill:none;stroke-width:28.222;stroke:#000080"/><path d="m11455 6734.5c-170-17-338-36-505-58" style="fill:none;stroke-width:28.222;stroke:#000080"/><path d="m10447 6604.5c-167-27-333-56-500-88" style="fill:none;stroke-width:28.222;stroke:#000080"/><path d="m9449.4 6413.5c-172-38-337-77-496-118" style="fill:none;stroke-width:28.222;stroke:#000080"/><path d="m8465.4 6160.5c-168-50-329-103-484-158" style="fill:none;stroke-width:28.222;stroke:#000080"/><path d="m7510.4 5817.5c-161-69-313-142-459-218" style="fill:none;stroke-width:28.222;stroke:#000080"/><path d="m6612.4 5344.5c-17-11-33-21-49-32-135-88-256-176-364-265" style="fill:none;stroke-width:28.222;stroke:#000080"/><path d="m5836.4 4693.5c-117-142-203-285-259-434" style="fill:none;stroke-width:28.222;stroke:#000080"/><path d="m5492.4 3761.5c5-171 41-334 111-492" style="fill:none;stroke-width:28.222;stroke:#000080"/><path d="m5882.4 2847.5c102-116 225-230 371-344" style="fill:none;stroke-width:28.222;stroke:#000080"/><path d="m6671.4 2212.5c140-88 287-171 442-250" style="fill:none;stroke-width:28.222;stroke:#000080"/><path d="m7574.4 1749.5c151-63 309-124 474-181" style="fill:none;stroke-width:28.222;stroke:#000080"/><path d="m8531.4 1413.5c157-46 320-90 491-133" style="fill:none;stroke-width:28.222;stroke:#000080"/><path d="m9518.4 1165.5c166-37 332-70 498-101" style="fill:none;stroke-width:28.222;stroke:#000080"/><path d="m10517 978.52c166-26 334-49 503-70" style="fill:none;stroke-width:28.222;stroke:#000080"/><path d="m11524 852.52c167-15 335-29 506-41" style="fill:none;stroke-width:28.222;stroke:#000080"/><path d="m12538 784.52c167-7 336-12 508-15" style="fill:none;stroke-width:28.222;stroke:#000080"/><path d="m13555 765.52c172 1 342 3 508 7" style="fill:none;stroke-width:28.222;stroke:#000080"/><path d="m14571 790.52c171 8 340 19 506 31" style="fill:none;stroke-width:28.222;stroke:#000080"/><path d="m15583 866.52c170 18 338 38 505 60" style="fill:none;stroke-width:28.222;stroke:#000080"/><path d="m16590 1000.5c167 28 333 58 500 90" style="fill:none;stroke-width:28.222;stroke:#000080"/><path d="m17589 1195.5c171 39 335 79 493 120" style="fill:none;stroke-width:28.222;stroke:#000080"/><path d="m18570 1453.5c168 52 329 106 482 162" style="fill:none;stroke-width:28.222;stroke:#000080"/><path d="m19523 1804.5c160 71 311 145 456 223" style="fill:none;stroke-width:28.222;stroke:#000080"/><path d="m20415 2287.5c153 101 289 202 408 304" style="fill:none;stroke-width:28.222;stroke:#000080"/><path d="m21176 2955.5c111 145 190 292 239 445" style="fill:none;stroke-width:28.222;stroke:#000080"/><path d="m21472 3902.5c-13 168-58 329-137 485" style="fill:none;stroke-width:28.222;stroke:#000080"/><path d="m21040 4797.5c-107 113-233 225-381 337" style="fill:none;stroke-width:28.222;stroke:#000080"/><path d="m20237 5418.5c-141 86-289 167-444 244" style="fill:none;stroke-width:28.222;stroke:#000080"/><path d="m19330 5871.5c-152 62-311 121-477 177" style="fill:none;stroke-width:28.222;stroke:#000080"/><path d="m18370 6199.5c-158 45-322 89-493 131" style="fill:none;stroke-width:28.222;stroke:#000080"/><path d="m17381 6443.5c-166 36-332 68-498 99" style="fill:none;stroke-width:28.222;stroke:#000080"/><path d="m16382 6625.5c-167 26-334 48-503 69" style="fill:none;stroke-width:28.222;stroke:#000080"/><path d="m15374 6747.5c-167 15-335 28-506 39" style="fill:none;stroke-width:28.222;stroke:#000080"/><path d="m14360 6812.5c-167 6-336 11-507 13" style="fill:none;stroke-width:28.222;stroke:#000080"/><path d="m8523.4 2143.5h-1929v-827h3858v827h-1929z" style="fill-opacity:.251;fill:#fff;stroke-opacity:.251;stroke-width:28.222;stroke:#fff"/><path d="m8523.4 2143.5h-1929v-827h3858v827h-1929z" style="fill:none;stroke-width:28.222;stroke:#000"/><text class="TextShape" x="-4979.562" y="-7501.4805" style="font-size:12px;line-height:0%"><tspan class="TextParagraph" font-size="494px" font-style="italic" font-weight="400" style="font-family:Arial;font-size:494px;font-style:italic;font-weight:400"><tspan class="TextPosition" x="7530.438" y="1928.5195"><tspan style="fill:#000000">Studente</tspan></tspan></tspan></text>
<path d="m7972.4 2969.5h-1378v-826h2756v826h-1378z" style="fill-opacity:.251;fill:#f00;stroke-opacity:.251;stroke-width:28.222;stroke:#fff"/><path d="m7972.4 2969.5h-1378v-826h2756v826h-1378z" style="fill:none;stroke-width:28.222;stroke:#000"/><text class="TextShape" x="-4979.562" y="-7501.4805" style="font-size:12px;line-height:0%"><tspan class="TextParagraph" font-size="494px" font-weight="700" style="font-family:Arial;font-size:494px;font-weight:700"><tspan class="TextPosition" x="6884.438" y="2754.5195"><tspan style="fill:#000000">Matricola</tspan></tspan></tspan></text>
<path d="m10728 2969.5h-1378v-826h2756v826h-1378z" style="fill-opacity:.251;fill:#f00;stroke-opacity:.251;stroke-width:28.222;stroke:#fff"/><path d="m10728 2969.5h-1378v-826h2756v826h-1378z" style="fill:none;stroke-width:28.222;stroke:#000"/><text class="TextShape" x="-4979.562" y="-7501.4805" style="font-size:12px;line-height:0%"><tspan class="TextParagraph" font-size="494px" font-weight="700" style="font-family:Arial;font-size:494px;font-weight:700"><tspan class="TextPosition" x="9589.4375" y="2754.5195"><tspan style="fill:#000000">Cognome</tspan></tspan></tspan></text>
<path d="m13484 2969.5h-1378v-826h2756v826h-1378z" style="fill-opacity:.251;fill:#f00;stroke-opacity:.251;stroke-width:28.222;stroke:#fff"/><path d="m13484 2969.5h-1378v-826h2756v826h-1378z" style="fill:none;stroke-width:28.222;stroke:#000"/><text class="TextShape" x="-4979.562" y="-7501.4805" style="font-size:12px;line-height:0%"><tspan class="TextParagraph" font-size="494px" font-weight="700" style="font-family:Arial;font-size:494px;font-weight:700"><tspan class="TextPosition" x="12796.438" y="2754.5195"><tspan style="fill:#000000">Nome</tspan></tspan></tspan></text>
<path d="m16240 2969.5h-1378v-826h2756v826h-1378z" style="fill-opacity:.251;fill:#f00;stroke-opacity:.251;stroke-width:28.222;stroke:#fff"/><path d="m16240 2969.5h-1378v-826h2756v826h-1378z" style="fill:none;stroke-width:28.222;stroke:#000"/><text class="TextShape" x="-4979.562" y="-7501.4805" style="font-size:12px;line-height:0%"><tspan class="TextParagraph" font-size="494px" font-weight="700" style="font-family:Arial;font-size:494px;font-weight:700"><tspan class="TextPosition" x="15524.438" y="2754.5195"><tspan style="fill:#000000">Corso</tspan></tspan></tspan></text>
<path d="m18996 2969.5h-1378v-826h2756v826h-1378z" style="fill-opacity:.251;fill:#f00;stroke-opacity:.251;stroke-width:28.222;stroke:#fff"/><path d="m18996 2969.5h-1378v-826h2756v826h-1378z" style="fill:none;stroke-width:28.222;stroke:#000"/><text class="TextShape" x="-4979.562" y="-7501.4805" style="font-size:12px;line-height:0%"><tspan class="TextParagraph" font-size="494px" font-weight="700" style="font-family:Arial;font-size:494px;font-weight:700"><tspan class="TextPosition" x="18113.438" y="2754.5195"><tspan style="fill:#000000">Nascita</tspan></tspan></tspan></text>
<path d="m7972.4 3521.5h-1378v-552h2756v552h-1378z" style="fill-opacity:.251;fill:#ff0;stroke-opacity:.251;stroke-width:28.222;stroke:#fff"/><path d="m7972.4 3521.5h-1378v-552h2756v552h-1378z" style="fill:none;stroke-width:28.222;stroke:#000"/><text class="TextShape" x="-4979.562" y="-7501.4805" style="font-size:12px;line-height:0%"><tspan class="TextParagraph" font-size="423px" font-weight="400" style="font-family:Arial;font-size:423px;font-weight:400"><tspan class="TextPosition" x="7379.438" y="3415.5195"><tspan style="fill:#000000">27655</tspan></tspan></tspan></text>
<path d="m10728 3521.5h-1378v-552h2756v552h-1378z" style="fill-opacity:.251;fill:#ff0;stroke-opacity:.251;stroke-width:28.222;stroke:#fff"/><path d="m10728 3521.5h-1378v-552h2756v552h-1378z" style="fill:none;stroke-width:28.222;stroke:#000"/><text class="TextShape" x="-4979.562" y="-7501.4805" style="font-size:12px;line-height:0%"><tspan class="TextParagraph" font-size="423px" font-weight="400" style="font-family:Arial;font-size:423px;font-weight:400"><tspan class="TextPosition" x="10199.438" y="3415.5195"><tspan style="fill:#000000">Rossi</tspan></tspan></tspan></text>
<path d="m13484 3521.5h-1378v-552h2756v552h-1378z" style="fill-opacity:.251;fill:#ff0;stroke-opacity:.251;stroke-width:28.222;stroke:#fff"/><path d="m13484 3521.5h-1378v-552h2756v552h-1378z" style="fill:none;stroke-width:28.222;stroke:#000"/><text class="TextShape" x="-4979.562" y="-7501.4805" style="font-size:12px;line-height:0%"><tspan class="TextParagraph" font-size="423px" font-weight="400" style="font-family:Arial;font-size:423px;font-weight:400"><tspan class="TextPosition" x="12955.438" y="3415.5195"><tspan style="fill:#000000">Mario</tspan></tspan></tspan></text>
<path d="m16240 3521.5h-1378v-552h2756v552h-1378z" style="fill-opacity:.251;fill:#ff0;stroke-opacity:.251;stroke-width:28.222;stroke:#fff"/><path d="m16240 3521.5h-1378v-552h2756v552h-1378z" style="fill:none;stroke-width:28.222;stroke:#000"/><text class="TextShape" x="-4979.562" y="-7501.4805" style="font-size:12px;line-height:0%"><tspan class="TextParagraph" font-size="423px" font-weight="400" style="font-family:Arial;font-size:423px;font-weight:400"><tspan class="TextPosition" x="15588.438" y="3415.5195"><tspan style="fill:#000000">Ing.Inf.</tspan></tspan></tspan></text>
<path d="m18996 3521.5h-1378v-552h2756v552h-1378z" style="fill-opacity:.251;fill:#ff0;stroke-opacity:.251;stroke-width:28.222;stroke:#fff"/><path d="m18996 3521.5h-1378v-552h2756v552h-1378z" style="fill:none;stroke-width:28.222;stroke:#000"/><text class="TextShape" x="-4979.562" y="-7501.4805" style="font-size:12px;line-height:0%"><tspan class="TextParagraph" font-size="423px" font-weight="400" style="font-family:Arial;font-size:423px;font-weight:400"><tspan class="TextPosition" x="17908.438" y="3415.5195"><tspan style="fill:#000000">1978-12-05</tspan></tspan></tspan></text>
<path d="m7972.4 4072.5h-1378v-551h2756v551h-1378z" style="fill-opacity:.251;fill:#ff0;stroke-opacity:.251;stroke-width:28.222;stroke:#fff"/><path d="m7972.4 4072.5h-1378v-551h2756v551h-1378z" style="fill:none;stroke-width:28.222;stroke:#000"/><text class="TextShape" x="-4979.562" y="-7501.4805" style="font-size:12px;line-height:0%"><tspan class="TextParagraph" font-size="423px" font-weight="400" style="font-family:Arial;font-size:423px;font-weight:400"><tspan class="TextPosition" x="7379.438" y="3966.5195"><tspan style="fill:#000000">78763</tspan></tspan></tspan></text>
<path d="m10728 4072.5h-1378v-551h2756v551h-1378z" style="fill-opacity:.251;fill:#ff0;stroke-opacity:.251;stroke-width:28.222;stroke:#fff"/><path d="m10728 4072.5h-1378v-551h2756v551h-1378z" style="fill:none;stroke-width:28.222;stroke:#000"/><text class="TextShape" x="-4979.562" y="-7501.4805" style="font-size:12px;line-height:0%"><tspan class="TextParagraph" font-size="423px" font-weight="400" style="font-family:Arial;font-size:423px;font-weight:400"><tspan class="TextPosition" x="10199.438" y="3966.5195"><tspan style="fill:#000000">Rossi</tspan></tspan></tspan></text>
<path d="m13484 4072.5h-1378v-551h2756v551h-1378z" style="fill-opacity:.251;fill:#ff0;stroke-opacity:.251;stroke-width:28.222;stroke:#fff"/><path d="m13484 4072.5h-1378v-551h2756v551h-1378z" style="fill:none;stroke-width:28.222;stroke:#000"/><text class="TextShape" x="-4979.562" y="-7501.4805" style="font-size:12px;line-height:0%"><tspan class="TextParagraph" font-size="423px" font-weight="400" style="font-family:Arial;font-size:423px;font-weight:400"><tspan class="TextPosition" x="12955.438" y="3966.5195"><tspan style="fill:#000000">Mario</tspan></tspan></tspan></text>
<path d="m16240 4072.5h-1378v-551h2756v551h-1378z" style="fill-opacity:.251;fill:#ff0;stroke-opacity:.251;stroke-width:28.222;stroke:#fff"/><path d="m16240 4072.5h-1378v-551h2756v551h-1378z" style="fill:none;stroke-width:28.222;stroke:#000"/><text class="TextShape" x="-4979.562" y="-7501.4805" style="font-size:12px;line-height:0%"><tspan class="TextParagraph" font-size="423px" font-weight="400" style="font-family:Arial;font-size:423px;font-weight:400"><tspan class="TextPosition" x="15588.438" y="3966.5195"><tspan style="fill:#000000">Ing.Inf.</tspan></tspan></tspan></text>
<path d="m18996 4072.5h-1378v-551h2756v551h-1378z" style="fill-opacity:.251;fill:#ff0;stroke-opacity:.251;stroke-width:28.222;stroke:#fff"/><path d="m18996 4072.5h-1378v-551h2756v551h-1378z" style="fill:none;stroke-width:28.222;stroke:#000"/><text class="TextShape" x="-4979.562" y="-7501.4805" style="font-size:12px;line-height:0%"><tspan class="TextParagraph" font-size="423px" font-weight="400" style="font-family:Arial;font-size:423px;font-weight:400"><tspan class="TextPosition" x="17908.438" y="3966.5195"><tspan style="fill:#000000">1976-11-03</tspan></tspan></tspan></text>
<path d="m7972.4 4623.5h-1378v-551h2756v551h-1378z" style="fill-opacity:.251;fill:#ff0;stroke-opacity:.251;stroke-width:28.222;stroke:#fff"/><path d="m7972.4 4623.5h-1378v-551h2756v551h-1378z" style="fill:none;stroke-width:28.222;stroke:#000"/><text class="TextShape" x="-4979.562" y="-7501.4805" style="font-size:12px;line-height:0%"><tspan class="TextParagraph" font-size="423px" font-weight="400" style="font-family:Arial;font-size:423px;font-weight:400"><tspan class="TextPosition" x="7379.438" y="4517.5195"><tspan style="fill:#000000">65432</tspan></tspan></tspan></text>
<path d="m10728 4623.5h-1378v-551h2756v551h-1378z" style="fill-opacity:.251;fill:#ff0;stroke-opacity:.251;stroke-width:28.222;stroke:#fff"/><path d="m10728 4623.5h-1378v-551h2756v551h-1378z" style="fill:none;stroke-width:28.222;stroke:#000"/><text class="TextShape" x="-4979.562" y="-7501.4805" style="font-size:12px;line-height:0%"><tspan class="TextParagraph" font-size="423px" font-weight="400" style="font-family:Arial;font-size:423px;font-weight:400"><tspan class="TextPosition" x="10340.438" y="4517.5195"><tspan style="fill:#000000">Neri</tspan></tspan></tspan></text>
<path d="m13484 4623.5h-1378v-551h2756v551h-1378z" style="fill-opacity:.251;fill:#ff0;stroke-opacity:.251;stroke-width:28.222;stroke:#fff"/><path d="m13484 4623.5h-1378v-551h2756v551h-1378z" style="fill:none;stroke-width:28.222;stroke:#000"/><text class="TextShape" x="-4979.562" y="-7501.4805" style="font-size:12px;line-height:0%"><tspan class="TextParagraph" font-size="423px" font-weight="400" style="font-family:Arial;font-size:423px;font-weight:400"><tspan class="TextPosition" x="12988.438" y="4517.5195"><tspan style="fill:#000000">Piero</tspan></tspan></tspan></text>
<path d="m16240 4623.5h-1378v-551h2756v551h-1378z" style="fill-opacity:.251;fill:#ff0;stroke-opacity:.251;stroke-width:28.222;stroke:#fff"/><path d="m16240 4623.5h-1378v-551h2756v551h-1378z" style="fill:none;stroke-width:28.222;stroke:#000"/><text class="TextShape" x="-4979.562" y="-7501.4805" style="font-size:12px;line-height:0%"><tspan class="TextParagraph" font-size="423px" font-weight="400" style="font-family:Arial;font-size:423px;font-weight:400"><tspan class="TextPosition" x="15260.438" y="4517.5195"><tspan style="fill:#000000">Ing. Mecc.</tspan></tspan></tspan></text>
<path d="m18996 4623.5h-1378v-551h2756v551h-1378z" style="fill-opacity:.251;fill:#ff0;stroke-opacity:.251;stroke-width:28.222;stroke:#fff"/><path d="m18996 4623.5h-1378v-551h2756v551h-1378z" style="fill:none;stroke-width:28.222;stroke:#000"/><text class="TextShape" x="-4979.562" y="-7501.4805" style="font-size:12px;line-height:0%"><tspan class="TextParagraph" font-size="423px" font-weight="400" style="font-family:Arial;font-size:423px;font-weight:400"><tspan class="TextPosition" x="17908.438" y="4517.5195"><tspan style="fill:#000000">1979-07-10</tspan></tspan></tspan></text>
<path d="m7972.4 5174.5h-1378v-551h2756v551h-1378z" style="fill-opacity:.251;fill:#ff0;stroke-opacity:.251;stroke-width:28.222;stroke:#fff"/><path d="m7972.4 5174.5h-1378v-551h2756v551h-1378z" style="fill:none;stroke-width:28.222;stroke:#000"/><text class="TextShape" x="-4979.562" y="-7501.4805" style="font-size:12px;line-height:0%"><tspan class="TextParagraph" font-size="423px" font-weight="400" style="font-family:Arial;font-size:423px;font-weight:400"><tspan class="TextPosition" x="7379.438" y="5068.5195"><tspan style="fill:#000000">87654</tspan></tspan></tspan></text>
<path d="m10728 5174.5h-1378v-551h2756v551h-1378z" style="fill-opacity:.251;fill:#ff0;stroke-opacity:.251;stroke-width:28.222;stroke:#fff"/><path d="m10728 5174.5h-1378v-551h2756v551h-1378z" style="fill:none;stroke-width:28.222;stroke:#000"/><text class="TextShape" x="-4979.562" y="-7501.4805" style="font-size:12px;line-height:0%"><tspan class="TextParagraph" font-size="423px" font-weight="400" style="font-family:Arial;font-size:423px;font-weight:400"><tspan class="TextPosition" x="10340.438" y="5068.5195"><tspan style="fill:#000000">Neri</tspan></tspan></tspan></text>
<path d="m13484 5174.5h-1378v-551h2756v551h-1378z" style="fill-opacity:.251;fill:#ff0;stroke-opacity:.251;stroke-width:28.222;stroke:#fff"/><path d="m13484 5174.5h-1378v-551h2756v551h-1378z" style="fill:none;stroke-width:28.222;stroke:#000"/><text class="TextShape" x="-4979.562" y="-7501.4805" style="font-size:12px;line-height:0%"><tspan class="TextParagraph" font-size="423px" font-weight="400" style="font-family:Arial;font-size:423px;font-weight:400"><tspan class="TextPosition" x="12955.438" y="5068.5195"><tspan style="fill:#000000">Mario</tspan></tspan></tspan></text>
<path d="m16240 5174.5h-1378v-551h2756v551h-1378z" style="fill-opacity:.251;fill:#ff0;stroke-opacity:.251;stroke-width:28.222;stroke:#fff"/><path d="m16240 5174.5h-1378v-551h2756v551h-1378z" style="fill:none;stroke-width:28.222;stroke:#000"/><text class="TextShape" x="-4979.562" y="-7501.4805" style="font-size:12px;line-height:0%"><tspan class="TextParagraph" font-size="423px" font-weight="400" style="font-family:Arial;font-size:423px;font-weight:400"><tspan class="TextPosition" x="15529.438" y="5068.5195"><tspan style="fill:#000000">Ing. Inf.</tspan></tspan></tspan></text>
<path d="m18996 5174.5h-1378v-551h2756v551h-1378z" style="fill-opacity:.251;fill:#ff0;stroke-opacity:.251;stroke-width:28.222;stroke:#fff"/><path d="m18996 5174.5h-1378v-551h2756v551h-1378z" style="fill:none;stroke-width:28.222;stroke:#000"/><text class="TextShape" x="-4979.562" y="-7501.4805" style="font-size:12px;line-height:0%"><tspan class="TextParagraph" font-size="423px" font-weight="400" style="font-family:Arial;font-size:423px;font-weight:400"><tspan class="TextPosition" x="17908.438" y="5068.5195"><tspan style="fill:#000000">1976-11-03</tspan></tspan></tspan></text>
<path d="m7972.4 5726.5h-1378v-551h2756v551h-1378z" style="fill-opacity:.251;fill:#ff0;stroke-opacity:.251;stroke-width:28.222;stroke:#fff"/><path d="m7972.4 5726.5h-1378v-551h2756v551h-1378z" style="fill:none;stroke-width:28.222;stroke:#000"/><text class="TextShape" x="-4979.562" y="-7501.4805" style="font-size:12px;line-height:0%"><tspan class="TextParagraph" font-size="423px" font-weight="400" style="font-family:Arial;font-size:423px;font-weight:400"><tspan class="TextPosition" x="7379.438" y="5620.5195"><tspan style="fill:#000000">67653</tspan></tspan></tspan></text>
<path d="m10728 5726.5h-1378v-551h2756v551h-1378z" style="fill-opacity:.251;fill:#ff0;stroke-opacity:.251;stroke-width:28.222;stroke:#fff"/><path d="m10728 5726.5h-1378v-551h2756v551h-1378z" style="fill:none;stroke-width:28.222;stroke:#000"/><text class="TextShape" x="-4979.562" y="-7501.4805" style="font-size:12px;line-height:0%"><tspan class="TextParagraph" font-size="423px" font-weight="400" style="font-family:Arial;font-size:423px;font-weight:400"><tspan class="TextPosition" x="10199.438" y="5620.5195"><tspan style="fill:#000000">Rossi</tspan></tspan></tspan></text>
<path d="m13484 5726.5h-1378v-551h2756v551h-1378z" style="fill-opacity:.251;fill:#ff0;stroke-opacity:.251;stroke-width:28.222;stroke:#fff"/><path d="m13484 5726.5h-1378v-551h2756v551h-1378z" style="fill:none;stroke-width:28.222;stroke:#000"/><text class="TextShape" x="-4979.562" y="-7501.4805" style="font-size:12px;line-height:0%"><tspan class="TextParagraph" font-size="423px" font-weight="400" style="font-family:Arial;font-size:423px;font-weight:400"><tspan class="TextPosition" x="12988.438" y="5620.5195"><tspan style="fill:#000000">Piero</tspan></tspan></tspan></text>
<path d="m16240 5726.5h-1378v-551h2756v551h-1378z" style="fill-opacity:.251;fill:#ff0;stroke-opacity:.251;stroke-width:28.222;stroke:#fff"/><path d="m16240 5726.5h-1378v-551h2756v551h-1378z" style="fill:none;stroke-width:28.222;stroke:#000"/><text class="TextShape" x="-4979.562" y="-7501.4805" style="font-size:12px;line-height:0%"><tspan class="TextParagraph" font-size="423px" font-weight="400" style="font-family:Arial;font-size:423px;font-weight:400"><tspan class="TextPosition" x="15260.438" y="5620.5195"><tspan style="fill:#000000">Ing. Mecc.</tspan></tspan></tspan></text>
<path d="m18996 5726.5h-1378v-551h2756v551h-1378z" style="fill-opacity:.251;fill:#ff0;stroke-opacity:.251;stroke-width:28.222;stroke:#fff"/><path d="m18996 5726.5h-1378v-551h2756v551h-1378z" style="fill:none;stroke-width:28.222;stroke:#000"/><text class="TextShape" x="-4979.562" y="-7501.4805" style="font-size:12px;line-height:0%"><tspan class="TextParagraph" font-size="423px" font-weight="400" style="font-family:Arial;font-size:423px;font-weight:400"><tspan class="TextPosition" x="17908.438" y="5620.5195"><tspan style="fill:#000000">1978-12-05</tspan></tspan></tspan></text>
<path d="m13485 3245.5c-1573 0-2910-29-4272-92-1362-64-2341-143-3127-252-787-110-1145-218-1145-345s358-235 1145-344c786-110 1765-189 3127-253 1362-63 2699-92 4271-92 1573 0 2910 29 4272 92 1362 64 2341 143 3127 253 787 109 1145 217 1145 344s-358 235-1145 345c-786 109-1765 188-3127 252-1362 63-2699 92-4271 92z" style="fill-opacity:.251;fill:#800000;stroke-opacity:.251;stroke-width:28.222;stroke:#fff"/><path d="m13503 3245.5h-18c-173 0-342 0-509-1" style="fill:none;stroke-width:28.222;stroke:#800000"/><path d="m12468 3241.5c-172-2-341-4-508-6" style="fill:none;stroke-width:28.222;stroke:#800000"/><path d="m11452 3226.5c-171-3-340-7-508-11" style="fill:none;stroke-width:28.222;stroke:#800000"/><path d="m10437 3201.5c-170-6-339-12-508-18" style="fill:none;stroke-width:28.222;stroke:#800000"/><path d="m9422.4 3162.5c-70-3-140-6-209-9-103-5-203-10-301-15" style="fill:none;stroke-width:28.222;stroke:#800000"/><path d="m8406.4 3111.5c-176-11-346-21-508-32" style="fill:none;stroke-width:28.222;stroke:#800000"/><path d="m7392.4 3041.5c-176-15-345-30-505-46" style="fill:none;stroke-width:28.222;stroke:#800000"/><path d="m6381.4 2939.5c-101-12-200-25-295-38-73-11-142-21-208-31" style="fill:none;stroke-width:28.222;stroke:#800000"/><path d="m5378.4 2777.5c-291-69-432-139-437-217" style="fill:none;stroke-width:28.222;stroke:#800000"/><path d="m5369.4 2337.5c134-31 300-63 501-94" style="fill:none;stroke-width:28.222;stroke:#800000"/><path d="m6372.4 2174.5c161-20 328-38 506-56" style="fill:none;stroke-width:28.222;stroke:#800000"/><path d="m7383.4 2072.5c161-13 329-26 506-38" style="fill:none;stroke-width:28.222;stroke:#800000"/><path d="m8397.4 2002.5c162-10 331-19 506-28" style="fill:none;stroke-width:28.222;stroke:#800000"/><path d="m9413.4 1950.5 507-21" style="fill:none;stroke-width:28.222;stroke:#800000"/><path d="m10428 1912.5c168-6 337-10 507-15" style="fill:none;stroke-width:28.222;stroke:#800000"/><path d="m11443 1886.5c167-3 336-6 507-9" style="fill:none;stroke-width:28.222;stroke:#800000"/><path d="m12458 1871.5c167-1 337-2 509-3" style="fill:none;stroke-width:28.222;stroke:#800000"/><path d="m13475 1867.5h9c170 0 336 0 500 1" style="fill:none;stroke-width:28.222;stroke:#800000"/><path d="m14492 1871.5c172 2 341 4 508 6" style="fill:none;stroke-width:28.222;stroke:#800000"/><path d="m15508 1885.5c171 4 340 8 508 12" style="fill:none;stroke-width:28.222;stroke:#800000"/><path d="m16523 1911.5c170 6 339 11 508 18" style="fill:none;stroke-width:28.222;stroke:#800000"/><path d="m17538 1949.5c73 4 145 7 218 10 99 5 197 10 292 14" style="fill:none;stroke-width:28.222;stroke:#800000"/><path d="m18553 2001.5c177 10 347 21 509 32" style="fill:none;stroke-width:28.222;stroke:#800000"/><path d="m19567 2071.5c177 14 346 29 506 45" style="fill:none;stroke-width:28.222;stroke:#800000"/><path d="m20579 2172.5c104 12 206 26 304 40 70 9 136 19 199 29" style="fill:none;stroke-width:28.222;stroke:#800000"/><path d="m21582 2333.5c286 67 430 135 445 210" style="fill:none;stroke-width:28.222;stroke:#800000"/><path d="m21608 2773.5c-133 32-299 63-500 94" style="fill:none;stroke-width:28.222;stroke:#800000"/><path d="m20605 2937.5c-160 20-327 39-505 56" style="fill:none;stroke-width:28.222;stroke:#800000"/><path d="m19595 3039.5c-161 13-329 26-505 38" style="fill:none;stroke-width:28.222;stroke:#800000"/><path d="m18582 3110.5c-163 9-332 18-507 27" style="fill:none;stroke-width:28.222;stroke:#800000"/><path d="m17566 3161.5c-170 8-339 15-508 21" style="fill:none;stroke-width:28.222;stroke:#800000"/><path d="m16551 3200.5c-169 5-338 10-508 15" style="fill:none;stroke-width:28.222;stroke:#800000"/><path d="m15536 3226.5c-168 3-337 6-508 9" style="fill:none;stroke-width:28.222;stroke:#800000"/><path d="m14520 3240.5c-167 2-336 3-508 4" style="fill:none;stroke-width:28.222;stroke:#800000"/><text class="TextShape" x="-5231.2373" y="-8797.2666" style="font-size:12px;line-height:0%"><tspan class="TextParagraph" font-size="635px" font-weight="400" style="font-family:Arial;font-size:635px;font-weight:400"><tspan class="TextPosition" x="2846.7627" y="3318.7319"><tspan style="fill:#800000">Schema</tspan></tspan></tspan></text>
<path d="m13485 4899.5c-1573 0-2910-23-4272-74-1362-51-2341-114-3127-201-787-88-1145-175-1145-276s358-188 1145-275c786-88 1765-151 3127-202 1362-51 2699-74 4271-74 1573 0 2910 23 4272 74s2341 114 3127 202c787 87 1145 174 1145 275s-358 188-1145 276c-786 87-1765 150-3127 201s-2699 74-4271 74z" style="fill-opacity:.251;fill:#008000;stroke-opacity:.251;stroke-width:28.222;stroke:#fff"/><path d="m13485 4899.5c-173 0-342 0-509-1" style="fill:none;stroke-width:28.222;stroke:#008000"/><path d="m12468 4896.5c-172-2-341-3-509-5" style="fill:none;stroke-width:28.222;stroke:#008000"/><path d="m11452 4884.5c-171-3-340-6-508-9" style="fill:none;stroke-width:28.222;stroke:#008000"/><path d="m10437 4863.5c-170-4-339-9-508-14" style="fill:none;stroke-width:28.222;stroke:#008000"/><path d="m9421.4 4833.5c-69-3-139-5-208-8-103-4-203-8-301-11" style="fill:none;stroke-width:28.222;stroke:#008000"/><path d="m8405.4 4792.5c-177-9-346-17-509-26" style="fill:none;stroke-width:28.222;stroke:#008000"/><path d="m7391.4 4735.5c-177-11-346-23-507-36" style="fill:none;stroke-width:28.222;stroke:#008000"/><path d="m6378.4 4654.5c-101-10-198-20-292-30-75-9-146-17-213-25" style="fill:none;stroke-width:28.222;stroke:#008000"/><path d="m5370.4 4523.5c-292-55-429-112-429-175 0-8 2-17 7-25" style="fill:none;stroke-width:28.222;stroke:#008000"/><path d="m5421.4 4164.5c136-25 304-49 503-73" style="fill:none;stroke-width:28.222;stroke:#008000"/><path d="m6430.4 4037.5c160-16 328-30 506-44" style="fill:none;stroke-width:28.222;stroke:#008000"/><path d="m7444.4 3957.5c161-10 329-20 505-30" style="fill:none;stroke-width:28.222;stroke:#008000"/><path d="m8458.4 3902.5c162-7 331-15 506-22" style="fill:none;stroke-width:28.222;stroke:#008000"/><path d="m9474.4 3861.5c169-5 338-11 508-16" style="fill:none;stroke-width:28.222;stroke:#008000"/><path d="m10489 3831.5c168-4 337-8 508-11" style="fill:none;stroke-width:28.222;stroke:#008000"/><path d="m11504 3811.5c168-2 337-5 508-6" style="fill:none;stroke-width:28.222;stroke:#008000"/><path d="m12521 3800.5c167-1 336-2 508-2" style="fill:none;stroke-width:28.222;stroke:#008000"/><path d="m13538 3797.5c172 0 341 0 508 1" style="fill:none;stroke-width:28.222;stroke:#008000"/><path d="m14554 3801.5c172 1 341 3 508 5" style="fill:none;stroke-width:28.222;stroke:#008000"/><path d="m15570 3813.5c170 2 339 6 507 9" style="fill:none;stroke-width:28.222;stroke:#008000"/><path d="m16585 3834.5c170 4 339 9 508 14" style="fill:none;stroke-width:28.222;stroke:#008000"/><path d="m17600 3865.5 156 6c121 4 238 9 353 14" style="fill:none;stroke-width:28.222;stroke:#008000"/><path d="m18617 3907.5c177 8 346 17 508 26" style="fill:none;stroke-width:28.222;stroke:#008000"/><path d="m19632 3964.5c176 12 344 24 505 37" style="fill:none;stroke-width:28.222;stroke:#008000"/><path d="m20642 4047.5c83 8 163 17 241 26 95 10 184 21 266 31" style="fill:none;stroke-width:28.222;stroke:#008000"/><path d="m21651 4183.5c256 52 377 106 377 165 0 21-15 41-46 61" style="fill:none;stroke-width:28.222;stroke:#008000"/><path d="m21495 4542.5c-139 23-305 46-501 69" style="fill:none;stroke-width:28.222;stroke:#008000"/><path d="m20487 4664.5c-160 15-329 29-506 43" style="fill:none;stroke-width:28.222;stroke:#008000"/><path d="m19474 4742.5c-162 10-331 20-507 30" style="fill:none;stroke-width:28.222;stroke:#008000"/><path d="m18459 4796.5c-162 8-331 15-506 22" style="fill:none;stroke-width:28.222;stroke:#008000"/><path d="m17443 4836.5c-170 6-339 12-508 16" style="fill:none;stroke-width:28.222;stroke:#008000"/><path d="m16427 4866.5c-168 4-337 8-507 11" style="fill:none;stroke-width:28.222;stroke:#008000"/><path d="m15412 4886.5c-168 2-337 4-508 6" style="fill:none;stroke-width:28.222;stroke:#008000"/><path d="m14395 4896.5c-166 1-335 2-507 2" style="fill:none;stroke-width:28.222;stroke:#008000"/><text class="TextShape" x="-5172.1782" y="-11101.475" style="font-size:12px;line-height:0%"><tspan class="TextParagraph" font-size="635px" font-weight="400" style="font-family:Arial;font-size:635px;font-weight:400"><tspan class="TextPosition" x="320.82239" y="5259.5254"><tspan style="fill:#008000">Riga / Tupla/ Record</tspan></tspan></tspan></text>
<path d="m13484 7379.5c-305 0-564-127-827-406-264-279-453-626-605-1110-153-483-222-957-222-1515 0-559 69-1033 222-1516 152-484 341-831 605-1110 263-279 522-406 827-406 304 0 563 127 826 406 264 279 453 626 605 1110 153 483 222 957 222 1515 0 559-69 1033-222 1516-152 484-341 831-605 1110-263 279-522 406-826 406z" style="fill-opacity:.251;fill:#800080;stroke-opacity:.251;stroke-width:28.222;stroke:#fff"/><path d="m13484 7379.5c-174 0-333-41-486-128" style="fill:none;stroke-width:28.222;stroke:#800080"/><path d="m12612 6924.5c-110-123-206-260-292-415" style="fill:none;stroke-width:28.222;stroke:#800080"/><path d="m12113 6046.5c-21-59-42-119-61-183-32-101-61-202-85-304" style="fill:none;stroke-width:28.222;stroke:#800080"/><path d="m11874 5060.5c-22-163-35-330-41-506" style="fill:none;stroke-width:28.222;stroke:#800080"/><path d="m11837 4046.5c9-175 25-342 50-505" style="fill:none;stroke-width:28.222;stroke:#800080"/><path d="m11990 3044.5c19-71 39-141 62-212 30-96 61-186 94-272" style="fill:none;stroke-width:28.222;stroke:#800080"/><path d="m12368 2104.5c85-142 181-268 289-382 6-7 13-14 20-21" style="fill:none;stroke-width:28.222;stroke:#800080"/><path d="m13083 1401.5c127-57 259-85 401-85 32 0 63 1 94 4" style="fill:none;stroke-width:28.222;stroke:#800080"/><path d="m14049 1495.5c88 60 174 135 261 227 37 39 73 80 107 121" style="fill:none;stroke-width:28.222;stroke:#800080"/><path d="m14691 2269.5c71 141 135 296 194 469" style="fill:none;stroke-width:28.222;stroke:#800080"/><path d="m15022 3228.5c36 164 64 330 83 501" style="fill:none;stroke-width:28.222;stroke:#800080"/><path d="m15136 4235.5c1 37 1 75 1 112 0 137-4 269-13 397" style="fill:none;stroke-width:28.222;stroke:#800080"/><path d="m15065 5248.5c-29 167-66 331-113 495" style="fill:none;stroke-width:28.222;stroke:#800080"/><path d="m14785 6223.5c-71 167-149 315-236 449" style="fill:none;stroke-width:28.222;stroke:#800080"/><path d="m14223 7060.5c-140 130-279 219-427 269" style="fill:none;stroke-width:28.222;stroke:#800080"/><text class="TextShape" x="-4979.562" y="-7501.4805" style="font-size:12px;line-height:0%"><tspan class="TextParagraph" font-size="635px" font-weight="400" style="font-family:Arial;font-size:635px;font-weight:400"><tspan class="TextPosition" x="7199.438" y="8461.5195"><tspan style="fill:#800080">Colonna / Attributo / Campo</tspan></tspan></tspan></text>
<text class="TextShape" x="-4979.562" y="-7501.4805" style="font-size:12px;line-height:0%"><tspan class="TextParagraph" font-size="635px" font-weight="400" style="font-family:Arial;font-size:635px;font-weight:400"><tspan class="TextPosition" x="4333.438" y="744.51959"><tspan style="fill:#000080">Tabella / Relazione / File</tspan></tspan></tspan></text>
</svg>
