<?xml version="1.0" encoding="UTF-8"?>
<svg clip-path="url(#a)" style="fill-rule:evenodd;stroke-linejoin:round;stroke-width:28.222" preserveAspectRatio="xMidYMid" version="1.2" viewBox="0 0 11146 13256" xml:space="preserve" xmlns="http://www.w3.org/2000/svg" xmlns:ooo="http://xml.openoffice.org/svg/export" xmlns:xlink="http://www.w3.org/1999/xlink"><defs class="ClipPathGroup"><clipPath id="a"><rect width="28000" height="21000"/></clipPath></defs><defs class="TextShapeIndex"/><defs class="EmbeddedBulletChars"/><g class="com.sun.star.drawing.LineShape" transform="translate(-16159 -4663.7)"><path d="m24527 7165v51" style="fill:none;stroke:#000"/><path d="m24527 7267v51" style="fill:none;stroke:#000"/><path d="m24527 7369v51" style="fill:none;stroke:#000"/><path d="m24527 7471v51" style="fill:none;stroke:#000"/><path d="m24527 7573v51" style="fill:none;stroke:#000"/><path d="m24527 7675v51" style="fill:none;stroke:#000"/><path d="m24527 7777v51" style="fill:none;stroke:#000"/><path d="m24527 7879v51" style="fill:none;stroke:#000"/><path d="m24527 7981v51" style="fill:none;stroke:#000"/><path d="m24527 8083v51" style="fill:none;stroke:#000"/><path d="m24527 8185v51" style="fill:none;stroke:#000"/><path d="m24527 8287v51" style="fill:none;stroke:#000"/><path d="m24527 8389v51" style="fill:none;stroke:#000"/><path d="m24527 8491v51" style="fill:none;stroke:#000"/><path d="m24527 8593v51" style="fill:none;stroke:#000"/><path d="m24527 8695v51" style="fill:none;stroke:#000"/><path d="m24527 8797v51" style="fill:none;stroke:#000"/><path d="m24527 8899v51" style="fill:none;stroke:#000"/><path d="m24527 9001v51" style="fill:none;stroke:#000"/><path d="m24527 9103v51" style="fill:none;stroke:#000"/><path d="m24527 9205v51" style="fill:none;stroke:#000"/><path d="m24527 9307v51" style="fill:none;stroke:#000"/><path d="m24527 9409v51" style="fill:none;stroke:#000"/><path d="m24527 9511v51" style="fill:none;stroke:#000"/><path d="m24527 9613v51" style="fill:none;stroke:#000"/><path d="m24527 9715v51" style="fill:none;stroke:#000"/><path d="m24527 9817v51" style="fill:none;stroke:#000"/><path d="m24527 9919v51" style="fill:none;stroke:#000"/><path d="m24527 10021v51" style="fill:none;stroke:#000"/><path d="m24527 10123v51" style="fill:none;stroke:#000"/><path d="m24527 10225v51" style="fill:none;stroke:#000"/><path d="m24527 10327v51" style="fill:none;stroke:#000"/><path d="m24527 10429v51" style="fill:none;stroke:#000"/><path d="m24527 10531v51" style="fill:none;stroke:#000"/><path d="m24527 10633v51" style="fill:none;stroke:#000"/><path d="m24527 10735v51" style="fill:none;stroke:#000"/><path d="m24527 10837v51" style="fill:none;stroke:#000"/><path d="m24527 10939v51" style="fill:none;stroke:#000"/><path d="m24527 11041v51" style="fill:none;stroke:#000"/><path d="m24527 11143v51" style="fill:none;stroke:#000"/><path d="m24527 11245v51" style="fill:none;stroke:#000"/><path d="m24527 11347v51" style="fill:none;stroke:#000"/><path d="m24527 11449v51" style="fill:none;stroke:#000"/><path d="m24527 11551v51" style="fill:none;stroke:#000"/><path d="m24527 11653v51" style="fill:none;stroke:#000"/><path d="m24527 11755v51" style="fill:none;stroke:#000"/><path d="m24527 11857v51" style="fill:none;stroke:#000"/><path d="m24527 11959v51" style="fill:none;stroke:#000"/><path d="m24527 12061v51" style="fill:none;stroke:#000"/><path d="m24527 12163v51" style="fill:none;stroke:#000"/><path d="m24527 12265v51" style="fill:none;stroke:#000"/><path d="m24527 12367v51" style="fill:none;stroke:#000"/><path d="m24527 12469v51" style="fill:none;stroke:#000"/><path d="m24527 12571v51" style="fill:none;stroke:#000"/><path d="m24527 12673v51" style="fill:none;stroke:#000"/><path d="m24527 12775v51" style="fill:none;stroke:#000"/><path d="m24527 12877v51" style="fill:none;stroke:#000"/><path d="m24527 12979v51" style="fill:none;stroke:#000"/><path d="m24527 13081v51" style="fill:none;stroke:#000"/><path d="m24527 13183v51" style="fill:none;stroke:#000"/><path d="m24527 13285v51" style="fill:none;stroke:#000"/><path d="m24527 13387v51" style="fill:none;stroke:#000"/><path d="m24527 13489v51" style="fill:none;stroke:#000"/><path d="m24527 13591v51" style="fill:none;stroke:#000"/><path d="m24527 13693v51" style="fill:none;stroke:#000"/><path d="m24527 13795v51" style="fill:none;stroke:#000"/><path d="m24527 13897v51" style="fill:none;stroke:#000"/><path d="m24527 13999v51" style="fill:none;stroke:#000"/><path d="m24527 14101v51" style="fill:none;stroke:#000"/><path d="m24527 14203v51" style="fill:none;stroke:#000"/><path d="m24527 14305v51" style="fill:none;stroke:#000"/><path d="m24527 14407v51" style="fill:none;stroke:#000"/><path d="m24527 14509v51" style="fill:none;stroke:#000"/><path d="m24527 14611v51" style="fill:none;stroke:#000"/><path d="m24527 14713v51" style="fill:none;stroke:#000"/><path d="m24527 14815v51" style="fill:none;stroke:#000"/><path d="m24527 14917v51" style="fill:none;stroke:#000"/><path d="m24527 15019v51" style="fill:none;stroke:#000"/><path d="m24527 15121v51" style="fill:none;stroke:#000"/><path d="m24527 15223v51" style="fill:none;stroke:#000"/><path d="m24527 15325v51" style="fill:none;stroke:#000"/><path d="m24527 15427v51" style="fill:none;stroke:#000"/><path d="m24527 15529v51" style="fill:none;stroke:#000"/><path d="m24527 15631v51" style="fill:none;stroke:#000"/><path d="m24527 15733v51" style="fill:none;stroke:#000"/><path d="m24527 15835v51" style="fill:none;stroke:#000"/><path d="m24527 15937v51" style="fill:none;stroke:#000"/><path d="m24527 16039v51" style="fill:none;stroke:#000"/><path d="m24527 16141v51" style="fill:none;stroke:#000"/><path d="m24527 16243v51" style="fill:none;stroke:#000"/><path d="m24527 16345v51" style="fill:none;stroke:#000"/><path d="m24527 16447v51" style="fill:none;stroke:#000"/><path d="m24527 16549v51" style="fill:none;stroke:#000"/><path d="m24527 16651v51" style="fill:none;stroke:#000"/><path d="m24527 16753v51" style="fill:none;stroke:#000"/><path d="m24527 16855v51" style="fill:none;stroke:#000"/><path d="m24527 16957v51" style="fill:none;stroke:#000"/><path d="m24527 17059v51" style="fill:none;stroke:#000"/><path d="m24527 17161v51" style="fill:none;stroke:#000"/><path d="m24527 17263v51" style="fill:none;stroke:#000"/><path d="m24527 17365v51" style="fill:none;stroke:#000"/><path d="m24527 17467v51" style="fill:none;stroke:#000"/><path d="m24527 17569v51" style="fill:none;stroke:#000"/></g><g class="com.sun.star.drawing.CustomShape" transform="translate(-16159 -4663.7)"><path d="m22781 12401c-368 0-735 367-735 735v2940c0 368 367 736 735 736h3491c368 0 736-368 736-736v-2940c0-368-368-735-736-735h-3491z" style="fill-opacity:.502;fill:#ff8080;stroke-opacity:.502;stroke:#fff"/><path d="m22781 12401c-17 0-34 1-51 2" style="fill:none;stroke:#000"/><path d="m22679 12410c-16 3-33 7-49 11" style="fill:none;stroke:#000"/><path d="m22581 12436c-16 5-32 11-48 18" style="fill:none;stroke:#000"/><path d="m22487 12476c-15 7-30 16-45 24" style="fill:none;stroke:#000"/><path d="m22399 12528c-14 9-28 19-41 30" style="fill:none;stroke:#000"/><path d="m22318 12590c-12 12-25 23-37 35" style="fill:none;stroke:#000"/><path d="m22246 12662c-12 13-23 25-34 39" style="fill:none;stroke:#000"/><path d="m22182 12742c-10 13-20 28-29 42" style="fill:none;stroke:#000"/><path d="m22128 12828c-8 15-16 31-23 46" style="fill:none;stroke:#000"/><path d="m22086 12921c-6 16-11 32-16 49" style="fill:none;stroke:#000"/><path d="m22058 13019c-3 17-6 34-8 51" style="fill:none;stroke:#000"/><path d="m22046 13121v15 36" style="fill:none;stroke:#000"/><path d="m22046 13223v51" style="fill:none;stroke:#000"/><path d="m22046 13325v51" style="fill:none;stroke:#000"/><path d="m22046 13427v51" style="fill:none;stroke:#000"/><path d="m22046 13529v51" style="fill:none;stroke:#000"/><path d="m22046 13631v51" style="fill:none;stroke:#000"/><path d="m22046 13733v51" style="fill:none;stroke:#000"/><path d="m22046 13835v51" style="fill:none;stroke:#000"/><path d="m22046 13937v51" style="fill:none;stroke:#000"/><path d="m22046 14039v51" style="fill:none;stroke:#000"/><path d="m22046 14141v51" style="fill:none;stroke:#000"/><path d="m22046 14243v51" style="fill:none;stroke:#000"/><path d="m22046 14345v51" style="fill:none;stroke:#000"/><path d="m22046 14447v51" style="fill:none;stroke:#000"/><path d="m22046 14549v51" style="fill:none;stroke:#000"/><path d="m22046 14651v51" style="fill:none;stroke:#000"/><path d="m22046 14753v51" style="fill:none;stroke:#000"/><path d="m22046 14855v51" style="fill:none;stroke:#000"/><path d="m22046 14957v51" style="fill:none;stroke:#000"/><path d="m22046 15059v51" style="fill:none;stroke:#000"/><path d="m22046 15161v51" style="fill:none;stroke:#000"/><path d="m22046 15263v51" style="fill:none;stroke:#000"/><path d="m22046 15365v51" style="fill:none;stroke:#000"/><path d="m22046 15467v51" style="fill:none;stroke:#000"/><path d="m22046 15569v51" style="fill:none;stroke:#000"/><path d="m22046 15671v51" style="fill:none;stroke:#000"/><path d="m22046 15773v51" style="fill:none;stroke:#000"/><path d="m22046 15875v51" style="fill:none;stroke:#000"/><path d="m22046 15977v51" style="fill:none;stroke:#000"/><path d="m22046 16079c0 17 1 34 3 50" style="fill:none;stroke:#000"/><path d="m22056 16180c3 17 6 33 11 50" style="fill:none;stroke:#000"/><path d="m22082 16279c5 16 11 31 18 47" style="fill:none;stroke:#000"/><path d="m22122 16372c8 15 16 30 25 45" style="fill:none;stroke:#000"/><path d="m22174 16460c10 14 20 28 30 41" style="fill:none;stroke:#000"/><path d="m22237 16541c11 12 23 25 35 37" style="fill:none;stroke:#000"/><path d="m22308 16613c13 12 26 23 39 33" style="fill:none;stroke:#000"/><path d="m22388 16677c14 10 28 19 43 28" style="fill:none;stroke:#000"/><path d="m22475 16731c15 8 30 15 46 22" style="fill:none;stroke:#000"/><path d="m22568 16773c16 5 32 11 49 15" style="fill:none;stroke:#000"/><path d="m22666 16800c17 4 34 6 51 8" style="fill:none;stroke:#000"/><path d="m22767 16812h14 37" style="fill:none;stroke:#000"/><path d="m22869 16812h51" style="fill:none;stroke:#000"/><path d="m22971 16812h51" style="fill:none;stroke:#000"/><path d="m23073 16812h51" style="fill:none;stroke:#000"/><path d="m23175 16812h51" style="fill:none;stroke:#000"/><path d="m23277 16812h51" style="fill:none;stroke:#000"/><path d="m23379 16812h51" style="fill:none;stroke:#000"/><path d="m23481 16812h51" style="fill:none;stroke:#000"/><path d="m23583 16812h51" style="fill:none;stroke:#000"/><path d="m23685 16812h51" style="fill:none;stroke:#000"/><path d="m23787 16812h51" style="fill:none;stroke:#000"/><path d="m23889 16812h51" style="fill:none;stroke:#000"/><path d="m23991 16812h51" style="fill:none;stroke:#000"/><path d="m24093 16812h51" style="fill:none;stroke:#000"/><path d="m24195 16812h51" style="fill:none;stroke:#000"/><path d="m24297 16812h51" style="fill:none;stroke:#000"/><path d="m24399 16812h51" style="fill:none;stroke:#000"/><path d="m24501 16812h51" style="fill:none;stroke:#000"/><path d="m24603 16812h51" style="fill:none;stroke:#000"/><path d="m24705 16812h51" style="fill:none;stroke:#000"/><path d="m24807 16812h51" style="fill:none;stroke:#000"/><path d="m24909 16812h51" style="fill:none;stroke:#000"/><path d="m25011 16812h51" style="fill:none;stroke:#000"/><path d="m25113 16812h51" style="fill:none;stroke:#000"/><path d="m25215 16812h51" style="fill:none;stroke:#000"/><path d="m25317 16812h51" style="fill:none;stroke:#000"/><path d="m25419 16812h51" style="fill:none;stroke:#000"/><path d="m25521 16812h51" style="fill:none;stroke:#000"/><path d="m25623 16812h51" style="fill:none;stroke:#000"/><path d="m25725 16812h51" style="fill:none;stroke:#000"/><path d="m25827 16812h51" style="fill:none;stroke:#000"/><path d="m25929 16812h51" style="fill:none;stroke:#000"/><path d="m26031 16812h51" style="fill:none;stroke:#000"/><path d="m26133 16812h51" style="fill:none;stroke:#000"/><path d="m26235 16812h37 14" style="fill:none;stroke:#000"/><path d="m26337 16808c17-2 34-4 51-8" style="fill:none;stroke:#000"/><path d="m26437 16788c17-5 33-10 49-16" style="fill:none;stroke:#000"/><path d="m26533 16753c15-7 31-14 46-23" style="fill:none;stroke:#000"/><path d="m26623 16705c15-9 29-18 43-28" style="fill:none;stroke:#000"/><path d="m26706 16646c14-11 27-22 39-33" style="fill:none;stroke:#000"/><path d="m26782 16578c12-12 24-25 35-38" style="fill:none;stroke:#000"/><path d="m26850 16501c10-13 20-27 30-41" style="fill:none;stroke:#000"/><path d="m26907 16417c9-15 17-30 25-45" style="fill:none;stroke:#000"/><path d="m26954 16326c7-16 13-32 18-48" style="fill:none;stroke:#000"/><path d="m26987 16230c5-17 8-33 11-50" style="fill:none;stroke:#000"/><path d="m27005 16129c2-17 3-34 3-51" style="fill:none;stroke:#000"/><path d="m27008 16027v-51" style="fill:none;stroke:#000"/><path d="m27008 15925v-51" style="fill:none;stroke:#000"/><path d="m27008 15823v-51" style="fill:none;stroke:#000"/><path d="m27008 15721v-51" style="fill:none;stroke:#000"/><path d="m27008 15619v-51" style="fill:none;stroke:#000"/><path d="m27008 15517v-51" style="fill:none;stroke:#000"/><path d="m27008 15415v-51" style="fill:none;stroke:#000"/><path d="m27008 15313v-51" style="fill:none;stroke:#000"/><path d="m27008 15211v-51" style="fill:none;stroke:#000"/><path d="m27008 15109v-51" style="fill:none;stroke:#000"/><path d="m27008 15007v-51" style="fill:none;stroke:#000"/><path d="m27008 14905v-51" style="fill:none;stroke:#000"/><path d="m27008 14803v-51" style="fill:none;stroke:#000"/><path d="m27008 14701v-51" style="fill:none;stroke:#000"/><path d="m27008 14599v-51" style="fill:none;stroke:#000"/><path d="m27008 14497v-51" style="fill:none;stroke:#000"/><path d="m27008 14395v-51" style="fill:none;stroke:#000"/><path d="m27008 14293v-51" style="fill:none;stroke:#000"/><path d="m27008 14191v-51" style="fill:none;stroke:#000"/><path d="m27008 14089v-51" style="fill:none;stroke:#000"/><path d="m27008 13987v-51" style="fill:none;stroke:#000"/><path d="m27008 13885v-51" style="fill:none;stroke:#000"/><path d="m27008 13783v-51" style="fill:none;stroke:#000"/><path d="m27008 13681v-51" style="fill:none;stroke:#000"/><path d="m27008 13579v-51" style="fill:none;stroke:#000"/><path d="m27008 13477v-51" style="fill:none;stroke:#000"/><path d="m27008 13375v-51" style="fill:none;stroke:#000"/><path d="m27008 13273v-51" style="fill:none;stroke:#000"/><path d="m27008 13171v-35-16" style="fill:none;stroke:#000"/><path d="m27004 13070c-2-17-5-34-8-51" style="fill:none;stroke:#000"/><path d="m26984 12970c-5-17-10-33-16-49" style="fill:none;stroke:#000"/><path d="m26948 12874c-7-16-14-31-22-46" style="fill:none;stroke:#000"/><path d="m26900 12784c-9-14-18-29-28-43" style="fill:none;stroke:#000"/><path d="m26841 12701c-11-14-22-26-33-39" style="fill:none;stroke:#000"/><path d="m26773 12625c-13-12-25-23-38-35" style="fill:none;stroke:#000"/><path d="m26696 12558-42-30" style="fill:none;stroke:#000"/><path d="m26611 12501c-14-9-29-17-45-25" style="fill:none;stroke:#000"/><path d="m26520 12454c-15-6-31-13-47-18" style="fill:none;stroke:#000"/><path d="m26424 12421c-17-4-33-8-50-11" style="fill:none;stroke:#000"/><path d="m26323 12403c-17-1-34-2-51-2" style="fill:none;stroke:#000"/><path d="m26221 12401h-51" style="fill:none;stroke:#000"/><path d="m26119 12401h-51" style="fill:none;stroke:#000"/><path d="m26017 12401h-51" style="fill:none;stroke:#000"/><path d="m25915 12401h-51" style="fill:none;stroke:#000"/><path d="m25813 12401h-51" style="fill:none;stroke:#000"/><path d="m25711 12401h-51" style="fill:none;stroke:#000"/><path d="m25609 12401h-51" style="fill:none;stroke:#000"/><path d="m25507 12401h-51" style="fill:none;stroke:#000"/><path d="m25405 12401h-51" style="fill:none;stroke:#000"/><path d="m25303 12401h-51" style="fill:none;stroke:#000"/><path d="m25201 12401h-51" style="fill:none;stroke:#000"/><path d="m25099 12401h-51" style="fill:none;stroke:#000"/><path d="m24997 12401h-51" style="fill:none;stroke:#000"/><path d="m24895 12401h-51" style="fill:none;stroke:#000"/><path d="m24793 12401h-51" style="fill:none;stroke:#000"/><path d="m24691 12401h-51" style="fill:none;stroke:#000"/><path d="m24589 12401h-51" style="fill:none;stroke:#000"/><path d="m24487 12401h-51" style="fill:none;stroke:#000"/><path d="m24385 12401h-51" style="fill:none;stroke:#000"/><path d="m24283 12401h-51" style="fill:none;stroke:#000"/><path d="m24181 12401h-51" style="fill:none;stroke:#000"/><path d="m24079 12401h-51" style="fill:none;stroke:#000"/><path d="m23977 12401h-51" style="fill:none;stroke:#000"/><path d="m23875 12401h-51" style="fill:none;stroke:#000"/><path d="m23773 12401h-51" style="fill:none;stroke:#000"/><path d="m23671 12401h-51" style="fill:none;stroke:#000"/><path d="m23569 12401h-51" style="fill:none;stroke:#000"/><path d="m23467 12401h-51" style="fill:none;stroke:#000"/><path d="m23365 12401h-51" style="fill:none;stroke:#000"/><path d="m23263 12401h-51" style="fill:none;stroke:#000"/><path d="m23161 12401h-51" style="fill:none;stroke:#000"/><path d="m23059 12401h-51" style="fill:none;stroke:#000"/><path d="m22957 12401h-51" style="fill:none;stroke:#000"/><path d="m22855 12401h-51" style="fill:none;stroke:#000"/></g><g class="com.sun.star.drawing.CustomShape" transform="translate(-16159 -4663.7)"><path d="m18371 7992c-368 0-735 367-735 735v2940c0 368 367 736 735 736h3491c368 0 736-368 736-736v-2940c0-368-368-735-736-735h-3491z" style="fill-opacity:.502;fill:#9cf;stroke-opacity:.502;stroke:#fff"/><path d="m18371 7992c-17 0-34 1-51 2" style="fill:none;stroke:#000"/><path d="m18269 8001c-16 3-33 7-49 11" style="fill:none;stroke:#000"/><path d="m18171 8027c-16 5-32 11-48 18" style="fill:none;stroke:#000"/><path d="m18077 8067c-15 7-30 16-45 24" style="fill:none;stroke:#000"/><path d="m17989 8119c-14 9-28 19-41 30" style="fill:none;stroke:#000"/><path d="m17908 8181c-12 12-25 23-37 35" style="fill:none;stroke:#000"/><path d="m17836 8253c-12 13-23 25-34 39" style="fill:none;stroke:#000"/><path d="m17772 8333c-10 13-20 28-29 42" style="fill:none;stroke:#000"/><path d="m17718 8419c-8 15-16 31-23 46" style="fill:none;stroke:#000"/><path d="m17676 8512c-6 16-11 32-16 49" style="fill:none;stroke:#000"/><path d="m17648 8610c-3 17-6 34-8 51" style="fill:none;stroke:#000"/><path d="m17636 8712v15 36" style="fill:none;stroke:#000"/><path d="m17636 8814v51" style="fill:none;stroke:#000"/><path d="m17636 8916v51" style="fill:none;stroke:#000"/><path d="m17636 9018v51" style="fill:none;stroke:#000"/><path d="m17636 9120v51" style="fill:none;stroke:#000"/><path d="m17636 9222v51" style="fill:none;stroke:#000"/><path d="m17636 9324v51" style="fill:none;stroke:#000"/><path d="m17636 9426v51" style="fill:none;stroke:#000"/><path d="m17636 9528v51" style="fill:none;stroke:#000"/><path d="m17636 9630v51" style="fill:none;stroke:#000"/><path d="m17636 9732v51" style="fill:none;stroke:#000"/><path d="m17636 9834v51" style="fill:none;stroke:#000"/><path d="m17636 9936v51" style="fill:none;stroke:#000"/><path d="m17636 10038v51" style="fill:none;stroke:#000"/><path d="m17636 10140v51" style="fill:none;stroke:#000"/><path d="m17636 10242v51" style="fill:none;stroke:#000"/><path d="m17636 10344v51" style="fill:none;stroke:#000"/><path d="m17636 10446v51" style="fill:none;stroke:#000"/><path d="m17636 10548v51" style="fill:none;stroke:#000"/><path d="m17636 10650v51" style="fill:none;stroke:#000"/><path d="m17636 10752v51" style="fill:none;stroke:#000"/><path d="m17636 10854v51" style="fill:none;stroke:#000"/><path d="m17636 10956v51" style="fill:none;stroke:#000"/><path d="m17636 11058v51" style="fill:none;stroke:#000"/><path d="m17636 11160v51" style="fill:none;stroke:#000"/><path d="m17636 11262v51" style="fill:none;stroke:#000"/><path d="m17636 11364v51" style="fill:none;stroke:#000"/><path d="m17636 11466v51" style="fill:none;stroke:#000"/><path d="m17636 11568v51" style="fill:none;stroke:#000"/><path d="m17636 11670c0 17 1 34 3 50" style="fill:none;stroke:#000"/><path d="m17646 11771c3 17 6 33 11 50" style="fill:none;stroke:#000"/><path d="m17672 11870c5 16 11 31 18 47" style="fill:none;stroke:#000"/><path d="m17712 11963c8 15 16 30 25 45" style="fill:none;stroke:#000"/><path d="m17764 12051c10 14 20 28 30 41" style="fill:none;stroke:#000"/><path d="m17827 12132c11 12 23 25 35 37" style="fill:none;stroke:#000"/><path d="m17898 12204c13 12 26 23 39 33" style="fill:none;stroke:#000"/><path d="m17978 12268c14 10 28 19 43 28" style="fill:none;stroke:#000"/><path d="m18065 12322c15 8 30 15 46 22" style="fill:none;stroke:#000"/><path d="m18158 12364c16 5 32 11 49 15" style="fill:none;stroke:#000"/><path d="m18256 12391c17 4 34 6 51 8" style="fill:none;stroke:#000"/><path d="m18357 12403h14 37" style="fill:none;stroke:#000"/><path d="m18459 12403h51" style="fill:none;stroke:#000"/><path d="m18561 12403h51" style="fill:none;stroke:#000"/><path d="m18663 12403h51" style="fill:none;stroke:#000"/><path d="m18765 12403h51" style="fill:none;stroke:#000"/><path d="m18867 12403h51" style="fill:none;stroke:#000"/><path d="m18969 12403h51" style="fill:none;stroke:#000"/><path d="m19071 12403h51" style="fill:none;stroke:#000"/><path d="m19173 12403h51" style="fill:none;stroke:#000"/><path d="m19275 12403h51" style="fill:none;stroke:#000"/><path d="m19377 12403h51" style="fill:none;stroke:#000"/><path d="m19479 12403h51" style="fill:none;stroke:#000"/><path d="m19581 12403h51" style="fill:none;stroke:#000"/><path d="m19683 12403h51" style="fill:none;stroke:#000"/><path d="m19785 12403h51" style="fill:none;stroke:#000"/><path d="m19887 12403h51" style="fill:none;stroke:#000"/><path d="m19989 12403h51" style="fill:none;stroke:#000"/><path d="m20091 12403h51" style="fill:none;stroke:#000"/><path d="m20193 12403h51" style="fill:none;stroke:#000"/><path d="m20295 12403h51" style="fill:none;stroke:#000"/><path d="m20397 12403h51" style="fill:none;stroke:#000"/><path d="m20499 12403h51" style="fill:none;stroke:#000"/><path d="m20601 12403h51" style="fill:none;stroke:#000"/><path d="m20703 12403h51" style="fill:none;stroke:#000"/><path d="m20805 12403h51" style="fill:none;stroke:#000"/><path d="m20907 12403h51" style="fill:none;stroke:#000"/><path d="m21009 12403h51" style="fill:none;stroke:#000"/><path d="m21111 12403h51" style="fill:none;stroke:#000"/><path d="m21213 12403h51" style="fill:none;stroke:#000"/><path d="m21315 12403h51" style="fill:none;stroke:#000"/><path d="m21417 12403h51" style="fill:none;stroke:#000"/><path d="m21519 12403h51" style="fill:none;stroke:#000"/><path d="m21621 12403h51" style="fill:none;stroke:#000"/><path d="m21723 12403h51" style="fill:none;stroke:#000"/><path d="m21825 12403h37 14" style="fill:none;stroke:#000"/><path d="m21927 12399c17-2 34-4 51-8" style="fill:none;stroke:#000"/><path d="m22027 12379c17-5 33-10 49-16" style="fill:none;stroke:#000"/><path d="m22123 12344c15-7 31-14 46-23" style="fill:none;stroke:#000"/><path d="m22213 12296c15-9 29-18 43-28" style="fill:none;stroke:#000"/><path d="m22296 12237c14-11 27-22 39-33" style="fill:none;stroke:#000"/><path d="m22372 12169c12-12 24-25 35-38" style="fill:none;stroke:#000"/><path d="m22440 12092c10-13 20-27 30-41" style="fill:none;stroke:#000"/><path d="m22497 12008c9-15 17-30 25-45" style="fill:none;stroke:#000"/><path d="m22544 11917c7-16 13-32 18-48" style="fill:none;stroke:#000"/><path d="m22577 11821c5-17 8-33 11-50" style="fill:none;stroke:#000"/><path d="m22595 11720c2-17 3-34 3-51" style="fill:none;stroke:#000"/><path d="m22598 11618v-51" style="fill:none;stroke:#000"/><path d="m22598 11516v-51" style="fill:none;stroke:#000"/><path d="m22598 11414v-51" style="fill:none;stroke:#000"/><path d="m22598 11312v-51" style="fill:none;stroke:#000"/><path d="m22598 11210v-51" style="fill:none;stroke:#000"/><path d="m22598 11108v-51" style="fill:none;stroke:#000"/><path d="m22598 11006v-51" style="fill:none;stroke:#000"/><path d="m22598 10904v-51" style="fill:none;stroke:#000"/><path d="m22598 10802v-51" style="fill:none;stroke:#000"/><path d="m22598 10700v-51" style="fill:none;stroke:#000"/><path d="m22598 10598v-51" style="fill:none;stroke:#000"/><path d="m22598 10496v-51" style="fill:none;stroke:#000"/><path d="m22598 10394v-51" style="fill:none;stroke:#000"/><path d="m22598 10292v-51" style="fill:none;stroke:#000"/><path d="m22598 10190v-51" style="fill:none;stroke:#000"/><path d="m22598 10088v-51" style="fill:none;stroke:#000"/><path d="m22598 9986v-51" style="fill:none;stroke:#000"/><path d="m22598 9884v-51" style="fill:none;stroke:#000"/><path d="m22598 9782v-51" style="fill:none;stroke:#000"/><path d="m22598 9680v-51" style="fill:none;stroke:#000"/><path d="m22598 9578v-51" style="fill:none;stroke:#000"/><path d="m22598 9476v-51" style="fill:none;stroke:#000"/><path d="m22598 9374v-51" style="fill:none;stroke:#000"/><path d="m22598 9272v-51" style="fill:none;stroke:#000"/><path d="m22598 9170v-51" style="fill:none;stroke:#000"/><path d="m22598 9068v-51" style="fill:none;stroke:#000"/><path d="m22598 8966v-51" style="fill:none;stroke:#000"/><path d="m22598 8864v-51" style="fill:none;stroke:#000"/><path d="m22598 8762v-35-16" style="fill:none;stroke:#000"/><path d="m22594 8661c-2-17-5-34-8-51" style="fill:none;stroke:#000"/><path d="m22574 8561c-5-17-10-33-16-49" style="fill:none;stroke:#000"/><path d="m22538 8465c-7-16-14-31-22-46" style="fill:none;stroke:#000"/><path d="m22490 8375c-9-14-18-29-28-43" style="fill:none;stroke:#000"/><path d="m22431 8292c-11-14-22-26-33-39" style="fill:none;stroke:#000"/><path d="m22363 8216c-13-12-25-23-38-35" style="fill:none;stroke:#000"/><path d="m22286 8149-42-30" style="fill:none;stroke:#000"/><path d="m22201 8092c-14-9-29-17-45-25" style="fill:none;stroke:#000"/><path d="m22110 8045c-15-6-31-13-47-18" style="fill:none;stroke:#000"/><path d="m22014 8012c-17-4-33-8-50-11" style="fill:none;stroke:#000"/><path d="m21913 7994c-17-1-34-2-51-2" style="fill:none;stroke:#000"/><path d="m21811 7992h-51" style="fill:none;stroke:#000"/><path d="m21709 7992h-51" style="fill:none;stroke:#000"/><path d="m21607 7992h-51" style="fill:none;stroke:#000"/><path d="m21505 7992h-51" style="fill:none;stroke:#000"/><path d="m21403 7992h-51" style="fill:none;stroke:#000"/><path d="m21301 7992h-51" style="fill:none;stroke:#000"/><path d="m21199 7992h-51" style="fill:none;stroke:#000"/><path d="m21097 7992h-51" style="fill:none;stroke:#000"/><path d="m20995 7992h-51" style="fill:none;stroke:#000"/><path d="m20893 7992h-51" style="fill:none;stroke:#000"/><path d="m20791 7992h-51" style="fill:none;stroke:#000"/><path d="m20689 7992h-51" style="fill:none;stroke:#000"/><path d="m20587 7992h-51" style="fill:none;stroke:#000"/><path d="m20485 7992h-51" style="fill:none;stroke:#000"/><path d="m20383 7992h-51" style="fill:none;stroke:#000"/><path d="m20281 7992h-51" style="fill:none;stroke:#000"/><path d="m20179 7992h-51" style="fill:none;stroke:#000"/><path d="m20077 7992h-51" style="fill:none;stroke:#000"/><path d="m19975 7992h-51" style="fill:none;stroke:#000"/><path d="m19873 7992h-51" style="fill:none;stroke:#000"/><path d="m19771 7992h-51" style="fill:none;stroke:#000"/><path d="m19669 7992h-51" style="fill:none;stroke:#000"/><path d="m19567 7992h-51" style="fill:none;stroke:#000"/><path d="m19465 7992h-51" style="fill:none;stroke:#000"/><path d="m19363 7992h-51" style="fill:none;stroke:#000"/><path d="m19261 7992h-51" style="fill:none;stroke:#000"/><path d="m19159 7992h-51" style="fill:none;stroke:#000"/><path d="m19057 7992h-51" style="fill:none;stroke:#000"/><path d="m18955 7992h-51" style="fill:none;stroke:#000"/><path d="m18853 7992h-51" style="fill:none;stroke:#000"/><path d="m18751 7992h-51" style="fill:none;stroke:#000"/><path d="m18649 7992h-51" style="fill:none;stroke:#000"/><path d="m18547 7992h-51" style="fill:none;stroke:#000"/><path d="m18445 7992h-51" style="fill:none;stroke:#000"/></g><g class="com.sun.star.drawing.CustomShape" transform="translate(-16159 -4663.7)"><path d="m20218 5060c469 0 827 358 827 827s-358 827-827 827-827-358-827-827 358-827 827-827z" style="fill-opacity:.698;fill:#808080;stroke-opacity:.698;stroke:#fff"/><path d="m20218 5060c469 0 827 358 827 827s-358 827-827 827-827-358-827-827 358-827 827-827z" style="fill:none;stroke:#808080"/><path d="m19391 5060" style="fill:none;stroke:#808080"/><path d="m21046 6715" style="fill:none;stroke:#808080"/><path d="m19948 5545c50 0 89 38 89 88s-39 89-89 89-88-39-88-89 38-88 88-88z" style="fill-opacity:.698;fill:#808080;stroke-opacity:.698;stroke:#fff"/><path d="m19948 5545c50 0 89 38 89 88s-39 89-89 89-88-39-88-89 38-88 88-88z" style="fill:none;stroke:#808080"/><path d="m19391 5060" style="fill:none;stroke:#808080"/><path d="m21046 6715" style="fill:none;stroke:#808080"/><path d="m20484 5545c50 0 89 38 89 88s-39 89-89 89-88-39-88-89 38-88 88-88z" style="fill-opacity:.698;fill:#808080;stroke-opacity:.698;stroke:#fff"/><path d="m20484 5545c50 0 89 38 89 88s-39 89-89 89-88-39-88-89 38-88 88-88z" style="fill:none;stroke:#808080"/><path d="m19391 5060" style="fill:none;stroke:#808080"/><path d="m21046 6715" style="fill:none;stroke:#808080"/><path d="m19764 6248c292 154 616 154 908 0" style="fill:none;stroke:#808080"/><path d="m19391 5060" style="fill:none;stroke:#808080"/><path d="m21046 6715" style="fill:none;stroke:#808080"/><path d="m20118 4960c469 0 827 358 827 827s-358 827-827 827-827-358-827-827 358-827 827-827z" style="fill-opacity:.698;fill:#9cf;stroke-opacity:.698;stroke:#fff"/><path d="m20118 4960c469 0 827 358 827 827s-358 827-827 827-827-358-827-827 358-827 827-827z" style="fill:none;stroke:#000"/><path d="m19291 4960" style="fill:none;stroke:#000"/><path d="m20946 6615" style="fill:none;stroke:#000"/><path d="m19848 5445c50 0 89 38 89 88s-39 89-89 89-88-39-88-89 38-88 88-88z" style="fill-opacity:.698;fill:#7aa3cc;stroke-opacity:.698;stroke:#fff"/><path d="m19848 5445c50 0 89 38 89 88s-39 89-89 89-88-39-88-89 38-88 88-88z" style="fill:none;stroke:#000"/><path d="m19291 4960" style="fill:none;stroke:#000"/><path d="m20946 6615" style="fill:none;stroke:#000"/><path d="m20384 5445c50 0 89 38 89 88s-39 89-89 89-88-39-88-89 38-88 88-88z" style="fill-opacity:.698;fill:#7aa3cc;stroke-opacity:.698;stroke:#fff"/><path d="m20384 5445c50 0 89 38 89 88s-39 89-89 89-88-39-88-89 38-88 88-88z" style="fill:none;stroke:#000"/><path d="m19291 4960" style="fill:none;stroke:#000"/><path d="m20946 6615" style="fill:none;stroke:#000"/><path d="m19664 6148c292 154 616 154 908 0" style="fill:none;stroke:#000"/><path d="m19291 4960" style="fill:none;stroke:#000"/><path d="m20946 6615" style="fill:none;stroke:#000"/></g><g class="com.sun.star.drawing.CustomShape" transform="translate(-16159 -4663.7)"><path d="m24627 5060c469 0 827 358 827 827s-358 827-827 827-827-358-827-827 358-827 827-827z" style="fill-opacity:.698;fill:#808080;stroke-opacity:.698;stroke:#fff"/><path d="m24627 5060c469 0 827 358 827 827s-358 827-827 827-827-358-827-827 358-827 827-827z" style="fill:none;stroke:#808080"/><path d="m23800 5060" style="fill:none;stroke:#808080"/><path d="m25455 6715" style="fill:none;stroke:#808080"/><path d="m24357 5545c50 0 89 38 89 88s-39 89-89 89-88-39-88-89 38-88 88-88z" style="fill-opacity:.698;fill:#808080;stroke-opacity:.698;stroke:#fff"/><path d="m24357 5545c50 0 89 38 89 88s-39 89-89 89-88-39-88-89 38-88 88-88z" style="fill:none;stroke:#808080"/><path d="m23800 5060" style="fill:none;stroke:#808080"/><path d="m25455 6715" style="fill:none;stroke:#808080"/><path d="m24893 5545c50 0 89 38 89 88s-39 89-89 89-88-39-88-89 38-88 88-88z" style="fill-opacity:.698;fill:#808080;stroke-opacity:.698;stroke:#fff"/><path d="m24893 5545c50 0 89 38 89 88s-39 89-89 89-88-39-88-89 38-88 88-88z" style="fill:none;stroke:#808080"/><path d="m23800 5060" style="fill:none;stroke:#808080"/><path d="m25455 6715" style="fill:none;stroke:#808080"/><path d="m24173 6248c292 154 616 154 908 0" style="fill:none;stroke:#808080"/><path d="m23800 5060" style="fill:none;stroke:#808080"/><path d="m25455 6715" style="fill:none;stroke:#808080"/><path d="m24527 4960c469 0 827 358 827 827s-358 827-827 827-827-358-827-827 358-827 827-827z" style="fill-opacity:.698;fill:#ff8080;stroke-opacity:.698;stroke:#fff"/><path d="m24527 4960c469 0 827 358 827 827s-358 827-827 827-827-358-827-827 358-827 827-827z" style="fill:none;stroke:#000"/><path d="m23700 4960" style="fill:none;stroke:#000"/><path d="m25355 6615" style="fill:none;stroke:#000"/><path d="m24257 5445c50 0 89 38 89 88s-39 89-89 89-88-39-88-89 38-88 88-88z" style="fill-opacity:.698;fill:#c66;stroke-opacity:.698;stroke:#fff"/><path d="m24257 5445c50 0 89 38 89 88s-39 89-89 89-88-39-88-89 38-88 88-88z" style="fill:none;stroke:#000"/><path d="m23700 4960" style="fill:none;stroke:#000"/><path d="m25355 6615" style="fill:none;stroke:#000"/><path d="m24793 5445c50 0 89 38 89 88s-39 89-89 89-88-39-88-89 38-88 88-88z" style="fill-opacity:.698;fill:#c66;stroke-opacity:.698;stroke:#fff"/><path d="m24793 5445c50 0 89 38 89 88s-39 89-89 89-88-39-88-89 38-88 88-88z" style="fill:none;stroke:#000"/><path d="m23700 4960" style="fill:none;stroke:#000"/><path d="m25355 6615" style="fill:none;stroke:#000"/><path d="m24073 6148c292 154 616 154 908 0" style="fill:none;stroke:#000"/><path d="m23700 4960" style="fill:none;stroke:#000"/><path d="m25355 6615" style="fill:none;stroke:#000"/></g><g class="com.sun.star.drawing.LineShape" transform="translate(-16159 -4663.7)"><path d="m20118 7165v51" style="fill:none;stroke:#000"/><path d="m20118 7267v51" style="fill:none;stroke:#000"/><path d="m20118 7369v51" style="fill:none;stroke:#000"/><path d="m20118 7471v51" style="fill:none;stroke:#000"/><path d="m20118 7573v51" style="fill:none;stroke:#000"/><path d="m20118 7675v51" style="fill:none;stroke:#000"/><path d="m20118 7777v51" style="fill:none;stroke:#000"/><path d="m20118 7879v51" style="fill:none;stroke:#000"/><path d="m20118 7981v51" style="fill:none;stroke:#000"/><path d="m20118 8083v51" style="fill:none;stroke:#000"/><path d="m20118 8185v51" style="fill:none;stroke:#000"/><path d="m20118 8287v51" style="fill:none;stroke:#000"/><path d="m20118 8389v51" style="fill:none;stroke:#000"/><path d="m20118 8491v51" style="fill:none;stroke:#000"/><path d="m20118 8593v51" style="fill:none;stroke:#000"/><path d="m20118 8695v51" style="fill:none;stroke:#000"/><path d="m20118 8797v51" style="fill:none;stroke:#000"/><path d="m20118 8899v51" style="fill:none;stroke:#000"/><path d="m20118 9001v51" style="fill:none;stroke:#000"/><path d="m20118 9103v51" style="fill:none;stroke:#000"/><path d="m20118 9205v51" style="fill:none;stroke:#000"/><path d="m20118 9307v51" style="fill:none;stroke:#000"/><path d="m20118 9409v51" style="fill:none;stroke:#000"/><path d="m20118 9511v51" style="fill:none;stroke:#000"/><path d="m20118 9613v51" style="fill:none;stroke:#000"/><path d="m20118 9715v51" style="fill:none;stroke:#000"/><path d="m20118 9817v51" style="fill:none;stroke:#000"/><path d="m20118 9919v51" style="fill:none;stroke:#000"/><path d="m20118 10021v51" style="fill:none;stroke:#000"/><path d="m20118 10123v51" style="fill:none;stroke:#000"/><path d="m20118 10225v51" style="fill:none;stroke:#000"/><path d="m20118 10327v51" style="fill:none;stroke:#000"/><path d="m20118 10429v51" style="fill:none;stroke:#000"/><path d="m20118 10531v51" style="fill:none;stroke:#000"/><path d="m20118 10633v51" style="fill:none;stroke:#000"/><path d="m20118 10735v51" style="fill:none;stroke:#000"/><path d="m20118 10837v51" style="fill:none;stroke:#000"/><path d="m20118 10939v51" style="fill:none;stroke:#000"/><path d="m20118 11041v51" style="fill:none;stroke:#000"/><path d="m20118 11143v51" style="fill:none;stroke:#000"/><path d="m20118 11245v51" style="fill:none;stroke:#000"/><path d="m20118 11347v51" style="fill:none;stroke:#000"/><path d="m20118 11449v51" style="fill:none;stroke:#000"/><path d="m20118 11551v51" style="fill:none;stroke:#000"/><path d="m20118 11653v51" style="fill:none;stroke:#000"/><path d="m20118 11755v51" style="fill:none;stroke:#000"/><path d="m20118 11857v51" style="fill:none;stroke:#000"/><path d="m20118 11959v51" style="fill:none;stroke:#000"/><path d="m20118 12061v51" style="fill:none;stroke:#000"/><path d="m20118 12163v51" style="fill:none;stroke:#000"/><path d="m20118 12265v51" style="fill:none;stroke:#000"/><path d="m20118 12367v51" style="fill:none;stroke:#000"/><path d="m20118 12469v51" style="fill:none;stroke:#000"/><path d="m20118 12571v51" style="fill:none;stroke:#000"/><path d="m20118 12673v51" style="fill:none;stroke:#000"/><path d="m20118 12775v51" style="fill:none;stroke:#000"/><path d="m20118 12877v51" style="fill:none;stroke:#000"/><path d="m20118 12979v51" style="fill:none;stroke:#000"/><path d="m20118 13081v51" style="fill:none;stroke:#000"/><path d="m20118 13183v51" style="fill:none;stroke:#000"/><path d="m20118 13285v51" style="fill:none;stroke:#000"/><path d="m20118 13387v51" style="fill:none;stroke:#000"/><path d="m20118 13489v51" style="fill:none;stroke:#000"/><path d="m20118 13591v51" style="fill:none;stroke:#000"/><path d="m20118 13693v51" style="fill:none;stroke:#000"/><path d="m20118 13795v51" style="fill:none;stroke:#000"/><path d="m20118 13897v51" style="fill:none;stroke:#000"/><path d="m20118 13999v51" style="fill:none;stroke:#000"/><path d="m20118 14101v51" style="fill:none;stroke:#000"/><path d="m20118 14203v51" style="fill:none;stroke:#000"/><path d="m20118 14305v51" style="fill:none;stroke:#000"/><path d="m20118 14407v51" style="fill:none;stroke:#000"/><path d="m20118 14509v51" style="fill:none;stroke:#000"/><path d="m20118 14611v51" style="fill:none;stroke:#000"/><path d="m20118 14713v51" style="fill:none;stroke:#000"/><path d="m20118 14815v51" style="fill:none;stroke:#000"/><path d="m20118 14917v51" style="fill:none;stroke:#000"/><path d="m20118 15019v51" style="fill:none;stroke:#000"/><path d="m20118 15121v51" style="fill:none;stroke:#000"/><path d="m20118 15223v51" style="fill:none;stroke:#000"/><path d="m20118 15325v51" style="fill:none;stroke:#000"/><path d="m20118 15427v51" style="fill:none;stroke:#000"/><path d="m20118 15529v51" style="fill:none;stroke:#000"/><path d="m20118 15631v51" style="fill:none;stroke:#000"/><path d="m20118 15733v51" style="fill:none;stroke:#000"/><path d="m20118 15835v51" style="fill:none;stroke:#000"/><path d="m20118 15937v51" style="fill:none;stroke:#000"/><path d="m20118 16039v51" style="fill:none;stroke:#000"/><path d="m20118 16141v51" style="fill:none;stroke:#000"/><path d="m20118 16243v51" style="fill:none;stroke:#000"/><path d="m20118 16345v51" style="fill:none;stroke:#000"/><path d="m20118 16447v51" style="fill:none;stroke:#000"/><path d="m20118 16549v51" style="fill:none;stroke:#000"/><path d="m20118 16651v51" style="fill:none;stroke:#000"/><path d="m20118 16753v51" style="fill:none;stroke:#000"/><path d="m20118 16855v51" style="fill:none;stroke:#000"/><path d="m20118 16957v51" style="fill:none;stroke:#000"/><path d="m20118 17059v51" style="fill:none;stroke:#000"/><path d="m20118 17161v51" style="fill:none;stroke:#000"/><path d="m20118 17263v51" style="fill:none;stroke:#000"/><path d="m20118 17365v51" style="fill:none;stroke:#000"/><path d="m20118 17467v51" style="fill:none;stroke:#000"/><path d="m20118 17569v51" style="fill:none;stroke:#000"/></g><g class="com.sun.star.drawing.RectangleShape" transform="translate(-16159 -4663.7)"><path d="m20217 10021h-1929v-1654h3858v1654h-1929z" style="fill-opacity:.698;fill:#808080;stroke-opacity:.698;stroke:#fff"/><path d="m20217 10021h-1929v-1654h3858v1654h-1929z" style="fill:none;stroke:#808080"/><text class="TextShape" style="line-height:0%"><tspan class="TextParagraph" font-size="564px" font-style="italic" font-weight="400" style="font-family:Arial;font-size:564px;font-style:italic;font-weight:400"><tspan class="TextPosition" x="19275" y="9082"><tspan style="fill:#808080">Verifica</tspan></tspan><tspan class="TextPosition" x="18638" y="9758"><tspan style="fill:#808080">CC </tspan><tspan style="fill:#808080">≥</tspan><tspan style="fill:#808080"> 1000 ?</tspan></tspan></tspan></text>
<path d="m20117 9921h-1929v-1654h3858v1654h-1929z" style="fill-opacity:.698;fill:#fff;stroke-opacity:.698;stroke:#fff"/><path d="m20117 9921h-1929v-1654h3858v1654h-1929z" style="fill:none;stroke:#000"/><text class="TextShape" style="line-height:0%"><tspan class="TextParagraph" font-size="564px" font-style="italic" font-weight="400" style="font-family:Arial;font-size:564px;font-style:italic;font-weight:400"><tspan class="TextPosition" x="19175" y="8982"><tspan style="fill:#000000">Verifica</tspan></tspan><tspan class="TextPosition" x="18538" y="9658"><tspan style="fill:#000000">CC </tspan><tspan style="fill:#000000">≥</tspan><tspan style="fill:#000000"> 1000 ?</tspan></tspan></tspan></text>
</g><g class="com.sun.star.drawing.RectangleShape" transform="translate(-16159 -4663.7)"><path d="m24627 14431h-1929v-1654h3858v1654h-1929z" style="fill-opacity:.698;fill:#808080;stroke-opacity:.698;stroke:#fff"/><path d="m24627 14431h-1929v-1654h3858v1654h-1929z" style="fill:none;stroke:#808080"/><text class="TextShape" style="line-height:0%"><tspan class="TextParagraph" font-size="564px" font-style="italic" font-weight="400" style="font-family:Arial;font-size:564px;font-style:italic;font-weight:400"><tspan class="TextPosition" x="23685" y="13492"><tspan style="fill:#808080">Verifica</tspan></tspan><tspan class="TextPosition" x="23048" y="14168"><tspan style="fill:#808080">CC </tspan><tspan style="fill:#808080">≥</tspan><tspan style="fill:#808080"> 1000 ?</tspan></tspan></tspan></text>
<path d="m24527 14331h-1929v-1654h3858v1654h-1929z" style="fill-opacity:.698;fill:#fff;stroke-opacity:.698;stroke:#fff"/><path d="m24527 14331h-1929v-1654h3858v1654h-1929z" style="fill:none;stroke:#000"/><text class="TextShape" style="line-height:0%"><tspan class="TextParagraph" font-size="564px" font-style="italic" font-weight="400" style="font-family:Arial;font-size:564px;font-style:italic;font-weight:400"><tspan class="TextPosition" x="23585" y="13392"><tspan style="fill:#000000">Verifica</tspan></tspan><tspan class="TextPosition" x="22948" y="14068"><tspan style="fill:#000000">CC </tspan><tspan style="fill:#000000">≥</tspan><tspan style="fill:#000000"> 1000 ?</tspan></tspan></tspan></text>
</g><g class="com.sun.star.drawing.RectangleShape" transform="translate(-16159 -4663.7)"><path d="m20217 12226h-1929v-1654h3858v1654h-1929z" style="fill-opacity:.698;fill:#808080;stroke-opacity:.698;stroke:#fff"/><path d="m20217 12226h-1929v-1654h3858v1654h-1929z" style="fill:none;stroke:#808080"/><text class="TextShape" style="line-height:0%"><tspan class="TextParagraph" font-size="564px" font-style="italic" font-weight="400" style="font-family:Arial;font-size:564px;font-style:italic;font-weight:400"><tspan class="TextPosition" x="18790" y="11287"><tspan style="fill:#808080">Sottrazione</tspan></tspan><tspan class="TextPosition" x="19355" y="11963"><tspan style="fill:#808080">1000 €</tspan></tspan></tspan></text>
<path d="m20117 12126h-1929v-1654h3858v1654h-1929z" style="fill-opacity:.698;fill:#fff;stroke-opacity:.698;stroke:#fff"/><path d="m20117 12126h-1929v-1654h3858v1654h-1929z" style="fill:none;stroke:#000"/><text class="TextShape" style="line-height:0%"><tspan class="TextParagraph" font-size="564px" font-style="italic" font-weight="400" style="font-family:Arial;font-size:564px;font-style:italic;font-weight:400"><tspan class="TextPosition" x="18690" y="11187"><tspan style="fill:#000000">Sottrazione</tspan></tspan><tspan class="TextPosition" x="19255" y="11863"><tspan style="fill:#000000">1000 €</tspan></tspan></tspan></text>
</g><g class="com.sun.star.drawing.RectangleShape" transform="translate(-16159 -4663.7)"><path d="m24627 16635h-1929v-1654h3858v1654h-1929z" style="fill-opacity:.698;fill:#808080;stroke-opacity:.698;stroke:#fff"/><path d="m24627 16635h-1929v-1654h3858v1654h-1929z" style="fill:none;stroke:#808080"/><text class="TextShape" style="line-height:0%"><tspan class="TextParagraph" font-size="564px" font-style="italic" font-weight="400" style="font-family:Arial;font-size:564px;font-style:italic;font-weight:400"><tspan class="TextPosition" x="23200" y="15696"><tspan style="fill:#808080">Sottrazione</tspan></tspan><tspan class="TextPosition" x="23765" y="16372"><tspan style="fill:#808080">1000 €</tspan></tspan></tspan></text>
<path d="m24527 16535h-1929v-1654h3858v1654h-1929z" style="fill-opacity:.698;fill:#fff;stroke-opacity:.698;stroke:#fff"/><path d="m24527 16535h-1929v-1654h3858v1654h-1929z" style="fill:none;stroke:#000"/><text class="TextShape" style="line-height:0%"><tspan class="TextParagraph" font-size="564px" font-style="italic" font-weight="400" style="font-family:Arial;font-size:564px;font-style:italic;font-weight:400"><tspan class="TextPosition" x="23100" y="15596"><tspan style="fill:#000000">Sottrazione</tspan></tspan><tspan class="TextPosition" x="23665" y="16272"><tspan style="fill:#000000">1000 €</tspan></tspan></tspan></text>
</g><g class="com.sun.star.drawing.LineShape" transform="translate(-16159 -4663.7)"><path d="m17086 6062v11059" style="fill:none;stroke:#000"/><path d="m17086 17637 180-540h-360l180 540z"/></g><g class="com.sun.star.drawing.RectangleShape" transform="translate(-16159 -4663.7)"><text class="TextShape" style="line-height:0%"><tspan class="TextParagraph" font-size="706px" font-style="italic" font-weight="400" style="font-size:706px;font-style:italic;font-weight:400"><tspan class="TextPosition" x="16412" y="16818"><tspan style="fill:#000000">t</tspan></tspan></tspan></text>
</g><g class="com.sun.star.drawing.LineShape" transform="translate(-16159 -4663.7)"><path d="m22597 17086 3858-4961" style="fill:none;stroke:#800000"/></g></svg>
