<?xml version="1.0" encoding="UTF-8"?>
<svg clip-path="url(#b)" style="fill-rule:evenodd;stroke-linejoin:round;stroke-width:28.222" version="1.2" viewBox="0 0 19434 11165" xml:space="preserve" xmlns="http://www.w3.org/2000/svg" xmlns:xlink="http://www.w3.org/1999/xlink"><defs><linearGradient id="a"><stop style="stop-color:#c8c8c8" offset="0"/><stop style="stop-color:#fff" offset="1"/></linearGradient><clipPath id="b"><rect width="28000" height="21000"/></clipPath><linearGradient id="e" x1="12663" x2="17652" y1="13642" y2="13642" gradientTransform="translate(-5765.7 -6317.7)" gradientUnits="userSpaceOnUse" xlink:href="#a"/><linearGradient id="d" x1="16535" x2="20393" y1="7027.5" y2="7027.5" gradientTransform="translate(-5765.7 -6317.7)" gradientUnits="userSpaceOnUse" xlink:href="#a"/><linearGradient id="c" x1="6047.9" x2="9934.1" y1="7027.5" y2="7027.5" gradientTransform="translate(-5765.7 -6317.7)" gradientUnits="userSpaceOnUse" xlink:href="#a"/></defs><defs/><defs/><path d="m2325.3 1223.3h-1929v-827h3858v827h-1929z" style="fill:#808080"/><path d="m2325.3 1223.3h-1929v-827h3858v827h-1929z" style="fill:none;stroke-width:28.222;stroke:#808080"/><text x="-5765.6528" y="-6317.6528" style="font-size:12px"><tspan style="font-family:'Arial';font-size:494px;font-style:italic;font-weight:400"><tspan x="1429.3473" y="1008.3472"><tspan style="fill:#808080">Laureati</tspan></tspan></tspan></text>
<path d="m2225.3 1123.3h-1929v-827h3858v827h-1929z" style="fill:#fff"/><path d="m2225.3 1123.3h-1929v-827h3858v827h-1929z" style="fill:url(#c);stroke-width:28.222;stroke:#fff"/><text x="-5765.6528" y="-6317.6528" style="font-size:12px"><tspan style="font-family:'Arial';font-size:494px;font-style:italic;font-weight:400"><tspan x="1329.3473" y="908.34723"><tspan style="fill:#000000">Laureati</tspan></tspan></tspan></text>
<path d="m1774.3 2049.3h-1378v-827h2756v827h-1378z" style="fill:#808080"/><path d="m1774.3 2049.3h-1378v-827h2756v827h-1378z" style="fill:none;stroke-width:28.222;stroke:#808080"/><text x="-5765.6528" y="-6317.6528" style="font-size:12px"><tspan style="font-family:'Arial';font-size:494px;font-weight:700"><tspan x="686.34723" y="1834.3473"><tspan style="fill:#808080">Matricola</tspan></tspan></tspan></text>
<path d="m1674.3 1949.3h-1378v-827h2756v827h-1378z" style="fill:#f00"/><path d="m1674.3 1949.3h-1378v-827h2756v827h-1378z" style="fill:none;stroke-width:28.222;stroke:#fff"/><text x="-5765.6528" y="-6317.6528" style="font-size:12px"><tspan style="font-family:'Arial';font-size:494px;font-weight:700"><tspan x="586.34723" y="1734.3473"><tspan style="fill:#000000">Matricola</tspan></tspan></tspan></text>
<path d="m4530.3 2049.3h-1378v-827h2756v827h-1378z" style="fill:#808080"/><path d="m4530.3 2049.3h-1378v-827h2756v827h-1378z" style="fill:none;stroke-width:28.222;stroke:#808080"/><text x="-5765.6528" y="-6317.6528" style="font-size:12px"><tspan style="font-family:'Arial';font-size:494px;font-weight:700"><tspan x="3842.3472" y="1834.3473"><tspan style="fill:#808080">Nome</tspan></tspan></tspan></text>
<path d="m4430.3 1949.3h-1378v-827h2756v827h-1378z" style="fill:#f00"/><path d="m4430.3 1949.3h-1378v-827h2756v827h-1378z" style="fill:none;stroke-width:28.222;stroke:#fff"/><text x="-5765.6528" y="-6317.6528" style="font-size:12px"><tspan style="font-family:'Arial';font-size:494px;font-weight:700"><tspan x="3742.3472" y="1734.3473"><tspan style="fill:#000000">Nome</tspan></tspan></tspan></text>
<path d="m7286.3 2049.3h-1378v-827h2756v827h-1378z" style="fill:#808080"/><path d="m7286.3 2049.3h-1378v-827h2756v827h-1378z" style="fill:none;stroke-width:28.222;stroke:#808080"/><text x="-5765.6528" y="-6317.6528" style="font-size:12px"><tspan style="font-family:'Arial';font-size:494px;font-weight:700"><tspan x="6901.3472" y="1834.3473"><tspan style="fill:#808080">Età</tspan></tspan></tspan></text>
<path d="m7186.3 1949.3h-1378v-827h2756v827h-1378z" style="fill:#f00"/><path d="m7186.3 1949.3h-1378v-827h2756v827h-1378z" style="fill:none;stroke-width:28.222;stroke:#fff"/><text x="-5765.6528" y="-6317.6528" style="font-size:12px"><tspan style="font-family:'Arial';font-size:494px;font-weight:700"><tspan x="6801.3472" y="1734.3473"><tspan style="fill:#000000">Età</tspan></tspan></tspan></text>
<path d="m1774.3 2600.3h-1378v-551h2756v551h-1378z" style="fill:#808080"/><path d="m1774.3 2600.3h-1378v-551h2756v551h-1378z" style="fill:none;stroke-width:28.222;stroke:#808080"/><text x="-5765.6528" y="-6317.6528" style="font-size:12px"><tspan style="font-family:'Arial';font-size:423px;font-weight:400"><tspan x="1300.3473" y="2494.3472"><tspan style="fill:#808080">7274</tspan></tspan></tspan></text>
<path d="m1674.3 2500.3h-1378v-551h2756v551h-1378z" style="fill:#ff6"/><path d="m1674.3 2500.3h-1378v-551h2756v551h-1378z" style="fill:none;stroke-width:28.222;stroke:#fff"/><text x="-5765.6528" y="-6317.6528" style="font-size:12px"><tspan style="font-family:'Arial';font-size:423px;font-weight:400"><tspan x="1200.3473" y="2394.3472"><tspan style="fill:#000000">7274</tspan></tspan></tspan></text>
<path d="m4530.3 2600.3h-1378v-551h2756v551h-1378z" style="fill:#808080"/><path d="m4530.3 2600.3h-1378v-551h2756v551h-1378z" style="fill:none;stroke-width:28.222;stroke:#808080"/><text x="-5765.6528" y="-6317.6528" style="font-size:12px"><tspan style="font-family:'Arial';font-size:423px;font-weight:400"><tspan x="4001.3472" y="2494.3472"><tspan style="fill:#808080">Rossi</tspan></tspan></tspan></text>
<path d="m4430.3 2500.3h-1378v-551h2756v551h-1378z" style="fill:#ff6"/><path d="m4430.3 2500.3h-1378v-551h2756v551h-1378z" style="fill:none;stroke-width:28.222;stroke:#fff"/><text x="-5765.6528" y="-6317.6528" style="font-size:12px"><tspan style="font-family:'Arial';font-size:423px;font-weight:400"><tspan x="3901.3472" y="2394.3472"><tspan style="fill:#000000">Rossi</tspan></tspan></tspan></text>
<path d="m7286.3 2600.3h-1378v-551h2756v551h-1378z" style="fill:#808080"/><path d="m7286.3 2600.3h-1378v-551h2756v551h-1378z" style="fill:none;stroke-width:28.222;stroke:#808080"/><text x="-5765.6528" y="-6317.6528" style="font-size:12px"><tspan style="font-family:'Arial';font-size:423px;font-weight:400"><tspan x="7049.3472" y="2494.3472"><tspan style="fill:#808080">42</tspan></tspan></tspan></text>
<path d="m7186.3 2500.3h-1378v-551h2756v551h-1378z" style="fill:#ff6"/><path d="m7186.3 2500.3h-1378v-551h2756v551h-1378z" style="fill:none;stroke-width:28.222;stroke:#fff"/><text x="-5765.6528" y="-6317.6528" style="font-size:12px"><tspan style="font-family:'Arial';font-size:423px;font-weight:400"><tspan x="6949.3472" y="2394.3472"><tspan style="fill:#000000">42</tspan></tspan></tspan></text>
<path d="m1774.3 3151.3h-1378v-551h2756v551h-1378z" style="fill:#808080"/><path d="m1774.3 3151.3h-1378v-551h2756v551h-1378z" style="fill:none;stroke-width:28.222;stroke:#808080"/><text x="-5765.6528" y="-6317.6528" style="font-size:12px"><tspan style="font-family:'Arial';font-size:423px;font-weight:400"><tspan x="1300.3473" y="3045.3472"><tspan style="fill:#808080">7432</tspan></tspan></tspan></text>
<path d="m1674.3 3051.3h-1378v-551h2756v551h-1378z" style="fill:#ff6"/><path d="m1674.3 3051.3h-1378v-551h2756v551h-1378z" style="fill:none;stroke-width:28.222;stroke:#fff"/><text x="-5765.6528" y="-6317.6528" style="font-size:12px"><tspan style="font-family:'Arial';font-size:423px;font-weight:400"><tspan x="1200.3473" y="2945.3472"><tspan style="fill:#000000">7432</tspan></tspan></tspan></text>
<path d="m4530.3 3151.3h-1378v-551h2756v551h-1378z" style="fill:#808080"/><path d="m4530.3 3151.3h-1378v-551h2756v551h-1378z" style="fill:none;stroke-width:28.222;stroke:#808080"/><text x="-5765.6528" y="-6317.6528" style="font-size:12px"><tspan style="font-family:'Arial';font-size:423px;font-weight:400"><tspan x="4142.3472" y="3045.3472"><tspan style="fill:#808080">Neri</tspan></tspan></tspan></text>
<path d="m4430.3 3051.3h-1378v-551h2756v551h-1378z" style="fill:#ff6"/><path d="m4430.3 3051.3h-1378v-551h2756v551h-1378z" style="fill:none;stroke-width:28.222;stroke:#fff"/><text x="-5765.6528" y="-6317.6528" style="font-size:12px"><tspan style="font-family:'Arial';font-size:423px;font-weight:400"><tspan x="4042.3472" y="2945.3472"><tspan style="fill:#000000">Neri</tspan></tspan></tspan></text>
<path d="m7286.3 3151.3h-1378v-551h2756v551h-1378z" style="fill:#808080"/><path d="m7286.3 3151.3h-1378v-551h2756v551h-1378z" style="fill:none;stroke-width:28.222;stroke:#808080"/><text x="-5765.6528" y="-6317.6528" style="font-size:12px"><tspan style="font-family:'Arial';font-size:423px;font-weight:400"><tspan x="7049.3472" y="3045.3472"><tspan style="fill:#808080">54</tspan></tspan></tspan></text>
<path d="m7186.3 3051.3h-1378v-551h2756v551h-1378z" style="fill:#ff6"/><path d="m7186.3 3051.3h-1378v-551h2756v551h-1378z" style="fill:none;stroke-width:28.222;stroke:#fff"/><text x="-5765.6528" y="-6317.6528" style="font-size:12px"><tspan style="font-family:'Arial';font-size:423px;font-weight:400"><tspan x="6949.3472" y="2945.3472"><tspan style="fill:#000000">54</tspan></tspan></tspan></text>
<path d="m1774.3 3702.3h-1378v-551h2756v551h-1378z" style="fill:#808080"/><path d="m1774.3 3702.3h-1378v-551h2756v551h-1378z" style="fill:none;stroke-width:28.222;stroke:#808080"/><text x="-5765.6528" y="-6317.6528" style="font-size:12px"><tspan style="font-family:'Arial';font-size:423px;font-weight:400"><tspan x="1300.3473" y="3596.3472"><tspan style="fill:#808080">9824</tspan></tspan></tspan></text>
<path d="m1674.3 3602.3h-1378v-551h2756v551h-1378z" style="fill:#ff6"/><path d="m1674.3 3602.3h-1378v-551h2756v551h-1378z" style="fill:none;stroke-width:28.222;stroke:#fff"/><text x="-5765.6528" y="-6317.6528" style="font-size:12px"><tspan style="font-family:'Arial';font-size:423px;font-weight:400"><tspan x="1200.3473" y="3496.3472"><tspan style="fill:#000000">9824</tspan></tspan></tspan></text>
<path d="m4530.3 3702.3h-1378v-551h2756v551h-1378z" style="fill:#808080"/><path d="m4530.3 3702.3h-1378v-551h2756v551h-1378z" style="fill:none;stroke-width:28.222;stroke:#808080"/><text x="-5765.6528" y="-6317.6528" style="font-size:12px"><tspan style="font-family:'Arial';font-size:423px;font-weight:400"><tspan x="4034.3472" y="3596.3472"><tspan style="fill:#808080">Verdi</tspan></tspan></tspan></text>
<path d="m4430.3 3602.3h-1378v-551h2756v551h-1378z" style="fill:#ff6"/><path d="m4430.3 3602.3h-1378v-551h2756v551h-1378z" style="fill:none;stroke-width:28.222;stroke:#fff"/><text x="-5765.6528" y="-6317.6528" style="font-size:12px"><tspan style="font-family:'Arial';font-size:423px;font-weight:400"><tspan x="3934.3472" y="3496.3472"><tspan style="fill:#000000">Verdi</tspan></tspan></tspan></text>
<path d="m7286.3 3702.3h-1378v-551h2756v551h-1378z" style="fill:#808080"/><path d="m7286.3 3702.3h-1378v-551h2756v551h-1378z" style="fill:none;stroke-width:28.222;stroke:#808080"/><text x="-5765.6528" y="-6317.6528" style="font-size:12px"><tspan style="font-family:'Arial';font-size:423px;font-weight:400"><tspan x="7049.3472" y="3596.3472"><tspan style="fill:#808080">45</tspan></tspan></tspan></text>
<path d="m7186.3 3602.3h-1378v-551h2756v551h-1378z" style="fill:#ff6"/><path d="m7186.3 3602.3h-1378v-551h2756v551h-1378z" style="fill:none;stroke-width:28.222;stroke:#fff"/><text x="-5765.6528" y="-6317.6528" style="font-size:12px"><tspan style="font-family:'Arial';font-size:423px;font-weight:400"><tspan x="6949.3472" y="3496.3472"><tspan style="fill:#000000">45</tspan></tspan></tspan></text>
<path d="m12798 1223.3h-1929v-827h3858v827h-1929z" style="fill:#808080"/><path d="m12798 1223.3h-1929v-827h3858v827h-1929z" style="fill:none;stroke-width:28.222;stroke:#808080"/><text x="-5765.6528" y="-6317.6528" style="font-size:12px"><tspan style="font-family:'Arial';font-size:494px;font-style:italic;font-weight:400"><tspan x="12055.348" y="1008.3472"><tspan style="fill:#808080">Quadri</tspan></tspan></tspan></text>
<path d="m12698 1123.3h-1929v-827h3858v827h-1929z" style="fill:url(#d)"/><path d="m12698 1123.3h-1929v-827h3858v827h-1929z" style="fill:none;stroke-width:28.222;stroke:#fff"/><text x="-5765.6528" y="-6317.6528" style="font-size:12px"><tspan style="font-family:'Arial';font-size:494px;font-style:italic;font-weight:400"><tspan x="11955.348" y="908.34723"><tspan style="fill:#000000">Quadri</tspan></tspan></tspan></text>
<path d="m12247 2049.3h-1378v-827h2756v827h-1378z" style="fill:#808080"/><path d="m12247 2049.3h-1378v-827h2756v827h-1378z" style="fill:none;stroke-width:28.222;stroke:#808080"/><text x="-5765.6528" y="-6317.6528" style="font-size:12px"><tspan style="font-family:'Arial';font-size:494px;font-weight:700"><tspan x="11159.348" y="1834.3473"><tspan style="fill:#808080">Matricola</tspan></tspan></tspan></text>
<path d="m12147 1949.3h-1378v-827h2756v827h-1378z" style="fill:#f00"/><path d="m12147 1949.3h-1378v-827h2756v827h-1378z" style="fill:none;stroke-width:28.222;stroke:#fff"/><text x="-5765.6528" y="-6317.6528" style="font-size:12px"><tspan style="font-family:'Arial';font-size:494px;font-weight:700"><tspan x="11059.348" y="1734.3473"><tspan style="fill:#000000">Matricola</tspan></tspan></tspan></text>
<path d="m15003 2049.3h-1378v-827h2756v827h-1378z" style="fill:#808080"/><path d="m15003 2049.3h-1378v-827h2756v827h-1378z" style="fill:none;stroke-width:28.222;stroke:#808080"/><text x="-5765.6528" y="-6317.6528" style="font-size:12px"><tspan style="font-family:'Arial';font-size:494px;font-weight:700"><tspan x="14315.348" y="1834.3473"><tspan style="fill:#808080">Nome</tspan></tspan></tspan></text>
<path d="m14903 1949.3h-1378v-827h2756v827h-1378z" style="fill:#f00"/><path d="m14903 1949.3h-1378v-827h2756v827h-1378z" style="fill:none;stroke-width:28.222;stroke:#fff"/><text x="-5765.6528" y="-6317.6528" style="font-size:12px"><tspan style="font-family:'Arial';font-size:494px;font-weight:700"><tspan x="14215.348" y="1734.3473"><tspan style="fill:#000000">Nome</tspan></tspan></tspan></text>
<path d="m17759 2049.3h-1378v-827h2756v827h-1378z" style="fill:#808080"/><path d="m17759 2049.3h-1378v-827h2756v827h-1378z" style="fill:none;stroke-width:28.222;stroke:#808080"/><text x="-5765.6528" y="-6317.6528" style="font-size:12px"><tspan style="font-family:'Arial';font-size:494px;font-weight:700"><tspan x="17374.348" y="1834.3473"><tspan style="fill:#808080">Età</tspan></tspan></tspan></text>
<path d="m17659 1949.3h-1378v-827h2756v827h-1378z" style="fill:#f00"/><path d="m17659 1949.3h-1378v-827h2756v827h-1378z" style="fill:none;stroke-width:28.222;stroke:#fff"/><text x="-5765.6528" y="-6317.6528" style="font-size:12px"><tspan style="font-family:'Arial';font-size:494px;font-weight:700"><tspan x="17274.348" y="1734.3473"><tspan style="fill:#000000">Età</tspan></tspan></tspan></text>
<path d="m12247 2600.3h-1378v-551h2756v551h-1378z" style="fill:#808080"/><path d="m12247 2600.3h-1378v-551h2756v551h-1378z" style="fill:none;stroke-width:28.222;stroke:#808080"/><text x="-5765.6528" y="-6317.6528" style="font-size:12px"><tspan style="font-family:'Arial';font-size:423px;font-weight:400"><tspan x="11773.348" y="2494.3472"><tspan style="fill:#808080">9297</tspan></tspan></tspan></text>
<path d="m12147 2500.3h-1378v-551h2756v551h-1378z" style="fill:#ff6"/><path d="m12147 2500.3h-1378v-551h2756v551h-1378z" style="fill:none;stroke-width:28.222;stroke:#fff"/><text x="-5765.6528" y="-6317.6528" style="font-size:12px"><tspan style="font-family:'Arial';font-size:423px;font-weight:400"><tspan x="11673.348" y="2394.3472"><tspan style="fill:#000000">9297</tspan></tspan></tspan></text>
<path d="m15003 2600.3h-1378v-551h2756v551h-1378z" style="fill:#808080"/><path d="m15003 2600.3h-1378v-551h2756v551h-1378z" style="fill:none;stroke-width:28.222;stroke:#808080"/><text x="-5765.6528" y="-6317.6528" style="font-size:12px"><tspan style="font-family:'Arial';font-size:423px;font-weight:400"><tspan x="14615.348" y="2494.3472"><tspan style="fill:#808080">Neri</tspan></tspan></tspan></text>
<path d="m14903 2500.3h-1378v-551h2756v551h-1378z" style="fill:#ff6"/><path d="m14903 2500.3h-1378v-551h2756v551h-1378z" style="fill:none;stroke-width:28.222;stroke:#fff"/><text x="-5765.6528" y="-6317.6528" style="font-size:12px"><tspan style="font-family:'Arial';font-size:423px;font-weight:400"><tspan x="14515.348" y="2394.3472"><tspan style="fill:#000000">Neri</tspan></tspan></tspan></text>
<path d="m17759 2600.3h-1378v-551h2756v551h-1378z" style="fill:#808080"/><path d="m17759 2600.3h-1378v-551h2756v551h-1378z" style="fill:none;stroke-width:28.222;stroke:#808080"/><text x="-5765.6528" y="-6317.6528" style="font-size:12px"><tspan style="font-family:'Arial';font-size:423px;font-weight:400"><tspan x="17522.348" y="2494.3472"><tspan style="fill:#808080">33</tspan></tspan></tspan></text>
<path d="m17659 2500.3h-1378v-551h2756v551h-1378z" style="fill:#ff6"/><path d="m17659 2500.3h-1378v-551h2756v551h-1378z" style="fill:none;stroke-width:28.222;stroke:#fff"/><text x="-5765.6528" y="-6317.6528" style="font-size:12px"><tspan style="font-family:'Arial';font-size:423px;font-weight:400"><tspan x="17422.348" y="2394.3472"><tspan style="fill:#000000">33</tspan></tspan></tspan></text>
<path d="m12247 3151.3h-1378v-551h2756v551h-1378z" style="fill:#808080"/><path d="m12247 3151.3h-1378v-551h2756v551h-1378z" style="fill:none;stroke-width:28.222;stroke:#808080"/><text x="-5765.6528" y="-6317.6528" style="font-size:12px"><tspan style="font-family:'Arial';font-size:423px;font-weight:400"><tspan x="11773.348" y="3045.3472"><tspan style="fill:#808080">7432</tspan></tspan></tspan></text>
<path d="m12147 3051.3h-1378v-551h2756v551h-1378z" style="fill:#ff6"/><path d="m12147 3051.3h-1378v-551h2756v551h-1378z" style="fill:none;stroke-width:28.222;stroke:#fff"/><text x="-5765.6528" y="-6317.6528" style="font-size:12px"><tspan style="font-family:'Arial';font-size:423px;font-weight:400"><tspan x="11673.348" y="2945.3472"><tspan style="fill:#000000">7432</tspan></tspan></tspan></text>
<path d="m15003 3151.3h-1378v-551h2756v551h-1378z" style="fill:#808080"/><path d="m15003 3151.3h-1378v-551h2756v551h-1378z" style="fill:none;stroke-width:28.222;stroke:#808080"/><text x="-5765.6528" y="-6317.6528" style="font-size:12px"><tspan style="font-family:'Arial';font-size:423px;font-weight:400"><tspan x="14615.348" y="3045.3472"><tspan style="fill:#808080">Neri</tspan></tspan></tspan></text>
<path d="m14903 3051.3h-1378v-551h2756v551h-1378z" style="fill:#ff6"/><path d="m14903 3051.3h-1378v-551h2756v551h-1378z" style="fill:none;stroke-width:28.222;stroke:#fff"/><text x="-5765.6528" y="-6317.6528" style="font-size:12px"><tspan style="font-family:'Arial';font-size:423px;font-weight:400"><tspan x="14515.348" y="2945.3472"><tspan style="fill:#000000">Neri</tspan></tspan></tspan></text>
<path d="m17759 3151.3h-1378v-551h2756v551h-1378z" style="fill:#808080"/><path d="m17759 3151.3h-1378v-551h2756v551h-1378z" style="fill:none;stroke-width:28.222;stroke:#808080"/><text x="-5765.6528" y="-6317.6528" style="font-size:12px"><tspan style="font-family:'Arial';font-size:423px;font-weight:400"><tspan x="17522.348" y="3045.3472"><tspan style="fill:#808080">54</tspan></tspan></tspan></text>
<path d="m17659 3051.3h-1378v-551h2756v551h-1378z" style="fill:#ff6"/><path d="m17659 3051.3h-1378v-551h2756v551h-1378z" style="fill:none;stroke-width:28.222;stroke:#fff"/><text x="-5765.6528" y="-6317.6528" style="font-size:12px"><tspan style="font-family:'Arial';font-size:423px;font-weight:400"><tspan x="17422.348" y="2945.3472"><tspan style="fill:#000000">54</tspan></tspan></tspan></text>
<path d="m12247 3702.3h-1378v-551h2756v551h-1378z" style="fill:#808080"/><path d="m12247 3702.3h-1378v-551h2756v551h-1378z" style="fill:none;stroke-width:28.222;stroke:#808080"/><text x="-5765.6528" y="-6317.6528" style="font-size:12px"><tspan style="font-family:'Arial';font-size:423px;font-weight:400"><tspan x="11773.348" y="3596.3472"><tspan style="fill:#808080">9824</tspan></tspan></tspan></text>
<path d="m12147 3602.3h-1378v-551h2756v551h-1378z" style="fill:#ff6"/><path d="m12147 3602.3h-1378v-551h2756v551h-1378z" style="fill:none;stroke-width:28.222;stroke:#fff"/><text x="-5765.6528" y="-6317.6528" style="font-size:12px"><tspan style="font-family:'Arial';font-size:423px;font-weight:400"><tspan x="11673.348" y="3496.3472"><tspan style="fill:#000000">9824</tspan></tspan></tspan></text>
<path d="m15003 3702.3h-1378v-551h2756v551h-1378z" style="fill:#808080"/><path d="m15003 3702.3h-1378v-551h2756v551h-1378z" style="fill:none;stroke-width:28.222;stroke:#808080"/><text x="-5765.6528" y="-6317.6528" style="font-size:12px"><tspan style="font-family:'Arial';font-size:423px;font-weight:400"><tspan x="14507.348" y="3596.3472"><tspan style="fill:#808080">Verdi</tspan></tspan></tspan></text>
<path d="m14903 3602.3h-1378v-551h2756v551h-1378z" style="fill:#ff6"/><path d="m14903 3602.3h-1378v-551h2756v551h-1378z" style="fill:none;stroke-width:28.222;stroke:#fff"/><text x="-5765.6528" y="-6317.6528" style="font-size:12px"><tspan style="font-family:'Arial';font-size:423px;font-weight:400"><tspan x="14407.348" y="3496.3472"><tspan style="fill:#000000">Verdi</tspan></tspan></tspan></text>
<path d="m17759 3702.3h-1378v-551h2756v551h-1378z" style="fill:#808080"/><path d="m17759 3702.3h-1378v-551h2756v551h-1378z" style="fill:none;stroke-width:28.222;stroke:#808080"/><text x="-5765.6528" y="-6317.6528" style="font-size:12px"><tspan style="font-family:'Arial';font-size:423px;font-weight:400"><tspan x="17522.348" y="3596.3472"><tspan style="fill:#808080">45</tspan></tspan></tspan></text>
<path d="m17659 3602.3h-1378v-551h2756v551h-1378z" style="fill:#ff6"/><path d="m17659 3602.3h-1378v-551h2756v551h-1378z" style="fill:none;stroke-width:28.222;stroke:#fff"/><text x="-5765.6528" y="-6317.6528" style="font-size:12px"><tspan style="font-family:'Arial';font-size:423px;font-weight:400"><tspan x="17422.348" y="3496.3472"><tspan style="fill:#000000">45</tspan></tspan></tspan></text>
<path d="m9492.3 7837.3h-2481v-827h4961v827h-2480z" style="fill:#808080"/><path d="m9492.3 7837.3h-2481v-827h4961v827h-2480z" style="fill:none;stroke-width:28.222;stroke:#808080"/><text x="-5765.6528" y="-6317.6528" style="font-size:12px"><tspan style="font-family:'Arial';font-size:494px;font-style:italic;font-weight:400"><tspan x="7533.3472" y="7622.3472"><tspan style="fill:#808080">Laureati </tspan><tspan style="fill:#808080;font-style:normal">U</tspan><tspan style="fill:#808080"> Quadri</tspan></tspan></tspan></text>
<path d="m9392.3 7737.3h-2481v-827h4961v827h-2480z" style="fill:#fff"/><path d="m9392.3 7737.3h-2481v-827h4961v827h-2480z" style="fill:url(#e);stroke-width:28.222;stroke:#fff"/><text x="-5765.6528" y="-6317.6528" style="font-size:12px"><tspan style="font-family:'Arial';font-size:494px;font-style:italic;font-weight:400"><tspan x="7433.3472" y="7522.3472"><tspan style="fill:#000000">Laureati </tspan><tspan style="fill:#000000;font-style:normal">U</tspan><tspan style="fill:#000000"> Quadri</tspan></tspan></tspan></text>
<path d="m8389.3 8664.3h-1378v-827h2756v827h-1378z" style="fill:#808080"/><path d="m8389.3 8664.3h-1378v-827h2756v827h-1378z" style="fill:none;stroke-width:28.222;stroke:#808080"/><text x="-5765.6528" y="-6317.6528" style="font-size:12px"><tspan style="font-family:'Arial';font-size:494px;font-weight:700"><tspan x="7301.3472" y="8449.3477"><tspan style="fill:#808080">Matricola</tspan></tspan></tspan></text>
<path d="m8289.3 8564.3h-1378v-827h2756v827h-1378z" style="fill:#f00"/><path d="m8289.3 8564.3h-1378v-827h2756v827h-1378z" style="fill:none;stroke-width:28.222;stroke:#fff"/><text x="-5765.6528" y="-6317.6528" style="font-size:12px"><tspan style="font-family:'Arial';font-size:494px;font-weight:700"><tspan x="7201.3472" y="8349.3477"><tspan style="fill:#000000">Matricola</tspan></tspan></tspan></text>
<path d="m11144 8664.3h-1378v-827h2756v827h-1378z" style="fill:#808080"/><path d="m11144 8664.3h-1378v-827h2756v827h-1378z" style="fill:none;stroke-width:28.222;stroke:#808080"/><text x="-5765.6528" y="-6317.6528" style="font-size:12px"><tspan style="font-family:'Arial';font-size:494px;font-weight:700"><tspan x="10456.348" y="8449.3477"><tspan style="fill:#808080">Nome</tspan></tspan></tspan></text>
<path d="m11044 8564.3h-1378v-827h2756v827h-1378z" style="fill:#f00"/><path d="m11044 8564.3h-1378v-827h2756v827h-1378z" style="fill:none;stroke-width:28.222;stroke:#fff"/><text x="-5765.6528" y="-6317.6528" style="font-size:12px"><tspan style="font-family:'Arial';font-size:494px;font-weight:700"><tspan x="10356.348" y="8349.3477"><tspan style="fill:#000000">Nome</tspan></tspan></tspan></text>
<path d="m13900 8664.3h-1378v-827h2756v827h-1378z" style="fill:#808080"/><path d="m13900 8664.3h-1378v-827h2756v827h-1378z" style="fill:none;stroke-width:28.222;stroke:#808080"/><text x="-5765.6528" y="-6317.6528" style="font-size:12px"><tspan style="font-family:'Arial';font-size:494px;font-weight:700"><tspan x="13515.348" y="8449.3477"><tspan style="fill:#808080">Età</tspan></tspan></tspan></text>
<path d="m13800 8564.3h-1378v-827h2756v827h-1378z" style="fill:#f00"/><path d="m13800 8564.3h-1378v-827h2756v827h-1378z" style="fill:none;stroke-width:28.222;stroke:#fff"/><text x="-5765.6528" y="-6317.6528" style="font-size:12px"><tspan style="font-family:'Arial';font-size:494px;font-weight:700"><tspan x="13415.348" y="8349.3477"><tspan style="fill:#000000">Età</tspan></tspan></tspan></text>
<path d="m14903 3602.3c0 194-26 366-74 518" style="fill:none;stroke-width:28.222;stroke:#808080"/><path d="m14590 4557.3c-105 126-235 232-382 321" style="fill:none;stroke-width:28.222;stroke:#808080"/><path d="m13745 5089.3c-156 54-323 98-496 136" style="fill:none;stroke-width:28.222;stroke:#808080"/><path d="m12752 5315.3c-167 25-337 47-507 68" style="fill:none;stroke-width:28.222;stroke:#808080"/><path d="m11739 5444.3c-172 21-342 43-506 69" style="fill:none;stroke-width:28.222;stroke:#808080"/><path d="m10728 5610.3c-173 40-337 89-485 149" style="fill:none;stroke-width:28.222;stroke:#808080"/><path d="m9806.3 6006.3c-109 87-199 188-267 307" style="fill:none;stroke-width:28.222;stroke:#808080"/><path d="m9391.3 6910.3 388-596-435-114 47 710z" style="fill:#808080"/><path d="m4430.3 3602.3c0 195 23 367 67 520" style="fill:none;stroke-width:28.222;stroke:#808080"/><path d="m4719.3 4568.3c102 133 228 242 372 334" style="fill:none;stroke-width:28.222;stroke:#808080"/><path d="m5549.3 5118.3c155 55 321 99 493 136" style="fill:none;stroke-width:28.222;stroke:#808080"/><path d="m6545.3 5344.3c167 25 336 48 504 70" style="fill:none;stroke-width:28.222;stroke:#808080"/><path d="m7556.3 5485.3c173 26 342 56 502 93" style="fill:none;stroke-width:28.222;stroke:#808080"/><path d="m8542.3 5724.3c166 67 314 148 438 250" style="fill:none;stroke-width:28.222;stroke:#808080"/><path d="m9391.3 6910.3 62-709-437 105 375 604z" style="fill:#808080"/><path d="m8389.3 9214.3h-1378v-551h2756v551h-1378z" style="fill:#808080"/><path d="m8389.3 9214.3h-1378v-551h2756v551h-1378z" style="fill:none;stroke-width:28.222;stroke:#808080"/><text x="-5765.6528" y="-6317.6528" style="font-size:12px"><tspan style="font-family:'Arial';font-size:423px;font-weight:400"><tspan x="7915.3472" y="9108.3477"><tspan style="fill:#808080">7274</tspan></tspan></tspan></text>
<path d="m8289.3 9114.3h-1378v-551h2756v551h-1378z" style="fill:#ff6"/><path d="m8289.3 9114.3h-1378v-551h2756v551h-1378z" style="fill:none;stroke-width:28.222;stroke:#fff"/><text x="-5765.6528" y="-6317.6528" style="font-size:12px"><tspan style="font-family:'Arial';font-size:423px;font-weight:400"><tspan x="7815.3472" y="9008.3477"><tspan style="fill:#000000">7274</tspan></tspan></tspan></text>
<path d="m11144 9214.3h-1378v-551h2756v551h-1378z" style="fill:#808080"/><path d="m11144 9214.3h-1378v-551h2756v551h-1378z" style="fill:none;stroke-width:28.222;stroke:#808080"/><text x="-5765.6528" y="-6317.6528" style="font-size:12px"><tspan style="font-family:'Arial';font-size:423px;font-weight:400"><tspan x="10615.348" y="9108.3477"><tspan style="fill:#808080">Rossi</tspan></tspan></tspan></text>
<path d="m11044 9114.3h-1378v-551h2756v551h-1378z" style="fill:#ff6"/><path d="m11044 9114.3h-1378v-551h2756v551h-1378z" style="fill:none;stroke-width:28.222;stroke:#fff"/><text x="-5765.6528" y="-6317.6528" style="font-size:12px"><tspan style="font-family:'Arial';font-size:423px;font-weight:400"><tspan x="10515.348" y="9008.3477"><tspan style="fill:#000000">Rossi</tspan></tspan></tspan></text>
<path d="m13900 9214.3h-1378v-551h2756v551h-1378z" style="fill:#808080"/><path d="m13900 9214.3h-1378v-551h2756v551h-1378z" style="fill:none;stroke-width:28.222;stroke:#808080"/><text x="-5765.6528" y="-6317.6528" style="font-size:12px"><tspan style="font-family:'Arial';font-size:423px;font-weight:400"><tspan x="13663.348" y="9108.3477"><tspan style="fill:#808080">42</tspan></tspan></tspan></text>
<path d="m13800 9114.3h-1378v-551h2756v551h-1378z" style="fill:#ff6"/><path d="m13800 9114.3h-1378v-551h2756v551h-1378z" style="fill:none;stroke-width:28.222;stroke:#fff"/><text x="-5765.6528" y="-6317.6528" style="font-size:12px"><tspan style="font-family:'Arial';font-size:423px;font-weight:400"><tspan x="13563.348" y="9008.3477"><tspan style="fill:#000000">42</tspan></tspan></tspan></text>
<path d="m8389.3 9765.3h-1378v-551h2756v551h-1378z" style="fill:#808080"/><path d="m8389.3 9765.3h-1378v-551h2756v551h-1378z" style="fill:none;stroke-width:28.222;stroke:#808080"/><text x="-5765.6528" y="-6317.6528" style="font-size:12px"><tspan style="font-family:'Arial';font-size:423px;font-weight:400"><tspan x="7915.3472" y="9659.3477"><tspan style="fill:#808080">7432</tspan></tspan></tspan></text>
<path d="m8289.3 9665.3h-1378v-551h2756v551h-1378z" style="fill:#ff6"/><path d="m8289.3 9665.3h-1378v-551h2756v551h-1378z" style="fill:none;stroke-width:28.222;stroke:#fff"/><text x="-5765.6528" y="-6317.6528" style="font-size:12px"><tspan style="font-family:'Arial';font-size:423px;font-weight:400"><tspan x="7815.3472" y="9559.3477"><tspan style="fill:#000000">7432</tspan></tspan></tspan></text>
<path d="m11144 9765.3h-1378v-551h2756v551h-1378z" style="fill:#808080"/><path d="m11144 9765.3h-1378v-551h2756v551h-1378z" style="fill:none;stroke-width:28.222;stroke:#808080"/><text x="-5765.6528" y="-6317.6528" style="font-size:12px"><tspan style="font-family:'Arial';font-size:423px;font-weight:400"><tspan x="10756.348" y="9659.3477"><tspan style="fill:#808080">Neri</tspan></tspan></tspan></text>
<path d="m11044 9665.3h-1378v-551h2756v551h-1378z" style="fill:#ff6"/><path d="m11044 9665.3h-1378v-551h2756v551h-1378z" style="fill:none;stroke-width:28.222;stroke:#fff"/><text x="-5765.6528" y="-6317.6528" style="font-size:12px"><tspan style="font-family:'Arial';font-size:423px;font-weight:400"><tspan x="10656.348" y="9559.3477"><tspan style="fill:#000000">Neri</tspan></tspan></tspan></text>
<path d="m13900 9765.3h-1378v-551h2756v551h-1378z" style="fill:#808080"/><path d="m13900 9765.3h-1378v-551h2756v551h-1378z" style="fill:none;stroke-width:28.222;stroke:#808080"/><text x="-5765.6528" y="-6317.6528" style="font-size:12px"><tspan style="font-family:'Arial';font-size:423px;font-weight:400"><tspan x="13663.348" y="9659.3477"><tspan style="fill:#808080">54</tspan></tspan></tspan></text>
<path d="m13800 9665.3h-1378v-551h2756v551h-1378z" style="fill:#ff6"/><path d="m13800 9665.3h-1378v-551h2756v551h-1378z" style="fill:none;stroke-width:28.222;stroke:#fff"/><text x="-5765.6528" y="-6317.6528" style="font-size:12px"><tspan style="font-family:'Arial';font-size:423px;font-weight:400"><tspan x="13563.348" y="9559.3477"><tspan style="fill:#000000">54</tspan></tspan></tspan></text>
<path d="m8389.3 10317h-1378v-551h2756v551h-1378z" style="fill:#808080"/><path d="m8389.3 10317h-1378v-551h2756v551h-1378z" style="fill:none;stroke-width:28.222;stroke:#808080"/><text x="-5765.6528" y="-6317.6528" style="font-size:12px"><tspan style="font-family:'Arial';font-size:423px;font-weight:400"><tspan x="7915.3472" y="10211.348"><tspan style="fill:#808080">9824</tspan></tspan></tspan></text>
<path d="m8289.3 10217h-1378v-551h2756v551h-1378z" style="fill:#ff6"/><path d="m8289.3 10217h-1378v-551h2756v551h-1378z" style="fill:none;stroke-width:28.222;stroke:#fff"/><text x="-5765.6528" y="-6317.6528" style="font-size:12px"><tspan style="font-family:'Arial';font-size:423px;font-weight:400"><tspan x="7815.3472" y="10111.348"><tspan style="fill:#000000">9824</tspan></tspan></tspan></text>
<path d="m11144 10317h-1378v-551h2756v551h-1378z" style="fill:#808080"/><path d="m11144 10317h-1378v-551h2756v551h-1378z" style="fill:none;stroke-width:28.222;stroke:#808080"/><text x="-5765.6528" y="-6317.6528" style="font-size:12px"><tspan style="font-family:'Arial';font-size:423px;font-weight:400"><tspan x="10648.348" y="10211.348"><tspan style="fill:#808080">Verdi</tspan></tspan></tspan></text>
<path d="m11044 10217h-1378v-551h2756v551h-1378z" style="fill:#ff6"/><path d="m11044 10217h-1378v-551h2756v551h-1378z" style="fill:none;stroke-width:28.222;stroke:#fff"/><text x="-5765.6528" y="-6317.6528" style="font-size:12px"><tspan style="font-family:'Arial';font-size:423px;font-weight:400"><tspan x="10548.348" y="10111.348"><tspan style="fill:#000000">Verdi</tspan></tspan></tspan></text>
<path d="m13900 10317h-1378v-551h2756v551h-1378z" style="fill:#808080"/><path d="m13900 10317h-1378v-551h2756v551h-1378z" style="fill:none;stroke-width:28.222;stroke:#808080"/><text x="-5765.6528" y="-6317.6528" style="font-size:12px"><tspan style="font-family:'Arial';font-size:423px;font-weight:400"><tspan x="13663.348" y="10211.348"><tspan style="fill:#808080">45</tspan></tspan></tspan></text>
<path d="m13800 10217h-1378v-551h2756v551h-1378z" style="fill:#ff6"/><path d="m13800 10217h-1378v-551h2756v551h-1378z" style="fill:none;stroke-width:28.222;stroke:#fff"/><text x="-5765.6528" y="-6317.6528" style="font-size:12px"><tspan style="font-family:'Arial';font-size:423px;font-weight:400"><tspan x="13563.348" y="10111.348"><tspan style="fill:#000000">45</tspan></tspan></tspan></text>
<path d="m8389.3 10868h-1378v-551h2756v551h-1378z" style="fill:#808080"/><path d="m8389.3 10868h-1378v-551h2756v551h-1378z" style="fill:none;stroke-width:28.222;stroke:#808080"/><text x="-5765.6528" y="-6317.6528" style="font-size:12px"><tspan style="font-family:'Arial';font-size:423px;font-weight:400"><tspan x="7915.3472" y="10762.348"><tspan style="fill:#808080">9297</tspan></tspan></tspan></text>
<path d="m8289.3 10768h-1378v-551h2756v551h-1378z" style="fill:#ff6"/><path d="m8289.3 10768h-1378v-551h2756v551h-1378z" style="fill:none;stroke-width:28.222;stroke:#fff"/><text x="-5765.6528" y="-6317.6528" style="font-size:12px"><tspan style="font-family:'Arial';font-size:423px;font-weight:400"><tspan x="7815.3472" y="10662.348"><tspan style="fill:#000000">9297</tspan></tspan></tspan></text>
<path d="m11144 10868h-1378v-551h2756v551h-1378z" style="fill:#808080"/><path d="m11144 10868h-1378v-551h2756v551h-1378z" style="fill:none;stroke-width:28.222;stroke:#808080"/><text x="-5765.6528" y="-6317.6528" style="font-size:12px"><tspan style="font-family:'Arial';font-size:423px;font-weight:400"><tspan x="10756.348" y="10762.348"><tspan style="fill:#808080">Neri</tspan></tspan></tspan></text>
<path d="m11044 10768h-1378v-551h2756v551h-1378z" style="fill:#ff6"/><path d="m11044 10768h-1378v-551h2756v551h-1378z" style="fill:none;stroke-width:28.222;stroke:#fff"/><text x="-5765.6528" y="-6317.6528" style="font-size:12px"><tspan style="font-family:'Arial';font-size:423px;font-weight:400"><tspan x="10656.348" y="10662.348"><tspan style="fill:#000000">Neri</tspan></tspan></tspan></text>
<path d="m13900 10868h-1378v-551h2756v551h-1378z" style="fill:#808080"/><path d="m13900 10868h-1378v-551h2756v551h-1378z" style="fill:none;stroke-width:28.222;stroke:#808080"/><text x="-5765.6528" y="-6317.6528" style="font-size:12px"><tspan style="font-family:'Arial';font-size:423px;font-weight:400"><tspan x="13663.348" y="10762.348"><tspan style="fill:#808080">33</tspan></tspan></tspan></text>
<path d="m13800 10768h-1378v-551h2756v551h-1378z" style="fill:#ff6"/><path d="m13800 10768h-1378v-551h2756v551h-1378z" style="fill:none;stroke-width:28.222;stroke:#fff"/><text x="-5765.6528" y="-6317.6528" style="font-size:12px"><tspan style="font-family:'Arial';font-size:423px;font-weight:400"><tspan x="13563.348" y="10662.348"><tspan style="fill:#000000">33</tspan></tspan></tspan></text>
</svg>
