<?xml version="1.0" encoding="iso-8859-1"?>
<!-- Uploaded to: SVG Repo, www.svgrepo.com, Generator: SVG Repo Mixer Tools -->
<svg height="800px" width="800px" version="1.1" id="Layer_1" xmlns="http://www.w3.org/2000/svg" xmlns:xlink="http://www.w3.org/1999/xlink" 
	 viewBox="0 0 512 512" xml:space="preserve">
<circle style="fill:#AB5034;" cx="256" cy="256" r="256"/>
<path style="fill:#BD7155;" d="M0,256.007c0,17.095,1.677,33.796,4.875,49.953c15.511,78.362,84.021,134.345,163.9,134.923
	c1.02,0.007,2.041,0.009,3.065,0.004c141.156-0.633,254.831-114.847,254.828-256.004c-0.001-58.948-19.94-113.233-53.423-156.507
	C337.792,10.078,297.519-0.189,254.828,0.003C113.673,0.636-0.003,114.849,0,256.007z"/>
<path style="fill:#E7E4CD;" d="M313.798,85.582L313.798,85.582C253.511,25.296,150.11,30.955,82.843,98.222l0,0
	C15.576,165.488,9.917,268.89,70.204,329.176l0,0c60.287,60.287,163.688,54.628,230.955-12.639l0,0
	C368.424,249.271,374.083,145.869,313.798,85.582z"/>
<path style="fill:#FEFBE1;" d="M149.333,56.889c-1.673,0-3.332,0.05-4.982,0.138c-22.118,9.092-43.159,22.845-61.508,41.196
	c-8.684,8.683-16.333,17.973-22.953,27.691c-1.954,7.479-3.001,15.327-3.001,23.42c0,51.055,41.39,92.444,92.444,92.444
	s92.444-41.39,92.444-92.444S200.388,56.889,149.333,56.889z"/>
<path style="fill:#67A0C0;" d="M200.567,78.946c3.081,15.566,7.45,31.743,13.163,48.451c19.342,3.537,39.016,7.131,59.028,10.788
	c19.59,3.583,25.323,27.305,10.303,39.892c-15.435,12.662-30.19,25.451-44.267,38.315c4.988,20.611,11.706,41.779,20.235,63.357
	c8.623,21.776-8.149,36.119-30.137,24.165c-22.517-12.346-51.419-25.146-72.018-36.945c-17.153,8.161-26.048,15.196-43.329,25.079
	c-14.989,8.572-38.837-9.98-37.966-29.596c0.883-19.55,3.196-38.848,6.879-57.758c-9.324-17.227-12.406-18.81-19.672-40.235
	c-5.653-16.67,0.562-31.309,18.598-35.75c15.512-3.82,20.749-4.039,39.824-5.659c12.314-15.468,25.667-30.615,40.054-45.346
	C175.07,63.856,197.938,64.479,200.567,78.946z"/>
<path style="fill:#A1C5D1;" d="M241.778,149.333c0-5.847-0.567-11.557-1.606-17.102c-8.879-1.623-17.7-3.234-26.443-4.833
	c-5.713-16.708-10.082-32.886-13.161-48.451c-2.63-14.467-25.498-15.09-39.307-1.246c-14.387,14.731-27.739,29.878-40.053,45.346
	c-19.075,1.621-24.311,1.839-39.824,5.659c-18.037,4.443-24.252,19.081-18.598,35.75c7.266,21.426,10.348,23.009,19.672,40.236
	c-0.457,2.347-0.893,4.699-1.307,7.057c16.902,18.451,41.188,30.027,68.183,30.027C200.388,241.778,241.778,200.388,241.778,149.333
	z"/>
</svg>