<?xml version="1.0" encoding="UTF-8"?>
<svg width="800px" height="800px" version="1.1" viewBox="0 0 512 512" xml:space="preserve" xmlns="http://www.w3.org/2000/svg">
<circle transform="scale(-1,1)" cx="-256" cy="256" r="256" fill="#000080"/>
<path d="m512 256c0 17.1-1.68 33.8-4.88 50-15.5 78.4-84 134-164 135-1.02 7e-3 -2.04 9e-3 -3.06 4e-3 -141-0.633-255-115-255-256 1e-3 -58.9 19.9-113 53.4-157 35.5-18.3 75.7-28.6 118-28.4 141 0.633 255 115 255 256z" fill="#00f"/>
<path d="m198 85.6c60.3-60.3 164-54.6 231 12.6 67.3 67.3 72.9 171 12.6 231-60.3 60.3-164 54.6-231-12.6-67.3-67.3-72.9-171-12.6-231z" fill="#e7e4cd"/>
<path d="m363 56.9c1.67 0 3.33 0.05 4.98 0.138 22.1 9.09 43.2 22.8 61.5 41.2 8.68 8.68 16.3 18 23 27.7 1.95 7.48 3 15.3 3 23.4 0 51.1-41.4 92.4-92.4 92.4s-92.4-41.4-92.4-92.4 41.4-92.4 92.4-92.4z" fill="#fefbe1"/>
<path d="m311 78.9c-3.08 15.6-7.45 31.7-13.2 48.5-19.3 3.54-39 7.13-59 10.8-19.6 3.58-25.3 27.3-10.3 39.9 15.4 12.7 30.2 25.5 44.3 38.3-4.99 20.6-11.7 41.8-20.2 63.4-8.62 21.8 8.15 36.1 30.1 24.2 22.5-12.3 51.4-25.1 72-36.9 17.2 8.16 26 15.2 43.3 25.1 15 8.57 38.8-9.98 38-29.6-0.883-19.6-3.2-38.8-6.88-57.8 9.32-17.2 12.4-18.8 19.7-40.2 5.65-16.7-0.562-31.3-18.6-35.8-15.5-3.82-20.7-4.04-39.8-5.66-12.3-15.5-25.7-30.6-40.1-45.3-13.8-13.8-36.7-13.2-39.3 1.24z" fill="#050"/>
<path d="m270 149c0-5.85 0.567-11.6 1.61-17.1 8.88-1.62 17.7-3.23 26.4-4.83 5.71-16.7 10.1-32.9 13.2-48.5 2.63-14.5 25.5-15.1 39.3-1.25 14.4 14.7 27.7 29.9 40.1 45.3 19.1 1.62 24.3 1.84 39.8 5.66 18 4.44 24.3 19.1 18.6 35.8-7.27 21.4-10.3 23-19.7 40.2 0.457 2.35 0.893 4.7 1.31 7.06-16.9 18.5-41.2 30-68.2 30-51.1 2e-3 -92.4-41.4-92.4-92.4z" fill="#008000"/>
</svg>
