<?xml version="1.0" encoding="UTF-8" standalone="no"?>
<!DOCTYPE svg PUBLIC "-//W3C//DTD SVG 1.0//EN" "http://www.w3.org/TR/2001/PR-SVG-20010719/DTD/svg10.dtd">
<svg width="23cm" height="25cm" viewBox="177 157 446 490" xmlns="http://www.w3.org/2000/svg" xmlns:xlink="http://www.w3.org/1999/xlink">
  <defs/>
  <g id="Background"/>
  <g id="Background"/>
  <g id="Background"/>
  <g id="Background"/>
  <g id="Background"/>
  <g id="Background"/>
  <g id="Background"/>
  <g id="Background">
    <rect style="fill: #32afff; fill-opacity: 1; stroke-opacity: 1; stroke-width: 6; stroke-linejoin: round; stroke: #ffffff" x="180" y="160" width="40" height="40" rx="6" ry="6"/>
    <rect style="fill: #000099; fill-opacity: 1; stroke-opacity: 1; stroke-width: 6; stroke-linejoin: round; stroke: #ffffff" x="220" y="160" width="40" height="40" rx="6" ry="6"/>
    <rect style="fill: #000099; fill-opacity: 1; stroke-opacity: 1; stroke-width: 6; stroke-linejoin: round; stroke: #ffffff" x="260" y="160" width="40" height="40" rx="6" ry="6"/>
    <rect style="fill: #000099; fill-opacity: 1; stroke-opacity: 1; stroke-width: 6; stroke-linejoin: round; stroke: #ffffff" x="300" y="160" width="40" height="40" rx="6" ry="6"/>
    <rect style="fill: #000099; fill-opacity: 1; stroke-opacity: 1; stroke-width: 6; stroke-linejoin: round; stroke: #ffffff" x="340" y="160" width="40" height="40" rx="6" ry="6"/>
    <rect style="fill: #000099; fill-opacity: 1; stroke-opacity: 1; stroke-width: 6; stroke-linejoin: round; stroke: #ffffff" x="180" y="200" width="40" height="40" rx="6" ry="6"/>
    <rect style="fill: #000099; fill-opacity: 1; stroke-opacity: 1; stroke-width: 6; stroke-linejoin: round; stroke: #ffffff" x="220" y="200" width="40" height="40" rx="6" ry="6"/>
    <rect style="fill: #000099; fill-opacity: 1; stroke-opacity: 1; stroke-width: 6; stroke-linejoin: round; stroke: #ffffff" x="260" y="200" width="40" height="40" rx="6" ry="6"/>
    <rect style="fill: #000099; fill-opacity: 1; stroke-opacity: 1; stroke-width: 6; stroke-linejoin: round; stroke: #ffffff" x="300" y="200" width="40" height="40" rx="6" ry="6"/>
    <rect style="fill: #000099; fill-opacity: 1; stroke-opacity: 1; stroke-width: 6; stroke-linejoin: round; stroke: #ffffff" x="340" y="200" width="40" height="40" rx="6" ry="6"/>
    <rect style="fill: #000099; fill-opacity: 1; stroke-opacity: 1; stroke-width: 6; stroke-linejoin: round; stroke: #ffffff" x="180" y="240" width="40" height="40" rx="6" ry="6"/>
    <rect style="fill: #000099; fill-opacity: 1; stroke-opacity: 1; stroke-width: 6; stroke-linejoin: round; stroke: #ffffff" x="220" y="240" width="40" height="40" rx="6" ry="6"/>
    <rect style="fill: #000099; fill-opacity: 1; stroke-opacity: 1; stroke-width: 6; stroke-linejoin: round; stroke: #ffffff" x="260" y="240" width="40" height="40" rx="6" ry="6"/>
    <rect style="fill: #000099; fill-opacity: 1; stroke-opacity: 1; stroke-width: 6; stroke-linejoin: round; stroke: #ffffff" x="300" y="240" width="40" height="40" rx="6" ry="6"/>
    <rect style="fill: #000099; fill-opacity: 1; stroke-opacity: 1; stroke-width: 6; stroke-linejoin: round; stroke: #ffffff" x="340" y="240" width="40" height="40" rx="6" ry="6"/>
    <rect style="fill: #000099; fill-opacity: 1; stroke-opacity: 1; stroke-width: 6; stroke-linejoin: round; stroke: #ffffff" x="180" y="280" width="40" height="40" rx="6" ry="6"/>
    <rect style="fill: #000099; fill-opacity: 1; stroke-opacity: 1; stroke-width: 6; stroke-linejoin: round; stroke: #ffffff" x="220" y="280" width="40" height="40" rx="6" ry="6"/>
    <rect style="fill: #000099; fill-opacity: 1; stroke-opacity: 1; stroke-width: 6; stroke-linejoin: round; stroke: #ffffff" x="260" y="280" width="40" height="40" rx="6" ry="6"/>
    <rect style="fill: #000099; fill-opacity: 1; stroke-opacity: 1; stroke-width: 6; stroke-linejoin: round; stroke: #ffffff" x="300" y="280" width="40" height="40" rx="6" ry="6"/>
    <rect style="fill: #000099; fill-opacity: 1; stroke-opacity: 1; stroke-width: 6; stroke-linejoin: round; stroke: #ffffff" x="340" y="280" width="40" height="40" rx="6" ry="6"/>
    <rect style="fill: #000099; fill-opacity: 1; stroke-opacity: 1; stroke-width: 6; stroke-linejoin: round; stroke: #ffffff" x="180" y="320" width="40" height="40" rx="6" ry="6"/>
    <rect style="fill: #000099; fill-opacity: 1; stroke-opacity: 1; stroke-width: 6; stroke-linejoin: round; stroke: #ffffff" x="220" y="320" width="40" height="40" rx="6" ry="6"/>
    <rect style="fill: #000099; fill-opacity: 1; stroke-opacity: 1; stroke-width: 6; stroke-linejoin: round; stroke: #ffffff" x="260" y="320" width="40" height="40" rx="6" ry="6"/>
    <rect style="fill: #000099; fill-opacity: 1; stroke-opacity: 1; stroke-width: 6; stroke-linejoin: round; stroke: #ffffff" x="300" y="320" width="40" height="40" rx="6" ry="6"/>
    <rect style="fill: #000099; fill-opacity: 1; stroke-opacity: 1; stroke-width: 6; stroke-linejoin: round; stroke: #ffffff" x="340" y="320" width="40" height="40" rx="6" ry="6"/>
    <rect style="fill: #32afff; fill-opacity: 1; stroke-opacity: 1; stroke-width: 6; stroke-linejoin: round; stroke: #ffffff" x="420" y="160" width="40" height="40" rx="6" ry="6"/>
    <rect style="fill: #000099; fill-opacity: 1; stroke-opacity: 1; stroke-width: 6; stroke-linejoin: round; stroke: #ffffff" x="460" y="160" width="40" height="40" rx="6" ry="6"/>
    <rect style="fill: #000099; fill-opacity: 1; stroke-opacity: 1; stroke-width: 6; stroke-linejoin: round; stroke: #ffffff" x="500" y="160" width="40" height="40" rx="6" ry="6"/>
    <rect style="fill: #000099; fill-opacity: 1; stroke-opacity: 1; stroke-width: 6; stroke-linejoin: round; stroke: #ffffff" x="540" y="160" width="40" height="40" rx="6" ry="6"/>
    <rect style="fill: #000099; fill-opacity: 1; stroke-opacity: 1; stroke-width: 6; stroke-linejoin: round; stroke: #ffffff" x="580" y="160" width="40" height="40" rx="6" ry="6"/>
    <rect style="fill: #000099; fill-opacity: 1; stroke-opacity: 1; stroke-width: 6; stroke-linejoin: round; stroke: #ffffff" x="420" y="200" width="40" height="40" rx="6" ry="6"/>
    <rect style="fill: #000099; fill-opacity: 1; stroke-opacity: 1; stroke-width: 6; stroke-linejoin: round; stroke: #ffffff" x="460" y="200" width="40" height="40" rx="6" ry="6"/>
    <rect style="fill: #000099; fill-opacity: 1; stroke-opacity: 1; stroke-width: 6; stroke-linejoin: round; stroke: #ffffff" x="500" y="200" width="40" height="40" rx="6" ry="6"/>
    <rect style="fill: #000099; fill-opacity: 1; stroke-opacity: 1; stroke-width: 6; stroke-linejoin: round; stroke: #ffffff" x="540" y="200" width="40" height="40" rx="6" ry="6"/>
    <rect style="fill: #000099; fill-opacity: 1; stroke-opacity: 1; stroke-width: 6; stroke-linejoin: round; stroke: #ffffff" x="580" y="200" width="40" height="40" rx="6" ry="6"/>
    <rect style="fill: #000099; fill-opacity: 1; stroke-opacity: 1; stroke-width: 6; stroke-linejoin: round; stroke: #ffffff" x="420" y="240" width="40" height="40" rx="6" ry="6"/>
    <rect style="fill: #000099; fill-opacity: 1; stroke-opacity: 1; stroke-width: 6; stroke-linejoin: round; stroke: #ffffff" x="460" y="240" width="40" height="40" rx="6" ry="6"/>
    <rect style="fill: #000099; fill-opacity: 1; stroke-opacity: 1; stroke-width: 6; stroke-linejoin: round; stroke: #ffffff" x="500" y="240" width="40" height="40" rx="6" ry="6"/>
    <rect style="fill: #000099; fill-opacity: 1; stroke-opacity: 1; stroke-width: 6; stroke-linejoin: round; stroke: #ffffff" x="540" y="240" width="40" height="40" rx="6" ry="6"/>
    <rect style="fill: #000099; fill-opacity: 1; stroke-opacity: 1; stroke-width: 6; stroke-linejoin: round; stroke: #ffffff" x="580" y="240" width="40" height="40" rx="6" ry="6"/>
    <rect style="fill: #000099; fill-opacity: 1; stroke-opacity: 1; stroke-width: 6; stroke-linejoin: round; stroke: #ffffff" x="420" y="280" width="40" height="40" rx="6" ry="6"/>
    <rect style="fill: #000099; fill-opacity: 1; stroke-opacity: 1; stroke-width: 6; stroke-linejoin: round; stroke: #ffffff" x="460" y="280" width="40" height="40" rx="6" ry="6"/>
    <rect style="fill: #000099; fill-opacity: 1; stroke-opacity: 1; stroke-width: 6; stroke-linejoin: round; stroke: #ffffff" x="500" y="280" width="40" height="40" rx="6" ry="6"/>
    <rect style="fill: #000099; fill-opacity: 1; stroke-opacity: 1; stroke-width: 6; stroke-linejoin: round; stroke: #ffffff" x="540" y="280" width="40" height="40" rx="6" ry="6"/>
    <rect style="fill: #32afff; fill-opacity: 1; stroke-opacity: 1; stroke-width: 6; stroke-linejoin: round; stroke: #ffffff" x="580" y="280" width="40" height="40" rx="6" ry="6"/>
    <rect style="fill: #000099; fill-opacity: 1; stroke-opacity: 1; stroke-width: 6; stroke-linejoin: round; stroke: #ffffff" x="420" y="320" width="40" height="40" rx="6" ry="6"/>
    <rect style="fill: #000099; fill-opacity: 1; stroke-opacity: 1; stroke-width: 6; stroke-linejoin: round; stroke: #ffffff" x="460" y="320" width="40" height="40" rx="6" ry="6"/>
    <rect style="fill: #000099; fill-opacity: 1; stroke-opacity: 1; stroke-width: 6; stroke-linejoin: round; stroke: #ffffff" x="500" y="320" width="40" height="40" rx="6" ry="6"/>
    <rect style="fill: #32afff; fill-opacity: 1; stroke-opacity: 1; stroke-width: 6; stroke-linejoin: round; stroke: #ffffff" x="540" y="320" width="40" height="40" rx="6" ry="6"/>
    <rect style="fill: #32afff; fill-opacity: 1; stroke-opacity: 1; stroke-width: 6; stroke-linejoin: round; stroke: #ffffff" x="580" y="320" width="40" height="40" rx="6" ry="6"/>
    <g>
      <line style="fill: none; stroke-opacity: 1; stroke-width: 8; stroke-linejoin: round; stroke: #000000" x1="380" y1="260" x2="403.556" y2="260"/>
      <polygon style="fill: #000000; fill-opacity: 1; stroke-opacity: 1; stroke-width: 8; stroke: #000000" fill-rule="evenodd" points="411.056,260 401.056,265 403.556,260 401.056,255 "/>
    </g>
    <rect style="fill: #32afff; fill-opacity: 1; stroke-opacity: 1; stroke-width: 6; stroke-linejoin: round; stroke: #ffffff" x="180" y="420" width="40" height="40" rx="6" ry="6"/>
    <rect style="fill: #000099; fill-opacity: 1; stroke-opacity: 1; stroke-width: 6; stroke-linejoin: round; stroke: #ffffff" x="220" y="420" width="40" height="40" rx="6" ry="6"/>
    <rect style="fill: #000099; fill-opacity: 1; stroke-opacity: 1; stroke-width: 6; stroke-linejoin: round; stroke: #ffffff" x="260" y="420" width="40" height="40" rx="6" ry="6"/>
    <rect style="fill: #000099; fill-opacity: 1; stroke-opacity: 1; stroke-width: 6; stroke-linejoin: round; stroke: #ffffff" x="300" y="420" width="40" height="40" rx="6" ry="6"/>
    <rect style="fill: #000099; fill-opacity: 1; stroke-opacity: 1; stroke-width: 6; stroke-linejoin: round; stroke: #ffffff" x="340" y="420" width="40" height="40" rx="6" ry="6"/>
    <rect style="fill: #000099; fill-opacity: 1; stroke-opacity: 1; stroke-width: 6; stroke-linejoin: round; stroke: #ffffff" x="180" y="460" width="40" height="40" rx="6" ry="6"/>
    <rect style="fill: #000099; fill-opacity: 1; stroke-opacity: 1; stroke-width: 6; stroke-linejoin: round; stroke: #ffffff" x="220" y="460" width="40" height="40" rx="6" ry="6"/>
    <rect style="fill: #000099; fill-opacity: 1; stroke-opacity: 1; stroke-width: 6; stroke-linejoin: round; stroke: #ffffff" x="260" y="460" width="40" height="40" rx="6" ry="6"/>
    <rect style="fill: #000099; fill-opacity: 1; stroke-opacity: 1; stroke-width: 6; stroke-linejoin: round; stroke: #ffffff" x="300" y="460" width="40" height="40" rx="6" ry="6"/>
    <rect style="fill: #000099; fill-opacity: 1; stroke-opacity: 1; stroke-width: 6; stroke-linejoin: round; stroke: #ffffff" x="340" y="460" width="40" height="40" rx="6" ry="6"/>
    <rect style="fill: #000099; fill-opacity: 1; stroke-opacity: 1; stroke-width: 6; stroke-linejoin: round; stroke: #ffffff" x="180" y="500" width="40" height="40" rx="6" ry="6"/>
    <rect style="fill: #000099; fill-opacity: 1; stroke-opacity: 1; stroke-width: 6; stroke-linejoin: round; stroke: #ffffff" x="220" y="500" width="40" height="40" rx="6" ry="6"/>
    <rect style="fill: #000099; fill-opacity: 1; stroke-opacity: 1; stroke-width: 6; stroke-linejoin: round; stroke: #ffffff" x="260" y="500" width="40" height="40" rx="6" ry="6"/>
    <rect style="fill: #000099; fill-opacity: 1; stroke-opacity: 1; stroke-width: 6; stroke-linejoin: round; stroke: #ffffff" x="300" y="500" width="40" height="40" rx="6" ry="6"/>
    <rect style="fill: #000099; fill-opacity: 1; stroke-opacity: 1; stroke-width: 6; stroke-linejoin: round; stroke: #ffffff" x="340" y="500" width="40" height="40" rx="6" ry="6"/>
    <rect style="fill: #000099; fill-opacity: 1; stroke-opacity: 1; stroke-width: 6; stroke-linejoin: round; stroke: #ffffff" x="180" y="540" width="40" height="40" rx="6" ry="6"/>
    <rect style="fill: #000099; fill-opacity: 1; stroke-opacity: 1; stroke-width: 6; stroke-linejoin: round; stroke: #ffffff" x="220" y="540" width="40" height="40" rx="6" ry="6"/>
    <rect style="fill: #000099; fill-opacity: 1; stroke-opacity: 1; stroke-width: 6; stroke-linejoin: round; stroke: #ffffff" x="260" y="540" width="40" height="40" rx="6" ry="6"/>
    <rect style="fill: #000099; fill-opacity: 1; stroke-opacity: 1; stroke-width: 6; stroke-linejoin: round; stroke: #ffffff" x="300" y="540" width="40" height="40" rx="6" ry="6"/>
    <rect style="fill: #32afff; fill-opacity: 1; stroke-opacity: 1; stroke-width: 6; stroke-linejoin: round; stroke: #ffffff" x="340" y="540" width="40" height="40" rx="6" ry="6"/>
    <rect style="fill: #000099; fill-opacity: 1; stroke-opacity: 1; stroke-width: 6; stroke-linejoin: round; stroke: #ffffff" x="180" y="580" width="40" height="40" rx="6" ry="6"/>
    <rect style="fill: #000099; fill-opacity: 1; stroke-opacity: 1; stroke-width: 6; stroke-linejoin: round; stroke: #ffffff" x="220" y="580" width="40" height="40" rx="6" ry="6"/>
    <rect style="fill: #000099; fill-opacity: 1; stroke-opacity: 1; stroke-width: 6; stroke-linejoin: round; stroke: #ffffff" x="260" y="580" width="40" height="40" rx="6" ry="6"/>
    <rect style="fill: #32afff; fill-opacity: 1; stroke-opacity: 1; stroke-width: 6; stroke-linejoin: round; stroke: #ffffff" x="300" y="580" width="40" height="40" rx="6" ry="6"/>
    <rect style="fill: #32afff; fill-opacity: 1; stroke-opacity: 1; stroke-width: 6; stroke-linejoin: round; stroke: #ffffff" x="340" y="580" width="40" height="40" rx="6" ry="6"/>
    <rect style="fill: #32afff; fill-opacity: 1; stroke-opacity: 1; stroke-width: 6; stroke-linejoin: round; stroke: #ffffff" x="420" y="420" width="40" height="40" rx="6" ry="6"/>
    <rect style="fill: #000099; fill-opacity: 1; stroke-opacity: 1; stroke-width: 6; stroke-linejoin: round; stroke: #ffffff" x="460" y="420" width="40" height="40" rx="6" ry="6"/>
    <rect style="fill: #000099; fill-opacity: 1; stroke-opacity: 1; stroke-width: 6; stroke-linejoin: round; stroke: #ffffff" x="500" y="420" width="40" height="40" rx="6" ry="6"/>
    <rect style="fill: #000099; fill-opacity: 1; stroke-opacity: 1; stroke-width: 6; stroke-linejoin: round; stroke: #ffffff" x="540" y="420" width="40" height="40" rx="6" ry="6"/>
    <rect style="fill: #000099; fill-opacity: 1; stroke-opacity: 1; stroke-width: 6; stroke-linejoin: round; stroke: #ffffff" x="580" y="420" width="40" height="40" rx="6" ry="6"/>
    <rect style="fill: #000099; fill-opacity: 1; stroke-opacity: 1; stroke-width: 6; stroke-linejoin: round; stroke: #ffffff" x="420" y="460" width="40" height="40" rx="6" ry="6"/>
    <rect style="fill: #000099; fill-opacity: 1; stroke-opacity: 1; stroke-width: 6; stroke-linejoin: round; stroke: #ffffff" x="460" y="460" width="40" height="40" rx="6" ry="6"/>
    <rect style="fill: #000099; fill-opacity: 1; stroke-opacity: 1; stroke-width: 6; stroke-linejoin: round; stroke: #ffffff" x="500" y="460" width="40" height="40" rx="6" ry="6"/>
    <rect style="fill: #000099; fill-opacity: 1; stroke-opacity: 1; stroke-width: 6; stroke-linejoin: round; stroke: #ffffff" x="540" y="460" width="40" height="40" rx="6" ry="6"/>
    <rect style="fill: #000099; fill-opacity: 1; stroke-opacity: 1; stroke-width: 6; stroke-linejoin: round; stroke: #ffffff" x="580" y="460" width="40" height="40" rx="6" ry="6"/>
    <rect style="fill: #000099; fill-opacity: 1; stroke-opacity: 1; stroke-width: 6; stroke-linejoin: round; stroke: #ffffff" x="420" y="500" width="40" height="40" rx="6" ry="6"/>
    <rect style="fill: #000099; fill-opacity: 1; stroke-opacity: 1; stroke-width: 6; stroke-linejoin: round; stroke: #ffffff" x="460" y="500" width="40" height="40" rx="6" ry="6"/>
    <rect style="fill: #000099; fill-opacity: 1; stroke-opacity: 1; stroke-width: 6; stroke-linejoin: round; stroke: #ffffff" x="500" y="500" width="40" height="40" rx="6" ry="6"/>
    <rect style="fill: #32afff; fill-opacity: 1; stroke-opacity: 1; stroke-width: 6; stroke-linejoin: round; stroke: #ffffff" x="540" y="500" width="40" height="40" rx="6" ry="6"/>
    <rect style="fill: #000099; fill-opacity: 1; stroke-opacity: 1; stroke-width: 6; stroke-linejoin: round; stroke: #ffffff" x="580" y="500" width="40" height="40" rx="6" ry="6"/>
    <rect style="fill: #000099; fill-opacity: 1; stroke-opacity: 1; stroke-width: 6; stroke-linejoin: round; stroke: #ffffff" x="420" y="540" width="40" height="40" rx="6" ry="6"/>
    <rect style="fill: #000099; fill-opacity: 1; stroke-opacity: 1; stroke-width: 6; stroke-linejoin: round; stroke: #ffffff" x="460" y="540" width="40" height="40" rx="6" ry="6"/>
    <rect style="fill: #32afff; fill-opacity: 1; stroke-opacity: 1; stroke-width: 6; stroke-linejoin: round; stroke: #ffffff" x="500" y="540" width="40" height="40" rx="6" ry="6"/>
    <rect style="fill: #32afff; fill-opacity: 1; stroke-opacity: 1; stroke-width: 6; stroke-linejoin: round; stroke: #ffffff" x="540" y="540" width="40" height="40" rx="6" ry="6"/>
    <rect style="fill: #000099; fill-opacity: 1; stroke-opacity: 1; stroke-width: 6; stroke-linejoin: round; stroke: #ffffff" x="580" y="540" width="40" height="40" rx="6" ry="6"/>
    <rect style="fill: #000099; fill-opacity: 1; stroke-opacity: 1; stroke-width: 6; stroke-linejoin: round; stroke: #ffffff" x="420" y="580" width="40" height="40" rx="6" ry="6"/>
    <rect style="fill: #000099; fill-opacity: 1; stroke-opacity: 1; stroke-width: 6; stroke-linejoin: round; stroke: #ffffff" x="460" y="580" width="40" height="40" rx="6" ry="6"/>
    <rect style="fill: #000099; fill-opacity: 1; stroke-opacity: 1; stroke-width: 6; stroke-linejoin: round; stroke: #ffffff" x="500" y="580" width="40" height="40" rx="6" ry="6"/>
    <rect style="fill: #000099; fill-opacity: 1; stroke-opacity: 1; stroke-width: 6; stroke-linejoin: round; stroke: #ffffff" x="540" y="580" width="40" height="40" rx="6" ry="6"/>
    <rect style="fill: #32afff; fill-opacity: 1; stroke-opacity: 1; stroke-width: 6; stroke-linejoin: round; stroke: #ffffff" x="580" y="580" width="40" height="40" rx="6" ry="6"/>
    <g>
      <line style="fill: none; stroke-opacity: 1; stroke-width: 8; stroke-linejoin: round; stroke: #000000" x1="380" y1="520" x2="403.556" y2="520"/>
      <polygon style="fill: #000000; fill-opacity: 1; stroke-opacity: 1; stroke-width: 8; stroke: #000000" fill-rule="evenodd" points="411.056,520 401.056,525 403.556,520 401.056,515 "/>
    </g>
    <polygon style="fill: none; stroke-opacity: 1; stroke-width: 2; stroke: #1e90ff" points="340,340 353.333,337.333 346.667,326.667 357.333,333.333 360,320 362.667,333.333 373.333,326.667 366.667,337.333 380,340 366.667,342.667 373.333,353.333 362.667,346.667 360,360 357.333,346.667 346.667,353.333 353.333,342.667 "/>
    <image x="300" y="328" width="80" height="80" xlink:href="index.svg" transform="translate(340,368) rotate(-45) translate(-340,-368)"/>
    <polygon style="fill: none; stroke-opacity: 1; stroke-width: 2; stroke: #1e90ff" points="300,560 313.333,557.333 306.667,546.667 317.333,553.333 320,540 322.667,553.333 333.333,546.667 326.667,557.333 340,560 326.667,562.667 333.333,573.333 322.667,566.667 320,580 317.333,566.667 306.667,573.333 313.333,562.667 "/>
    <image x="260" y="550" width="80" height="80" xlink:href="index.svg" transform="translate(300,590) rotate(-45) translate(-300,-590)"/>
  </g>
</svg>
