<?xml version="1.0" encoding="iso-8859-1"?>
<!-- Generator: Adobe Illustrator 19.0.0, SVG Export Plug-In . SVG Version: 6.00 Build 0)  -->
<!-- License: CC0. Made by SVG Repo: https://www.svgrepo.com/svg/211752/gamer -->
<svg version="1.1" id="Layer_1" xmlns="http://www.w3.org/2000/svg" xmlns:xlink="http://www.w3.org/1999/xlink" x="0px" y="0px"
	 viewBox="0 0 512 512" style="enable-background:new 0 0 512 512;" xml:space="preserve">
<path style="fill:#FFD782;" d="M209.638,244.628l129.736-95.594c6.241-4.599,7.204-13.545,2.155-19.428
	c-40.358-47.019-102.755-74.557-171.218-66.385C81.862,73.778,10.999,145.353,1.223,233.893
	c-12.937,117.155,78.443,216.313,192.983,216.313c58.996,0,111.782-26.358,147.389-67.889c5.021-5.856,3.992-14.775-2.218-19.35
	L209.638,267.37C201.977,261.725,201.977,250.274,209.638,244.628z"/>
<path style="fill:#FFC36E;" d="M255.491,406.068c-114.54,0-205.92-99.157-192.984-216.313
	c4.675-42.346,23.433-80.712,51.296-110.476C53.119,107.021,8.797,165.293,1.223,233.892
	c-12.937,117.156,78.443,216.314,192.983,216.314c55.956,0,106.298-23.738,141.721-61.62
	C311.421,399.783,284.203,406.068,255.491,406.068z"/>
<circle style="fill:#FFD782;" cx="397.241" cy="255.999" r="26.483"/>
<path style="fill:#FFC36E;" d="M408.275,269.241c-13.407,0-24.276-10.869-24.276-24.276c0-5.134,1.614-9.88,4.335-13.802
	c-10.222,3.669-17.577,13.351-17.577,24.836c0,14.626,11.857,26.483,26.483,26.483c11.486,0,21.167-7.354,24.836-17.577
	C418.156,267.625,413.41,269.241,408.275,269.241z"/>
<circle style="fill:#FFD782;" cx="485.517" cy="255.999" r="26.483"/>
<path style="fill:#FFC36E;" d="M496.551,269.241c-13.407,0-24.276-10.869-24.276-24.276c0-5.134,1.614-9.88,4.335-13.802
	c-10.222,3.669-17.577,13.351-17.577,24.836c0,14.626,11.857,26.483,26.483,26.483c11.486,0,21.167-7.354,24.836-17.577
	C506.432,267.625,501.686,269.241,496.551,269.241z"/>
<circle style="fill:#FFD782;" cx="308.965" cy="255.999" r="26.483"/>
<path style="fill:#FFC36E;" d="M320,269.241c-13.407,0-24.276-10.869-24.276-24.276c0-5.134,1.614-9.88,4.335-13.802
	c-10.222,3.669-17.577,13.351-17.577,24.836c0,14.626,11.857,26.483,26.483,26.483c11.486,0,21.167-7.354,24.836-17.577
	C329.88,267.625,325.134,269.241,320,269.241z"/>
<circle style="fill:#5B5D6E;" cx="220.689" cy="150.068" r="26.483"/>
<path style="fill:#464655;" d="M231.724,163.31c-13.407,0-24.276-10.869-24.276-24.276c0-5.134,1.614-9.88,4.335-13.802
	c-10.222,3.669-17.577,13.351-17.577,24.836c0,14.626,11.857,26.483,26.483,26.483c11.486,0,21.167-7.354,24.836-17.577
	C241.604,161.694,236.858,163.31,231.724,163.31z"/>
</svg>
