<?xml version="1.0" encoding="UTF-8"?>
<svg width="800px" height="800px" version="1.1" viewBox="0 0 512 512" xml:space="preserve" xmlns="http://www.w3.org/2000/svg">

<path d="m173 149s55.8 56.3 103 94c5.16 4.13 6.08 21.5 0.96 25.7-49 40-104 94.2-104 94.2s83.4-60.3 130-95.6c15.3-11.6 15-10.8 0-22.7-46.4-37.2-130-95.6-130-95.6z" fill="#d9ad64" stroke-width="0"/>



<path d="m302 245-130-95.6c-6.24-4.6-7.2-13.5-2.16-19.4 40.4-47 103-74.6 171-66.4 88.4 10.6 159 82.1 169 171 12.9 117-78.4 216-193 216-59 0-112-26.4-147-67.9-5.02-5.86-3.99-14.8 2.22-19.4l130-95.6c7.66-5.64 7.66-17.1 0-22.7z" fill="#ffd782"/><path d="m257 406c115 0 206-99.2 193-216-4.68-42.3-23.4-80.7-51.3-110 60.7 27.7 105 86 113 155 12.9 117-78.4 216-193 216-56 0-106-23.7-142-61.6 24.5 11.2 51.7 17.5 80.4 17.5z" fill="#ffc36e"/><circle transform="scale(-1,1)" cx="-26.5" cy="256" r="26.5" fill="#f00"/><path d="m15.4 269c13.4 0 24.3-10.9 24.3-24.3 0-5.13-1.61-9.88-4.34-13.8 10.2 3.67 17.6 13.4 17.6 24.8 0 14.6-11.9 26.5-26.5 26.5-11.5 0-21.2-7.35-24.8-17.6 3.92 2.72 8.67 4.34 13.8 4.34z" fill="#800000"/><circle transform="scale(-1,1)" cx="-160" cy="256" r="26.5" fill="#f00"/><path d="m148 269c13.4 0 24.3-10.9 24.3-24.3 0-5.13-1.61-9.88-4.34-13.8 10.2 3.67 17.6 13.4 17.6 24.8 0 14.6-11.9 26.5-26.5 26.5-11.5 0-21.2-7.35-24.8-17.6 3.92 2.72 8.67 4.34 13.8 4.34z" fill="#800000"/><circle transform="scale(-1,1)" cx="-291" cy="150" r="26.5" fill="#59f"/><path d="m280 163c13.4 0 24.3-10.9 24.3-24.3 0-5.13-1.61-9.88-4.34-13.8 10.2 3.67 17.6 13.4 17.6 24.8 0 14.6-11.9 26.5-26.5 26.5-11.5 0-21.2-7.35-24.8-17.6 3.92 2.72 8.67 4.34 13.8 4.34z" fill="#06f"/>

</svg>
