<?xml version="1.0" encoding="UTF-8"?>
<svg class="iconify iconify--noto" width="800" height="800" aria-hidden="true" role="img" version="1.1" viewBox="0 0 128 128" xmlns="http://www.w3.org/2000/svg">
 <path d="m107 97c0.41 0.14 17.5 5.37 17.5 5.37s1.15-5.31 0.1-10.7c-1.11-5.72-2.56-9.12-2.56-9.12s-1.58-3.85-6.47-7.01c-4.11-2.66-13.5-5.48-15.7-6.86-1.44-0.91-3.87-2.55-7.56-6.61s-6.61-8.31-13.1-11.3-9.92-2.55-17-3.02-14.7-0.28-20.5 0-10.3 2.93-11.8 3.87c-1.51 0.94-5.29 4.16-7.27 6.23-1.98 2.08-4.34 5.19-6.14 6.71-1.79 1.51-4.63 3.31-7.08 4.72-2.46 1.42-3.97 2.64-4.44 3.87s-0.46 1.29-0.46 1.29l1.69 17.5z" fill="#0f0"/>
 <path d="m124 102s-2.59-4.68-8.72-9.58c-5.22-4.17-9.92-6.49-17.2-7.56-6.43-0.94-19.3-0.64-40.8-0.54-21.5 0.09-36.8 0.12-38.7 0.03s-4.56-1.77-7.65-3.73c-3.08-1.96-4.31 0.92-4.31 0.92l-3.46 10.2s-0.13 11.7 0.09 14.6c0.15 1.88 2.71 5.14 4.02 5.7s24.9 0.93 31.9 0.93c7.01 0 66.8-0.18 72.8-0.65 2.8-0.22 6.54-1.68 8.32-3.46 3.28-3.27 3.75-6.82 3.75-6.82z" fill="#008000"/>
 <path d="m120 82.5s-7.99-1-8.56-0.6c-0.71 0.5 2.43 5.91 3.26 7 0.41 0.54 7.45 3.94 7.45 3.94l-0.02-4.89z" fill="#fffeff"/>
 <path d="m125 94.1-3.1-1.62s-0.55-3.09-0.89-4.56c-0.55-2.43-1.9-5.56-1.9-5.56l3.03 0.28s0.99 1.69 1.9 5.48c0.97 4.09 0.96 5.98 0.96 5.98z" fill="#d5ccc2"/>
 <path d="m95.5 76.6c-0.22 2.16-2.61 2.11-9.44 2.11-5.45 0-60.4 0.51-61.7-0.07-0.64-0.28-1.52-1.47-2.61-3.05-1.64-2.36-2.4-3.48-2.25-4.36 0.29-1.72 9.22-13 14.8-16.3 3.87-2.31 12.2-2.32 19.1-2.4 6.24-0.07 18.1-0.22 23.7 3.41 8.43 5.41 18.7 17.9 18.4 20.7z" fill="#546d81"/>
 <path d="m88.1 74.4c-0.44 0.55-9.13 0.39-17.2 0.36-8.27-0.03-16 0.37-16.3 0-0.12-0.17-0.53-17.7-0.19-18 0.25-0.23 2.39-0.07 5.11-0.04 4.54 0.05 11.2 0.76 15.3 3.09 7.15 3.99 14.2 13.5 13.3 14.6z" fill="#afe3fb"/>
 <path d="m49.4 57.1c0.07 0.13 0.2 17.8 0.09 17.9-0.58 0.36-22.7 0.08-23-0.21s-2.61-2.61-2.54-3.19 7.54-9.81 12.7-12.9c2.25-1.39 12.6-1.75 12.7-1.55z" fill="#afe3fb"/>
 <path d="m90.2 81c-0.65 1.72-4.1 2.47-6.32 2.27-3.28-0.3-5.25-2.21-5.6-6.14-0.41-4.51 1.65-6.58 3.08-6.85 1.52-0.29 8.9 7.56 8.9 7.56s0.48 1.73-0.06 3.16z" fill="#008000"/>
 <path d="m85.5 80c-2.43-0.26-4.17-2.5-5.01-4.29-0.83-1.79-1.45-4.49 0.42-5.31 2.32-1.01 4.41 0.18 5.84 1.79 1.26 1.42 3.7 4.65 3.52 5.6-0.18 0.96-1.43 2.57-4.77 2.21z" fill="#0f0"/>
 <path d="m110 110c-0.09 5.52-4.49 13.5-14.1 13.5-9.58 0.06-14.6-7.28-14.2-14.8 0.31-7.64 6.25-13 14.8-12.8 8 0.24 13.6 6.44 13.5 14.1z" fill="#4e433d"/>
 <path d="m103 110c-0.05 2.91-2.41 7.1-7.56 7.13s-7.64-3.62-7.48-7.58c0.17-4.03 3.46-7.03 7.78-6.97 4.3 0.07 7.33 3.39 7.26 7.42z" fill="#c8c8c8"/>
 <path d="m39 111c-0.09 5.48-4.39 13.4-13.8 13.4s-14.2-7.22-14-14.7c0.3-7.59 6.11-12.9 14.5-12.7 7.83 0.23 13.4 6.38 13.2 14z" fill="#4e433d"/>
 <path d="m32.7 110c-0.05 2.91-2.41 7.1-7.56 7.13s-7.64-3.62-7.48-7.58c0.17-4.03 3.46-7.03 7.78-6.97 4.29 0.07 7.32 3.39 7.26 7.42z" fill="#c8c8c8"/>
 <path d="m6.23 76.2c0.29 0.41 5.31 4.55 5.31 5.19s-5.72 8.91-5.72 8.91l-1.34 0.81s-0.64-10.5-0.64-10.7c0-0.21 2.39-4.2 2.39-4.2z" fill="#fffeff"/>
 <path d="m3.22 93.6s-0.47-7.53-0.41-11.6c0.06-4.43 1.32-7.68 1.32-7.68l2.12 1.85s-0.72 3.92-0.72 6.49 0.29 7.58 0.29 7.58z" fill="#d5ccc2"/>
</svg>
