<?xml version="1.0" encoding="UTF-8"?>
<svg width="800px" height="800px" version="1.1" viewBox="0 0 297 297" xml:space="preserve" xmlns="http://www.w3.org/2000/svg">
<circle transform="rotate(-30)" cx="54.4" cy="203" r="148" fill="#800000"/><path d="m116 60-32.2 18.6s0.395 142 69 218c23.8-0.698 47.7-7.13 69.8-19.9 21.1-12.2 38.1-28.8 50.5-48-31.5-98.5-155-170-155-170z" fill="#008000"/><path d="m145 0.0226c-47 18.1-51.9 52-51.9 52l25.4 6.79c29.1-20.7 88.4-28.8 116-31.6-26.2-18.5-57.7-28-89.6-27.2z" fill="#d4aa00"/><path d="m21.8 71c-16.6 27.2-24.1 59.3-21.2 91.2 16.3-22.7 52.9-69.9 85.4-84.8l6.79-25.4s-31.8-12.7-71 18.9z" fill="#003380"/><ellipse transform="rotate(-30)" cx="54.4" cy="101" rx="49.4" ry="37.1" fill="#f3f3e9" stroke-width="1.33"/><path d="m183 4c13.5 11 25.2 24.6 34.4 40.6 41 71 16.7 162-54.4 203-34.2 19.7-72.9 24.3-108 15.9 46.4 38.1 113 45.6 168 13.8 71-41 95.4-132 54.4-203-21.3-36.9-56-61.2-94.4-70.2z" fill="#565657" fill-opacity=".601" opacity=".6"/>
</svg>
